<?xml version="1.0" encoding="utf-8"?>
<svg xmlns="http://www.w3.org/2000/svg" xmlns:xlink="http://www.w3.org/1999/xlink" width="900" height="300" viewBox="0 0 3600 1200">
<defs>
  <clipPath id="clip100">
    <rect x="0" y="0" width="3600" height="1200"/>
  </clipPath>
</defs>
<path clip-path="url(#clip100)" d="
M0 1200 L3600 1200 L3600 0 L0 0  Z
  " fill="#ffffff" fill-rule="evenodd" fill-opacity="1"/>
<defs>
  <clipPath id="clip101">
    <rect x="720" y="0" width="2521" height="1200"/>
  </clipPath>
</defs>
<defs>
  <clipPath id="clip102">
    <rect x="347" y="0" width="3129" height="988"/>
  </clipPath>
</defs>
<path clip-path="url(#clip100)" d="
M429.44 994.428 L3489.76 994.428 L3489.76 110.236 L429.44 110.236  Z
  " fill="#ffffff" fill-rule="evenodd" fill-opacity="1"/>
<defs>
  <clipPath id="clip103">
    <rect x="429" y="110" width="3061" height="885"/>
  </clipPath>
</defs>
<polyline clip-path="url(#clip103)" style="stroke:#000000; stroke-linecap:butt; stroke-linejoin:round; stroke-width:2; stroke-opacity:0.1; fill:none" points="
  668.005,994.428 668.005,110.236 
  "/>
<polyline clip-path="url(#clip103)" style="stroke:#000000; stroke-linecap:butt; stroke-linejoin:round; stroke-width:2; stroke-opacity:0.1; fill:none" points="
  971.91,994.428 971.91,110.236 
  "/>
<polyline clip-path="url(#clip103)" style="stroke:#000000; stroke-linecap:butt; stroke-linejoin:round; stroke-width:2; stroke-opacity:0.1; fill:none" points="
  1275.82,994.428 1275.82,110.236 
  "/>
<polyline clip-path="url(#clip103)" style="stroke:#000000; stroke-linecap:butt; stroke-linejoin:round; stroke-width:2; stroke-opacity:0.1; fill:none" points="
  1579.72,994.428 1579.72,110.236 
  "/>
<polyline clip-path="url(#clip103)" style="stroke:#000000; stroke-linecap:butt; stroke-linejoin:round; stroke-width:2; stroke-opacity:0.1; fill:none" points="
  1883.63,994.428 1883.63,110.236 
  "/>
<polyline clip-path="url(#clip103)" style="stroke:#000000; stroke-linecap:butt; stroke-linejoin:round; stroke-width:2; stroke-opacity:0.1; fill:none" points="
  2187.53,994.428 2187.53,110.236 
  "/>
<polyline clip-path="url(#clip103)" style="stroke:#000000; stroke-linecap:butt; stroke-linejoin:round; stroke-width:2; stroke-opacity:0.1; fill:none" points="
  2491.44,994.428 2491.44,110.236 
  "/>
<polyline clip-path="url(#clip103)" style="stroke:#000000; stroke-linecap:butt; stroke-linejoin:round; stroke-width:2; stroke-opacity:0.1; fill:none" points="
  2795.34,994.428 2795.34,110.236 
  "/>
<polyline clip-path="url(#clip103)" style="stroke:#000000; stroke-linecap:butt; stroke-linejoin:round; stroke-width:2; stroke-opacity:0.1; fill:none" points="
  3099.25,994.428 3099.25,110.236 
  "/>
<polyline clip-path="url(#clip103)" style="stroke:#000000; stroke-linecap:butt; stroke-linejoin:round; stroke-width:2; stroke-opacity:0.1; fill:none" points="
  3403.15,994.428 3403.15,110.236 
  "/>
<polyline clip-path="url(#clip100)" style="stroke:#000000; stroke-linecap:butt; stroke-linejoin:round; stroke-width:4; stroke-opacity:1; fill:none" points="
  429.44,994.428 3489.76,994.428 
  "/>
<polyline clip-path="url(#clip100)" style="stroke:#000000; stroke-linecap:butt; stroke-linejoin:round; stroke-width:4; stroke-opacity:1; fill:none" points="
  429.44,110.236 3489.76,110.236 
  "/>
<polyline clip-path="url(#clip100)" style="stroke:#000000; stroke-linecap:butt; stroke-linejoin:round; stroke-width:4; stroke-opacity:1; fill:none" points="
  668.005,994.428 668.005,975.53 
  "/>
<polyline clip-path="url(#clip100)" style="stroke:#000000; stroke-linecap:butt; stroke-linejoin:round; stroke-width:4; stroke-opacity:1; fill:none" points="
  971.91,994.428 971.91,975.53 
  "/>
<polyline clip-path="url(#clip100)" style="stroke:#000000; stroke-linecap:butt; stroke-linejoin:round; stroke-width:4; stroke-opacity:1; fill:none" points="
  1275.82,994.428 1275.82,975.53 
  "/>
<polyline clip-path="url(#clip100)" style="stroke:#000000; stroke-linecap:butt; stroke-linejoin:round; stroke-width:4; stroke-opacity:1; fill:none" points="
  1579.72,994.428 1579.72,975.53 
  "/>
<polyline clip-path="url(#clip100)" style="stroke:#000000; stroke-linecap:butt; stroke-linejoin:round; stroke-width:4; stroke-opacity:1; fill:none" points="
  1883.63,994.428 1883.63,975.53 
  "/>
<polyline clip-path="url(#clip100)" style="stroke:#000000; stroke-linecap:butt; stroke-linejoin:round; stroke-width:4; stroke-opacity:1; fill:none" points="
  2187.53,994.428 2187.53,975.53 
  "/>
<polyline clip-path="url(#clip100)" style="stroke:#000000; stroke-linecap:butt; stroke-linejoin:round; stroke-width:4; stroke-opacity:1; fill:none" points="
  2491.44,994.428 2491.44,975.53 
  "/>
<polyline clip-path="url(#clip100)" style="stroke:#000000; stroke-linecap:butt; stroke-linejoin:round; stroke-width:4; stroke-opacity:1; fill:none" points="
  2795.34,994.428 2795.34,975.53 
  "/>
<polyline clip-path="url(#clip100)" style="stroke:#000000; stroke-linecap:butt; stroke-linejoin:round; stroke-width:4; stroke-opacity:1; fill:none" points="
  3099.25,994.428 3099.25,975.53 
  "/>
<polyline clip-path="url(#clip100)" style="stroke:#000000; stroke-linecap:butt; stroke-linejoin:round; stroke-width:4; stroke-opacity:1; fill:none" points="
  3403.15,994.428 3403.15,975.53 
  "/>
<path clip-path="url(#clip100)" d="M657.568 1041.13 L657.568 1039.15 Q665.164 1039.15 669.086 1035.11 Q670.167 1035.11 670.352 1035.36 Q670.537 1035.6 670.537 1036.75 L670.537 1072.23 Q670.537 1074.11 671.464 1074.7 Q672.39 1075.28 676.435 1075.28 L678.442 1075.28 L678.442 1077.23 Q676.219 1077.04 668.191 1077.04 Q660.162 1077.04 657.97 1077.23 L657.97 1075.28 L659.977 1075.28 Q663.96 1075.28 664.917 1074.73 Q665.875 1074.14 665.875 1072.23 L665.875 1039.46 Q662.571 1041.13 657.568 1041.13 Z" fill="#000000" fill-rule="evenodd" fill-opacity="1" /><path clip-path="url(#clip100)" d="M959.281 1077.23 Q959.281 1076.09 959.373 1075.75 Q959.497 1075.41 959.991 1074.88 L972.126 1061.36 Q978.765 1053.88 978.765 1047.37 Q978.765 1043.14 976.542 1040.11 Q974.35 1037.08 970.305 1037.08 Q967.525 1037.08 965.179 1038.78 Q962.832 1040.48 961.751 1043.51 Q961.936 1043.45 962.585 1043.45 Q964.16 1043.45 965.024 1044.43 Q965.92 1045.42 965.92 1046.75 Q965.92 1048.45 964.808 1049.28 Q963.727 1050.08 962.647 1050.08 Q962.214 1050.08 961.628 1049.99 Q961.072 1049.9 960.176 1049.04 Q959.281 1048.14 959.281 1046.56 Q959.281 1042.15 962.616 1038.63 Q965.982 1035.11 971.107 1035.11 Q976.913 1035.11 980.711 1038.57 Q984.54 1041.99 984.54 1047.37 Q984.54 1049.25 983.953 1050.98 Q983.397 1052.68 982.625 1054.01 Q981.884 1055.33 979.846 1057.47 Q977.808 1059.6 976.172 1061.11 Q974.535 1062.62 970.86 1065.83 L964.16 1072.35 L975.554 1072.35 Q981.112 1072.35 981.545 1071.85 Q982.162 1070.96 982.934 1066.23 L984.54 1066.23 L982.749 1077.23 L959.281 1077.23 Z" fill="#000000" fill-rule="evenodd" fill-opacity="1" /><path clip-path="url(#clip100)" d="M1262.69 1068.71 Q1262.69 1066.82 1263.77 1065.93 Q1264.85 1065.03 1266.24 1065.03 Q1267.69 1065.03 1268.71 1065.99 Q1269.76 1066.91 1269.76 1068.55 Q1269.76 1070.31 1268.53 1071.3 Q1267.32 1072.29 1265.59 1072.04 Q1267.11 1074.57 1269.89 1075.71 Q1272.7 1076.86 1275.29 1076.86 Q1278.01 1076.86 1280.2 1074.51 Q1282.42 1072.16 1282.42 1066.42 Q1282.42 1061.54 1280.51 1058.73 Q1278.63 1055.92 1274.89 1055.92 L1272.11 1055.92 Q1271.15 1055.92 1270.87 1055.83 Q1270.6 1055.74 1270.6 1055.21 Q1270.6 1054.59 1271.55 1054.47 Q1272.51 1054.47 1274.02 1054.28 Q1277.7 1054.16 1279.64 1050.98 Q1281.4 1048.02 1281.4 1043.79 Q1281.4 1039.93 1279.55 1038.32 Q1277.73 1036.68 1275.35 1036.68 Q1273.13 1036.68 1270.69 1037.61 Q1268.25 1038.54 1266.92 1040.6 Q1270.84 1040.6 1270.84 1043.79 Q1270.84 1045.18 1269.95 1046.1 Q1269.08 1047 1267.63 1047 Q1266.24 1047 1265.32 1046.13 Q1264.39 1045.24 1264.39 1043.72 Q1264.39 1040.11 1267.6 1037.61 Q1270.84 1035.11 1275.6 1035.11 Q1280.29 1035.11 1283.75 1037.58 Q1287.24 1040.05 1287.24 1043.85 Q1287.24 1047.58 1284.77 1050.64 Q1282.3 1053.7 1278.38 1054.96 Q1283.2 1055.92 1286.07 1059.19 Q1288.94 1062.44 1288.94 1066.42 Q1288.94 1071.36 1285.05 1075 Q1281.16 1078.62 1275.48 1078.62 Q1270.23 1078.62 1266.46 1075.78 Q1262.69 1072.94 1262.69 1068.71 Z" fill="#000000" fill-rule="evenodd" fill-opacity="1" /><path clip-path="url(#clip100)" d="M1565.7 1066.79 L1565.7 1064.85 L1585.12 1035.17 Q1585.62 1034.4 1586.39 1034.43 Q1587.1 1034.43 1587.25 1034.71 Q1587.41 1034.98 1587.41 1036.07 L1587.41 1064.85 L1593.74 1064.85 L1593.74 1066.79 L1587.41 1066.79 L1587.41 1072.29 Q1587.41 1074.11 1588.15 1074.7 Q1588.92 1075.28 1592.2 1075.28 L1593.52 1075.28 L1593.52 1077.23 Q1590.93 1077.04 1584.94 1077.04 Q1578.98 1077.04 1576.39 1077.23 L1576.39 1075.28 L1577.71 1075.28 Q1580.99 1075.28 1581.76 1074.73 Q1582.53 1074.14 1582.53 1072.29 L1582.53 1066.79 L1565.7 1066.79 M1567.49 1064.85 L1582.9 1064.85 L1582.9 1041.25 L1567.49 1064.85 Z" fill="#000000" fill-rule="evenodd" fill-opacity="1" /><path clip-path="url(#clip100)" d="M1871 1067.04 Q1871 1065.15 1872.01 1064.44 Q1873.03 1063.7 1874.11 1063.7 Q1875.57 1063.7 1876.4 1064.63 Q1877.26 1065.52 1877.26 1066.79 Q1877.26 1068.06 1876.4 1068.98 Q1875.57 1069.88 1874.11 1069.88 Q1873.4 1069.88 1873.03 1069.75 Q1873.87 1072.66 1876.4 1074.76 Q1878.96 1076.86 1882.33 1076.86 Q1886.56 1076.86 1889.09 1072.75 Q1890.6 1070.09 1890.6 1064.07 Q1890.6 1058.76 1889.46 1056.11 Q1887.7 1052.06 1884.09 1052.06 Q1878.96 1052.06 1875.94 1056.48 Q1875.57 1057.03 1875.13 1057.06 Q1874.52 1057.06 1874.36 1056.72 Q1874.24 1056.35 1874.24 1055.4 L1874.24 1036.68 Q1874.24 1035.17 1874.86 1035.17 Q1875.1 1035.17 1875.63 1035.36 Q1879.61 1037.12 1884.03 1037.15 Q1888.57 1037.15 1892.64 1035.29 Q1892.95 1035.11 1893.14 1035.11 Q1893.75 1035.11 1893.78 1035.82 Q1893.78 1036.07 1893.26 1036.81 Q1892.77 1037.52 1891.68 1038.47 Q1890.6 1039.4 1889.21 1040.3 Q1887.83 1041.19 1885.79 1041.81 Q1883.78 1042.4 1881.56 1042.4 Q1878.9 1042.4 1876.18 1041.56 L1876.18 1053.88 Q1879.46 1050.67 1884.21 1050.67 Q1889.28 1050.67 1892.77 1054.75 Q1896.26 1058.82 1896.26 1064.51 Q1896.26 1070.47 1892.12 1074.54 Q1888.01 1078.62 1882.45 1078.62 Q1877.39 1078.62 1874.18 1075 Q1871 1071.39 1871 1067.04 Z" fill="#000000" fill-rule="evenodd" fill-opacity="1" /><path clip-path="url(#clip100)" d="M2174.41 1057.25 Q2174.41 1047.31 2179.47 1041.22 Q2184.54 1035.11 2191.05 1035.11 Q2194.85 1035.11 2196.95 1037.05 Q2199.08 1038.97 2199.08 1041.93 Q2199.08 1043.57 2198.12 1044.28 Q2197.16 1044.99 2196.18 1044.99 Q2195.03 1044.99 2194.14 1044.22 Q2193.24 1043.45 2193.24 1042.06 Q2193.24 1039.22 2196.73 1039.22 Q2195.1 1036.68 2191.17 1036.68 Q2189.97 1036.68 2188.73 1037.05 Q2187.5 1037.39 2185.89 1038.57 Q2184.29 1039.74 2183.05 1041.59 Q2181.82 1043.45 2180.95 1046.94 Q2180.09 1050.42 2180.09 1054.96 L2180.09 1056.48 Q2182.68 1050.21 2187.99 1050.24 Q2193.3 1050.24 2196.98 1054.28 Q2200.65 1058.33 2200.65 1064.32 Q2200.65 1070.47 2196.83 1074.54 Q2193 1078.62 2187.62 1078.62 Q2185.21 1078.62 2183.02 1077.6 Q2180.86 1076.61 2178.82 1074.33 Q2176.82 1072.04 2175.61 1067.66 Q2174.41 1063.27 2174.41 1057.25 M2180.21 1062.93 Q2180.21 1069.14 2181.35 1072.1 Q2181.54 1072.6 2181.94 1073.28 Q2182.37 1073.95 2183.08 1074.85 Q2183.83 1075.71 2185.03 1076.3 Q2186.23 1076.86 2187.62 1076.86 Q2191.85 1076.86 2193.89 1072.75 Q2194.97 1070.47 2194.97 1064.26 Q2194.97 1057.93 2193.83 1055.61 Q2191.88 1051.69 2187.93 1051.69 Q2185.28 1051.69 2183.42 1053.51 Q2181.6 1055.33 2180.89 1057.77 Q2180.21 1060.21 2180.21 1062.93 Z" fill="#000000" fill-rule="evenodd" fill-opacity="1" /><path clip-path="url(#clip100)" d="M2477.88 1047.49 L2479.95 1034.49 L2481.52 1034.49 Q2481.71 1035.26 2482.02 1035.6 Q2482.36 1035.94 2484.15 1036.22 Q2485.97 1036.5 2489.64 1036.5 L2504.99 1036.5 Q2504.99 1037.95 2504.44 1038.72 L2495.88 1050.73 Q2493.16 1054.53 2491.96 1061.54 Q2491.25 1066.23 2491.28 1071.92 L2491.28 1075.13 Q2491.28 1078.62 2488.35 1078.62 Q2485.45 1078.62 2485.45 1075.13 Q2485.45 1063.05 2493.23 1051.35 Q2494.06 1050.15 2497.12 1045.85 Q2500.21 1041.56 2500.33 1041.38 L2487.24 1041.38 Q2481.49 1041.38 2481.03 1041.75 Q2480.41 1042.3 2479.45 1047.49 L2477.88 1047.49 Z" fill="#000000" fill-rule="evenodd" fill-opacity="1" /><path clip-path="url(#clip100)" d="M2782.22 1067.69 Q2782.22 1060.61 2791.33 1056.04 Q2787.4 1053.39 2786.69 1052.62 Q2783.92 1049.53 2783.92 1045.67 Q2783.92 1041.25 2787.25 1038.2 Q2790.62 1035.11 2795.37 1035.11 Q2799.91 1035.11 2803.34 1037.73 Q2806.77 1040.36 2806.77 1044.53 Q2806.77 1050.39 2799.11 1054.35 Q2804.17 1057.5 2805.38 1058.82 Q2808.46 1062.25 2808.46 1066.61 Q2808.46 1071.67 2804.57 1075.16 Q2800.68 1078.62 2795.31 1078.62 Q2790.06 1078.62 2786.14 1075.56 Q2782.22 1072.5 2782.22 1067.69 M2785.37 1067.69 Q2785.37 1071.61 2788.3 1074.23 Q2791.26 1076.86 2795.37 1076.86 Q2799.36 1076.86 2802.32 1074.57 Q2805.31 1072.29 2805.31 1068.89 Q2805.31 1067.56 2804.85 1066.42 Q2804.42 1065.28 2803.52 1064.38 Q2802.66 1063.46 2802.1 1063.05 Q2801.58 1062.62 2800.56 1061.91 L2792.78 1057 Q2785.37 1061.11 2785.37 1067.69 M2786.69 1043.2 Q2786.69 1046.23 2789.88 1048.32 L2797.72 1053.39 Q2803.99 1049.71 2803.99 1044.53 Q2803.99 1041.16 2801.42 1038.94 Q2798.86 1036.68 2795.31 1036.68 Q2791.82 1036.68 2789.26 1038.54 Q2786.69 1040.36 2786.69 1043.2 Z" fill="#000000" fill-rule="evenodd" fill-opacity="1" /><path clip-path="url(#clip100)" d="M3086.12 1049.34 Q3086.12 1045.98 3087.11 1043.69 Q3088.1 1041.38 3090.17 1039.09 Q3093.97 1035.11 3099.46 1035.11 Q3101.81 1035.11 3103.88 1036.1 Q3105.98 1037.08 3107.95 1039.34 Q3109.96 1041.56 3111.17 1045.98 Q3112.37 1050.36 3112.37 1056.42 Q3112.37 1066.2 3107.61 1072.41 Q3102.89 1078.62 3096.5 1078.62 Q3092.45 1078.62 3090.07 1076.8 Q3087.7 1074.94 3087.7 1071.79 Q3087.7 1070.16 3088.62 1069.48 Q3089.55 1068.77 3090.6 1068.77 Q3091.74 1068.77 3092.64 1069.54 Q3093.53 1070.28 3093.53 1071.67 Q3093.53 1072.81 3092.79 1073.71 Q3092.08 1074.57 3090.23 1074.57 Q3092.05 1076.86 3096.44 1076.86 Q3098.01 1076.86 3099.59 1076.15 Q3101.16 1075.41 3102.86 1073.65 Q3104.59 1071.85 3105.64 1068.12 Q3106.69 1064.38 3106.69 1059.13 L3106.69 1057.13 Q3104.16 1063.46 3098.78 1063.46 Q3093.47 1063.46 3089.8 1059.38 Q3086.12 1055.3 3086.12 1049.34 M3091.8 1049.41 Q3091.8 1055.67 3092.95 1057.99 Q3094.89 1061.97 3098.84 1061.97 Q3102.7 1061.97 3104.62 1058.55 Q3106.56 1055.09 3106.56 1050.61 Q3106.56 1044.4 3105.55 1041.69 Q3103.66 1036.68 3099.46 1036.68 Q3095.29 1036.68 3093.13 1040.67 Q3091.8 1043.01 3091.8 1049.41 Z" fill="#000000" fill-rule="evenodd" fill-opacity="1" /><path clip-path="url(#clip100)" d="M3375.61 1041.13 L3375.61 1039.15 Q3383.2 1039.15 3387.12 1035.11 Q3388.21 1035.11 3388.39 1035.36 Q3388.58 1035.6 3388.58 1036.75 L3388.58 1072.23 Q3388.58 1074.11 3389.5 1074.7 Q3390.43 1075.28 3394.47 1075.28 L3396.48 1075.28 L3396.48 1077.23 Q3394.26 1077.04 3386.23 1077.04 Q3378.2 1077.04 3376.01 1077.23 L3376.01 1075.28 L3378.02 1075.28 Q3382 1075.28 3382.96 1074.73 Q3383.91 1074.14 3383.91 1072.23 L3383.91 1039.46 Q3380.61 1041.13 3375.61 1041.13 Z" fill="#000000" fill-rule="evenodd" fill-opacity="1" /><path clip-path="url(#clip100)" d="M3404.08 1057 Q3404.08 1047.71 3406.42 1042.64 Q3409.7 1035.11 3417.42 1035.11 Q3419.05 1035.11 3420.75 1035.57 Q3422.48 1036 3424.64 1037.7 Q3426.84 1039.4 3428.16 1042.18 Q3430.7 1047.55 3430.7 1057 Q3430.7 1066.23 3428.35 1071.27 Q3424.92 1078.62 3417.36 1078.62 Q3414.51 1078.62 3411.61 1077.17 Q3408.74 1075.71 3406.92 1072.23 Q3404.08 1067.01 3404.08 1057 M3409.33 1056.23 Q3409.33 1065.77 3410.01 1069.57 Q3410.78 1073.68 3412.88 1075.47 Q3415.01 1077.23 3417.36 1077.23 Q3419.89 1077.23 3421.99 1075.34 Q3424.12 1073.43 3424.77 1069.32 Q3425.48 1065.28 3425.45 1056.23 Q3425.45 1047.43 3424.83 1043.91 Q3423.99 1039.8 3421.77 1038.17 Q3419.58 1036.5 3417.36 1036.5 Q3416.52 1036.5 3415.63 1036.75 Q3414.76 1036.99 3413.5 1037.7 Q3412.23 1038.41 3411.24 1040.17 Q3410.28 1041.93 3409.82 1044.59 Q3409.33 1048.02 3409.33 1056.23 Z" fill="#000000" fill-rule="evenodd" fill-opacity="1" /><path clip-path="url(#clip100)" d="M1995.77 1121.51 Q1995.77 1122.04 1995.65 1122.41 Q1995.53 1122.74 1995.24 1122.9 Q1994.95 1123.07 1994.79 1123.11 Q1994.62 1123.15 1994.25 1123.19 Q1992.49 1123.35 1991.26 1123.64 Q1990.07 1123.93 1987.12 1125.4 Q1984.21 1126.88 1980.56 1129.54 L1965.89 1140.9 L1963.43 1142.82 Q1963.43 1142.95 1963.51 1143.19 Q1963.59 1143.4 1963.68 1143.68 Q1963.8 1143.93 1963.84 1144.01 L1975.77 1171.52 Q1976.71 1173.73 1977.86 1174.51 Q1979.01 1175.29 1981.59 1175.33 Q1982 1175.33 1982.16 1175.37 Q1982.37 1175.37 1982.65 1175.45 Q1982.98 1175.49 1983.11 1175.7 Q1983.27 1175.9 1983.27 1176.23 Q1983.27 1177.91 1981.75 1177.91 Q1980.81 1177.91 1977.61 1177.79 Q1974.42 1177.66 1973.51 1177.66 Q1971.83 1177.66 1968.39 1177.79 Q1964.95 1177.91 1963.27 1177.91 Q1962.08 1177.91 1962.08 1176.97 Q1962.08 1176.19 1962.37 1175.82 Q1962.69 1175.41 1962.98 1175.37 Q1963.27 1175.33 1963.92 1175.33 Q1964.41 1175.33 1964.95 1175.29 Q1965.52 1175.2 1966.34 1175 Q1967.2 1174.75 1967.73 1174.18 Q1968.31 1173.57 1968.31 1172.7 Q1968.31 1172.01 1967.28 1169.75 L1957.57 1147.17 L1945.07 1156.92 L1941.71 1170.12 Q1941.62 1170.61 1941.42 1171.47 Q1941.21 1172.34 1941.05 1172.95 Q1940.93 1173.57 1940.93 1173.81 Q1940.93 1174.34 1941.26 1174.67 Q1941.62 1175 1942.53 1175.16 Q1943.43 1175.29 1944.12 1175.33 Q1944.86 1175.33 1946.38 1175.33 Q1948.26 1175.33 1948.59 1175.66 Q1948.76 1175.86 1948.76 1176.23 Q1948.76 1176.8 1948.59 1177.21 Q1948.43 1177.58 1948.1 1177.71 Q1947.81 1177.83 1947.61 1177.87 Q1947.4 1177.91 1947.08 1177.91 Q1946.22 1177.91 1944.37 1177.83 Q1942.57 1177.75 1941.62 1177.75 L1936.26 1177.66 L1925.6 1177.91 Q1924.33 1177.91 1924.33 1176.89 Q1924.33 1176.11 1924.66 1175.78 Q1924.98 1175.41 1925.35 1175.37 Q1925.72 1175.33 1926.66 1175.33 Q1928.71 1175.33 1929.94 1175.2 Q1931.17 1175.08 1931.95 1174.92 Q1932.77 1174.71 1933.18 1174.14 Q1933.63 1173.57 1933.84 1173.07 Q1934.04 1172.54 1934.33 1171.35 L1945.56 1126.26 Q1945.89 1124.91 1945.89 1124.71 Q1945.89 1124.01 1945.48 1123.76 Q1945.11 1123.48 1944.04 1123.35 Q1941.99 1123.19 1940.44 1123.19 Q1939.41 1123.19 1939 1123.15 Q1938.63 1123.11 1938.3 1122.9 Q1938.02 1122.66 1938.02 1122.16 Q1938.02 1120.57 1939.7 1120.57 L1950.52 1120.81 L1961.26 1120.57 Q1962.45 1120.57 1962.45 1121.51 Q1962.45 1122.7 1961.87 1122.94 Q1961.34 1123.19 1959.58 1123.19 Q1956.5 1123.19 1955.11 1123.6 Q1953.76 1123.97 1953.35 1124.62 Q1952.98 1125.24 1952.53 1127.04 L1945.81 1153.97 L1978.56 1128.81 Q1981.59 1126.26 1981.59 1124.95 Q1981.59 1124.09 1980.97 1123.72 Q1980.4 1123.31 1978.97 1123.19 Q1977.94 1123.03 1977.94 1122.25 Q1977.94 1121.47 1978.23 1121.1 Q1978.56 1120.69 1978.8 1120.65 Q1979.09 1120.57 1979.54 1120.57 Q1981.06 1120.57 1984.21 1120.69 Q1987.37 1120.81 1988.89 1120.81 Q1989.91 1120.81 1991.92 1120.69 Q1993.93 1120.57 1994.83 1120.57 Q1995.28 1120.57 1995.53 1120.89 Q1995.77 1121.18 1995.77 1121.51 Z" fill="#000000" fill-rule="evenodd" fill-opacity="1" /><polyline clip-path="url(#clip103)" style="stroke:#000000; stroke-linecap:butt; stroke-linejoin:round; stroke-width:2; stroke-opacity:0.1; fill:none" points="
  429.44,885.347 3489.76,885.347 
  "/>
<polyline clip-path="url(#clip103)" style="stroke:#000000; stroke-linecap:butt; stroke-linejoin:round; stroke-width:2; stroke-opacity:0.1; fill:none" points="
  429.44,698.68 3489.76,698.68 
  "/>
<polyline clip-path="url(#clip103)" style="stroke:#000000; stroke-linecap:butt; stroke-linejoin:round; stroke-width:2; stroke-opacity:0.1; fill:none" points="
  429.44,512.012 3489.76,512.012 
  "/>
<polyline clip-path="url(#clip103)" style="stroke:#000000; stroke-linecap:butt; stroke-linejoin:round; stroke-width:2; stroke-opacity:0.1; fill:none" points="
  429.44,325.345 3489.76,325.345 
  "/>
<polyline clip-path="url(#clip103)" style="stroke:#000000; stroke-linecap:butt; stroke-linejoin:round; stroke-width:2; stroke-opacity:0.1; fill:none" points="
  429.44,138.677 3489.76,138.677 
  "/>
<polyline clip-path="url(#clip100)" style="stroke:#000000; stroke-linecap:butt; stroke-linejoin:round; stroke-width:4; stroke-opacity:1; fill:none" points="
  429.44,994.428 429.44,110.236 
  "/>
<polyline clip-path="url(#clip100)" style="stroke:#000000; stroke-linecap:butt; stroke-linejoin:round; stroke-width:4; stroke-opacity:1; fill:none" points="
  3489.76,994.428 3489.76,110.236 
  "/>
<polyline clip-path="url(#clip100)" style="stroke:#000000; stroke-linecap:butt; stroke-linejoin:round; stroke-width:4; stroke-opacity:1; fill:none" points="
  429.44,885.347 448.337,885.347 
  "/>
<polyline clip-path="url(#clip100)" style="stroke:#000000; stroke-linecap:butt; stroke-linejoin:round; stroke-width:4; stroke-opacity:1; fill:none" points="
  429.44,698.68 448.337,698.68 
  "/>
<polyline clip-path="url(#clip100)" style="stroke:#000000; stroke-linecap:butt; stroke-linejoin:round; stroke-width:4; stroke-opacity:1; fill:none" points="
  429.44,512.012 448.337,512.012 
  "/>
<polyline clip-path="url(#clip100)" style="stroke:#000000; stroke-linecap:butt; stroke-linejoin:round; stroke-width:4; stroke-opacity:1; fill:none" points="
  429.44,325.345 448.337,325.345 
  "/>
<polyline clip-path="url(#clip100)" style="stroke:#000000; stroke-linecap:butt; stroke-linejoin:round; stroke-width:4; stroke-opacity:1; fill:none" points="
  429.44,138.677 448.337,138.677 
  "/>
<path clip-path="url(#clip100)" d="M198.409 890.241 Q198.78 890.612 198.78 891.137 Q198.78 891.662 198.409 892.032 Q198.039 892.403 197.514 892.403 L157.927 892.403 Q157.402 892.403 157.031 892.032 Q156.661 891.662 156.661 891.137 Q156.661 890.612 157.031 890.241 Q157.402 889.871 157.927 889.871 L197.514 889.871 Q198.039 889.871 198.409 890.241 Z" fill="#000000" fill-rule="evenodd" fill-opacity="1" /><path clip-path="url(#clip100)" d="M204.77 886.721 Q204.77 877.427 207.117 872.362 Q210.39 864.828 218.11 864.828 Q219.747 864.828 221.445 865.291 Q223.174 865.723 225.336 867.422 Q227.528 869.12 228.856 871.899 Q231.388 877.272 231.388 886.721 Q231.388 895.954 229.041 900.987 Q225.614 908.337 218.048 908.337 Q215.208 908.337 212.305 906.885 Q209.433 905.434 207.611 901.945 Q204.77 896.726 204.77 886.721 M210.02 885.949 Q210.02 895.491 210.699 899.289 Q211.471 903.396 213.571 905.187 Q215.702 906.947 218.048 906.947 Q220.581 906.947 222.68 905.063 Q224.811 903.149 225.459 899.042 Q226.17 894.997 226.139 885.949 Q226.139 877.149 225.521 873.628 Q224.688 869.521 222.464 867.885 Q220.272 866.217 218.048 866.217 Q217.215 866.217 216.319 866.464 Q215.455 866.711 214.189 867.422 Q212.923 868.132 211.934 869.892 Q210.977 871.652 210.514 874.308 Q210.02 877.735 210.02 885.949 Z" fill="#000000" fill-rule="evenodd" fill-opacity="1" /><path clip-path="url(#clip100)" d="M240.251 905.928 Q239.293 904.909 239.293 903.581 Q239.293 902.253 240.251 901.296 Q241.208 900.308 242.659 900.308 Q244.049 900.308 244.975 901.234 Q245.932 902.13 245.932 903.612 Q245.932 905.063 244.913 906.021 Q243.925 906.947 242.659 906.947 Q241.208 906.947 240.251 905.928 Z" fill="#000000" fill-rule="evenodd" fill-opacity="1" /><path clip-path="url(#clip100)" d="M253.961 886.721 Q253.961 877.427 256.308 872.362 Q259.581 864.828 267.301 864.828 Q268.937 864.828 270.636 865.291 Q272.365 865.723 274.527 867.422 Q276.719 869.12 278.047 871.899 Q280.579 877.272 280.579 886.721 Q280.579 895.954 278.232 900.987 Q274.804 908.337 267.239 908.337 Q264.398 908.337 261.496 906.885 Q258.624 905.434 256.802 901.945 Q253.961 896.726 253.961 886.721 M259.21 885.949 Q259.21 895.491 259.89 899.289 Q260.662 903.396 262.762 905.187 Q264.892 906.947 267.239 906.947 Q269.771 906.947 271.871 905.063 Q274.002 903.149 274.65 899.042 Q275.36 894.997 275.329 885.949 Q275.329 877.149 274.712 873.628 Q273.878 869.521 271.655 867.885 Q269.462 866.217 267.239 866.217 Q266.405 866.217 265.51 866.464 Q264.645 866.711 263.379 867.422 Q262.113 868.132 261.125 869.892 Q260.168 871.652 259.705 874.308 Q259.21 877.735 259.21 885.949 Z" fill="#000000" fill-rule="evenodd" fill-opacity="1" /><path clip-path="url(#clip100)" d="M285.581 886.721 Q285.581 877.427 287.928 872.362 Q291.201 864.828 298.921 864.828 Q300.558 864.828 302.256 865.291 Q303.985 865.723 306.147 867.422 Q308.339 869.12 309.667 871.899 Q312.199 877.272 312.199 886.721 Q312.199 895.954 309.852 900.987 Q306.425 908.337 298.859 908.337 Q296.018 908.337 293.116 906.885 Q290.244 905.434 288.422 901.945 Q285.581 896.726 285.581 886.721 M290.831 885.949 Q290.831 895.491 291.51 899.289 Q292.282 903.396 294.382 905.187 Q296.513 906.947 298.859 906.947 Q301.391 906.947 303.491 905.063 Q305.622 903.149 306.27 899.042 Q306.981 894.997 306.95 885.949 Q306.95 877.149 306.332 873.628 Q305.498 869.521 303.275 867.885 Q301.083 866.217 298.859 866.217 Q298.026 866.217 297.13 866.464 Q296.266 866.711 294.999 867.422 Q293.733 868.132 292.745 869.892 Q291.788 871.652 291.325 874.308 Q290.831 877.735 290.831 885.949 Z" fill="#000000" fill-rule="evenodd" fill-opacity="1" /><path clip-path="url(#clip100)" d="M317.881 896.757 Q317.881 894.873 318.9 894.163 Q319.919 893.422 321 893.422 Q322.451 893.422 323.285 894.348 Q324.149 895.244 324.149 896.51 Q324.149 897.776 323.285 898.702 Q322.451 899.598 321 899.598 Q320.29 899.598 319.919 899.474 Q320.753 902.377 323.285 904.477 Q325.848 906.576 329.214 906.576 Q333.444 906.576 335.976 902.47 Q337.489 899.814 337.489 893.793 Q337.489 888.481 336.347 885.826 Q334.587 881.78 330.974 881.78 Q325.848 881.78 322.822 886.196 Q322.451 886.752 322.019 886.783 Q321.401 886.783 321.247 886.443 Q321.123 886.073 321.123 885.115 L321.123 866.403 Q321.123 864.89 321.741 864.89 Q321.988 864.89 322.513 865.075 Q326.496 866.835 330.912 866.866 Q335.451 866.866 339.527 865.013 Q339.836 864.828 340.021 864.828 Q340.639 864.828 340.67 865.538 Q340.67 865.785 340.145 866.526 Q339.651 867.236 338.57 868.194 Q337.489 869.12 336.1 870.016 Q334.71 870.911 332.672 871.529 Q330.665 872.115 328.442 872.115 Q325.786 872.115 323.069 871.282 L323.069 883.602 Q326.342 880.391 331.097 880.391 Q336.161 880.391 339.651 884.467 Q343.14 888.543 343.14 894.225 Q343.14 900.185 339.002 904.261 Q334.895 908.337 329.337 908.337 Q324.273 908.337 321.062 904.724 Q317.881 901.111 317.881 896.757 Z" fill="#000000" fill-rule="evenodd" fill-opacity="1" /><path clip-path="url(#clip100)" d="M348.822 886.721 Q348.822 877.427 351.169 872.362 Q354.442 864.828 362.162 864.828 Q363.798 864.828 365.497 865.291 Q367.226 865.723 369.387 867.422 Q371.58 869.12 372.908 871.899 Q375.44 877.272 375.44 886.721 Q375.44 895.954 373.093 900.987 Q369.665 908.337 362.1 908.337 Q359.259 908.337 356.356 906.885 Q353.485 905.434 351.663 901.945 Q348.822 896.726 348.822 886.721 M354.071 885.949 Q354.071 895.491 354.751 899.289 Q355.523 903.396 357.622 905.187 Q359.753 906.947 362.1 906.947 Q364.632 906.947 366.732 905.063 Q368.863 903.149 369.511 899.042 Q370.221 894.997 370.19 885.949 Q370.19 877.149 369.573 873.628 Q368.739 869.521 366.516 867.885 Q364.323 866.217 362.1 866.217 Q361.266 866.217 360.371 866.464 Q359.506 866.711 358.24 867.422 Q356.974 868.132 355.986 869.892 Q355.029 871.652 354.565 874.308 Q354.071 877.735 354.071 885.949 Z" fill="#000000" fill-rule="evenodd" fill-opacity="1" /><path clip-path="url(#clip100)" d="M199.089 703.574 Q199.459 703.944 199.459 704.469 Q199.459 704.994 199.089 705.365 Q198.718 705.735 198.193 705.735 L158.606 705.735 Q158.081 705.735 157.711 705.365 Q157.34 704.994 157.34 704.469 Q157.34 703.944 157.711 703.574 Q158.081 703.203 158.606 703.203 L198.193 703.203 Q198.718 703.203 199.089 703.574 Z" fill="#000000" fill-rule="evenodd" fill-opacity="1" /><path clip-path="url(#clip100)" d="M205.45 700.054 Q205.45 690.759 207.797 685.695 Q211.07 678.16 218.79 678.16 Q220.426 678.16 222.125 678.624 Q223.854 679.056 226.015 680.754 Q228.208 682.453 229.536 685.232 Q232.068 690.605 232.068 700.054 Q232.068 709.287 229.721 714.32 Q226.293 721.669 218.728 721.669 Q215.887 721.669 212.984 720.218 Q210.113 718.767 208.291 715.277 Q205.45 710.059 205.45 700.054 M210.699 699.282 Q210.699 708.823 211.379 712.622 Q212.151 716.728 214.25 718.519 Q216.381 720.28 218.728 720.28 Q221.26 720.28 223.36 718.396 Q225.49 716.481 226.139 712.375 Q226.849 708.329 226.818 699.282 Q226.818 690.481 226.201 686.961 Q225.367 682.854 223.144 681.217 Q220.951 679.55 218.728 679.55 Q217.894 679.55 216.999 679.797 Q216.134 680.044 214.868 680.754 Q213.602 681.464 212.614 683.225 Q211.656 684.985 211.193 687.64 Q210.699 691.068 210.699 699.282 Z" fill="#000000" fill-rule="evenodd" fill-opacity="1" /><path clip-path="url(#clip100)" d="M240.93 719.261 Q239.973 718.242 239.973 716.914 Q239.973 715.586 240.93 714.629 Q241.887 713.641 243.339 713.641 Q244.728 713.641 245.654 714.567 Q246.612 715.462 246.612 716.945 Q246.612 718.396 245.593 719.353 Q244.605 720.28 243.339 720.28 Q241.887 720.28 240.93 719.261 Z" fill="#000000" fill-rule="evenodd" fill-opacity="1" /><path clip-path="url(#clip100)" d="M254.64 700.054 Q254.64 690.759 256.987 685.695 Q260.26 678.16 267.98 678.16 Q269.617 678.16 271.315 678.624 Q273.044 679.056 275.206 680.754 Q277.398 682.453 278.726 685.232 Q281.258 690.605 281.258 700.054 Q281.258 709.287 278.911 714.32 Q275.484 721.669 267.918 721.669 Q265.078 721.669 262.175 720.218 Q259.303 718.767 257.481 715.277 Q254.64 710.059 254.64 700.054 M259.89 699.282 Q259.89 708.823 260.569 712.622 Q261.341 716.728 263.441 718.519 Q265.572 720.28 267.918 720.28 Q270.45 720.28 272.55 718.396 Q274.681 716.481 275.329 712.375 Q276.04 708.329 276.009 699.282 Q276.009 690.481 275.391 686.961 Q274.557 682.854 272.334 681.217 Q270.142 679.55 267.918 679.55 Q267.085 679.55 266.189 679.797 Q265.325 680.044 264.058 680.754 Q262.792 681.464 261.804 683.225 Q260.847 684.985 260.384 687.64 Q259.89 691.068 259.89 699.282 Z" fill="#000000" fill-rule="evenodd" fill-opacity="1" /><path clip-path="url(#clip100)" d="M286.261 700.054 Q286.261 690.759 288.607 685.695 Q291.881 678.16 299.6 678.16 Q301.237 678.16 302.935 678.624 Q304.665 679.056 306.826 680.754 Q309.019 682.453 310.346 685.232 Q312.879 690.605 312.879 700.054 Q312.879 709.287 310.532 714.32 Q307.104 721.669 299.539 721.669 Q296.698 721.669 293.795 720.218 Q290.923 718.767 289.102 715.277 Q286.261 710.059 286.261 700.054 M291.51 699.282 Q291.51 708.823 292.189 712.622 Q292.961 716.728 295.061 718.519 Q297.192 720.28 299.539 720.28 Q302.071 720.28 304.171 718.396 Q306.301 716.481 306.95 712.375 Q307.66 708.329 307.629 699.282 Q307.629 690.481 307.011 686.961 Q306.178 682.854 303.954 681.217 Q301.762 679.55 299.539 679.55 Q298.705 679.55 297.809 679.797 Q296.945 680.044 295.679 680.754 Q294.413 681.464 293.425 683.225 Q292.467 684.985 292.004 687.64 Q291.51 691.068 291.51 699.282 Z" fill="#000000" fill-rule="evenodd" fill-opacity="1" /><path clip-path="url(#clip100)" d="M318.56 720.28 Q318.56 719.137 318.653 718.797 Q318.776 718.458 319.271 717.933 L331.406 704.408 Q338.045 696.935 338.045 690.419 Q338.045 686.189 335.822 683.163 Q333.629 680.137 329.584 680.137 Q326.805 680.137 324.458 681.835 Q322.111 683.533 321.031 686.56 Q321.216 686.498 321.864 686.498 Q323.439 686.498 324.304 687.486 Q325.199 688.474 325.199 689.802 Q325.199 691.5 324.088 692.334 Q323.007 693.137 321.926 693.137 Q321.494 693.137 320.907 693.044 Q320.351 692.951 319.456 692.087 Q318.56 691.191 318.56 689.617 Q318.56 685.201 321.895 681.681 Q325.261 678.16 330.387 678.16 Q336.192 678.16 339.99 681.619 Q343.819 685.046 343.819 690.419 Q343.819 692.303 343.233 694.032 Q342.677 695.731 341.905 697.058 Q341.164 698.386 339.126 700.517 Q337.088 702.648 335.451 704.161 Q333.815 705.674 330.14 708.885 L323.439 715.401 L334.834 715.401 Q340.392 715.401 340.824 714.907 Q341.442 714.011 342.214 709.287 L343.819 709.287 L342.028 720.28 L318.56 720.28 Z" fill="#000000" fill-rule="evenodd" fill-opacity="1" /><path clip-path="url(#clip100)" d="M350.181 710.089 Q350.181 708.206 351.2 707.496 Q352.219 706.755 353.299 706.755 Q354.751 706.755 355.584 707.681 Q356.449 708.576 356.449 709.842 Q356.449 711.108 355.584 712.035 Q354.751 712.93 353.299 712.93 Q352.589 712.93 352.219 712.807 Q353.052 715.709 355.584 717.809 Q358.147 719.909 361.513 719.909 Q365.744 719.909 368.276 715.802 Q369.789 713.146 369.789 707.125 Q369.789 701.814 368.646 699.158 Q366.886 695.113 363.273 695.113 Q358.147 695.113 355.121 699.529 Q354.751 700.085 354.318 700.115 Q353.701 700.115 353.546 699.776 Q353.423 699.405 353.423 698.448 L353.423 679.735 Q353.423 678.222 354.04 678.222 Q354.288 678.222 354.812 678.407 Q358.796 680.168 363.212 680.198 Q367.751 680.198 371.827 678.346 Q372.136 678.16 372.321 678.16 Q372.939 678.16 372.969 678.871 Q372.969 679.118 372.444 679.859 Q371.95 680.569 370.87 681.526 Q369.789 682.453 368.399 683.348 Q367.01 684.244 364.972 684.861 Q362.965 685.448 360.741 685.448 Q358.086 685.448 355.368 684.614 L355.368 696.935 Q358.641 693.723 363.397 693.723 Q368.461 693.723 371.95 697.8 Q375.44 701.876 375.44 707.557 Q375.44 713.517 371.302 717.593 Q367.195 721.669 361.637 721.669 Q356.573 721.669 353.361 718.056 Q350.181 714.443 350.181 710.089 Z" fill="#000000" fill-rule="evenodd" fill-opacity="1" /><path clip-path="url(#clip100)" d="M204.77 513.386 Q204.77 504.092 207.117 499.027 Q210.39 491.493 218.11 491.493 Q219.747 491.493 221.445 491.956 Q223.174 492.388 225.336 494.087 Q227.528 495.785 228.856 498.564 Q231.388 503.937 231.388 513.386 Q231.388 522.619 229.041 527.652 Q225.614 535.002 218.048 535.002 Q215.208 535.002 212.305 533.55 Q209.433 532.099 207.611 528.61 Q204.77 523.391 204.77 513.386 M210.02 512.614 Q210.02 522.156 210.699 525.954 Q211.471 530.061 213.571 531.852 Q215.702 533.612 218.048 533.612 Q220.581 533.612 222.68 531.729 Q224.811 529.814 225.459 525.707 Q226.17 521.662 226.139 512.614 Q226.139 503.814 225.521 500.293 Q224.688 496.187 222.464 494.55 Q220.272 492.882 218.048 492.882 Q217.215 492.882 216.319 493.13 Q215.455 493.377 214.189 494.087 Q212.923 494.797 211.934 496.557 Q210.977 498.317 210.514 500.973 Q210.02 504.4 210.02 512.614 Z" fill="#000000" fill-rule="evenodd" fill-opacity="1" /><path clip-path="url(#clip100)" d="M240.251 532.593 Q239.293 531.574 239.293 530.246 Q239.293 528.918 240.251 527.961 Q241.208 526.973 242.659 526.973 Q244.049 526.973 244.975 527.899 Q245.932 528.795 245.932 530.277 Q245.932 531.729 244.913 532.686 Q243.925 533.612 242.659 533.612 Q241.208 533.612 240.251 532.593 Z" fill="#000000" fill-rule="evenodd" fill-opacity="1" /><path clip-path="url(#clip100)" d="M253.961 513.386 Q253.961 504.092 256.308 499.027 Q259.581 491.493 267.301 491.493 Q268.937 491.493 270.636 491.956 Q272.365 492.388 274.527 494.087 Q276.719 495.785 278.047 498.564 Q280.579 503.937 280.579 513.386 Q280.579 522.619 278.232 527.652 Q274.804 535.002 267.239 535.002 Q264.398 535.002 261.496 533.55 Q258.624 532.099 256.802 528.61 Q253.961 523.391 253.961 513.386 M259.21 512.614 Q259.21 522.156 259.89 525.954 Q260.662 530.061 262.762 531.852 Q264.892 533.612 267.239 533.612 Q269.771 533.612 271.871 531.729 Q274.002 529.814 274.65 525.707 Q275.36 521.662 275.329 512.614 Q275.329 503.814 274.712 500.293 Q273.878 496.187 271.655 494.55 Q269.462 492.882 267.239 492.882 Q266.405 492.882 265.51 493.13 Q264.645 493.377 263.379 494.087 Q262.113 494.797 261.125 496.557 Q260.168 498.317 259.705 500.973 Q259.21 504.4 259.21 512.614 Z" fill="#000000" fill-rule="evenodd" fill-opacity="1" /><path clip-path="url(#clip100)" d="M285.581 513.386 Q285.581 504.092 287.928 499.027 Q291.201 491.493 298.921 491.493 Q300.558 491.493 302.256 491.956 Q303.985 492.388 306.147 494.087 Q308.339 495.785 309.667 498.564 Q312.199 503.937 312.199 513.386 Q312.199 522.619 309.852 527.652 Q306.425 535.002 298.859 535.002 Q296.018 535.002 293.116 533.55 Q290.244 532.099 288.422 528.61 Q285.581 523.391 285.581 513.386 M290.831 512.614 Q290.831 522.156 291.51 525.954 Q292.282 530.061 294.382 531.852 Q296.513 533.612 298.859 533.612 Q301.391 533.612 303.491 531.729 Q305.622 529.814 306.27 525.707 Q306.981 521.662 306.95 512.614 Q306.95 503.814 306.332 500.293 Q305.498 496.187 303.275 494.55 Q301.083 492.882 298.859 492.882 Q298.026 492.882 297.13 493.13 Q296.266 493.377 294.999 494.087 Q293.733 494.797 292.745 496.557 Q291.788 498.317 291.325 500.973 Q290.831 504.4 290.831 512.614 Z" fill="#000000" fill-rule="evenodd" fill-opacity="1" /><path clip-path="url(#clip100)" d="M317.202 513.386 Q317.202 504.092 319.548 499.027 Q322.822 491.493 330.541 491.493 Q332.178 491.493 333.876 491.956 Q335.606 492.388 337.767 494.087 Q339.96 495.785 341.287 498.564 Q343.819 503.937 343.819 513.386 Q343.819 522.619 341.473 527.652 Q338.045 535.002 330.48 535.002 Q327.639 535.002 324.736 533.55 Q321.864 532.099 320.042 528.61 Q317.202 523.391 317.202 513.386 M322.451 512.614 Q322.451 522.156 323.13 525.954 Q323.902 530.061 326.002 531.852 Q328.133 533.612 330.48 533.612 Q333.012 533.612 335.112 531.729 Q337.242 529.814 337.891 525.707 Q338.601 521.662 338.57 512.614 Q338.57 503.814 337.952 500.293 Q337.119 496.187 334.895 494.55 Q332.703 492.882 330.48 492.882 Q329.646 492.882 328.75 493.13 Q327.886 493.377 326.62 494.087 Q325.354 494.797 324.366 496.557 Q323.408 498.317 322.945 500.973 Q322.451 504.4 322.451 512.614 Z" fill="#000000" fill-rule="evenodd" fill-opacity="1" /><path clip-path="url(#clip100)" d="M348.822 513.386 Q348.822 504.092 351.169 499.027 Q354.442 491.493 362.162 491.493 Q363.798 491.493 365.497 491.956 Q367.226 492.388 369.387 494.087 Q371.58 495.785 372.908 498.564 Q375.44 503.937 375.44 513.386 Q375.44 522.619 373.093 527.652 Q369.665 535.002 362.1 535.002 Q359.259 535.002 356.356 533.55 Q353.485 532.099 351.663 528.61 Q348.822 523.391 348.822 513.386 M354.071 512.614 Q354.071 522.156 354.751 525.954 Q355.523 530.061 357.622 531.852 Q359.753 533.612 362.1 533.612 Q364.632 533.612 366.732 531.729 Q368.863 529.814 369.511 525.707 Q370.221 521.662 370.19 512.614 Q370.19 503.814 369.573 500.293 Q368.739 496.187 366.516 494.55 Q364.323 492.882 362.1 492.882 Q361.266 492.882 360.371 493.13 Q359.506 493.377 358.24 494.087 Q356.974 494.797 355.986 496.557 Q355.029 498.317 354.565 500.973 Q354.071 504.4 354.071 512.614 Z" fill="#000000" fill-rule="evenodd" fill-opacity="1" /><path clip-path="url(#clip100)" d="M205.45 326.719 Q205.45 317.424 207.797 312.36 Q211.07 304.825 218.79 304.825 Q220.426 304.825 222.125 305.289 Q223.854 305.721 226.015 307.419 Q228.208 309.118 229.536 311.897 Q232.068 317.27 232.068 326.719 Q232.068 335.952 229.721 340.985 Q226.293 348.334 218.728 348.334 Q215.887 348.334 212.984 346.883 Q210.113 345.432 208.291 341.942 Q205.45 336.724 205.45 326.719 M210.699 325.947 Q210.699 335.488 211.379 339.287 Q212.151 343.394 214.25 345.185 Q216.381 346.945 218.728 346.945 Q221.26 346.945 223.36 345.061 Q225.49 343.147 226.139 339.04 Q226.849 334.994 226.818 325.947 Q226.818 317.146 226.201 313.626 Q225.367 309.519 223.144 307.882 Q220.951 306.215 218.728 306.215 Q217.894 306.215 216.999 306.462 Q216.134 306.709 214.868 307.419 Q213.602 308.13 212.614 309.89 Q211.656 311.65 211.193 314.305 Q210.699 317.733 210.699 325.947 Z" fill="#000000" fill-rule="evenodd" fill-opacity="1" /><path clip-path="url(#clip100)" d="M240.93 345.926 Q239.973 344.907 239.973 343.579 Q239.973 342.251 240.93 341.294 Q241.887 340.306 243.339 340.306 Q244.728 340.306 245.654 341.232 Q246.612 342.128 246.612 343.61 Q246.612 345.061 245.593 346.018 Q244.605 346.945 243.339 346.945 Q241.887 346.945 240.93 345.926 Z" fill="#000000" fill-rule="evenodd" fill-opacity="1" /><path clip-path="url(#clip100)" d="M254.64 326.719 Q254.64 317.424 256.987 312.36 Q260.26 304.825 267.98 304.825 Q269.617 304.825 271.315 305.289 Q273.044 305.721 275.206 307.419 Q277.398 309.118 278.726 311.897 Q281.258 317.27 281.258 326.719 Q281.258 335.952 278.911 340.985 Q275.484 348.334 267.918 348.334 Q265.078 348.334 262.175 346.883 Q259.303 345.432 257.481 341.942 Q254.64 336.724 254.64 326.719 M259.89 325.947 Q259.89 335.488 260.569 339.287 Q261.341 343.394 263.441 345.185 Q265.572 346.945 267.918 346.945 Q270.45 346.945 272.55 345.061 Q274.681 343.147 275.329 339.04 Q276.04 334.994 276.009 325.947 Q276.009 317.146 275.391 313.626 Q274.557 309.519 272.334 307.882 Q270.142 306.215 267.918 306.215 Q267.085 306.215 266.189 306.462 Q265.325 306.709 264.058 307.419 Q262.792 308.13 261.804 309.89 Q260.847 311.65 260.384 314.305 Q259.89 317.733 259.89 325.947 Z" fill="#000000" fill-rule="evenodd" fill-opacity="1" /><path clip-path="url(#clip100)" d="M286.261 326.719 Q286.261 317.424 288.607 312.36 Q291.881 304.825 299.6 304.825 Q301.237 304.825 302.935 305.289 Q304.665 305.721 306.826 307.419 Q309.019 309.118 310.346 311.897 Q312.879 317.27 312.879 326.719 Q312.879 335.952 310.532 340.985 Q307.104 348.334 299.539 348.334 Q296.698 348.334 293.795 346.883 Q290.923 345.432 289.102 341.942 Q286.261 336.724 286.261 326.719 M291.51 325.947 Q291.51 335.488 292.189 339.287 Q292.961 343.394 295.061 345.185 Q297.192 346.945 299.539 346.945 Q302.071 346.945 304.171 345.061 Q306.301 343.147 306.95 339.04 Q307.66 334.994 307.629 325.947 Q307.629 317.146 307.011 313.626 Q306.178 309.519 303.954 307.882 Q301.762 306.215 299.539 306.215 Q298.705 306.215 297.809 306.462 Q296.945 306.709 295.679 307.419 Q294.413 308.13 293.425 309.89 Q292.467 311.65 292.004 314.305 Q291.51 317.733 291.51 325.947 Z" fill="#000000" fill-rule="evenodd" fill-opacity="1" /><path clip-path="url(#clip100)" d="M318.56 346.945 Q318.56 345.802 318.653 345.462 Q318.776 345.123 319.271 344.598 L331.406 331.073 Q338.045 323.6 338.045 317.084 Q338.045 312.854 335.822 309.828 Q333.629 306.802 329.584 306.802 Q326.805 306.802 324.458 308.5 Q322.111 310.198 321.031 313.225 Q321.216 313.163 321.864 313.163 Q323.439 313.163 324.304 314.151 Q325.199 315.139 325.199 316.467 Q325.199 318.165 324.088 318.999 Q323.007 319.802 321.926 319.802 Q321.494 319.802 320.907 319.709 Q320.351 319.617 319.456 318.752 Q318.56 317.856 318.56 316.282 Q318.56 311.866 321.895 308.346 Q325.261 304.825 330.387 304.825 Q336.192 304.825 339.99 308.284 Q343.819 311.712 343.819 317.084 Q343.819 318.968 343.233 320.697 Q342.677 322.396 341.905 323.724 Q341.164 325.051 339.126 327.182 Q337.088 329.313 335.451 330.826 Q333.815 332.339 330.14 335.55 L323.439 342.066 L334.834 342.066 Q340.392 342.066 340.824 341.572 Q341.442 340.676 342.214 335.952 L343.819 335.952 L342.028 346.945 L318.56 346.945 Z" fill="#000000" fill-rule="evenodd" fill-opacity="1" /><path clip-path="url(#clip100)" d="M350.181 336.755 Q350.181 334.871 351.2 334.161 Q352.219 333.42 353.299 333.42 Q354.751 333.42 355.584 334.346 Q356.449 335.241 356.449 336.508 Q356.449 337.774 355.584 338.7 Q354.751 339.595 353.299 339.595 Q352.589 339.595 352.219 339.472 Q353.052 342.375 355.584 344.474 Q358.147 346.574 361.513 346.574 Q365.744 346.574 368.276 342.467 Q369.789 339.812 369.789 333.79 Q369.789 328.479 368.646 325.823 Q366.886 321.778 363.273 321.778 Q358.147 321.778 355.121 326.194 Q354.751 326.75 354.318 326.781 Q353.701 326.781 353.546 326.441 Q353.423 326.07 353.423 325.113 L353.423 306.4 Q353.423 304.887 354.04 304.887 Q354.288 304.887 354.812 305.072 Q358.796 306.833 363.212 306.863 Q367.751 306.863 371.827 305.011 Q372.136 304.825 372.321 304.825 Q372.939 304.825 372.969 305.536 Q372.969 305.783 372.444 306.524 Q371.95 307.234 370.87 308.191 Q369.789 309.118 368.399 310.013 Q367.01 310.909 364.972 311.526 Q362.965 312.113 360.741 312.113 Q358.086 312.113 355.368 311.279 L355.368 323.6 Q358.641 320.389 363.397 320.389 Q368.461 320.389 371.95 324.465 Q375.44 328.541 375.44 334.222 Q375.44 340.182 371.302 344.258 Q367.195 348.334 361.637 348.334 Q356.573 348.334 353.361 344.721 Q350.181 341.109 350.181 336.755 Z" fill="#000000" fill-rule="evenodd" fill-opacity="1" /><path clip-path="url(#clip100)" d="M204.77 140.051 Q204.77 130.757 207.117 125.693 Q210.39 118.158 218.11 118.158 Q219.747 118.158 221.445 118.621 Q223.174 119.053 225.336 120.752 Q227.528 122.45 228.856 125.229 Q231.388 130.602 231.388 140.051 Q231.388 149.284 229.041 154.318 Q225.614 161.667 218.048 161.667 Q215.208 161.667 212.305 160.215 Q209.433 158.764 207.611 155.275 Q204.77 150.056 204.77 140.051 M210.02 139.279 Q210.02 148.821 210.699 152.619 Q211.471 156.726 213.571 158.517 Q215.702 160.277 218.048 160.277 Q220.581 160.277 222.68 158.394 Q224.811 156.479 225.459 152.372 Q226.17 148.327 226.139 139.279 Q226.139 130.479 225.521 126.959 Q224.688 122.852 222.464 121.215 Q220.272 119.548 218.048 119.548 Q217.215 119.548 216.319 119.795 Q215.455 120.042 214.189 120.752 Q212.923 121.462 211.934 123.222 Q210.977 124.982 210.514 127.638 Q210.02 131.065 210.02 139.279 Z" fill="#000000" fill-rule="evenodd" fill-opacity="1" /><path clip-path="url(#clip100)" d="M240.251 159.258 Q239.293 158.239 239.293 156.911 Q239.293 155.584 240.251 154.626 Q241.208 153.638 242.659 153.638 Q244.049 153.638 244.975 154.565 Q245.932 155.46 245.932 156.942 Q245.932 158.394 244.913 159.351 Q243.925 160.277 242.659 160.277 Q241.208 160.277 240.251 159.258 Z" fill="#000000" fill-rule="evenodd" fill-opacity="1" /><path clip-path="url(#clip100)" d="M253.961 140.051 Q253.961 130.757 256.308 125.693 Q259.581 118.158 267.301 118.158 Q268.937 118.158 270.636 118.621 Q272.365 119.053 274.527 120.752 Q276.719 122.45 278.047 125.229 Q280.579 130.602 280.579 140.051 Q280.579 149.284 278.232 154.318 Q274.804 161.667 267.239 161.667 Q264.398 161.667 261.496 160.215 Q258.624 158.764 256.802 155.275 Q253.961 150.056 253.961 140.051 M259.21 139.279 Q259.21 148.821 259.89 152.619 Q260.662 156.726 262.762 158.517 Q264.892 160.277 267.239 160.277 Q269.771 160.277 271.871 158.394 Q274.002 156.479 274.65 152.372 Q275.36 148.327 275.329 139.279 Q275.329 130.479 274.712 126.959 Q273.878 122.852 271.655 121.215 Q269.462 119.548 267.239 119.548 Q266.405 119.548 265.51 119.795 Q264.645 120.042 263.379 120.752 Q262.113 121.462 261.125 123.222 Q260.168 124.982 259.705 127.638 Q259.21 131.065 259.21 139.279 Z" fill="#000000" fill-rule="evenodd" fill-opacity="1" /><path clip-path="url(#clip100)" d="M285.581 140.051 Q285.581 130.757 287.928 125.693 Q291.201 118.158 298.921 118.158 Q300.558 118.158 302.256 118.621 Q303.985 119.053 306.147 120.752 Q308.339 122.45 309.667 125.229 Q312.199 130.602 312.199 140.051 Q312.199 149.284 309.852 154.318 Q306.425 161.667 298.859 161.667 Q296.018 161.667 293.116 160.215 Q290.244 158.764 288.422 155.275 Q285.581 150.056 285.581 140.051 M290.831 139.279 Q290.831 148.821 291.51 152.619 Q292.282 156.726 294.382 158.517 Q296.513 160.277 298.859 160.277 Q301.391 160.277 303.491 158.394 Q305.622 156.479 306.27 152.372 Q306.981 148.327 306.95 139.279 Q306.95 130.479 306.332 126.959 Q305.498 122.852 303.275 121.215 Q301.083 119.548 298.859 119.548 Q298.026 119.548 297.13 119.795 Q296.266 120.042 294.999 120.752 Q293.733 121.462 292.745 123.222 Q291.788 124.982 291.325 127.638 Q290.831 131.065 290.831 139.279 Z" fill="#000000" fill-rule="evenodd" fill-opacity="1" /><path clip-path="url(#clip100)" d="M317.881 150.087 Q317.881 148.203 318.9 147.493 Q319.919 146.752 321 146.752 Q322.451 146.752 323.285 147.679 Q324.149 148.574 324.149 149.84 Q324.149 151.106 323.285 152.032 Q322.451 152.928 321 152.928 Q320.29 152.928 319.919 152.804 Q320.753 155.707 323.285 157.807 Q325.848 159.907 329.214 159.907 Q333.444 159.907 335.976 155.8 Q337.489 153.144 337.489 147.123 Q337.489 141.811 336.347 139.156 Q334.587 135.111 330.974 135.111 Q325.848 135.111 322.822 139.526 Q322.451 140.082 322.019 140.113 Q321.401 140.113 321.247 139.773 Q321.123 139.403 321.123 138.446 L321.123 119.733 Q321.123 118.22 321.741 118.22 Q321.988 118.22 322.513 118.405 Q326.496 120.165 330.912 120.196 Q335.451 120.196 339.527 118.343 Q339.836 118.158 340.021 118.158 Q340.639 118.158 340.67 118.868 Q340.67 119.115 340.145 119.856 Q339.651 120.567 338.57 121.524 Q337.489 122.45 336.1 123.346 Q334.71 124.241 332.672 124.859 Q330.665 125.445 328.442 125.445 Q325.786 125.445 323.069 124.612 L323.069 136.933 Q326.342 133.721 331.097 133.721 Q336.161 133.721 339.651 137.797 Q343.14 141.873 343.14 147.555 Q343.14 153.515 339.002 157.591 Q334.895 161.667 329.337 161.667 Q324.273 161.667 321.062 158.054 Q317.881 154.441 317.881 150.087 Z" fill="#000000" fill-rule="evenodd" fill-opacity="1" /><path clip-path="url(#clip100)" d="M348.822 140.051 Q348.822 130.757 351.169 125.693 Q354.442 118.158 362.162 118.158 Q363.798 118.158 365.497 118.621 Q367.226 119.053 369.387 120.752 Q371.58 122.45 372.908 125.229 Q375.44 130.602 375.44 140.051 Q375.44 149.284 373.093 154.318 Q369.665 161.667 362.1 161.667 Q359.259 161.667 356.356 160.215 Q353.485 158.764 351.663 155.275 Q348.822 150.056 348.822 140.051 M354.071 139.279 Q354.071 148.821 354.751 152.619 Q355.523 156.726 357.622 158.517 Q359.753 160.277 362.1 160.277 Q364.632 160.277 366.732 158.394 Q368.863 156.479 369.511 152.372 Q370.221 148.327 370.19 139.279 Q370.19 130.479 369.573 126.959 Q368.739 122.852 366.516 121.215 Q364.323 119.548 362.1 119.548 Q361.266 119.548 360.371 119.795 Q359.506 120.042 358.24 120.752 Q356.974 121.462 355.986 123.222 Q355.029 124.982 354.565 127.638 Q354.071 131.065 354.071 139.279 Z" fill="#000000" fill-rule="evenodd" fill-opacity="1" /><path clip-path="url(#clip100)" d="M90.2336 732.55 Q91.0124 732.55 91.4223 732.878 Q91.7912 733.164 91.8732 733.451 Q91.9142 733.697 91.9142 734.066 Q91.9142 735.132 91.7912 738.821 Q91.6682 742.51 91.6682 743.576 Q91.6682 745.297 91.7912 748.822 Q91.9142 752.347 91.9142 754.069 Q91.9142 755.217 90.9714 755.217 Q90.3566 755.217 90.0286 755.094 Q89.6597 754.971 89.5368 754.643 Q89.3728 754.274 89.3728 754.069 Q89.3318 753.823 89.3318 753.208 Q89.3318 752.388 89.2498 751.528 Q89.1269 750.667 88.8809 749.601 Q88.635 748.535 88.0202 747.88 Q87.4053 747.183 86.5446 747.183 Q86.1757 747.183 83.1424 747.47 Q80.1092 747.757 76.5842 748.126 Q73.0181 748.494 72.5262 748.535 L72.5262 769.604 Q75.8464 771.53 78.1418 772.883 Q80.4372 774.236 81.2159 774.728 Q81.9947 775.219 82.4866 775.506 Q82.9785 775.793 83.2654 775.957 Q85.4378 777.146 86.3806 777.146 Q89.0039 777.146 89.3318 773.211 Q89.3318 771.858 90.3156 771.858 Q91.0534 771.858 91.4633 772.186 Q91.8322 772.514 91.8732 772.801 Q91.9142 773.047 91.9142 773.457 Q91.9142 774.81 91.7912 777.638 Q91.6682 780.466 91.6682 781.86 Q91.6682 783.048 91.7912 785.508 Q91.9142 787.967 91.9142 789.074 Q91.9142 789.566 91.6272 789.853 Q91.3403 790.14 90.9714 790.14 Q90.3975 790.14 90.0696 790.058 Q89.7417 789.935 89.5778 789.607 Q89.4138 789.279 89.4138 789.115 Q89.3728 788.951 89.3318 788.377 Q89.1269 785.262 87.6513 782.843 Q86.1347 780.384 82.2407 778.048 L33.2175 748.863 Q32.7256 748.576 32.4797 748.371 Q32.2338 748.167 32.0288 747.757 Q31.8239 747.306 31.8239 746.65 Q31.8239 745.625 32.1518 745.42 Q32.4387 745.215 33.8323 745.092 L86.2986 739.969 Q87.4053 739.846 87.8562 739.764 Q88.2661 739.641 88.717 739.108 Q89.1269 738.534 89.2498 737.509 Q89.3318 736.444 89.3318 734.476 Q89.3318 733.738 89.3728 733.451 Q89.3728 733.164 89.5778 732.878 Q89.7827 732.55 90.2336 732.55 M69.9029 748.781 L42.2351 751.446 L69.9029 768.005 L69.9029 748.781 Z" fill="#000000" fill-rule="evenodd" fill-opacity="1" /><path clip-path="url(#clip100)" d="M86.4225 702.522 Q88.0293 702.522 88.89 703.325 Q89.7221 704.129 89.7221 705.219 Q89.7221 706.109 89.2057 706.596 Q88.6892 707.055 88.0006 707.055 Q86.9963 707.055 86.1929 706.252 Q85.3895 705.42 85.3609 704.215 Q84.2992 704.617 83.668 705.678 Q83.0081 706.74 82.8359 707.687 Q82.6638 708.605 82.6638 709.523 Q82.6638 711.331 83.2376 712.708 Q83.8115 714.085 84.7009 714.774 Q85.5617 715.462 86.3938 715.778 Q87.2259 716.094 87.9432 716.094 Q88.5744 716.094 89.0909 715.95 Q89.5787 715.778 89.9517 715.376 Q90.296 714.975 90.5255 714.688 Q90.755 714.372 90.9559 713.683 Q91.1567 712.995 91.2428 712.708 Q91.3002 712.421 91.4724 711.617 Q91.8167 709.953 92.0175 709.207 Q92.1897 708.461 92.6774 707.486 Q93.1652 706.482 93.9399 705.736 Q95.7475 703.928 98.2438 703.928 Q99.1619 703.928 100.281 704.244 Q101.4 704.53 102.806 705.363 Q104.212 706.195 105.331 707.457 Q106.45 708.72 107.225 710.9 Q107.999 713.052 107.999 715.749 Q107.999 719.508 106.421 721.832 Q104.814 724.156 102.289 724.156 Q100.453 724.156 99.4489 723.152 Q98.4159 722.148 98.4159 720.856 Q98.4159 719.881 98.9611 719.278 Q99.4776 718.676 100.453 718.676 Q101.773 718.676 102.777 719.737 Q103.781 720.799 103.581 722.377 Q106.679 721.029 106.679 715.692 Q106.679 713.683 106.163 712.134 Q105.618 710.556 104.872 709.695 Q104.097 708.806 103.15 708.232 Q102.203 707.658 101.486 707.486 Q100.769 707.285 100.224 707.285 Q99.2767 707.285 98.5594 707.658 Q97.8421 708.031 97.4404 708.547 Q97.01 709.035 96.6657 709.982 Q96.2927 710.9 96.1492 711.56 Q96.0058 712.22 95.7762 713.396 Q95.6615 713.942 95.6041 714.286 Q95.518 714.63 95.2885 715.348 Q95.0302 716.036 94.772 716.524 Q94.5138 716.983 94.0547 717.586 Q93.5956 718.188 93.0504 718.561 Q92.5053 718.934 91.7019 719.192 Q90.8985 719.451 89.9517 719.451 Q89.0909 719.451 88.058 719.192 Q87.025 718.905 85.8199 718.188 Q84.6149 717.442 83.6393 716.38 Q82.6638 715.319 82.0325 713.54 Q81.3726 711.732 81.3726 709.523 Q81.3726 706.309 82.8646 704.416 Q84.3279 702.522 86.4225 702.522 Z" fill="#000000" fill-rule="evenodd" fill-opacity="1" /><path clip-path="url(#clip100)" d="M100.539 674.762 Q100.797 674.532 101.056 674.532 Q101.314 674.532 102.06 675.106 Q102.806 675.651 103.81 676.828 Q104.814 678.004 105.761 679.525 Q106.708 681.046 107.339 683.284 Q107.999 685.522 107.999 687.874 Q107.999 692.092 104.987 694.617 Q101.974 697.113 97.3543 697.113 Q94.399 697.113 91.788 696.138 Q89.1483 695.162 87.2833 693.584 Q85.4182 691.977 84.0697 689.969 Q82.6925 687.932 82.0325 685.809 Q81.3726 683.685 81.3726 681.705 Q81.3726 678.808 82.8359 677.115 Q84.2992 675.422 86.3651 675.422 Q86.8529 675.422 87.4554 675.565 Q88.058 675.68 89.0048 676.082 Q89.9517 676.455 90.8985 677.43 Q91.8167 678.406 92.4192 679.84 Q93.7678 683.025 93.7678 688.821 L93.7678 691.949 Q97.4691 692.867 99.8793 692.867 Q100.826 692.867 101.802 692.695 Q102.749 692.523 103.954 692.063 Q105.159 691.576 105.933 690.485 Q106.679 689.366 106.679 687.76 Q106.679 687.243 106.651 686.698 Q106.622 686.124 106.306 684.689 Q105.991 683.226 105.446 681.935 Q104.9 680.644 103.724 679.008 Q102.519 677.344 100.883 676.024 Q100.281 675.565 100.281 675.25 Q100.281 674.991 100.539 674.762 M86.3651 677.373 Q84.787 677.373 83.7254 678.549 Q82.6638 679.697 82.6638 681.705 Q82.6638 682.337 82.8072 683.111 Q82.9507 683.886 83.5532 685.177 Q84.1558 686.44 85.16 687.559 Q86.1356 688.678 88.058 689.797 Q89.9517 690.916 92.4766 691.576 L92.4766 689.166 Q92.4766 688.333 92.4766 687.731 Q92.4479 687.128 92.3331 685.809 Q92.2184 684.46 92.0175 683.484 Q91.788 682.509 91.3289 681.275 Q90.8698 680.041 90.2673 679.267 Q89.636 678.463 88.6318 677.918 Q87.6276 677.373 86.3651 677.373 Z" fill="#000000" fill-rule="evenodd" fill-opacity="1" /><path clip-path="url(#clip100)" d="M31.0558 676.01 Q31.2853 676.01 32.1748 676.268 Q33.0642 676.527 34.4415 677.158 Q35.8187 677.76 37.0812 678.621 Q38.315 679.453 39.2331 680.83 Q40.1226 682.179 40.1226 683.728 Q40.1226 685.794 38.7454 687.171 Q37.3681 688.549 35.3023 688.549 Q34.1832 688.549 32.06 687.774 Q22.3619 684.13 18.8901 684.13 Q14.7871 684.13 14.7871 687.315 Q14.7871 689.123 15.5331 690.758 Q16.2791 692.394 17.3121 693.455 Q18.345 694.517 19.5214 695.349 Q20.6978 696.181 21.4725 696.554 Q22.2472 696.898 22.5915 696.984 L36.7656 700.513 Q37.9707 700.8 38.5445 701.001 Q39.1184 701.202 39.6061 701.747 Q40.1226 702.292 40.1226 703.153 Q40.1226 703.871 39.6922 704.387 Q39.2618 704.875 38.5158 704.875 Q38.401 704.875 37.7985 704.731 Q37.196 704.588 36.3639 704.387 Q35.5318 704.186 35.044 704.1 Q31.1418 703.067 30.5967 702.924 L23.7679 701.288 Q20.3822 700.399 18.8901 700.399 Q14.7871 700.399 14.7871 703.584 Q14.7871 705.162 15.3897 706.654 Q15.9635 708.117 16.7669 709.121 Q17.5703 710.125 18.6893 711.044 Q19.7796 711.933 20.5256 712.392 Q21.2429 712.823 21.9602 713.167 L24.8869 713.913 Q25.6903 714.085 28.8178 714.917 L34.1259 716.208 Q38.0854 717.126 38.4584 717.327 Q39.2618 717.614 39.6922 718.245 Q40.1226 718.877 40.1226 719.508 Q40.1226 720.225 39.6922 720.713 Q39.2618 721.201 38.5158 721.201 Q38.401 721.201 37.9707 721.115 Q37.5403 721.029 36.9377 720.885 Q36.3352 720.742 35.9909 720.684 L22.4193 717.27 Q19.9518 716.639 19.1771 716.495 Q18.3737 716.323 17.4842 716.323 Q14.7871 716.323 14.7871 718.159 Q14.7871 719.651 16.5661 720.627 Q18.345 721.602 21.7881 722.435 Q22.7349 722.693 22.9358 722.865 Q23.1366 723.008 23.1366 723.439 Q23.1079 724.156 22.5341 724.156 Q22.3906 724.156 21.4725 723.927 Q20.5543 723.697 19.1771 723.267 Q17.7711 722.808 16.853 722.32 Q16.2504 722.033 15.8487 721.775 Q15.447 721.516 14.8158 721 Q14.1846 720.483 13.8403 719.709 Q13.496 718.934 13.496 717.987 Q13.496 715.893 14.8445 714.343 Q16.1931 712.765 18.6032 712.564 Q13.496 708.748 13.496 703.411 Q13.496 700.399 15.0167 698.591 Q16.48 696.898 19.1771 696.697 Q13.496 692.738 13.496 687.114 Q13.496 683.872 15.1888 682.122 Q16.853 680.371 19.7796 680.371 Q21.3003 680.371 24.1983 681.146 Q27.0675 681.921 28.5021 682.437 Q29.9368 682.954 32.6912 683.958 Q35.3309 685.02 36.8803 685.02 Q37.8846 685.02 38.3437 684.675 Q38.8027 684.331 38.8027 683.585 Q38.8027 682.437 38.1428 681.433 Q37.4542 680.429 36.3352 679.711 Q35.1875 678.965 34.0398 678.478 Q32.8634 677.99 31.5435 677.617 Q30.8262 677.387 30.6541 677.273 Q30.4819 677.129 30.4819 676.727 Q30.4819 676.01 31.0558 676.01 Z" fill="#000000" fill-rule="evenodd" fill-opacity="1" /><path clip-path="url(#clip100)" d="M32.6625 649.488 Q32.9208 649.258 33.179 649.258 Q33.4372 649.258 34.1832 649.832 Q34.9293 650.377 35.9335 651.553 Q36.9377 652.73 37.8846 654.251 Q38.8314 655.771 39.4627 658.009 Q40.1226 660.247 40.1226 662.6 Q40.1226 666.99 37.2247 669.572 Q34.3267 672.126 30.1663 672.126 Q26.1207 672.126 22.2472 669.859 Q18.345 667.593 15.9348 663.92 Q13.496 660.247 13.496 656.374 Q13.496 653.304 14.9306 651.381 Q16.3652 649.459 18.5458 649.459 Q20.2387 649.459 21.2716 650.434 Q22.3046 651.41 22.3046 652.73 Q22.3046 653.648 21.7881 654.279 Q21.2429 654.91 20.2387 654.91 Q18.9475 654.91 17.9433 653.849 Q17.5416 653.447 17.3694 652.988 Q17.1686 652.5 17.1686 652.213 Q17.1399 651.926 17.1399 651.267 Q16.0209 651.869 15.4184 653.304 Q14.7871 654.71 14.7871 656.316 Q14.7871 658.698 16.4513 660.965 Q18.0868 663.231 20.6691 664.609 Q23.194 665.986 26.7806 666.875 Q30.3385 667.765 32.4043 667.765 Q35.2449 667.765 37.0238 666.445 Q38.8027 665.125 38.8027 662.485 Q38.8027 661.969 38.774 661.424 Q38.7454 660.85 38.4297 659.415 Q38.1141 657.952 37.569 656.661 Q37.0238 655.37 35.8474 653.734 Q34.6423 652.07 33.0069 650.75 Q32.4043 650.291 32.4043 649.975 Q32.4043 649.717 32.6625 649.488 Z" fill="#000000" fill-rule="evenodd" fill-opacity="1" /><path clip-path="url(#clip100)" d="M111.712 637.991 Q111.302 637.991 110.4 637.663 L31.209 608.028 Q31.1271 608.028 30.6762 607.823 Q30.2253 607.618 29.9384 607.495 Q29.6104 607.372 29.3645 607.126 Q29.1186 606.839 29.1186 606.511 Q29.1186 605.691 30.1433 605.691 Q30.2253 605.691 31.209 605.937 L110.482 635.654 Q111.917 636.146 112.327 636.474 Q112.737 636.761 112.737 637.253 Q112.737 637.991 111.712 637.991 Z" fill="#000000" fill-rule="evenodd" fill-opacity="1" /><path clip-path="url(#clip100)" d="M90.2336 538.834 Q91.0124 538.834 91.4223 539.162 Q91.7912 539.449 91.8732 539.736 Q91.9142 539.982 91.9142 540.351 Q91.9142 541.417 91.7912 545.106 Q91.6682 548.795 91.6682 549.86 Q91.6682 551.582 91.7912 555.107 Q91.9142 558.632 91.9142 560.354 Q91.9142 561.501 90.9714 561.501 Q90.3566 561.501 90.0286 561.378 Q89.6597 561.255 89.5368 560.928 Q89.3728 560.559 89.3728 560.354 Q89.3318 560.108 89.3318 559.493 Q89.3318 558.673 89.2498 557.812 Q89.1269 556.952 88.8809 555.886 Q88.635 554.82 88.0202 554.164 Q87.4053 553.468 86.5446 553.468 Q86.1757 553.468 83.1424 553.754 Q80.1092 554.041 76.5842 554.41 Q73.0181 554.779 72.5262 554.82 L72.5262 575.889 Q75.8464 577.815 78.1418 579.168 Q80.4372 580.52 81.2159 581.012 Q81.9947 581.504 82.4866 581.791 Q82.9785 582.078 83.2654 582.242 Q85.4378 583.431 86.3806 583.431 Q89.0039 583.431 89.3318 579.496 Q89.3318 578.143 90.3156 578.143 Q91.0534 578.143 91.4633 578.471 Q91.8322 578.799 91.8732 579.086 Q91.9142 579.332 91.9142 579.742 Q91.9142 581.094 91.7912 583.923 Q91.6682 586.751 91.6682 588.144 Q91.6682 589.333 91.7912 591.792 Q91.9142 594.252 91.9142 595.359 Q91.9142 595.85 91.6272 596.137 Q91.3403 596.424 90.9714 596.424 Q90.3975 596.424 90.0696 596.342 Q89.7417 596.219 89.5778 595.891 Q89.4138 595.564 89.4138 595.4 Q89.3728 595.236 89.3318 594.662 Q89.1269 591.547 87.6513 589.128 Q86.1347 586.669 82.2407 584.332 L33.2175 555.148 Q32.7256 554.861 32.4797 554.656 Q32.2338 554.451 32.0288 554.041 Q31.8239 553.59 31.8239 552.935 Q31.8239 551.91 32.1518 551.705 Q32.4387 551.5 33.8323 551.377 L86.2986 546.253 Q87.4053 546.13 87.8562 546.048 Q88.2661 545.925 88.717 545.393 Q89.1269 544.819 89.2498 543.794 Q89.3318 542.728 89.3318 540.761 Q89.3318 540.023 89.3728 539.736 Q89.3728 539.449 89.5778 539.162 Q89.7827 538.834 90.2336 538.834 M69.9029 555.066 L42.2351 557.73 L69.9029 574.29 L69.9029 555.066 Z" fill="#000000" fill-rule="evenodd" fill-opacity="1" /><path clip-path="url(#clip100)" d="M86.4225 508.807 Q88.0293 508.807 88.89 509.61 Q89.7221 510.413 89.7221 511.504 Q89.7221 512.393 89.2057 512.881 Q88.6892 513.34 88.0006 513.34 Q86.9963 513.34 86.1929 512.537 Q85.3895 511.705 85.3609 510.5 Q84.2992 510.901 83.668 511.963 Q83.0081 513.024 82.8359 513.971 Q82.6638 514.89 82.6638 515.808 Q82.6638 517.615 83.2376 518.993 Q83.8115 520.37 84.7009 521.058 Q85.5617 521.747 86.3938 522.063 Q87.2259 522.378 87.9432 522.378 Q88.5744 522.378 89.0909 522.235 Q89.5787 522.063 89.9517 521.661 Q90.296 521.259 90.5255 520.972 Q90.755 520.657 90.9559 519.968 Q91.1567 519.279 91.2428 518.993 Q91.3002 518.706 91.4724 517.902 Q91.8167 516.238 92.0175 515.492 Q92.1897 514.746 92.6774 513.771 Q93.1652 512.766 93.9399 512.02 Q95.7475 510.213 98.2438 510.213 Q99.1619 510.213 100.281 510.528 Q101.4 510.815 102.806 511.647 Q104.212 512.479 105.331 513.742 Q106.45 515.004 107.225 517.185 Q107.999 519.337 107.999 522.034 Q107.999 525.793 106.421 528.117 Q104.814 530.441 102.289 530.441 Q100.453 530.441 99.4489 529.437 Q98.4159 528.432 98.4159 527.141 Q98.4159 526.166 98.9611 525.563 Q99.4776 524.961 100.453 524.961 Q101.773 524.961 102.777 526.022 Q103.781 527.084 103.581 528.662 Q106.679 527.313 106.679 521.977 Q106.679 519.968 106.163 518.419 Q105.618 516.841 104.872 515.98 Q104.097 515.09 103.15 514.517 Q102.203 513.943 101.486 513.771 Q100.769 513.57 100.224 513.57 Q99.2767 513.57 98.5594 513.943 Q97.8421 514.316 97.4404 514.832 Q97.01 515.32 96.6657 516.267 Q96.2927 517.185 96.1492 517.845 Q96.0058 518.505 95.7762 519.681 Q95.6615 520.226 95.6041 520.571 Q95.518 520.915 95.2885 521.632 Q95.0302 522.321 94.772 522.809 Q94.5138 523.268 94.0547 523.87 Q93.5956 524.473 93.0504 524.846 Q92.5053 525.219 91.7019 525.477 Q90.8985 525.735 89.9517 525.735 Q89.0909 525.735 88.058 525.477 Q87.025 525.19 85.8199 524.473 Q84.6149 523.727 83.6393 522.665 Q82.6638 521.604 82.0325 519.825 Q81.3726 518.017 81.3726 515.808 Q81.3726 512.594 82.8646 510.7 Q84.3279 508.807 86.4225 508.807 Z" fill="#000000" fill-rule="evenodd" fill-opacity="1" /><path clip-path="url(#clip100)" d="M100.539 481.047 Q100.797 480.817 101.056 480.817 Q101.314 480.817 102.06 481.391 Q102.806 481.936 103.81 483.112 Q104.814 484.289 105.761 485.81 Q106.708 487.33 107.339 489.568 Q107.999 491.806 107.999 494.159 Q107.999 498.377 104.987 500.902 Q101.974 503.398 97.3543 503.398 Q94.399 503.398 91.788 502.423 Q89.1483 501.447 87.2833 499.869 Q85.4182 498.262 84.0697 496.254 Q82.6925 494.216 82.0325 492.093 Q81.3726 489.97 81.3726 487.99 Q81.3726 485.092 82.8359 483.399 Q84.2992 481.707 86.3651 481.707 Q86.8529 481.707 87.4554 481.85 Q88.058 481.965 89.0048 482.366 Q89.9517 482.739 90.8985 483.715 Q91.8167 484.691 92.4192 486.125 Q93.7678 489.31 93.7678 495.106 L93.7678 498.233 Q97.4691 499.152 99.8793 499.152 Q100.826 499.152 101.802 498.979 Q102.749 498.807 103.954 498.348 Q105.159 497.86 105.933 496.77 Q106.679 495.651 106.679 494.044 Q106.679 493.528 106.651 492.983 Q106.622 492.409 106.306 490.974 Q105.991 489.511 105.446 488.22 Q104.9 486.929 103.724 485.293 Q102.519 483.629 100.883 482.309 Q100.281 481.85 100.281 481.534 Q100.281 481.276 100.539 481.047 M86.3651 483.658 Q84.787 483.658 83.7254 484.834 Q82.6638 485.982 82.6638 487.99 Q82.6638 488.621 82.8072 489.396 Q82.9507 490.171 83.5532 491.462 Q84.1558 492.724 85.16 493.843 Q86.1356 494.962 88.058 496.082 Q89.9517 497.201 92.4766 497.86 L92.4766 495.45 Q92.4766 494.618 92.4766 494.016 Q92.4479 493.413 92.3331 492.093 Q92.2184 490.745 92.0175 489.769 Q91.788 488.794 91.3289 487.56 Q90.8698 486.326 90.2673 485.551 Q89.636 484.748 88.6318 484.203 Q87.6276 483.658 86.3651 483.658 Z" fill="#000000" fill-rule="evenodd" fill-opacity="1" /><path clip-path="url(#clip100)" d="M69.739 388.625 Q70.2308 388.133 70.9276 388.133 Q71.6245 388.133 72.1163 388.625 Q72.6082 389.117 72.6082 389.814 L72.6082 442.362 Q72.6082 443.059 72.1163 443.551 Q71.6245 444.042 70.9276 444.042 Q70.2308 444.042 69.739 443.551 Q69.2471 443.059 69.2471 442.362 L69.2471 389.814 Q69.2471 389.117 69.739 388.625 Z" fill="#000000" fill-rule="evenodd" fill-opacity="1" /><path clip-path="url(#clip100)" d="M43.9977 356.091 L41.3744 356.091 Q41.3744 346.007 36.0048 340.802 Q36.0048 339.367 36.3327 339.121 Q36.6606 338.875 38.1772 338.875 L85.2739 338.875 Q87.7742 338.875 88.553 337.646 Q89.3318 336.416 89.3318 331.046 L89.3318 328.382 L91.9142 328.382 Q91.6682 331.333 91.6682 341.99 Q91.6682 352.648 91.9142 355.558 L89.3318 355.558 L89.3318 352.894 Q89.3318 347.606 88.594 346.335 Q87.8152 345.065 85.2739 345.065 L41.7843 345.065 Q43.9977 349.451 43.9977 356.091 Z" fill="#000000" fill-rule="evenodd" fill-opacity="1" /><polyline clip-path="url(#clip103)" style="stroke:#009af9; stroke-linecap:butt; stroke-linejoin:round; stroke-width:8; stroke-opacity:1; fill:none" points="
  516.053,560.061 668.005,504.032 819.958,616.585 971.91,462.795 1123.86,490.804 1275.82,503.863 1427.77,475.147 1579.72,462.609 1731.67,482.02 1883.63,509.724 
  2035.58,521.307 2187.53,524.546 2339.48,495.389 2491.44,502.583 2643.39,515.016 2795.34,498.707 2947.29,521.291 3099.25,512.829 3251.2,524.393 3403.15,514.79 
  
  "/>
<circle clip-path="url(#clip103)" cx="516.053" cy="560.061" r="18" fill="#009af9" fill-rule="evenodd" fill-opacity="1" stroke="#000000" stroke-opacity="1" stroke-width="3.6"/>
<circle clip-path="url(#clip103)" cx="668.005" cy="504.032" r="18" fill="#009af9" fill-rule="evenodd" fill-opacity="1" stroke="#000000" stroke-opacity="1" stroke-width="3.6"/>
<circle clip-path="url(#clip103)" cx="819.958" cy="616.585" r="18" fill="#009af9" fill-rule="evenodd" fill-opacity="1" stroke="#000000" stroke-opacity="1" stroke-width="3.6"/>
<circle clip-path="url(#clip103)" cx="971.91" cy="462.795" r="18" fill="#009af9" fill-rule="evenodd" fill-opacity="1" stroke="#000000" stroke-opacity="1" stroke-width="3.6"/>
<circle clip-path="url(#clip103)" cx="1123.86" cy="490.804" r="18" fill="#009af9" fill-rule="evenodd" fill-opacity="1" stroke="#000000" stroke-opacity="1" stroke-width="3.6"/>
<circle clip-path="url(#clip103)" cx="1275.82" cy="503.863" r="18" fill="#009af9" fill-rule="evenodd" fill-opacity="1" stroke="#000000" stroke-opacity="1" stroke-width="3.6"/>
<circle clip-path="url(#clip103)" cx="1427.77" cy="475.147" r="18" fill="#009af9" fill-rule="evenodd" fill-opacity="1" stroke="#000000" stroke-opacity="1" stroke-width="3.6"/>
<circle clip-path="url(#clip103)" cx="1579.72" cy="462.609" r="18" fill="#009af9" fill-rule="evenodd" fill-opacity="1" stroke="#000000" stroke-opacity="1" stroke-width="3.6"/>
<circle clip-path="url(#clip103)" cx="1731.67" cy="482.02" r="18" fill="#009af9" fill-rule="evenodd" fill-opacity="1" stroke="#000000" stroke-opacity="1" stroke-width="3.6"/>
<circle clip-path="url(#clip103)" cx="1883.63" cy="509.724" r="18" fill="#009af9" fill-rule="evenodd" fill-opacity="1" stroke="#000000" stroke-opacity="1" stroke-width="3.6"/>
<circle clip-path="url(#clip103)" cx="2035.58" cy="521.307" r="18" fill="#009af9" fill-rule="evenodd" fill-opacity="1" stroke="#000000" stroke-opacity="1" stroke-width="3.6"/>
<circle clip-path="url(#clip103)" cx="2187.53" cy="524.546" r="18" fill="#009af9" fill-rule="evenodd" fill-opacity="1" stroke="#000000" stroke-opacity="1" stroke-width="3.6"/>
<circle clip-path="url(#clip103)" cx="2339.48" cy="495.389" r="18" fill="#009af9" fill-rule="evenodd" fill-opacity="1" stroke="#000000" stroke-opacity="1" stroke-width="3.6"/>
<circle clip-path="url(#clip103)" cx="2491.44" cy="502.583" r="18" fill="#009af9" fill-rule="evenodd" fill-opacity="1" stroke="#000000" stroke-opacity="1" stroke-width="3.6"/>
<circle clip-path="url(#clip103)" cx="2643.39" cy="515.016" r="18" fill="#009af9" fill-rule="evenodd" fill-opacity="1" stroke="#000000" stroke-opacity="1" stroke-width="3.6"/>
<circle clip-path="url(#clip103)" cx="2795.34" cy="498.707" r="18" fill="#009af9" fill-rule="evenodd" fill-opacity="1" stroke="#000000" stroke-opacity="1" stroke-width="3.6"/>
<circle clip-path="url(#clip103)" cx="2947.29" cy="521.291" r="18" fill="#009af9" fill-rule="evenodd" fill-opacity="1" stroke="#000000" stroke-opacity="1" stroke-width="3.6"/>
<circle clip-path="url(#clip103)" cx="3099.25" cy="512.829" r="18" fill="#009af9" fill-rule="evenodd" fill-opacity="1" stroke="#000000" stroke-opacity="1" stroke-width="3.6"/>
<circle clip-path="url(#clip103)" cx="3251.2" cy="524.393" r="18" fill="#009af9" fill-rule="evenodd" fill-opacity="1" stroke="#000000" stroke-opacity="1" stroke-width="3.6"/>
<circle clip-path="url(#clip103)" cx="3403.15" cy="514.79" r="18" fill="#009af9" fill-rule="evenodd" fill-opacity="1" stroke="#000000" stroke-opacity="1" stroke-width="3.6"/>
<polyline clip-path="url(#clip103)" style="stroke:#000000; stroke-linecap:butt; stroke-linejoin:round; stroke-width:6; stroke-opacity:1; fill:none" points="
  516.053,969.403 516.053,150.719 
  "/>
<polyline clip-path="url(#clip103)" style="stroke:#000000; stroke-linecap:butt; stroke-linejoin:round; stroke-width:6; stroke-opacity:1; fill:none" points="
  668.005,872.803 668.005,135.261 
  "/>
<polyline clip-path="url(#clip103)" style="stroke:#000000; stroke-linecap:butt; stroke-linejoin:round; stroke-width:6; stroke-opacity:1; fill:none" points="
  819.958,909.732 819.958,323.439 
  "/>
<polyline clip-path="url(#clip103)" style="stroke:#000000; stroke-linecap:butt; stroke-linejoin:round; stroke-width:6; stroke-opacity:1; fill:none" points="
  971.91,646.615 971.91,278.975 
  "/>
<polyline clip-path="url(#clip103)" style="stroke:#000000; stroke-linecap:butt; stroke-linejoin:round; stroke-width:6; stroke-opacity:1; fill:none" points="
  1123.86,686.824 1123.86,294.784 
  "/>
<polyline clip-path="url(#clip103)" style="stroke:#000000; stroke-linecap:butt; stroke-linejoin:round; stroke-width:6; stroke-opacity:1; fill:none" points="
  1275.82,672.352 1275.82,335.374 
  "/>
<polyline clip-path="url(#clip103)" style="stroke:#000000; stroke-linecap:butt; stroke-linejoin:round; stroke-width:6; stroke-opacity:1; fill:none" points="
  1427.77,596.532 1427.77,353.762 
  "/>
<polyline clip-path="url(#clip103)" style="stroke:#000000; stroke-linecap:butt; stroke-linejoin:round; stroke-width:6; stroke-opacity:1; fill:none" points="
  1579.72,590.674 1579.72,334.544 
  "/>
<polyline clip-path="url(#clip103)" style="stroke:#000000; stroke-linecap:butt; stroke-linejoin:round; stroke-width:6; stroke-opacity:1; fill:none" points="
  1731.67,617.722 1731.67,346.318 
  "/>
<polyline clip-path="url(#clip103)" style="stroke:#000000; stroke-linecap:butt; stroke-linejoin:round; stroke-width:6; stroke-opacity:1; fill:none" points="
  1883.63,634.133 1883.63,385.316 
  "/>
<polyline clip-path="url(#clip103)" style="stroke:#000000; stroke-linecap:butt; stroke-linejoin:round; stroke-width:6; stroke-opacity:1; fill:none" points="
  2035.58,637.256 2035.58,405.359 
  "/>
<polyline clip-path="url(#clip103)" style="stroke:#000000; stroke-linecap:butt; stroke-linejoin:round; stroke-width:6; stroke-opacity:1; fill:none" points="
  2187.53,633.642 2187.53,415.451 
  "/>
<polyline clip-path="url(#clip103)" style="stroke:#000000; stroke-linecap:butt; stroke-linejoin:round; stroke-width:6; stroke-opacity:1; fill:none" points="
  2339.48,598.108 2339.48,392.669 
  "/>
<polyline clip-path="url(#clip103)" style="stroke:#000000; stroke-linecap:butt; stroke-linejoin:round; stroke-width:6; stroke-opacity:1; fill:none" points="
  2491.44,616.351 2491.44,388.814 
  "/>
<polyline clip-path="url(#clip103)" style="stroke:#000000; stroke-linecap:butt; stroke-linejoin:round; stroke-width:6; stroke-opacity:1; fill:none" points="
  2643.39,613.612 2643.39,416.42 
  "/>
<polyline clip-path="url(#clip103)" style="stroke:#000000; stroke-linecap:butt; stroke-linejoin:round; stroke-width:6; stroke-opacity:1; fill:none" points="
  2795.34,599.603 2795.34,397.811 
  "/>
<polyline clip-path="url(#clip103)" style="stroke:#000000; stroke-linecap:butt; stroke-linejoin:round; stroke-width:6; stroke-opacity:1; fill:none" points="
  2947.29,605.787 2947.29,436.795 
  "/>
<polyline clip-path="url(#clip103)" style="stroke:#000000; stroke-linecap:butt; stroke-linejoin:round; stroke-width:6; stroke-opacity:1; fill:none" points="
  3099.25,597.527 3099.25,428.131 
  "/>
<polyline clip-path="url(#clip103)" style="stroke:#000000; stroke-linecap:butt; stroke-linejoin:round; stroke-width:6; stroke-opacity:1; fill:none" points="
  3251.2,596.121 3251.2,452.665 
  "/>
<polyline clip-path="url(#clip103)" style="stroke:#000000; stroke-linecap:butt; stroke-linejoin:round; stroke-width:6; stroke-opacity:1; fill:none" points="
  3403.15,575.33 3403.15,454.249 
  "/>
<line clip-path="url(#clip103)" x1="536.053" y1="969.403" x2="496.053" y2="969.403" style="stroke:#000000; stroke-width:3.6; stroke-opacity:1"/>
<line clip-path="url(#clip103)" x1="536.053" y1="150.719" x2="496.053" y2="150.719" style="stroke:#000000; stroke-width:3.6; stroke-opacity:1"/>
<line clip-path="url(#clip103)" x1="688.005" y1="872.803" x2="648.005" y2="872.803" style="stroke:#000000; stroke-width:3.6; stroke-opacity:1"/>
<line clip-path="url(#clip103)" x1="688.005" y1="135.261" x2="648.005" y2="135.261" style="stroke:#000000; stroke-width:3.6; stroke-opacity:1"/>
<line clip-path="url(#clip103)" x1="839.958" y1="909.732" x2="799.958" y2="909.732" style="stroke:#000000; stroke-width:3.6; stroke-opacity:1"/>
<line clip-path="url(#clip103)" x1="839.958" y1="323.439" x2="799.958" y2="323.439" style="stroke:#000000; stroke-width:3.6; stroke-opacity:1"/>
<line clip-path="url(#clip103)" x1="991.91" y1="646.615" x2="951.91" y2="646.615" style="stroke:#000000; stroke-width:3.6; stroke-opacity:1"/>
<line clip-path="url(#clip103)" x1="991.91" y1="278.975" x2="951.91" y2="278.975" style="stroke:#000000; stroke-width:3.6; stroke-opacity:1"/>
<line clip-path="url(#clip103)" x1="1143.86" y1="686.824" x2="1103.86" y2="686.824" style="stroke:#000000; stroke-width:3.6; stroke-opacity:1"/>
<line clip-path="url(#clip103)" x1="1143.86" y1="294.784" x2="1103.86" y2="294.784" style="stroke:#000000; stroke-width:3.6; stroke-opacity:1"/>
<line clip-path="url(#clip103)" x1="1295.82" y1="672.352" x2="1255.82" y2="672.352" style="stroke:#000000; stroke-width:3.6; stroke-opacity:1"/>
<line clip-path="url(#clip103)" x1="1295.82" y1="335.374" x2="1255.82" y2="335.374" style="stroke:#000000; stroke-width:3.6; stroke-opacity:1"/>
<line clip-path="url(#clip103)" x1="1447.77" y1="596.532" x2="1407.77" y2="596.532" style="stroke:#000000; stroke-width:3.6; stroke-opacity:1"/>
<line clip-path="url(#clip103)" x1="1447.77" y1="353.762" x2="1407.77" y2="353.762" style="stroke:#000000; stroke-width:3.6; stroke-opacity:1"/>
<line clip-path="url(#clip103)" x1="1599.72" y1="590.674" x2="1559.72" y2="590.674" style="stroke:#000000; stroke-width:3.6; stroke-opacity:1"/>
<line clip-path="url(#clip103)" x1="1599.72" y1="334.544" x2="1559.72" y2="334.544" style="stroke:#000000; stroke-width:3.6; stroke-opacity:1"/>
<line clip-path="url(#clip103)" x1="1751.67" y1="617.722" x2="1711.67" y2="617.722" style="stroke:#000000; stroke-width:3.6; stroke-opacity:1"/>
<line clip-path="url(#clip103)" x1="1751.67" y1="346.318" x2="1711.67" y2="346.318" style="stroke:#000000; stroke-width:3.6; stroke-opacity:1"/>
<line clip-path="url(#clip103)" x1="1903.63" y1="634.133" x2="1863.63" y2="634.133" style="stroke:#000000; stroke-width:3.6; stroke-opacity:1"/>
<line clip-path="url(#clip103)" x1="1903.63" y1="385.316" x2="1863.63" y2="385.316" style="stroke:#000000; stroke-width:3.6; stroke-opacity:1"/>
<line clip-path="url(#clip103)" x1="2055.58" y1="637.256" x2="2015.58" y2="637.256" style="stroke:#000000; stroke-width:3.6; stroke-opacity:1"/>
<line clip-path="url(#clip103)" x1="2055.58" y1="405.359" x2="2015.58" y2="405.359" style="stroke:#000000; stroke-width:3.6; stroke-opacity:1"/>
<line clip-path="url(#clip103)" x1="2207.53" y1="633.642" x2="2167.53" y2="633.642" style="stroke:#000000; stroke-width:3.6; stroke-opacity:1"/>
<line clip-path="url(#clip103)" x1="2207.53" y1="415.451" x2="2167.53" y2="415.451" style="stroke:#000000; stroke-width:3.6; stroke-opacity:1"/>
<line clip-path="url(#clip103)" x1="2359.48" y1="598.108" x2="2319.48" y2="598.108" style="stroke:#000000; stroke-width:3.6; stroke-opacity:1"/>
<line clip-path="url(#clip103)" x1="2359.48" y1="392.669" x2="2319.48" y2="392.669" style="stroke:#000000; stroke-width:3.6; stroke-opacity:1"/>
<line clip-path="url(#clip103)" x1="2511.44" y1="616.351" x2="2471.44" y2="616.351" style="stroke:#000000; stroke-width:3.6; stroke-opacity:1"/>
<line clip-path="url(#clip103)" x1="2511.44" y1="388.814" x2="2471.44" y2="388.814" style="stroke:#000000; stroke-width:3.6; stroke-opacity:1"/>
<line clip-path="url(#clip103)" x1="2663.39" y1="613.612" x2="2623.39" y2="613.612" style="stroke:#000000; stroke-width:3.6; stroke-opacity:1"/>
<line clip-path="url(#clip103)" x1="2663.39" y1="416.42" x2="2623.39" y2="416.42" style="stroke:#000000; stroke-width:3.6; stroke-opacity:1"/>
<line clip-path="url(#clip103)" x1="2815.34" y1="599.603" x2="2775.34" y2="599.603" style="stroke:#000000; stroke-width:3.6; stroke-opacity:1"/>
<line clip-path="url(#clip103)" x1="2815.34" y1="397.811" x2="2775.34" y2="397.811" style="stroke:#000000; stroke-width:3.6; stroke-opacity:1"/>
<line clip-path="url(#clip103)" x1="2967.29" y1="605.787" x2="2927.29" y2="605.787" style="stroke:#000000; stroke-width:3.6; stroke-opacity:1"/>
<line clip-path="url(#clip103)" x1="2967.29" y1="436.795" x2="2927.29" y2="436.795" style="stroke:#000000; stroke-width:3.6; stroke-opacity:1"/>
<line clip-path="url(#clip103)" x1="3119.25" y1="597.527" x2="3079.25" y2="597.527" style="stroke:#000000; stroke-width:3.6; stroke-opacity:1"/>
<line clip-path="url(#clip103)" x1="3119.25" y1="428.131" x2="3079.25" y2="428.131" style="stroke:#000000; stroke-width:3.6; stroke-opacity:1"/>
<line clip-path="url(#clip103)" x1="3271.2" y1="596.121" x2="3231.2" y2="596.121" style="stroke:#000000; stroke-width:3.6; stroke-opacity:1"/>
<line clip-path="url(#clip103)" x1="3271.2" y1="452.665" x2="3231.2" y2="452.665" style="stroke:#000000; stroke-width:3.6; stroke-opacity:1"/>
<line clip-path="url(#clip103)" x1="3423.15" y1="575.33" x2="3383.15" y2="575.33" style="stroke:#000000; stroke-width:3.6; stroke-opacity:1"/>
<line clip-path="url(#clip103)" x1="3423.15" y1="454.249" x2="3383.15" y2="454.249" style="stroke:#000000; stroke-width:3.6; stroke-opacity:1"/>
<path clip-path="url(#clip100)" d="
M2758.69 263.455 L3475.93 263.455 L3475.93 133.855 L2758.69 133.855  Z
  " fill="#ffffff" fill-rule="evenodd" fill-opacity="1"/>
<polyline clip-path="url(#clip100)" style="stroke:#000000; stroke-linecap:butt; stroke-linejoin:round; stroke-width:4; stroke-opacity:1; fill:none" points="
  2758.69,263.455 3475.93,263.455 3475.93,133.855 2758.69,133.855 2758.69,263.455 
  "/>
<polyline clip-path="url(#clip100)" style="stroke:#009af9; stroke-linecap:butt; stroke-linejoin:round; stroke-width:5; stroke-opacity:1; fill:none" points="
  2792.69,198.655 2996.71,198.655 
  "/>
<circle clip-path="url(#clip100)" cx="2894.7" cy="198.655" r="28.8" fill="#009af9" fill-rule="evenodd" fill-opacity="1" stroke="#000000" stroke-opacity="1" stroke-width="5.76"/>
<path clip-path="url(#clip100)" d="M3081.19 172.912 Q3081.19 174.112 3080.17 174.112 Q3076.86 174.229 3075.51 175.342 Q3074.19 176.425 3073.7 178.533 L3065.32 211.939 Q3065.03 212.993 3064.85 213.111 Q3064.68 213.198 3064.36 213.198 Q3063.95 213.198 3063.71 212.993 Q3063.51 212.788 3063.21 212.056 L3048.28 176.747 Q3048.16 176.513 3048.02 176.191 Q3047.87 175.869 3047.76 175.664 L3039.82 207.313 Q3039.59 208.221 3039.59 208.69 Q3039.59 209.831 3040.38 210.563 Q3041.2 211.266 3043.54 211.354 Q3044.74 211.354 3044.74 211.998 Q3044.74 213.198 3043.66 213.198 Q3042.66 213.198 3040.58 213.111 Q3038.5 213.023 3037.48 213.023 Q3036.48 213.023 3034.46 213.111 Q3032.44 213.198 3031.48 213.198 Q3030.72 213.198 3030.72 212.525 Q3030.72 211.998 3030.92 211.734 Q3031.13 211.442 3031.3 211.412 Q3031.48 211.354 3031.74 211.354 Q3033.5 211.295 3034.7 210.944 Q3035.9 210.593 3036.57 209.919 Q3037.27 209.246 3037.6 208.572 Q3037.95 207.87 3038.21 206.845 L3046.23 174.639 Q3046.23 174.112 3042.16 174.112 Q3041.46 174.112 3041.17 174.083 Q3040.9 174.054 3040.7 173.907 Q3040.49 173.761 3040.49 173.439 Q3040.49 172.619 3040.85 172.443 Q3041.2 172.238 3042.22 172.238 L3050.27 172.238 Q3051.3 172.238 3051.56 172.414 Q3051.82 172.56 3052.18 173.38 L3065.44 204.678 L3072.14 178.006 Q3072.32 177.479 3072.32 176.747 Q3072.32 175.576 3071.44 174.873 Q3070.59 174.141 3068.25 174.112 Q3067.17 174.112 3067.17 173.439 Q3067.17 172.882 3067.37 172.619 Q3067.61 172.326 3067.78 172.297 Q3067.99 172.238 3068.25 172.238 Q3069.25 172.238 3071.29 172.326 Q3073.34 172.414 3074.37 172.414 Q3075.36 172.414 3077.38 172.326 Q3079.43 172.238 3080.43 172.238 Q3080.78 172.238 3080.96 172.414 Q3081.16 172.56 3081.19 172.736 L3081.19 172.912 Z" fill="#000000" fill-rule="evenodd" fill-opacity="1" /><path clip-path="url(#clip100)" d="M3121.5 218.218 Q3121.5 218.382 3121.31 219.018 Q3121.13 219.653 3120.68 220.637 Q3120.25 221.621 3119.63 222.522 Q3119.04 223.404 3118.05 224.059 Q3117.09 224.695 3115.98 224.695 Q3114.51 224.695 3113.52 223.711 Q3112.54 222.727 3112.54 221.252 Q3112.54 220.452 3113.09 218.936 Q3115.7 212.009 3115.7 209.529 Q3115.7 206.598 3113.42 206.598 Q3112.13 206.598 3110.96 207.131 Q3109.79 207.664 3109.04 208.401 Q3108.28 209.139 3107.68 209.98 Q3107.09 210.82 3106.82 211.373 Q3106.58 211.927 3106.52 212.172 L3103.99 222.297 Q3103.79 223.158 3103.65 223.568 Q3103.5 223.977 3103.11 224.326 Q3102.72 224.695 3102.11 224.695 Q3101.6 224.695 3101.23 224.387 Q3100.88 224.08 3100.88 223.547 Q3100.88 223.465 3100.98 223.035 Q3101.08 222.604 3101.23 222.01 Q3101.37 221.416 3101.43 221.067 Q3102.17 218.28 3102.27 217.89 L3103.44 213.013 Q3104.08 210.594 3104.08 209.529 Q3104.08 206.598 3101.8 206.598 Q3100.67 206.598 3099.61 207.028 Q3098.56 207.438 3097.85 208.012 Q3097.13 208.586 3096.47 209.385 Q3095.84 210.164 3095.51 210.697 Q3095.2 211.209 3094.96 211.722 L3094.42 213.812 Q3094.3 214.386 3093.71 216.62 L3092.78 220.411 Q3092.13 223.24 3091.99 223.506 Q3091.78 224.08 3091.33 224.387 Q3090.88 224.695 3090.43 224.695 Q3089.92 224.695 3089.57 224.387 Q3089.22 224.08 3089.22 223.547 Q3089.22 223.465 3089.28 223.158 Q3089.34 222.85 3089.44 222.42 Q3089.55 221.989 3089.59 221.743 L3092.03 212.05 Q3092.48 210.287 3092.58 209.734 Q3092.7 209.16 3092.7 208.524 Q3092.7 206.598 3091.39 206.598 Q3090.33 206.598 3089.63 207.869 Q3088.93 209.139 3088.34 211.599 Q3088.15 212.275 3088.03 212.418 Q3087.93 212.562 3087.62 212.562 Q3087.11 212.541 3087.11 212.132 Q3087.11 212.029 3087.27 211.373 Q3087.44 210.717 3087.74 209.734 Q3088.07 208.729 3088.42 208.074 Q3088.62 207.643 3088.81 207.356 Q3088.99 207.069 3089.36 206.618 Q3089.73 206.168 3090.28 205.922 Q3090.84 205.676 3091.51 205.676 Q3093.01 205.676 3094.12 206.639 Q3095.24 207.602 3095.39 209.324 Q3098.11 205.676 3101.92 205.676 Q3104.08 205.676 3105.37 206.762 Q3106.58 207.807 3106.72 209.734 Q3109.55 205.676 3113.57 205.676 Q3115.88 205.676 3117.13 206.885 Q3118.38 208.074 3118.38 210.164 Q3118.38 211.25 3117.83 213.32 Q3117.28 215.37 3116.91 216.394 Q3116.54 217.419 3115.82 219.387 Q3115.06 221.272 3115.06 222.379 Q3115.06 223.096 3115.31 223.424 Q3115.55 223.752 3116.09 223.752 Q3116.91 223.752 3117.62 223.281 Q3118.34 222.789 3118.85 221.989 Q3119.39 221.17 3119.73 220.35 Q3120.08 219.51 3120.35 218.567 Q3120.51 218.054 3120.6 217.931 Q3120.7 217.809 3120.99 217.809 Q3121.5 217.809 3121.5 218.218 Z" fill="#000000" fill-rule="evenodd" fill-opacity="1" /><path clip-path="url(#clip100)" d="M3140.45 219.366 Q3140.61 219.551 3140.61 219.735 Q3140.61 219.919 3140.2 220.452 Q3139.81 220.985 3138.97 221.702 Q3138.13 222.42 3137.05 223.096 Q3135.96 223.772 3134.36 224.223 Q3132.76 224.695 3131.08 224.695 Q3127.95 224.695 3126.1 222.625 Q3124.28 220.555 3124.28 217.583 Q3124.28 214.693 3125.9 211.927 Q3127.52 209.139 3130.14 207.418 Q3132.76 205.676 3135.53 205.676 Q3137.72 205.676 3139.1 206.7 Q3140.47 207.725 3140.47 209.283 Q3140.47 210.492 3139.77 211.23 Q3139.08 211.968 3138.13 211.968 Q3137.48 211.968 3137.03 211.599 Q3136.57 211.209 3136.57 210.492 Q3136.57 209.57 3137.33 208.852 Q3137.62 208.565 3137.95 208.442 Q3138.3 208.299 3138.5 208.299 Q3138.71 208.279 3139.18 208.279 Q3138.75 207.479 3137.72 207.049 Q3136.72 206.598 3135.57 206.598 Q3133.87 206.598 3132.25 207.787 Q3130.63 208.955 3129.65 210.799 Q3128.66 212.603 3128.03 215.165 Q3127.39 217.706 3127.39 219.182 Q3127.39 221.211 3128.34 222.481 Q3129.28 223.752 3131.16 223.752 Q3131.53 223.752 3131.92 223.731 Q3132.33 223.711 3133.36 223.486 Q3134.4 223.26 3135.32 222.871 Q3136.25 222.481 3137.41 221.641 Q3138.6 220.78 3139.55 219.612 Q3139.87 219.182 3140.1 219.182 Q3140.28 219.182 3140.45 219.366 Z" fill="#000000" fill-rule="evenodd" fill-opacity="1" /><path clip-path="url(#clip100)" d="M3165.3 204.093 Q3165.36 203.361 3166.5 203.361 L3203.25 203.361 Q3204.98 203.361 3205.01 204.034 Q3205.01 204.766 3203.37 204.737 L3166.91 204.737 Q3165.3 204.766 3165.3 204.093 M3165.3 192.382 Q3165.3 191.65 3166.56 191.679 L3203.19 191.679 Q3204.98 191.679 3205.01 192.382 Q3205.01 193.055 3203.48 193.055 L3166.5 193.055 Q3165.3 193.055 3165.3 192.382 Z" fill="#000000" fill-rule="evenodd" fill-opacity="1" /><path clip-path="url(#clip100)" d="M3228.14 178.972 L3228.14 177.098 Q3235.34 177.098 3239.06 173.263 Q3240.09 173.263 3240.26 173.497 Q3240.44 173.732 3240.44 174.815 L3240.44 208.455 Q3240.44 210.241 3241.32 210.798 Q3242.19 211.354 3246.03 211.354 L3247.93 211.354 L3247.93 213.198 Q3245.82 213.023 3238.21 213.023 Q3230.6 213.023 3228.52 213.198 L3228.52 211.354 L3230.42 211.354 Q3234.2 211.354 3235.11 210.827 Q3236.02 210.271 3236.02 208.455 L3236.02 177.391 Q3232.88 178.972 3228.14 178.972 Z" fill="#000000" fill-rule="evenodd" fill-opacity="1" /><path clip-path="url(#clip100)" d="M3250.8 194.021 Q3250.8 185.209 3253.03 180.407 Q3256.13 173.263 3263.45 173.263 Q3265 173.263 3266.61 173.702 Q3268.25 174.112 3270.3 175.722 Q3272.38 177.333 3273.64 179.968 Q3276.04 185.062 3276.04 194.021 Q3276.04 202.775 3273.81 207.548 Q3270.56 214.516 3263.39 214.516 Q3260.7 214.516 3257.95 213.14 Q3255.22 211.764 3253.49 208.455 Q3250.8 203.507 3250.8 194.021 M3255.78 193.289 Q3255.78 202.336 3256.42 205.937 Q3257.15 209.831 3259.15 211.529 Q3261.17 213.198 3263.39 213.198 Q3265.79 213.198 3267.78 211.412 Q3269.8 209.597 3270.42 205.703 Q3271.09 201.868 3271.06 193.289 Q3271.06 184.945 3270.48 181.607 Q3269.69 177.713 3267.58 176.162 Q3265.5 174.581 3263.39 174.581 Q3262.6 174.581 3261.75 174.815 Q3260.93 175.049 3259.73 175.722 Q3258.53 176.396 3257.59 178.065 Q3256.69 179.734 3256.25 182.251 Q3255.78 185.501 3255.78 193.289 Z" fill="#000000" fill-rule="evenodd" fill-opacity="1" /><path clip-path="url(#clip100)" d="M3280.74 194.021 Q3280.74 185.209 3282.96 180.407 Q3286.07 173.263 3293.38 173.263 Q3294.94 173.263 3296.55 173.702 Q3298.19 174.112 3300.24 175.722 Q3302.31 177.333 3303.57 179.968 Q3305.97 185.062 3305.97 194.021 Q3305.97 202.775 3303.75 207.548 Q3300.5 214.516 3293.33 214.516 Q3290.63 214.516 3287.88 213.14 Q3285.16 211.764 3283.43 208.455 Q3280.74 203.507 3280.74 194.021 M3285.71 193.289 Q3285.71 202.336 3286.36 205.937 Q3287.09 209.831 3289.08 211.529 Q3291.1 213.198 3293.33 213.198 Q3295.73 213.198 3297.72 211.412 Q3299.74 209.597 3300.35 205.703 Q3301.03 201.868 3301 193.289 Q3301 184.945 3300.41 181.607 Q3299.62 177.713 3297.51 176.162 Q3295.43 174.581 3293.33 174.581 Q3292.54 174.581 3291.69 174.815 Q3290.87 175.049 3289.67 175.722 Q3288.47 176.396 3287.53 178.065 Q3286.62 179.734 3286.18 182.251 Q3285.71 185.501 3285.71 193.289 Z" fill="#000000" fill-rule="evenodd" fill-opacity="1" /><path clip-path="url(#clip100)" d="M3318.36 194.021 Q3318.36 185.209 3320.58 180.407 Q3323.68 173.263 3331 173.263 Q3332.56 173.263 3334.17 173.702 Q3335.81 174.112 3337.86 175.722 Q3339.93 177.333 3341.19 179.968 Q3343.59 185.062 3343.59 194.021 Q3343.59 202.775 3341.37 207.548 Q3338.12 214.516 3330.95 214.516 Q3328.25 214.516 3325.5 213.14 Q3322.78 211.764 3321.05 208.455 Q3318.36 203.507 3318.36 194.021 M3323.33 193.289 Q3323.33 202.336 3323.98 205.937 Q3324.71 209.831 3326.7 211.529 Q3328.72 213.198 3330.95 213.198 Q3333.35 213.198 3335.34 211.412 Q3337.36 209.597 3337.97 205.703 Q3338.65 201.868 3338.62 193.289 Q3338.62 184.945 3338.03 181.607 Q3337.24 177.713 3335.13 176.162 Q3333.05 174.581 3330.95 174.581 Q3330.16 174.581 3329.31 174.815 Q3328.49 175.049 3327.29 175.722 Q3326.09 176.396 3325.15 178.065 Q3324.24 179.734 3323.8 182.251 Q3323.33 185.501 3323.33 193.289 Z" fill="#000000" fill-rule="evenodd" fill-opacity="1" /><path clip-path="url(#clip100)" d="M3348.29 194.021 Q3348.29 185.209 3350.52 180.407 Q3353.62 173.263 3360.94 173.263 Q3362.49 173.263 3364.1 173.702 Q3365.74 174.112 3367.79 175.722 Q3369.87 177.333 3371.13 179.968 Q3373.53 185.062 3373.53 194.021 Q3373.53 202.775 3371.3 207.548 Q3368.05 214.516 3360.88 214.516 Q3358.19 214.516 3355.44 213.14 Q3352.71 211.764 3350.99 208.455 Q3348.29 203.507 3348.29 194.021 M3353.27 193.289 Q3353.27 202.336 3353.91 205.937 Q3354.65 209.831 3356.64 211.529 Q3358.66 213.198 3360.88 213.198 Q3363.28 213.198 3365.27 211.412 Q3367.29 209.597 3367.91 205.703 Q3368.58 201.868 3368.55 193.289 Q3368.55 184.945 3367.97 181.607 Q3367.18 177.713 3365.07 176.162 Q3362.99 174.581 3360.88 174.581 Q3360.09 174.581 3359.24 174.815 Q3358.42 175.049 3357.22 175.722 Q3356.02 176.396 3355.08 178.065 Q3354.18 179.734 3353.74 182.251 Q3353.27 185.501 3353.27 193.289 Z" fill="#000000" fill-rule="evenodd" fill-opacity="1" /><path clip-path="url(#clip100)" d="M3378.23 194.021 Q3378.23 185.209 3380.45 180.407 Q3383.56 173.263 3390.88 173.263 Q3392.43 173.263 3394.04 173.702 Q3395.68 174.112 3397.73 175.722 Q3399.8 177.333 3401.06 179.968 Q3403.46 185.062 3403.46 194.021 Q3403.46 202.775 3401.24 207.548 Q3397.99 214.516 3390.82 214.516 Q3388.12 214.516 3385.37 213.14 Q3382.65 211.764 3380.92 208.455 Q3378.23 203.507 3378.23 194.021 M3383.2 193.289 Q3383.2 202.336 3383.85 205.937 Q3384.58 209.831 3386.57 211.529 Q3388.59 213.198 3390.82 213.198 Q3393.22 213.198 3395.21 211.412 Q3397.23 209.597 3397.84 205.703 Q3398.52 201.868 3398.49 193.289 Q3398.49 184.945 3397.9 181.607 Q3397.11 177.713 3395 176.162 Q3392.92 174.581 3390.82 174.581 Q3390.03 174.581 3389.18 174.815 Q3388.36 175.049 3387.16 175.722 Q3385.96 176.396 3385.02 178.065 Q3384.11 179.734 3383.67 182.251 Q3383.2 185.501 3383.2 193.289 Z" fill="#000000" fill-rule="evenodd" fill-opacity="1" /></svg>
