<?xml version="1.0" encoding="utf-8"?>
<svg xmlns="http://www.w3.org/2000/svg" xmlns:xlink="http://www.w3.org/1999/xlink" width="900" height="300" viewBox="0 0 3600 1200">
<defs>
  <clipPath id="clip210">
    <rect x="0" y="0" width="3600" height="1200"/>
  </clipPath>
</defs>
<path clip-path="url(#clip210)" d="
M0 1200 L3600 1200 L3600 0 L0 0  Z
  " fill="#ffffff" fill-rule="evenodd" fill-opacity="1"/>
<defs>
  <clipPath id="clip211">
    <rect x="720" y="0" width="2521" height="1200"/>
  </clipPath>
</defs>
<defs>
  <clipPath id="clip212">
    <rect x="369" y="0" width="3107" height="988"/>
  </clipPath>
</defs>
<path clip-path="url(#clip210)" d="
M324.413 994.428 L3489.76 994.428 L3489.76 110.236 L324.413 110.236  Z
  " fill="#ffffff" fill-rule="evenodd" fill-opacity="1"/>
<defs>
  <clipPath id="clip213">
    <rect x="324" y="110" width="3166" height="885"/>
  </clipPath>
</defs>
<polyline clip-path="url(#clip213)" style="stroke:#000000; stroke-linecap:butt; stroke-linejoin:round; stroke-width:2; stroke-opacity:0.1; fill:none" points="
  571.165,994.428 571.165,110.236 
  "/>
<polyline clip-path="url(#clip213)" style="stroke:#000000; stroke-linecap:butt; stroke-linejoin:round; stroke-width:2; stroke-opacity:0.1; fill:none" points="
  885.5,994.428 885.5,110.236 
  "/>
<polyline clip-path="url(#clip213)" style="stroke:#000000; stroke-linecap:butt; stroke-linejoin:round; stroke-width:2; stroke-opacity:0.1; fill:none" points="
  1199.83,994.428 1199.83,110.236 
  "/>
<polyline clip-path="url(#clip213)" style="stroke:#000000; stroke-linecap:butt; stroke-linejoin:round; stroke-width:2; stroke-opacity:0.1; fill:none" points="
  1514.17,994.428 1514.17,110.236 
  "/>
<polyline clip-path="url(#clip213)" style="stroke:#000000; stroke-linecap:butt; stroke-linejoin:round; stroke-width:2; stroke-opacity:0.1; fill:none" points="
  1828.5,994.428 1828.5,110.236 
  "/>
<polyline clip-path="url(#clip213)" style="stroke:#000000; stroke-linecap:butt; stroke-linejoin:round; stroke-width:2; stroke-opacity:0.1; fill:none" points="
  2142.84,994.428 2142.84,110.236 
  "/>
<polyline clip-path="url(#clip213)" style="stroke:#000000; stroke-linecap:butt; stroke-linejoin:round; stroke-width:2; stroke-opacity:0.1; fill:none" points="
  2457.17,994.428 2457.17,110.236 
  "/>
<polyline clip-path="url(#clip213)" style="stroke:#000000; stroke-linecap:butt; stroke-linejoin:round; stroke-width:2; stroke-opacity:0.1; fill:none" points="
  2771.51,994.428 2771.51,110.236 
  "/>
<polyline clip-path="url(#clip213)" style="stroke:#000000; stroke-linecap:butt; stroke-linejoin:round; stroke-width:2; stroke-opacity:0.1; fill:none" points="
  3085.84,994.428 3085.84,110.236 
  "/>
<polyline clip-path="url(#clip213)" style="stroke:#000000; stroke-linecap:butt; stroke-linejoin:round; stroke-width:2; stroke-opacity:0.1; fill:none" points="
  3400.18,994.428 3400.18,110.236 
  "/>
<polyline clip-path="url(#clip210)" style="stroke:#000000; stroke-linecap:butt; stroke-linejoin:round; stroke-width:4; stroke-opacity:1; fill:none" points="
  324.413,994.428 3489.76,994.428 
  "/>
<polyline clip-path="url(#clip210)" style="stroke:#000000; stroke-linecap:butt; stroke-linejoin:round; stroke-width:4; stroke-opacity:1; fill:none" points="
  324.413,110.236 3489.76,110.236 
  "/>
<polyline clip-path="url(#clip210)" style="stroke:#000000; stroke-linecap:butt; stroke-linejoin:round; stroke-width:4; stroke-opacity:1; fill:none" points="
  571.165,994.428 571.165,975.53 
  "/>
<polyline clip-path="url(#clip210)" style="stroke:#000000; stroke-linecap:butt; stroke-linejoin:round; stroke-width:4; stroke-opacity:1; fill:none" points="
  885.5,994.428 885.5,975.53 
  "/>
<polyline clip-path="url(#clip210)" style="stroke:#000000; stroke-linecap:butt; stroke-linejoin:round; stroke-width:4; stroke-opacity:1; fill:none" points="
  1199.83,994.428 1199.83,975.53 
  "/>
<polyline clip-path="url(#clip210)" style="stroke:#000000; stroke-linecap:butt; stroke-linejoin:round; stroke-width:4; stroke-opacity:1; fill:none" points="
  1514.17,994.428 1514.17,975.53 
  "/>
<polyline clip-path="url(#clip210)" style="stroke:#000000; stroke-linecap:butt; stroke-linejoin:round; stroke-width:4; stroke-opacity:1; fill:none" points="
  1828.5,994.428 1828.5,975.53 
  "/>
<polyline clip-path="url(#clip210)" style="stroke:#000000; stroke-linecap:butt; stroke-linejoin:round; stroke-width:4; stroke-opacity:1; fill:none" points="
  2142.84,994.428 2142.84,975.53 
  "/>
<polyline clip-path="url(#clip210)" style="stroke:#000000; stroke-linecap:butt; stroke-linejoin:round; stroke-width:4; stroke-opacity:1; fill:none" points="
  2457.17,994.428 2457.17,975.53 
  "/>
<polyline clip-path="url(#clip210)" style="stroke:#000000; stroke-linecap:butt; stroke-linejoin:round; stroke-width:4; stroke-opacity:1; fill:none" points="
  2771.51,994.428 2771.51,975.53 
  "/>
<polyline clip-path="url(#clip210)" style="stroke:#000000; stroke-linecap:butt; stroke-linejoin:round; stroke-width:4; stroke-opacity:1; fill:none" points="
  3085.84,994.428 3085.84,975.53 
  "/>
<polyline clip-path="url(#clip210)" style="stroke:#000000; stroke-linecap:butt; stroke-linejoin:round; stroke-width:4; stroke-opacity:1; fill:none" points="
  3400.18,994.428 3400.18,975.53 
  "/>
<path clip-path="url(#clip210)" d="M560.728 1041.13 L560.728 1039.15 Q568.324 1039.15 572.246 1035.11 Q573.327 1035.11 573.512 1035.36 Q573.697 1035.6 573.697 1036.75 L573.697 1072.23 Q573.697 1074.11 574.624 1074.7 Q575.55 1075.28 579.595 1075.28 L581.603 1075.28 L581.603 1077.23 Q579.379 1077.04 571.351 1077.04 Q563.322 1077.04 561.13 1077.23 L561.13 1075.28 L563.137 1075.28 Q567.12 1075.28 568.077 1074.73 Q569.035 1074.14 569.035 1072.23 L569.035 1039.46 Q565.731 1041.13 560.728 1041.13 Z" fill="#000000" fill-rule="evenodd" fill-opacity="1" /><path clip-path="url(#clip210)" d="M872.871 1077.23 Q872.871 1076.09 872.963 1075.75 Q873.087 1075.41 873.581 1074.88 L885.716 1061.36 Q892.355 1053.88 892.355 1047.37 Q892.355 1043.14 890.132 1040.11 Q887.94 1037.08 883.894 1037.08 Q881.115 1037.08 878.768 1038.78 Q876.422 1040.48 875.341 1043.51 Q875.526 1043.45 876.175 1043.45 Q877.749 1043.45 878.614 1044.43 Q879.51 1045.42 879.51 1046.75 Q879.51 1048.45 878.398 1049.28 Q877.317 1050.08 876.236 1050.08 Q875.804 1050.08 875.217 1049.99 Q874.662 1049.9 873.766 1049.04 Q872.871 1048.14 872.871 1046.56 Q872.871 1042.15 876.205 1038.63 Q879.571 1035.11 884.697 1035.11 Q890.503 1035.11 894.301 1038.57 Q898.13 1041.99 898.13 1047.37 Q898.13 1049.25 897.543 1050.98 Q896.987 1052.68 896.215 1054.01 Q895.474 1055.33 893.436 1057.47 Q891.398 1059.6 889.761 1061.11 Q888.125 1062.62 884.45 1065.83 L877.749 1072.35 L889.144 1072.35 Q894.702 1072.35 895.134 1071.85 Q895.752 1070.96 896.524 1066.23 L898.13 1066.23 L896.339 1077.23 L872.871 1077.23 Z" fill="#000000" fill-rule="evenodd" fill-opacity="1" /><path clip-path="url(#clip210)" d="M1186.71 1068.71 Q1186.71 1066.82 1187.79 1065.93 Q1188.87 1065.03 1190.26 1065.03 Q1191.71 1065.03 1192.73 1065.99 Q1193.78 1066.91 1193.78 1068.55 Q1193.78 1070.31 1192.55 1071.3 Q1191.34 1072.29 1189.61 1072.04 Q1191.13 1074.57 1193.91 1075.71 Q1196.72 1076.86 1199.31 1076.86 Q1202.03 1076.86 1204.22 1074.51 Q1206.44 1072.16 1206.44 1066.42 Q1206.44 1061.54 1204.53 1058.73 Q1202.64 1055.92 1198.91 1055.92 L1196.13 1055.92 Q1195.17 1055.92 1194.89 1055.83 Q1194.62 1055.74 1194.62 1055.21 Q1194.62 1054.59 1195.57 1054.47 Q1196.53 1054.47 1198.04 1054.28 Q1201.72 1054.16 1203.66 1050.98 Q1205.42 1048.02 1205.42 1043.79 Q1205.42 1039.93 1203.57 1038.32 Q1201.75 1036.68 1199.37 1036.68 Q1197.15 1036.68 1194.71 1037.61 Q1192.27 1038.54 1190.94 1040.6 Q1194.86 1040.6 1194.86 1043.79 Q1194.86 1045.18 1193.97 1046.1 Q1193.1 1047 1191.65 1047 Q1190.26 1047 1189.34 1046.13 Q1188.41 1045.24 1188.41 1043.72 Q1188.41 1040.11 1191.62 1037.61 Q1194.86 1035.11 1199.62 1035.11 Q1204.31 1035.11 1207.77 1037.58 Q1211.26 1040.05 1211.26 1043.85 Q1211.26 1047.58 1208.79 1050.64 Q1206.32 1053.7 1202.4 1054.96 Q1207.22 1055.92 1210.09 1059.19 Q1212.96 1062.44 1212.96 1066.42 Q1212.96 1071.36 1209.07 1075 Q1205.18 1078.62 1199.5 1078.62 Q1194.25 1078.62 1190.48 1075.78 Q1186.71 1072.94 1186.71 1068.71 Z" fill="#000000" fill-rule="evenodd" fill-opacity="1" /><path clip-path="url(#clip210)" d="M1500.15 1066.79 L1500.15 1064.85 L1519.57 1035.17 Q1520.07 1034.4 1520.84 1034.43 Q1521.55 1034.43 1521.7 1034.71 Q1521.86 1034.98 1521.86 1036.07 L1521.86 1064.85 L1528.19 1064.85 L1528.19 1066.79 L1521.86 1066.79 L1521.86 1072.29 Q1521.86 1074.11 1522.6 1074.7 Q1523.37 1075.28 1526.64 1075.28 L1527.97 1075.28 L1527.97 1077.23 Q1525.38 1077.04 1519.39 1077.04 Q1513.43 1077.04 1510.83 1077.23 L1510.83 1075.28 L1512.16 1075.28 Q1515.44 1075.28 1516.21 1074.73 Q1516.98 1074.14 1516.98 1072.29 L1516.98 1066.79 L1500.15 1066.79 M1501.94 1064.85 L1517.35 1064.85 L1517.35 1041.25 L1501.94 1064.85 Z" fill="#000000" fill-rule="evenodd" fill-opacity="1" /><path clip-path="url(#clip210)" d="M1815.87 1067.04 Q1815.87 1065.15 1816.89 1064.44 Q1817.91 1063.7 1818.99 1063.7 Q1820.44 1063.7 1821.28 1064.63 Q1822.14 1065.52 1822.14 1066.79 Q1822.14 1068.06 1821.28 1068.98 Q1820.44 1069.88 1818.99 1069.88 Q1818.28 1069.88 1817.91 1069.75 Q1818.75 1072.66 1821.28 1074.76 Q1823.84 1076.86 1827.21 1076.86 Q1831.44 1076.86 1833.97 1072.75 Q1835.48 1070.09 1835.48 1064.07 Q1835.48 1058.76 1834.34 1056.11 Q1832.58 1052.06 1828.97 1052.06 Q1823.84 1052.06 1820.82 1056.48 Q1820.44 1057.03 1820.01 1057.06 Q1819.4 1057.06 1819.24 1056.72 Q1819.12 1056.35 1819.12 1055.4 L1819.12 1036.68 Q1819.12 1035.17 1819.73 1035.17 Q1819.98 1035.17 1820.51 1035.36 Q1824.49 1037.12 1828.91 1037.15 Q1833.45 1037.15 1837.52 1035.29 Q1837.83 1035.11 1838.02 1035.11 Q1838.63 1035.11 1838.66 1035.82 Q1838.66 1036.07 1838.14 1036.81 Q1837.64 1037.52 1836.56 1038.47 Q1835.48 1039.4 1834.09 1040.3 Q1832.7 1041.19 1830.67 1041.81 Q1828.66 1042.4 1826.44 1042.4 Q1823.78 1042.4 1821.06 1041.56 L1821.06 1053.88 Q1824.34 1050.67 1829.09 1050.67 Q1834.16 1050.67 1837.64 1054.75 Q1841.13 1058.82 1841.13 1064.51 Q1841.13 1070.47 1837 1074.54 Q1832.89 1078.62 1827.33 1078.62 Q1822.27 1078.62 1819.06 1075 Q1815.87 1071.39 1815.87 1067.04 Z" fill="#000000" fill-rule="evenodd" fill-opacity="1" /><path clip-path="url(#clip210)" d="M2129.72 1057.25 Q2129.72 1047.31 2134.78 1041.22 Q2139.84 1035.11 2146.36 1035.11 Q2150.16 1035.11 2152.26 1037.05 Q2154.39 1038.97 2154.39 1041.93 Q2154.39 1043.57 2153.43 1044.28 Q2152.47 1044.99 2151.49 1044.99 Q2150.34 1044.99 2149.45 1044.22 Q2148.55 1043.45 2148.55 1042.06 Q2148.55 1039.22 2152.04 1039.22 Q2150.4 1036.68 2146.48 1036.68 Q2145.28 1036.68 2144.04 1037.05 Q2142.81 1037.39 2141.2 1038.57 Q2139.6 1039.74 2138.36 1041.59 Q2137.13 1043.45 2136.26 1046.94 Q2135.4 1050.42 2135.4 1054.96 L2135.4 1056.48 Q2137.99 1050.21 2143.3 1050.24 Q2148.61 1050.24 2152.29 1054.28 Q2155.96 1058.33 2155.96 1064.32 Q2155.96 1070.47 2152.13 1074.54 Q2148.3 1078.62 2142.93 1078.62 Q2140.52 1078.62 2138.33 1077.6 Q2136.17 1076.61 2134.13 1074.33 Q2132.12 1072.04 2130.92 1067.66 Q2129.72 1063.27 2129.72 1057.25 M2135.52 1062.93 Q2135.52 1069.14 2136.66 1072.1 Q2136.85 1072.6 2137.25 1073.28 Q2137.68 1073.95 2138.39 1074.85 Q2139.13 1075.71 2140.34 1076.3 Q2141.54 1076.86 2142.93 1076.86 Q2147.16 1076.86 2149.2 1072.75 Q2150.28 1070.47 2150.28 1064.26 Q2150.28 1057.93 2149.14 1055.61 Q2147.19 1051.69 2143.24 1051.69 Q2140.59 1051.69 2138.73 1053.51 Q2136.91 1055.33 2136.2 1057.77 Q2135.52 1060.21 2135.52 1062.93 Z" fill="#000000" fill-rule="evenodd" fill-opacity="1" /><path clip-path="url(#clip210)" d="M2443.62 1047.49 L2445.69 1034.49 L2447.26 1034.49 Q2447.45 1035.26 2447.76 1035.6 Q2448.1 1035.94 2449.89 1036.22 Q2451.71 1036.5 2455.38 1036.5 L2470.73 1036.5 Q2470.73 1037.95 2470.17 1038.72 L2461.62 1050.73 Q2458.9 1054.53 2457.7 1061.54 Q2456.99 1066.23 2457.02 1071.92 L2457.02 1075.13 Q2457.02 1078.62 2454.09 1078.62 Q2451.18 1078.62 2451.18 1075.13 Q2451.18 1063.05 2458.97 1051.35 Q2459.8 1050.15 2462.86 1045.85 Q2465.94 1041.56 2466.07 1041.38 L2452.97 1041.38 Q2447.23 1041.38 2446.77 1041.75 Q2446.15 1042.3 2445.19 1047.49 L2443.62 1047.49 Z" fill="#000000" fill-rule="evenodd" fill-opacity="1" /><path clip-path="url(#clip210)" d="M2758.39 1067.69 Q2758.39 1060.61 2767.49 1056.04 Q2763.57 1053.39 2762.86 1052.62 Q2760.08 1049.53 2760.08 1045.67 Q2760.08 1041.25 2763.42 1038.2 Q2766.78 1035.11 2771.54 1035.11 Q2776.08 1035.11 2779.51 1037.73 Q2782.93 1040.36 2782.93 1044.53 Q2782.93 1050.39 2775.28 1054.35 Q2780.34 1057.5 2781.54 1058.82 Q2784.63 1062.25 2784.63 1066.61 Q2784.63 1071.67 2780.74 1075.16 Q2776.85 1078.62 2771.48 1078.62 Q2766.23 1078.62 2762.31 1075.56 Q2758.39 1072.5 2758.39 1067.69 M2761.53 1067.69 Q2761.53 1071.61 2764.47 1074.23 Q2767.43 1076.86 2771.54 1076.86 Q2775.52 1076.86 2778.49 1074.57 Q2781.48 1072.29 2781.48 1068.89 Q2781.48 1067.56 2781.02 1066.42 Q2780.59 1065.28 2779.69 1064.38 Q2778.83 1063.46 2778.27 1063.05 Q2777.75 1062.62 2776.73 1061.91 L2768.95 1057 Q2761.53 1061.11 2761.53 1067.69 M2762.86 1043.2 Q2762.86 1046.23 2766.04 1048.32 L2773.89 1053.39 Q2780.15 1049.71 2780.15 1044.53 Q2780.15 1041.16 2777.59 1038.94 Q2775.03 1036.68 2771.48 1036.68 Q2767.99 1036.68 2765.43 1038.54 Q2762.86 1040.36 2762.86 1043.2 Z" fill="#000000" fill-rule="evenodd" fill-opacity="1" /><path clip-path="url(#clip210)" d="M3072.72 1049.34 Q3072.72 1045.98 3073.71 1043.69 Q3074.7 1041.38 3076.77 1039.09 Q3080.56 1035.11 3086.06 1035.11 Q3088.41 1035.11 3090.48 1036.1 Q3092.58 1037.08 3094.55 1039.34 Q3096.56 1041.56 3097.76 1045.98 Q3098.97 1050.36 3098.97 1056.42 Q3098.97 1066.2 3094.21 1072.41 Q3089.49 1078.62 3083.1 1078.62 Q3079.05 1078.62 3076.67 1076.8 Q3074.29 1074.94 3074.29 1071.79 Q3074.29 1070.16 3075.22 1069.48 Q3076.15 1068.77 3077.2 1068.77 Q3078.34 1068.77 3079.24 1069.54 Q3080.13 1070.28 3080.13 1071.67 Q3080.13 1072.81 3079.39 1073.71 Q3078.68 1074.57 3076.83 1074.57 Q3078.65 1076.86 3083.03 1076.86 Q3084.61 1076.86 3086.18 1076.15 Q3087.76 1075.41 3089.46 1073.65 Q3091.19 1071.85 3092.24 1068.12 Q3093.29 1064.38 3093.29 1059.13 L3093.29 1057.13 Q3090.75 1063.46 3085.38 1063.46 Q3080.07 1063.46 3076.39 1059.38 Q3072.72 1055.3 3072.72 1049.34 M3078.4 1049.41 Q3078.4 1055.67 3079.54 1057.99 Q3081.49 1061.97 3085.44 1061.97 Q3089.3 1061.97 3091.22 1058.55 Q3093.16 1055.09 3093.16 1050.61 Q3093.16 1044.4 3092.14 1041.69 Q3090.26 1036.68 3086.06 1036.68 Q3081.89 1036.68 3079.73 1040.67 Q3078.4 1043.01 3078.4 1049.41 Z" fill="#000000" fill-rule="evenodd" fill-opacity="1" /><path clip-path="url(#clip210)" d="M3372.63 1041.13 L3372.63 1039.15 Q3380.23 1039.15 3384.15 1035.11 Q3385.23 1035.11 3385.42 1035.36 Q3385.6 1035.6 3385.6 1036.75 L3385.6 1072.23 Q3385.6 1074.11 3386.53 1074.7 Q3387.46 1075.28 3391.5 1075.28 L3393.51 1075.28 L3393.51 1077.23 Q3391.29 1077.04 3383.26 1077.04 Q3375.23 1077.04 3373.04 1077.23 L3373.04 1075.28 L3375.04 1075.28 Q3379.03 1075.28 3379.98 1074.73 Q3380.94 1074.14 3380.94 1072.23 L3380.94 1039.46 Q3377.64 1041.13 3372.63 1041.13 Z" fill="#000000" fill-rule="evenodd" fill-opacity="1" /><path clip-path="url(#clip210)" d="M3401.1 1057 Q3401.1 1047.71 3403.45 1042.64 Q3406.72 1035.11 3414.44 1035.11 Q3416.08 1035.11 3417.78 1035.57 Q3419.51 1036 3421.67 1037.7 Q3423.86 1039.4 3425.19 1042.18 Q3427.72 1047.55 3427.72 1057 Q3427.72 1066.23 3425.38 1071.27 Q3421.95 1078.62 3414.38 1078.62 Q3411.54 1078.62 3408.64 1077.17 Q3405.77 1075.71 3403.95 1072.23 Q3401.1 1067.01 3401.1 1057 M3406.35 1056.23 Q3406.35 1065.77 3407.03 1069.57 Q3407.81 1073.68 3409.91 1075.47 Q3412.04 1077.23 3414.38 1077.23 Q3416.91 1077.23 3419.01 1075.34 Q3421.15 1073.43 3421.79 1069.32 Q3422.5 1065.28 3422.47 1056.23 Q3422.47 1047.43 3421.86 1043.91 Q3421.02 1039.8 3418.8 1038.17 Q3416.61 1036.5 3414.38 1036.5 Q3413.55 1036.5 3412.65 1036.75 Q3411.79 1036.99 3410.52 1037.7 Q3409.26 1038.41 3408.27 1040.17 Q3407.31 1041.93 3406.85 1044.59 Q3406.35 1048.02 3406.35 1056.23 Z" fill="#000000" fill-rule="evenodd" fill-opacity="1" /><path clip-path="url(#clip210)" d="M1943.26 1142.68 Q1943.26 1143.21 1943.13 1143.58 Q1943.01 1143.91 1942.72 1144.07 Q1942.44 1144.23 1942.27 1144.28 Q1942.11 1144.32 1941.74 1144.36 Q1939.98 1144.52 1938.75 1144.81 Q1937.56 1145.1 1934.61 1146.57 Q1931.7 1148.05 1928.05 1150.71 L1913.38 1162.06 L1910.92 1163.99 Q1910.92 1164.11 1911 1164.36 Q1911.08 1164.57 1911.16 1164.85 Q1911.29 1165.1 1911.33 1165.18 L1923.26 1192.68 Q1924.2 1194.9 1925.35 1195.68 Q1926.49 1196.45 1929.08 1196.5 Q1929.49 1196.5 1929.65 1196.54 Q1929.85 1196.54 1930.14 1196.62 Q1930.47 1196.66 1930.59 1196.86 Q1930.76 1197.07 1930.76 1197.4 Q1930.76 1199.08 1929.24 1199.08 Q1928.3 1199.08 1925.1 1198.96 Q1921.9 1198.83 1921 1198.83 Q1919.32 1198.83 1915.88 1198.96 Q1912.43 1199.08 1910.75 1199.08 Q1909.56 1199.08 1909.56 1198.14 Q1909.56 1197.36 1909.85 1196.99 Q1910.18 1196.58 1910.47 1196.54 Q1910.75 1196.5 1911.41 1196.5 Q1911.9 1196.5 1912.43 1196.45 Q1913.01 1196.37 1913.83 1196.17 Q1914.69 1195.92 1915.22 1195.35 Q1915.8 1194.73 1915.8 1193.87 Q1915.8 1193.18 1914.77 1190.92 L1905.06 1168.34 L1892.55 1178.09 L1889.19 1191.29 Q1889.11 1191.78 1888.91 1192.64 Q1888.7 1193.5 1888.54 1194.12 Q1888.41 1194.73 1888.41 1194.98 Q1888.41 1195.51 1888.74 1195.84 Q1889.11 1196.17 1890.01 1196.33 Q1890.91 1196.45 1891.61 1196.5 Q1892.35 1196.5 1893.87 1196.5 Q1895.75 1196.5 1896.08 1196.82 Q1896.24 1197.03 1896.24 1197.4 Q1896.24 1197.97 1896.08 1198.38 Q1895.92 1198.75 1895.59 1198.87 Q1895.3 1199 1895.1 1199.04 Q1894.89 1199.08 1894.56 1199.08 Q1893.7 1199.08 1891.86 1199 Q1890.05 1198.91 1889.11 1198.91 L1883.74 1198.83 L1873.08 1199.08 Q1871.81 1199.08 1871.81 1198.05 Q1871.81 1197.27 1872.14 1196.95 Q1872.47 1196.58 1872.84 1196.54 Q1873.21 1196.5 1874.15 1196.5 Q1876.2 1196.5 1877.43 1196.37 Q1878.66 1196.25 1879.44 1196.09 Q1880.26 1195.88 1880.67 1195.31 Q1881.12 1194.73 1881.32 1194.24 Q1881.53 1193.71 1881.81 1192.52 L1893.05 1147.43 Q1893.37 1146.08 1893.37 1145.87 Q1893.37 1145.18 1892.96 1144.93 Q1892.6 1144.64 1891.53 1144.52 Q1889.48 1144.36 1887.92 1144.36 Q1886.9 1144.36 1886.49 1144.32 Q1886.12 1144.28 1885.79 1144.07 Q1885.5 1143.82 1885.5 1143.33 Q1885.5 1141.73 1887.18 1141.73 L1898.01 1141.98 L1908.74 1141.73 Q1909.93 1141.73 1909.93 1142.68 Q1909.93 1143.87 1909.36 1144.11 Q1908.83 1144.36 1907.06 1144.36 Q1903.99 1144.36 1902.6 1144.77 Q1901.24 1145.14 1900.83 1145.79 Q1900.47 1146.41 1900.01 1148.21 L1893.29 1175.14 L1926.04 1149.97 Q1929.08 1147.43 1929.08 1146.12 Q1929.08 1145.26 1928.46 1144.89 Q1927.89 1144.48 1926.45 1144.36 Q1925.43 1144.19 1925.43 1143.41 Q1925.43 1142.64 1925.71 1142.27 Q1926.04 1141.86 1926.29 1141.82 Q1926.58 1141.73 1927.03 1141.73 Q1928.54 1141.73 1931.7 1141.86 Q1934.86 1141.98 1936.37 1141.98 Q1937.4 1141.98 1939.4 1141.86 Q1941.41 1141.73 1942.32 1141.73 Q1942.77 1141.73 1943.01 1142.06 Q1943.26 1142.35 1943.26 1142.68 Z" fill="#000000" fill-rule="evenodd" fill-opacity="1" /><polyline clip-path="url(#clip213)" style="stroke:#000000; stroke-linecap:butt; stroke-linejoin:round; stroke-width:2; stroke-opacity:0.1; fill:none" points="
  324.413,878.754 3489.76,878.754 
  "/>
<polyline clip-path="url(#clip213)" style="stroke:#000000; stroke-linecap:butt; stroke-linejoin:round; stroke-width:2; stroke-opacity:0.1; fill:none" points="
  324.413,494.495 3489.76,494.495 
  "/>
<polyline clip-path="url(#clip213)" style="stroke:#000000; stroke-linecap:butt; stroke-linejoin:round; stroke-width:2; stroke-opacity:0.1; fill:none" points="
  324.413,110.236 3489.76,110.236 
  "/>
<polyline clip-path="url(#clip210)" style="stroke:#000000; stroke-linecap:butt; stroke-linejoin:round; stroke-width:4; stroke-opacity:1; fill:none" points="
  324.413,994.428 324.413,110.236 
  "/>
<polyline clip-path="url(#clip210)" style="stroke:#000000; stroke-linecap:butt; stroke-linejoin:round; stroke-width:4; stroke-opacity:1; fill:none" points="
  3489.76,994.428 3489.76,110.236 
  "/>
<polyline clip-path="url(#clip210)" style="stroke:#000000; stroke-linecap:butt; stroke-linejoin:round; stroke-width:4; stroke-opacity:1; fill:none" points="
  324.413,878.754 343.31,878.754 
  "/>
<polyline clip-path="url(#clip210)" style="stroke:#000000; stroke-linecap:butt; stroke-linejoin:round; stroke-width:4; stroke-opacity:1; fill:none" points="
  324.413,494.495 343.31,494.495 
  "/>
<polyline clip-path="url(#clip210)" style="stroke:#000000; stroke-linecap:butt; stroke-linejoin:round; stroke-width:4; stroke-opacity:1; fill:none" points="
  324.413,110.236 343.31,110.236 
  "/>
<path clip-path="url(#clip210)" d="M156.715 872.316 L156.715 870.34 Q164.312 870.34 168.233 866.295 Q169.314 866.295 169.499 866.542 Q169.685 866.789 169.685 867.931 L169.685 903.411 Q169.685 905.295 170.611 905.882 Q171.537 906.468 175.583 906.468 L177.59 906.468 L177.59 908.414 Q175.366 908.228 167.338 908.228 Q159.309 908.228 157.117 908.414 L157.117 906.468 L159.124 906.468 Q163.107 906.468 164.065 905.913 Q165.022 905.326 165.022 903.411 L165.022 870.648 Q161.718 872.316 156.715 872.316 Z" fill="#000000" fill-rule="evenodd" fill-opacity="1" /><path clip-path="url(#clip210)" d="M185.186 888.188 Q185.186 878.893 187.533 873.829 Q190.806 866.295 198.526 866.295 Q200.162 866.295 201.861 866.758 Q203.59 867.19 205.751 868.888 Q207.944 870.587 209.272 873.366 Q211.804 878.739 211.804 888.188 Q211.804 897.421 209.457 902.454 Q206.029 909.803 198.464 909.803 Q195.623 909.803 192.72 908.352 Q189.849 906.901 188.027 903.411 Q185.186 898.193 185.186 888.188 M190.435 887.416 Q190.435 896.958 191.115 900.756 Q191.887 904.863 193.987 906.654 Q196.117 908.414 198.464 908.414 Q200.996 908.414 203.096 906.53 Q205.227 904.616 205.875 900.509 Q206.585 896.463 206.554 887.416 Q206.554 878.615 205.937 875.095 Q205.103 870.988 202.88 869.352 Q200.687 867.684 198.464 867.684 Q197.63 867.684 196.735 867.931 Q195.87 868.178 194.604 868.888 Q193.338 869.599 192.35 871.359 Q191.393 873.119 190.929 875.774 Q190.435 879.202 190.435 887.416 Z" fill="#000000" fill-rule="evenodd" fill-opacity="1" /><path clip-path="url(#clip210)" d="M245.725 860.577 Q246.026 860.878 246.026 861.305 Q246.026 861.732 245.725 862.033 Q245.424 862.334 244.997 862.334 L212.832 862.334 Q212.406 862.334 212.105 862.033 Q211.804 861.732 211.804 861.305 Q211.804 860.878 212.105 860.577 Q212.406 860.276 212.832 860.276 L244.997 860.276 Q245.424 860.276 245.725 860.577 Z" fill="#000000" fill-rule="evenodd" fill-opacity="1" /><path clip-path="url(#clip210)" d="M253.452 844.821 L253.452 843.216 Q259.624 843.216 262.81 839.929 Q263.689 839.929 263.839 840.13 Q263.99 840.33 263.99 841.259 L263.99 870.086 Q263.99 871.617 264.742 872.093 Q265.495 872.57 268.782 872.57 L270.413 872.57 L270.413 874.151 Q268.606 874 262.083 874 Q255.56 874 253.778 874.151 L253.778 872.57 L255.409 872.57 Q258.646 872.57 259.423 872.118 Q260.201 871.642 260.201 870.086 L260.201 843.466 Q257.517 844.821 253.452 844.821 Z" fill="#000000" fill-rule="evenodd" fill-opacity="1" /><path clip-path="url(#clip210)" d="M193.697 488.057 L193.697 486.081 Q201.293 486.081 205.215 482.035 Q206.296 482.035 206.481 482.283 Q206.666 482.53 206.666 483.672 L206.666 519.152 Q206.666 521.036 207.593 521.623 Q208.519 522.209 212.564 522.209 L214.571 522.209 L214.571 524.155 Q212.348 523.969 204.319 523.969 Q196.291 523.969 194.098 524.155 L194.098 522.209 L196.106 522.209 Q200.089 522.209 201.046 521.654 Q202.004 521.067 202.004 519.152 L202.004 486.389 Q198.699 488.057 193.697 488.057 Z" fill="#000000" fill-rule="evenodd" fill-opacity="1" /><path clip-path="url(#clip210)" d="M222.168 503.929 Q222.168 494.634 224.514 489.57 Q227.788 482.035 235.507 482.035 Q237.144 482.035 238.842 482.499 Q240.572 482.931 242.733 484.629 Q244.926 486.328 246.253 489.107 Q248.786 494.48 248.786 503.929 Q248.786 513.162 246.439 518.195 Q243.011 525.544 235.446 525.544 Q232.605 525.544 229.702 524.093 Q226.83 522.642 225.009 519.152 Q222.168 513.934 222.168 503.929 M227.417 503.157 Q227.417 512.699 228.096 516.497 Q228.868 520.604 230.968 522.395 Q233.099 524.155 235.446 524.155 Q237.978 524.155 240.078 522.271 Q242.208 520.357 242.857 516.25 Q243.567 512.204 243.536 503.157 Q243.536 494.356 242.918 490.836 Q242.085 486.729 239.861 485.093 Q237.669 483.425 235.446 483.425 Q234.612 483.425 233.716 483.672 Q232.852 483.919 231.586 484.629 Q230.32 485.34 229.332 487.1 Q228.374 488.86 227.911 491.515 Q227.417 494.943 227.417 503.157 Z" fill="#000000" fill-rule="evenodd" fill-opacity="1" /><path clip-path="url(#clip210)" d="M248.786 473.458 Q248.786 465.906 250.692 461.792 Q253.352 455.67 259.624 455.67 Q260.954 455.67 262.334 456.046 Q263.739 456.397 265.495 457.777 Q267.276 459.157 268.355 461.415 Q270.413 465.781 270.413 473.458 Q270.413 480.96 268.506 485.049 Q265.721 491.021 259.574 491.021 Q257.266 491.021 254.907 489.842 Q252.574 488.662 251.094 485.827 Q248.786 481.587 248.786 473.458 M253.051 472.831 Q253.051 480.584 253.603 483.67 Q254.23 487.006 255.936 488.462 Q257.667 489.892 259.574 489.892 Q261.631 489.892 263.337 488.361 Q265.069 486.806 265.595 483.469 Q266.172 480.182 266.147 472.831 Q266.147 465.681 265.646 462.82 Q264.968 459.483 263.162 458.154 Q261.38 456.799 259.574 456.799 Q258.897 456.799 258.169 457 Q257.466 457.2 256.438 457.777 Q255.409 458.354 254.606 459.785 Q253.828 461.215 253.452 463.372 Q253.051 466.157 253.051 472.831 Z" fill="#000000" fill-rule="evenodd" fill-opacity="1" /><path clip-path="url(#clip210)" d="M198.364 103.798 L198.364 101.822 Q205.96 101.822 209.882 97.7765 Q210.962 97.7765 211.148 98.0235 Q211.333 98.2706 211.333 99.4131 L211.333 134.893 Q211.333 136.777 212.259 137.364 Q213.186 137.95 217.231 137.95 L219.238 137.95 L219.238 139.896 Q217.015 139.71 208.986 139.71 Q200.958 139.71 198.765 139.896 L198.765 137.95 L200.772 137.95 Q204.756 137.95 205.713 137.395 Q206.67 136.808 206.67 134.893 L206.67 102.13 Q203.366 103.798 198.364 103.798 Z" fill="#000000" fill-rule="evenodd" fill-opacity="1" /><path clip-path="url(#clip210)" d="M226.834 119.67 Q226.834 110.375 229.181 105.311 Q232.454 97.7765 240.174 97.7765 Q241.811 97.7765 243.509 98.2397 Q245.238 98.672 247.4 100.37 Q249.592 102.069 250.92 104.848 Q253.452 110.221 253.452 119.67 Q253.452 128.903 251.105 133.936 Q247.678 141.285 240.112 141.285 Q237.271 141.285 234.369 139.834 Q231.497 138.383 229.675 134.893 Q226.834 129.675 226.834 119.67 M232.084 118.898 Q232.084 128.44 232.763 132.238 Q233.535 136.345 235.635 138.136 Q237.766 139.896 240.112 139.896 Q242.644 139.896 244.744 138.012 Q246.875 136.098 247.523 131.991 Q248.234 127.945 248.203 118.898 Q248.203 110.097 247.585 106.577 Q246.751 102.47 244.528 100.834 Q242.336 99.1661 240.112 99.1661 Q239.279 99.1661 238.383 99.4131 Q237.518 99.6601 236.252 100.37 Q234.986 101.081 233.998 102.841 Q233.041 104.601 232.578 107.256 Q232.084 110.684 232.084 118.898 Z" fill="#000000" fill-rule="evenodd" fill-opacity="1" /><path clip-path="url(#clip210)" d="M253.452 76.3033 L253.452 74.6976 Q259.624 74.6976 262.81 71.4108 Q263.689 71.4108 263.839 71.6116 Q263.99 71.8123 263.99 72.7406 L263.99 101.568 Q263.99 103.099 264.742 103.575 Q265.495 104.052 268.782 104.052 L270.413 104.052 L270.413 105.633 Q268.606 105.482 262.083 105.482 Q255.56 105.482 253.778 105.633 L253.778 104.052 L255.409 104.052 Q258.646 104.052 259.423 103.6 Q260.201 103.124 260.201 101.568 L260.201 74.9484 Q257.517 76.3033 253.452 76.3033 Z" fill="#000000" fill-rule="evenodd" fill-opacity="1" /><path clip-path="url(#clip210)" d="M93.2025 836.281 Q92.8746 836.281 90.7431 835.175 Q88.5707 834.068 80.8237 830.174 Q73.0358 826.28 64.8789 822.263 L35.7765 807.794 Q33.932 806.769 33.932 805.457 Q33.932 804.269 34.6698 803.736 Q35.4076 803.203 40.3673 800.744 Q42.7857 799.473 44.3433 798.735 L91.8498 775.002 Q92.8746 774.593 93.2025 774.552 Q94.0223 774.552 94.0223 775.986 L94.0223 834.068 Q94.0223 836.281 93.2025 836.281 M87.6279 830.748 L87.6279 785.578 L42.2938 808.163 L87.6279 830.748 Z" fill="#000000" fill-rule="evenodd" fill-opacity="1" /><path clip-path="url(#clip210)" d="M92.3417 709.482 Q93.1205 709.482 93.5304 709.81 Q93.8993 710.097 93.9813 710.384 Q94.0223 710.63 94.0223 710.998 Q94.0223 712.064 93.8993 715.753 Q93.7763 719.442 93.7763 720.508 Q93.7763 722.229 93.8993 725.755 Q94.0223 729.28 94.0223 731.001 Q94.0223 732.149 93.0795 732.149 Q92.4647 732.149 92.1368 732.026 Q91.7679 731.903 91.6449 731.575 Q91.4809 731.206 91.4809 731.001 Q91.4399 730.755 91.4399 730.14 Q91.4399 729.321 91.358 728.46 Q91.235 727.599 90.9891 726.533 Q90.7431 725.468 90.1283 724.812 Q89.5134 724.115 88.6527 724.115 Q88.2838 724.115 85.2506 724.402 Q82.2174 724.689 78.6923 725.058 Q75.1262 725.427 74.6343 725.468 L74.6343 746.536 Q77.9545 748.463 80.2499 749.815 Q82.5453 751.168 83.3241 751.66 Q84.1029 752.152 84.5947 752.439 Q85.0866 752.725 85.3735 752.889 Q87.546 754.078 88.4887 754.078 Q91.112 754.078 91.4399 750.143 Q91.4399 748.791 92.4237 748.791 Q93.1615 748.791 93.5714 749.118 Q93.9403 749.446 93.9813 749.733 Q94.0223 749.979 94.0223 750.389 Q94.0223 751.742 93.8993 754.57 Q93.7763 757.398 93.7763 758.792 Q93.7763 759.981 93.8993 762.44 Q94.0223 764.899 94.0223 766.006 Q94.0223 766.498 93.7353 766.785 Q93.4484 767.072 93.0795 767.072 Q92.5057 767.072 92.1778 766.99 Q91.8498 766.867 91.6859 766.539 Q91.5219 766.211 91.5219 766.047 Q91.4809 765.883 91.4399 765.309 Q91.235 762.194 89.7594 759.776 Q88.2428 757.316 84.3488 754.98 L35.3256 725.796 Q34.8338 725.509 34.5878 725.304 Q34.3419 725.099 34.1369 724.689 Q33.932 724.238 33.932 723.582 Q33.932 722.557 34.2599 722.352 Q34.5468 722.147 35.9405 722.025 L88.4067 716.901 Q89.5134 716.778 89.9643 716.696 Q90.3742 716.573 90.8251 716.04 Q91.235 715.466 91.358 714.442 Q91.4399 713.376 91.4399 711.408 Q91.4399 710.671 91.4809 710.384 Q91.4809 710.097 91.6859 709.81 Q91.8908 709.482 92.3417 709.482 M72.011 725.714 L44.3433 728.378 L72.011 744.938 L72.011 725.714 Z" fill="#000000" fill-rule="evenodd" fill-opacity="1" /><path clip-path="url(#clip210)" d="M88.5306 679.454 Q90.1374 679.454 90.9982 680.258 Q91.8302 681.061 91.8302 682.151 Q91.8302 683.041 91.3138 683.529 Q90.7973 683.988 90.1087 683.988 Q89.1044 683.988 88.3011 683.184 Q87.4977 682.352 87.469 681.147 Q86.4074 681.549 85.7761 682.61 Q85.1162 683.672 84.944 684.619 Q84.7719 685.537 84.7719 686.455 Q84.7719 688.263 85.3457 689.64 Q85.9196 691.017 86.809 691.706 Q87.6698 692.394 88.5019 692.71 Q89.334 693.026 90.0513 693.026 Q90.6825 693.026 91.199 692.882 Q91.6868 692.71 92.0598 692.308 Q92.4041 691.907 92.6336 691.62 Q92.8632 691.304 93.064 690.616 Q93.2649 689.927 93.3509 689.64 Q93.4083 689.353 93.5805 688.55 Q93.9248 686.886 94.1256 686.14 Q94.2978 685.394 94.7856 684.418 Q95.2733 683.414 96.048 682.668 Q97.8557 680.86 100.352 680.86 Q101.27 680.86 102.389 681.176 Q103.508 681.463 104.914 682.295 Q106.32 683.127 107.439 684.389 Q108.558 685.652 109.333 687.832 Q110.107 689.984 110.107 692.681 Q110.107 696.44 108.529 698.764 Q106.922 701.088 104.398 701.088 Q102.561 701.088 101.557 700.084 Q100.524 699.08 100.524 697.789 Q100.524 696.813 101.069 696.211 Q101.586 695.608 102.561 695.608 Q103.881 695.608 104.885 696.67 Q105.89 697.731 105.689 699.309 Q108.787 697.961 108.787 692.624 Q108.787 690.616 108.271 689.066 Q107.726 687.488 106.98 686.627 Q106.205 685.738 105.258 685.164 Q104.311 684.59 103.594 684.418 Q102.877 684.217 102.332 684.217 Q101.385 684.217 100.668 684.59 Q99.9502 684.963 99.5485 685.48 Q99.1181 685.967 98.7738 686.914 Q98.4008 687.832 98.2574 688.492 Q98.1139 689.152 97.8843 690.329 Q97.7696 690.874 97.7122 691.218 Q97.6261 691.562 97.3966 692.28 Q97.1383 692.968 96.8801 693.456 Q96.6219 693.915 96.1628 694.518 Q95.7037 695.12 95.1586 695.493 Q94.6134 695.866 93.81 696.125 Q93.0066 696.383 92.0598 696.383 Q91.199 696.383 90.1661 696.125 Q89.1331 695.838 87.9281 695.12 Q86.723 694.374 85.7474 693.313 Q84.7719 692.251 84.1406 690.472 Q83.4807 688.664 83.4807 686.455 Q83.4807 683.242 84.9727 681.348 Q86.436 679.454 88.5306 679.454 Z" fill="#000000" fill-rule="evenodd" fill-opacity="1" /><path clip-path="url(#clip210)" d="M102.647 651.694 Q102.906 651.465 103.164 651.465 Q103.422 651.465 104.168 652.038 Q104.914 652.584 105.918 653.76 Q106.922 654.936 107.869 656.457 Q108.816 657.978 109.447 660.216 Q110.107 662.454 110.107 664.807 Q110.107 669.024 107.095 671.549 Q104.082 674.046 99.4624 674.046 Q96.5071 674.046 93.8961 673.07 Q91.2564 672.094 89.3914 670.516 Q87.5264 668.91 86.1778 666.901 Q84.8006 664.864 84.1406 662.741 Q83.4807 660.617 83.4807 658.638 Q83.4807 655.74 84.944 654.047 Q86.4074 652.354 88.4732 652.354 Q88.961 652.354 89.5635 652.497 Q90.1661 652.612 91.1129 653.014 Q92.0598 653.387 93.0066 654.363 Q93.9248 655.338 94.5273 656.773 Q95.8759 659.958 95.8759 665.753 L95.8759 668.881 Q99.5772 669.799 101.987 669.799 Q102.934 669.799 103.91 669.627 Q104.857 669.455 106.062 668.996 Q107.267 668.508 108.041 667.418 Q108.787 666.299 108.787 664.692 Q108.787 664.175 108.759 663.63 Q108.73 663.056 108.414 661.622 Q108.099 660.158 107.554 658.867 Q107.009 657.576 105.832 655.941 Q104.627 654.276 102.992 652.957 Q102.389 652.497 102.389 652.182 Q102.389 651.924 102.647 651.694 M88.4732 654.305 Q86.8951 654.305 85.8335 655.482 Q84.7719 656.629 84.7719 658.638 Q84.7719 659.269 84.9153 660.044 Q85.0588 660.818 85.6613 662.109 Q86.2639 663.372 87.2681 664.491 Q88.2437 665.61 90.1661 666.729 Q92.0598 667.848 94.5847 668.508 L94.5847 666.098 Q94.5847 665.266 94.5847 664.663 Q94.556 664.061 94.4412 662.741 Q94.3265 661.392 94.1256 660.417 Q93.8961 659.441 93.437 658.207 Q92.9779 656.974 92.3754 656.199 Q91.7442 655.395 90.7399 654.85 Q89.7357 654.305 88.4732 654.305 Z" fill="#000000" fill-rule="evenodd" fill-opacity="1" /><path clip-path="url(#clip210)" d="M33.1639 652.942 Q33.3934 652.942 34.2829 653.201 Q35.1724 653.459 36.5496 654.09 Q37.9268 654.693 39.1893 655.553 Q40.4231 656.385 41.3412 657.763 Q42.2307 659.111 42.2307 660.661 Q42.2307 662.726 40.8535 664.104 Q39.4762 665.481 37.4104 665.481 Q36.2914 665.481 34.1681 664.706 Q24.4701 661.062 20.9983 661.062 Q16.8952 661.062 16.8952 664.247 Q16.8952 666.055 17.6412 667.69 Q18.3872 669.326 19.4202 670.387 Q20.4531 671.449 21.6295 672.281 Q22.8059 673.113 23.5806 673.486 Q24.3553 673.83 24.6996 673.917 L38.8737 677.446 Q40.0788 677.733 40.6526 677.933 Q41.2265 678.134 41.7142 678.679 Q42.2307 679.225 42.2307 680.085 Q42.2307 680.803 41.8003 681.319 Q41.3699 681.807 40.6239 681.807 Q40.5092 681.807 39.9066 681.663 Q39.3041 681.52 38.472 681.319 Q37.6399 681.118 37.1521 681.032 Q33.25 679.999 32.7048 679.856 L25.876 678.22 Q22.4903 677.331 20.9983 677.331 Q16.8952 677.331 16.8952 680.516 Q16.8952 682.094 17.4978 683.586 Q18.0716 685.049 18.875 686.053 Q19.6784 687.058 20.7974 687.976 Q21.8877 688.865 22.6337 689.324 Q23.351 689.755 24.0684 690.099 L26.995 690.845 Q27.7984 691.017 30.9259 691.849 L36.234 693.14 Q40.1935 694.059 40.5665 694.259 Q41.3699 694.546 41.8003 695.178 Q42.2307 695.809 42.2307 696.44 Q42.2307 697.157 41.8003 697.645 Q41.3699 698.133 40.6239 698.133 Q40.5092 698.133 40.0788 698.047 Q39.6484 697.961 39.0458 697.817 Q38.4433 697.674 38.099 697.617 L24.5274 694.202 Q22.0599 693.571 21.2852 693.427 Q20.4818 693.255 19.5923 693.255 Q16.8952 693.255 16.8952 695.092 Q16.8952 696.584 18.6742 697.559 Q20.4531 698.535 23.8962 699.367 Q24.8431 699.625 25.0439 699.797 Q25.2448 699.941 25.2448 700.371 Q25.2161 701.088 24.6422 701.088 Q24.4987 701.088 23.5806 700.859 Q22.6624 700.629 21.2852 700.199 Q19.8793 699.74 18.9611 699.252 Q18.3586 698.965 17.9569 698.707 Q17.5552 698.449 16.9239 697.932 Q16.2927 697.416 15.9484 696.641 Q15.6041 695.866 15.6041 694.919 Q15.6041 692.825 16.9526 691.275 Q18.3012 689.697 20.7113 689.497 Q15.6041 685.68 15.6041 680.344 Q15.6041 677.331 17.1248 675.523 Q18.5881 673.83 21.2852 673.63 Q15.6041 669.67 15.6041 664.046 Q15.6041 660.804 17.2969 659.054 Q18.9611 657.304 21.8877 657.304 Q23.4084 657.304 26.3064 658.078 Q29.1756 658.853 30.6103 659.369 Q32.0449 659.886 34.7994 660.89 Q37.4391 661.952 38.9885 661.952 Q39.9927 661.952 40.4518 661.607 Q40.9109 661.263 40.9109 660.517 Q40.9109 659.369 40.2509 658.365 Q39.5623 657.361 38.4433 656.644 Q37.2956 655.898 36.1479 655.41 Q34.9715 654.922 33.6517 654.549 Q32.9343 654.32 32.7622 654.205 Q32.59 654.061 32.59 653.66 Q32.59 652.942 33.1639 652.942 Z" fill="#000000" fill-rule="evenodd" fill-opacity="1" /><path clip-path="url(#clip210)" d="M34.7707 626.42 Q35.0289 626.19 35.2871 626.19 Q35.5454 626.19 36.2914 626.764 Q37.0374 627.309 38.0416 628.486 Q39.0458 629.662 39.9927 631.183 Q40.9395 632.703 41.5708 634.941 Q42.2307 637.179 42.2307 639.532 Q42.2307 643.922 39.3328 646.505 Q36.4348 649.058 32.2744 649.058 Q28.2288 649.058 24.3553 646.791 Q20.4531 644.525 18.0429 640.852 Q15.6041 637.179 15.6041 633.306 Q15.6041 630.236 17.0387 628.314 Q18.4733 626.391 20.654 626.391 Q22.3468 626.391 23.3797 627.367 Q24.4127 628.342 24.4127 629.662 Q24.4127 630.58 23.8962 631.211 Q23.351 631.843 22.3468 631.843 Q21.0556 631.843 20.0514 630.781 Q19.6497 630.379 19.4776 629.92 Q19.2767 629.433 19.2767 629.146 Q19.248 628.859 19.248 628.199 Q18.129 628.801 17.5265 630.236 Q16.8952 631.642 16.8952 633.249 Q16.8952 635.63 18.5594 637.897 Q20.1949 640.164 22.7772 641.541 Q25.3021 642.918 28.8887 643.807 Q32.4466 644.697 34.5124 644.697 Q37.353 644.697 39.1319 643.377 Q40.9109 642.057 40.9109 639.417 Q40.9109 638.901 40.8822 638.356 Q40.8535 637.782 40.5379 636.347 Q40.2222 634.884 39.6771 633.593 Q39.1319 632.302 37.9555 630.666 Q36.7504 629.002 35.115 627.682 Q34.5124 627.223 34.5124 626.908 Q34.5124 626.649 34.7707 626.42 Z" fill="#000000" fill-rule="evenodd" fill-opacity="1" /><path clip-path="url(#clip210)" d="M113.82 614.923 Q113.41 614.923 112.508 614.595 L33.3171 584.96 Q33.2352 584.96 32.7843 584.755 Q32.3334 584.55 32.0465 584.427 Q31.7186 584.304 31.4726 584.058 Q31.2267 583.771 31.2267 583.443 Q31.2267 582.623 32.2514 582.623 Q32.3334 582.623 33.3171 582.869 L112.59 612.587 Q114.025 613.078 114.435 613.406 Q114.845 613.693 114.845 614.185 Q114.845 614.923 113.82 614.923 Z" fill="#000000" fill-rule="evenodd" fill-opacity="1" /><path clip-path="url(#clip210)" d="M92.3417 515.767 Q93.1205 515.767 93.5304 516.094 Q93.8993 516.381 93.9813 516.668 Q94.0223 516.914 94.0223 517.283 Q94.0223 518.349 93.8993 522.038 Q93.7763 525.727 93.7763 526.793 Q93.7763 528.514 93.8993 532.039 Q94.0223 535.564 94.0223 537.286 Q94.0223 538.434 93.0795 538.434 Q92.4647 538.434 92.1368 538.311 Q91.7679 538.188 91.6449 537.86 Q91.4809 537.491 91.4809 537.286 Q91.4399 537.04 91.4399 536.425 Q91.4399 535.605 91.358 534.745 Q91.235 533.884 90.9891 532.818 Q90.7431 531.752 90.1283 531.097 Q89.5134 530.4 88.6527 530.4 Q88.2838 530.4 85.2506 530.687 Q82.2174 530.974 78.6923 531.342 Q75.1262 531.711 74.6343 531.752 L74.6343 552.821 Q77.9545 554.747 80.2499 556.1 Q82.5453 557.453 83.3241 557.945 Q84.1029 558.436 84.5947 558.723 Q85.0866 559.01 85.3735 559.174 Q87.546 560.363 88.4887 560.363 Q91.112 560.363 91.4399 556.428 Q91.4399 555.075 92.4237 555.075 Q93.1615 555.075 93.5714 555.403 Q93.9403 555.731 93.9813 556.018 Q94.0223 556.264 94.0223 556.674 Q94.0223 558.026 93.8993 560.855 Q93.7763 563.683 93.7763 565.077 Q93.7763 566.265 93.8993 568.725 Q94.0223 571.184 94.0223 572.291 Q94.0223 572.783 93.7353 573.07 Q93.4484 573.356 93.0795 573.356 Q92.5057 573.356 92.1778 573.275 Q91.8498 573.152 91.6859 572.824 Q91.5219 572.496 91.5219 572.332 Q91.4809 572.168 91.4399 571.594 Q91.235 568.479 89.7594 566.06 Q88.2428 563.601 84.3488 561.265 L35.3256 532.08 Q34.8338 531.793 34.5878 531.588 Q34.3419 531.383 34.1369 530.974 Q33.932 530.523 33.932 529.867 Q33.932 528.842 34.2599 528.637 Q34.5468 528.432 35.9405 528.309 L88.4067 523.186 Q89.5134 523.063 89.9643 522.981 Q90.3742 522.858 90.8251 522.325 Q91.235 521.751 91.358 520.726 Q91.4399 519.661 91.4399 517.693 Q91.4399 516.955 91.4809 516.668 Q91.4809 516.381 91.6859 516.094 Q91.8908 515.767 92.3417 515.767 M72.011 531.998 L44.3433 534.663 L72.011 551.222 L72.011 531.998 Z" fill="#000000" fill-rule="evenodd" fill-opacity="1" /><path clip-path="url(#clip210)" d="M88.5306 485.739 Q90.1374 485.739 90.9982 486.542 Q91.8302 487.346 91.8302 488.436 Q91.8302 489.325 91.3138 489.813 Q90.7973 490.272 90.1087 490.272 Q89.1044 490.272 88.3011 489.469 Q87.4977 488.637 87.469 487.432 Q86.4074 487.833 85.7761 488.895 Q85.1162 489.957 84.944 490.904 Q84.7719 491.822 84.7719 492.74 Q84.7719 494.548 85.3457 495.925 Q85.9196 497.302 86.809 497.991 Q87.6698 498.679 88.5019 498.995 Q89.334 499.31 90.0513 499.31 Q90.6825 499.31 91.199 499.167 Q91.6868 498.995 92.0598 498.593 Q92.4041 498.191 92.6336 497.905 Q92.8632 497.589 93.064 496.9 Q93.2649 496.212 93.3509 495.925 Q93.4083 495.638 93.5805 494.834 Q93.9248 493.17 94.1256 492.424 Q94.2978 491.678 94.7856 490.703 Q95.2733 489.698 96.048 488.952 Q97.8557 487.145 100.352 487.145 Q101.27 487.145 102.389 487.46 Q103.508 487.747 104.914 488.579 Q106.32 489.412 107.439 490.674 Q108.558 491.936 109.333 494.117 Q110.107 496.269 110.107 498.966 Q110.107 502.725 108.529 505.049 Q106.922 507.373 104.398 507.373 Q102.561 507.373 101.557 506.369 Q100.524 505.365 100.524 504.073 Q100.524 503.098 101.069 502.495 Q101.586 501.893 102.561 501.893 Q103.881 501.893 104.885 502.954 Q105.89 504.016 105.689 505.594 Q108.787 504.246 108.787 498.909 Q108.787 496.9 108.271 495.351 Q107.726 493.773 106.98 492.912 Q106.205 492.023 105.258 491.449 Q104.311 490.875 103.594 490.703 Q102.877 490.502 102.332 490.502 Q101.385 490.502 100.668 490.875 Q99.9502 491.248 99.5485 491.764 Q99.1181 492.252 98.7738 493.199 Q98.4008 494.117 98.2574 494.777 Q98.1139 495.437 97.8843 496.613 Q97.7696 497.159 97.7122 497.503 Q97.6261 497.847 97.3966 498.564 Q97.1383 499.253 96.8801 499.741 Q96.6219 500.2 96.1628 500.802 Q95.7037 501.405 95.1586 501.778 Q94.6134 502.151 93.81 502.409 Q93.0066 502.667 92.0598 502.667 Q91.199 502.667 90.1661 502.409 Q89.1331 502.122 87.9281 501.405 Q86.723 500.659 85.7474 499.597 Q84.7719 498.536 84.1406 496.757 Q83.4807 494.949 83.4807 492.74 Q83.4807 489.526 84.9727 487.633 Q86.436 485.739 88.5306 485.739 Z" fill="#000000" fill-rule="evenodd" fill-opacity="1" /><path clip-path="url(#clip210)" d="M102.647 457.979 Q102.906 457.749 103.164 457.749 Q103.422 457.749 104.168 458.323 Q104.914 458.868 105.918 460.045 Q106.922 461.221 107.869 462.742 Q108.816 464.263 109.447 466.501 Q110.107 468.739 110.107 471.091 Q110.107 475.309 107.095 477.834 Q104.082 480.33 99.4624 480.33 Q96.5071 480.33 93.8961 479.355 Q91.2564 478.379 89.3914 476.801 Q87.5264 475.194 86.1778 473.186 Q84.8006 471.149 84.1406 469.025 Q83.4807 466.902 83.4807 464.922 Q83.4807 462.024 84.944 460.332 Q86.4074 458.639 88.4732 458.639 Q88.961 458.639 89.5635 458.782 Q90.1661 458.897 91.1129 459.299 Q92.0598 459.672 93.0066 460.647 Q93.9248 461.623 94.5273 463.057 Q95.8759 466.242 95.8759 472.038 L95.8759 475.166 Q99.5772 476.084 101.987 476.084 Q102.934 476.084 103.91 475.912 Q104.857 475.739 106.062 475.28 Q107.267 474.793 108.041 473.702 Q108.787 472.583 108.787 470.977 Q108.787 470.46 108.759 469.915 Q108.73 469.341 108.414 467.906 Q108.099 466.443 107.554 465.152 Q107.009 463.861 105.832 462.225 Q104.627 460.561 102.992 459.241 Q102.389 458.782 102.389 458.467 Q102.389 458.208 102.647 457.979 M88.4732 460.59 Q86.8951 460.59 85.8335 461.766 Q84.7719 462.914 84.7719 464.922 Q84.7719 465.554 84.9153 466.328 Q85.0588 467.103 85.6613 468.394 Q86.2639 469.657 87.2681 470.776 Q88.2437 471.895 90.1661 473.014 Q92.0598 474.133 94.5847 474.793 L94.5847 472.382 Q94.5847 471.55 94.5847 470.948 Q94.556 470.345 94.4412 469.025 Q94.3265 467.677 94.1256 466.701 Q93.8961 465.726 93.437 464.492 Q92.9779 463.258 92.3754 462.484 Q91.7442 461.68 90.7399 461.135 Q89.7357 460.59 88.4732 460.59 Z" fill="#000000" fill-rule="evenodd" fill-opacity="1" /><path clip-path="url(#clip210)" d="M33.1639 459.227 Q33.3934 459.227 34.2829 459.485 Q35.1724 459.744 36.5496 460.375 Q37.9268 460.977 39.1893 461.838 Q40.4231 462.67 41.3412 464.047 Q42.2307 465.396 42.2307 466.945 Q42.2307 469.011 40.8535 470.388 Q39.4762 471.766 37.4104 471.766 Q36.2914 471.766 34.1681 470.991 Q24.4701 467.347 20.9983 467.347 Q16.8952 467.347 16.8952 470.532 Q16.8952 472.34 17.6412 473.975 Q18.3872 475.61 19.4202 476.672 Q20.4531 477.734 21.6295 478.566 Q22.8059 479.398 23.5806 479.771 Q24.3553 480.115 24.6996 480.201 L38.8737 483.73 Q40.0788 484.017 40.6526 484.218 Q41.2265 484.419 41.7142 484.964 Q42.2307 485.509 42.2307 486.37 Q42.2307 487.087 41.8003 487.604 Q41.3699 488.092 40.6239 488.092 Q40.5092 488.092 39.9066 487.948 Q39.3041 487.805 38.472 487.604 Q37.6399 487.403 37.1521 487.317 Q33.25 486.284 32.7048 486.141 L25.876 484.505 Q22.4903 483.616 20.9983 483.616 Q16.8952 483.616 16.8952 486.801 Q16.8952 488.379 17.4978 489.871 Q18.0716 491.334 18.875 492.338 Q19.6784 493.342 20.7974 494.261 Q21.8877 495.15 22.6337 495.609 Q23.351 496.04 24.0684 496.384 L26.995 497.13 Q27.7984 497.302 30.9259 498.134 L36.234 499.425 Q40.1935 500.343 40.5665 500.544 Q41.3699 500.831 41.8003 501.462 Q42.2307 502.094 42.2307 502.725 Q42.2307 503.442 41.8003 503.93 Q41.3699 504.418 40.6239 504.418 Q40.5092 504.418 40.0788 504.332 Q39.6484 504.246 39.0458 504.102 Q38.4433 503.959 38.099 503.901 L24.5274 500.487 Q22.0599 499.856 21.2852 499.712 Q20.4818 499.54 19.5923 499.54 Q16.8952 499.54 16.8952 501.376 Q16.8952 502.868 18.6742 503.844 Q20.4531 504.819 23.8962 505.652 Q24.8431 505.91 25.0439 506.082 Q25.2448 506.225 25.2448 506.656 Q25.2161 507.373 24.6422 507.373 Q24.4987 507.373 23.5806 507.144 Q22.6624 506.914 21.2852 506.484 Q19.8793 506.025 18.9611 505.537 Q18.3586 505.25 17.9569 504.992 Q17.5552 504.733 16.9239 504.217 Q16.2927 503.7 15.9484 502.926 Q15.6041 502.151 15.6041 501.204 Q15.6041 499.11 16.9526 497.56 Q18.3012 495.982 20.7113 495.781 Q15.6041 491.965 15.6041 486.628 Q15.6041 483.616 17.1248 481.808 Q18.5881 480.115 21.2852 479.914 Q15.6041 475.955 15.6041 470.331 Q15.6041 467.089 17.2969 465.339 Q18.9611 463.588 21.8877 463.588 Q23.4084 463.588 26.3064 464.363 Q29.1756 465.138 30.6103 465.654 Q32.0449 466.171 34.7994 467.175 Q37.4391 468.236 38.9885 468.236 Q39.9927 468.236 40.4518 467.892 Q40.9109 467.548 40.9109 466.802 Q40.9109 465.654 40.2509 464.65 Q39.5623 463.646 38.4433 462.928 Q37.2956 462.182 36.1479 461.695 Q34.9715 461.207 33.6517 460.834 Q32.9343 460.604 32.7622 460.49 Q32.59 460.346 32.59 459.944 Q32.59 459.227 33.1639 459.227 Z" fill="#000000" fill-rule="evenodd" fill-opacity="1" /><path clip-path="url(#clip210)" d="M34.7707 432.705 Q35.0289 432.475 35.2871 432.475 Q35.5454 432.475 36.2914 433.049 Q37.0374 433.594 38.0416 434.77 Q39.0458 435.947 39.9927 437.467 Q40.9395 438.988 41.5708 441.226 Q42.2307 443.464 42.2307 445.817 Q42.2307 450.207 39.3328 452.789 Q36.4348 455.343 32.2744 455.343 Q28.2288 455.343 24.3553 453.076 Q20.4531 450.81 18.0429 447.137 Q15.6041 443.464 15.6041 439.591 Q15.6041 436.521 17.0387 434.598 Q18.4733 432.676 20.654 432.676 Q22.3468 432.676 23.3797 433.651 Q24.4127 434.627 24.4127 435.947 Q24.4127 436.865 23.8962 437.496 Q23.351 438.127 22.3468 438.127 Q21.0556 438.127 20.0514 437.066 Q19.6497 436.664 19.4776 436.205 Q19.2767 435.717 19.2767 435.43 Q19.248 435.143 19.248 434.483 Q18.129 435.086 17.5265 436.521 Q16.8952 437.927 16.8952 439.533 Q16.8952 441.915 18.5594 444.182 Q20.1949 446.448 22.7772 447.825 Q25.3021 449.203 28.8887 450.092 Q32.4466 450.982 34.5124 450.982 Q37.353 450.982 39.1319 449.662 Q40.9109 448.342 40.9109 445.702 Q40.9109 445.186 40.8822 444.641 Q40.8535 444.067 40.5379 442.632 Q40.2222 441.169 39.6771 439.878 Q39.1319 438.587 37.9555 436.951 Q36.7504 435.287 35.115 433.967 Q34.5124 433.508 34.5124 433.192 Q34.5124 432.934 34.7707 432.705 Z" fill="#000000" fill-rule="evenodd" fill-opacity="1" /><path clip-path="url(#clip210)" d="M73.0358 399.029 Q58.8535 399.029 47.4175 393.741 Q42.6217 391.487 38.6048 388.33 Q34.5878 385.174 32.8253 383.084 Q31.0627 380.993 31.0627 380.419 Q31.0627 379.6 31.8825 379.559 Q32.2924 379.559 33.3171 380.665 Q47.0895 394.192 73.0358 394.151 Q99.0639 394.151 112.303 380.993 Q113.738 379.559 114.189 379.559 Q115.009 379.559 115.009 380.419 Q115.009 380.993 113.328 383.002 Q111.648 385.01 107.795 388.125 Q103.942 391.241 99.2279 393.495 Q87.7919 399.029 73.0358 399.029 Z" fill="#000000" fill-rule="evenodd" fill-opacity="1" /><path clip-path="url(#clip210)" d="M47.9503 371.838 Q40.7362 371.838 35.8995 368.149 Q31.0627 364.46 31.0627 359.501 Q31.0627 356.467 33.768 353.475 Q40.2443 346.671 40.2033 337.776 Q40.2033 327.693 32.2514 321.831 Q31.0627 320.807 31.0627 320.069 Q31.0627 319.413 31.5956 318.921 Q32.0875 318.388 32.7433 318.388 Q33.2352 318.388 34.2599 319.044 L97.4654 361.509 Q98.736 362.452 98.736 363.19 Q98.736 363.845 98.2032 364.378 Q97.7113 364.87 97.0555 364.87 Q96.4816 364.87 95.3749 364.132 L39.2196 326.422 L39.1376 326.504 Q42.0889 330.849 42.0479 337.694 Q42.0479 344.171 38.5228 350.36 Q42.8676 348.597 48.0323 348.597 Q55.0825 348.597 60.0012 351.754 Q64.8789 354.91 64.8789 359.501 Q64.8789 364.46 60.1241 368.149 Q55.3284 371.838 47.9503 371.838 M41.1051 366.059 Q44.0563 366.633 48.0323 366.633 Q51.9673 366.633 54.9185 366.059 Q57.8287 365.485 59.3453 364.665 Q60.8619 363.804 61.7637 362.657 Q62.6245 361.509 62.8294 360.812 Q63.0344 360.115 63.0344 359.419 Q63.0344 355.976 58.7715 353.352 Q54.4676 350.688 47.9503 350.688 Q41.556 350.688 37.2521 353.352 Q32.9073 355.976 32.9073 359.419 Q32.9073 360.156 33.1122 360.894 Q33.3171 361.591 34.2189 362.698 Q35.0797 363.804 36.5963 364.665 Q38.1129 365.485 41.1051 366.059 M81.7665 334.661 Q74.5524 334.661 69.7156 330.972 Q64.8789 327.283 64.8789 322.323 Q64.8789 317.774 69.7976 314.617 Q74.7163 311.42 81.8485 311.42 Q88.8986 311.42 93.8173 314.576 Q98.736 317.692 98.736 322.323 Q98.736 327.283 93.9403 330.972 Q89.1445 334.661 81.7665 334.661 M74.9213 328.882 Q77.9135 329.455 81.8485 329.455 Q85.7834 329.455 88.7347 328.882 Q91.6859 328.267 93.2025 327.447 Q94.6781 326.586 95.5389 325.48 Q96.4406 324.332 96.6456 323.635 Q96.8915 322.897 96.8915 322.241 Q96.8915 318.798 92.6286 316.175 Q88.3248 313.511 81.7665 313.511 Q75.3721 313.511 71.0683 316.175 Q66.7234 318.798 66.7234 322.241 Q66.7234 322.979 66.9693 323.717 Q67.1743 324.414 68.0761 325.521 Q68.9368 326.586 70.4534 327.447 Q71.929 328.267 74.9213 328.882 Z" fill="#000000" fill-rule="evenodd" fill-opacity="1" /><path clip-path="url(#clip210)" d="M114.189 300.613 Q113.779 300.613 112.754 299.547 Q98.982 286.021 73.0358 286.021 Q47.0076 286.021 33.85 299.014 Q32.3334 300.613 31.8825 300.613 Q31.0627 300.613 31.0627 299.793 Q31.0627 299.219 32.7433 297.211 Q34.4239 295.161 38.2768 292.087 Q42.1298 288.972 46.8436 286.676 Q58.2796 281.143 73.0358 281.143 Q87.218 281.143 98.6541 286.43 Q103.45 288.685 107.467 291.841 Q111.484 294.997 113.246 297.088 Q115.009 299.178 115.009 299.793 Q115.009 300.613 114.189 300.613 Z" fill="#000000" fill-rule="evenodd" fill-opacity="1" /><polyline clip-path="url(#clip213)" style="stroke:#009af9; stroke-linecap:butt; stroke-linejoin:round; stroke-width:8; stroke-opacity:1; fill:none" points="
  413.998,249.323 571.165,279.867 728.333,254.368 885.5,269.564 1042.67,305.175 1199.83,309.197 1357,393.43 1514.17,407.124 1671.34,402.459 1828.5,385.367 
  1985.67,410.167 2142.84,409.989 2300.01,448.869 2457.17,496.915 2614.34,451.068 2771.51,452.543 2928.68,470.926 3085.84,473.903 3243.01,499.282 3400.18,489.315 
  
  "/>
<circle clip-path="url(#clip213)" cx="413.998" cy="249.323" r="18" fill="#009af9" fill-rule="evenodd" fill-opacity="1" stroke="#000000" stroke-opacity="1" stroke-width="3.6"/>
<circle clip-path="url(#clip213)" cx="571.165" cy="279.867" r="18" fill="#009af9" fill-rule="evenodd" fill-opacity="1" stroke="#000000" stroke-opacity="1" stroke-width="3.6"/>
<circle clip-path="url(#clip213)" cx="728.333" cy="254.368" r="18" fill="#009af9" fill-rule="evenodd" fill-opacity="1" stroke="#000000" stroke-opacity="1" stroke-width="3.6"/>
<circle clip-path="url(#clip213)" cx="885.5" cy="269.564" r="18" fill="#009af9" fill-rule="evenodd" fill-opacity="1" stroke="#000000" stroke-opacity="1" stroke-width="3.6"/>
<circle clip-path="url(#clip213)" cx="1042.67" cy="305.175" r="18" fill="#009af9" fill-rule="evenodd" fill-opacity="1" stroke="#000000" stroke-opacity="1" stroke-width="3.6"/>
<circle clip-path="url(#clip213)" cx="1199.83" cy="309.197" r="18" fill="#009af9" fill-rule="evenodd" fill-opacity="1" stroke="#000000" stroke-opacity="1" stroke-width="3.6"/>
<circle clip-path="url(#clip213)" cx="1357" cy="393.43" r="18" fill="#009af9" fill-rule="evenodd" fill-opacity="1" stroke="#000000" stroke-opacity="1" stroke-width="3.6"/>
<circle clip-path="url(#clip213)" cx="1514.17" cy="407.124" r="18" fill="#009af9" fill-rule="evenodd" fill-opacity="1" stroke="#000000" stroke-opacity="1" stroke-width="3.6"/>
<circle clip-path="url(#clip213)" cx="1671.34" cy="402.459" r="18" fill="#009af9" fill-rule="evenodd" fill-opacity="1" stroke="#000000" stroke-opacity="1" stroke-width="3.6"/>
<circle clip-path="url(#clip213)" cx="1828.5" cy="385.367" r="18" fill="#009af9" fill-rule="evenodd" fill-opacity="1" stroke="#000000" stroke-opacity="1" stroke-width="3.6"/>
<circle clip-path="url(#clip213)" cx="1985.67" cy="410.167" r="18" fill="#009af9" fill-rule="evenodd" fill-opacity="1" stroke="#000000" stroke-opacity="1" stroke-width="3.6"/>
<circle clip-path="url(#clip213)" cx="2142.84" cy="409.989" r="18" fill="#009af9" fill-rule="evenodd" fill-opacity="1" stroke="#000000" stroke-opacity="1" stroke-width="3.6"/>
<circle clip-path="url(#clip213)" cx="2300.01" cy="448.869" r="18" fill="#009af9" fill-rule="evenodd" fill-opacity="1" stroke="#000000" stroke-opacity="1" stroke-width="3.6"/>
<circle clip-path="url(#clip213)" cx="2457.17" cy="496.915" r="18" fill="#009af9" fill-rule="evenodd" fill-opacity="1" stroke="#000000" stroke-opacity="1" stroke-width="3.6"/>
<circle clip-path="url(#clip213)" cx="2614.34" cy="451.068" r="18" fill="#009af9" fill-rule="evenodd" fill-opacity="1" stroke="#000000" stroke-opacity="1" stroke-width="3.6"/>
<circle clip-path="url(#clip213)" cx="2771.51" cy="452.543" r="18" fill="#009af9" fill-rule="evenodd" fill-opacity="1" stroke="#000000" stroke-opacity="1" stroke-width="3.6"/>
<circle clip-path="url(#clip213)" cx="2928.68" cy="470.926" r="18" fill="#009af9" fill-rule="evenodd" fill-opacity="1" stroke="#000000" stroke-opacity="1" stroke-width="3.6"/>
<circle clip-path="url(#clip213)" cx="3085.84" cy="473.903" r="18" fill="#009af9" fill-rule="evenodd" fill-opacity="1" stroke="#000000" stroke-opacity="1" stroke-width="3.6"/>
<circle clip-path="url(#clip213)" cx="3243.01" cy="499.282" r="18" fill="#009af9" fill-rule="evenodd" fill-opacity="1" stroke="#000000" stroke-opacity="1" stroke-width="3.6"/>
<circle clip-path="url(#clip213)" cx="3400.18" cy="489.315" r="18" fill="#009af9" fill-rule="evenodd" fill-opacity="1" stroke="#000000" stroke-opacity="1" stroke-width="3.6"/>
<polyline clip-path="url(#clip213)" style="stroke:#e26f46; stroke-linecap:butt; stroke-linejoin:round; stroke-width:8; stroke-opacity:1; fill:none" points="
  413.998,452.139 571.165,431.498 728.333,460.279 885.5,467.923 1042.67,536.818 1199.83,577.504 1357,577.485 1514.17,589.395 1671.34,589.92 1828.5,638.528 
  1985.67,623.951 2142.84,595.63 2300.01,618.011 2457.17,654.919 2614.34,664.424 2771.51,677.169 2928.68,656.583 3085.84,653.725 3243.01,664.608 3400.18,676.329 
  
  "/>
<circle clip-path="url(#clip213)" cx="413.998" cy="452.139" r="18" fill="#e26f46" fill-rule="evenodd" fill-opacity="1" stroke="#000000" stroke-opacity="1" stroke-width="3.6"/>
<circle clip-path="url(#clip213)" cx="571.165" cy="431.498" r="18" fill="#e26f46" fill-rule="evenodd" fill-opacity="1" stroke="#000000" stroke-opacity="1" stroke-width="3.6"/>
<circle clip-path="url(#clip213)" cx="728.333" cy="460.279" r="18" fill="#e26f46" fill-rule="evenodd" fill-opacity="1" stroke="#000000" stroke-opacity="1" stroke-width="3.6"/>
<circle clip-path="url(#clip213)" cx="885.5" cy="467.923" r="18" fill="#e26f46" fill-rule="evenodd" fill-opacity="1" stroke="#000000" stroke-opacity="1" stroke-width="3.6"/>
<circle clip-path="url(#clip213)" cx="1042.67" cy="536.818" r="18" fill="#e26f46" fill-rule="evenodd" fill-opacity="1" stroke="#000000" stroke-opacity="1" stroke-width="3.6"/>
<circle clip-path="url(#clip213)" cx="1199.83" cy="577.504" r="18" fill="#e26f46" fill-rule="evenodd" fill-opacity="1" stroke="#000000" stroke-opacity="1" stroke-width="3.6"/>
<circle clip-path="url(#clip213)" cx="1357" cy="577.485" r="18" fill="#e26f46" fill-rule="evenodd" fill-opacity="1" stroke="#000000" stroke-opacity="1" stroke-width="3.6"/>
<circle clip-path="url(#clip213)" cx="1514.17" cy="589.395" r="18" fill="#e26f46" fill-rule="evenodd" fill-opacity="1" stroke="#000000" stroke-opacity="1" stroke-width="3.6"/>
<circle clip-path="url(#clip213)" cx="1671.34" cy="589.92" r="18" fill="#e26f46" fill-rule="evenodd" fill-opacity="1" stroke="#000000" stroke-opacity="1" stroke-width="3.6"/>
<circle clip-path="url(#clip213)" cx="1828.5" cy="638.528" r="18" fill="#e26f46" fill-rule="evenodd" fill-opacity="1" stroke="#000000" stroke-opacity="1" stroke-width="3.6"/>
<circle clip-path="url(#clip213)" cx="1985.67" cy="623.951" r="18" fill="#e26f46" fill-rule="evenodd" fill-opacity="1" stroke="#000000" stroke-opacity="1" stroke-width="3.6"/>
<circle clip-path="url(#clip213)" cx="2142.84" cy="595.63" r="18" fill="#e26f46" fill-rule="evenodd" fill-opacity="1" stroke="#000000" stroke-opacity="1" stroke-width="3.6"/>
<circle clip-path="url(#clip213)" cx="2300.01" cy="618.011" r="18" fill="#e26f46" fill-rule="evenodd" fill-opacity="1" stroke="#000000" stroke-opacity="1" stroke-width="3.6"/>
<circle clip-path="url(#clip213)" cx="2457.17" cy="654.919" r="18" fill="#e26f46" fill-rule="evenodd" fill-opacity="1" stroke="#000000" stroke-opacity="1" stroke-width="3.6"/>
<circle clip-path="url(#clip213)" cx="2614.34" cy="664.424" r="18" fill="#e26f46" fill-rule="evenodd" fill-opacity="1" stroke="#000000" stroke-opacity="1" stroke-width="3.6"/>
<circle clip-path="url(#clip213)" cx="2771.51" cy="677.169" r="18" fill="#e26f46" fill-rule="evenodd" fill-opacity="1" stroke="#000000" stroke-opacity="1" stroke-width="3.6"/>
<circle clip-path="url(#clip213)" cx="2928.68" cy="656.583" r="18" fill="#e26f46" fill-rule="evenodd" fill-opacity="1" stroke="#000000" stroke-opacity="1" stroke-width="3.6"/>
<circle clip-path="url(#clip213)" cx="3085.84" cy="653.725" r="18" fill="#e26f46" fill-rule="evenodd" fill-opacity="1" stroke="#000000" stroke-opacity="1" stroke-width="3.6"/>
<circle clip-path="url(#clip213)" cx="3243.01" cy="664.608" r="18" fill="#e26f46" fill-rule="evenodd" fill-opacity="1" stroke="#000000" stroke-opacity="1" stroke-width="3.6"/>
<circle clip-path="url(#clip213)" cx="3400.18" cy="676.329" r="18" fill="#e26f46" fill-rule="evenodd" fill-opacity="1" stroke="#000000" stroke-opacity="1" stroke-width="3.6"/>
<polyline clip-path="url(#clip213)" style="stroke:#3da44d; stroke-linecap:butt; stroke-linejoin:round; stroke-width:8; stroke-opacity:1; fill:none" points="
  413.998,594.696 571.165,612.239 728.333,650.287 885.5,728.517 1042.67,717.731 1199.83,742.959 1357,797.745 1514.17,788.832 1671.34,779.122 1828.5,793.561 
  1985.67,805.288 2142.84,815.447 2300.01,825.562 2457.17,808.497 2614.34,832.355 2771.51,828.544 2928.68,858.097 3085.84,857.716 3243.01,885.428 3400.18,913.748 
  
  "/>
<circle clip-path="url(#clip213)" cx="413.998" cy="594.696" r="18" fill="#3da44d" fill-rule="evenodd" fill-opacity="1" stroke="#000000" stroke-opacity="1" stroke-width="3.6"/>
<circle clip-path="url(#clip213)" cx="571.165" cy="612.239" r="18" fill="#3da44d" fill-rule="evenodd" fill-opacity="1" stroke="#000000" stroke-opacity="1" stroke-width="3.6"/>
<circle clip-path="url(#clip213)" cx="728.333" cy="650.287" r="18" fill="#3da44d" fill-rule="evenodd" fill-opacity="1" stroke="#000000" stroke-opacity="1" stroke-width="3.6"/>
<circle clip-path="url(#clip213)" cx="885.5" cy="728.517" r="18" fill="#3da44d" fill-rule="evenodd" fill-opacity="1" stroke="#000000" stroke-opacity="1" stroke-width="3.6"/>
<circle clip-path="url(#clip213)" cx="1042.67" cy="717.731" r="18" fill="#3da44d" fill-rule="evenodd" fill-opacity="1" stroke="#000000" stroke-opacity="1" stroke-width="3.6"/>
<circle clip-path="url(#clip213)" cx="1199.83" cy="742.959" r="18" fill="#3da44d" fill-rule="evenodd" fill-opacity="1" stroke="#000000" stroke-opacity="1" stroke-width="3.6"/>
<circle clip-path="url(#clip213)" cx="1357" cy="797.745" r="18" fill="#3da44d" fill-rule="evenodd" fill-opacity="1" stroke="#000000" stroke-opacity="1" stroke-width="3.6"/>
<circle clip-path="url(#clip213)" cx="1514.17" cy="788.832" r="18" fill="#3da44d" fill-rule="evenodd" fill-opacity="1" stroke="#000000" stroke-opacity="1" stroke-width="3.6"/>
<circle clip-path="url(#clip213)" cx="1671.34" cy="779.122" r="18" fill="#3da44d" fill-rule="evenodd" fill-opacity="1" stroke="#000000" stroke-opacity="1" stroke-width="3.6"/>
<circle clip-path="url(#clip213)" cx="1828.5" cy="793.561" r="18" fill="#3da44d" fill-rule="evenodd" fill-opacity="1" stroke="#000000" stroke-opacity="1" stroke-width="3.6"/>
<circle clip-path="url(#clip213)" cx="1985.67" cy="805.288" r="18" fill="#3da44d" fill-rule="evenodd" fill-opacity="1" stroke="#000000" stroke-opacity="1" stroke-width="3.6"/>
<circle clip-path="url(#clip213)" cx="2142.84" cy="815.447" r="18" fill="#3da44d" fill-rule="evenodd" fill-opacity="1" stroke="#000000" stroke-opacity="1" stroke-width="3.6"/>
<circle clip-path="url(#clip213)" cx="2300.01" cy="825.562" r="18" fill="#3da44d" fill-rule="evenodd" fill-opacity="1" stroke="#000000" stroke-opacity="1" stroke-width="3.6"/>
<circle clip-path="url(#clip213)" cx="2457.17" cy="808.497" r="18" fill="#3da44d" fill-rule="evenodd" fill-opacity="1" stroke="#000000" stroke-opacity="1" stroke-width="3.6"/>
<circle clip-path="url(#clip213)" cx="2614.34" cy="832.355" r="18" fill="#3da44d" fill-rule="evenodd" fill-opacity="1" stroke="#000000" stroke-opacity="1" stroke-width="3.6"/>
<circle clip-path="url(#clip213)" cx="2771.51" cy="828.544" r="18" fill="#3da44d" fill-rule="evenodd" fill-opacity="1" stroke="#000000" stroke-opacity="1" stroke-width="3.6"/>
<circle clip-path="url(#clip213)" cx="2928.68" cy="858.097" r="18" fill="#3da44d" fill-rule="evenodd" fill-opacity="1" stroke="#000000" stroke-opacity="1" stroke-width="3.6"/>
<circle clip-path="url(#clip213)" cx="3085.84" cy="857.716" r="18" fill="#3da44d" fill-rule="evenodd" fill-opacity="1" stroke="#000000" stroke-opacity="1" stroke-width="3.6"/>
<circle clip-path="url(#clip213)" cx="3243.01" cy="885.428" r="18" fill="#3da44d" fill-rule="evenodd" fill-opacity="1" stroke="#000000" stroke-opacity="1" stroke-width="3.6"/>
<circle clip-path="url(#clip213)" cx="3400.18" cy="913.748" r="18" fill="#3da44d" fill-rule="evenodd" fill-opacity="1" stroke="#000000" stroke-opacity="1" stroke-width="3.6"/>
<path clip-path="url(#clip210)" d="
M2733.6 393.055 L3462.51 393.055 L3462.51 133.855 L2733.6 133.855  Z
  " fill="#ffffff" fill-rule="evenodd" fill-opacity="1"/>
<polyline clip-path="url(#clip210)" style="stroke:#000000; stroke-linecap:butt; stroke-linejoin:round; stroke-width:4; stroke-opacity:1; fill:none" points="
  2733.6,393.055 3462.51,393.055 3462.51,133.855 2733.6,133.855 2733.6,393.055 
  "/>
<polyline clip-path="url(#clip210)" style="stroke:#009af9; stroke-linecap:butt; stroke-linejoin:round; stroke-width:5; stroke-opacity:1; fill:none" points="
  2768.77,198.655 2979.79,198.655 
  "/>
<circle clip-path="url(#clip210)" cx="2874.28" cy="198.655" r="28" fill="#009af9" fill-rule="evenodd" fill-opacity="1" stroke="#000000" stroke-opacity="1" stroke-width="5.76"/>
<path clip-path="url(#clip210)" d="M3065.44 181.552 Q3065.44 182.752 3064.41 182.752 Q3061.1 182.869 3059.76 183.982 Q3058.44 185.065 3057.94 187.173 L3049.57 220.579 Q3049.27 221.633 3049.1 221.751 Q3048.92 221.838 3048.6 221.838 Q3048.19 221.838 3047.96 221.633 Q3047.75 221.428 3047.46 220.696 L3032.53 185.387 Q3032.41 185.153 3032.26 184.831 Q3032.12 184.509 3032 184.304 L3024.07 215.953 Q3023.83 216.861 3023.83 217.33 Q3023.83 218.471 3024.62 219.203 Q3025.44 219.906 3027.78 219.994 Q3028.99 219.994 3028.99 220.638 Q3028.99 221.838 3027.9 221.838 Q3026.91 221.838 3024.83 221.751 Q3022.75 221.663 3021.72 221.663 Q3020.73 221.663 3018.71 221.751 Q3016.69 221.838 3015.72 221.838 Q3014.96 221.838 3014.96 221.165 Q3014.96 220.638 3015.17 220.374 Q3015.37 220.082 3015.55 220.052 Q3015.72 219.994 3015.99 219.994 Q3017.74 219.935 3018.94 219.584 Q3020.14 219.233 3020.82 218.559 Q3021.52 217.886 3021.84 217.212 Q3022.19 216.51 3022.46 215.485 L3030.48 183.279 Q3030.48 182.752 3026.41 182.752 Q3025.71 182.752 3025.41 182.723 Q3025.15 182.694 3024.94 182.547 Q3024.74 182.401 3024.74 182.079 Q3024.74 181.259 3025.09 181.083 Q3025.44 180.878 3026.47 180.878 L3034.52 180.878 Q3035.54 180.878 3035.81 181.054 Q3036.07 181.2 3036.42 182.02 L3049.68 213.318 L3056.39 186.646 Q3056.57 186.119 3056.57 185.387 Q3056.57 184.216 3055.69 183.513 Q3054.84 182.781 3052.5 182.752 Q3051.41 182.752 3051.41 182.079 Q3051.41 181.522 3051.62 181.259 Q3051.85 180.966 3052.03 180.937 Q3052.23 180.878 3052.5 180.878 Q3053.49 180.878 3055.54 180.966 Q3057.59 181.054 3058.61 181.054 Q3059.61 181.054 3061.63 180.966 Q3063.68 180.878 3064.68 180.878 Q3065.03 180.878 3065.2 181.054 Q3065.41 181.2 3065.44 181.376 L3065.44 181.552 Z" fill="#000000" fill-rule="evenodd" fill-opacity="1" /><path clip-path="url(#clip210)" d="M3105.74 226.858 Q3105.74 227.022 3105.56 227.658 Q3105.37 228.293 3104.92 229.277 Q3104.49 230.261 3103.88 231.162 Q3103.28 232.044 3102.3 232.699 Q3101.34 233.335 3100.23 233.335 Q3098.75 233.335 3097.77 232.351 Q3096.79 231.367 3096.79 229.892 Q3096.79 229.092 3097.34 227.576 Q3099.94 220.649 3099.94 218.169 Q3099.94 215.238 3097.67 215.238 Q3096.38 215.238 3095.21 215.771 Q3094.04 216.304 3093.28 217.041 Q3092.52 217.779 3091.93 218.62 Q3091.34 219.46 3091.07 220.013 Q3090.82 220.567 3090.76 220.812 L3088.24 230.937 Q3088.04 231.798 3087.89 232.208 Q3087.75 232.617 3087.36 232.966 Q3086.97 233.335 3086.36 233.335 Q3085.84 233.335 3085.47 233.027 Q3085.13 232.72 3085.13 232.187 Q3085.13 232.105 3085.23 231.675 Q3085.33 231.244 3085.47 230.65 Q3085.62 230.056 3085.68 229.707 Q3086.42 226.92 3086.52 226.53 L3087.69 221.653 Q3088.32 219.234 3088.32 218.169 Q3088.32 215.238 3086.05 215.238 Q3084.92 215.238 3083.86 215.668 Q3082.81 216.078 3082.09 216.652 Q3081.38 217.226 3080.72 218.025 Q3080.08 218.804 3079.76 219.337 Q3079.45 219.849 3079.2 220.362 L3078.67 222.452 Q3078.55 223.026 3077.95 225.26 L3077.03 229.051 Q3076.37 231.88 3076.23 232.146 Q3076.03 232.72 3075.58 233.027 Q3075.12 233.335 3074.67 233.335 Q3074.16 233.335 3073.81 233.027 Q3073.46 232.72 3073.46 232.187 Q3073.46 232.105 3073.53 231.798 Q3073.59 231.49 3073.69 231.06 Q3073.79 230.629 3073.83 230.383 L3076.27 220.69 Q3076.72 218.927 3076.83 218.374 Q3076.95 217.8 3076.95 217.164 Q3076.95 215.238 3075.64 215.238 Q3074.57 215.238 3073.87 216.509 Q3073.18 217.779 3072.58 220.239 Q3072.4 220.915 3072.28 221.058 Q3072.17 221.202 3071.87 221.202 Q3071.35 221.181 3071.35 220.772 Q3071.35 220.669 3071.52 220.013 Q3071.68 219.357 3071.99 218.374 Q3072.32 217.369 3072.66 216.714 Q3072.87 216.283 3073.05 215.996 Q3073.24 215.709 3073.61 215.258 Q3073.98 214.808 3074.53 214.562 Q3075.08 214.316 3075.76 214.316 Q3077.26 214.316 3078.36 215.279 Q3079.49 216.242 3079.63 217.964 Q3082.36 214.316 3086.17 214.316 Q3088.32 214.316 3089.61 215.402 Q3090.82 216.447 3090.97 218.374 Q3093.79 214.316 3097.81 214.316 Q3100.13 214.316 3101.38 215.525 Q3102.63 216.714 3102.63 218.804 Q3102.63 219.89 3102.07 221.96 Q3101.52 224.01 3101.15 225.034 Q3100.78 226.059 3100.07 228.027 Q3099.31 229.912 3099.31 231.019 Q3099.31 231.736 3099.55 232.064 Q3099.8 232.392 3100.33 232.392 Q3101.15 232.392 3101.87 231.921 Q3102.59 231.429 3103.1 230.629 Q3103.63 229.81 3103.98 228.99 Q3104.33 228.15 3104.6 227.207 Q3104.76 226.694 3104.84 226.571 Q3104.94 226.449 3105.23 226.449 Q3105.74 226.449 3105.74 226.858 Z" fill="#000000" fill-rule="evenodd" fill-opacity="1" /><path clip-path="url(#clip210)" d="M3124.69 228.006 Q3124.86 228.191 3124.86 228.375 Q3124.86 228.559 3124.45 229.092 Q3124.06 229.625 3123.22 230.342 Q3122.38 231.06 3121.29 231.736 Q3120.21 232.412 3118.61 232.863 Q3117.01 233.335 3115.33 233.335 Q3112.19 233.335 3110.35 231.265 Q3108.52 229.195 3108.52 226.223 Q3108.52 223.333 3110.14 220.567 Q3111.76 217.779 3114.39 216.058 Q3117.01 214.316 3119.78 214.316 Q3121.97 214.316 3123.34 215.34 Q3124.71 216.365 3124.71 217.923 Q3124.71 219.132 3124.02 219.87 Q3123.32 220.608 3122.38 220.608 Q3121.72 220.608 3121.27 220.239 Q3120.82 219.849 3120.82 219.132 Q3120.82 218.21 3121.58 217.492 Q3121.87 217.205 3122.19 217.082 Q3122.54 216.939 3122.75 216.939 Q3122.95 216.919 3123.42 216.919 Q3122.99 216.119 3121.97 215.689 Q3120.96 215.238 3119.82 215.238 Q3118.12 215.238 3116.5 216.427 Q3114.88 217.595 3113.89 219.439 Q3112.91 221.243 3112.27 223.805 Q3111.64 226.346 3111.64 227.822 Q3111.64 229.851 3112.58 231.121 Q3113.52 232.392 3115.41 232.392 Q3115.78 232.392 3116.17 232.371 Q3116.58 232.351 3117.6 232.126 Q3118.65 231.9 3119.57 231.511 Q3120.49 231.121 3121.66 230.281 Q3122.85 229.42 3123.79 228.252 Q3124.12 227.822 3124.35 227.822 Q3124.53 227.822 3124.69 228.006 Z" fill="#000000" fill-rule="evenodd" fill-opacity="1" /><path clip-path="url(#clip210)" d="M3149.55 212.733 Q3149.61 212.001 3150.75 212.001 L3187.49 212.001 Q3189.22 212.001 3189.25 212.674 Q3189.25 213.406 3187.61 213.377 L3151.16 213.377 Q3149.55 213.406 3149.55 212.733 M3149.55 201.022 Q3149.55 200.29 3150.81 200.319 L3187.44 200.319 Q3189.22 200.319 3189.25 201.022 Q3189.25 201.695 3187.73 201.695 L3150.75 201.695 Q3149.55 201.695 3149.55 201.022 Z" fill="#000000" fill-rule="evenodd" fill-opacity="1" /><path clip-path="url(#clip210)" d="M3212.39 187.612 L3212.39 185.738 Q3219.59 185.738 3223.31 181.903 Q3224.33 181.903 3224.51 182.137 Q3224.68 182.372 3224.68 183.455 L3224.68 217.095 Q3224.68 218.881 3225.56 219.438 Q3226.44 219.994 3230.28 219.994 L3232.18 219.994 L3232.18 221.838 Q3230.07 221.663 3222.46 221.663 Q3214.85 221.663 3212.77 221.838 L3212.77 219.994 L3214.67 219.994 Q3218.45 219.994 3219.36 219.467 Q3220.26 218.911 3220.26 217.095 L3220.26 186.031 Q3217.13 187.612 3212.39 187.612 Z" fill="#000000" fill-rule="evenodd" fill-opacity="1" /><path clip-path="url(#clip210)" d="M3250.01 202.661 Q3250.01 193.849 3252.23 189.047 Q3255.34 181.903 3262.65 181.903 Q3264.21 181.903 3265.82 182.342 Q3267.46 182.752 3269.51 184.362 Q3271.58 185.973 3272.84 188.608 Q3275.24 193.702 3275.24 202.661 Q3275.24 211.415 3273.02 216.188 Q3269.77 223.156 3262.6 223.156 Q3259.9 223.156 3257.15 221.78 Q3254.43 220.404 3252.7 217.095 Q3250.01 212.147 3250.01 202.661 M3254.98 201.929 Q3254.98 210.976 3255.63 214.577 Q3256.36 218.471 3258.35 220.169 Q3260.37 221.838 3262.6 221.838 Q3265 221.838 3266.99 220.052 Q3269.01 218.237 3269.62 214.343 Q3270.3 210.508 3270.27 201.929 Q3270.27 193.585 3269.68 190.247 Q3268.89 186.353 3266.78 184.802 Q3264.7 183.221 3262.6 183.221 Q3261.81 183.221 3260.96 183.455 Q3260.14 183.689 3258.94 184.362 Q3257.74 185.036 3256.8 186.705 Q3255.89 188.374 3255.45 190.891 Q3254.98 194.141 3254.98 201.929 Z" fill="#000000" fill-rule="evenodd" fill-opacity="1" /><path clip-path="url(#clip210)" d="M3279.94 202.661 Q3279.94 193.849 3282.17 189.047 Q3285.27 181.903 3292.59 181.903 Q3294.14 181.903 3295.75 182.342 Q3297.39 182.752 3299.44 184.362 Q3301.52 185.973 3302.78 188.608 Q3305.18 193.702 3305.18 202.661 Q3305.18 211.415 3302.95 216.188 Q3299.7 223.156 3292.53 223.156 Q3289.84 223.156 3287.09 221.78 Q3284.36 220.404 3282.64 217.095 Q3279.94 212.147 3279.94 202.661 M3284.92 201.929 Q3284.92 210.976 3285.56 214.577 Q3286.3 218.471 3288.29 220.169 Q3290.31 221.838 3292.53 221.838 Q3294.93 221.838 3296.92 220.052 Q3298.94 218.237 3299.56 214.343 Q3300.23 210.508 3300.2 201.929 Q3300.2 193.585 3299.62 190.247 Q3298.83 186.353 3296.72 184.802 Q3294.64 183.221 3292.53 183.221 Q3291.74 183.221 3290.89 183.455 Q3290.07 183.689 3288.87 184.362 Q3287.67 185.036 3286.73 186.705 Q3285.83 188.374 3285.39 190.891 Q3284.92 194.141 3284.92 201.929 Z" fill="#000000" fill-rule="evenodd" fill-opacity="1" /><path clip-path="url(#clip210)" d="M3309.88 202.661 Q3309.88 193.849 3312.1 189.047 Q3315.21 181.903 3322.53 181.903 Q3324.08 181.903 3325.69 182.342 Q3327.33 182.752 3329.38 184.362 Q3331.46 185.973 3332.71 188.608 Q3335.11 193.702 3335.11 202.661 Q3335.11 211.415 3332.89 216.188 Q3329.64 223.156 3322.47 223.156 Q3319.77 223.156 3317.02 221.78 Q3314.3 220.404 3312.57 217.095 Q3309.88 212.147 3309.88 202.661 M3314.85 201.929 Q3314.85 210.976 3315.5 214.577 Q3316.23 218.471 3318.22 220.169 Q3320.24 221.838 3322.47 221.838 Q3324.87 221.838 3326.86 220.052 Q3328.88 218.237 3329.49 214.343 Q3330.17 210.508 3330.14 201.929 Q3330.14 193.585 3329.55 190.247 Q3328.76 186.353 3326.65 184.802 Q3324.57 183.221 3322.47 183.221 Q3321.68 183.221 3320.83 183.455 Q3320.01 183.689 3318.81 184.362 Q3317.61 185.036 3316.67 186.705 Q3315.76 188.374 3315.32 190.891 Q3314.85 194.141 3314.85 201.929 Z" fill="#000000" fill-rule="evenodd" fill-opacity="1" /><polyline clip-path="url(#clip210)" style="stroke:#e26f46; stroke-linecap:butt; stroke-linejoin:round; stroke-width:5; stroke-opacity:1; fill:none" points="
  2768.77,263.455 2979.79,263.455 
  "/>
<circle clip-path="url(#clip210)" cx="2874.28" cy="263.455" r="28" fill="#e26f46" fill-rule="evenodd" fill-opacity="1" stroke="#000000" stroke-opacity="1" stroke-width="5.76"/>
<path clip-path="url(#clip210)" d="M3065.44 246.352 Q3065.44 247.552 3064.41 247.552 Q3061.1 247.669 3059.76 248.782 Q3058.44 249.865 3057.94 251.973 L3049.57 285.379 Q3049.27 286.433 3049.1 286.551 Q3048.92 286.638 3048.6 286.638 Q3048.19 286.638 3047.96 286.433 Q3047.75 286.228 3047.46 285.496 L3032.53 250.187 Q3032.41 249.953 3032.26 249.631 Q3032.12 249.309 3032 249.104 L3024.07 280.753 Q3023.83 281.661 3023.83 282.13 Q3023.83 283.271 3024.62 284.003 Q3025.44 284.706 3027.78 284.794 Q3028.99 284.794 3028.99 285.438 Q3028.99 286.638 3027.9 286.638 Q3026.91 286.638 3024.83 286.551 Q3022.75 286.463 3021.72 286.463 Q3020.73 286.463 3018.71 286.551 Q3016.69 286.638 3015.72 286.638 Q3014.96 286.638 3014.96 285.965 Q3014.96 285.438 3015.17 285.174 Q3015.37 284.882 3015.55 284.852 Q3015.72 284.794 3015.99 284.794 Q3017.74 284.735 3018.94 284.384 Q3020.14 284.033 3020.82 283.359 Q3021.52 282.686 3021.84 282.012 Q3022.19 281.31 3022.46 280.285 L3030.48 248.079 Q3030.48 247.552 3026.41 247.552 Q3025.71 247.552 3025.41 247.523 Q3025.15 247.494 3024.94 247.347 Q3024.74 247.201 3024.74 246.879 Q3024.74 246.059 3025.09 245.883 Q3025.44 245.678 3026.47 245.678 L3034.52 245.678 Q3035.54 245.678 3035.81 245.854 Q3036.07 246 3036.42 246.82 L3049.68 278.118 L3056.39 251.446 Q3056.57 250.919 3056.57 250.187 Q3056.57 249.016 3055.69 248.313 Q3054.84 247.581 3052.5 247.552 Q3051.41 247.552 3051.41 246.879 Q3051.41 246.322 3051.62 246.059 Q3051.85 245.766 3052.03 245.737 Q3052.23 245.678 3052.5 245.678 Q3053.49 245.678 3055.54 245.766 Q3057.59 245.854 3058.61 245.854 Q3059.61 245.854 3061.63 245.766 Q3063.68 245.678 3064.68 245.678 Q3065.03 245.678 3065.2 245.854 Q3065.41 246 3065.44 246.176 L3065.44 246.352 Z" fill="#000000" fill-rule="evenodd" fill-opacity="1" /><path clip-path="url(#clip210)" d="M3105.74 291.658 Q3105.74 291.822 3105.56 292.458 Q3105.37 293.093 3104.92 294.077 Q3104.49 295.061 3103.88 295.962 Q3103.28 296.844 3102.3 297.499 Q3101.34 298.135 3100.23 298.135 Q3098.75 298.135 3097.77 297.151 Q3096.79 296.167 3096.79 294.692 Q3096.79 293.892 3097.34 292.376 Q3099.94 285.449 3099.94 282.969 Q3099.94 280.038 3097.67 280.038 Q3096.38 280.038 3095.21 280.571 Q3094.04 281.104 3093.28 281.841 Q3092.52 282.579 3091.93 283.42 Q3091.34 284.26 3091.07 284.813 Q3090.82 285.367 3090.76 285.612 L3088.24 295.737 Q3088.04 296.598 3087.89 297.008 Q3087.75 297.417 3087.36 297.766 Q3086.97 298.135 3086.36 298.135 Q3085.84 298.135 3085.47 297.827 Q3085.13 297.52 3085.13 296.987 Q3085.13 296.905 3085.23 296.475 Q3085.33 296.044 3085.47 295.45 Q3085.62 294.856 3085.68 294.507 Q3086.42 291.72 3086.52 291.33 L3087.69 286.453 Q3088.32 284.034 3088.32 282.969 Q3088.32 280.038 3086.05 280.038 Q3084.92 280.038 3083.86 280.468 Q3082.81 280.878 3082.09 281.452 Q3081.38 282.026 3080.72 282.825 Q3080.08 283.604 3079.76 284.137 Q3079.45 284.649 3079.2 285.162 L3078.67 287.252 Q3078.55 287.826 3077.95 290.06 L3077.03 293.851 Q3076.37 296.68 3076.23 296.946 Q3076.03 297.52 3075.58 297.827 Q3075.12 298.135 3074.67 298.135 Q3074.16 298.135 3073.81 297.827 Q3073.46 297.52 3073.46 296.987 Q3073.46 296.905 3073.53 296.598 Q3073.59 296.29 3073.69 295.86 Q3073.79 295.429 3073.83 295.183 L3076.27 285.49 Q3076.72 283.727 3076.83 283.174 Q3076.95 282.6 3076.95 281.964 Q3076.95 280.038 3075.64 280.038 Q3074.57 280.038 3073.87 281.309 Q3073.18 282.579 3072.58 285.039 Q3072.4 285.715 3072.28 285.858 Q3072.17 286.002 3071.87 286.002 Q3071.35 285.981 3071.35 285.572 Q3071.35 285.469 3071.52 284.813 Q3071.68 284.157 3071.99 283.174 Q3072.32 282.169 3072.66 281.514 Q3072.87 281.083 3073.05 280.796 Q3073.24 280.509 3073.61 280.058 Q3073.98 279.608 3074.53 279.362 Q3075.08 279.116 3075.76 279.116 Q3077.26 279.116 3078.36 280.079 Q3079.49 281.042 3079.63 282.764 Q3082.36 279.116 3086.17 279.116 Q3088.32 279.116 3089.61 280.202 Q3090.82 281.247 3090.97 283.174 Q3093.79 279.116 3097.81 279.116 Q3100.13 279.116 3101.38 280.325 Q3102.63 281.514 3102.63 283.604 Q3102.63 284.69 3102.07 286.76 Q3101.52 288.81 3101.15 289.834 Q3100.78 290.859 3100.07 292.827 Q3099.31 294.712 3099.31 295.819 Q3099.31 296.536 3099.55 296.864 Q3099.8 297.192 3100.33 297.192 Q3101.15 297.192 3101.87 296.721 Q3102.59 296.229 3103.1 295.429 Q3103.63 294.61 3103.98 293.79 Q3104.33 292.95 3104.6 292.007 Q3104.76 291.494 3104.84 291.371 Q3104.94 291.249 3105.23 291.249 Q3105.74 291.249 3105.74 291.658 Z" fill="#000000" fill-rule="evenodd" fill-opacity="1" /><path clip-path="url(#clip210)" d="M3124.69 292.806 Q3124.86 292.991 3124.86 293.175 Q3124.86 293.359 3124.45 293.892 Q3124.06 294.425 3123.22 295.142 Q3122.38 295.86 3121.29 296.536 Q3120.21 297.212 3118.61 297.663 Q3117.01 298.135 3115.33 298.135 Q3112.19 298.135 3110.35 296.065 Q3108.52 293.995 3108.52 291.023 Q3108.52 288.133 3110.14 285.367 Q3111.76 282.579 3114.39 280.858 Q3117.01 279.116 3119.78 279.116 Q3121.97 279.116 3123.34 280.14 Q3124.71 281.165 3124.71 282.723 Q3124.71 283.932 3124.02 284.67 Q3123.32 285.408 3122.38 285.408 Q3121.72 285.408 3121.27 285.039 Q3120.82 284.649 3120.82 283.932 Q3120.82 283.01 3121.58 282.292 Q3121.87 282.005 3122.19 281.882 Q3122.54 281.739 3122.75 281.739 Q3122.95 281.719 3123.42 281.719 Q3122.99 280.919 3121.97 280.489 Q3120.96 280.038 3119.82 280.038 Q3118.12 280.038 3116.5 281.227 Q3114.88 282.395 3113.89 284.239 Q3112.91 286.043 3112.27 288.605 Q3111.64 291.146 3111.64 292.622 Q3111.64 294.651 3112.58 295.921 Q3113.52 297.192 3115.41 297.192 Q3115.78 297.192 3116.17 297.171 Q3116.58 297.151 3117.6 296.926 Q3118.65 296.7 3119.57 296.311 Q3120.49 295.921 3121.66 295.081 Q3122.85 294.22 3123.79 293.052 Q3124.12 292.622 3124.35 292.622 Q3124.53 292.622 3124.69 292.806 Z" fill="#000000" fill-rule="evenodd" fill-opacity="1" /><path clip-path="url(#clip210)" d="M3149.55 277.533 Q3149.61 276.801 3150.75 276.801 L3187.49 276.801 Q3189.22 276.801 3189.25 277.474 Q3189.25 278.206 3187.61 278.177 L3151.16 278.177 Q3149.55 278.206 3149.55 277.533 M3149.55 265.822 Q3149.55 265.09 3150.81 265.119 L3187.44 265.119 Q3189.22 265.119 3189.25 265.822 Q3189.25 266.495 3187.73 266.495 L3150.75 266.495 Q3149.55 266.495 3149.55 265.822 Z" fill="#000000" fill-rule="evenodd" fill-opacity="1" /><path clip-path="url(#clip210)" d="M3212.39 252.412 L3212.39 250.538 Q3219.59 250.538 3223.31 246.703 Q3224.33 246.703 3224.51 246.937 Q3224.68 247.172 3224.68 248.255 L3224.68 281.895 Q3224.68 283.681 3225.56 284.238 Q3226.44 284.794 3230.28 284.794 L3232.18 284.794 L3232.18 286.638 Q3230.07 286.463 3222.46 286.463 Q3214.85 286.463 3212.77 286.638 L3212.77 284.794 L3214.67 284.794 Q3218.45 284.794 3219.36 284.267 Q3220.26 283.711 3220.26 281.895 L3220.26 250.831 Q3217.13 252.412 3212.39 252.412 Z" fill="#000000" fill-rule="evenodd" fill-opacity="1" /><path clip-path="url(#clip210)" d="M3235.05 267.461 Q3235.05 258.649 3237.27 253.847 Q3240.38 246.703 3247.7 246.703 Q3249.25 246.703 3250.86 247.142 Q3252.5 247.552 3254.55 249.162 Q3256.63 250.773 3257.88 253.408 Q3260.28 258.502 3260.28 267.461 Q3260.28 276.215 3258.06 280.988 Q3254.81 287.956 3247.64 287.956 Q3244.94 287.956 3242.19 286.58 Q3239.47 285.204 3237.74 281.895 Q3235.05 276.947 3235.05 267.461 M3240.02 266.729 Q3240.02 275.776 3240.67 279.377 Q3241.4 283.271 3243.39 284.969 Q3245.41 286.638 3247.64 286.638 Q3250.04 286.638 3252.03 284.852 Q3254.05 283.037 3254.66 279.143 Q3255.34 275.308 3255.31 266.729 Q3255.31 258.385 3254.72 255.047 Q3253.93 251.153 3251.82 249.602 Q3249.74 248.021 3247.64 248.021 Q3246.85 248.021 3246 248.255 Q3245.18 248.489 3243.98 249.162 Q3242.78 249.836 3241.84 251.505 Q3240.93 253.174 3240.49 255.691 Q3240.02 258.941 3240.02 266.729 Z" fill="#000000" fill-rule="evenodd" fill-opacity="1" /><path clip-path="url(#clip210)" d="M3272.67 267.461 Q3272.67 258.649 3274.89 253.847 Q3278 246.703 3285.32 246.703 Q3286.87 246.703 3288.48 247.142 Q3290.12 247.552 3292.17 249.162 Q3294.24 250.773 3295.5 253.408 Q3297.9 258.502 3297.9 267.461 Q3297.9 276.215 3295.68 280.988 Q3292.43 287.956 3285.26 287.956 Q3282.56 287.956 3279.81 286.58 Q3277.09 285.204 3275.36 281.895 Q3272.67 276.947 3272.67 267.461 M3277.64 266.729 Q3277.64 275.776 3278.29 279.377 Q3279.02 283.271 3281.01 284.969 Q3283.03 286.638 3285.26 286.638 Q3287.66 286.638 3289.65 284.852 Q3291.67 283.037 3292.28 279.143 Q3292.96 275.308 3292.93 266.729 Q3292.93 258.385 3292.34 255.047 Q3291.55 251.153 3289.44 249.602 Q3287.36 248.021 3285.26 248.021 Q3284.47 248.021 3283.62 248.255 Q3282.8 248.489 3281.6 249.162 Q3280.4 249.836 3279.46 251.505 Q3278.55 253.174 3278.11 255.691 Q3277.64 258.941 3277.64 266.729 Z" fill="#000000" fill-rule="evenodd" fill-opacity="1" /><path clip-path="url(#clip210)" d="M3302.6 267.461 Q3302.6 258.649 3304.83 253.847 Q3307.93 246.703 3315.25 246.703 Q3316.8 246.703 3318.41 247.142 Q3320.05 247.552 3322.1 249.162 Q3324.18 250.773 3325.44 253.408 Q3327.84 258.502 3327.84 267.461 Q3327.84 276.215 3325.61 280.988 Q3322.36 287.956 3315.19 287.956 Q3312.5 287.956 3309.75 286.58 Q3307.02 285.204 3305.3 281.895 Q3302.6 276.947 3302.6 267.461 M3307.58 266.729 Q3307.58 275.776 3308.22 279.377 Q3308.96 283.271 3310.95 284.969 Q3312.97 286.638 3315.19 286.638 Q3317.59 286.638 3319.58 284.852 Q3321.6 283.037 3322.22 279.143 Q3322.89 275.308 3322.86 266.729 Q3322.86 258.385 3322.28 255.047 Q3321.49 251.153 3319.38 249.602 Q3317.3 248.021 3315.19 248.021 Q3314.4 248.021 3313.55 248.255 Q3312.73 248.489 3311.53 249.162 Q3310.33 249.836 3309.39 251.505 Q3308.49 253.174 3308.05 255.691 Q3307.58 258.941 3307.58 266.729 Z" fill="#000000" fill-rule="evenodd" fill-opacity="1" /><path clip-path="url(#clip210)" d="M3332.54 267.461 Q3332.54 258.649 3334.76 253.847 Q3337.87 246.703 3345.19 246.703 Q3346.74 246.703 3348.35 247.142 Q3349.99 247.552 3352.04 249.162 Q3354.12 250.773 3355.37 253.408 Q3357.78 258.502 3357.78 267.461 Q3357.78 276.215 3355.55 280.988 Q3352.3 287.956 3345.13 287.956 Q3342.43 287.956 3339.68 286.58 Q3336.96 285.204 3335.23 281.895 Q3332.54 276.947 3332.54 267.461 M3337.51 266.729 Q3337.51 275.776 3338.16 279.377 Q3338.89 283.271 3340.88 284.969 Q3342.9 286.638 3345.13 286.638 Q3347.53 286.638 3349.52 284.852 Q3351.54 283.037 3352.15 279.143 Q3352.83 275.308 3352.8 266.729 Q3352.8 258.385 3352.21 255.047 Q3351.42 251.153 3349.31 249.602 Q3347.24 248.021 3345.13 248.021 Q3344.34 248.021 3343.49 248.255 Q3342.67 248.489 3341.47 249.162 Q3340.27 249.836 3339.33 251.505 Q3338.42 253.174 3337.98 255.691 Q3337.51 258.941 3337.51 266.729 Z" fill="#000000" fill-rule="evenodd" fill-opacity="1" /><polyline clip-path="url(#clip210)" style="stroke:#3da44d; stroke-linecap:butt; stroke-linejoin:round; stroke-width:5; stroke-opacity:1; fill:none" points="
  2768.77,328.255 2979.79,328.255 
  "/>
<circle clip-path="url(#clip210)" cx="2874.28" cy="328.255" r="28" fill="#3da44d" fill-rule="evenodd" fill-opacity="1" stroke="#000000" stroke-opacity="1" stroke-width="5.76"/>
<path clip-path="url(#clip210)" d="M3065.44 311.152 Q3065.44 312.352 3064.41 312.352 Q3061.1 312.469 3059.76 313.582 Q3058.44 314.665 3057.94 316.773 L3049.57 350.179 Q3049.27 351.233 3049.1 351.351 Q3048.92 351.438 3048.6 351.438 Q3048.19 351.438 3047.96 351.233 Q3047.75 351.028 3047.46 350.296 L3032.53 314.987 Q3032.41 314.753 3032.26 314.431 Q3032.12 314.109 3032 313.904 L3024.07 345.553 Q3023.83 346.461 3023.83 346.93 Q3023.83 348.071 3024.62 348.803 Q3025.44 349.506 3027.78 349.594 Q3028.99 349.594 3028.99 350.238 Q3028.99 351.438 3027.9 351.438 Q3026.91 351.438 3024.83 351.351 Q3022.75 351.263 3021.72 351.263 Q3020.73 351.263 3018.71 351.351 Q3016.69 351.438 3015.72 351.438 Q3014.96 351.438 3014.96 350.765 Q3014.96 350.238 3015.17 349.974 Q3015.37 349.682 3015.55 349.652 Q3015.72 349.594 3015.99 349.594 Q3017.74 349.535 3018.94 349.184 Q3020.14 348.833 3020.82 348.159 Q3021.52 347.486 3021.84 346.812 Q3022.19 346.11 3022.46 345.085 L3030.48 312.879 Q3030.48 312.352 3026.41 312.352 Q3025.71 312.352 3025.41 312.323 Q3025.15 312.294 3024.94 312.147 Q3024.74 312.001 3024.74 311.679 Q3024.74 310.859 3025.09 310.683 Q3025.44 310.478 3026.47 310.478 L3034.52 310.478 Q3035.54 310.478 3035.81 310.654 Q3036.07 310.8 3036.42 311.62 L3049.68 342.918 L3056.39 316.246 Q3056.57 315.719 3056.57 314.987 Q3056.57 313.816 3055.69 313.113 Q3054.84 312.381 3052.5 312.352 Q3051.41 312.352 3051.41 311.679 Q3051.41 311.122 3051.62 310.859 Q3051.85 310.566 3052.03 310.537 Q3052.23 310.478 3052.5 310.478 Q3053.49 310.478 3055.54 310.566 Q3057.59 310.654 3058.61 310.654 Q3059.61 310.654 3061.63 310.566 Q3063.68 310.478 3064.68 310.478 Q3065.03 310.478 3065.2 310.654 Q3065.41 310.8 3065.44 310.976 L3065.44 311.152 Z" fill="#000000" fill-rule="evenodd" fill-opacity="1" /><path clip-path="url(#clip210)" d="M3105.74 356.458 Q3105.74 356.622 3105.56 357.258 Q3105.37 357.893 3104.92 358.877 Q3104.49 359.861 3103.88 360.762 Q3103.28 361.644 3102.3 362.299 Q3101.34 362.935 3100.23 362.935 Q3098.75 362.935 3097.77 361.951 Q3096.79 360.967 3096.79 359.492 Q3096.79 358.692 3097.34 357.176 Q3099.94 350.249 3099.94 347.769 Q3099.94 344.838 3097.67 344.838 Q3096.38 344.838 3095.21 345.371 Q3094.04 345.904 3093.28 346.641 Q3092.52 347.379 3091.93 348.22 Q3091.34 349.06 3091.07 349.613 Q3090.82 350.167 3090.76 350.412 L3088.24 360.537 Q3088.04 361.398 3087.89 361.808 Q3087.75 362.217 3087.36 362.566 Q3086.97 362.935 3086.36 362.935 Q3085.84 362.935 3085.47 362.627 Q3085.13 362.32 3085.13 361.787 Q3085.13 361.705 3085.23 361.275 Q3085.33 360.844 3085.47 360.25 Q3085.62 359.656 3085.68 359.307 Q3086.42 356.52 3086.52 356.13 L3087.69 351.253 Q3088.32 348.834 3088.32 347.769 Q3088.32 344.838 3086.05 344.838 Q3084.92 344.838 3083.86 345.268 Q3082.81 345.678 3082.09 346.252 Q3081.38 346.826 3080.72 347.625 Q3080.08 348.404 3079.76 348.937 Q3079.45 349.449 3079.2 349.962 L3078.67 352.052 Q3078.55 352.626 3077.95 354.86 L3077.03 358.651 Q3076.37 361.48 3076.23 361.746 Q3076.03 362.32 3075.58 362.627 Q3075.12 362.935 3074.67 362.935 Q3074.16 362.935 3073.81 362.627 Q3073.46 362.32 3073.46 361.787 Q3073.46 361.705 3073.53 361.398 Q3073.59 361.09 3073.69 360.66 Q3073.79 360.229 3073.83 359.983 L3076.27 350.29 Q3076.72 348.527 3076.83 347.974 Q3076.95 347.4 3076.95 346.764 Q3076.95 344.838 3075.64 344.838 Q3074.57 344.838 3073.87 346.109 Q3073.18 347.379 3072.58 349.839 Q3072.4 350.515 3072.28 350.658 Q3072.17 350.802 3071.87 350.802 Q3071.35 350.781 3071.35 350.372 Q3071.35 350.269 3071.52 349.613 Q3071.68 348.957 3071.99 347.974 Q3072.32 346.969 3072.66 346.314 Q3072.87 345.883 3073.05 345.596 Q3073.24 345.309 3073.61 344.858 Q3073.98 344.408 3074.53 344.162 Q3075.08 343.916 3075.76 343.916 Q3077.26 343.916 3078.36 344.879 Q3079.49 345.842 3079.63 347.564 Q3082.36 343.916 3086.17 343.916 Q3088.32 343.916 3089.61 345.002 Q3090.82 346.047 3090.97 347.974 Q3093.79 343.916 3097.81 343.916 Q3100.13 343.916 3101.38 345.125 Q3102.63 346.314 3102.63 348.404 Q3102.63 349.49 3102.07 351.56 Q3101.52 353.61 3101.15 354.634 Q3100.78 355.659 3100.07 357.627 Q3099.31 359.512 3099.31 360.619 Q3099.31 361.336 3099.55 361.664 Q3099.8 361.992 3100.33 361.992 Q3101.15 361.992 3101.87 361.521 Q3102.59 361.029 3103.1 360.229 Q3103.63 359.41 3103.98 358.59 Q3104.33 357.75 3104.6 356.807 Q3104.76 356.294 3104.84 356.171 Q3104.94 356.049 3105.23 356.049 Q3105.74 356.049 3105.74 356.458 Z" fill="#000000" fill-rule="evenodd" fill-opacity="1" /><path clip-path="url(#clip210)" d="M3124.69 357.606 Q3124.86 357.791 3124.86 357.975 Q3124.86 358.159 3124.45 358.692 Q3124.06 359.225 3123.22 359.942 Q3122.38 360.66 3121.29 361.336 Q3120.21 362.012 3118.61 362.463 Q3117.01 362.935 3115.33 362.935 Q3112.19 362.935 3110.35 360.865 Q3108.52 358.795 3108.52 355.823 Q3108.52 352.933 3110.14 350.167 Q3111.76 347.379 3114.39 345.658 Q3117.01 343.916 3119.78 343.916 Q3121.97 343.916 3123.34 344.94 Q3124.71 345.965 3124.71 347.523 Q3124.71 348.732 3124.02 349.47 Q3123.32 350.208 3122.38 350.208 Q3121.72 350.208 3121.27 349.839 Q3120.82 349.449 3120.82 348.732 Q3120.82 347.81 3121.58 347.092 Q3121.87 346.805 3122.19 346.682 Q3122.54 346.539 3122.75 346.539 Q3122.95 346.519 3123.42 346.519 Q3122.99 345.719 3121.97 345.289 Q3120.96 344.838 3119.82 344.838 Q3118.12 344.838 3116.5 346.027 Q3114.88 347.195 3113.89 349.039 Q3112.91 350.843 3112.27 353.405 Q3111.64 355.946 3111.64 357.422 Q3111.64 359.451 3112.58 360.721 Q3113.52 361.992 3115.41 361.992 Q3115.78 361.992 3116.17 361.971 Q3116.58 361.951 3117.6 361.726 Q3118.65 361.5 3119.57 361.111 Q3120.49 360.721 3121.66 359.881 Q3122.85 359.02 3123.79 357.852 Q3124.12 357.422 3124.35 357.422 Q3124.53 357.422 3124.69 357.606 Z" fill="#000000" fill-rule="evenodd" fill-opacity="1" /><path clip-path="url(#clip210)" d="M3149.55 342.333 Q3149.61 341.601 3150.75 341.601 L3187.49 341.601 Q3189.22 341.601 3189.25 342.274 Q3189.25 343.006 3187.61 342.977 L3151.16 342.977 Q3149.55 343.006 3149.55 342.333 M3149.55 330.622 Q3149.55 329.89 3150.81 329.919 L3187.44 329.919 Q3189.22 329.919 3189.25 330.622 Q3189.25 331.295 3187.73 331.295 L3150.75 331.295 Q3149.55 331.295 3149.55 330.622 Z" fill="#000000" fill-rule="evenodd" fill-opacity="1" /><path clip-path="url(#clip210)" d="M3212.39 317.212 L3212.39 315.338 Q3219.59 315.338 3223.31 311.503 Q3224.33 311.503 3224.51 311.737 Q3224.68 311.972 3224.68 313.055 L3224.68 346.695 Q3224.68 348.481 3225.56 349.038 Q3226.44 349.594 3230.28 349.594 L3232.18 349.594 L3232.18 351.438 Q3230.07 351.263 3222.46 351.263 Q3214.85 351.263 3212.77 351.438 L3212.77 349.594 L3214.67 349.594 Q3218.45 349.594 3219.36 349.067 Q3220.26 348.511 3220.26 346.695 L3220.26 315.631 Q3217.13 317.212 3212.39 317.212 Z" fill="#000000" fill-rule="evenodd" fill-opacity="1" /><path clip-path="url(#clip210)" d="M3235.05 332.261 Q3235.05 323.449 3237.27 318.647 Q3240.38 311.503 3247.7 311.503 Q3249.25 311.503 3250.86 311.942 Q3252.5 312.352 3254.55 313.962 Q3256.63 315.573 3257.88 318.208 Q3260.28 323.302 3260.28 332.261 Q3260.28 341.015 3258.06 345.788 Q3254.81 352.756 3247.64 352.756 Q3244.94 352.756 3242.19 351.38 Q3239.47 350.004 3237.74 346.695 Q3235.05 341.747 3235.05 332.261 M3240.02 331.529 Q3240.02 340.576 3240.67 344.177 Q3241.4 348.071 3243.39 349.769 Q3245.41 351.438 3247.64 351.438 Q3250.04 351.438 3252.03 349.652 Q3254.05 347.837 3254.66 343.943 Q3255.34 340.108 3255.31 331.529 Q3255.31 323.185 3254.72 319.847 Q3253.93 315.953 3251.82 314.402 Q3249.74 312.821 3247.64 312.821 Q3246.85 312.821 3246 313.055 Q3245.18 313.289 3243.98 313.962 Q3242.78 314.636 3241.84 316.305 Q3240.93 317.974 3240.49 320.491 Q3240.02 323.741 3240.02 331.529 Z" fill="#000000" fill-rule="evenodd" fill-opacity="1" /><path clip-path="url(#clip210)" d="M3264.98 332.261 Q3264.98 323.449 3267.21 318.647 Q3270.31 311.503 3277.63 311.503 Q3279.18 311.503 3280.79 311.942 Q3282.43 312.352 3284.48 313.962 Q3286.56 315.573 3287.82 318.208 Q3290.22 323.302 3290.22 332.261 Q3290.22 341.015 3288 345.788 Q3284.75 352.756 3277.57 352.756 Q3274.88 352.756 3272.13 351.38 Q3269.4 350.004 3267.68 346.695 Q3264.98 341.747 3264.98 332.261 M3269.96 331.529 Q3269.96 340.576 3270.6 344.177 Q3271.34 348.071 3273.33 349.769 Q3275.35 351.438 3277.57 351.438 Q3279.97 351.438 3281.96 349.652 Q3283.98 347.837 3284.6 343.943 Q3285.27 340.108 3285.24 331.529 Q3285.24 323.185 3284.66 319.847 Q3283.87 315.953 3281.76 314.402 Q3279.68 312.821 3277.57 312.821 Q3276.78 312.821 3275.93 313.055 Q3275.11 313.289 3273.91 313.962 Q3272.71 314.636 3271.78 316.305 Q3270.87 317.974 3270.43 320.491 Q3269.96 323.741 3269.96 331.529 Z" fill="#000000" fill-rule="evenodd" fill-opacity="1" /><path clip-path="url(#clip210)" d="M3302.6 332.261 Q3302.6 323.449 3304.83 318.647 Q3307.93 311.503 3315.25 311.503 Q3316.8 311.503 3318.41 311.942 Q3320.05 312.352 3322.1 313.962 Q3324.18 315.573 3325.44 318.208 Q3327.84 323.302 3327.84 332.261 Q3327.84 341.015 3325.61 345.788 Q3322.36 352.756 3315.19 352.756 Q3312.5 352.756 3309.75 351.38 Q3307.02 350.004 3305.3 346.695 Q3302.6 341.747 3302.6 332.261 M3307.58 331.529 Q3307.58 340.576 3308.22 344.177 Q3308.96 348.071 3310.95 349.769 Q3312.97 351.438 3315.19 351.438 Q3317.59 351.438 3319.58 349.652 Q3321.6 347.837 3322.22 343.943 Q3322.89 340.108 3322.86 331.529 Q3322.86 323.185 3322.28 319.847 Q3321.49 315.953 3319.38 314.402 Q3317.3 312.821 3315.19 312.821 Q3314.4 312.821 3313.55 313.055 Q3312.73 313.289 3311.53 313.962 Q3310.33 314.636 3309.39 316.305 Q3308.49 317.974 3308.05 320.491 Q3307.58 323.741 3307.58 331.529 Z" fill="#000000" fill-rule="evenodd" fill-opacity="1" /><path clip-path="url(#clip210)" d="M3332.54 332.261 Q3332.54 323.449 3334.76 318.647 Q3337.87 311.503 3345.19 311.503 Q3346.74 311.503 3348.35 311.942 Q3349.99 312.352 3352.04 313.962 Q3354.12 315.573 3355.37 318.208 Q3357.78 323.302 3357.78 332.261 Q3357.78 341.015 3355.55 345.788 Q3352.3 352.756 3345.13 352.756 Q3342.43 352.756 3339.68 351.38 Q3336.96 350.004 3335.23 346.695 Q3332.54 341.747 3332.54 332.261 M3337.51 331.529 Q3337.51 340.576 3338.16 344.177 Q3338.89 348.071 3340.88 349.769 Q3342.9 351.438 3345.13 351.438 Q3347.53 351.438 3349.52 349.652 Q3351.54 347.837 3352.15 343.943 Q3352.83 340.108 3352.8 331.529 Q3352.8 323.185 3352.21 319.847 Q3351.42 315.953 3349.31 314.402 Q3347.24 312.821 3345.13 312.821 Q3344.34 312.821 3343.49 313.055 Q3342.67 313.289 3341.47 313.962 Q3340.27 314.636 3339.33 316.305 Q3338.42 317.974 3337.98 320.491 Q3337.51 323.741 3337.51 331.529 Z" fill="#000000" fill-rule="evenodd" fill-opacity="1" /><path clip-path="url(#clip210)" d="M3362.47 332.261 Q3362.47 323.449 3364.7 318.647 Q3367.8 311.503 3375.12 311.503 Q3376.67 311.503 3378.28 311.942 Q3379.92 312.352 3381.97 313.962 Q3384.05 315.573 3385.31 318.208 Q3387.71 323.302 3387.71 332.261 Q3387.71 341.015 3385.49 345.788 Q3382.24 352.756 3375.06 352.756 Q3372.37 352.756 3369.62 351.38 Q3366.89 350.004 3365.17 346.695 Q3362.47 341.747 3362.47 332.261 M3367.45 331.529 Q3367.45 340.576 3368.09 344.177 Q3368.83 348.071 3370.82 349.769 Q3372.84 351.438 3375.06 351.438 Q3377.46 351.438 3379.45 349.652 Q3381.47 347.837 3382.09 343.943 Q3382.76 340.108 3382.73 331.529 Q3382.73 323.185 3382.15 319.847 Q3381.36 315.953 3379.25 314.402 Q3377.17 312.821 3375.06 312.821 Q3374.27 312.821 3373.42 313.055 Q3372.6 313.289 3371.4 313.962 Q3370.2 314.636 3369.27 316.305 Q3368.36 317.974 3367.92 320.491 Q3367.45 323.741 3367.45 331.529 Z" fill="#000000" fill-rule="evenodd" fill-opacity="1" /></svg>
