<?xml version="1.0" encoding="utf-8"?>
<svg xmlns="http://www.w3.org/2000/svg" xmlns:xlink="http://www.w3.org/1999/xlink" width="900" height="300" viewBox="0 0 3600 1200">
<defs>
  <clipPath id="clip620">
    <rect x="0" y="0" width="3600" height="1200"/>
  </clipPath>
</defs>
<path clip-path="url(#clip620)" d="
M0 1200 L3600 1200 L3600 0 L0 0  Z
  " fill="#ffffff" fill-rule="evenodd" fill-opacity="1"/>
<defs>
  <clipPath id="clip621">
    <rect x="720" y="0" width="2521" height="1200"/>
  </clipPath>
</defs>
<defs>
  <clipPath id="clip622">
    <rect x="317" y="0" width="3159" height="988"/>
  </clipPath>
</defs>
<path clip-path="url(#clip620)" d="
M323.626 994.428 L3489.76 994.428 L3489.76 110.236 L323.626 110.236  Z
  " fill="#ffffff" fill-rule="evenodd" fill-opacity="1"/>
<defs>
  <clipPath id="clip623">
    <rect x="323" y="110" width="3167" height="885"/>
  </clipPath>
</defs>
<polyline clip-path="url(#clip623)" style="stroke:#000000; stroke-linecap:round; stroke-linejoin:round; stroke-width:2; stroke-opacity:0.1; fill:none" points="
  570.441,994.428 570.441,110.236 
  "/>
<polyline clip-path="url(#clip623)" style="stroke:#000000; stroke-linecap:round; stroke-linejoin:round; stroke-width:2; stroke-opacity:0.1; fill:none" points="
  884.853,994.428 884.853,110.236 
  "/>
<polyline clip-path="url(#clip623)" style="stroke:#000000; stroke-linecap:round; stroke-linejoin:round; stroke-width:2; stroke-opacity:0.1; fill:none" points="
  1199.27,994.428 1199.27,110.236 
  "/>
<polyline clip-path="url(#clip623)" style="stroke:#000000; stroke-linecap:round; stroke-linejoin:round; stroke-width:2; stroke-opacity:0.1; fill:none" points="
  1513.68,994.428 1513.68,110.236 
  "/>
<polyline clip-path="url(#clip623)" style="stroke:#000000; stroke-linecap:round; stroke-linejoin:round; stroke-width:2; stroke-opacity:0.1; fill:none" points="
  1828.09,994.428 1828.09,110.236 
  "/>
<polyline clip-path="url(#clip623)" style="stroke:#000000; stroke-linecap:round; stroke-linejoin:round; stroke-width:2; stroke-opacity:0.1; fill:none" points="
  2142.5,994.428 2142.5,110.236 
  "/>
<polyline clip-path="url(#clip623)" style="stroke:#000000; stroke-linecap:round; stroke-linejoin:round; stroke-width:2; stroke-opacity:0.1; fill:none" points="
  2456.92,994.428 2456.92,110.236 
  "/>
<polyline clip-path="url(#clip623)" style="stroke:#000000; stroke-linecap:round; stroke-linejoin:round; stroke-width:2; stroke-opacity:0.1; fill:none" points="
  2771.33,994.428 2771.33,110.236 
  "/>
<polyline clip-path="url(#clip623)" style="stroke:#000000; stroke-linecap:round; stroke-linejoin:round; stroke-width:2; stroke-opacity:0.1; fill:none" points="
  3085.74,994.428 3085.74,110.236 
  "/>
<polyline clip-path="url(#clip623)" style="stroke:#000000; stroke-linecap:round; stroke-linejoin:round; stroke-width:2; stroke-opacity:0.1; fill:none" points="
  3400.16,994.428 3400.16,110.236 
  "/>
<polyline clip-path="url(#clip620)" style="stroke:#000000; stroke-linecap:round; stroke-linejoin:round; stroke-width:4; stroke-opacity:1; fill:none" points="
  323.626,994.428 3489.76,994.428 
  "/>
<polyline clip-path="url(#clip620)" style="stroke:#000000; stroke-linecap:round; stroke-linejoin:round; stroke-width:4; stroke-opacity:1; fill:none" points="
  323.626,110.236 3489.76,110.236 
  "/>
<polyline clip-path="url(#clip620)" style="stroke:#000000; stroke-linecap:round; stroke-linejoin:round; stroke-width:4; stroke-opacity:1; fill:none" points="
  570.441,994.428 570.441,975.53 
  "/>
<polyline clip-path="url(#clip620)" style="stroke:#000000; stroke-linecap:round; stroke-linejoin:round; stroke-width:4; stroke-opacity:1; fill:none" points="
  884.853,994.428 884.853,975.53 
  "/>
<polyline clip-path="url(#clip620)" style="stroke:#000000; stroke-linecap:round; stroke-linejoin:round; stroke-width:4; stroke-opacity:1; fill:none" points="
  1199.27,994.428 1199.27,975.53 
  "/>
<polyline clip-path="url(#clip620)" style="stroke:#000000; stroke-linecap:round; stroke-linejoin:round; stroke-width:4; stroke-opacity:1; fill:none" points="
  1513.68,994.428 1513.68,975.53 
  "/>
<polyline clip-path="url(#clip620)" style="stroke:#000000; stroke-linecap:round; stroke-linejoin:round; stroke-width:4; stroke-opacity:1; fill:none" points="
  1828.09,994.428 1828.09,975.53 
  "/>
<polyline clip-path="url(#clip620)" style="stroke:#000000; stroke-linecap:round; stroke-linejoin:round; stroke-width:4; stroke-opacity:1; fill:none" points="
  2142.5,994.428 2142.5,975.53 
  "/>
<polyline clip-path="url(#clip620)" style="stroke:#000000; stroke-linecap:round; stroke-linejoin:round; stroke-width:4; stroke-opacity:1; fill:none" points="
  2456.92,994.428 2456.92,975.53 
  "/>
<polyline clip-path="url(#clip620)" style="stroke:#000000; stroke-linecap:round; stroke-linejoin:round; stroke-width:4; stroke-opacity:1; fill:none" points="
  2771.33,994.428 2771.33,975.53 
  "/>
<polyline clip-path="url(#clip620)" style="stroke:#000000; stroke-linecap:round; stroke-linejoin:round; stroke-width:4; stroke-opacity:1; fill:none" points="
  3085.74,994.428 3085.74,975.53 
  "/>
<polyline clip-path="url(#clip620)" style="stroke:#000000; stroke-linecap:round; stroke-linejoin:round; stroke-width:4; stroke-opacity:1; fill:none" points="
  3400.16,994.428 3400.16,975.53 
  "/>
<path clip-path="url(#clip620)" d="M560.003 1041.13 L560.003 1039.15 Q567.6 1039.15 571.521 1035.11 Q572.602 1035.11 572.787 1035.36 Q572.973 1035.6 572.973 1036.75 L572.973 1072.23 Q572.973 1074.11 573.899 1074.7 Q574.825 1075.28 578.871 1075.28 L580.878 1075.28 L580.878 1077.23 Q578.654 1077.04 570.626 1077.04 Q562.597 1077.04 560.405 1077.23 L560.405 1075.28 L562.412 1075.28 Q566.395 1075.28 567.353 1074.73 Q568.31 1074.14 568.31 1072.23 L568.31 1039.46 Q565.006 1041.13 560.003 1041.13 Z" fill="#000000" fill-rule="evenodd" fill-opacity="1" /><path clip-path="url(#clip620)" d="M872.224 1077.23 Q872.224 1076.09 872.316 1075.75 Q872.44 1075.41 872.934 1074.88 L885.07 1061.36 Q891.709 1053.88 891.709 1047.37 Q891.709 1043.14 889.485 1040.11 Q887.293 1037.08 883.248 1037.08 Q880.469 1037.08 878.122 1038.78 Q875.775 1040.48 874.694 1043.51 Q874.879 1043.45 875.528 1043.45 Q877.103 1043.45 877.967 1044.43 Q878.863 1045.42 878.863 1046.75 Q878.863 1048.45 877.751 1049.28 Q876.67 1050.08 875.59 1050.08 Q875.157 1050.08 874.571 1049.99 Q874.015 1049.9 873.119 1049.04 Q872.224 1048.14 872.224 1046.56 Q872.224 1042.15 875.559 1038.63 Q878.925 1035.11 884.051 1035.11 Q889.856 1035.11 893.654 1038.57 Q897.483 1041.99 897.483 1047.37 Q897.483 1049.25 896.896 1050.98 Q896.34 1052.68 895.568 1054.01 Q894.827 1055.33 892.789 1057.47 Q890.751 1059.6 889.115 1061.11 Q887.478 1062.62 883.803 1065.83 L877.103 1072.35 L888.497 1072.35 Q894.055 1072.35 894.488 1071.85 Q895.105 1070.96 895.877 1066.23 L897.483 1066.23 L895.692 1077.23 L872.224 1077.23 Z" fill="#000000" fill-rule="evenodd" fill-opacity="1" /><path clip-path="url(#clip620)" d="M1186.14 1068.71 Q1186.14 1066.82 1187.22 1065.93 Q1188.3 1065.03 1189.69 1065.03 Q1191.14 1065.03 1192.16 1065.99 Q1193.21 1066.91 1193.21 1068.55 Q1193.21 1070.31 1191.98 1071.3 Q1190.77 1072.29 1189.05 1072.04 Q1190.56 1074.57 1193.34 1075.71 Q1196.15 1076.86 1198.74 1076.86 Q1201.46 1076.86 1203.65 1074.51 Q1205.87 1072.16 1205.87 1066.42 Q1205.87 1061.54 1203.96 1058.73 Q1202.08 1055.92 1198.34 1055.92 L1195.56 1055.92 Q1194.6 1055.92 1194.33 1055.83 Q1194.05 1055.74 1194.05 1055.21 Q1194.05 1054.59 1195 1054.47 Q1195.96 1054.47 1197.48 1054.28 Q1201.15 1054.16 1203.1 1050.98 Q1204.86 1048.02 1204.86 1043.79 Q1204.86 1039.93 1203 1038.32 Q1201.18 1036.68 1198.8 1036.68 Q1196.58 1036.68 1194.14 1037.61 Q1191.7 1038.54 1190.37 1040.6 Q1194.29 1040.6 1194.29 1043.79 Q1194.29 1045.18 1193.4 1046.1 Q1192.53 1047 1191.08 1047 Q1189.69 1047 1188.77 1046.13 Q1187.84 1045.24 1187.84 1043.72 Q1187.84 1040.11 1191.05 1037.61 Q1194.29 1035.11 1199.05 1035.11 Q1203.74 1035.11 1207.2 1037.58 Q1210.69 1040.05 1210.69 1043.85 Q1210.69 1047.58 1208.22 1050.64 Q1205.75 1053.7 1201.83 1054.96 Q1206.65 1055.92 1209.52 1059.19 Q1212.39 1062.44 1212.39 1066.42 Q1212.39 1071.36 1208.5 1075 Q1204.61 1078.62 1198.93 1078.62 Q1193.68 1078.62 1189.91 1075.78 Q1186.14 1072.94 1186.14 1068.71 Z" fill="#000000" fill-rule="evenodd" fill-opacity="1" /><path clip-path="url(#clip620)" d="M1499.66 1066.79 L1499.66 1064.85 L1519.08 1035.17 Q1519.58 1034.4 1520.35 1034.43 Q1521.06 1034.43 1521.21 1034.71 Q1521.37 1034.98 1521.37 1036.07 L1521.37 1064.85 L1527.7 1064.85 L1527.7 1066.79 L1521.37 1066.79 L1521.37 1072.29 Q1521.37 1074.11 1522.11 1074.7 Q1522.88 1075.28 1526.15 1075.28 L1527.48 1075.28 L1527.48 1077.23 Q1524.89 1077.04 1518.9 1077.04 Q1512.94 1077.04 1510.34 1077.23 L1510.34 1075.28 L1511.67 1075.28 Q1514.95 1075.28 1515.72 1074.73 Q1516.49 1074.14 1516.49 1072.29 L1516.49 1066.79 L1499.66 1066.79 M1501.45 1064.85 L1516.86 1064.85 L1516.86 1041.25 L1501.45 1064.85 Z" fill="#000000" fill-rule="evenodd" fill-opacity="1" /><path clip-path="url(#clip620)" d="M1815.46 1067.04 Q1815.46 1065.15 1816.48 1064.44 Q1817.5 1063.7 1818.58 1063.7 Q1820.03 1063.7 1820.87 1064.63 Q1821.73 1065.52 1821.73 1066.79 Q1821.73 1068.06 1820.87 1068.98 Q1820.03 1069.88 1818.58 1069.88 Q1817.87 1069.88 1817.5 1069.75 Q1818.33 1072.66 1820.87 1074.76 Q1823.43 1076.86 1826.79 1076.86 Q1831.03 1076.86 1833.56 1072.75 Q1835.07 1070.09 1835.07 1064.07 Q1835.07 1058.76 1833.93 1056.11 Q1832.17 1052.06 1828.56 1052.06 Q1823.43 1052.06 1820.4 1056.48 Q1820.03 1057.03 1819.6 1057.06 Q1818.98 1057.06 1818.83 1056.72 Q1818.7 1056.35 1818.7 1055.4 L1818.7 1036.68 Q1818.7 1035.17 1819.32 1035.17 Q1819.57 1035.17 1820.09 1035.36 Q1824.08 1037.12 1828.49 1037.15 Q1833.03 1037.15 1837.11 1035.29 Q1837.42 1035.11 1837.6 1035.11 Q1838.22 1035.11 1838.25 1035.82 Q1838.25 1036.07 1837.73 1036.81 Q1837.23 1037.52 1836.15 1038.47 Q1835.07 1039.4 1833.68 1040.3 Q1832.29 1041.19 1830.25 1041.81 Q1828.25 1042.4 1826.02 1042.4 Q1823.37 1042.4 1820.65 1041.56 L1820.65 1053.88 Q1823.92 1050.67 1828.68 1050.67 Q1833.74 1050.67 1837.23 1054.75 Q1840.72 1058.82 1840.72 1064.51 Q1840.72 1070.47 1836.58 1074.54 Q1832.48 1078.62 1826.92 1078.62 Q1821.85 1078.62 1818.64 1075 Q1815.46 1071.39 1815.46 1067.04 Z" fill="#000000" fill-rule="evenodd" fill-opacity="1" /><path clip-path="url(#clip620)" d="M2129.38 1057.25 Q2129.38 1047.31 2134.45 1041.22 Q2139.51 1035.11 2146.02 1035.11 Q2149.82 1035.11 2151.92 1037.05 Q2154.05 1038.97 2154.05 1041.93 Q2154.05 1043.57 2153.1 1044.28 Q2152.14 1044.99 2151.15 1044.99 Q2150.01 1044.99 2149.11 1044.22 Q2148.22 1043.45 2148.22 1042.06 Q2148.22 1039.22 2151.71 1039.22 Q2150.07 1036.68 2146.15 1036.68 Q2144.94 1036.68 2143.71 1037.05 Q2142.47 1037.39 2140.87 1038.57 Q2139.26 1039.74 2138.03 1041.59 Q2136.79 1043.45 2135.93 1046.94 Q2135.06 1050.42 2135.06 1054.96 L2135.06 1056.48 Q2137.66 1050.21 2142.97 1050.24 Q2148.28 1050.24 2151.95 1054.28 Q2155.63 1058.33 2155.63 1064.32 Q2155.63 1070.47 2151.8 1074.54 Q2147.97 1078.62 2142.6 1078.62 Q2140.19 1078.62 2138 1077.6 Q2135.83 1076.61 2133.8 1074.33 Q2131.79 1072.04 2130.59 1067.66 Q2129.38 1063.27 2129.38 1057.25 M2135.19 1062.93 Q2135.19 1069.14 2136.33 1072.1 Q2136.51 1072.6 2136.92 1073.28 Q2137.35 1073.95 2138.06 1074.85 Q2138.8 1075.71 2140 1076.3 Q2141.21 1076.86 2142.6 1076.86 Q2146.83 1076.86 2148.87 1072.75 Q2149.95 1070.47 2149.95 1064.26 Q2149.95 1057.93 2148.8 1055.61 Q2146.86 1051.69 2142.91 1051.69 Q2140.25 1051.69 2138.4 1053.51 Q2136.58 1055.33 2135.87 1057.77 Q2135.19 1060.21 2135.19 1062.93 Z" fill="#000000" fill-rule="evenodd" fill-opacity="1" /><path clip-path="url(#clip620)" d="M2443.36 1047.49 L2445.43 1034.49 L2447.01 1034.49 Q2447.19 1035.26 2447.5 1035.6 Q2447.84 1035.94 2449.63 1036.22 Q2451.45 1036.5 2455.13 1036.5 L2470.47 1036.5 Q2470.47 1037.95 2469.92 1038.72 L2461.36 1050.73 Q2458.65 1054.53 2457.44 1061.54 Q2456.73 1066.23 2456.76 1071.92 L2456.76 1075.13 Q2456.76 1078.62 2453.83 1078.62 Q2450.93 1078.62 2450.93 1075.13 Q2450.93 1063.05 2458.71 1051.35 Q2459.54 1050.15 2462.6 1045.85 Q2465.69 1041.56 2465.81 1041.38 L2452.72 1041.38 Q2446.97 1041.38 2446.51 1041.75 Q2445.89 1042.3 2444.94 1047.49 L2443.36 1047.49 Z" fill="#000000" fill-rule="evenodd" fill-opacity="1" /><path clip-path="url(#clip620)" d="M2758.21 1067.69 Q2758.21 1060.61 2767.32 1056.04 Q2763.39 1053.39 2762.68 1052.62 Q2759.91 1049.53 2759.91 1045.67 Q2759.91 1041.25 2763.24 1038.2 Q2766.61 1035.11 2771.36 1035.11 Q2775.9 1035.11 2779.33 1037.73 Q2782.76 1040.36 2782.76 1044.53 Q2782.76 1050.39 2775.1 1054.35 Q2780.16 1057.5 2781.37 1058.82 Q2784.45 1062.25 2784.45 1066.61 Q2784.45 1071.67 2780.56 1075.16 Q2776.67 1078.62 2771.3 1078.62 Q2766.05 1078.62 2762.13 1075.56 Q2758.21 1072.5 2758.21 1067.69 M2761.36 1067.69 Q2761.36 1071.61 2764.29 1074.23 Q2767.25 1076.86 2771.36 1076.86 Q2775.34 1076.86 2778.31 1074.57 Q2781.3 1072.29 2781.3 1068.89 Q2781.3 1067.56 2780.84 1066.42 Q2780.41 1065.28 2779.51 1064.38 Q2778.65 1063.46 2778.09 1063.05 Q2777.57 1062.62 2776.55 1061.91 L2768.77 1057 Q2761.36 1061.11 2761.36 1067.69 M2762.68 1043.2 Q2762.68 1046.23 2765.86 1048.32 L2773.71 1053.39 Q2779.98 1049.71 2779.98 1044.53 Q2779.98 1041.16 2777.41 1038.94 Q2774.85 1036.68 2771.3 1036.68 Q2767.81 1036.68 2765.25 1038.54 Q2762.68 1040.36 2762.68 1043.2 Z" fill="#000000" fill-rule="evenodd" fill-opacity="1" /><path clip-path="url(#clip620)" d="M3072.62 1049.34 Q3072.62 1045.98 3073.61 1043.69 Q3074.6 1041.38 3076.66 1039.09 Q3080.46 1035.11 3085.96 1035.11 Q3088.31 1035.11 3090.38 1036.1 Q3092.47 1037.08 3094.45 1039.34 Q3096.46 1041.56 3097.66 1045.98 Q3098.87 1050.36 3098.87 1056.42 Q3098.87 1066.2 3094.11 1072.41 Q3089.39 1078.62 3083 1078.62 Q3078.95 1078.62 3076.57 1076.8 Q3074.19 1074.94 3074.19 1071.79 Q3074.19 1070.16 3075.12 1069.48 Q3076.05 1068.77 3077.1 1068.77 Q3078.24 1068.77 3079.14 1069.54 Q3080.03 1070.28 3080.03 1071.67 Q3080.03 1072.81 3079.29 1073.71 Q3078.58 1074.57 3076.73 1074.57 Q3078.55 1076.86 3082.93 1076.86 Q3084.51 1076.86 3086.08 1076.15 Q3087.66 1075.41 3089.36 1073.65 Q3091.09 1071.85 3092.14 1068.12 Q3093.19 1064.38 3093.19 1059.13 L3093.19 1057.13 Q3090.65 1063.46 3085.28 1063.46 Q3079.97 1063.46 3076.29 1059.38 Q3072.62 1055.3 3072.62 1049.34 M3078.3 1049.41 Q3078.3 1055.67 3079.44 1057.99 Q3081.39 1061.97 3085.34 1061.97 Q3089.2 1061.97 3091.12 1058.55 Q3093.06 1055.09 3093.06 1050.61 Q3093.06 1044.4 3092.04 1041.69 Q3090.16 1036.68 3085.96 1036.68 Q3081.79 1036.68 3079.63 1040.67 Q3078.3 1043.01 3078.3 1049.41 Z" fill="#000000" fill-rule="evenodd" fill-opacity="1" /><path clip-path="url(#clip620)" d="M3372.61 1041.13 L3372.61 1039.15 Q3380.21 1039.15 3384.13 1035.11 Q3385.21 1035.11 3385.4 1035.36 Q3385.58 1035.6 3385.58 1036.75 L3385.58 1072.23 Q3385.58 1074.11 3386.51 1074.7 Q3387.43 1075.28 3391.48 1075.28 L3393.49 1075.28 L3393.49 1077.23 Q3391.26 1077.04 3383.23 1077.04 Q3375.21 1077.04 3373.01 1077.23 L3373.01 1075.28 L3375.02 1075.28 Q3379 1075.28 3379.96 1074.73 Q3380.92 1074.14 3380.92 1072.23 L3380.92 1039.46 Q3377.61 1041.13 3372.61 1041.13 Z" fill="#000000" fill-rule="evenodd" fill-opacity="1" /><path clip-path="url(#clip620)" d="M3401.08 1057 Q3401.08 1047.71 3403.43 1042.64 Q3406.7 1035.11 3414.42 1035.11 Q3416.06 1035.11 3417.76 1035.57 Q3419.49 1036 3421.65 1037.7 Q3423.84 1039.4 3425.17 1042.18 Q3427.7 1047.55 3427.7 1057 Q3427.7 1066.23 3425.35 1071.27 Q3421.93 1078.62 3414.36 1078.62 Q3411.52 1078.62 3408.62 1077.17 Q3405.75 1075.71 3403.92 1072.23 Q3401.08 1067.01 3401.08 1057 M3406.33 1056.23 Q3406.33 1065.77 3407.01 1069.57 Q3407.78 1073.68 3409.88 1075.47 Q3412.01 1077.23 3414.36 1077.23 Q3416.89 1077.23 3418.99 1075.34 Q3421.12 1073.43 3421.77 1069.32 Q3422.48 1065.28 3422.45 1056.23 Q3422.45 1047.43 3421.83 1043.91 Q3421 1039.8 3418.78 1038.17 Q3416.58 1036.5 3414.36 1036.5 Q3413.53 1036.5 3412.63 1036.75 Q3411.77 1036.99 3410.5 1037.7 Q3409.23 1038.41 3408.25 1040.17 Q3407.29 1041.93 3406.83 1044.59 Q3406.33 1048.02 3406.33 1056.23 Z" fill="#000000" fill-rule="evenodd" fill-opacity="1" /><path clip-path="url(#clip620)" d="M1942.86 1121.51 Q1942.86 1122.04 1942.74 1122.41 Q1942.62 1122.74 1942.33 1122.9 Q1942.05 1123.07 1941.88 1123.11 Q1941.72 1123.15 1941.35 1123.19 Q1939.59 1123.35 1938.36 1123.64 Q1937.17 1123.93 1934.22 1125.4 Q1931.31 1126.88 1927.66 1129.54 L1912.98 1140.9 L1910.52 1142.82 Q1910.52 1142.95 1910.61 1143.19 Q1910.69 1143.4 1910.77 1143.68 Q1910.89 1143.93 1910.93 1144.01 L1922.86 1171.52 Q1923.8 1173.73 1924.95 1174.51 Q1926.1 1175.29 1928.68 1175.33 Q1929.09 1175.33 1929.26 1175.37 Q1929.46 1175.37 1929.75 1175.45 Q1930.08 1175.49 1930.2 1175.7 Q1930.36 1175.9 1930.36 1176.23 Q1930.36 1177.91 1928.85 1177.91 Q1927.9 1177.91 1924.71 1177.79 Q1921.51 1177.66 1920.61 1177.66 Q1918.93 1177.66 1915.48 1177.79 Q1912.04 1177.91 1910.36 1177.91 Q1909.17 1177.91 1909.17 1176.97 Q1909.17 1176.19 1909.46 1175.82 Q1909.79 1175.41 1910.07 1175.37 Q1910.36 1175.33 1911.02 1175.33 Q1911.51 1175.33 1912.04 1175.29 Q1912.61 1175.2 1913.43 1175 Q1914.3 1174.75 1914.83 1174.18 Q1915.4 1173.57 1915.4 1172.7 Q1915.4 1172.01 1914.38 1169.75 L1904.66 1147.17 L1892.16 1156.92 L1888.8 1170.12 Q1888.72 1170.61 1888.51 1171.47 Q1888.31 1172.34 1888.14 1172.95 Q1888.02 1173.57 1888.02 1173.81 Q1888.02 1174.34 1888.35 1174.67 Q1888.72 1175 1889.62 1175.16 Q1890.52 1175.29 1891.22 1175.33 Q1891.96 1175.33 1893.47 1175.33 Q1895.36 1175.33 1895.69 1175.66 Q1895.85 1175.86 1895.85 1176.23 Q1895.85 1176.8 1895.69 1177.21 Q1895.52 1177.58 1895.19 1177.71 Q1894.91 1177.83 1894.7 1177.87 Q1894.5 1177.91 1894.17 1177.91 Q1893.31 1177.91 1891.46 1177.83 Q1889.66 1177.75 1888.72 1177.75 L1883.35 1177.66 L1872.69 1177.91 Q1871.42 1177.91 1871.42 1176.89 Q1871.42 1176.11 1871.75 1175.78 Q1872.08 1175.41 1872.45 1175.37 Q1872.81 1175.33 1873.76 1175.33 Q1875.81 1175.33 1877.04 1175.2 Q1878.27 1175.08 1879.04 1174.92 Q1879.86 1174.71 1880.27 1174.14 Q1880.73 1173.57 1880.93 1173.07 Q1881.13 1172.54 1881.42 1171.35 L1892.65 1126.26 Q1892.98 1124.91 1892.98 1124.71 Q1892.98 1124.01 1892.57 1123.76 Q1892.2 1123.48 1891.14 1123.35 Q1889.09 1123.19 1887.53 1123.19 Q1886.5 1123.19 1886.09 1123.15 Q1885.73 1123.11 1885.4 1122.9 Q1885.11 1122.66 1885.11 1122.16 Q1885.11 1120.57 1886.79 1120.57 L1897.61 1120.81 L1908.35 1120.57 Q1909.54 1120.57 1909.54 1121.51 Q1909.54 1122.7 1908.97 1122.94 Q1908.43 1123.19 1906.67 1123.19 Q1903.6 1123.19 1902.2 1123.6 Q1900.85 1123.97 1900.44 1124.62 Q1900.07 1125.24 1899.62 1127.04 L1892.9 1153.97 L1925.65 1128.81 Q1928.68 1126.26 1928.68 1124.95 Q1928.68 1124.09 1928.07 1123.72 Q1927.49 1123.31 1926.06 1123.19 Q1925.03 1123.03 1925.03 1122.25 Q1925.03 1121.47 1925.32 1121.1 Q1925.65 1120.69 1925.9 1120.65 Q1926.18 1120.57 1926.63 1120.57 Q1928.15 1120.57 1931.31 1120.69 Q1934.46 1120.81 1935.98 1120.81 Q1937 1120.81 1939.01 1120.69 Q1941.02 1120.57 1941.92 1120.57 Q1942.37 1120.57 1942.62 1120.89 Q1942.86 1121.18 1942.86 1121.51 Z" fill="#000000" fill-rule="evenodd" fill-opacity="1" /><polyline clip-path="url(#clip623)" style="stroke:#000000; stroke-linecap:round; stroke-linejoin:round; stroke-width:2; stroke-opacity:0.1; fill:none" points="
  323.626,878.754 3489.76,878.754 
  "/>
<polyline clip-path="url(#clip623)" style="stroke:#000000; stroke-linecap:round; stroke-linejoin:round; stroke-width:2; stroke-opacity:0.1; fill:none" points="
  323.626,494.495 3489.76,494.495 
  "/>
<polyline clip-path="url(#clip623)" style="stroke:#000000; stroke-linecap:round; stroke-linejoin:round; stroke-width:2; stroke-opacity:0.1; fill:none" points="
  323.626,110.236 3489.76,110.236 
  "/>
<polyline clip-path="url(#clip620)" style="stroke:#000000; stroke-linecap:round; stroke-linejoin:round; stroke-width:4; stroke-opacity:1; fill:none" points="
  323.626,994.428 323.626,110.236 
  "/>
<polyline clip-path="url(#clip620)" style="stroke:#000000; stroke-linecap:round; stroke-linejoin:round; stroke-width:4; stroke-opacity:1; fill:none" points="
  3489.76,994.428 3489.76,110.236 
  "/>
<polyline clip-path="url(#clip620)" style="stroke:#000000; stroke-linecap:round; stroke-linejoin:round; stroke-width:4; stroke-opacity:1; fill:none" points="
  323.626,878.754 342.524,878.754 
  "/>
<polyline clip-path="url(#clip620)" style="stroke:#000000; stroke-linecap:round; stroke-linejoin:round; stroke-width:4; stroke-opacity:1; fill:none" points="
  323.626,494.495 342.524,494.495 
  "/>
<polyline clip-path="url(#clip620)" style="stroke:#000000; stroke-linecap:round; stroke-linejoin:round; stroke-width:4; stroke-opacity:1; fill:none" points="
  323.626,110.236 342.524,110.236 
  "/>
<path clip-path="url(#clip620)" d="M153.972 872.316 L153.972 870.34 Q161.569 870.34 165.49 866.295 Q166.571 866.295 166.756 866.542 Q166.942 866.789 166.942 867.931 L166.942 903.411 Q166.942 905.295 167.868 905.882 Q168.794 906.468 172.839 906.468 L174.847 906.468 L174.847 908.414 Q172.623 908.228 164.595 908.228 Q156.566 908.228 154.374 908.414 L154.374 906.468 L156.381 906.468 Q160.364 906.468 161.322 905.913 Q162.279 905.326 162.279 903.411 L162.279 870.648 Q158.975 872.316 153.972 872.316 Z" fill="#000000" fill-rule="evenodd" fill-opacity="1" /><path clip-path="url(#clip620)" d="M182.443 888.188 Q182.443 878.893 184.79 873.829 Q188.063 866.295 195.783 866.295 Q197.419 866.295 199.118 866.758 Q200.847 867.19 203.008 868.888 Q205.201 870.587 206.529 873.366 Q209.061 878.739 209.061 888.188 Q209.061 897.421 206.714 902.454 Q203.286 909.803 195.721 909.803 Q192.88 909.803 189.977 908.352 Q187.106 906.901 185.284 903.411 Q182.443 898.193 182.443 888.188 M187.692 887.416 Q187.692 896.958 188.372 900.756 Q189.144 904.863 191.243 906.654 Q193.374 908.414 195.721 908.414 Q198.253 908.414 200.353 906.53 Q202.484 904.616 203.132 900.509 Q203.842 896.463 203.811 887.416 Q203.811 878.615 203.194 875.095 Q202.36 870.988 200.137 869.352 Q197.944 867.684 195.721 867.684 Q194.887 867.684 193.992 867.931 Q193.127 868.178 191.861 868.888 Q190.595 869.599 189.607 871.359 Q188.65 873.119 188.186 875.774 Q187.692 879.202 187.692 887.416 Z" fill="#000000" fill-rule="evenodd" fill-opacity="1" /><path clip-path="url(#clip620)" d="M242.982 860.577 Q243.283 860.878 243.283 861.305 Q243.283 861.732 242.982 862.033 Q242.681 862.334 242.254 862.334 L210.089 862.334 Q209.663 862.334 209.362 862.033 Q209.061 861.732 209.061 861.305 Q209.061 860.878 209.362 860.577 Q209.663 860.276 210.089 860.276 L242.254 860.276 Q242.681 860.276 242.982 860.577 Z" fill="#000000" fill-rule="evenodd" fill-opacity="1" /><path clip-path="url(#clip620)" d="M248.301 867.226 Q248.301 865.696 249.179 864.968 Q250.057 864.24 251.186 864.24 Q252.365 864.24 253.193 865.018 Q254.046 865.771 254.046 867.101 Q254.046 868.531 253.042 869.334 Q252.064 870.136 250.659 869.936 Q251.888 871.993 254.146 872.921 Q256.429 873.85 258.537 873.85 Q260.745 873.85 262.526 871.943 Q264.333 870.036 264.333 865.369 Q264.333 861.405 262.777 859.122 Q261.247 856.839 258.211 856.839 L255.953 856.839 Q255.175 856.839 254.949 856.764 Q254.723 856.689 254.723 856.262 Q254.723 855.76 255.501 855.66 Q256.279 855.66 257.508 855.509 Q260.494 855.409 262.075 852.825 Q263.505 850.416 263.505 846.979 Q263.505 843.843 261.999 842.538 Q260.519 841.208 258.587 841.208 Q256.781 841.208 254.799 841.961 Q252.817 842.714 251.738 844.395 Q254.924 844.395 254.924 846.979 Q254.924 848.108 254.197 848.861 Q253.494 849.588 252.315 849.588 Q251.186 849.588 250.433 848.886 Q249.68 848.158 249.68 846.929 Q249.68 843.993 252.29 841.961 Q254.924 839.929 258.788 839.929 Q262.601 839.929 265.411 841.936 Q268.247 843.943 268.247 847.029 Q268.247 850.065 266.239 852.549 Q264.232 855.033 261.046 856.061 Q264.96 856.839 267.293 859.499 Q269.626 862.133 269.626 865.369 Q269.626 869.384 266.465 872.344 Q263.304 875.28 258.688 875.28 Q254.422 875.28 251.361 872.972 Q248.301 870.663 248.301 867.226 Z" fill="#000000" fill-rule="evenodd" fill-opacity="1" /><path clip-path="url(#clip620)" d="M154.374 488.057 L154.374 486.081 Q161.97 486.081 165.892 482.035 Q166.972 482.035 167.158 482.283 Q167.343 482.53 167.343 483.672 L167.343 519.152 Q167.343 521.036 168.269 521.623 Q169.196 522.209 173.241 522.209 L175.248 522.209 L175.248 524.155 Q173.025 523.969 164.996 523.969 Q156.968 523.969 154.775 524.155 L154.775 522.209 L156.782 522.209 Q160.766 522.209 161.723 521.654 Q162.68 521.067 162.68 519.152 L162.68 486.389 Q159.376 488.057 154.374 488.057 Z" fill="#000000" fill-rule="evenodd" fill-opacity="1" /><path clip-path="url(#clip620)" d="M182.844 503.929 Q182.844 494.634 185.191 489.57 Q188.464 482.035 196.184 482.035 Q197.821 482.035 199.519 482.499 Q201.248 482.931 203.41 484.629 Q205.602 486.328 206.93 489.107 Q209.462 494.48 209.462 503.929 Q209.462 513.162 207.115 518.195 Q203.688 525.544 196.122 525.544 Q193.282 525.544 190.379 524.093 Q187.507 522.642 185.685 519.152 Q182.844 513.934 182.844 503.929 M188.094 503.157 Q188.094 512.699 188.773 516.497 Q189.545 520.604 191.645 522.395 Q193.776 524.155 196.122 524.155 Q198.654 524.155 200.754 522.271 Q202.885 520.357 203.533 516.25 Q204.244 512.204 204.213 503.157 Q204.213 494.356 203.595 490.836 Q202.761 486.729 200.538 485.093 Q198.346 483.425 196.122 483.425 Q195.289 483.425 194.393 483.672 Q193.529 483.919 192.262 484.629 Q190.996 485.34 190.008 487.1 Q189.051 488.86 188.588 491.515 Q188.094 494.943 188.094 503.157 Z" fill="#000000" fill-rule="evenodd" fill-opacity="1" /><path clip-path="url(#clip620)" d="M243.383 476.318 Q243.684 476.619 243.684 477.046 Q243.684 477.472 243.383 477.774 Q243.082 478.075 242.655 478.075 L210.491 478.075 Q210.064 478.075 209.763 477.774 Q209.462 477.472 209.462 477.046 Q209.462 476.619 209.763 476.318 Q210.064 476.017 210.491 476.017 L242.655 476.017 Q243.082 476.017 243.383 476.318 Z" fill="#000000" fill-rule="evenodd" fill-opacity="1" /><path clip-path="url(#clip620)" d="M249.103 489.892 Q249.103 488.963 249.179 488.687 Q249.279 488.411 249.68 487.985 L259.541 476.996 Q264.935 470.924 264.935 465.63 Q264.935 462.193 263.128 459.734 Q261.347 457.276 258.06 457.276 Q255.802 457.276 253.895 458.655 Q251.989 460.035 251.111 462.494 Q251.261 462.444 251.788 462.444 Q253.067 462.444 253.77 463.247 Q254.498 464.05 254.498 465.129 Q254.498 466.508 253.594 467.186 Q252.716 467.838 251.838 467.838 Q251.487 467.838 251.01 467.763 Q250.559 467.688 249.831 466.985 Q249.103 466.258 249.103 464.978 Q249.103 461.39 251.813 458.53 Q254.548 455.67 258.713 455.67 Q263.429 455.67 266.515 458.48 Q269.626 461.265 269.626 465.63 Q269.626 467.161 269.15 468.566 Q268.698 469.946 268.071 471.025 Q267.469 472.103 265.813 473.835 Q264.157 475.566 262.827 476.795 Q261.498 478.024 258.512 480.634 L253.067 485.928 L262.325 485.928 Q266.842 485.928 267.193 485.526 Q267.695 484.799 268.322 480.96 L269.626 480.96 L268.171 489.892 L249.103 489.892 Z" fill="#000000" fill-rule="evenodd" fill-opacity="1" /><path clip-path="url(#clip620)" d="M155.929 103.798 L155.929 101.822 Q163.526 101.822 167.447 97.7765 Q168.528 97.7765 168.713 98.0235 Q168.899 98.2706 168.899 99.4131 L168.899 134.893 Q168.899 136.777 169.825 137.364 Q170.751 137.95 174.796 137.95 L176.804 137.95 L176.804 139.896 Q174.58 139.71 166.552 139.71 Q158.523 139.71 156.331 139.896 L156.331 137.95 L158.338 137.95 Q162.321 137.95 163.279 137.395 Q164.236 136.808 164.236 134.893 L164.236 102.13 Q160.932 103.798 155.929 103.798 Z" fill="#000000" fill-rule="evenodd" fill-opacity="1" /><path clip-path="url(#clip620)" d="M184.4 119.67 Q184.4 110.375 186.747 105.311 Q190.02 97.7765 197.74 97.7765 Q199.376 97.7765 201.075 98.2397 Q202.804 98.672 204.965 100.37 Q207.158 102.069 208.486 104.848 Q211.018 110.221 211.018 119.67 Q211.018 128.903 208.671 133.936 Q205.243 141.285 197.678 141.285 Q194.837 141.285 191.934 139.834 Q189.063 138.383 187.241 134.893 Q184.4 129.675 184.4 119.67 M189.649 118.898 Q189.649 128.44 190.329 132.238 Q191.101 136.345 193.2 138.136 Q195.331 139.896 197.678 139.896 Q200.21 139.896 202.31 138.012 Q204.44 136.098 205.089 131.991 Q205.799 127.945 205.768 118.898 Q205.768 110.097 205.151 106.577 Q204.317 102.47 202.094 100.834 Q199.901 99.1661 197.678 99.1661 Q196.844 99.1661 195.949 99.4131 Q195.084 99.6601 193.818 100.37 Q192.552 101.081 191.564 102.841 Q190.607 104.601 190.143 107.256 Q189.649 110.684 189.649 118.898 Z" fill="#000000" fill-rule="evenodd" fill-opacity="1" /><path clip-path="url(#clip620)" d="M244.939 92.0594 Q245.24 92.3605 245.24 92.787 Q245.24 93.2135 244.939 93.5146 Q244.637 93.8156 244.211 93.8156 L212.046 93.8156 Q211.62 93.8156 211.319 93.5146 Q211.018 93.2135 211.018 92.787 Q211.018 92.3605 211.319 92.0594 Q211.62 91.7583 212.046 91.7583 L244.211 91.7583 Q244.637 91.7583 244.939 92.0594 Z" fill="#000000" fill-rule="evenodd" fill-opacity="1" /><path clip-path="url(#clip620)" d="M252.666 76.3033 L252.666 74.6976 Q258.838 74.6976 262.024 71.4108 Q262.903 71.4108 263.053 71.6116 Q263.204 71.8123 263.204 72.7406 L263.204 101.568 Q263.204 103.099 263.956 103.575 Q264.709 104.052 267.996 104.052 L269.626 104.052 L269.626 105.633 Q267.82 105.482 261.297 105.482 Q254.774 105.482 252.992 105.633 L252.992 104.052 L254.623 104.052 Q257.86 104.052 258.637 103.6 Q259.415 103.124 259.415 101.568 L259.415 74.9484 Q256.731 76.3033 252.666 76.3033 Z" fill="#000000" fill-rule="evenodd" fill-opacity="1" /><path clip-path="url(#clip620)" d="M81.0049 786.338 Q80.677 786.338 78.5455 785.232 Q76.3731 784.125 68.6261 780.231 Q60.8382 776.337 52.6813 772.32 L23.5789 757.851 Q21.7344 756.826 21.7344 755.514 Q21.7344 754.326 22.4722 753.793 Q23.21 753.26 28.1697 750.801 Q30.5881 749.53 32.1457 748.792 L79.6522 725.059 Q80.677 724.65 81.0049 724.609 Q81.8247 724.609 81.8247 726.043 L81.8247 784.125 Q81.8247 786.338 81.0049 786.338 M75.4303 780.805 L75.4303 735.635 L30.0962 758.22 L75.4303 780.805 Z" fill="#000000" fill-rule="evenodd" fill-opacity="1" /><path clip-path="url(#clip620)" d="M80.1441 659.539 Q80.9229 659.539 81.3328 659.867 Q81.7017 660.154 81.7837 660.441 Q81.8247 660.686 81.8247 661.055 Q81.8247 662.121 81.7017 665.81 Q81.5787 669.499 81.5787 670.565 Q81.5787 672.286 81.7017 675.812 Q81.8247 679.337 81.8247 681.058 Q81.8247 682.206 80.8819 682.206 Q80.2671 682.206 79.9392 682.083 Q79.5703 681.96 79.4473 681.632 Q79.2833 681.263 79.2833 681.058 Q79.2423 680.812 79.2423 680.197 Q79.2423 679.378 79.1604 678.517 Q79.0374 677.656 78.7915 676.59 Q78.5455 675.525 77.9307 674.869 Q77.3159 674.172 76.4551 674.172 Q76.0862 674.172 73.053 674.459 Q70.0198 674.746 66.4947 675.115 Q62.9286 675.484 62.4367 675.525 L62.4367 696.593 Q65.7569 698.52 68.0523 699.872 Q70.3477 701.225 71.1265 701.717 Q71.9053 702.209 72.3971 702.496 Q72.889 702.782 73.1759 702.946 Q75.3484 704.135 76.2911 704.135 Q78.9144 704.135 79.2423 700.2 Q79.2423 698.848 80.2261 698.848 Q80.9639 698.848 81.3738 699.175 Q81.7427 699.503 81.7837 699.79 Q81.8247 700.036 81.8247 700.446 Q81.8247 701.799 81.7017 704.627 Q81.5787 707.455 81.5787 708.849 Q81.5787 710.038 81.7017 712.497 Q81.8247 714.956 81.8247 716.063 Q81.8247 716.555 81.5377 716.842 Q81.2508 717.129 80.8819 717.129 Q80.3081 717.129 79.9802 717.047 Q79.6522 716.924 79.4883 716.596 Q79.3243 716.268 79.3243 716.104 Q79.2833 715.94 79.2423 715.366 Q79.0374 712.251 77.5618 709.833 Q76.0452 707.373 72.1512 705.037 L23.128 675.853 Q22.6362 675.566 22.3902 675.361 Q22.1443 675.156 21.9393 674.746 Q21.7344 674.295 21.7344 673.639 Q21.7344 672.614 22.0623 672.409 Q22.3492 672.204 23.7429 672.082 L76.2091 666.958 Q77.3159 666.835 77.7667 666.753 Q78.1766 666.63 78.6275 666.097 Q79.0374 665.523 79.1604 664.498 Q79.2423 663.433 79.2423 661.465 Q79.2423 660.727 79.2833 660.441 Q79.2833 660.154 79.4883 659.867 Q79.6932 659.539 80.1441 659.539 M59.8134 675.771 L32.1457 678.435 L59.8134 694.995 L59.8134 675.771 Z" fill="#000000" fill-rule="evenodd" fill-opacity="1" /><path clip-path="url(#clip620)" d="M66.963 592.268 Q67.7951 592.268 67.9673 592.641 Q68.1394 592.986 68.1394 594.133 Q68.1394 595.482 68.2542 596.314 Q68.3403 597.146 68.4837 597.662 Q68.5985 598.179 69.0002 598.495 Q69.4019 598.781 69.7462 598.896 Q70.0618 599.011 70.8365 599.212 L102.14 607.016 Q103.202 607.303 103.575 607.303 Q103.948 607.303 104.177 607.074 Q104.407 606.815 104.521 606.184 Q104.608 605.553 104.636 605.065 Q104.636 604.549 104.636 603.487 Q104.636 602.167 104.866 601.966 Q105.009 601.852 105.268 601.852 Q105.813 601.852 106.1 602.081 Q106.358 602.311 106.415 602.512 Q106.444 602.684 106.444 602.971 Q106.444 604.176 106.358 606.643 Q106.272 609.111 106.272 610.316 L106.444 617.604 Q106.444 618.465 105.727 618.465 Q105.181 618.465 104.952 618.235 Q104.694 618.005 104.665 617.747 Q104.636 617.489 104.636 616.829 Q104.636 614.476 104.378 613.472 Q104.12 612.439 103.661 612.152 Q103.173 611.837 101.853 611.492 L68.1968 603.085 L68.1968 603.143 L105.382 626.871 L105.641 627.044 Q105.87 627.216 105.956 627.273 Q106.014 627.331 106.186 627.503 Q106.329 627.646 106.387 627.818 Q106.444 627.962 106.444 628.163 Q106.444 628.507 106.214 628.708 Q105.985 628.88 105.813 628.937 Q105.612 628.966 105.095 629.052 L68.6559 634.102 L68.6559 634.159 L100.677 642.165 Q101.566 642.394 102.025 642.394 Q103.202 642.394 103.919 641.562 Q104.608 640.701 104.636 638.406 Q104.636 637.344 105.268 637.344 Q106.444 637.344 106.444 638.406 Q106.444 639.381 106.358 641.419 Q106.272 643.456 106.272 644.46 Q106.272 645.435 106.358 647.415 Q106.444 649.366 106.444 650.313 Q106.444 651.145 105.727 651.145 Q104.636 651.145 104.636 650.084 Q104.579 648.362 104.235 647.186 Q103.89 646.009 103.23 645.349 Q102.57 644.661 101.91 644.345 Q101.222 644.001 100.218 643.743 L70.2913 636.283 Q69.3445 636.053 69.201 636.053 Q68.7133 636.053 68.5411 636.34 Q68.3403 636.598 68.2542 637.344 Q68.1394 638.779 68.1394 639.869 Q68.1394 640.586 68.1107 640.873 Q68.082 641.132 67.9386 641.361 Q67.7664 641.562 67.4221 641.562 Q66.8769 641.562 66.6474 641.332 Q66.3892 641.074 66.3605 640.787 Q66.3031 640.5 66.3031 639.812 L66.3031 631.749 Q66.3031 630.573 66.5039 630.315 Q66.6761 630.056 67.6516 629.942 L100.906 625.351 L67.4221 603.889 Q66.59 603.344 66.4466 603.057 Q66.3031 602.77 66.3031 601.622 L66.3031 593.846 Q66.3031 593.215 66.3318 592.957 Q66.3605 592.699 66.5039 592.498 Q66.6474 592.268 66.963 592.268 Z" fill="#000000" fill-rule="evenodd" fill-opacity="1" /><path clip-path="url(#clip620)" d="M65.6145 547.35 L80.592 551.052 Q81.5388 551.31 81.6536 551.482 Q81.7683 551.626 81.7683 552.085 Q81.7683 552.974 81.1658 552.974 Q81.1084 552.974 80.3624 552.888 Q79.5877 552.802 78.1818 552.802 Q72.9884 552.802 69.9183 555.327 Q66.8483 557.823 66.8483 562.27 Q66.8483 566.115 68.7993 569.989 Q70.7504 573.833 73.9353 576.588 Q76.3455 578.654 79.3869 580.175 Q82.4283 581.667 85.2114 582.384 Q87.9946 583.072 90.0892 583.388 Q92.1837 583.704 93.7044 583.704 Q95.9137 583.704 97.7788 583.245 Q99.6438 582.757 100.964 581.896 Q102.255 581.035 103.259 579.945 Q104.235 578.826 104.808 577.535 Q105.382 576.215 105.669 574.895 Q105.927 573.575 105.927 572.198 Q105.927 566.66 101.624 561.381 Q98.0944 557.192 92.3272 555.442 Q91.7533 555.298 91.7533 554.696 Q91.7533 553.978 92.3272 553.978 Q92.442 553.978 93.0158 554.122 Q93.561 554.265 94.68 554.696 Q95.7703 555.126 97.0041 555.786 Q98.2378 556.446 99.7872 557.68 Q101.337 558.913 102.685 560.434 Q104.923 563.016 106.329 566.287 Q107.735 569.558 107.735 573.145 Q107.735 577.621 105.755 581.236 Q103.775 584.851 100.074 586.975 Q96.3728 589.069 91.6386 589.069 Q86.6461 589.069 81.7397 586.774 Q76.8332 584.478 73.1893 580.834 Q69.5453 577.191 67.2786 572.37 Q65.0119 567.55 65.0119 562.73 Q65.0119 560.893 65.4997 559.258 Q65.9875 557.622 66.59 556.647 Q67.1926 555.642 68.082 554.753 Q68.9428 553.864 69.3445 553.577 Q69.7462 553.261 70.234 552.974 L65.7292 548.871 Q65.0119 548.154 65.0119 547.982 Q65.0119 547.637 65.2128 547.494 Q65.4136 547.35 65.6145 547.35 Z" fill="#000000" fill-rule="evenodd" fill-opacity="1" /><path clip-path="url(#clip620)" d="M101.622 538.51 Q101.213 538.51 100.311 538.182 L21.1196 508.547 Q21.0376 508.547 20.5867 508.342 Q20.1358 508.137 19.8489 508.014 Q19.521 507.891 19.275 507.645 Q19.0291 507.358 19.0291 507.031 Q19.0291 506.211 20.0538 506.211 Q20.1358 506.211 21.1196 506.457 L100.393 536.174 Q101.827 536.666 102.237 536.994 Q102.647 537.281 102.647 537.773 Q102.647 538.51 101.622 538.51 Z" fill="#000000" fill-rule="evenodd" fill-opacity="1" /><path clip-path="url(#clip620)" d="M80.1441 439.354 Q80.9229 439.354 81.3328 439.682 Q81.7017 439.969 81.7837 440.256 Q81.8247 440.502 81.8247 440.871 Q81.8247 441.936 81.7017 445.625 Q81.5787 449.314 81.5787 450.38 Q81.5787 452.102 81.7017 455.627 Q81.8247 459.152 81.8247 460.873 Q81.8247 462.021 80.8819 462.021 Q80.2671 462.021 79.9392 461.898 Q79.5703 461.775 79.4473 461.447 Q79.2833 461.078 79.2833 460.873 Q79.2423 460.627 79.2423 460.013 Q79.2423 459.193 79.1604 458.332 Q79.0374 457.471 78.7915 456.406 Q78.5455 455.34 77.9307 454.684 Q77.3159 453.987 76.4551 453.987 Q76.0862 453.987 73.053 454.274 Q70.0198 454.561 66.4947 454.93 Q62.9286 455.299 62.4367 455.34 L62.4367 476.408 Q65.7569 478.335 68.0523 479.687 Q70.3477 481.04 71.1265 481.532 Q71.9053 482.024 72.3971 482.311 Q72.889 482.598 73.1759 482.762 Q75.3484 483.95 76.2911 483.95 Q78.9144 483.95 79.2423 480.015 Q79.2423 478.663 80.2261 478.663 Q80.9639 478.663 81.3738 478.991 Q81.7427 479.319 81.7837 479.605 Q81.8247 479.851 81.8247 480.261 Q81.8247 481.614 81.7017 484.442 Q81.5787 487.27 81.5787 488.664 Q81.5787 489.853 81.7017 492.312 Q81.8247 494.771 81.8247 495.878 Q81.8247 496.37 81.5377 496.657 Q81.2508 496.944 80.8819 496.944 Q80.3081 496.944 79.9802 496.862 Q79.6522 496.739 79.4883 496.411 Q79.3243 496.083 79.3243 495.919 Q79.2833 495.755 79.2423 495.181 Q79.0374 492.066 77.5618 489.648 Q76.0452 487.188 72.1512 484.852 L23.128 455.668 Q22.6362 455.381 22.3902 455.176 Q22.1443 454.971 21.9393 454.561 Q21.7344 454.11 21.7344 453.454 Q21.7344 452.43 22.0623 452.225 Q22.3492 452.02 23.7429 451.897 L76.2091 446.773 Q77.3159 446.65 77.7667 446.568 Q78.1766 446.445 78.6275 445.912 Q79.0374 445.338 79.1604 444.314 Q79.2423 443.248 79.2423 441.28 Q79.2423 440.543 79.2833 440.256 Q79.2833 439.969 79.4883 439.682 Q79.6932 439.354 80.1441 439.354 M59.8134 455.586 L32.1457 458.25 L59.8134 474.81 L59.8134 455.586 Z" fill="#000000" fill-rule="evenodd" fill-opacity="1" /><path clip-path="url(#clip620)" d="M66.963 372.083 Q67.7951 372.083 67.9673 372.456 Q68.1394 372.801 68.1394 373.949 Q68.1394 375.297 68.2542 376.129 Q68.3403 376.961 68.4837 377.478 Q68.5985 377.994 69.0002 378.31 Q69.4019 378.597 69.7462 378.711 Q70.0618 378.826 70.8365 379.027 L102.14 386.831 Q103.202 387.118 103.575 387.118 Q103.948 387.118 104.177 386.889 Q104.407 386.631 104.521 385.999 Q104.608 385.368 104.636 384.88 Q104.636 384.364 104.636 383.302 Q104.636 381.982 104.866 381.782 Q105.009 381.667 105.268 381.667 Q105.813 381.667 106.1 381.896 Q106.358 382.126 106.415 382.327 Q106.444 382.499 106.444 382.786 Q106.444 383.991 106.358 386.458 Q106.272 388.926 106.272 390.131 L106.444 397.419 Q106.444 398.28 105.727 398.28 Q105.181 398.28 104.952 398.05 Q104.694 397.821 104.665 397.562 Q104.636 397.304 104.636 396.644 Q104.636 394.291 104.378 393.287 Q104.12 392.254 103.661 391.967 Q103.173 391.652 101.853 391.307 L68.1968 382.901 L68.1968 382.958 L105.382 406.687 L105.641 406.859 Q105.87 407.031 105.956 407.088 Q106.014 407.146 106.186 407.318 Q106.329 407.461 106.387 407.633 Q106.444 407.777 106.444 407.978 Q106.444 408.322 106.214 408.523 Q105.985 408.695 105.813 408.752 Q105.612 408.781 105.095 408.867 L68.6559 413.917 L68.6559 413.975 L100.677 421.98 Q101.566 422.209 102.025 422.209 Q103.202 422.209 103.919 421.377 Q104.608 420.516 104.636 418.221 Q104.636 417.159 105.268 417.159 Q106.444 417.159 106.444 418.221 Q106.444 419.197 106.358 421.234 Q106.272 423.271 106.272 424.275 Q106.272 425.251 106.358 427.23 Q106.444 429.182 106.444 430.128 Q106.444 430.96 105.727 430.96 Q104.636 430.96 104.636 429.899 Q104.579 428.177 104.235 427.001 Q103.89 425.825 103.23 425.165 Q102.57 424.476 101.91 424.16 Q101.222 423.816 100.218 423.558 L70.2913 416.098 Q69.3445 415.868 69.201 415.868 Q68.7133 415.868 68.5411 416.155 Q68.3403 416.413 68.2542 417.159 Q68.1394 418.594 68.1394 419.684 Q68.1394 420.402 68.1107 420.689 Q68.082 420.947 67.9386 421.176 Q67.7664 421.377 67.4221 421.377 Q66.8769 421.377 66.6474 421.148 Q66.3892 420.889 66.3605 420.602 Q66.3031 420.316 66.3031 419.627 L66.3031 411.564 Q66.3031 410.388 66.5039 410.13 Q66.6761 409.872 67.6516 409.757 L100.906 405.166 L67.4221 383.704 Q66.59 383.159 66.4466 382.872 Q66.3031 382.585 66.3031 381.437 L66.3031 373.662 Q66.3031 373.03 66.3318 372.772 Q66.3605 372.514 66.5039 372.313 Q66.6474 372.083 66.963 372.083 Z" fill="#000000" fill-rule="evenodd" fill-opacity="1" /><path clip-path="url(#clip620)" d="M65.6145 327.166 L80.592 330.867 Q81.5388 331.125 81.6536 331.297 Q81.7683 331.441 81.7683 331.9 Q81.7683 332.789 81.1658 332.789 Q81.1084 332.789 80.3624 332.703 Q79.5877 332.617 78.1818 332.617 Q72.9884 332.617 69.9183 335.142 Q66.8483 337.638 66.8483 342.086 Q66.8483 345.93 68.7993 349.804 Q70.7504 353.649 73.9353 356.403 Q76.3455 358.469 79.3869 359.99 Q82.4283 361.482 85.2114 362.199 Q87.9946 362.888 90.0892 363.203 Q92.1837 363.519 93.7044 363.519 Q95.9137 363.519 97.7788 363.06 Q99.6438 362.572 100.964 361.711 Q102.255 360.851 103.259 359.76 Q104.235 358.641 104.808 357.35 Q105.382 356.03 105.669 354.71 Q105.927 353.39 105.927 352.013 Q105.927 346.476 101.624 341.196 Q98.0944 337.007 92.3272 335.257 Q91.7533 335.113 91.7533 334.511 Q91.7533 333.793 92.3272 333.793 Q92.442 333.793 93.0158 333.937 Q93.561 334.08 94.68 334.511 Q95.7703 334.941 97.0041 335.601 Q98.2378 336.261 99.7872 337.495 Q101.337 338.729 102.685 340.249 Q104.923 342.832 106.329 346.103 Q107.735 349.374 107.735 352.96 Q107.735 357.436 105.755 361.051 Q103.775 364.667 100.074 366.79 Q96.3728 368.884 91.6386 368.884 Q86.6461 368.884 81.7397 366.589 Q76.8332 364.294 73.1893 360.65 Q69.5453 357.006 67.2786 352.185 Q65.0119 347.365 65.0119 342.545 Q65.0119 340.708 65.4997 339.073 Q65.9875 337.437 66.59 336.462 Q67.1926 335.458 68.082 334.568 Q68.9428 333.679 69.3445 333.392 Q69.7462 333.076 70.234 332.789 L65.7292 328.686 Q65.0119 327.969 65.0119 327.797 Q65.0119 327.452 65.2128 327.309 Q65.4136 327.166 65.6145 327.166 Z" fill="#000000" fill-rule="evenodd" fill-opacity="1" /><polyline clip-path="url(#clip623)" style="stroke:#009af9; stroke-linecap:round; stroke-linejoin:round; stroke-width:8; stroke-opacity:1; fill:none" points="
  413.234,249.323 570.441,279.867 727.647,254.368 884.853,269.564 1042.06,305.175 1199.27,309.197 1356.47,393.43 1513.68,407.124 1670.89,402.459 1828.09,385.367 
  1985.3,410.167 2142.5,409.989 2299.71,448.869 2456.92,496.915 2614.12,451.068 2771.33,452.543 2928.54,470.926 3085.74,473.903 3242.95,499.282 3400.16,489.315 
  
  "/>
<circle clip-path="url(#clip623)" cx="413.234" cy="249.323" r="18" fill="#009af9" fill-rule="evenodd" fill-opacity="1" stroke="#000000" stroke-opacity="1" stroke-width="3.6"/>
<circle clip-path="url(#clip623)" cx="570.441" cy="279.867" r="18" fill="#009af9" fill-rule="evenodd" fill-opacity="1" stroke="#000000" stroke-opacity="1" stroke-width="3.6"/>
<circle clip-path="url(#clip623)" cx="727.647" cy="254.368" r="18" fill="#009af9" fill-rule="evenodd" fill-opacity="1" stroke="#000000" stroke-opacity="1" stroke-width="3.6"/>
<circle clip-path="url(#clip623)" cx="884.853" cy="269.564" r="18" fill="#009af9" fill-rule="evenodd" fill-opacity="1" stroke="#000000" stroke-opacity="1" stroke-width="3.6"/>
<circle clip-path="url(#clip623)" cx="1042.06" cy="305.175" r="18" fill="#009af9" fill-rule="evenodd" fill-opacity="1" stroke="#000000" stroke-opacity="1" stroke-width="3.6"/>
<circle clip-path="url(#clip623)" cx="1199.27" cy="309.197" r="18" fill="#009af9" fill-rule="evenodd" fill-opacity="1" stroke="#000000" stroke-opacity="1" stroke-width="3.6"/>
<circle clip-path="url(#clip623)" cx="1356.47" cy="393.43" r="18" fill="#009af9" fill-rule="evenodd" fill-opacity="1" stroke="#000000" stroke-opacity="1" stroke-width="3.6"/>
<circle clip-path="url(#clip623)" cx="1513.68" cy="407.124" r="18" fill="#009af9" fill-rule="evenodd" fill-opacity="1" stroke="#000000" stroke-opacity="1" stroke-width="3.6"/>
<circle clip-path="url(#clip623)" cx="1670.89" cy="402.459" r="18" fill="#009af9" fill-rule="evenodd" fill-opacity="1" stroke="#000000" stroke-opacity="1" stroke-width="3.6"/>
<circle clip-path="url(#clip623)" cx="1828.09" cy="385.367" r="18" fill="#009af9" fill-rule="evenodd" fill-opacity="1" stroke="#000000" stroke-opacity="1" stroke-width="3.6"/>
<circle clip-path="url(#clip623)" cx="1985.3" cy="410.167" r="18" fill="#009af9" fill-rule="evenodd" fill-opacity="1" stroke="#000000" stroke-opacity="1" stroke-width="3.6"/>
<circle clip-path="url(#clip623)" cx="2142.5" cy="409.989" r="18" fill="#009af9" fill-rule="evenodd" fill-opacity="1" stroke="#000000" stroke-opacity="1" stroke-width="3.6"/>
<circle clip-path="url(#clip623)" cx="2299.71" cy="448.869" r="18" fill="#009af9" fill-rule="evenodd" fill-opacity="1" stroke="#000000" stroke-opacity="1" stroke-width="3.6"/>
<circle clip-path="url(#clip623)" cx="2456.92" cy="496.915" r="18" fill="#009af9" fill-rule="evenodd" fill-opacity="1" stroke="#000000" stroke-opacity="1" stroke-width="3.6"/>
<circle clip-path="url(#clip623)" cx="2614.12" cy="451.068" r="18" fill="#009af9" fill-rule="evenodd" fill-opacity="1" stroke="#000000" stroke-opacity="1" stroke-width="3.6"/>
<circle clip-path="url(#clip623)" cx="2771.33" cy="452.543" r="18" fill="#009af9" fill-rule="evenodd" fill-opacity="1" stroke="#000000" stroke-opacity="1" stroke-width="3.6"/>
<circle clip-path="url(#clip623)" cx="2928.54" cy="470.926" r="18" fill="#009af9" fill-rule="evenodd" fill-opacity="1" stroke="#000000" stroke-opacity="1" stroke-width="3.6"/>
<circle clip-path="url(#clip623)" cx="3085.74" cy="473.903" r="18" fill="#009af9" fill-rule="evenodd" fill-opacity="1" stroke="#000000" stroke-opacity="1" stroke-width="3.6"/>
<circle clip-path="url(#clip623)" cx="3242.95" cy="499.282" r="18" fill="#009af9" fill-rule="evenodd" fill-opacity="1" stroke="#000000" stroke-opacity="1" stroke-width="3.6"/>
<circle clip-path="url(#clip623)" cx="3400.16" cy="489.315" r="18" fill="#009af9" fill-rule="evenodd" fill-opacity="1" stroke="#000000" stroke-opacity="1" stroke-width="3.6"/>
<polyline clip-path="url(#clip623)" style="stroke:#e26f46; stroke-linecap:round; stroke-linejoin:round; stroke-width:8; stroke-opacity:1; fill:none" points="
  413.234,452.139 570.441,431.498 727.647,460.279 884.853,467.923 1042.06,536.818 1199.27,577.504 1356.47,577.485 1513.68,589.395 1670.89,589.92 1828.09,638.528 
  1985.3,623.951 2142.5,595.63 2299.71,618.011 2456.92,654.919 2614.12,664.424 2771.33,677.169 2928.54,656.583 3085.74,653.725 3242.95,664.608 3400.16,676.329 
  
  "/>
<circle clip-path="url(#clip623)" cx="413.234" cy="452.139" r="18" fill="#e26f46" fill-rule="evenodd" fill-opacity="1" stroke="#000000" stroke-opacity="1" stroke-width="3.6"/>
<circle clip-path="url(#clip623)" cx="570.441" cy="431.498" r="18" fill="#e26f46" fill-rule="evenodd" fill-opacity="1" stroke="#000000" stroke-opacity="1" stroke-width="3.6"/>
<circle clip-path="url(#clip623)" cx="727.647" cy="460.279" r="18" fill="#e26f46" fill-rule="evenodd" fill-opacity="1" stroke="#000000" stroke-opacity="1" stroke-width="3.6"/>
<circle clip-path="url(#clip623)" cx="884.853" cy="467.923" r="18" fill="#e26f46" fill-rule="evenodd" fill-opacity="1" stroke="#000000" stroke-opacity="1" stroke-width="3.6"/>
<circle clip-path="url(#clip623)" cx="1042.06" cy="536.818" r="18" fill="#e26f46" fill-rule="evenodd" fill-opacity="1" stroke="#000000" stroke-opacity="1" stroke-width="3.6"/>
<circle clip-path="url(#clip623)" cx="1199.27" cy="577.504" r="18" fill="#e26f46" fill-rule="evenodd" fill-opacity="1" stroke="#000000" stroke-opacity="1" stroke-width="3.6"/>
<circle clip-path="url(#clip623)" cx="1356.47" cy="577.485" r="18" fill="#e26f46" fill-rule="evenodd" fill-opacity="1" stroke="#000000" stroke-opacity="1" stroke-width="3.6"/>
<circle clip-path="url(#clip623)" cx="1513.68" cy="589.395" r="18" fill="#e26f46" fill-rule="evenodd" fill-opacity="1" stroke="#000000" stroke-opacity="1" stroke-width="3.6"/>
<circle clip-path="url(#clip623)" cx="1670.89" cy="589.92" r="18" fill="#e26f46" fill-rule="evenodd" fill-opacity="1" stroke="#000000" stroke-opacity="1" stroke-width="3.6"/>
<circle clip-path="url(#clip623)" cx="1828.09" cy="638.528" r="18" fill="#e26f46" fill-rule="evenodd" fill-opacity="1" stroke="#000000" stroke-opacity="1" stroke-width="3.6"/>
<circle clip-path="url(#clip623)" cx="1985.3" cy="623.951" r="18" fill="#e26f46" fill-rule="evenodd" fill-opacity="1" stroke="#000000" stroke-opacity="1" stroke-width="3.6"/>
<circle clip-path="url(#clip623)" cx="2142.5" cy="595.63" r="18" fill="#e26f46" fill-rule="evenodd" fill-opacity="1" stroke="#000000" stroke-opacity="1" stroke-width="3.6"/>
<circle clip-path="url(#clip623)" cx="2299.71" cy="618.011" r="18" fill="#e26f46" fill-rule="evenodd" fill-opacity="1" stroke="#000000" stroke-opacity="1" stroke-width="3.6"/>
<circle clip-path="url(#clip623)" cx="2456.92" cy="654.919" r="18" fill="#e26f46" fill-rule="evenodd" fill-opacity="1" stroke="#000000" stroke-opacity="1" stroke-width="3.6"/>
<circle clip-path="url(#clip623)" cx="2614.12" cy="664.424" r="18" fill="#e26f46" fill-rule="evenodd" fill-opacity="1" stroke="#000000" stroke-opacity="1" stroke-width="3.6"/>
<circle clip-path="url(#clip623)" cx="2771.33" cy="677.169" r="18" fill="#e26f46" fill-rule="evenodd" fill-opacity="1" stroke="#000000" stroke-opacity="1" stroke-width="3.6"/>
<circle clip-path="url(#clip623)" cx="2928.54" cy="656.583" r="18" fill="#e26f46" fill-rule="evenodd" fill-opacity="1" stroke="#000000" stroke-opacity="1" stroke-width="3.6"/>
<circle clip-path="url(#clip623)" cx="3085.74" cy="653.725" r="18" fill="#e26f46" fill-rule="evenodd" fill-opacity="1" stroke="#000000" stroke-opacity="1" stroke-width="3.6"/>
<circle clip-path="url(#clip623)" cx="3242.95" cy="664.608" r="18" fill="#e26f46" fill-rule="evenodd" fill-opacity="1" stroke="#000000" stroke-opacity="1" stroke-width="3.6"/>
<circle clip-path="url(#clip623)" cx="3400.16" cy="676.329" r="18" fill="#e26f46" fill-rule="evenodd" fill-opacity="1" stroke="#000000" stroke-opacity="1" stroke-width="3.6"/>
<polyline clip-path="url(#clip623)" style="stroke:#3da44d; stroke-linecap:round; stroke-linejoin:round; stroke-width:8; stroke-opacity:1; fill:none" points="
  413.234,594.696 570.441,612.239 727.647,650.287 884.853,728.517 1042.06,717.731 1199.27,742.959 1356.47,797.745 1513.68,788.832 1670.89,779.122 1828.09,793.561 
  1985.3,805.288 2142.5,815.447 2299.71,825.562 2456.92,808.497 2614.12,832.355 2771.33,828.544 2928.54,858.097 3085.74,857.716 3242.95,885.428 3400.16,913.748 
  
  "/>
<circle clip-path="url(#clip623)" cx="413.234" cy="594.696" r="18" fill="#3da44d" fill-rule="evenodd" fill-opacity="1" stroke="#000000" stroke-opacity="1" stroke-width="3.6"/>
<circle clip-path="url(#clip623)" cx="570.441" cy="612.239" r="18" fill="#3da44d" fill-rule="evenodd" fill-opacity="1" stroke="#000000" stroke-opacity="1" stroke-width="3.6"/>
<circle clip-path="url(#clip623)" cx="727.647" cy="650.287" r="18" fill="#3da44d" fill-rule="evenodd" fill-opacity="1" stroke="#000000" stroke-opacity="1" stroke-width="3.6"/>
<circle clip-path="url(#clip623)" cx="884.853" cy="728.517" r="18" fill="#3da44d" fill-rule="evenodd" fill-opacity="1" stroke="#000000" stroke-opacity="1" stroke-width="3.6"/>
<circle clip-path="url(#clip623)" cx="1042.06" cy="717.731" r="18" fill="#3da44d" fill-rule="evenodd" fill-opacity="1" stroke="#000000" stroke-opacity="1" stroke-width="3.6"/>
<circle clip-path="url(#clip623)" cx="1199.27" cy="742.959" r="18" fill="#3da44d" fill-rule="evenodd" fill-opacity="1" stroke="#000000" stroke-opacity="1" stroke-width="3.6"/>
<circle clip-path="url(#clip623)" cx="1356.47" cy="797.745" r="18" fill="#3da44d" fill-rule="evenodd" fill-opacity="1" stroke="#000000" stroke-opacity="1" stroke-width="3.6"/>
<circle clip-path="url(#clip623)" cx="1513.68" cy="788.832" r="18" fill="#3da44d" fill-rule="evenodd" fill-opacity="1" stroke="#000000" stroke-opacity="1" stroke-width="3.6"/>
<circle clip-path="url(#clip623)" cx="1670.89" cy="779.122" r="18" fill="#3da44d" fill-rule="evenodd" fill-opacity="1" stroke="#000000" stroke-opacity="1" stroke-width="3.6"/>
<circle clip-path="url(#clip623)" cx="1828.09" cy="793.561" r="18" fill="#3da44d" fill-rule="evenodd" fill-opacity="1" stroke="#000000" stroke-opacity="1" stroke-width="3.6"/>
<circle clip-path="url(#clip623)" cx="1985.3" cy="805.288" r="18" fill="#3da44d" fill-rule="evenodd" fill-opacity="1" stroke="#000000" stroke-opacity="1" stroke-width="3.6"/>
<circle clip-path="url(#clip623)" cx="2142.5" cy="815.447" r="18" fill="#3da44d" fill-rule="evenodd" fill-opacity="1" stroke="#000000" stroke-opacity="1" stroke-width="3.6"/>
<circle clip-path="url(#clip623)" cx="2299.71" cy="825.562" r="18" fill="#3da44d" fill-rule="evenodd" fill-opacity="1" stroke="#000000" stroke-opacity="1" stroke-width="3.6"/>
<circle clip-path="url(#clip623)" cx="2456.92" cy="808.497" r="18" fill="#3da44d" fill-rule="evenodd" fill-opacity="1" stroke="#000000" stroke-opacity="1" stroke-width="3.6"/>
<circle clip-path="url(#clip623)" cx="2614.12" cy="832.355" r="18" fill="#3da44d" fill-rule="evenodd" fill-opacity="1" stroke="#000000" stroke-opacity="1" stroke-width="3.6"/>
<circle clip-path="url(#clip623)" cx="2771.33" cy="828.544" r="18" fill="#3da44d" fill-rule="evenodd" fill-opacity="1" stroke="#000000" stroke-opacity="1" stroke-width="3.6"/>
<circle clip-path="url(#clip623)" cx="2928.54" cy="858.097" r="18" fill="#3da44d" fill-rule="evenodd" fill-opacity="1" stroke="#000000" stroke-opacity="1" stroke-width="3.6"/>
<circle clip-path="url(#clip623)" cx="3085.74" cy="857.716" r="18" fill="#3da44d" fill-rule="evenodd" fill-opacity="1" stroke="#000000" stroke-opacity="1" stroke-width="3.6"/>
<circle clip-path="url(#clip623)" cx="3242.95" cy="885.428" r="18" fill="#3da44d" fill-rule="evenodd" fill-opacity="1" stroke="#000000" stroke-opacity="1" stroke-width="3.6"/>
<circle clip-path="url(#clip623)" cx="3400.16" cy="913.748" r="18" fill="#3da44d" fill-rule="evenodd" fill-opacity="1" stroke="#000000" stroke-opacity="1" stroke-width="3.6"/>
<path clip-path="url(#clip620)" d="
M2733.41 393.055 L3462.41 393.055 L3462.41 133.855 L2733.41 133.855  Z
  " fill="#ffffff" fill-rule="evenodd" fill-opacity="1"/>
<polyline clip-path="url(#clip620)" style="stroke:#000000; stroke-linecap:round; stroke-linejoin:round; stroke-width:4; stroke-opacity:1; fill:none" points="
  2733.41,393.055 3462.41,393.055 3462.41,133.855 2733.41,133.855 2733.41,393.055 
  "/>
<polyline clip-path="url(#clip620)" style="stroke:#009af9; stroke-linecap:round; stroke-linejoin:round; stroke-width:5; stroke-opacity:1; fill:none" points="
  2768.59,198.655 2979.66,198.655 
  "/>
<circle clip-path="url(#clip620)" cx="2874.13" cy="198.655" r="23.4529" fill="#009af9" fill-rule="evenodd" fill-opacity="1" stroke="#000000" stroke-opacity="1" stroke-width="5.76"/>
<path clip-path="url(#clip620)" d="M3065.32 172.912 Q3065.32 174.112 3064.29 174.112 Q3060.99 174.229 3059.64 175.342 Q3058.32 176.425 3057.82 178.533 L3049.45 211.939 Q3049.16 212.993 3048.98 213.111 Q3048.81 213.198 3048.48 213.198 Q3048.07 213.198 3047.84 212.993 Q3047.63 212.788 3047.34 212.056 L3032.41 176.747 Q3032.29 176.513 3032.15 176.191 Q3032 175.869 3031.88 175.664 L3023.95 207.313 Q3023.71 208.221 3023.71 208.69 Q3023.71 209.831 3024.5 210.563 Q3025.32 211.266 3027.67 211.354 Q3028.87 211.354 3028.87 211.998 Q3028.87 213.198 3027.78 213.198 Q3026.79 213.198 3024.71 213.111 Q3022.63 213.023 3021.61 213.023 Q3020.61 213.023 3018.59 213.111 Q3016.57 213.198 3015.6 213.198 Q3014.84 213.198 3014.84 212.525 Q3014.84 211.998 3015.05 211.734 Q3015.25 211.442 3015.43 211.412 Q3015.6 211.354 3015.87 211.354 Q3017.62 211.295 3018.82 210.944 Q3020.03 210.593 3020.7 209.919 Q3021.4 209.246 3021.72 208.572 Q3022.07 207.87 3022.34 206.845 L3030.36 174.639 Q3030.36 174.112 3026.29 174.112 Q3025.59 174.112 3025.3 174.083 Q3025.03 174.054 3024.83 173.907 Q3024.62 173.761 3024.62 173.439 Q3024.62 172.619 3024.97 172.443 Q3025.32 172.238 3026.35 172.238 L3034.4 172.238 Q3035.43 172.238 3035.69 172.414 Q3035.95 172.56 3036.3 173.38 L3049.57 204.678 L3056.27 178.006 Q3056.45 177.479 3056.45 176.747 Q3056.45 175.576 3055.57 174.873 Q3054.72 174.141 3052.38 174.112 Q3051.29 174.112 3051.29 173.439 Q3051.29 172.882 3051.5 172.619 Q3051.73 172.326 3051.91 172.297 Q3052.11 172.238 3052.38 172.238 Q3053.37 172.238 3055.42 172.326 Q3057.47 172.414 3058.5 172.414 Q3059.49 172.414 3061.51 172.326 Q3063.56 172.238 3064.56 172.238 Q3064.91 172.238 3065.08 172.414 Q3065.29 172.56 3065.32 172.736 L3065.32 172.912 Z" fill="#000000" fill-rule="evenodd" fill-opacity="1" /><path clip-path="url(#clip620)" d="M3105.63 218.218 Q3105.63 218.382 3105.44 219.018 Q3105.26 219.653 3104.81 220.637 Q3104.38 221.621 3103.76 222.522 Q3103.17 223.404 3102.18 224.059 Q3101.22 224.695 3100.11 224.695 Q3098.64 224.695 3097.65 223.711 Q3096.67 222.727 3096.67 221.252 Q3096.67 220.452 3097.22 218.936 Q3099.83 212.009 3099.83 209.529 Q3099.83 206.598 3097.55 206.598 Q3096.26 206.598 3095.09 207.131 Q3093.92 207.664 3093.16 208.401 Q3092.41 209.139 3091.81 209.98 Q3091.22 210.82 3090.95 211.373 Q3090.71 211.927 3090.64 212.172 L3088.12 222.297 Q3087.92 223.158 3087.77 223.568 Q3087.63 223.977 3087.24 224.326 Q3086.85 224.695 3086.24 224.695 Q3085.73 224.695 3085.36 224.387 Q3085.01 224.08 3085.01 223.547 Q3085.01 223.465 3085.11 223.035 Q3085.21 222.604 3085.36 222.01 Q3085.5 221.416 3085.56 221.067 Q3086.3 218.28 3086.4 217.89 L3087.57 213.013 Q3088.2 210.594 3088.2 209.529 Q3088.2 206.598 3085.93 206.598 Q3084.8 206.598 3083.74 207.028 Q3082.69 207.438 3081.97 208.012 Q3081.26 208.586 3080.6 209.385 Q3079.97 210.164 3079.64 210.697 Q3079.33 211.209 3079.08 211.722 L3078.55 213.812 Q3078.43 214.386 3077.83 216.62 L3076.91 220.411 Q3076.26 223.24 3076.11 223.506 Q3075.91 224.08 3075.46 224.387 Q3075.01 224.695 3074.56 224.695 Q3074.04 224.695 3073.69 224.387 Q3073.35 224.08 3073.35 223.547 Q3073.35 223.465 3073.41 223.158 Q3073.47 222.85 3073.57 222.42 Q3073.67 221.989 3073.72 221.743 L3076.15 212.05 Q3076.6 210.287 3076.71 209.734 Q3076.83 209.16 3076.83 208.524 Q3076.83 206.598 3075.52 206.598 Q3074.45 206.598 3073.76 207.869 Q3073.06 209.139 3072.47 211.599 Q3072.28 212.275 3072.16 212.418 Q3072.06 212.562 3071.75 212.562 Q3071.24 212.541 3071.24 212.132 Q3071.24 212.029 3071.4 211.373 Q3071.56 210.717 3071.87 209.734 Q3072.2 208.729 3072.55 208.074 Q3072.75 207.643 3072.94 207.356 Q3073.12 207.069 3073.49 206.618 Q3073.86 206.168 3074.41 205.922 Q3074.97 205.676 3075.64 205.676 Q3077.14 205.676 3078.24 206.639 Q3079.37 207.602 3079.52 209.324 Q3082.24 205.676 3086.05 205.676 Q3088.2 205.676 3089.5 206.762 Q3090.71 207.807 3090.85 209.734 Q3093.68 205.676 3097.69 205.676 Q3100.01 205.676 3101.26 206.885 Q3102.51 208.074 3102.51 210.164 Q3102.51 211.25 3101.96 213.32 Q3101.4 215.37 3101.03 216.394 Q3100.67 217.419 3099.95 219.387 Q3099.19 221.272 3099.19 222.379 Q3099.19 223.096 3099.44 223.424 Q3099.68 223.752 3100.21 223.752 Q3101.03 223.752 3101.75 223.281 Q3102.47 222.789 3102.98 221.989 Q3103.51 221.17 3103.86 220.35 Q3104.21 219.51 3104.48 218.567 Q3104.64 218.054 3104.72 217.931 Q3104.83 217.809 3105.11 217.809 Q3105.63 217.809 3105.63 218.218 Z" fill="#000000" fill-rule="evenodd" fill-opacity="1" /><path clip-path="url(#clip620)" d="M3124.58 219.366 Q3124.74 219.551 3124.74 219.735 Q3124.74 219.919 3124.33 220.452 Q3123.94 220.985 3123.1 221.702 Q3122.26 222.42 3121.17 223.096 Q3120.09 223.772 3118.49 224.223 Q3116.89 224.695 3115.21 224.695 Q3112.07 224.695 3110.23 222.625 Q3108.41 220.555 3108.41 217.583 Q3108.41 214.693 3110.03 211.927 Q3111.64 209.139 3114.27 207.418 Q3116.89 205.676 3119.66 205.676 Q3121.85 205.676 3123.22 206.7 Q3124.6 207.725 3124.6 209.283 Q3124.6 210.492 3123.9 211.23 Q3123.2 211.968 3122.26 211.968 Q3121.6 211.968 3121.15 211.599 Q3120.7 211.209 3120.7 210.492 Q3120.7 209.57 3121.46 208.852 Q3121.75 208.565 3122.08 208.442 Q3122.42 208.299 3122.63 208.299 Q3122.83 208.279 3123.31 208.279 Q3122.88 207.479 3121.85 207.049 Q3120.85 206.598 3119.7 206.598 Q3118 206.598 3116.38 207.787 Q3114.76 208.955 3113.78 210.799 Q3112.79 212.603 3112.16 215.165 Q3111.52 217.706 3111.52 219.182 Q3111.52 221.211 3112.46 222.481 Q3113.41 223.752 3115.29 223.752 Q3115.66 223.752 3116.05 223.731 Q3116.46 223.711 3117.49 223.486 Q3118.53 223.26 3119.45 222.871 Q3120.37 222.481 3121.54 221.641 Q3122.73 220.78 3123.67 219.612 Q3124 219.182 3124.23 219.182 Q3124.41 219.182 3124.58 219.366 Z" fill="#000000" fill-rule="evenodd" fill-opacity="1" /><path clip-path="url(#clip620)" d="M3149.43 204.093 Q3149.49 203.361 3150.63 203.361 L3187.38 203.361 Q3189.1 203.361 3189.13 204.034 Q3189.13 204.766 3187.49 204.737 L3151.04 204.737 Q3149.43 204.766 3149.43 204.093 M3149.43 192.382 Q3149.43 191.65 3150.69 191.679 L3187.32 191.679 Q3189.1 191.679 3189.13 192.382 Q3189.13 193.055 3187.61 193.055 L3150.63 193.055 Q3149.43 193.055 3149.43 192.382 Z" fill="#000000" fill-rule="evenodd" fill-opacity="1" /><path clip-path="url(#clip620)" d="M3212.27 178.972 L3212.27 177.098 Q3219.47 177.098 3223.19 173.263 Q3224.21 173.263 3224.39 173.497 Q3224.57 173.732 3224.57 174.815 L3224.57 208.455 Q3224.57 210.241 3225.44 210.798 Q3226.32 211.354 3230.16 211.354 L3232.06 211.354 L3232.06 213.198 Q3229.95 213.023 3222.34 213.023 Q3214.73 213.023 3212.65 213.198 L3212.65 211.354 L3214.55 211.354 Q3218.33 211.354 3219.24 210.827 Q3220.14 210.271 3220.14 208.455 L3220.14 177.391 Q3217.01 178.972 3212.27 178.972 Z" fill="#000000" fill-rule="evenodd" fill-opacity="1" /><path clip-path="url(#clip620)" d="M3249.89 194.021 Q3249.89 185.209 3252.11 180.407 Q3255.22 173.263 3262.54 173.263 Q3264.09 173.263 3265.7 173.702 Q3267.34 174.112 3269.39 175.722 Q3271.47 177.333 3272.73 179.968 Q3275.13 185.062 3275.13 194.021 Q3275.13 202.775 3272.9 207.548 Q3269.65 214.516 3262.48 214.516 Q3259.78 214.516 3257.03 213.14 Q3254.31 211.764 3252.58 208.455 Q3249.89 203.507 3249.89 194.021 M3254.87 193.289 Q3254.87 202.336 3255.51 205.937 Q3256.24 209.831 3258.23 211.529 Q3260.25 213.198 3262.48 213.198 Q3264.88 213.198 3266.87 211.412 Q3268.89 209.597 3269.51 205.703 Q3270.18 201.868 3270.15 193.289 Q3270.15 184.945 3269.56 181.607 Q3268.77 177.713 3266.67 176.162 Q3264.59 174.581 3262.48 174.581 Q3261.69 174.581 3260.84 174.815 Q3260.02 175.049 3258.82 175.722 Q3257.62 176.396 3256.68 178.065 Q3255.77 179.734 3255.33 182.251 Q3254.87 185.501 3254.87 193.289 Z" fill="#000000" fill-rule="evenodd" fill-opacity="1" /><path clip-path="url(#clip620)" d="M3279.82 194.021 Q3279.82 185.209 3282.05 180.407 Q3285.15 173.263 3292.47 173.263 Q3294.02 173.263 3295.63 173.702 Q3297.27 174.112 3299.32 175.722 Q3301.4 177.333 3302.66 179.968 Q3305.06 185.062 3305.06 194.021 Q3305.06 202.775 3302.84 207.548 Q3299.59 214.516 3292.41 214.516 Q3289.72 214.516 3286.97 213.14 Q3284.25 211.764 3282.52 208.455 Q3279.82 203.507 3279.82 194.021 M3284.8 193.289 Q3284.8 202.336 3285.45 205.937 Q3286.18 209.831 3288.17 211.529 Q3290.19 213.198 3292.41 213.198 Q3294.81 213.198 3296.81 211.412 Q3298.83 209.597 3299.44 205.703 Q3300.11 201.868 3300.08 193.289 Q3300.08 184.945 3299.5 181.607 Q3298.71 177.713 3296.6 176.162 Q3294.52 174.581 3292.41 174.581 Q3291.62 174.581 3290.77 174.815 Q3289.95 175.049 3288.75 175.722 Q3287.55 176.396 3286.62 178.065 Q3285.71 179.734 3285.27 182.251 Q3284.8 185.501 3284.8 193.289 Z" fill="#000000" fill-rule="evenodd" fill-opacity="1" /><path clip-path="url(#clip620)" d="M3309.76 194.021 Q3309.76 185.209 3311.98 180.407 Q3315.09 173.263 3322.41 173.263 Q3323.96 173.263 3325.57 173.702 Q3327.21 174.112 3329.26 175.722 Q3331.34 177.333 3332.6 179.968 Q3335 185.062 3335 194.021 Q3335 202.775 3332.77 207.548 Q3329.52 214.516 3322.35 214.516 Q3319.66 214.516 3316.9 213.14 Q3314.18 211.764 3312.45 208.455 Q3309.76 203.507 3309.76 194.021 M3314.74 193.289 Q3314.74 202.336 3315.38 205.937 Q3316.11 209.831 3318.1 211.529 Q3320.12 213.198 3322.35 213.198 Q3324.75 213.198 3326.74 211.412 Q3328.76 209.597 3329.38 205.703 Q3330.05 201.868 3330.02 193.289 Q3330.02 184.945 3329.43 181.607 Q3328.64 177.713 3326.54 176.162 Q3324.46 174.581 3322.35 174.581 Q3321.56 174.581 3320.71 174.815 Q3319.89 175.049 3318.69 175.722 Q3317.49 176.396 3316.55 178.065 Q3315.64 179.734 3315.21 182.251 Q3314.74 185.501 3314.74 193.289 Z" fill="#000000" fill-rule="evenodd" fill-opacity="1" /><polyline clip-path="url(#clip620)" style="stroke:#e26f46; stroke-linecap:round; stroke-linejoin:round; stroke-width:5; stroke-opacity:1; fill:none" points="
  2768.59,263.455 2979.66,263.455 
  "/>
<circle clip-path="url(#clip620)" cx="2874.13" cy="263.455" r="23.4529" fill="#e26f46" fill-rule="evenodd" fill-opacity="1" stroke="#000000" stroke-opacity="1" stroke-width="5.76"/>
<path clip-path="url(#clip620)" d="M3065.32 237.712 Q3065.32 238.912 3064.29 238.912 Q3060.99 239.029 3059.64 240.142 Q3058.32 241.225 3057.82 243.333 L3049.45 276.739 Q3049.16 277.793 3048.98 277.911 Q3048.81 277.998 3048.48 277.998 Q3048.07 277.998 3047.84 277.793 Q3047.63 277.588 3047.34 276.856 L3032.41 241.547 Q3032.29 241.313 3032.15 240.991 Q3032 240.669 3031.88 240.464 L3023.95 272.113 Q3023.71 273.021 3023.71 273.49 Q3023.71 274.631 3024.5 275.363 Q3025.32 276.066 3027.67 276.154 Q3028.87 276.154 3028.87 276.798 Q3028.87 277.998 3027.78 277.998 Q3026.79 277.998 3024.71 277.911 Q3022.63 277.823 3021.61 277.823 Q3020.61 277.823 3018.59 277.911 Q3016.57 277.998 3015.6 277.998 Q3014.84 277.998 3014.84 277.325 Q3014.84 276.798 3015.05 276.534 Q3015.25 276.242 3015.43 276.212 Q3015.6 276.154 3015.87 276.154 Q3017.62 276.095 3018.82 275.744 Q3020.03 275.393 3020.7 274.719 Q3021.4 274.046 3021.72 273.372 Q3022.07 272.67 3022.34 271.645 L3030.36 239.439 Q3030.36 238.912 3026.29 238.912 Q3025.59 238.912 3025.3 238.883 Q3025.03 238.854 3024.83 238.707 Q3024.62 238.561 3024.62 238.239 Q3024.62 237.419 3024.97 237.243 Q3025.32 237.038 3026.35 237.038 L3034.4 237.038 Q3035.43 237.038 3035.69 237.214 Q3035.95 237.36 3036.3 238.18 L3049.57 269.478 L3056.27 242.806 Q3056.45 242.279 3056.45 241.547 Q3056.45 240.376 3055.57 239.673 Q3054.72 238.941 3052.38 238.912 Q3051.29 238.912 3051.29 238.239 Q3051.29 237.682 3051.5 237.419 Q3051.73 237.126 3051.91 237.097 Q3052.11 237.038 3052.38 237.038 Q3053.37 237.038 3055.42 237.126 Q3057.47 237.214 3058.5 237.214 Q3059.49 237.214 3061.51 237.126 Q3063.56 237.038 3064.56 237.038 Q3064.91 237.038 3065.08 237.214 Q3065.29 237.36 3065.32 237.536 L3065.32 237.712 Z" fill="#000000" fill-rule="evenodd" fill-opacity="1" /><path clip-path="url(#clip620)" d="M3105.63 283.018 Q3105.63 283.182 3105.44 283.818 Q3105.26 284.453 3104.81 285.437 Q3104.38 286.421 3103.76 287.322 Q3103.17 288.204 3102.18 288.859 Q3101.22 289.495 3100.11 289.495 Q3098.64 289.495 3097.65 288.511 Q3096.67 287.527 3096.67 286.052 Q3096.67 285.252 3097.22 283.736 Q3099.83 276.809 3099.83 274.329 Q3099.83 271.398 3097.55 271.398 Q3096.26 271.398 3095.09 271.931 Q3093.92 272.464 3093.16 273.201 Q3092.41 273.939 3091.81 274.78 Q3091.22 275.62 3090.95 276.173 Q3090.71 276.727 3090.64 276.972 L3088.12 287.097 Q3087.92 287.958 3087.77 288.368 Q3087.63 288.777 3087.24 289.126 Q3086.85 289.495 3086.24 289.495 Q3085.73 289.495 3085.36 289.187 Q3085.01 288.88 3085.01 288.347 Q3085.01 288.265 3085.11 287.835 Q3085.21 287.404 3085.36 286.81 Q3085.5 286.216 3085.56 285.867 Q3086.3 283.08 3086.4 282.69 L3087.57 277.813 Q3088.2 275.394 3088.2 274.329 Q3088.2 271.398 3085.93 271.398 Q3084.8 271.398 3083.74 271.828 Q3082.69 272.238 3081.97 272.812 Q3081.26 273.386 3080.6 274.185 Q3079.97 274.964 3079.64 275.497 Q3079.33 276.009 3079.08 276.522 L3078.55 278.612 Q3078.43 279.186 3077.83 281.42 L3076.91 285.211 Q3076.26 288.04 3076.11 288.306 Q3075.91 288.88 3075.46 289.187 Q3075.01 289.495 3074.56 289.495 Q3074.04 289.495 3073.69 289.187 Q3073.35 288.88 3073.35 288.347 Q3073.35 288.265 3073.41 287.958 Q3073.47 287.65 3073.57 287.22 Q3073.67 286.789 3073.72 286.543 L3076.15 276.85 Q3076.6 275.087 3076.71 274.534 Q3076.83 273.96 3076.83 273.324 Q3076.83 271.398 3075.52 271.398 Q3074.45 271.398 3073.76 272.669 Q3073.06 273.939 3072.47 276.399 Q3072.28 277.075 3072.16 277.218 Q3072.06 277.362 3071.75 277.362 Q3071.24 277.341 3071.24 276.932 Q3071.24 276.829 3071.4 276.173 Q3071.56 275.517 3071.87 274.534 Q3072.2 273.529 3072.55 272.874 Q3072.75 272.443 3072.94 272.156 Q3073.12 271.869 3073.49 271.418 Q3073.86 270.968 3074.41 270.722 Q3074.97 270.476 3075.64 270.476 Q3077.14 270.476 3078.24 271.439 Q3079.37 272.402 3079.52 274.124 Q3082.24 270.476 3086.05 270.476 Q3088.2 270.476 3089.5 271.562 Q3090.71 272.607 3090.85 274.534 Q3093.68 270.476 3097.69 270.476 Q3100.01 270.476 3101.26 271.685 Q3102.51 272.874 3102.51 274.964 Q3102.51 276.05 3101.96 278.12 Q3101.4 280.17 3101.03 281.194 Q3100.67 282.219 3099.95 284.187 Q3099.19 286.072 3099.19 287.179 Q3099.19 287.896 3099.44 288.224 Q3099.68 288.552 3100.21 288.552 Q3101.03 288.552 3101.75 288.081 Q3102.47 287.589 3102.98 286.789 Q3103.51 285.97 3103.86 285.15 Q3104.21 284.31 3104.48 283.367 Q3104.64 282.854 3104.72 282.731 Q3104.83 282.609 3105.11 282.609 Q3105.63 282.609 3105.63 283.018 Z" fill="#000000" fill-rule="evenodd" fill-opacity="1" /><path clip-path="url(#clip620)" d="M3124.58 284.166 Q3124.74 284.351 3124.74 284.535 Q3124.74 284.719 3124.33 285.252 Q3123.94 285.785 3123.1 286.502 Q3122.26 287.22 3121.17 287.896 Q3120.09 288.572 3118.49 289.023 Q3116.89 289.495 3115.21 289.495 Q3112.07 289.495 3110.23 287.425 Q3108.41 285.355 3108.41 282.383 Q3108.41 279.493 3110.03 276.727 Q3111.64 273.939 3114.27 272.218 Q3116.89 270.476 3119.66 270.476 Q3121.85 270.476 3123.22 271.5 Q3124.6 272.525 3124.6 274.083 Q3124.6 275.292 3123.9 276.03 Q3123.2 276.768 3122.26 276.768 Q3121.6 276.768 3121.15 276.399 Q3120.7 276.009 3120.7 275.292 Q3120.7 274.37 3121.46 273.652 Q3121.75 273.365 3122.08 273.242 Q3122.42 273.099 3122.63 273.099 Q3122.83 273.079 3123.31 273.079 Q3122.88 272.279 3121.85 271.849 Q3120.85 271.398 3119.7 271.398 Q3118 271.398 3116.38 272.587 Q3114.76 273.755 3113.78 275.599 Q3112.79 277.403 3112.16 279.965 Q3111.52 282.506 3111.52 283.982 Q3111.52 286.011 3112.46 287.281 Q3113.41 288.552 3115.29 288.552 Q3115.66 288.552 3116.05 288.531 Q3116.46 288.511 3117.49 288.286 Q3118.53 288.06 3119.45 287.671 Q3120.37 287.281 3121.54 286.441 Q3122.73 285.58 3123.67 284.412 Q3124 283.982 3124.23 283.982 Q3124.41 283.982 3124.58 284.166 Z" fill="#000000" fill-rule="evenodd" fill-opacity="1" /><path clip-path="url(#clip620)" d="M3149.43 268.893 Q3149.49 268.161 3150.63 268.161 L3187.38 268.161 Q3189.1 268.161 3189.13 268.834 Q3189.13 269.566 3187.49 269.537 L3151.04 269.537 Q3149.43 269.566 3149.43 268.893 M3149.43 257.182 Q3149.43 256.45 3150.69 256.479 L3187.32 256.479 Q3189.1 256.479 3189.13 257.182 Q3189.13 257.855 3187.61 257.855 L3150.63 257.855 Q3149.43 257.855 3149.43 257.182 Z" fill="#000000" fill-rule="evenodd" fill-opacity="1" /><path clip-path="url(#clip620)" d="M3212.27 243.772 L3212.27 241.898 Q3219.47 241.898 3223.19 238.063 Q3224.21 238.063 3224.39 238.297 Q3224.57 238.532 3224.57 239.615 L3224.57 273.255 Q3224.57 275.041 3225.44 275.598 Q3226.32 276.154 3230.16 276.154 L3232.06 276.154 L3232.06 277.998 Q3229.95 277.823 3222.34 277.823 Q3214.73 277.823 3212.65 277.998 L3212.65 276.154 L3214.55 276.154 Q3218.33 276.154 3219.24 275.627 Q3220.14 275.071 3220.14 273.255 L3220.14 242.191 Q3217.01 243.772 3212.27 243.772 Z" fill="#000000" fill-rule="evenodd" fill-opacity="1" /><path clip-path="url(#clip620)" d="M3234.93 258.821 Q3234.93 250.009 3237.15 245.207 Q3240.26 238.063 3247.58 238.063 Q3249.13 238.063 3250.74 238.502 Q3252.38 238.912 3254.43 240.522 Q3256.51 242.133 3257.77 244.768 Q3260.17 249.862 3260.17 258.821 Q3260.17 267.575 3257.94 272.348 Q3254.69 279.316 3247.52 279.316 Q3244.83 279.316 3242.07 277.94 Q3239.35 276.564 3237.62 273.255 Q3234.93 268.307 3234.93 258.821 M3239.91 258.089 Q3239.91 267.136 3240.55 270.737 Q3241.28 274.631 3243.27 276.329 Q3245.29 277.998 3247.52 277.998 Q3249.92 277.998 3251.91 276.212 Q3253.93 274.397 3254.55 270.503 Q3255.22 266.668 3255.19 258.089 Q3255.19 249.745 3254.6 246.407 Q3253.81 242.513 3251.71 240.962 Q3249.63 239.381 3247.52 239.381 Q3246.73 239.381 3245.88 239.615 Q3245.06 239.849 3243.86 240.522 Q3242.66 241.196 3241.72 242.865 Q3240.81 244.534 3240.38 247.051 Q3239.91 250.301 3239.91 258.089 Z" fill="#000000" fill-rule="evenodd" fill-opacity="1" /><path clip-path="url(#clip620)" d="M3272.55 258.821 Q3272.55 250.009 3274.77 245.207 Q3277.88 238.063 3285.2 238.063 Q3286.75 238.063 3288.36 238.502 Q3290 238.912 3292.05 240.522 Q3294.13 242.133 3295.39 244.768 Q3297.79 249.862 3297.79 258.821 Q3297.79 267.575 3295.56 272.348 Q3292.31 279.316 3285.14 279.316 Q3282.45 279.316 3279.69 277.94 Q3276.97 276.564 3275.24 273.255 Q3272.55 268.307 3272.55 258.821 M3277.53 258.089 Q3277.53 267.136 3278.17 270.737 Q3278.9 274.631 3280.89 276.329 Q3282.91 277.998 3285.14 277.998 Q3287.54 277.998 3289.53 276.212 Q3291.55 274.397 3292.17 270.503 Q3292.84 266.668 3292.81 258.089 Q3292.81 249.745 3292.22 246.407 Q3291.43 242.513 3289.33 240.962 Q3287.25 239.381 3285.14 239.381 Q3284.35 239.381 3283.5 239.615 Q3282.68 239.849 3281.48 240.522 Q3280.28 241.196 3279.34 242.865 Q3278.43 244.534 3277.99 247.051 Q3277.53 250.301 3277.53 258.089 Z" fill="#000000" fill-rule="evenodd" fill-opacity="1" /><path clip-path="url(#clip620)" d="M3302.48 258.821 Q3302.48 250.009 3304.71 245.207 Q3307.81 238.063 3315.13 238.063 Q3316.68 238.063 3318.29 238.502 Q3319.93 238.912 3321.98 240.522 Q3324.06 242.133 3325.32 244.768 Q3327.72 249.862 3327.72 258.821 Q3327.72 267.575 3325.5 272.348 Q3322.25 279.316 3315.07 279.316 Q3312.38 279.316 3309.63 277.94 Q3306.91 276.564 3305.18 273.255 Q3302.48 268.307 3302.48 258.821 M3307.46 258.089 Q3307.46 267.136 3308.11 270.737 Q3308.84 274.631 3310.83 276.329 Q3312.85 277.998 3315.07 277.998 Q3317.47 277.998 3319.47 276.212 Q3321.49 274.397 3322.1 270.503 Q3322.77 266.668 3322.74 258.089 Q3322.74 249.745 3322.16 246.407 Q3321.37 242.513 3319.26 240.962 Q3317.18 239.381 3315.07 239.381 Q3314.28 239.381 3313.43 239.615 Q3312.61 239.849 3311.41 240.522 Q3310.21 241.196 3309.28 242.865 Q3308.37 244.534 3307.93 247.051 Q3307.46 250.301 3307.46 258.089 Z" fill="#000000" fill-rule="evenodd" fill-opacity="1" /><path clip-path="url(#clip620)" d="M3332.42 258.821 Q3332.42 250.009 3334.64 245.207 Q3337.75 238.063 3345.07 238.063 Q3346.62 238.063 3348.23 238.502 Q3349.87 238.912 3351.92 240.522 Q3354 242.133 3355.26 244.768 Q3357.66 249.862 3357.66 258.821 Q3357.66 267.575 3355.43 272.348 Q3352.18 279.316 3345.01 279.316 Q3342.32 279.316 3339.56 277.94 Q3336.84 276.564 3335.11 273.255 Q3332.42 268.307 3332.42 258.821 M3337.4 258.089 Q3337.4 267.136 3338.04 270.737 Q3338.77 274.631 3340.76 276.329 Q3342.78 277.998 3345.01 277.998 Q3347.41 277.998 3349.4 276.212 Q3351.42 274.397 3352.04 270.503 Q3352.71 266.668 3352.68 258.089 Q3352.68 249.745 3352.09 246.407 Q3351.3 242.513 3349.2 240.962 Q3347.12 239.381 3345.01 239.381 Q3344.22 239.381 3343.37 239.615 Q3342.55 239.849 3341.35 240.522 Q3340.15 241.196 3339.21 242.865 Q3338.3 244.534 3337.87 247.051 Q3337.4 250.301 3337.4 258.089 Z" fill="#000000" fill-rule="evenodd" fill-opacity="1" /><polyline clip-path="url(#clip620)" style="stroke:#3da44d; stroke-linecap:round; stroke-linejoin:round; stroke-width:5; stroke-opacity:1; fill:none" points="
  2768.59,328.255 2979.66,328.255 
  "/>
<circle clip-path="url(#clip620)" cx="2874.13" cy="328.255" r="23.4529" fill="#3da44d" fill-rule="evenodd" fill-opacity="1" stroke="#000000" stroke-opacity="1" stroke-width="5.76"/>
<path clip-path="url(#clip620)" d="M3065.32 302.512 Q3065.32 303.712 3064.29 303.712 Q3060.99 303.829 3059.64 304.942 Q3058.32 306.025 3057.82 308.133 L3049.45 341.539 Q3049.16 342.593 3048.98 342.711 Q3048.81 342.798 3048.48 342.798 Q3048.07 342.798 3047.84 342.593 Q3047.63 342.388 3047.34 341.656 L3032.41 306.347 Q3032.29 306.113 3032.15 305.791 Q3032 305.469 3031.88 305.264 L3023.95 336.913 Q3023.71 337.821 3023.71 338.29 Q3023.71 339.431 3024.5 340.163 Q3025.32 340.866 3027.67 340.954 Q3028.87 340.954 3028.87 341.598 Q3028.87 342.798 3027.78 342.798 Q3026.79 342.798 3024.71 342.711 Q3022.63 342.623 3021.61 342.623 Q3020.61 342.623 3018.59 342.711 Q3016.57 342.798 3015.6 342.798 Q3014.84 342.798 3014.84 342.125 Q3014.84 341.598 3015.05 341.334 Q3015.25 341.042 3015.43 341.012 Q3015.6 340.954 3015.87 340.954 Q3017.62 340.895 3018.82 340.544 Q3020.03 340.193 3020.7 339.519 Q3021.4 338.846 3021.72 338.172 Q3022.07 337.47 3022.34 336.445 L3030.36 304.239 Q3030.36 303.712 3026.29 303.712 Q3025.59 303.712 3025.3 303.683 Q3025.03 303.654 3024.83 303.507 Q3024.62 303.361 3024.62 303.039 Q3024.62 302.219 3024.97 302.043 Q3025.32 301.838 3026.35 301.838 L3034.4 301.838 Q3035.43 301.838 3035.69 302.014 Q3035.95 302.16 3036.3 302.98 L3049.57 334.278 L3056.27 307.606 Q3056.45 307.079 3056.45 306.347 Q3056.45 305.176 3055.57 304.473 Q3054.72 303.741 3052.38 303.712 Q3051.29 303.712 3051.29 303.039 Q3051.29 302.482 3051.5 302.219 Q3051.73 301.926 3051.91 301.897 Q3052.11 301.838 3052.38 301.838 Q3053.37 301.838 3055.42 301.926 Q3057.47 302.014 3058.5 302.014 Q3059.49 302.014 3061.51 301.926 Q3063.56 301.838 3064.56 301.838 Q3064.91 301.838 3065.08 302.014 Q3065.29 302.16 3065.32 302.336 L3065.32 302.512 Z" fill="#000000" fill-rule="evenodd" fill-opacity="1" /><path clip-path="url(#clip620)" d="M3105.63 347.818 Q3105.63 347.982 3105.44 348.618 Q3105.26 349.253 3104.81 350.237 Q3104.38 351.221 3103.76 352.122 Q3103.17 353.004 3102.18 353.659 Q3101.22 354.295 3100.11 354.295 Q3098.64 354.295 3097.65 353.311 Q3096.67 352.327 3096.67 350.852 Q3096.67 350.052 3097.22 348.536 Q3099.83 341.609 3099.83 339.129 Q3099.83 336.198 3097.55 336.198 Q3096.26 336.198 3095.09 336.731 Q3093.92 337.264 3093.16 338.001 Q3092.41 338.739 3091.81 339.58 Q3091.22 340.42 3090.95 340.973 Q3090.71 341.527 3090.64 341.772 L3088.12 351.897 Q3087.92 352.758 3087.77 353.168 Q3087.63 353.577 3087.24 353.926 Q3086.85 354.295 3086.24 354.295 Q3085.73 354.295 3085.36 353.987 Q3085.01 353.68 3085.01 353.147 Q3085.01 353.065 3085.11 352.635 Q3085.21 352.204 3085.36 351.61 Q3085.5 351.016 3085.56 350.667 Q3086.3 347.88 3086.4 347.49 L3087.57 342.613 Q3088.2 340.194 3088.2 339.129 Q3088.2 336.198 3085.93 336.198 Q3084.8 336.198 3083.74 336.628 Q3082.69 337.038 3081.97 337.612 Q3081.26 338.186 3080.6 338.985 Q3079.97 339.764 3079.64 340.297 Q3079.33 340.809 3079.08 341.322 L3078.55 343.412 Q3078.43 343.986 3077.83 346.22 L3076.91 350.011 Q3076.26 352.84 3076.11 353.106 Q3075.91 353.68 3075.46 353.987 Q3075.01 354.295 3074.56 354.295 Q3074.04 354.295 3073.69 353.987 Q3073.35 353.68 3073.35 353.147 Q3073.35 353.065 3073.41 352.758 Q3073.47 352.45 3073.57 352.02 Q3073.67 351.589 3073.72 351.343 L3076.15 341.65 Q3076.6 339.887 3076.71 339.334 Q3076.83 338.76 3076.83 338.124 Q3076.83 336.198 3075.52 336.198 Q3074.45 336.198 3073.76 337.469 Q3073.06 338.739 3072.47 341.199 Q3072.28 341.875 3072.16 342.018 Q3072.06 342.162 3071.75 342.162 Q3071.24 342.141 3071.24 341.732 Q3071.24 341.629 3071.4 340.973 Q3071.56 340.317 3071.87 339.334 Q3072.2 338.329 3072.55 337.674 Q3072.75 337.243 3072.94 336.956 Q3073.12 336.669 3073.49 336.218 Q3073.86 335.768 3074.41 335.522 Q3074.97 335.276 3075.64 335.276 Q3077.14 335.276 3078.24 336.239 Q3079.37 337.202 3079.52 338.924 Q3082.24 335.276 3086.05 335.276 Q3088.2 335.276 3089.5 336.362 Q3090.71 337.407 3090.85 339.334 Q3093.68 335.276 3097.69 335.276 Q3100.01 335.276 3101.26 336.485 Q3102.51 337.674 3102.51 339.764 Q3102.51 340.85 3101.96 342.92 Q3101.4 344.97 3101.03 345.994 Q3100.67 347.019 3099.95 348.987 Q3099.19 350.872 3099.19 351.979 Q3099.19 352.696 3099.44 353.024 Q3099.68 353.352 3100.21 353.352 Q3101.03 353.352 3101.75 352.881 Q3102.47 352.389 3102.98 351.589 Q3103.51 350.77 3103.86 349.95 Q3104.21 349.11 3104.48 348.167 Q3104.64 347.654 3104.72 347.531 Q3104.83 347.409 3105.11 347.409 Q3105.63 347.409 3105.63 347.818 Z" fill="#000000" fill-rule="evenodd" fill-opacity="1" /><path clip-path="url(#clip620)" d="M3124.58 348.966 Q3124.74 349.151 3124.74 349.335 Q3124.74 349.519 3124.33 350.052 Q3123.94 350.585 3123.1 351.302 Q3122.26 352.02 3121.17 352.696 Q3120.09 353.372 3118.49 353.823 Q3116.89 354.295 3115.21 354.295 Q3112.07 354.295 3110.23 352.225 Q3108.41 350.155 3108.41 347.183 Q3108.41 344.293 3110.03 341.527 Q3111.64 338.739 3114.27 337.018 Q3116.89 335.276 3119.66 335.276 Q3121.85 335.276 3123.22 336.3 Q3124.6 337.325 3124.6 338.883 Q3124.6 340.092 3123.9 340.83 Q3123.2 341.568 3122.26 341.568 Q3121.6 341.568 3121.15 341.199 Q3120.7 340.809 3120.7 340.092 Q3120.7 339.17 3121.46 338.452 Q3121.75 338.165 3122.08 338.042 Q3122.42 337.899 3122.63 337.899 Q3122.83 337.879 3123.31 337.879 Q3122.88 337.079 3121.85 336.649 Q3120.85 336.198 3119.7 336.198 Q3118 336.198 3116.38 337.387 Q3114.76 338.555 3113.78 340.399 Q3112.79 342.203 3112.16 344.765 Q3111.52 347.306 3111.52 348.782 Q3111.52 350.811 3112.46 352.081 Q3113.41 353.352 3115.29 353.352 Q3115.66 353.352 3116.05 353.331 Q3116.46 353.311 3117.49 353.086 Q3118.53 352.86 3119.45 352.471 Q3120.37 352.081 3121.54 351.241 Q3122.73 350.38 3123.67 349.212 Q3124 348.782 3124.23 348.782 Q3124.41 348.782 3124.58 348.966 Z" fill="#000000" fill-rule="evenodd" fill-opacity="1" /><path clip-path="url(#clip620)" d="M3149.43 333.693 Q3149.49 332.961 3150.63 332.961 L3187.38 332.961 Q3189.1 332.961 3189.13 333.634 Q3189.13 334.366 3187.49 334.337 L3151.04 334.337 Q3149.43 334.366 3149.43 333.693 M3149.43 321.982 Q3149.43 321.25 3150.69 321.279 L3187.32 321.279 Q3189.1 321.279 3189.13 321.982 Q3189.13 322.655 3187.61 322.655 L3150.63 322.655 Q3149.43 322.655 3149.43 321.982 Z" fill="#000000" fill-rule="evenodd" fill-opacity="1" /><path clip-path="url(#clip620)" d="M3212.27 308.572 L3212.27 306.698 Q3219.47 306.698 3223.19 302.863 Q3224.21 302.863 3224.39 303.097 Q3224.57 303.332 3224.57 304.415 L3224.57 338.055 Q3224.57 339.841 3225.44 340.398 Q3226.32 340.954 3230.16 340.954 L3232.06 340.954 L3232.06 342.798 Q3229.95 342.623 3222.34 342.623 Q3214.73 342.623 3212.65 342.798 L3212.65 340.954 L3214.55 340.954 Q3218.33 340.954 3219.24 340.427 Q3220.14 339.871 3220.14 338.055 L3220.14 306.991 Q3217.01 308.572 3212.27 308.572 Z" fill="#000000" fill-rule="evenodd" fill-opacity="1" /><path clip-path="url(#clip620)" d="M3234.93 323.621 Q3234.93 314.809 3237.15 310.007 Q3240.26 302.863 3247.58 302.863 Q3249.13 302.863 3250.74 303.302 Q3252.38 303.712 3254.43 305.322 Q3256.51 306.933 3257.77 309.568 Q3260.17 314.662 3260.17 323.621 Q3260.17 332.375 3257.94 337.148 Q3254.69 344.116 3247.52 344.116 Q3244.83 344.116 3242.07 342.74 Q3239.35 341.364 3237.62 338.055 Q3234.93 333.107 3234.93 323.621 M3239.91 322.889 Q3239.91 331.936 3240.55 335.537 Q3241.28 339.431 3243.27 341.129 Q3245.29 342.798 3247.52 342.798 Q3249.92 342.798 3251.91 341.012 Q3253.93 339.197 3254.55 335.303 Q3255.22 331.468 3255.19 322.889 Q3255.19 314.545 3254.6 311.207 Q3253.81 307.313 3251.71 305.762 Q3249.63 304.181 3247.52 304.181 Q3246.73 304.181 3245.88 304.415 Q3245.06 304.649 3243.86 305.322 Q3242.66 305.996 3241.72 307.665 Q3240.81 309.334 3240.38 311.851 Q3239.91 315.101 3239.91 322.889 Z" fill="#000000" fill-rule="evenodd" fill-opacity="1" /><path clip-path="url(#clip620)" d="M3264.86 323.621 Q3264.86 314.809 3267.09 310.007 Q3270.19 302.863 3277.51 302.863 Q3279.06 302.863 3280.67 303.302 Q3282.31 303.712 3284.36 305.322 Q3286.44 306.933 3287.7 309.568 Q3290.1 314.662 3290.1 323.621 Q3290.1 332.375 3287.88 337.148 Q3284.63 344.116 3277.45 344.116 Q3274.76 344.116 3272.01 342.74 Q3269.29 341.364 3267.56 338.055 Q3264.86 333.107 3264.86 323.621 M3269.84 322.889 Q3269.84 331.936 3270.49 335.537 Q3271.22 339.431 3273.21 341.129 Q3275.23 342.798 3277.45 342.798 Q3279.86 342.798 3281.85 341.012 Q3283.87 339.197 3284.48 335.303 Q3285.15 331.468 3285.13 322.889 Q3285.13 314.545 3284.54 311.207 Q3283.75 307.313 3281.64 305.762 Q3279.56 304.181 3277.45 304.181 Q3276.66 304.181 3275.81 304.415 Q3274.99 304.649 3273.79 305.322 Q3272.59 305.996 3271.66 307.665 Q3270.75 309.334 3270.31 311.851 Q3269.84 315.101 3269.84 322.889 Z" fill="#000000" fill-rule="evenodd" fill-opacity="1" /><path clip-path="url(#clip620)" d="M3302.48 323.621 Q3302.48 314.809 3304.71 310.007 Q3307.81 302.863 3315.13 302.863 Q3316.68 302.863 3318.29 303.302 Q3319.93 303.712 3321.98 305.322 Q3324.06 306.933 3325.32 309.568 Q3327.72 314.662 3327.72 323.621 Q3327.72 332.375 3325.5 337.148 Q3322.25 344.116 3315.07 344.116 Q3312.38 344.116 3309.63 342.74 Q3306.91 341.364 3305.18 338.055 Q3302.48 333.107 3302.48 323.621 M3307.46 322.889 Q3307.46 331.936 3308.11 335.537 Q3308.84 339.431 3310.83 341.129 Q3312.85 342.798 3315.07 342.798 Q3317.47 342.798 3319.47 341.012 Q3321.49 339.197 3322.1 335.303 Q3322.77 331.468 3322.74 322.889 Q3322.74 314.545 3322.16 311.207 Q3321.37 307.313 3319.26 305.762 Q3317.18 304.181 3315.07 304.181 Q3314.28 304.181 3313.43 304.415 Q3312.61 304.649 3311.41 305.322 Q3310.21 305.996 3309.28 307.665 Q3308.37 309.334 3307.93 311.851 Q3307.46 315.101 3307.46 322.889 Z" fill="#000000" fill-rule="evenodd" fill-opacity="1" /><path clip-path="url(#clip620)" d="M3332.42 323.621 Q3332.42 314.809 3334.64 310.007 Q3337.75 302.863 3345.07 302.863 Q3346.62 302.863 3348.23 303.302 Q3349.87 303.712 3351.92 305.322 Q3354 306.933 3355.26 309.568 Q3357.66 314.662 3357.66 323.621 Q3357.66 332.375 3355.43 337.148 Q3352.18 344.116 3345.01 344.116 Q3342.32 344.116 3339.56 342.74 Q3336.84 341.364 3335.11 338.055 Q3332.42 333.107 3332.42 323.621 M3337.4 322.889 Q3337.4 331.936 3338.04 335.537 Q3338.77 339.431 3340.76 341.129 Q3342.78 342.798 3345.01 342.798 Q3347.41 342.798 3349.4 341.012 Q3351.42 339.197 3352.04 335.303 Q3352.71 331.468 3352.68 322.889 Q3352.68 314.545 3352.09 311.207 Q3351.3 307.313 3349.2 305.762 Q3347.12 304.181 3345.01 304.181 Q3344.22 304.181 3343.37 304.415 Q3342.55 304.649 3341.35 305.322 Q3340.15 305.996 3339.21 307.665 Q3338.3 309.334 3337.87 311.851 Q3337.4 315.101 3337.4 322.889 Z" fill="#000000" fill-rule="evenodd" fill-opacity="1" /><path clip-path="url(#clip620)" d="M3362.35 323.621 Q3362.35 314.809 3364.58 310.007 Q3367.68 302.863 3375 302.863 Q3376.55 302.863 3378.17 303.302 Q3379.8 303.712 3381.85 305.322 Q3383.93 306.933 3385.19 309.568 Q3387.59 314.662 3387.59 323.621 Q3387.59 332.375 3385.37 337.148 Q3382.12 344.116 3374.94 344.116 Q3372.25 344.116 3369.5 342.74 Q3366.78 341.364 3365.05 338.055 Q3362.35 333.107 3362.35 323.621 M3367.33 322.889 Q3367.33 331.936 3367.98 335.537 Q3368.71 339.431 3370.7 341.129 Q3372.72 342.798 3374.94 342.798 Q3377.35 342.798 3379.34 341.012 Q3381.36 339.197 3381.97 335.303 Q3382.64 331.468 3382.62 322.889 Q3382.62 314.545 3382.03 311.207 Q3381.24 307.313 3379.13 305.762 Q3377.05 304.181 3374.94 304.181 Q3374.15 304.181 3373.3 304.415 Q3372.49 304.649 3371.28 305.322 Q3370.08 305.996 3369.15 307.665 Q3368.24 309.334 3367.8 311.851 Q3367.33 315.101 3367.33 322.889 Z" fill="#000000" fill-rule="evenodd" fill-opacity="1" /></svg>
