<?xml version="1.0" encoding="utf-8"?>
<svg xmlns="http://www.w3.org/2000/svg" xmlns:xlink="http://www.w3.org/1999/xlink" width="900" height="300" viewBox="0 0 3600 1200">
<defs>
  <clipPath id="clip770">
    <rect x="0" y="0" width="3600" height="1200"/>
  </clipPath>
</defs>
<path clip-path="url(#clip770)" d="
M0 1200 L3600 1200 L3600 0 L0 0  Z
  " fill="#ffffff" fill-rule="evenodd" fill-opacity="1"/>
<defs>
  <clipPath id="clip771">
    <rect x="720" y="0" width="2521" height="1200"/>
  </clipPath>
</defs>
<defs>
  <clipPath id="clip772">
    <rect x="260" y="47" width="3293" height="1011"/>
  </clipPath>
</defs>
<path clip-path="url(#clip770)" d="
M260.634 1057.42 L3552.76 1057.42 L3552.76 47.2441 L260.634 47.2441  Z
  " fill="#ffffff" fill-rule="evenodd" fill-opacity="1"/>
<polyline clip-path="url(#clip772)" style="stroke:#000000; stroke-linecap:butt; stroke-linejoin:round; stroke-width:2; stroke-opacity:0.1; fill:none" points="
  517.269,1057.42 517.269,47.2441 
  "/>
<polyline clip-path="url(#clip772)" style="stroke:#000000; stroke-linecap:butt; stroke-linejoin:round; stroke-width:2; stroke-opacity:0.1; fill:none" points="
  844.193,1057.42 844.193,47.2441 
  "/>
<polyline clip-path="url(#clip772)" style="stroke:#000000; stroke-linecap:butt; stroke-linejoin:round; stroke-width:2; stroke-opacity:0.1; fill:none" points="
  1171.12,1057.42 1171.12,47.2441 
  "/>
<polyline clip-path="url(#clip772)" style="stroke:#000000; stroke-linecap:butt; stroke-linejoin:round; stroke-width:2; stroke-opacity:0.1; fill:none" points="
  1498.04,1057.42 1498.04,47.2441 
  "/>
<polyline clip-path="url(#clip772)" style="stroke:#000000; stroke-linecap:butt; stroke-linejoin:round; stroke-width:2; stroke-opacity:0.1; fill:none" points="
  1824.96,1057.42 1824.96,47.2441 
  "/>
<polyline clip-path="url(#clip772)" style="stroke:#000000; stroke-linecap:butt; stroke-linejoin:round; stroke-width:2; stroke-opacity:0.1; fill:none" points="
  2151.89,1057.42 2151.89,47.2441 
  "/>
<polyline clip-path="url(#clip772)" style="stroke:#000000; stroke-linecap:butt; stroke-linejoin:round; stroke-width:2; stroke-opacity:0.1; fill:none" points="
  2478.81,1057.42 2478.81,47.2441 
  "/>
<polyline clip-path="url(#clip772)" style="stroke:#000000; stroke-linecap:butt; stroke-linejoin:round; stroke-width:2; stroke-opacity:0.1; fill:none" points="
  2805.74,1057.42 2805.74,47.2441 
  "/>
<polyline clip-path="url(#clip772)" style="stroke:#000000; stroke-linecap:butt; stroke-linejoin:round; stroke-width:2; stroke-opacity:0.1; fill:none" points="
  3132.66,1057.42 3132.66,47.2441 
  "/>
<polyline clip-path="url(#clip772)" style="stroke:#000000; stroke-linecap:butt; stroke-linejoin:round; stroke-width:2; stroke-opacity:0.1; fill:none" points="
  3459.58,1057.42 3459.58,47.2441 
  "/>
<polyline clip-path="url(#clip770)" style="stroke:#000000; stroke-linecap:butt; stroke-linejoin:round; stroke-width:4; stroke-opacity:1; fill:none" points="
  260.634,1057.42 3552.76,1057.42 
  "/>
<polyline clip-path="url(#clip770)" style="stroke:#000000; stroke-linecap:butt; stroke-linejoin:round; stroke-width:4; stroke-opacity:1; fill:none" points="
  260.634,47.2441 3552.76,47.2441 
  "/>
<polyline clip-path="url(#clip770)" style="stroke:#000000; stroke-linecap:butt; stroke-linejoin:round; stroke-width:4; stroke-opacity:1; fill:none" points="
  517.269,1057.42 517.269,1038.52 
  "/>
<polyline clip-path="url(#clip770)" style="stroke:#000000; stroke-linecap:butt; stroke-linejoin:round; stroke-width:4; stroke-opacity:1; fill:none" points="
  844.193,1057.42 844.193,1038.52 
  "/>
<polyline clip-path="url(#clip770)" style="stroke:#000000; stroke-linecap:butt; stroke-linejoin:round; stroke-width:4; stroke-opacity:1; fill:none" points="
  1171.12,1057.42 1171.12,1038.52 
  "/>
<polyline clip-path="url(#clip770)" style="stroke:#000000; stroke-linecap:butt; stroke-linejoin:round; stroke-width:4; stroke-opacity:1; fill:none" points="
  1498.04,1057.42 1498.04,1038.52 
  "/>
<polyline clip-path="url(#clip770)" style="stroke:#000000; stroke-linecap:butt; stroke-linejoin:round; stroke-width:4; stroke-opacity:1; fill:none" points="
  1824.96,1057.42 1824.96,1038.52 
  "/>
<polyline clip-path="url(#clip770)" style="stroke:#000000; stroke-linecap:butt; stroke-linejoin:round; stroke-width:4; stroke-opacity:1; fill:none" points="
  2151.89,1057.42 2151.89,1038.52 
  "/>
<polyline clip-path="url(#clip770)" style="stroke:#000000; stroke-linecap:butt; stroke-linejoin:round; stroke-width:4; stroke-opacity:1; fill:none" points="
  2478.81,1057.42 2478.81,1038.52 
  "/>
<polyline clip-path="url(#clip770)" style="stroke:#000000; stroke-linecap:butt; stroke-linejoin:round; stroke-width:4; stroke-opacity:1; fill:none" points="
  2805.74,1057.42 2805.74,1038.52 
  "/>
<polyline clip-path="url(#clip770)" style="stroke:#000000; stroke-linecap:butt; stroke-linejoin:round; stroke-width:4; stroke-opacity:1; fill:none" points="
  3132.66,1057.42 3132.66,1038.52 
  "/>
<polyline clip-path="url(#clip770)" style="stroke:#000000; stroke-linecap:butt; stroke-linejoin:round; stroke-width:4; stroke-opacity:1; fill:none" points="
  3459.58,1057.42 3459.58,1038.52 
  "/>
<path clip-path="url(#clip770)" d="M506.832 1104.12 L506.832 1102.15 Q514.429 1102.15 518.35 1098.1 Q519.431 1098.1 519.616 1098.35 Q519.802 1098.59 519.802 1099.74 L519.802 1135.22 Q519.802 1137.1 520.728 1137.69 Q521.654 1138.27 525.699 1138.27 L527.707 1138.27 L527.707 1140.22 Q525.483 1140.03 517.455 1140.03 Q509.426 1140.03 507.234 1140.22 L507.234 1138.27 L509.241 1138.27 Q513.224 1138.27 514.182 1137.72 Q515.139 1137.13 515.139 1135.22 L515.139 1102.45 Q511.835 1104.12 506.832 1104.12 Z" fill="#000000" fill-rule="evenodd" fill-opacity="1" /><path clip-path="url(#clip770)" d="M831.564 1140.22 Q831.564 1139.08 831.656 1138.74 Q831.78 1138.4 832.274 1137.87 L844.409 1124.35 Q851.048 1116.88 851.048 1110.36 Q851.048 1106.13 848.825 1103.1 Q846.633 1100.08 842.587 1100.08 Q839.808 1100.08 837.461 1101.78 Q835.115 1103.47 834.034 1106.5 Q834.219 1106.44 834.868 1106.44 Q836.442 1106.44 837.307 1107.43 Q838.203 1108.41 838.203 1109.74 Q838.203 1111.44 837.091 1112.27 Q836.01 1113.08 834.929 1113.08 Q834.497 1113.08 833.91 1112.98 Q833.355 1112.89 832.459 1112.03 Q831.564 1111.13 831.564 1109.56 Q831.564 1105.14 834.898 1101.62 Q838.264 1098.1 843.39 1098.1 Q849.196 1098.1 852.994 1101.56 Q856.823 1104.99 856.823 1110.36 Q856.823 1112.24 856.236 1113.97 Q855.68 1115.67 854.908 1117 Q854.167 1118.33 852.129 1120.46 Q850.091 1122.59 848.454 1124.1 Q846.818 1125.61 843.143 1128.83 L836.442 1135.34 L847.837 1135.34 Q853.395 1135.34 853.827 1134.85 Q854.445 1133.95 855.217 1129.23 L856.823 1129.23 L855.032 1140.22 L831.564 1140.22 Z" fill="#000000" fill-rule="evenodd" fill-opacity="1" /><path clip-path="url(#clip770)" d="M1157.99 1131.7 Q1157.99 1129.81 1159.07 1128.92 Q1160.15 1128.02 1161.54 1128.02 Q1163 1128.02 1164.01 1128.98 Q1165.06 1129.91 1165.06 1131.54 Q1165.06 1133.3 1163.83 1134.29 Q1162.63 1135.28 1160.9 1135.03 Q1162.41 1137.56 1165.19 1138.71 Q1168 1139.85 1170.59 1139.85 Q1173.31 1139.85 1175.5 1137.5 Q1177.72 1135.16 1177.72 1129.41 Q1177.72 1124.53 1175.81 1121.72 Q1173.93 1118.91 1170.19 1118.91 L1167.41 1118.91 Q1166.45 1118.91 1166.18 1118.82 Q1165.9 1118.73 1165.9 1118.2 Q1165.9 1117.59 1166.86 1117.46 Q1167.81 1117.46 1169.33 1117.28 Q1173 1117.15 1174.95 1113.97 Q1176.71 1111.01 1176.71 1106.78 Q1176.71 1102.92 1174.85 1101.31 Q1173.03 1099.68 1170.65 1099.68 Q1168.43 1099.68 1165.99 1100.6 Q1163.55 1101.53 1162.22 1103.6 Q1166.15 1103.6 1166.15 1106.78 Q1166.15 1108.17 1165.25 1109.09 Q1164.39 1109.99 1162.93 1109.99 Q1161.54 1109.99 1160.62 1109.12 Q1159.69 1108.23 1159.69 1106.72 Q1159.69 1103.1 1162.9 1100.6 Q1166.15 1098.1 1170.9 1098.1 Q1175.59 1098.1 1179.05 1100.57 Q1182.54 1103.04 1182.54 1106.84 Q1182.54 1110.58 1180.07 1113.63 Q1177.6 1116.69 1173.68 1117.96 Q1178.5 1118.91 1181.37 1122.19 Q1184.24 1125.43 1184.24 1129.41 Q1184.24 1134.35 1180.35 1138 Q1176.46 1141.61 1170.78 1141.61 Q1165.53 1141.61 1161.76 1138.77 Q1157.99 1135.93 1157.99 1131.7 Z" fill="#000000" fill-rule="evenodd" fill-opacity="1" /><path clip-path="url(#clip770)" d="M1484.02 1129.78 L1484.02 1127.84 L1503.44 1098.16 Q1503.94 1097.39 1504.71 1097.42 Q1505.42 1097.42 1505.58 1097.7 Q1505.73 1097.98 1505.73 1099.06 L1505.73 1127.84 L1512.06 1127.84 L1512.06 1129.78 L1505.73 1129.78 L1505.73 1135.28 Q1505.73 1137.1 1506.47 1137.69 Q1507.24 1138.27 1510.52 1138.27 L1511.84 1138.27 L1511.84 1140.22 Q1509.25 1140.03 1503.26 1140.03 Q1497.3 1140.03 1494.71 1140.22 L1494.71 1138.27 L1496.03 1138.27 Q1499.31 1138.27 1500.08 1137.72 Q1500.85 1137.13 1500.85 1135.28 L1500.85 1129.78 L1484.02 1129.78 M1485.81 1127.84 L1501.22 1127.84 L1501.22 1104.25 L1485.81 1127.84 Z" fill="#000000" fill-rule="evenodd" fill-opacity="1" /><path clip-path="url(#clip770)" d="M1812.33 1130.03 Q1812.33 1128.15 1813.35 1127.44 Q1814.37 1126.69 1815.45 1126.69 Q1816.9 1126.69 1817.74 1127.62 Q1818.6 1128.52 1818.6 1129.78 Q1818.6 1131.05 1817.74 1131.98 Q1816.9 1132.87 1815.45 1132.87 Q1814.74 1132.87 1814.37 1132.75 Q1815.21 1135.65 1817.74 1137.75 Q1820.3 1139.85 1823.67 1139.85 Q1827.9 1139.85 1830.43 1135.74 Q1831.94 1133.09 1831.94 1127.07 Q1831.94 1121.75 1830.8 1119.1 Q1829.04 1115.05 1825.43 1115.05 Q1820.3 1115.05 1817.28 1119.47 Q1816.9 1120.02 1816.47 1120.06 Q1815.85 1120.06 1815.7 1119.72 Q1815.58 1119.35 1815.58 1118.39 L1815.58 1099.68 Q1815.58 1098.16 1816.19 1098.16 Q1816.44 1098.16 1816.97 1098.35 Q1820.95 1100.11 1825.37 1100.14 Q1829.9 1100.14 1833.98 1098.29 Q1834.29 1098.1 1834.47 1098.1 Q1835.09 1098.1 1835.12 1098.81 Q1835.12 1099.06 1834.6 1099.8 Q1834.1 1100.51 1833.02 1101.47 Q1831.94 1102.39 1830.55 1103.29 Q1829.16 1104.18 1827.13 1104.8 Q1825.12 1105.39 1822.9 1105.39 Q1820.24 1105.39 1817.52 1104.55 L1817.52 1116.88 Q1820.8 1113.66 1825.55 1113.66 Q1830.62 1113.66 1834.1 1117.74 Q1837.59 1121.82 1837.59 1127.5 Q1837.59 1133.46 1833.46 1137.53 Q1829.35 1141.61 1823.79 1141.61 Q1818.73 1141.61 1815.52 1138 Q1812.33 1134.38 1812.33 1130.03 Z" fill="#000000" fill-rule="evenodd" fill-opacity="1" /><path clip-path="url(#clip770)" d="M2138.76 1120.24 Q2138.76 1110.3 2143.83 1104.21 Q2148.89 1098.1 2155.41 1098.1 Q2159.21 1098.1 2161.31 1100.05 Q2163.44 1101.96 2163.44 1104.92 Q2163.44 1106.56 2162.48 1107.27 Q2161.52 1107.98 2160.53 1107.98 Q2159.39 1107.98 2158.5 1107.21 Q2157.6 1106.44 2157.6 1105.05 Q2157.6 1102.21 2161.09 1102.21 Q2159.45 1099.68 2155.53 1099.68 Q2154.33 1099.68 2153.09 1100.05 Q2151.86 1100.39 2150.25 1101.56 Q2148.65 1102.73 2147.41 1104.59 Q2146.18 1106.44 2145.31 1109.93 Q2144.45 1113.42 2144.45 1117.96 L2144.45 1119.47 Q2147.04 1113.2 2152.35 1113.23 Q2157.66 1113.23 2161.34 1117.28 Q2165.01 1121.32 2165.01 1127.31 Q2165.01 1133.46 2161.18 1137.53 Q2157.35 1141.61 2151.98 1141.61 Q2149.57 1141.61 2147.38 1140.59 Q2145.22 1139.6 2143.18 1137.32 Q2141.17 1135.03 2139.97 1130.65 Q2138.76 1126.26 2138.76 1120.24 M2144.57 1125.92 Q2144.57 1132.13 2145.71 1135.09 Q2145.9 1135.59 2146.3 1136.27 Q2146.73 1136.95 2147.44 1137.84 Q2148.18 1138.71 2149.39 1139.29 Q2150.59 1139.85 2151.98 1139.85 Q2156.21 1139.85 2158.25 1135.74 Q2159.33 1133.46 2159.33 1127.25 Q2159.33 1120.92 2158.19 1118.6 Q2156.24 1114.68 2152.29 1114.68 Q2149.63 1114.68 2147.78 1116.5 Q2145.96 1118.33 2145.25 1120.77 Q2144.57 1123.21 2144.57 1125.92 Z" fill="#000000" fill-rule="evenodd" fill-opacity="1" /><path clip-path="url(#clip770)" d="M2465.26 1110.48 L2467.32 1097.48 L2468.9 1097.48 Q2469.08 1098.26 2469.39 1098.59 Q2469.73 1098.93 2471.52 1099.21 Q2473.35 1099.49 2477.02 1099.49 L2492.37 1099.49 Q2492.37 1100.94 2491.81 1101.71 L2483.26 1113.73 Q2480.54 1117.52 2479.34 1124.53 Q2478.63 1129.23 2478.66 1134.91 L2478.66 1138.12 Q2478.66 1141.61 2475.72 1141.61 Q2472.82 1141.61 2472.82 1138.12 Q2472.82 1126.05 2480.6 1114.34 Q2481.44 1113.14 2484.49 1108.85 Q2487.58 1104.55 2487.7 1104.37 L2474.61 1104.37 Q2468.87 1104.37 2468.41 1104.74 Q2467.79 1105.3 2466.83 1110.48 L2465.26 1110.48 Z" fill="#000000" fill-rule="evenodd" fill-opacity="1" /><path clip-path="url(#clip770)" d="M2792.61 1130.68 Q2792.61 1123.61 2801.72 1119.04 Q2797.8 1116.38 2797.09 1115.61 Q2794.31 1112.52 2794.31 1108.66 Q2794.31 1104.25 2797.64 1101.19 Q2801.01 1098.1 2805.77 1098.1 Q2810.31 1098.1 2813.73 1100.73 Q2817.16 1103.35 2817.16 1107.52 Q2817.16 1113.39 2809.5 1117.34 Q2814.57 1120.49 2815.77 1121.82 Q2818.86 1125.24 2818.86 1129.6 Q2818.86 1134.66 2814.97 1138.15 Q2811.08 1141.61 2805.7 1141.61 Q2800.45 1141.61 2796.53 1138.55 Q2792.61 1135.5 2792.61 1130.68 M2795.76 1130.68 Q2795.76 1134.6 2798.69 1137.22 Q2801.66 1139.85 2805.77 1139.85 Q2809.75 1139.85 2812.71 1137.56 Q2815.71 1135.28 2815.71 1131.88 Q2815.71 1130.55 2815.25 1129.41 Q2814.81 1128.27 2813.92 1127.37 Q2813.05 1126.45 2812.5 1126.05 Q2811.97 1125.61 2810.95 1124.9 L2803.17 1119.99 Q2795.76 1124.1 2795.76 1130.68 M2797.09 1106.19 Q2797.09 1109.22 2800.27 1111.32 L2808.11 1116.38 Q2814.38 1112.71 2814.38 1107.52 Q2814.38 1104.15 2811.82 1101.93 Q2809.26 1099.68 2805.7 1099.68 Q2802.22 1099.68 2799.65 1101.53 Q2797.09 1103.35 2797.09 1106.19 Z" fill="#000000" fill-rule="evenodd" fill-opacity="1" /><path clip-path="url(#clip770)" d="M3119.54 1112.34 Q3119.54 1108.97 3120.52 1106.69 Q3121.51 1104.37 3123.58 1102.08 Q3127.38 1098.1 3132.88 1098.1 Q3135.22 1098.1 3137.29 1099.09 Q3139.39 1100.08 3141.37 1102.33 Q3143.37 1104.55 3144.58 1108.97 Q3145.78 1113.35 3145.78 1119.41 Q3145.78 1129.2 3141.03 1135.4 Q3136.3 1141.61 3129.91 1141.61 Q3125.87 1141.61 3123.49 1139.79 Q3121.11 1137.93 3121.11 1134.79 Q3121.11 1133.15 3122.04 1132.47 Q3122.96 1131.76 3124.01 1131.76 Q3125.16 1131.76 3126.05 1132.53 Q3126.95 1133.27 3126.95 1134.66 Q3126.95 1135.8 3126.21 1136.7 Q3125.49 1137.56 3123.64 1137.56 Q3125.46 1139.85 3129.85 1139.85 Q3131.42 1139.85 3133 1139.14 Q3134.57 1138.4 3136.27 1136.64 Q3138 1134.85 3139.05 1131.11 Q3140.1 1127.37 3140.1 1122.12 L3140.1 1120.12 Q3137.57 1126.45 3132.2 1126.45 Q3126.88 1126.45 3123.21 1122.37 Q3119.54 1118.3 3119.54 1112.34 M3125.22 1112.4 Q3125.22 1118.67 3126.36 1120.98 Q3128.3 1124.97 3132.26 1124.97 Q3136.12 1124.97 3138.03 1121.54 Q3139.98 1118.08 3139.98 1113.6 Q3139.98 1107.4 3138.96 1104.68 Q3137.07 1099.68 3132.88 1099.68 Q3128.71 1099.68 3126.54 1103.66 Q3125.22 1106.01 3125.22 1112.4 Z" fill="#000000" fill-rule="evenodd" fill-opacity="1" /><path clip-path="url(#clip770)" d="M3432.04 1104.12 L3432.04 1102.15 Q3439.63 1102.15 3443.56 1098.1 Q3444.64 1098.1 3444.82 1098.35 Q3445.01 1098.59 3445.01 1099.74 L3445.01 1135.22 Q3445.01 1137.1 3445.93 1137.69 Q3446.86 1138.27 3450.91 1138.27 L3452.91 1138.27 L3452.91 1140.22 Q3450.69 1140.03 3442.66 1140.03 Q3434.63 1140.03 3432.44 1140.22 L3432.44 1138.27 L3434.45 1138.27 Q3438.43 1138.27 3439.39 1137.72 Q3440.34 1137.13 3440.34 1135.22 L3440.34 1102.45 Q3437.04 1104.12 3432.04 1104.12 Z" fill="#000000" fill-rule="evenodd" fill-opacity="1" /><path clip-path="url(#clip770)" d="M3460.51 1119.99 Q3460.51 1110.7 3462.86 1105.64 Q3466.13 1098.1 3473.85 1098.1 Q3475.49 1098.1 3477.18 1098.56 Q3478.91 1099 3481.07 1100.69 Q3483.27 1102.39 3484.59 1105.17 Q3487.13 1110.54 3487.13 1119.99 Q3487.13 1129.23 3484.78 1134.26 Q3481.35 1141.61 3473.79 1141.61 Q3470.95 1141.61 3468.04 1140.16 Q3465.17 1138.71 3463.35 1135.22 Q3460.51 1130 3460.51 1119.99 M3465.76 1119.22 Q3465.76 1128.76 3466.44 1132.56 Q3467.21 1136.67 3469.31 1138.46 Q3471.44 1140.22 3473.79 1140.22 Q3476.32 1140.22 3478.42 1138.34 Q3480.55 1136.42 3481.2 1132.31 Q3481.91 1128.27 3481.88 1119.22 Q3481.88 1110.42 3481.26 1106.9 Q3480.43 1102.79 3478.2 1101.16 Q3476.01 1099.49 3473.79 1099.49 Q3472.95 1099.49 3472.06 1099.74 Q3471.19 1099.98 3469.93 1100.69 Q3468.66 1101.4 3467.67 1103.16 Q3466.72 1104.92 3466.25 1107.58 Q3465.76 1111.01 3465.76 1119.22 Z" fill="#000000" fill-rule="evenodd" fill-opacity="1" /><path clip-path="url(#clip770)" d="M1875.59 1248.8 L1875.59 1246.07 L1877.71 1246.07 Q1882.51 1246.07 1883.59 1245.29 Q1884.71 1244.47 1884.71 1241.88 L1884.71 1195.23 Q1884.71 1192.68 1883.59 1191.9 Q1882.46 1191.08 1877.71 1191.08 L1875.59 1191.08 L1875.59 1188.32 Q1878.7 1188.58 1888.69 1188.58 Q1898.59 1188.58 1901.7 1188.32 L1901.7 1191.08 L1899.58 1191.08 Q1894.79 1191.08 1893.66 1191.9 Q1892.58 1192.68 1892.58 1195.23 L1892.58 1223.38 L1920.29 1196.92 Q1921.89 1195.49 1921.89 1193.98 Q1921.89 1193.46 1921.63 1192.9 Q1921.42 1192.29 1920.38 1191.69 Q1919.38 1191.08 1917.78 1191.08 L1917.78 1188.32 Q1920.81 1188.58 1929.07 1188.58 Q1934.3 1188.58 1936.59 1188.32 L1936.59 1191.08 Q1929.24 1191.17 1924.01 1196.4 L1908.06 1211.7 L1928.51 1241.79 Q1930.36 1244.52 1932.18 1245.29 Q1934 1246.07 1937.8 1246.07 L1937.8 1248.8 Q1932.22 1248.54 1927.64 1248.54 Q1918.09 1248.54 1914.97 1248.8 L1914.97 1246.07 Q1920.2 1246.07 1920.2 1243.39 Q1920.2 1242.4 1918.86 1240.37 L1902.83 1216.68 L1892.58 1226.4 L1892.58 1241.88 Q1892.58 1244.43 1893.66 1245.25 Q1894.79 1246.07 1899.58 1246.07 L1901.7 1246.07 L1901.7 1248.8 Q1898.59 1248.54 1888.6 1248.54 Q1878.7 1248.54 1875.59 1248.8 Z" fill="#000000" fill-rule="evenodd" fill-opacity="1" /><polyline clip-path="url(#clip772)" style="stroke:#000000; stroke-linecap:butt; stroke-linejoin:round; stroke-width:2; stroke-opacity:0.1; fill:none" points="
  260.634,978.638 3552.76,978.638 
  "/>
<polyline clip-path="url(#clip772)" style="stroke:#000000; stroke-linecap:butt; stroke-linejoin:round; stroke-width:2; stroke-opacity:0.1; fill:none" points="
  260.634,427.488 3552.76,427.488 
  "/>
<polyline clip-path="url(#clip770)" style="stroke:#000000; stroke-linecap:butt; stroke-linejoin:round; stroke-width:4; stroke-opacity:1; fill:none" points="
  260.634,1057.42 260.634,47.2441 
  "/>
<polyline clip-path="url(#clip770)" style="stroke:#000000; stroke-linecap:butt; stroke-linejoin:round; stroke-width:4; stroke-opacity:1; fill:none" points="
  3552.76,1057.42 3552.76,47.2441 
  "/>
<polyline clip-path="url(#clip770)" style="stroke:#000000; stroke-linecap:butt; stroke-linejoin:round; stroke-width:4; stroke-opacity:1; fill:none" points="
  260.634,978.638 279.532,978.638 
  "/>
<polyline clip-path="url(#clip770)" style="stroke:#000000; stroke-linecap:butt; stroke-linejoin:round; stroke-width:4; stroke-opacity:1; fill:none" points="
  260.634,427.488 279.532,427.488 
  "/>
<path clip-path="url(#clip770)" d="M90.9802 972.2 L90.9802 970.223 Q98.5764 970.223 102.498 966.178 Q103.579 966.178 103.764 966.425 Q103.949 966.672 103.949 967.815 L103.949 1003.29 Q103.949 1005.18 104.876 1005.77 Q105.802 1006.35 109.847 1006.35 L111.854 1006.35 L111.854 1008.3 Q109.631 1008.11 101.603 1008.11 Q93.574 1008.11 91.3816 1008.3 L91.3816 1006.35 L93.3887 1006.35 Q97.3722 1006.35 98.3294 1005.8 Q99.2867 1005.21 99.2867 1003.29 L99.2867 970.532 Q95.9826 972.2 90.9802 972.2 Z" fill="#000000" fill-rule="evenodd" fill-opacity="1" /><path clip-path="url(#clip770)" d="M119.451 988.071 Q119.451 978.777 121.798 973.713 Q125.071 966.178 132.791 966.178 Q134.427 966.178 136.126 966.641 Q137.855 967.074 140.016 968.772 Q142.209 970.47 143.537 973.249 Q146.069 978.622 146.069 988.071 Q146.069 997.304 143.722 1002.34 Q140.294 1009.69 132.729 1009.69 Q129.888 1009.69 126.985 1008.24 Q124.114 1006.78 122.292 1003.29 Q119.451 998.076 119.451 988.071 M124.7 987.299 Q124.7 996.841 125.38 1000.64 Q126.152 1004.75 128.251 1006.54 Q130.382 1008.3 132.729 1008.3 Q135.261 1008.3 137.361 1006.41 Q139.491 1004.5 140.14 1000.39 Q140.85 996.347 140.819 987.299 Q140.819 978.499 140.202 974.979 Q139.368 970.872 137.145 969.235 Q134.952 967.568 132.729 967.568 Q131.895 967.568 131 967.815 Q130.135 968.062 128.869 968.772 Q127.603 969.482 126.615 971.242 Q125.657 973.002 125.194 975.658 Q124.7 979.086 124.7 987.299 Z" fill="#000000" fill-rule="evenodd" fill-opacity="1" /><path clip-path="url(#clip770)" d="M179.989 960.461 Q180.291 960.762 180.291 961.189 Q180.291 961.615 179.989 961.916 Q179.688 962.217 179.262 962.217 L147.097 962.217 Q146.671 962.217 146.37 961.916 Q146.069 961.615 146.069 961.189 Q146.069 960.762 146.37 960.461 Q146.671 960.16 147.097 960.16 L179.262 960.16 Q179.688 960.16 179.989 960.461 Z" fill="#000000" fill-rule="evenodd" fill-opacity="1" /><path clip-path="url(#clip770)" d="M185.308 967.11 Q185.308 965.579 186.187 964.852 Q187.065 964.124 188.194 964.124 Q189.373 964.124 190.201 964.902 Q191.054 965.654 191.054 966.984 Q191.054 968.414 190.05 969.217 Q189.072 970.02 187.667 969.819 Q188.896 971.877 191.154 972.805 Q193.437 973.733 195.545 973.733 Q197.753 973.733 199.534 971.826 Q201.34 969.92 201.34 965.253 Q201.34 961.289 199.785 959.006 Q198.254 956.723 195.219 956.723 L192.961 956.723 Q192.183 956.723 191.957 956.647 Q191.731 956.572 191.731 956.146 Q191.731 955.644 192.509 955.543 Q193.287 955.543 194.516 955.393 Q197.502 955.293 199.082 952.708 Q200.513 950.3 200.513 946.863 Q200.513 943.726 199.007 942.422 Q197.527 941.092 195.595 941.092 Q193.789 941.092 191.807 941.845 Q189.824 942.597 188.746 944.278 Q191.932 944.278 191.932 946.863 Q191.932 947.992 191.204 948.744 Q190.502 949.472 189.323 949.472 Q188.194 949.472 187.441 948.769 Q186.688 948.042 186.688 946.812 Q186.688 943.877 189.298 941.845 Q191.932 939.812 195.796 939.812 Q199.609 939.812 202.419 941.82 Q205.254 943.827 205.254 946.913 Q205.254 949.949 203.247 952.432 Q201.24 954.916 198.054 955.945 Q201.968 956.723 204.301 959.382 Q206.634 962.017 206.634 965.253 Q206.634 969.267 203.473 972.228 Q200.312 975.163 195.695 975.163 Q191.43 975.163 188.369 972.855 Q185.308 970.547 185.308 967.11 Z" fill="#000000" fill-rule="evenodd" fill-opacity="1" /><path clip-path="url(#clip770)" d="M91.3816 421.05 L91.3816 419.074 Q98.9779 419.074 102.9 415.029 Q103.98 415.029 104.166 415.276 Q104.351 415.523 104.351 416.665 L104.351 452.145 Q104.351 454.029 105.277 454.616 Q106.204 455.202 110.249 455.202 L112.256 455.202 L112.256 457.148 Q110.033 456.963 102.004 456.963 Q93.9754 456.963 91.783 457.148 L91.783 455.202 L93.7902 455.202 Q97.7736 455.202 98.7308 454.647 Q99.6881 454.06 99.6881 452.145 L99.6881 419.383 Q96.384 421.05 91.3816 421.05 Z" fill="#000000" fill-rule="evenodd" fill-opacity="1" /><path clip-path="url(#clip770)" d="M119.852 436.922 Q119.852 427.627 122.199 422.563 Q125.472 415.029 133.192 415.029 Q134.829 415.029 136.527 415.492 Q138.256 415.924 140.418 417.622 Q142.61 419.321 143.938 422.1 Q146.47 427.473 146.47 436.922 Q146.47 446.155 144.123 451.188 Q140.696 458.537 133.13 458.537 Q130.289 458.537 127.387 457.086 Q124.515 455.635 122.693 452.145 Q119.852 446.927 119.852 436.922 M125.102 436.15 Q125.102 445.692 125.781 449.49 Q126.553 453.597 128.653 455.388 Q130.783 457.148 133.13 457.148 Q135.662 457.148 137.762 455.264 Q139.893 453.35 140.541 449.243 Q141.251 445.198 141.221 436.15 Q141.221 427.349 140.603 423.829 Q139.769 419.722 137.546 418.086 Q135.354 416.418 133.13 416.418 Q132.297 416.418 131.401 416.665 Q130.536 416.912 129.27 417.622 Q128.004 418.333 127.016 420.093 Q126.059 421.853 125.596 424.508 Q125.102 427.936 125.102 436.15 Z" fill="#000000" fill-rule="evenodd" fill-opacity="1" /><path clip-path="url(#clip770)" d="M180.391 409.311 Q180.692 409.613 180.692 410.039 Q180.692 410.466 180.391 410.767 Q180.09 411.068 179.663 411.068 L147.499 411.068 Q147.072 411.068 146.771 410.767 Q146.47 410.466 146.47 410.039 Q146.47 409.613 146.771 409.311 Q147.072 409.01 147.499 409.01 L179.663 409.01 Q180.09 409.01 180.391 409.311 Z" fill="#000000" fill-rule="evenodd" fill-opacity="1" /><path clip-path="url(#clip770)" d="M186.111 422.885 Q186.111 421.956 186.187 421.681 Q186.287 421.405 186.688 420.978 L196.548 409.989 Q201.943 403.917 201.943 398.623 Q201.943 395.186 200.136 392.727 Q198.355 390.269 195.068 390.269 Q192.81 390.269 190.903 391.649 Q188.997 393.028 188.118 395.487 Q188.269 395.437 188.796 395.437 Q190.075 395.437 190.778 396.24 Q191.505 397.043 191.505 398.122 Q191.505 399.502 190.602 400.179 Q189.724 400.831 188.846 400.831 Q188.495 400.831 188.018 400.756 Q187.566 400.681 186.839 399.978 Q186.111 399.251 186.111 397.971 Q186.111 394.383 188.821 391.523 Q191.556 388.663 195.72 388.663 Q200.437 388.663 203.523 391.473 Q206.634 394.258 206.634 398.623 Q206.634 400.154 206.158 401.559 Q205.706 402.939 205.079 404.018 Q204.477 405.096 202.821 406.828 Q201.165 408.559 199.835 409.788 Q198.505 411.018 195.52 413.627 L190.075 418.921 L199.333 418.921 Q203.849 418.921 204.201 418.519 Q204.702 417.792 205.33 413.953 L206.634 413.953 L205.179 422.885 L186.111 422.885 Z" fill="#000000" fill-rule="evenodd" fill-opacity="1" /><path clip-path="url(#clip770)" d="M21.0368 786.338 Q20.7088 786.338 18.5774 785.232 Q16.405 784.125 8.658 780.231 Q0.870038 776.337 -7.28683 772.32 L-36.3892 757.851 Q-38.2337 756.826 -38.2337 755.514 Q-38.2337 754.326 -37.4959 753.793 Q-36.7581 753.26 -31.7984 750.801 Q-29.38 749.53 -27.8225 748.792 L19.6841 725.059 Q20.7088 724.65 21.0368 724.609 Q21.8565 724.609 21.8565 726.043 L21.8565 784.125 Q21.8565 786.338 21.0368 786.338 M15.4622 780.805 L15.4622 735.635 L-29.8719 758.22 L15.4622 780.805 Z" fill="#000000" fill-rule="evenodd" fill-opacity="1" /><path clip-path="url(#clip770)" d="M20.176 659.539 Q20.9548 659.539 21.3647 659.867 Q21.7336 660.154 21.8156 660.441 Q21.8565 660.686 21.8565 661.055 Q21.8565 662.121 21.7336 665.81 Q21.6106 669.499 21.6106 670.565 Q21.6106 672.286 21.7336 675.812 Q21.8565 679.337 21.8565 681.058 Q21.8565 682.206 20.9138 682.206 Q20.299 682.206 19.971 682.083 Q19.6021 681.96 19.4792 681.632 Q19.3152 681.263 19.3152 681.058 Q19.2742 680.812 19.2742 680.197 Q19.2742 679.378 19.1922 678.517 Q19.0693 677.656 18.8233 676.59 Q18.5774 675.525 17.9626 674.869 Q17.3477 674.172 16.487 674.172 Q16.118 674.172 13.0848 674.459 Q10.0516 674.746 6.52656 675.115 Q2.96049 675.484 2.46862 675.525 L2.46862 696.593 Q5.78875 698.52 8.08415 699.872 Q10.3796 701.225 11.1583 701.717 Q11.9371 702.209 12.429 702.496 Q12.9209 702.782 13.2078 702.946 Q15.3802 704.135 16.323 704.135 Q18.9463 704.135 19.2742 700.2 Q19.2742 698.848 20.258 698.848 Q20.9958 698.848 21.4057 699.175 Q21.7746 699.503 21.8156 699.79 Q21.8565 700.036 21.8565 700.446 Q21.8565 701.799 21.7336 704.627 Q21.6106 707.455 21.6106 708.849 Q21.6106 710.038 21.7336 712.497 Q21.8565 714.956 21.8565 716.063 Q21.8565 716.555 21.5696 716.842 Q21.2827 717.129 20.9138 717.129 Q20.3399 717.129 20.012 717.047 Q19.6841 716.924 19.5202 716.596 Q19.3562 716.268 19.3562 716.104 Q19.3152 715.94 19.2742 715.366 Q19.0693 712.251 17.5937 709.833 Q16.0771 707.373 12.1831 705.037 L-36.8401 675.853 Q-37.332 675.566 -37.5779 675.361 Q-37.8238 675.156 -38.0288 674.746 Q-38.2337 674.295 -38.2337 673.639 Q-38.2337 672.614 -37.9058 672.409 Q-37.6189 672.204 -36.2253 672.082 L16.241 666.958 Q17.3477 666.835 17.7986 666.753 Q18.2085 666.63 18.6594 666.097 Q19.0693 665.523 19.1922 664.498 Q19.2742 663.433 19.2742 661.465 Q19.2742 660.727 19.3152 660.441 Q19.3152 660.154 19.5202 659.867 Q19.7251 659.539 20.176 659.539 M-0.154694 675.771 L-27.8225 678.435 L-0.154694 694.995 L-0.154694 675.771 Z" fill="#000000" fill-rule="evenodd" fill-opacity="1" /><path clip-path="url(#clip770)" d="M6.99489 592.268 Q7.82698 592.268 7.99913 592.641 Q8.17129 592.986 8.17129 594.133 Q8.17129 595.482 8.28606 596.314 Q8.37213 597.146 8.5156 597.662 Q8.63037 598.179 9.03206 598.495 Q9.43376 598.781 9.77807 598.896 Q10.0937 599.011 10.8684 599.212 L42.1719 607.016 Q43.2335 607.303 43.6065 607.303 Q43.9795 607.303 44.2091 607.074 Q44.4386 606.815 44.5534 606.184 Q44.6394 605.553 44.6681 605.065 Q44.6681 604.549 44.6681 603.487 Q44.6681 602.167 44.8977 601.966 Q45.0411 601.852 45.2994 601.852 Q45.8445 601.852 46.1315 602.081 Q46.3897 602.311 46.4471 602.512 Q46.4758 602.684 46.4758 602.971 Q46.4758 604.176 46.3897 606.643 Q46.3036 609.111 46.3036 610.316 L46.4758 617.604 Q46.4758 618.465 45.7585 618.465 Q45.2133 618.465 44.9838 618.235 Q44.7255 618.005 44.6968 617.747 Q44.6681 617.489 44.6681 616.829 Q44.6681 614.476 44.4099 613.472 Q44.1517 612.439 43.6926 612.152 Q43.2048 611.837 41.885 611.492 L8.22867 603.085 L8.22867 603.143 L45.4141 626.871 L45.6724 627.044 Q45.9019 627.216 45.988 627.273 Q46.0454 627.331 46.2175 627.503 Q46.361 627.646 46.4184 627.818 Q46.4758 627.962 46.4758 628.163 Q46.4758 628.507 46.2462 628.708 Q46.0167 628.88 45.8445 628.937 Q45.6437 628.966 45.1272 629.052 L8.68775 634.102 L8.68775 634.159 L40.7086 642.165 Q41.598 642.394 42.0571 642.394 Q43.2335 642.394 43.9508 641.562 Q44.6394 640.701 44.6681 638.406 Q44.6681 637.344 45.2994 637.344 Q46.4758 637.344 46.4758 638.406 Q46.4758 639.381 46.3897 641.419 Q46.3036 643.456 46.3036 644.46 Q46.3036 645.435 46.3897 647.415 Q46.4758 649.366 46.4758 650.313 Q46.4758 651.145 45.7585 651.145 Q44.6681 651.145 44.6681 650.084 Q44.6108 648.362 44.2664 647.186 Q43.9221 646.009 43.2622 645.349 Q42.6023 644.661 41.9424 644.345 Q41.2537 644.001 40.2495 643.743 L10.3232 636.283 Q9.37637 636.053 9.23291 636.053 Q8.74514 636.053 8.57298 636.34 Q8.37213 636.598 8.28606 637.344 Q8.17129 638.779 8.17129 639.869 Q8.17129 640.586 8.14259 640.873 Q8.1139 641.132 7.97044 641.361 Q7.79828 641.562 7.45397 641.562 Q6.90882 641.562 6.67928 641.332 Q6.42104 641.074 6.39235 640.787 Q6.33497 640.5 6.33497 639.812 L6.33497 631.749 Q6.33497 630.573 6.53581 630.315 Q6.70797 630.056 7.68351 629.942 L40.9381 625.351 L7.45397 603.889 Q6.62189 603.344 6.47843 603.057 Q6.33497 602.77 6.33497 601.622 L6.33497 593.846 Q6.33497 593.215 6.36366 592.957 Q6.39235 592.699 6.53581 592.498 Q6.67928 592.268 6.99489 592.268 Z" fill="#000000" fill-rule="evenodd" fill-opacity="1" /><path clip-path="url(#clip770)" d="M5.64635 547.35 L20.6238 551.052 Q21.5707 551.31 21.6855 551.482 Q21.8002 551.626 21.8002 552.085 Q21.8002 552.974 21.1977 552.974 Q21.1403 552.974 20.3943 552.888 Q19.6196 552.802 18.2137 552.802 Q13.0203 552.802 9.95022 555.327 Q6.88012 557.823 6.88012 562.27 Q6.88012 566.115 8.83121 569.989 Q10.7823 573.833 13.9672 576.588 Q16.3773 578.654 19.4187 580.175 Q22.4601 581.667 25.2433 582.384 Q28.0265 583.072 30.121 583.388 Q32.2156 583.704 33.7363 583.704 Q35.9456 583.704 37.8106 583.245 Q39.6756 582.757 40.9955 581.896 Q42.2867 581.035 43.2909 579.945 Q44.2664 578.826 44.8403 577.535 Q45.4141 576.215 45.7011 574.895 Q45.9593 573.575 45.9593 572.198 Q45.9593 566.66 41.6554 561.381 Q38.1263 557.192 32.3591 555.442 Q31.7852 555.298 31.7852 554.696 Q31.7852 553.978 32.3591 553.978 Q32.4738 553.978 33.0477 554.122 Q33.5928 554.265 34.7118 554.696 Q35.8022 555.126 37.0359 555.786 Q38.2697 556.446 39.8191 557.68 Q41.3685 558.913 42.7171 560.434 Q44.9551 563.016 46.361 566.287 Q47.7669 569.558 47.7669 573.145 Q47.7669 577.621 45.7871 581.236 Q43.8074 584.851 40.106 586.975 Q36.4047 589.069 31.6704 589.069 Q26.6779 589.069 21.7715 586.774 Q16.8651 584.478 13.2212 580.834 Q9.57722 577.191 7.31051 572.37 Q5.0438 567.55 5.0438 562.73 Q5.0438 560.893 5.53158 559.258 Q6.01935 557.622 6.62189 556.647 Q7.22443 555.642 8.1139 554.753 Q8.97468 553.864 9.37637 553.577 Q9.77807 553.261 10.2658 552.974 L5.76112 548.871 Q5.0438 548.154 5.0438 547.982 Q5.0438 547.637 5.24465 547.494 Q5.4455 547.35 5.64635 547.35 Z" fill="#000000" fill-rule="evenodd" fill-opacity="1" /><path clip-path="url(#clip770)" d="M41.6544 538.51 Q41.2445 538.51 40.3427 538.182 L-38.8486 508.547 Q-38.9306 508.547 -39.3814 508.342 Q-39.8323 508.137 -40.1192 508.014 Q-40.4472 507.891 -40.6931 507.645 Q-40.939 507.358 -40.939 507.031 Q-40.939 506.211 -39.9143 506.211 Q-39.8323 506.211 -38.8486 506.457 L40.4247 536.174 Q41.8593 536.666 42.2692 536.994 Q42.6791 537.281 42.6791 537.773 Q42.6791 538.51 41.6544 538.51 Z" fill="#000000" fill-rule="evenodd" fill-opacity="1" /><path clip-path="url(#clip770)" d="M20.176 439.354 Q20.9548 439.354 21.3647 439.682 Q21.7336 439.969 21.8156 440.256 Q21.8565 440.502 21.8565 440.871 Q21.8565 441.936 21.7336 445.625 Q21.6106 449.314 21.6106 450.38 Q21.6106 452.102 21.7336 455.627 Q21.8565 459.152 21.8565 460.873 Q21.8565 462.021 20.9138 462.021 Q20.299 462.021 19.971 461.898 Q19.6021 461.775 19.4792 461.447 Q19.3152 461.078 19.3152 460.873 Q19.2742 460.627 19.2742 460.013 Q19.2742 459.193 19.1922 458.332 Q19.0693 457.471 18.8233 456.406 Q18.5774 455.34 17.9626 454.684 Q17.3477 453.987 16.487 453.987 Q16.118 453.987 13.0848 454.274 Q10.0516 454.561 6.52656 454.93 Q2.96049 455.299 2.46862 455.34 L2.46862 476.408 Q5.78875 478.335 8.08415 479.687 Q10.3796 481.04 11.1583 481.532 Q11.9371 482.024 12.429 482.311 Q12.9209 482.598 13.2078 482.762 Q15.3802 483.95 16.323 483.95 Q18.9463 483.95 19.2742 480.015 Q19.2742 478.663 20.258 478.663 Q20.9958 478.663 21.4057 478.991 Q21.7746 479.319 21.8156 479.605 Q21.8565 479.851 21.8565 480.261 Q21.8565 481.614 21.7336 484.442 Q21.6106 487.27 21.6106 488.664 Q21.6106 489.853 21.7336 492.312 Q21.8565 494.771 21.8565 495.878 Q21.8565 496.37 21.5696 496.657 Q21.2827 496.944 20.9138 496.944 Q20.3399 496.944 20.012 496.862 Q19.6841 496.739 19.5202 496.411 Q19.3562 496.083 19.3562 495.919 Q19.3152 495.755 19.2742 495.181 Q19.0693 492.066 17.5937 489.648 Q16.0771 487.188 12.1831 484.852 L-36.8401 455.668 Q-37.332 455.381 -37.5779 455.176 Q-37.8238 454.971 -38.0288 454.561 Q-38.2337 454.11 -38.2337 453.454 Q-38.2337 452.43 -37.9058 452.225 Q-37.6189 452.02 -36.2253 451.897 L16.241 446.773 Q17.3477 446.65 17.7986 446.568 Q18.2085 446.445 18.6594 445.912 Q19.0693 445.338 19.1922 444.314 Q19.2742 443.248 19.2742 441.28 Q19.2742 440.543 19.3152 440.256 Q19.3152 439.969 19.5202 439.682 Q19.7251 439.354 20.176 439.354 M-0.154694 455.586 L-27.8225 458.25 L-0.154694 474.81 L-0.154694 455.586 Z" fill="#000000" fill-rule="evenodd" fill-opacity="1" /><path clip-path="url(#clip770)" d="M6.99489 372.083 Q7.82698 372.083 7.99913 372.456 Q8.17129 372.801 8.17129 373.949 Q8.17129 375.297 8.28606 376.129 Q8.37213 376.961 8.5156 377.478 Q8.63037 377.994 9.03206 378.31 Q9.43376 378.597 9.77807 378.711 Q10.0937 378.826 10.8684 379.027 L42.1719 386.831 Q43.2335 387.118 43.6065 387.118 Q43.9795 387.118 44.2091 386.889 Q44.4386 386.631 44.5534 385.999 Q44.6394 385.368 44.6681 384.88 Q44.6681 384.364 44.6681 383.302 Q44.6681 381.982 44.8977 381.782 Q45.0411 381.667 45.2994 381.667 Q45.8445 381.667 46.1315 381.896 Q46.3897 382.126 46.4471 382.327 Q46.4758 382.499 46.4758 382.786 Q46.4758 383.991 46.3897 386.458 Q46.3036 388.926 46.3036 390.131 L46.4758 397.419 Q46.4758 398.28 45.7585 398.28 Q45.2133 398.28 44.9838 398.05 Q44.7255 397.821 44.6968 397.562 Q44.6681 397.304 44.6681 396.644 Q44.6681 394.291 44.4099 393.287 Q44.1517 392.254 43.6926 391.967 Q43.2048 391.652 41.885 391.307 L8.22867 382.901 L8.22867 382.958 L45.4141 406.687 L45.6724 406.859 Q45.9019 407.031 45.988 407.088 Q46.0454 407.146 46.2175 407.318 Q46.361 407.461 46.4184 407.633 Q46.4758 407.777 46.4758 407.978 Q46.4758 408.322 46.2462 408.523 Q46.0167 408.695 45.8445 408.752 Q45.6437 408.781 45.1272 408.867 L8.68775 413.917 L8.68775 413.975 L40.7086 421.98 Q41.598 422.209 42.0571 422.209 Q43.2335 422.209 43.9508 421.377 Q44.6394 420.516 44.6681 418.221 Q44.6681 417.159 45.2994 417.159 Q46.4758 417.159 46.4758 418.221 Q46.4758 419.197 46.3897 421.234 Q46.3036 423.271 46.3036 424.275 Q46.3036 425.251 46.3897 427.23 Q46.4758 429.182 46.4758 430.128 Q46.4758 430.96 45.7585 430.96 Q44.6681 430.96 44.6681 429.899 Q44.6108 428.177 44.2664 427.001 Q43.9221 425.825 43.2622 425.165 Q42.6023 424.476 41.9424 424.16 Q41.2537 423.816 40.2495 423.558 L10.3232 416.098 Q9.37637 415.868 9.23291 415.868 Q8.74514 415.868 8.57298 416.155 Q8.37213 416.413 8.28606 417.159 Q8.17129 418.594 8.17129 419.684 Q8.17129 420.402 8.14259 420.689 Q8.1139 420.947 7.97044 421.176 Q7.79828 421.377 7.45397 421.377 Q6.90882 421.377 6.67928 421.148 Q6.42104 420.889 6.39235 420.602 Q6.33497 420.316 6.33497 419.627 L6.33497 411.564 Q6.33497 410.388 6.53581 410.13 Q6.70797 409.872 7.68351 409.757 L40.9381 405.166 L7.45397 383.704 Q6.62189 383.159 6.47843 382.872 Q6.33497 382.585 6.33497 381.437 L6.33497 373.662 Q6.33497 373.03 6.36366 372.772 Q6.39235 372.514 6.53581 372.313 Q6.67928 372.083 6.99489 372.083 Z" fill="#000000" fill-rule="evenodd" fill-opacity="1" /><path clip-path="url(#clip770)" d="M5.64635 327.166 L20.6238 330.867 Q21.5707 331.125 21.6855 331.297 Q21.8002 331.441 21.8002 331.9 Q21.8002 332.789 21.1977 332.789 Q21.1403 332.789 20.3943 332.703 Q19.6196 332.617 18.2137 332.617 Q13.0203 332.617 9.95022 335.142 Q6.88012 337.638 6.88012 342.086 Q6.88012 345.93 8.83121 349.804 Q10.7823 353.649 13.9672 356.403 Q16.3773 358.469 19.4187 359.99 Q22.4601 361.482 25.2433 362.199 Q28.0265 362.888 30.121 363.203 Q32.2156 363.519 33.7363 363.519 Q35.9456 363.519 37.8106 363.06 Q39.6756 362.572 40.9955 361.711 Q42.2867 360.851 43.2909 359.76 Q44.2664 358.641 44.8403 357.35 Q45.4141 356.03 45.7011 354.71 Q45.9593 353.39 45.9593 352.013 Q45.9593 346.476 41.6554 341.196 Q38.1263 337.007 32.3591 335.257 Q31.7852 335.113 31.7852 334.511 Q31.7852 333.793 32.3591 333.793 Q32.4738 333.793 33.0477 333.937 Q33.5928 334.08 34.7118 334.511 Q35.8022 334.941 37.0359 335.601 Q38.2697 336.261 39.8191 337.495 Q41.3685 338.729 42.7171 340.249 Q44.9551 342.832 46.361 346.103 Q47.7669 349.374 47.7669 352.96 Q47.7669 357.436 45.7871 361.051 Q43.8074 364.667 40.106 366.79 Q36.4047 368.884 31.6704 368.884 Q26.6779 368.884 21.7715 366.589 Q16.8651 364.294 13.2212 360.65 Q9.57722 357.006 7.31051 352.185 Q5.0438 347.365 5.0438 342.545 Q5.0438 340.708 5.53158 339.073 Q6.01935 337.437 6.62189 336.462 Q7.22443 335.458 8.1139 334.568 Q8.97468 333.679 9.37637 333.392 Q9.77807 333.076 10.2658 332.789 L5.76112 328.686 Q5.0438 327.969 5.0438 327.797 Q5.0438 327.452 5.24465 327.309 Q5.4455 327.166 5.64635 327.166 Z" fill="#000000" fill-rule="evenodd" fill-opacity="1" /><polyline clip-path="url(#clip772)" style="stroke:#009af9; stroke-linecap:butt; stroke-linejoin:round; stroke-width:8; stroke-opacity:1; fill:none" points="
  353.808,75.834 517.269,119.644 680.731,83.0691 844.193,104.865 1007.65,155.943 1171.12,161.712 1334.58,282.528 1498.04,302.17 1661.5,295.479 1824.96,270.964 
  1988.43,306.535 2151.89,306.28 2315.35,362.046 2478.81,430.96 2642.27,365.199 2805.74,367.316 2969.2,393.683 3132.66,397.953 3296.12,434.354 3459.58,420.058 
  
  "/>
<circle clip-path="url(#clip772)" cx="353.808" cy="75.834" r="18" fill="#009af9" fill-rule="evenodd" fill-opacity="1" stroke="#000000" stroke-opacity="1" stroke-width="3.6"/>
<circle clip-path="url(#clip772)" cx="517.269" cy="119.644" r="18" fill="#009af9" fill-rule="evenodd" fill-opacity="1" stroke="#000000" stroke-opacity="1" stroke-width="3.6"/>
<circle clip-path="url(#clip772)" cx="680.731" cy="83.0691" r="18" fill="#009af9" fill-rule="evenodd" fill-opacity="1" stroke="#000000" stroke-opacity="1" stroke-width="3.6"/>
<circle clip-path="url(#clip772)" cx="844.193" cy="104.865" r="18" fill="#009af9" fill-rule="evenodd" fill-opacity="1" stroke="#000000" stroke-opacity="1" stroke-width="3.6"/>
<circle clip-path="url(#clip772)" cx="1007.65" cy="155.943" r="18" fill="#009af9" fill-rule="evenodd" fill-opacity="1" stroke="#000000" stroke-opacity="1" stroke-width="3.6"/>
<circle clip-path="url(#clip772)" cx="1171.12" cy="161.712" r="18" fill="#009af9" fill-rule="evenodd" fill-opacity="1" stroke="#000000" stroke-opacity="1" stroke-width="3.6"/>
<circle clip-path="url(#clip772)" cx="1334.58" cy="282.528" r="18" fill="#009af9" fill-rule="evenodd" fill-opacity="1" stroke="#000000" stroke-opacity="1" stroke-width="3.6"/>
<circle clip-path="url(#clip772)" cx="1498.04" cy="302.17" r="18" fill="#009af9" fill-rule="evenodd" fill-opacity="1" stroke="#000000" stroke-opacity="1" stroke-width="3.6"/>
<circle clip-path="url(#clip772)" cx="1661.5" cy="295.479" r="18" fill="#009af9" fill-rule="evenodd" fill-opacity="1" stroke="#000000" stroke-opacity="1" stroke-width="3.6"/>
<circle clip-path="url(#clip772)" cx="1824.96" cy="270.964" r="18" fill="#009af9" fill-rule="evenodd" fill-opacity="1" stroke="#000000" stroke-opacity="1" stroke-width="3.6"/>
<circle clip-path="url(#clip772)" cx="1988.43" cy="306.535" r="18" fill="#009af9" fill-rule="evenodd" fill-opacity="1" stroke="#000000" stroke-opacity="1" stroke-width="3.6"/>
<circle clip-path="url(#clip772)" cx="2151.89" cy="306.28" r="18" fill="#009af9" fill-rule="evenodd" fill-opacity="1" stroke="#000000" stroke-opacity="1" stroke-width="3.6"/>
<circle clip-path="url(#clip772)" cx="2315.35" cy="362.046" r="18" fill="#009af9" fill-rule="evenodd" fill-opacity="1" stroke="#000000" stroke-opacity="1" stroke-width="3.6"/>
<circle clip-path="url(#clip772)" cx="2478.81" cy="430.96" r="18" fill="#009af9" fill-rule="evenodd" fill-opacity="1" stroke="#000000" stroke-opacity="1" stroke-width="3.6"/>
<circle clip-path="url(#clip772)" cx="2642.27" cy="365.199" r="18" fill="#009af9" fill-rule="evenodd" fill-opacity="1" stroke="#000000" stroke-opacity="1" stroke-width="3.6"/>
<circle clip-path="url(#clip772)" cx="2805.74" cy="367.316" r="18" fill="#009af9" fill-rule="evenodd" fill-opacity="1" stroke="#000000" stroke-opacity="1" stroke-width="3.6"/>
<circle clip-path="url(#clip772)" cx="2969.2" cy="393.683" r="18" fill="#009af9" fill-rule="evenodd" fill-opacity="1" stroke="#000000" stroke-opacity="1" stroke-width="3.6"/>
<circle clip-path="url(#clip772)" cx="3132.66" cy="397.953" r="18" fill="#009af9" fill-rule="evenodd" fill-opacity="1" stroke="#000000" stroke-opacity="1" stroke-width="3.6"/>
<circle clip-path="url(#clip772)" cx="3296.12" cy="434.354" r="18" fill="#009af9" fill-rule="evenodd" fill-opacity="1" stroke="#000000" stroke-opacity="1" stroke-width="3.6"/>
<circle clip-path="url(#clip772)" cx="3459.58" cy="420.058" r="18" fill="#009af9" fill-rule="evenodd" fill-opacity="1" stroke="#000000" stroke-opacity="1" stroke-width="3.6"/>
<polyline clip-path="url(#clip772)" style="stroke:#e26f46; stroke-linecap:butt; stroke-linejoin:round; stroke-width:8; stroke-opacity:1; fill:none" points="
  353.808,366.736 517.269,337.131 680.731,378.411 844.193,389.376 1007.65,488.193 1171.12,546.549 1334.58,546.522 1498.04,563.604 1661.5,564.357 1824.96,634.077 
  1988.43,613.169 2151.89,572.547 2315.35,604.65 2478.81,657.588 2642.27,671.221 2805.74,689.5 2969.2,659.974 3132.66,655.875 3296.12,671.484 3459.58,688.296 
  
  "/>
<circle clip-path="url(#clip772)" cx="353.808" cy="366.736" r="18" fill="#e26f46" fill-rule="evenodd" fill-opacity="1" stroke="#000000" stroke-opacity="1" stroke-width="3.6"/>
<circle clip-path="url(#clip772)" cx="517.269" cy="337.131" r="18" fill="#e26f46" fill-rule="evenodd" fill-opacity="1" stroke="#000000" stroke-opacity="1" stroke-width="3.6"/>
<circle clip-path="url(#clip772)" cx="680.731" cy="378.411" r="18" fill="#e26f46" fill-rule="evenodd" fill-opacity="1" stroke="#000000" stroke-opacity="1" stroke-width="3.6"/>
<circle clip-path="url(#clip772)" cx="844.193" cy="389.376" r="18" fill="#e26f46" fill-rule="evenodd" fill-opacity="1" stroke="#000000" stroke-opacity="1" stroke-width="3.6"/>
<circle clip-path="url(#clip772)" cx="1007.65" cy="488.193" r="18" fill="#e26f46" fill-rule="evenodd" fill-opacity="1" stroke="#000000" stroke-opacity="1" stroke-width="3.6"/>
<circle clip-path="url(#clip772)" cx="1171.12" cy="546.549" r="18" fill="#e26f46" fill-rule="evenodd" fill-opacity="1" stroke="#000000" stroke-opacity="1" stroke-width="3.6"/>
<circle clip-path="url(#clip772)" cx="1334.58" cy="546.522" r="18" fill="#e26f46" fill-rule="evenodd" fill-opacity="1" stroke="#000000" stroke-opacity="1" stroke-width="3.6"/>
<circle clip-path="url(#clip772)" cx="1498.04" cy="563.604" r="18" fill="#e26f46" fill-rule="evenodd" fill-opacity="1" stroke="#000000" stroke-opacity="1" stroke-width="3.6"/>
<circle clip-path="url(#clip772)" cx="1661.5" cy="564.357" r="18" fill="#e26f46" fill-rule="evenodd" fill-opacity="1" stroke="#000000" stroke-opacity="1" stroke-width="3.6"/>
<circle clip-path="url(#clip772)" cx="1824.96" cy="634.077" r="18" fill="#e26f46" fill-rule="evenodd" fill-opacity="1" stroke="#000000" stroke-opacity="1" stroke-width="3.6"/>
<circle clip-path="url(#clip772)" cx="1988.43" cy="613.169" r="18" fill="#e26f46" fill-rule="evenodd" fill-opacity="1" stroke="#000000" stroke-opacity="1" stroke-width="3.6"/>
<circle clip-path="url(#clip772)" cx="2151.89" cy="572.547" r="18" fill="#e26f46" fill-rule="evenodd" fill-opacity="1" stroke="#000000" stroke-opacity="1" stroke-width="3.6"/>
<circle clip-path="url(#clip772)" cx="2315.35" cy="604.65" r="18" fill="#e26f46" fill-rule="evenodd" fill-opacity="1" stroke="#000000" stroke-opacity="1" stroke-width="3.6"/>
<circle clip-path="url(#clip772)" cx="2478.81" cy="657.588" r="18" fill="#e26f46" fill-rule="evenodd" fill-opacity="1" stroke="#000000" stroke-opacity="1" stroke-width="3.6"/>
<circle clip-path="url(#clip772)" cx="2642.27" cy="671.221" r="18" fill="#e26f46" fill-rule="evenodd" fill-opacity="1" stroke="#000000" stroke-opacity="1" stroke-width="3.6"/>
<circle clip-path="url(#clip772)" cx="2805.74" cy="689.5" r="18" fill="#e26f46" fill-rule="evenodd" fill-opacity="1" stroke="#000000" stroke-opacity="1" stroke-width="3.6"/>
<circle clip-path="url(#clip772)" cx="2969.2" cy="659.974" r="18" fill="#e26f46" fill-rule="evenodd" fill-opacity="1" stroke="#000000" stroke-opacity="1" stroke-width="3.6"/>
<circle clip-path="url(#clip772)" cx="3132.66" cy="655.875" r="18" fill="#e26f46" fill-rule="evenodd" fill-opacity="1" stroke="#000000" stroke-opacity="1" stroke-width="3.6"/>
<circle clip-path="url(#clip772)" cx="3296.12" cy="671.484" r="18" fill="#e26f46" fill-rule="evenodd" fill-opacity="1" stroke="#000000" stroke-opacity="1" stroke-width="3.6"/>
<circle clip-path="url(#clip772)" cx="3459.58" cy="688.296" r="18" fill="#e26f46" fill-rule="evenodd" fill-opacity="1" stroke="#000000" stroke-opacity="1" stroke-width="3.6"/>
<polyline clip-path="url(#clip772)" style="stroke:#3da44d; stroke-linecap:butt; stroke-linejoin:round; stroke-width:8; stroke-opacity:1; fill:none" points="
  353.808,571.207 517.269,596.37 680.731,650.943 844.193,763.15 1007.65,747.68 1171.12,783.864 1334.58,862.444 1498.04,849.661 1661.5,835.734 1824.96,856.443 
  1988.43,873.264 2151.89,887.835 2315.35,902.343 2478.81,877.866 2642.27,912.087 2805.74,906.62 2969.2,949.008 3132.66,948.462 3296.12,988.21 3459.58,1028.83 
  
  "/>
<circle clip-path="url(#clip772)" cx="353.808" cy="571.207" r="18" fill="#3da44d" fill-rule="evenodd" fill-opacity="1" stroke="#000000" stroke-opacity="1" stroke-width="3.6"/>
<circle clip-path="url(#clip772)" cx="517.269" cy="596.37" r="18" fill="#3da44d" fill-rule="evenodd" fill-opacity="1" stroke="#000000" stroke-opacity="1" stroke-width="3.6"/>
<circle clip-path="url(#clip772)" cx="680.731" cy="650.943" r="18" fill="#3da44d" fill-rule="evenodd" fill-opacity="1" stroke="#000000" stroke-opacity="1" stroke-width="3.6"/>
<circle clip-path="url(#clip772)" cx="844.193" cy="763.15" r="18" fill="#3da44d" fill-rule="evenodd" fill-opacity="1" stroke="#000000" stroke-opacity="1" stroke-width="3.6"/>
<circle clip-path="url(#clip772)" cx="1007.65" cy="747.68" r="18" fill="#3da44d" fill-rule="evenodd" fill-opacity="1" stroke="#000000" stroke-opacity="1" stroke-width="3.6"/>
<circle clip-path="url(#clip772)" cx="1171.12" cy="783.864" r="18" fill="#3da44d" fill-rule="evenodd" fill-opacity="1" stroke="#000000" stroke-opacity="1" stroke-width="3.6"/>
<circle clip-path="url(#clip772)" cx="1334.58" cy="862.444" r="18" fill="#3da44d" fill-rule="evenodd" fill-opacity="1" stroke="#000000" stroke-opacity="1" stroke-width="3.6"/>
<circle clip-path="url(#clip772)" cx="1498.04" cy="849.661" r="18" fill="#3da44d" fill-rule="evenodd" fill-opacity="1" stroke="#000000" stroke-opacity="1" stroke-width="3.6"/>
<circle clip-path="url(#clip772)" cx="1661.5" cy="835.734" r="18" fill="#3da44d" fill-rule="evenodd" fill-opacity="1" stroke="#000000" stroke-opacity="1" stroke-width="3.6"/>
<circle clip-path="url(#clip772)" cx="1824.96" cy="856.443" r="18" fill="#3da44d" fill-rule="evenodd" fill-opacity="1" stroke="#000000" stroke-opacity="1" stroke-width="3.6"/>
<circle clip-path="url(#clip772)" cx="1988.43" cy="873.264" r="18" fill="#3da44d" fill-rule="evenodd" fill-opacity="1" stroke="#000000" stroke-opacity="1" stroke-width="3.6"/>
<circle clip-path="url(#clip772)" cx="2151.89" cy="887.835" r="18" fill="#3da44d" fill-rule="evenodd" fill-opacity="1" stroke="#000000" stroke-opacity="1" stroke-width="3.6"/>
<circle clip-path="url(#clip772)" cx="2315.35" cy="902.343" r="18" fill="#3da44d" fill-rule="evenodd" fill-opacity="1" stroke="#000000" stroke-opacity="1" stroke-width="3.6"/>
<circle clip-path="url(#clip772)" cx="2478.81" cy="877.866" r="18" fill="#3da44d" fill-rule="evenodd" fill-opacity="1" stroke="#000000" stroke-opacity="1" stroke-width="3.6"/>
<circle clip-path="url(#clip772)" cx="2642.27" cy="912.087" r="18" fill="#3da44d" fill-rule="evenodd" fill-opacity="1" stroke="#000000" stroke-opacity="1" stroke-width="3.6"/>
<circle clip-path="url(#clip772)" cx="2805.74" cy="906.62" r="18" fill="#3da44d" fill-rule="evenodd" fill-opacity="1" stroke="#000000" stroke-opacity="1" stroke-width="3.6"/>
<circle clip-path="url(#clip772)" cx="2969.2" cy="949.008" r="18" fill="#3da44d" fill-rule="evenodd" fill-opacity="1" stroke="#000000" stroke-opacity="1" stroke-width="3.6"/>
<circle clip-path="url(#clip772)" cx="3132.66" cy="948.462" r="18" fill="#3da44d" fill-rule="evenodd" fill-opacity="1" stroke="#000000" stroke-opacity="1" stroke-width="3.6"/>
<circle clip-path="url(#clip772)" cx="3296.12" cy="988.21" r="18" fill="#3da44d" fill-rule="evenodd" fill-opacity="1" stroke="#000000" stroke-opacity="1" stroke-width="3.6"/>
<circle clip-path="url(#clip772)" cx="3459.58" cy="1028.83" r="18" fill="#3da44d" fill-rule="evenodd" fill-opacity="1" stroke="#000000" stroke-opacity="1" stroke-width="3.6"/>
<path clip-path="url(#clip770)" d="
M2766.3 342.662 L3509.3 342.662 L3509.3 83.4617 L2766.3 83.4617  Z
  " fill="#ffffff" fill-rule="evenodd" fill-opacity="1"/>
<polyline clip-path="url(#clip770)" style="stroke:#000000; stroke-linecap:butt; stroke-linejoin:round; stroke-width:4; stroke-opacity:1; fill:none" points="
  2766.3,342.662 3509.3,342.662 3509.3,83.4617 2766.3,83.4617 2766.3,342.662 
  "/>
<polyline clip-path="url(#clip770)" style="stroke:#009af9; stroke-linecap:butt; stroke-linejoin:round; stroke-width:5; stroke-opacity:1; fill:none" points="
  2802.88,148.262 3022.36,148.262 
  "/>
<circle clip-path="url(#clip770)" cx="2912.62" cy="148.262" r="28" fill="#009af9" fill-rule="evenodd" fill-opacity="1" stroke="#000000" stroke-opacity="1" stroke-width="5.76"/>
<path clip-path="url(#clip770)" d="M3109.41 131.158 Q3109.41 132.358 3108.39 132.358 Q3105.08 132.476 3103.73 133.588 Q3102.42 134.671 3101.92 136.779 L3093.54 170.186 Q3093.25 171.24 3093.08 171.357 Q3092.9 171.445 3092.58 171.445 Q3092.17 171.445 3091.93 171.24 Q3091.73 171.035 3091.44 170.303 L3076.5 134.993 Q3076.39 134.759 3076.24 134.437 Q3076.09 134.115 3075.98 133.91 L3068.04 165.56 Q3067.81 166.467 3067.81 166.936 Q3067.81 168.078 3068.6 168.81 Q3069.42 169.512 3071.76 169.6 Q3072.96 169.6 3072.96 170.244 Q3072.96 171.445 3071.88 171.445 Q3070.88 171.445 3068.8 171.357 Q3066.73 171.269 3065.7 171.269 Q3064.71 171.269 3062.69 171.357 Q3060.67 171.445 3059.7 171.445 Q3058.94 171.445 3058.94 170.771 Q3058.94 170.244 3059.14 169.981 Q3059.35 169.688 3059.52 169.659 Q3059.7 169.6 3059.96 169.6 Q3061.72 169.542 3062.92 169.19 Q3064.12 168.839 3064.79 168.165 Q3065.5 167.492 3065.82 166.819 Q3066.17 166.116 3066.43 165.091 L3074.46 132.885 Q3074.46 132.358 3070.39 132.358 Q3069.68 132.358 3069.39 132.329 Q3069.13 132.3 3068.92 132.153 Q3068.72 132.007 3068.72 131.685 Q3068.72 130.865 3069.07 130.69 Q3069.42 130.485 3070.44 130.485 L3078.5 130.485 Q3079.52 130.485 3079.78 130.66 Q3080.05 130.807 3080.4 131.626 L3093.66 162.925 L3100.37 136.252 Q3100.54 135.725 3100.54 134.993 Q3100.54 133.822 3099.66 133.12 Q3098.81 132.388 3096.47 132.358 Q3095.39 132.358 3095.39 131.685 Q3095.39 131.129 3095.59 130.865 Q3095.83 130.572 3096 130.543 Q3096.21 130.485 3096.47 130.485 Q3097.47 130.485 3099.52 130.572 Q3101.57 130.66 3102.59 130.66 Q3103.59 130.66 3105.61 130.572 Q3107.66 130.485 3108.65 130.485 Q3109 130.485 3109.18 130.66 Q3109.38 130.807 3109.41 130.982 L3109.41 131.158 Z" fill="#000000" fill-rule="evenodd" fill-opacity="1" /><path clip-path="url(#clip770)" d="M3149.72 176.465 Q3149.72 176.629 3149.54 177.264 Q3149.35 177.899 3148.9 178.883 Q3148.47 179.867 3147.85 180.769 Q3147.26 181.65 3146.28 182.306 Q3145.31 182.941 3144.21 182.941 Q3142.73 182.941 3141.75 181.957 Q3140.76 180.974 3140.76 179.498 Q3140.76 178.699 3141.32 177.182 Q3143.92 170.255 3143.92 167.775 Q3143.92 164.844 3141.64 164.844 Q3140.35 164.844 3139.19 165.377 Q3138.02 165.91 3137.26 166.648 Q3136.5 167.386 3135.91 168.226 Q3135.31 169.066 3135.05 169.619 Q3134.8 170.173 3134.74 170.419 L3132.22 180.543 Q3132.01 181.404 3131.87 181.814 Q3131.73 182.224 3131.34 182.572 Q3130.95 182.941 3130.33 182.941 Q3129.82 182.941 3129.45 182.634 Q3129.1 182.326 3129.1 181.793 Q3129.1 181.711 3129.2 181.281 Q3129.31 180.851 3129.45 180.256 Q3129.59 179.662 3129.66 179.313 Q3130.39 176.526 3130.5 176.137 L3131.66 171.259 Q3132.3 168.841 3132.3 167.775 Q3132.3 164.844 3130.02 164.844 Q3128.9 164.844 3127.83 165.275 Q3126.79 165.685 3126.07 166.258 Q3125.35 166.832 3124.7 167.632 Q3124.06 168.41 3123.73 168.943 Q3123.43 169.456 3123.18 169.968 L3122.65 172.058 Q3122.52 172.632 3121.93 174.866 L3121.01 178.658 Q3120.35 181.486 3120.21 181.752 Q3120 182.326 3119.55 182.634 Q3119.1 182.941 3118.65 182.941 Q3118.14 182.941 3117.79 182.634 Q3117.44 182.326 3117.44 181.793 Q3117.44 181.711 3117.5 181.404 Q3117.56 181.096 3117.67 180.666 Q3117.77 180.236 3117.81 179.99 L3120.25 170.296 Q3120.7 168.533 3120.8 167.98 Q3120.92 167.406 3120.92 166.771 Q3120.92 164.844 3119.61 164.844 Q3118.55 164.844 3117.85 166.115 Q3117.15 167.386 3116.56 169.845 Q3116.38 170.521 3116.25 170.665 Q3116.15 170.808 3115.84 170.808 Q3115.33 170.788 3115.33 170.378 Q3115.33 170.275 3115.49 169.619 Q3115.66 168.964 3115.97 167.98 Q3116.29 166.976 3116.64 166.32 Q3116.85 165.889 3117.03 165.603 Q3117.22 165.316 3117.58 164.865 Q3117.95 164.414 3118.51 164.168 Q3119.06 163.922 3119.74 163.922 Q3121.23 163.922 3122.34 164.885 Q3123.47 165.848 3123.61 167.57 Q3126.34 163.922 3130.15 163.922 Q3132.3 163.922 3133.59 165.008 Q3134.8 166.053 3134.94 167.98 Q3137.77 163.922 3141.79 163.922 Q3144.1 163.922 3145.35 165.131 Q3146.6 166.32 3146.6 168.41 Q3146.6 169.497 3146.05 171.566 Q3145.5 173.616 3145.13 174.641 Q3144.76 175.665 3144.04 177.633 Q3143.28 179.518 3143.28 180.625 Q3143.28 181.342 3143.53 181.67 Q3143.78 181.998 3144.31 181.998 Q3145.13 181.998 3145.85 181.527 Q3146.56 181.035 3147.08 180.236 Q3147.61 179.416 3147.96 178.596 Q3148.31 177.756 3148.57 176.813 Q3148.74 176.301 3148.82 176.178 Q3148.92 176.055 3149.21 176.055 Q3149.72 176.055 3149.72 176.465 Z" fill="#000000" fill-rule="evenodd" fill-opacity="1" /><path clip-path="url(#clip770)" d="M3168.67 177.612 Q3168.83 177.797 3168.83 177.981 Q3168.83 178.166 3168.42 178.699 Q3168.04 179.231 3167.2 179.949 Q3166.35 180.666 3165.27 181.342 Q3164.18 182.019 3162.58 182.47 Q3160.99 182.941 3159.3 182.941 Q3156.17 182.941 3154.32 180.871 Q3152.5 178.801 3152.5 175.829 Q3152.5 172.94 3154.12 170.173 Q3155.74 167.386 3158.36 165.664 Q3160.99 163.922 3163.75 163.922 Q3165.94 163.922 3167.32 164.947 Q3168.69 165.971 3168.69 167.529 Q3168.69 168.738 3167.99 169.476 Q3167.3 170.214 3166.35 170.214 Q3165.7 170.214 3165.25 169.845 Q3164.8 169.456 3164.8 168.738 Q3164.8 167.816 3165.56 167.099 Q3165.84 166.812 3166.17 166.689 Q3166.52 166.545 3166.72 166.545 Q3166.93 166.525 3167.4 166.525 Q3166.97 165.726 3165.94 165.295 Q3164.94 164.844 3163.79 164.844 Q3162.09 164.844 3160.47 166.033 Q3158.85 167.201 3157.87 169.046 Q3156.89 170.849 3156.25 173.411 Q3155.62 175.952 3155.62 177.428 Q3155.62 179.457 3156.56 180.728 Q3157.5 181.998 3159.39 181.998 Q3159.76 181.998 3160.14 181.978 Q3160.55 181.957 3161.58 181.732 Q3162.62 181.506 3163.55 181.117 Q3164.47 180.728 3165.64 179.887 Q3166.83 179.027 3167.77 177.858 Q3168.1 177.428 3168.32 177.428 Q3168.51 177.428 3168.67 177.612 Z" fill="#000000" fill-rule="evenodd" fill-opacity="1" /><path clip-path="url(#clip770)" d="M3193.53 162.339 Q3193.59 161.607 3194.73 161.607 L3231.47 161.607 Q3233.2 161.607 3233.23 162.281 Q3233.23 163.013 3231.59 162.983 L3195.14 162.983 Q3193.53 163.013 3193.53 162.339 M3193.53 150.628 Q3193.53 149.896 3194.79 149.925 L3231.41 149.925 Q3233.2 149.925 3233.23 150.628 Q3233.23 151.301 3231.71 151.301 L3194.73 151.301 Q3193.53 151.301 3193.53 150.628 Z" fill="#000000" fill-rule="evenodd" fill-opacity="1" /><path clip-path="url(#clip770)" d="M3256.36 137.219 L3256.36 135.345 Q3263.57 135.345 3267.28 131.509 Q3268.31 131.509 3268.48 131.744 Q3268.66 131.978 3268.66 133.061 L3268.66 166.702 Q3268.66 168.488 3269.54 169.044 Q3270.42 169.6 3274.25 169.6 L3276.16 169.6 L3276.16 171.445 Q3274.05 171.269 3266.44 171.269 Q3258.82 171.269 3256.74 171.445 L3256.74 169.6 L3258.65 169.6 Q3262.42 169.6 3263.33 169.073 Q3264.24 168.517 3264.24 166.702 L3264.24 135.638 Q3261.11 137.219 3256.36 137.219 Z" fill="#000000" fill-rule="evenodd" fill-opacity="1" /><path clip-path="url(#clip770)" d="M3293.98 152.268 Q3293.98 143.455 3296.21 138.653 Q3299.31 131.509 3306.63 131.509 Q3308.18 131.509 3309.79 131.949 Q3311.43 132.358 3313.48 133.969 Q3315.56 135.579 3316.82 138.214 Q3319.22 143.308 3319.22 152.268 Q3319.22 161.022 3317 165.794 Q3313.75 172.762 3306.57 172.762 Q3303.88 172.762 3301.13 171.386 Q3298.4 170.01 3296.68 166.702 Q3293.98 161.754 3293.98 152.268 M3298.96 151.536 Q3298.96 160.582 3299.6 164.184 Q3300.34 168.078 3302.33 169.776 Q3304.35 171.445 3306.57 171.445 Q3308.97 171.445 3310.96 169.659 Q3312.98 167.843 3313.6 163.949 Q3314.27 160.114 3314.24 151.536 Q3314.24 143.191 3313.66 139.854 Q3312.87 135.96 3310.76 134.408 Q3308.68 132.827 3306.57 132.827 Q3305.78 132.827 3304.93 133.061 Q3304.11 133.295 3302.91 133.969 Q3301.71 134.642 3300.78 136.311 Q3299.87 137.98 3299.43 140.498 Q3298.96 143.748 3298.96 151.536 Z" fill="#000000" fill-rule="evenodd" fill-opacity="1" /><path clip-path="url(#clip770)" d="M3323.92 152.268 Q3323.92 143.455 3326.14 138.653 Q3329.25 131.509 3336.57 131.509 Q3338.12 131.509 3339.73 131.949 Q3341.37 132.358 3343.42 133.969 Q3345.5 135.579 3346.76 138.214 Q3349.16 143.308 3349.16 152.268 Q3349.16 161.022 3346.93 165.794 Q3343.68 172.762 3336.51 172.762 Q3333.81 172.762 3331.06 171.386 Q3328.34 170.01 3326.61 166.702 Q3323.92 161.754 3323.92 152.268 M3328.9 151.536 Q3328.9 160.582 3329.54 164.184 Q3330.27 168.078 3332.26 169.776 Q3334.28 171.445 3336.51 171.445 Q3338.91 171.445 3340.9 169.659 Q3342.92 167.843 3343.53 163.949 Q3344.21 160.114 3344.18 151.536 Q3344.18 143.191 3343.59 139.854 Q3342.8 135.96 3340.69 134.408 Q3338.62 132.827 3336.51 132.827 Q3335.72 132.827 3334.87 133.061 Q3334.05 133.295 3332.85 133.969 Q3331.65 134.642 3330.71 136.311 Q3329.8 137.98 3329.36 140.498 Q3328.9 143.748 3328.9 151.536 Z" fill="#000000" fill-rule="evenodd" fill-opacity="1" /><path clip-path="url(#clip770)" d="M3353.85 152.268 Q3353.85 143.455 3356.08 138.653 Q3359.18 131.509 3366.5 131.509 Q3368.05 131.509 3369.66 131.949 Q3371.3 132.358 3373.35 133.969 Q3375.43 135.579 3376.69 138.214 Q3379.09 143.308 3379.09 152.268 Q3379.09 161.022 3376.87 165.794 Q3373.62 172.762 3366.44 172.762 Q3363.75 172.762 3361 171.386 Q3358.27 170.01 3356.55 166.702 Q3353.85 161.754 3353.85 152.268 M3358.83 151.536 Q3358.83 160.582 3359.48 164.184 Q3360.21 168.078 3362.2 169.776 Q3364.22 171.445 3366.44 171.445 Q3368.84 171.445 3370.84 169.659 Q3372.86 167.843 3373.47 163.949 Q3374.14 160.114 3374.11 151.536 Q3374.11 143.191 3373.53 139.854 Q3372.74 135.96 3370.63 134.408 Q3368.55 132.827 3366.44 132.827 Q3365.65 132.827 3364.8 133.061 Q3363.98 133.295 3362.78 133.969 Q3361.58 134.642 3360.65 136.311 Q3359.74 137.98 3359.3 140.498 Q3358.83 143.748 3358.83 151.536 Z" fill="#000000" fill-rule="evenodd" fill-opacity="1" /><polyline clip-path="url(#clip770)" style="stroke:#e26f46; stroke-linecap:butt; stroke-linejoin:round; stroke-width:5; stroke-opacity:1; fill:none" points="
  2802.88,213.062 3022.36,213.062 
  "/>
<circle clip-path="url(#clip770)" cx="2912.62" cy="213.062" r="28" fill="#e26f46" fill-rule="evenodd" fill-opacity="1" stroke="#000000" stroke-opacity="1" stroke-width="5.76"/>
<path clip-path="url(#clip770)" d="M3109.41 195.958 Q3109.41 197.158 3108.39 197.158 Q3105.08 197.276 3103.73 198.388 Q3102.42 199.471 3101.92 201.579 L3093.54 234.986 Q3093.25 236.04 3093.08 236.157 Q3092.9 236.245 3092.58 236.245 Q3092.17 236.245 3091.93 236.04 Q3091.73 235.835 3091.44 235.103 L3076.5 199.793 Q3076.39 199.559 3076.24 199.237 Q3076.09 198.915 3075.98 198.71 L3068.04 230.36 Q3067.81 231.267 3067.81 231.736 Q3067.81 232.878 3068.6 233.61 Q3069.42 234.312 3071.76 234.4 Q3072.96 234.4 3072.96 235.044 Q3072.96 236.245 3071.88 236.245 Q3070.88 236.245 3068.8 236.157 Q3066.73 236.069 3065.7 236.069 Q3064.71 236.069 3062.69 236.157 Q3060.67 236.245 3059.7 236.245 Q3058.94 236.245 3058.94 235.571 Q3058.94 235.044 3059.14 234.781 Q3059.35 234.488 3059.52 234.459 Q3059.7 234.4 3059.96 234.4 Q3061.72 234.342 3062.92 233.99 Q3064.12 233.639 3064.79 232.965 Q3065.5 232.292 3065.82 231.619 Q3066.17 230.916 3066.43 229.891 L3074.46 197.685 Q3074.46 197.158 3070.39 197.158 Q3069.68 197.158 3069.39 197.129 Q3069.13 197.1 3068.92 196.953 Q3068.72 196.807 3068.72 196.485 Q3068.72 195.665 3069.07 195.49 Q3069.42 195.285 3070.44 195.285 L3078.5 195.285 Q3079.52 195.285 3079.78 195.46 Q3080.05 195.607 3080.4 196.426 L3093.66 227.725 L3100.37 201.052 Q3100.54 200.525 3100.54 199.793 Q3100.54 198.622 3099.66 197.92 Q3098.81 197.188 3096.47 197.158 Q3095.39 197.158 3095.39 196.485 Q3095.39 195.929 3095.59 195.665 Q3095.83 195.372 3096 195.343 Q3096.21 195.285 3096.47 195.285 Q3097.47 195.285 3099.52 195.372 Q3101.57 195.46 3102.59 195.46 Q3103.59 195.46 3105.61 195.372 Q3107.66 195.285 3108.65 195.285 Q3109 195.285 3109.18 195.46 Q3109.38 195.607 3109.41 195.782 L3109.41 195.958 Z" fill="#000000" fill-rule="evenodd" fill-opacity="1" /><path clip-path="url(#clip770)" d="M3149.72 241.265 Q3149.72 241.429 3149.54 242.064 Q3149.35 242.699 3148.9 243.683 Q3148.47 244.667 3147.85 245.569 Q3147.26 246.45 3146.28 247.106 Q3145.31 247.741 3144.21 247.741 Q3142.73 247.741 3141.75 246.757 Q3140.76 245.774 3140.76 244.298 Q3140.76 243.499 3141.32 241.982 Q3143.92 235.055 3143.92 232.575 Q3143.92 229.644 3141.64 229.644 Q3140.35 229.644 3139.19 230.177 Q3138.02 230.71 3137.26 231.448 Q3136.5 232.186 3135.91 233.026 Q3135.31 233.866 3135.05 234.419 Q3134.8 234.973 3134.74 235.219 L3132.22 245.343 Q3132.01 246.204 3131.87 246.614 Q3131.73 247.024 3131.34 247.372 Q3130.95 247.741 3130.33 247.741 Q3129.82 247.741 3129.45 247.434 Q3129.1 247.126 3129.1 246.593 Q3129.1 246.511 3129.2 246.081 Q3129.31 245.651 3129.45 245.056 Q3129.59 244.462 3129.66 244.113 Q3130.39 241.326 3130.5 240.937 L3131.66 236.059 Q3132.3 233.641 3132.3 232.575 Q3132.3 229.644 3130.02 229.644 Q3128.9 229.644 3127.83 230.075 Q3126.79 230.485 3126.07 231.058 Q3125.35 231.632 3124.7 232.432 Q3124.06 233.21 3123.73 233.743 Q3123.43 234.256 3123.18 234.768 L3122.65 236.858 Q3122.52 237.432 3121.93 239.666 L3121.01 243.458 Q3120.35 246.286 3120.21 246.552 Q3120 247.126 3119.55 247.434 Q3119.1 247.741 3118.65 247.741 Q3118.14 247.741 3117.79 247.434 Q3117.44 247.126 3117.44 246.593 Q3117.44 246.511 3117.5 246.204 Q3117.56 245.896 3117.67 245.466 Q3117.77 245.036 3117.81 244.79 L3120.25 235.096 Q3120.7 233.333 3120.8 232.78 Q3120.92 232.206 3120.92 231.571 Q3120.92 229.644 3119.61 229.644 Q3118.55 229.644 3117.85 230.915 Q3117.15 232.186 3116.56 234.645 Q3116.38 235.321 3116.25 235.465 Q3116.15 235.608 3115.84 235.608 Q3115.33 235.588 3115.33 235.178 Q3115.33 235.075 3115.49 234.419 Q3115.66 233.764 3115.97 232.78 Q3116.29 231.776 3116.64 231.12 Q3116.85 230.689 3117.03 230.403 Q3117.22 230.116 3117.58 229.665 Q3117.95 229.214 3118.51 228.968 Q3119.06 228.722 3119.74 228.722 Q3121.23 228.722 3122.34 229.685 Q3123.47 230.648 3123.61 232.37 Q3126.34 228.722 3130.15 228.722 Q3132.3 228.722 3133.59 229.808 Q3134.8 230.853 3134.94 232.78 Q3137.77 228.722 3141.79 228.722 Q3144.1 228.722 3145.35 229.931 Q3146.6 231.12 3146.6 233.21 Q3146.6 234.297 3146.05 236.366 Q3145.5 238.416 3145.13 239.441 Q3144.76 240.465 3144.04 242.433 Q3143.28 244.318 3143.28 245.425 Q3143.28 246.142 3143.53 246.47 Q3143.78 246.798 3144.31 246.798 Q3145.13 246.798 3145.85 246.327 Q3146.56 245.835 3147.08 245.036 Q3147.61 244.216 3147.96 243.396 Q3148.31 242.556 3148.57 241.613 Q3148.74 241.101 3148.82 240.978 Q3148.92 240.855 3149.21 240.855 Q3149.72 240.855 3149.72 241.265 Z" fill="#000000" fill-rule="evenodd" fill-opacity="1" /><path clip-path="url(#clip770)" d="M3168.67 242.412 Q3168.83 242.597 3168.83 242.781 Q3168.83 242.966 3168.42 243.499 Q3168.04 244.031 3167.2 244.749 Q3166.35 245.466 3165.27 246.142 Q3164.18 246.819 3162.58 247.27 Q3160.99 247.741 3159.3 247.741 Q3156.17 247.741 3154.32 245.671 Q3152.5 243.601 3152.5 240.629 Q3152.5 237.74 3154.12 234.973 Q3155.74 232.186 3158.36 230.464 Q3160.99 228.722 3163.75 228.722 Q3165.94 228.722 3167.32 229.747 Q3168.69 230.771 3168.69 232.329 Q3168.69 233.538 3167.99 234.276 Q3167.3 235.014 3166.35 235.014 Q3165.7 235.014 3165.25 234.645 Q3164.8 234.256 3164.8 233.538 Q3164.8 232.616 3165.56 231.899 Q3165.84 231.612 3166.17 231.489 Q3166.52 231.345 3166.72 231.345 Q3166.93 231.325 3167.4 231.325 Q3166.97 230.526 3165.94 230.095 Q3164.94 229.644 3163.79 229.644 Q3162.09 229.644 3160.47 230.833 Q3158.85 232.001 3157.87 233.846 Q3156.89 235.649 3156.25 238.211 Q3155.62 240.752 3155.62 242.228 Q3155.62 244.257 3156.56 245.528 Q3157.5 246.798 3159.39 246.798 Q3159.76 246.798 3160.14 246.778 Q3160.55 246.757 3161.58 246.532 Q3162.62 246.306 3163.55 245.917 Q3164.47 245.528 3165.64 244.687 Q3166.83 243.827 3167.77 242.658 Q3168.1 242.228 3168.32 242.228 Q3168.51 242.228 3168.67 242.412 Z" fill="#000000" fill-rule="evenodd" fill-opacity="1" /><path clip-path="url(#clip770)" d="M3193.53 227.139 Q3193.59 226.407 3194.73 226.407 L3231.47 226.407 Q3233.2 226.407 3233.23 227.081 Q3233.23 227.813 3231.59 227.783 L3195.14 227.783 Q3193.53 227.813 3193.53 227.139 M3193.53 215.428 Q3193.53 214.696 3194.79 214.725 L3231.41 214.725 Q3233.2 214.725 3233.23 215.428 Q3233.23 216.101 3231.71 216.101 L3194.73 216.101 Q3193.53 216.101 3193.53 215.428 Z" fill="#000000" fill-rule="evenodd" fill-opacity="1" /><path clip-path="url(#clip770)" d="M3256.36 202.019 L3256.36 200.145 Q3263.57 200.145 3267.28 196.309 Q3268.31 196.309 3268.48 196.544 Q3268.66 196.778 3268.66 197.861 L3268.66 231.502 Q3268.66 233.288 3269.54 233.844 Q3270.42 234.4 3274.25 234.4 L3276.16 234.4 L3276.16 236.245 Q3274.05 236.069 3266.44 236.069 Q3258.82 236.069 3256.74 236.245 L3256.74 234.4 L3258.65 234.4 Q3262.42 234.4 3263.33 233.873 Q3264.24 233.317 3264.24 231.502 L3264.24 200.438 Q3261.11 202.019 3256.36 202.019 Z" fill="#000000" fill-rule="evenodd" fill-opacity="1" /><path clip-path="url(#clip770)" d="M3279.02 217.068 Q3279.02 208.255 3281.25 203.453 Q3284.35 196.309 3291.67 196.309 Q3293.22 196.309 3294.83 196.749 Q3296.47 197.158 3298.52 198.769 Q3300.6 200.379 3301.86 203.014 Q3304.26 208.108 3304.26 217.068 Q3304.26 225.822 3302.04 230.594 Q3298.79 237.562 3291.61 237.562 Q3288.92 237.562 3286.17 236.186 Q3283.44 234.81 3281.72 231.502 Q3279.02 226.554 3279.02 217.068 M3284 216.336 Q3284 225.382 3284.65 228.984 Q3285.38 232.878 3287.37 234.576 Q3289.39 236.245 3291.61 236.245 Q3294.01 236.245 3296.01 234.459 Q3298.03 232.643 3298.64 228.749 Q3299.31 224.914 3299.28 216.336 Q3299.28 207.991 3298.7 204.654 Q3297.91 200.76 3295.8 199.208 Q3293.72 197.627 3291.61 197.627 Q3290.82 197.627 3289.97 197.861 Q3289.15 198.095 3287.95 198.769 Q3286.75 199.442 3285.82 201.111 Q3284.91 202.78 3284.47 205.298 Q3284 208.548 3284 216.336 Z" fill="#000000" fill-rule="evenodd" fill-opacity="1" /><path clip-path="url(#clip770)" d="M3316.64 217.068 Q3316.64 208.255 3318.87 203.453 Q3321.97 196.309 3329.29 196.309 Q3330.84 196.309 3332.45 196.749 Q3334.09 197.158 3336.14 198.769 Q3338.22 200.379 3339.48 203.014 Q3341.88 208.108 3341.88 217.068 Q3341.88 225.822 3339.66 230.594 Q3336.41 237.562 3329.23 237.562 Q3326.54 237.562 3323.79 236.186 Q3321.06 234.81 3319.34 231.502 Q3316.64 226.554 3316.64 217.068 M3321.62 216.336 Q3321.62 225.382 3322.26 228.984 Q3323 232.878 3324.99 234.576 Q3327.01 236.245 3329.23 236.245 Q3331.63 236.245 3333.62 234.459 Q3335.64 232.643 3336.26 228.749 Q3336.93 224.914 3336.9 216.336 Q3336.9 207.991 3336.32 204.654 Q3335.53 200.76 3333.42 199.208 Q3331.34 197.627 3329.23 197.627 Q3328.44 197.627 3327.59 197.861 Q3326.77 198.095 3325.57 198.769 Q3324.37 199.442 3323.44 201.111 Q3322.53 202.78 3322.09 205.298 Q3321.62 208.548 3321.62 216.336 Z" fill="#000000" fill-rule="evenodd" fill-opacity="1" /><path clip-path="url(#clip770)" d="M3346.58 217.068 Q3346.58 208.255 3348.8 203.453 Q3351.91 196.309 3359.23 196.309 Q3360.78 196.309 3362.39 196.749 Q3364.03 197.158 3366.08 198.769 Q3368.16 200.379 3369.42 203.014 Q3371.82 208.108 3371.82 217.068 Q3371.82 225.822 3369.59 230.594 Q3366.34 237.562 3359.17 237.562 Q3356.47 237.562 3353.72 236.186 Q3351 234.81 3349.27 231.502 Q3346.58 226.554 3346.58 217.068 M3351.56 216.336 Q3351.56 225.382 3352.2 228.984 Q3352.93 232.878 3354.92 234.576 Q3356.94 236.245 3359.17 236.245 Q3361.57 236.245 3363.56 234.459 Q3365.58 232.643 3366.2 228.749 Q3366.87 224.914 3366.84 216.336 Q3366.84 207.991 3366.25 204.654 Q3365.46 200.76 3363.36 199.208 Q3361.28 197.627 3359.17 197.627 Q3358.38 197.627 3357.53 197.861 Q3356.71 198.095 3355.51 198.769 Q3354.31 199.442 3353.37 201.111 Q3352.46 202.78 3352.02 205.298 Q3351.56 208.548 3351.56 216.336 Z" fill="#000000" fill-rule="evenodd" fill-opacity="1" /><path clip-path="url(#clip770)" d="M3376.51 217.068 Q3376.51 208.255 3378.74 203.453 Q3381.84 196.309 3389.16 196.309 Q3390.71 196.309 3392.32 196.749 Q3393.96 197.158 3396.01 198.769 Q3398.09 200.379 3399.35 203.014 Q3401.75 208.108 3401.75 217.068 Q3401.75 225.822 3399.53 230.594 Q3396.28 237.562 3389.1 237.562 Q3386.41 237.562 3383.66 236.186 Q3380.94 234.81 3379.21 231.502 Q3376.51 226.554 3376.51 217.068 M3381.49 216.336 Q3381.49 225.382 3382.14 228.984 Q3382.87 232.878 3384.86 234.576 Q3386.88 236.245 3389.1 236.245 Q3391.5 236.245 3393.5 234.459 Q3395.52 232.643 3396.13 228.749 Q3396.8 224.914 3396.77 216.336 Q3396.77 207.991 3396.19 204.654 Q3395.4 200.76 3393.29 199.208 Q3391.21 197.627 3389.1 197.627 Q3388.31 197.627 3387.46 197.861 Q3386.64 198.095 3385.44 198.769 Q3384.24 199.442 3383.31 201.111 Q3382.4 202.78 3381.96 205.298 Q3381.49 208.548 3381.49 216.336 Z" fill="#000000" fill-rule="evenodd" fill-opacity="1" /><polyline clip-path="url(#clip770)" style="stroke:#3da44d; stroke-linecap:butt; stroke-linejoin:round; stroke-width:5; stroke-opacity:1; fill:none" points="
  2802.88,277.862 3022.36,277.862 
  "/>
<circle clip-path="url(#clip770)" cx="2912.62" cy="277.862" r="28" fill="#3da44d" fill-rule="evenodd" fill-opacity="1" stroke="#000000" stroke-opacity="1" stroke-width="5.76"/>
<path clip-path="url(#clip770)" d="M3109.41 260.758 Q3109.41 261.958 3108.39 261.958 Q3105.08 262.076 3103.73 263.188 Q3102.42 264.271 3101.92 266.379 L3093.54 299.786 Q3093.25 300.84 3093.08 300.957 Q3092.9 301.045 3092.58 301.045 Q3092.17 301.045 3091.93 300.84 Q3091.73 300.635 3091.44 299.903 L3076.5 264.593 Q3076.39 264.359 3076.24 264.037 Q3076.09 263.715 3075.98 263.51 L3068.04 295.16 Q3067.81 296.067 3067.81 296.536 Q3067.81 297.678 3068.6 298.41 Q3069.42 299.112 3071.76 299.2 Q3072.96 299.2 3072.96 299.844 Q3072.96 301.045 3071.88 301.045 Q3070.88 301.045 3068.8 300.957 Q3066.73 300.869 3065.7 300.869 Q3064.71 300.869 3062.69 300.957 Q3060.67 301.045 3059.7 301.045 Q3058.94 301.045 3058.94 300.371 Q3058.94 299.844 3059.14 299.581 Q3059.35 299.288 3059.52 299.259 Q3059.7 299.2 3059.96 299.2 Q3061.72 299.142 3062.92 298.79 Q3064.12 298.439 3064.79 297.765 Q3065.5 297.092 3065.82 296.419 Q3066.17 295.716 3066.43 294.691 L3074.46 262.485 Q3074.46 261.958 3070.39 261.958 Q3069.68 261.958 3069.39 261.929 Q3069.13 261.9 3068.92 261.753 Q3068.72 261.607 3068.72 261.285 Q3068.72 260.465 3069.07 260.29 Q3069.42 260.085 3070.44 260.085 L3078.5 260.085 Q3079.52 260.085 3079.78 260.26 Q3080.05 260.407 3080.4 261.226 L3093.66 292.525 L3100.37 265.852 Q3100.54 265.325 3100.54 264.593 Q3100.54 263.422 3099.66 262.72 Q3098.81 261.988 3096.47 261.958 Q3095.39 261.958 3095.39 261.285 Q3095.39 260.729 3095.59 260.465 Q3095.83 260.172 3096 260.143 Q3096.21 260.085 3096.47 260.085 Q3097.47 260.085 3099.52 260.172 Q3101.57 260.26 3102.59 260.26 Q3103.59 260.26 3105.61 260.172 Q3107.66 260.085 3108.65 260.085 Q3109 260.085 3109.18 260.26 Q3109.38 260.407 3109.41 260.582 L3109.41 260.758 Z" fill="#000000" fill-rule="evenodd" fill-opacity="1" /><path clip-path="url(#clip770)" d="M3149.72 306.065 Q3149.72 306.229 3149.54 306.864 Q3149.35 307.499 3148.9 308.483 Q3148.47 309.467 3147.85 310.369 Q3147.26 311.25 3146.28 311.906 Q3145.31 312.541 3144.21 312.541 Q3142.73 312.541 3141.75 311.557 Q3140.76 310.574 3140.76 309.098 Q3140.76 308.299 3141.32 306.782 Q3143.92 299.855 3143.92 297.375 Q3143.92 294.444 3141.64 294.444 Q3140.35 294.444 3139.19 294.977 Q3138.02 295.51 3137.26 296.248 Q3136.5 296.986 3135.91 297.826 Q3135.31 298.666 3135.05 299.219 Q3134.8 299.773 3134.74 300.019 L3132.22 310.143 Q3132.01 311.004 3131.87 311.414 Q3131.73 311.824 3131.34 312.172 Q3130.95 312.541 3130.33 312.541 Q3129.82 312.541 3129.45 312.234 Q3129.1 311.926 3129.1 311.393 Q3129.1 311.311 3129.2 310.881 Q3129.31 310.451 3129.45 309.856 Q3129.59 309.262 3129.66 308.913 Q3130.39 306.126 3130.5 305.737 L3131.66 300.859 Q3132.3 298.441 3132.3 297.375 Q3132.3 294.444 3130.02 294.444 Q3128.9 294.444 3127.83 294.875 Q3126.79 295.285 3126.07 295.858 Q3125.35 296.432 3124.7 297.232 Q3124.06 298.01 3123.73 298.543 Q3123.43 299.056 3123.18 299.568 L3122.65 301.658 Q3122.52 302.232 3121.93 304.466 L3121.01 308.258 Q3120.35 311.086 3120.21 311.352 Q3120 311.926 3119.55 312.234 Q3119.1 312.541 3118.65 312.541 Q3118.14 312.541 3117.79 312.234 Q3117.44 311.926 3117.44 311.393 Q3117.44 311.311 3117.5 311.004 Q3117.56 310.696 3117.67 310.266 Q3117.77 309.836 3117.81 309.59 L3120.25 299.896 Q3120.7 298.133 3120.8 297.58 Q3120.92 297.006 3120.92 296.371 Q3120.92 294.444 3119.61 294.444 Q3118.55 294.444 3117.85 295.715 Q3117.15 296.986 3116.56 299.445 Q3116.38 300.121 3116.25 300.265 Q3116.15 300.408 3115.84 300.408 Q3115.33 300.388 3115.33 299.978 Q3115.33 299.875 3115.49 299.219 Q3115.66 298.564 3115.97 297.58 Q3116.29 296.576 3116.64 295.92 Q3116.85 295.489 3117.03 295.203 Q3117.22 294.916 3117.58 294.465 Q3117.95 294.014 3118.51 293.768 Q3119.06 293.522 3119.74 293.522 Q3121.23 293.522 3122.34 294.485 Q3123.47 295.448 3123.61 297.17 Q3126.34 293.522 3130.15 293.522 Q3132.3 293.522 3133.59 294.608 Q3134.8 295.653 3134.94 297.58 Q3137.77 293.522 3141.79 293.522 Q3144.1 293.522 3145.35 294.731 Q3146.6 295.92 3146.6 298.01 Q3146.6 299.097 3146.05 301.166 Q3145.5 303.216 3145.13 304.241 Q3144.76 305.265 3144.04 307.233 Q3143.28 309.118 3143.28 310.225 Q3143.28 310.942 3143.53 311.27 Q3143.78 311.598 3144.31 311.598 Q3145.13 311.598 3145.85 311.127 Q3146.56 310.635 3147.08 309.836 Q3147.61 309.016 3147.96 308.196 Q3148.31 307.356 3148.57 306.413 Q3148.74 305.901 3148.82 305.778 Q3148.92 305.655 3149.21 305.655 Q3149.72 305.655 3149.72 306.065 Z" fill="#000000" fill-rule="evenodd" fill-opacity="1" /><path clip-path="url(#clip770)" d="M3168.67 307.212 Q3168.83 307.397 3168.83 307.581 Q3168.83 307.766 3168.42 308.299 Q3168.04 308.831 3167.2 309.549 Q3166.35 310.266 3165.27 310.942 Q3164.18 311.619 3162.58 312.07 Q3160.99 312.541 3159.3 312.541 Q3156.17 312.541 3154.32 310.471 Q3152.5 308.401 3152.5 305.429 Q3152.5 302.54 3154.12 299.773 Q3155.74 296.986 3158.36 295.264 Q3160.99 293.522 3163.75 293.522 Q3165.94 293.522 3167.32 294.547 Q3168.69 295.571 3168.69 297.129 Q3168.69 298.338 3167.99 299.076 Q3167.3 299.814 3166.35 299.814 Q3165.7 299.814 3165.25 299.445 Q3164.8 299.056 3164.8 298.338 Q3164.8 297.416 3165.56 296.699 Q3165.84 296.412 3166.17 296.289 Q3166.52 296.145 3166.72 296.145 Q3166.93 296.125 3167.4 296.125 Q3166.97 295.326 3165.94 294.895 Q3164.94 294.444 3163.79 294.444 Q3162.09 294.444 3160.47 295.633 Q3158.85 296.801 3157.87 298.646 Q3156.89 300.449 3156.25 303.011 Q3155.62 305.552 3155.62 307.028 Q3155.62 309.057 3156.56 310.328 Q3157.5 311.598 3159.39 311.598 Q3159.76 311.598 3160.14 311.578 Q3160.55 311.557 3161.58 311.332 Q3162.62 311.106 3163.55 310.717 Q3164.47 310.328 3165.64 309.487 Q3166.83 308.627 3167.77 307.458 Q3168.1 307.028 3168.32 307.028 Q3168.51 307.028 3168.67 307.212 Z" fill="#000000" fill-rule="evenodd" fill-opacity="1" /><path clip-path="url(#clip770)" d="M3193.53 291.939 Q3193.59 291.207 3194.73 291.207 L3231.47 291.207 Q3233.2 291.207 3233.23 291.881 Q3233.23 292.613 3231.59 292.583 L3195.14 292.583 Q3193.53 292.613 3193.53 291.939 M3193.53 280.228 Q3193.53 279.496 3194.79 279.525 L3231.41 279.525 Q3233.2 279.525 3233.23 280.228 Q3233.23 280.901 3231.71 280.901 L3194.73 280.901 Q3193.53 280.901 3193.53 280.228 Z" fill="#000000" fill-rule="evenodd" fill-opacity="1" /><path clip-path="url(#clip770)" d="M3256.36 266.819 L3256.36 264.945 Q3263.57 264.945 3267.28 261.109 Q3268.31 261.109 3268.48 261.344 Q3268.66 261.578 3268.66 262.661 L3268.66 296.302 Q3268.66 298.088 3269.54 298.644 Q3270.42 299.2 3274.25 299.2 L3276.16 299.2 L3276.16 301.045 Q3274.05 300.869 3266.44 300.869 Q3258.82 300.869 3256.74 301.045 L3256.74 299.2 L3258.65 299.2 Q3262.42 299.2 3263.33 298.673 Q3264.24 298.117 3264.24 296.302 L3264.24 265.238 Q3261.11 266.819 3256.36 266.819 Z" fill="#000000" fill-rule="evenodd" fill-opacity="1" /><path clip-path="url(#clip770)" d="M3279.02 281.868 Q3279.02 273.055 3281.25 268.253 Q3284.35 261.109 3291.67 261.109 Q3293.22 261.109 3294.83 261.549 Q3296.47 261.958 3298.52 263.569 Q3300.6 265.179 3301.86 267.814 Q3304.26 272.908 3304.26 281.868 Q3304.26 290.622 3302.04 295.394 Q3298.79 302.362 3291.61 302.362 Q3288.92 302.362 3286.17 300.986 Q3283.44 299.61 3281.72 296.302 Q3279.02 291.354 3279.02 281.868 M3284 281.136 Q3284 290.182 3284.65 293.784 Q3285.38 297.678 3287.37 299.376 Q3289.39 301.045 3291.61 301.045 Q3294.01 301.045 3296.01 299.259 Q3298.03 297.443 3298.64 293.549 Q3299.31 289.714 3299.28 281.136 Q3299.28 272.791 3298.7 269.454 Q3297.91 265.56 3295.8 264.008 Q3293.72 262.427 3291.61 262.427 Q3290.82 262.427 3289.97 262.661 Q3289.15 262.895 3287.95 263.569 Q3286.75 264.242 3285.82 265.911 Q3284.91 267.58 3284.47 270.098 Q3284 273.348 3284 281.136 Z" fill="#000000" fill-rule="evenodd" fill-opacity="1" /><path clip-path="url(#clip770)" d="M3308.96 281.868 Q3308.96 273.055 3311.18 268.253 Q3314.29 261.109 3321.61 261.109 Q3323.16 261.109 3324.77 261.549 Q3326.41 261.958 3328.46 263.569 Q3330.54 265.179 3331.8 267.814 Q3334.2 272.908 3334.2 281.868 Q3334.2 290.622 3331.97 295.394 Q3328.72 302.362 3321.55 302.362 Q3318.86 302.362 3316.1 300.986 Q3313.38 299.61 3311.65 296.302 Q3308.96 291.354 3308.96 281.868 M3313.94 281.136 Q3313.94 290.182 3314.58 293.784 Q3315.31 297.678 3317.3 299.376 Q3319.32 301.045 3321.55 301.045 Q3323.95 301.045 3325.94 299.259 Q3327.96 297.443 3328.58 293.549 Q3329.25 289.714 3329.22 281.136 Q3329.22 272.791 3328.63 269.454 Q3327.84 265.56 3325.74 264.008 Q3323.66 262.427 3321.55 262.427 Q3320.76 262.427 3319.91 262.661 Q3319.09 262.895 3317.89 263.569 Q3316.69 264.242 3315.75 265.911 Q3314.84 267.58 3314.4 270.098 Q3313.94 273.348 3313.94 281.136 Z" fill="#000000" fill-rule="evenodd" fill-opacity="1" /><path clip-path="url(#clip770)" d="M3346.58 281.868 Q3346.58 273.055 3348.8 268.253 Q3351.91 261.109 3359.23 261.109 Q3360.78 261.109 3362.39 261.549 Q3364.03 261.958 3366.08 263.569 Q3368.16 265.179 3369.42 267.814 Q3371.82 272.908 3371.82 281.868 Q3371.82 290.622 3369.59 295.394 Q3366.34 302.362 3359.17 302.362 Q3356.47 302.362 3353.72 300.986 Q3351 299.61 3349.27 296.302 Q3346.58 291.354 3346.58 281.868 M3351.56 281.136 Q3351.56 290.182 3352.2 293.784 Q3352.93 297.678 3354.92 299.376 Q3356.94 301.045 3359.17 301.045 Q3361.57 301.045 3363.56 299.259 Q3365.58 297.443 3366.2 293.549 Q3366.87 289.714 3366.84 281.136 Q3366.84 272.791 3366.25 269.454 Q3365.46 265.56 3363.36 264.008 Q3361.28 262.427 3359.17 262.427 Q3358.38 262.427 3357.53 262.661 Q3356.71 262.895 3355.51 263.569 Q3354.31 264.242 3353.37 265.911 Q3352.46 267.58 3352.02 270.098 Q3351.56 273.348 3351.56 281.136 Z" fill="#000000" fill-rule="evenodd" fill-opacity="1" /><path clip-path="url(#clip770)" d="M3376.51 281.868 Q3376.51 273.055 3378.74 268.253 Q3381.84 261.109 3389.16 261.109 Q3390.71 261.109 3392.32 261.549 Q3393.96 261.958 3396.01 263.569 Q3398.09 265.179 3399.35 267.814 Q3401.75 272.908 3401.75 281.868 Q3401.75 290.622 3399.53 295.394 Q3396.28 302.362 3389.1 302.362 Q3386.41 302.362 3383.66 300.986 Q3380.94 299.61 3379.21 296.302 Q3376.51 291.354 3376.51 281.868 M3381.49 281.136 Q3381.49 290.182 3382.14 293.784 Q3382.87 297.678 3384.86 299.376 Q3386.88 301.045 3389.1 301.045 Q3391.5 301.045 3393.5 299.259 Q3395.52 297.443 3396.13 293.549 Q3396.8 289.714 3396.77 281.136 Q3396.77 272.791 3396.19 269.454 Q3395.4 265.56 3393.29 264.008 Q3391.21 262.427 3389.1 262.427 Q3388.31 262.427 3387.46 262.661 Q3386.64 262.895 3385.44 263.569 Q3384.24 264.242 3383.31 265.911 Q3382.4 267.58 3381.96 270.098 Q3381.49 273.348 3381.49 281.136 Z" fill="#000000" fill-rule="evenodd" fill-opacity="1" /><path clip-path="url(#clip770)" d="M3406.45 281.868 Q3406.45 273.055 3408.67 268.253 Q3411.78 261.109 3419.1 261.109 Q3420.65 261.109 3422.26 261.549 Q3423.9 261.958 3425.95 263.569 Q3428.03 265.179 3429.29 267.814 Q3431.69 272.908 3431.69 281.868 Q3431.69 290.622 3429.46 295.394 Q3426.21 302.362 3419.04 302.362 Q3416.35 302.362 3413.59 300.986 Q3410.87 299.61 3409.14 296.302 Q3406.45 291.354 3406.45 281.868 M3411.43 281.136 Q3411.43 290.182 3412.07 293.784 Q3412.8 297.678 3414.79 299.376 Q3416.81 301.045 3419.04 301.045 Q3421.44 301.045 3423.43 299.259 Q3425.45 297.443 3426.07 293.549 Q3426.74 289.714 3426.71 281.136 Q3426.71 272.791 3426.12 269.454 Q3425.33 265.56 3423.23 264.008 Q3421.15 262.427 3419.04 262.427 Q3418.25 262.427 3417.4 262.661 Q3416.58 262.895 3415.38 263.569 Q3414.18 264.242 3413.24 265.911 Q3412.33 267.58 3411.9 270.098 Q3411.43 273.348 3411.43 281.136 Z" fill="#000000" fill-rule="evenodd" fill-opacity="1" /></svg>
