<?xml version="1.0" encoding="utf-8"?>
<svg xmlns="http://www.w3.org/2000/svg" xmlns:xlink="http://www.w3.org/1999/xlink" width="900" height="300" viewBox="0 0 3600 1200">
<defs>
  <clipPath id="clip250">
    <rect x="0" y="0" width="3600" height="1200"/>
  </clipPath>
</defs>
<path clip-path="url(#clip250)" d="
M0 1200 L3600 1200 L3600 0 L0 0  Z
  " fill="#ffffff" fill-rule="evenodd" fill-opacity="1"/>
<defs>
  <clipPath id="clip251">
    <rect x="720" y="0" width="2521" height="1200"/>
  </clipPath>
</defs>
<defs>
  <clipPath id="clip252">
    <rect x="324" y="110" width="3166" height="885"/>
  </clipPath>
</defs>
<path clip-path="url(#clip250)" d="
M324.413 994.428 L3489.76 994.428 L3489.76 110.236 L324.413 110.236  Z
  " fill="#ffffff" fill-rule="evenodd" fill-opacity="1"/>
<polyline clip-path="url(#clip252)" style="stroke:#000000; stroke-linecap:butt; stroke-linejoin:round; stroke-width:2; stroke-opacity:0.1; fill:none" points="
  571.165,994.428 571.165,110.236 
  "/>
<polyline clip-path="url(#clip252)" style="stroke:#000000; stroke-linecap:butt; stroke-linejoin:round; stroke-width:2; stroke-opacity:0.1; fill:none" points="
  885.5,994.428 885.5,110.236 
  "/>
<polyline clip-path="url(#clip252)" style="stroke:#000000; stroke-linecap:butt; stroke-linejoin:round; stroke-width:2; stroke-opacity:0.1; fill:none" points="
  1199.83,994.428 1199.83,110.236 
  "/>
<polyline clip-path="url(#clip252)" style="stroke:#000000; stroke-linecap:butt; stroke-linejoin:round; stroke-width:2; stroke-opacity:0.1; fill:none" points="
  1514.17,994.428 1514.17,110.236 
  "/>
<polyline clip-path="url(#clip252)" style="stroke:#000000; stroke-linecap:butt; stroke-linejoin:round; stroke-width:2; stroke-opacity:0.1; fill:none" points="
  1828.5,994.428 1828.5,110.236 
  "/>
<polyline clip-path="url(#clip252)" style="stroke:#000000; stroke-linecap:butt; stroke-linejoin:round; stroke-width:2; stroke-opacity:0.1; fill:none" points="
  2142.84,994.428 2142.84,110.236 
  "/>
<polyline clip-path="url(#clip252)" style="stroke:#000000; stroke-linecap:butt; stroke-linejoin:round; stroke-width:2; stroke-opacity:0.1; fill:none" points="
  2457.17,994.428 2457.17,110.236 
  "/>
<polyline clip-path="url(#clip252)" style="stroke:#000000; stroke-linecap:butt; stroke-linejoin:round; stroke-width:2; stroke-opacity:0.1; fill:none" points="
  2771.51,994.428 2771.51,110.236 
  "/>
<polyline clip-path="url(#clip252)" style="stroke:#000000; stroke-linecap:butt; stroke-linejoin:round; stroke-width:2; stroke-opacity:0.1; fill:none" points="
  3085.84,994.428 3085.84,110.236 
  "/>
<polyline clip-path="url(#clip252)" style="stroke:#000000; stroke-linecap:butt; stroke-linejoin:round; stroke-width:2; stroke-opacity:0.1; fill:none" points="
  3400.18,994.428 3400.18,110.236 
  "/>
<polyline clip-path="url(#clip250)" style="stroke:#000000; stroke-linecap:butt; stroke-linejoin:round; stroke-width:4; stroke-opacity:1; fill:none" points="
  324.413,994.428 3489.76,994.428 
  "/>
<polyline clip-path="url(#clip250)" style="stroke:#000000; stroke-linecap:butt; stroke-linejoin:round; stroke-width:4; stroke-opacity:1; fill:none" points="
  324.413,110.236 3489.76,110.236 
  "/>
<polyline clip-path="url(#clip250)" style="stroke:#000000; stroke-linecap:butt; stroke-linejoin:round; stroke-width:4; stroke-opacity:1; fill:none" points="
  571.165,994.428 571.165,975.53 
  "/>
<polyline clip-path="url(#clip250)" style="stroke:#000000; stroke-linecap:butt; stroke-linejoin:round; stroke-width:4; stroke-opacity:1; fill:none" points="
  885.5,994.428 885.5,975.53 
  "/>
<polyline clip-path="url(#clip250)" style="stroke:#000000; stroke-linecap:butt; stroke-linejoin:round; stroke-width:4; stroke-opacity:1; fill:none" points="
  1199.83,994.428 1199.83,975.53 
  "/>
<polyline clip-path="url(#clip250)" style="stroke:#000000; stroke-linecap:butt; stroke-linejoin:round; stroke-width:4; stroke-opacity:1; fill:none" points="
  1514.17,994.428 1514.17,975.53 
  "/>
<polyline clip-path="url(#clip250)" style="stroke:#000000; stroke-linecap:butt; stroke-linejoin:round; stroke-width:4; stroke-opacity:1; fill:none" points="
  1828.5,994.428 1828.5,975.53 
  "/>
<polyline clip-path="url(#clip250)" style="stroke:#000000; stroke-linecap:butt; stroke-linejoin:round; stroke-width:4; stroke-opacity:1; fill:none" points="
  2142.84,994.428 2142.84,975.53 
  "/>
<polyline clip-path="url(#clip250)" style="stroke:#000000; stroke-linecap:butt; stroke-linejoin:round; stroke-width:4; stroke-opacity:1; fill:none" points="
  2457.17,994.428 2457.17,975.53 
  "/>
<polyline clip-path="url(#clip250)" style="stroke:#000000; stroke-linecap:butt; stroke-linejoin:round; stroke-width:4; stroke-opacity:1; fill:none" points="
  2771.51,994.428 2771.51,975.53 
  "/>
<polyline clip-path="url(#clip250)" style="stroke:#000000; stroke-linecap:butt; stroke-linejoin:round; stroke-width:4; stroke-opacity:1; fill:none" points="
  3085.84,994.428 3085.84,975.53 
  "/>
<polyline clip-path="url(#clip250)" style="stroke:#000000; stroke-linecap:butt; stroke-linejoin:round; stroke-width:4; stroke-opacity:1; fill:none" points="
  3400.18,994.428 3400.18,975.53 
  "/>
<path clip-path="url(#clip250)" d="M560.728 1041.13 L560.728 1039.15 Q568.324 1039.15 572.246 1035.11 Q573.327 1035.11 573.512 1035.36 Q573.697 1035.6 573.697 1036.75 L573.697 1072.23 Q573.697 1074.11 574.624 1074.7 Q575.55 1075.28 579.595 1075.28 L581.603 1075.28 L581.603 1077.23 Q579.379 1077.04 571.351 1077.04 Q563.322 1077.04 561.13 1077.23 L561.13 1075.28 L563.137 1075.28 Q567.12 1075.28 568.077 1074.73 Q569.035 1074.14 569.035 1072.23 L569.035 1039.46 Q565.731 1041.13 560.728 1041.13 Z" fill="#000000" fill-rule="evenodd" fill-opacity="1" /><path clip-path="url(#clip250)" d="M872.871 1077.23 Q872.871 1076.09 872.963 1075.75 Q873.087 1075.41 873.581 1074.88 L885.716 1061.36 Q892.355 1053.88 892.355 1047.37 Q892.355 1043.14 890.132 1040.11 Q887.94 1037.08 883.894 1037.08 Q881.115 1037.08 878.768 1038.78 Q876.422 1040.48 875.341 1043.51 Q875.526 1043.45 876.175 1043.45 Q877.749 1043.45 878.614 1044.43 Q879.51 1045.42 879.51 1046.75 Q879.51 1048.45 878.398 1049.28 Q877.317 1050.08 876.236 1050.08 Q875.804 1050.08 875.217 1049.99 Q874.662 1049.9 873.766 1049.04 Q872.871 1048.14 872.871 1046.56 Q872.871 1042.15 876.205 1038.63 Q879.571 1035.11 884.697 1035.11 Q890.503 1035.11 894.301 1038.57 Q898.13 1041.99 898.13 1047.37 Q898.13 1049.25 897.543 1050.98 Q896.987 1052.68 896.215 1054.01 Q895.474 1055.33 893.436 1057.47 Q891.398 1059.6 889.761 1061.11 Q888.125 1062.62 884.45 1065.83 L877.749 1072.35 L889.144 1072.35 Q894.702 1072.35 895.134 1071.85 Q895.752 1070.96 896.524 1066.23 L898.13 1066.23 L896.339 1077.23 L872.871 1077.23 Z" fill="#000000" fill-rule="evenodd" fill-opacity="1" /><path clip-path="url(#clip250)" d="M1186.71 1068.71 Q1186.71 1066.82 1187.79 1065.93 Q1188.87 1065.03 1190.26 1065.03 Q1191.71 1065.03 1192.73 1065.99 Q1193.78 1066.91 1193.78 1068.55 Q1193.78 1070.31 1192.55 1071.3 Q1191.34 1072.29 1189.61 1072.04 Q1191.13 1074.57 1193.91 1075.71 Q1196.72 1076.86 1199.31 1076.86 Q1202.03 1076.86 1204.22 1074.51 Q1206.44 1072.16 1206.44 1066.42 Q1206.44 1061.54 1204.53 1058.73 Q1202.64 1055.92 1198.91 1055.92 L1196.13 1055.92 Q1195.17 1055.92 1194.89 1055.83 Q1194.62 1055.74 1194.62 1055.21 Q1194.62 1054.59 1195.57 1054.47 Q1196.53 1054.47 1198.04 1054.28 Q1201.72 1054.16 1203.66 1050.98 Q1205.42 1048.02 1205.42 1043.79 Q1205.42 1039.93 1203.57 1038.32 Q1201.75 1036.68 1199.37 1036.68 Q1197.15 1036.68 1194.71 1037.61 Q1192.27 1038.54 1190.94 1040.6 Q1194.86 1040.6 1194.86 1043.79 Q1194.86 1045.18 1193.97 1046.1 Q1193.1 1047 1191.65 1047 Q1190.26 1047 1189.34 1046.13 Q1188.41 1045.24 1188.41 1043.72 Q1188.41 1040.11 1191.62 1037.61 Q1194.86 1035.11 1199.62 1035.11 Q1204.31 1035.11 1207.77 1037.58 Q1211.26 1040.05 1211.26 1043.85 Q1211.26 1047.58 1208.79 1050.64 Q1206.32 1053.7 1202.4 1054.96 Q1207.22 1055.92 1210.09 1059.19 Q1212.96 1062.44 1212.96 1066.42 Q1212.96 1071.36 1209.07 1075 Q1205.18 1078.62 1199.5 1078.62 Q1194.25 1078.62 1190.48 1075.78 Q1186.71 1072.94 1186.71 1068.71 Z" fill="#000000" fill-rule="evenodd" fill-opacity="1" /><path clip-path="url(#clip250)" d="M1500.15 1066.79 L1500.15 1064.85 L1519.57 1035.17 Q1520.07 1034.4 1520.84 1034.43 Q1521.55 1034.43 1521.7 1034.71 Q1521.86 1034.98 1521.86 1036.07 L1521.86 1064.85 L1528.19 1064.85 L1528.19 1066.79 L1521.86 1066.79 L1521.86 1072.29 Q1521.86 1074.11 1522.6 1074.7 Q1523.37 1075.28 1526.64 1075.28 L1527.97 1075.28 L1527.97 1077.23 Q1525.38 1077.04 1519.39 1077.04 Q1513.43 1077.04 1510.83 1077.23 L1510.83 1075.28 L1512.16 1075.28 Q1515.44 1075.28 1516.21 1074.73 Q1516.98 1074.14 1516.98 1072.29 L1516.98 1066.79 L1500.15 1066.79 M1501.94 1064.85 L1517.35 1064.85 L1517.35 1041.25 L1501.94 1064.85 Z" fill="#000000" fill-rule="evenodd" fill-opacity="1" /><path clip-path="url(#clip250)" d="M1815.87 1067.04 Q1815.87 1065.15 1816.89 1064.44 Q1817.91 1063.7 1818.99 1063.7 Q1820.44 1063.7 1821.28 1064.63 Q1822.14 1065.52 1822.14 1066.79 Q1822.14 1068.06 1821.28 1068.98 Q1820.44 1069.88 1818.99 1069.88 Q1818.28 1069.88 1817.91 1069.75 Q1818.75 1072.66 1821.28 1074.76 Q1823.84 1076.86 1827.21 1076.86 Q1831.44 1076.86 1833.97 1072.75 Q1835.48 1070.09 1835.48 1064.07 Q1835.48 1058.76 1834.34 1056.11 Q1832.58 1052.06 1828.97 1052.06 Q1823.84 1052.06 1820.82 1056.48 Q1820.44 1057.03 1820.01 1057.06 Q1819.4 1057.06 1819.24 1056.72 Q1819.12 1056.35 1819.12 1055.4 L1819.12 1036.68 Q1819.12 1035.17 1819.73 1035.17 Q1819.98 1035.17 1820.51 1035.36 Q1824.49 1037.12 1828.91 1037.15 Q1833.45 1037.15 1837.52 1035.29 Q1837.83 1035.11 1838.02 1035.11 Q1838.63 1035.11 1838.66 1035.82 Q1838.66 1036.07 1838.14 1036.81 Q1837.64 1037.52 1836.56 1038.47 Q1835.48 1039.4 1834.09 1040.3 Q1832.7 1041.19 1830.67 1041.81 Q1828.66 1042.4 1826.44 1042.4 Q1823.78 1042.4 1821.06 1041.56 L1821.06 1053.88 Q1824.34 1050.67 1829.09 1050.67 Q1834.16 1050.67 1837.64 1054.75 Q1841.13 1058.82 1841.13 1064.51 Q1841.13 1070.47 1837 1074.54 Q1832.89 1078.62 1827.33 1078.62 Q1822.27 1078.62 1819.06 1075 Q1815.87 1071.39 1815.87 1067.04 Z" fill="#000000" fill-rule="evenodd" fill-opacity="1" /><path clip-path="url(#clip250)" d="M2129.72 1057.25 Q2129.72 1047.31 2134.78 1041.22 Q2139.84 1035.11 2146.36 1035.11 Q2150.16 1035.11 2152.26 1037.05 Q2154.39 1038.97 2154.39 1041.93 Q2154.39 1043.57 2153.43 1044.28 Q2152.47 1044.99 2151.49 1044.99 Q2150.34 1044.99 2149.45 1044.22 Q2148.55 1043.45 2148.55 1042.06 Q2148.55 1039.22 2152.04 1039.22 Q2150.4 1036.68 2146.48 1036.68 Q2145.28 1036.68 2144.04 1037.05 Q2142.81 1037.39 2141.2 1038.57 Q2139.6 1039.74 2138.36 1041.59 Q2137.13 1043.45 2136.26 1046.94 Q2135.4 1050.42 2135.4 1054.96 L2135.4 1056.48 Q2137.99 1050.21 2143.3 1050.24 Q2148.61 1050.24 2152.29 1054.28 Q2155.96 1058.33 2155.96 1064.32 Q2155.96 1070.47 2152.13 1074.54 Q2148.3 1078.62 2142.93 1078.62 Q2140.52 1078.62 2138.33 1077.6 Q2136.17 1076.61 2134.13 1074.33 Q2132.12 1072.04 2130.92 1067.66 Q2129.72 1063.27 2129.72 1057.25 M2135.52 1062.93 Q2135.52 1069.14 2136.66 1072.1 Q2136.85 1072.6 2137.25 1073.28 Q2137.68 1073.95 2138.39 1074.85 Q2139.13 1075.71 2140.34 1076.3 Q2141.54 1076.86 2142.93 1076.86 Q2147.16 1076.86 2149.2 1072.75 Q2150.28 1070.47 2150.28 1064.26 Q2150.28 1057.93 2149.14 1055.61 Q2147.19 1051.69 2143.24 1051.69 Q2140.59 1051.69 2138.73 1053.51 Q2136.91 1055.33 2136.2 1057.77 Q2135.52 1060.21 2135.52 1062.93 Z" fill="#000000" fill-rule="evenodd" fill-opacity="1" /><path clip-path="url(#clip250)" d="M2443.62 1047.49 L2445.69 1034.49 L2447.26 1034.49 Q2447.45 1035.26 2447.76 1035.6 Q2448.1 1035.94 2449.89 1036.22 Q2451.71 1036.5 2455.38 1036.5 L2470.73 1036.5 Q2470.73 1037.95 2470.17 1038.72 L2461.62 1050.73 Q2458.9 1054.53 2457.7 1061.54 Q2456.99 1066.23 2457.02 1071.92 L2457.02 1075.13 Q2457.02 1078.62 2454.09 1078.62 Q2451.18 1078.62 2451.18 1075.13 Q2451.18 1063.05 2458.97 1051.35 Q2459.8 1050.15 2462.86 1045.85 Q2465.94 1041.56 2466.07 1041.38 L2452.97 1041.38 Q2447.23 1041.38 2446.77 1041.75 Q2446.15 1042.3 2445.19 1047.49 L2443.62 1047.49 Z" fill="#000000" fill-rule="evenodd" fill-opacity="1" /><path clip-path="url(#clip250)" d="M2758.39 1067.69 Q2758.39 1060.61 2767.49 1056.04 Q2763.57 1053.39 2762.86 1052.62 Q2760.08 1049.53 2760.08 1045.67 Q2760.08 1041.25 2763.42 1038.2 Q2766.78 1035.11 2771.54 1035.11 Q2776.08 1035.11 2779.51 1037.73 Q2782.93 1040.36 2782.93 1044.53 Q2782.93 1050.39 2775.28 1054.35 Q2780.34 1057.5 2781.54 1058.82 Q2784.63 1062.25 2784.63 1066.61 Q2784.63 1071.67 2780.74 1075.16 Q2776.85 1078.62 2771.48 1078.62 Q2766.23 1078.62 2762.31 1075.56 Q2758.39 1072.5 2758.39 1067.69 M2761.53 1067.69 Q2761.53 1071.61 2764.47 1074.23 Q2767.43 1076.86 2771.54 1076.86 Q2775.52 1076.86 2778.49 1074.57 Q2781.48 1072.29 2781.48 1068.89 Q2781.48 1067.56 2781.02 1066.42 Q2780.59 1065.28 2779.69 1064.38 Q2778.83 1063.46 2778.27 1063.05 Q2777.75 1062.62 2776.73 1061.91 L2768.95 1057 Q2761.53 1061.11 2761.53 1067.69 M2762.86 1043.2 Q2762.86 1046.23 2766.04 1048.32 L2773.89 1053.39 Q2780.15 1049.71 2780.15 1044.53 Q2780.15 1041.16 2777.59 1038.94 Q2775.03 1036.68 2771.48 1036.68 Q2767.99 1036.68 2765.43 1038.54 Q2762.86 1040.36 2762.86 1043.2 Z" fill="#000000" fill-rule="evenodd" fill-opacity="1" /><path clip-path="url(#clip250)" d="M3072.72 1049.34 Q3072.72 1045.98 3073.71 1043.69 Q3074.7 1041.38 3076.77 1039.09 Q3080.56 1035.11 3086.06 1035.11 Q3088.41 1035.11 3090.48 1036.1 Q3092.58 1037.08 3094.55 1039.34 Q3096.56 1041.56 3097.76 1045.98 Q3098.97 1050.36 3098.97 1056.42 Q3098.97 1066.2 3094.21 1072.41 Q3089.49 1078.62 3083.1 1078.62 Q3079.05 1078.62 3076.67 1076.8 Q3074.29 1074.94 3074.29 1071.79 Q3074.29 1070.16 3075.22 1069.48 Q3076.15 1068.77 3077.2 1068.77 Q3078.34 1068.77 3079.24 1069.54 Q3080.13 1070.28 3080.13 1071.67 Q3080.13 1072.81 3079.39 1073.71 Q3078.68 1074.57 3076.83 1074.57 Q3078.65 1076.86 3083.03 1076.86 Q3084.61 1076.86 3086.18 1076.15 Q3087.76 1075.41 3089.46 1073.65 Q3091.19 1071.85 3092.24 1068.12 Q3093.29 1064.38 3093.29 1059.13 L3093.29 1057.13 Q3090.75 1063.46 3085.38 1063.46 Q3080.07 1063.46 3076.39 1059.38 Q3072.72 1055.3 3072.72 1049.34 M3078.4 1049.41 Q3078.4 1055.67 3079.54 1057.99 Q3081.49 1061.97 3085.44 1061.97 Q3089.3 1061.97 3091.22 1058.55 Q3093.16 1055.09 3093.16 1050.61 Q3093.16 1044.4 3092.14 1041.69 Q3090.26 1036.68 3086.06 1036.68 Q3081.89 1036.68 3079.73 1040.67 Q3078.4 1043.01 3078.4 1049.41 Z" fill="#000000" fill-rule="evenodd" fill-opacity="1" /><path clip-path="url(#clip250)" d="M3372.63 1041.13 L3372.63 1039.15 Q3380.23 1039.15 3384.15 1035.11 Q3385.23 1035.11 3385.42 1035.36 Q3385.6 1035.6 3385.6 1036.75 L3385.6 1072.23 Q3385.6 1074.11 3386.53 1074.7 Q3387.46 1075.28 3391.5 1075.28 L3393.51 1075.28 L3393.51 1077.23 Q3391.29 1077.04 3383.26 1077.04 Q3375.23 1077.04 3373.04 1077.23 L3373.04 1075.28 L3375.04 1075.28 Q3379.03 1075.28 3379.98 1074.73 Q3380.94 1074.14 3380.94 1072.23 L3380.94 1039.46 Q3377.64 1041.13 3372.63 1041.13 Z" fill="#000000" fill-rule="evenodd" fill-opacity="1" /><path clip-path="url(#clip250)" d="M3401.1 1057 Q3401.1 1047.71 3403.45 1042.64 Q3406.72 1035.11 3414.44 1035.11 Q3416.08 1035.11 3417.78 1035.57 Q3419.51 1036 3421.67 1037.7 Q3423.86 1039.4 3425.19 1042.18 Q3427.72 1047.55 3427.72 1057 Q3427.72 1066.23 3425.38 1071.27 Q3421.95 1078.62 3414.38 1078.62 Q3411.54 1078.62 3408.64 1077.17 Q3405.77 1075.71 3403.95 1072.23 Q3401.1 1067.01 3401.1 1057 M3406.35 1056.23 Q3406.35 1065.77 3407.03 1069.57 Q3407.81 1073.68 3409.91 1075.47 Q3412.04 1077.23 3414.38 1077.23 Q3416.91 1077.23 3419.01 1075.34 Q3421.15 1073.43 3421.79 1069.32 Q3422.5 1065.28 3422.47 1056.23 Q3422.47 1047.43 3421.86 1043.91 Q3421.02 1039.8 3418.8 1038.17 Q3416.61 1036.5 3414.38 1036.5 Q3413.55 1036.5 3412.65 1036.75 Q3411.79 1036.99 3410.52 1037.7 Q3409.26 1038.41 3408.27 1040.17 Q3407.31 1041.93 3406.85 1044.59 Q3406.35 1048.02 3406.35 1056.23 Z" fill="#000000" fill-rule="evenodd" fill-opacity="1" /><path clip-path="url(#clip250)" d="M1943.26 1121.51 Q1943.26 1122.04 1943.13 1122.41 Q1943.01 1122.74 1942.72 1122.9 Q1942.44 1123.07 1942.27 1123.11 Q1942.11 1123.15 1941.74 1123.19 Q1939.98 1123.35 1938.75 1123.64 Q1937.56 1123.93 1934.61 1125.4 Q1931.7 1126.88 1928.05 1129.54 L1913.38 1140.9 L1910.92 1142.82 Q1910.92 1142.95 1911 1143.19 Q1911.08 1143.4 1911.16 1143.68 Q1911.29 1143.93 1911.33 1144.01 L1923.26 1171.52 Q1924.2 1173.73 1925.35 1174.51 Q1926.49 1175.29 1929.08 1175.33 Q1929.49 1175.33 1929.65 1175.37 Q1929.85 1175.37 1930.14 1175.45 Q1930.47 1175.49 1930.59 1175.7 Q1930.76 1175.9 1930.76 1176.23 Q1930.76 1177.91 1929.24 1177.91 Q1928.3 1177.91 1925.1 1177.79 Q1921.9 1177.66 1921 1177.66 Q1919.32 1177.66 1915.88 1177.79 Q1912.43 1177.91 1910.75 1177.91 Q1909.56 1177.91 1909.56 1176.97 Q1909.56 1176.19 1909.85 1175.82 Q1910.18 1175.41 1910.47 1175.37 Q1910.75 1175.33 1911.41 1175.33 Q1911.9 1175.33 1912.43 1175.29 Q1913.01 1175.2 1913.83 1175 Q1914.69 1174.75 1915.22 1174.18 Q1915.8 1173.57 1915.8 1172.7 Q1915.8 1172.01 1914.77 1169.75 L1905.06 1147.17 L1892.55 1156.92 L1889.19 1170.12 Q1889.11 1170.61 1888.91 1171.47 Q1888.7 1172.34 1888.54 1172.95 Q1888.41 1173.57 1888.41 1173.81 Q1888.41 1174.34 1888.74 1174.67 Q1889.11 1175 1890.01 1175.16 Q1890.91 1175.29 1891.61 1175.33 Q1892.35 1175.33 1893.87 1175.33 Q1895.75 1175.33 1896.08 1175.66 Q1896.24 1175.86 1896.24 1176.23 Q1896.24 1176.8 1896.08 1177.21 Q1895.92 1177.58 1895.59 1177.71 Q1895.3 1177.83 1895.1 1177.87 Q1894.89 1177.91 1894.56 1177.91 Q1893.7 1177.91 1891.86 1177.83 Q1890.05 1177.75 1889.11 1177.75 L1883.74 1177.66 L1873.08 1177.91 Q1871.81 1177.91 1871.81 1176.89 Q1871.81 1176.11 1872.14 1175.78 Q1872.47 1175.41 1872.84 1175.37 Q1873.21 1175.33 1874.15 1175.33 Q1876.2 1175.33 1877.43 1175.2 Q1878.66 1175.08 1879.44 1174.92 Q1880.26 1174.71 1880.67 1174.14 Q1881.12 1173.57 1881.32 1173.07 Q1881.53 1172.54 1881.81 1171.35 L1893.05 1126.26 Q1893.37 1124.91 1893.37 1124.71 Q1893.37 1124.01 1892.96 1123.76 Q1892.6 1123.48 1891.53 1123.35 Q1889.48 1123.19 1887.92 1123.19 Q1886.9 1123.19 1886.49 1123.15 Q1886.12 1123.11 1885.79 1122.9 Q1885.5 1122.66 1885.5 1122.16 Q1885.5 1120.57 1887.18 1120.57 L1898.01 1120.81 L1908.74 1120.57 Q1909.93 1120.57 1909.93 1121.51 Q1909.93 1122.7 1909.36 1122.94 Q1908.83 1123.19 1907.06 1123.19 Q1903.99 1123.19 1902.6 1123.6 Q1901.24 1123.97 1900.83 1124.62 Q1900.47 1125.24 1900.01 1127.04 L1893.29 1153.97 L1926.04 1128.81 Q1929.08 1126.26 1929.08 1124.95 Q1929.08 1124.09 1928.46 1123.72 Q1927.89 1123.31 1926.45 1123.19 Q1925.43 1123.03 1925.43 1122.25 Q1925.43 1121.47 1925.71 1121.1 Q1926.04 1120.69 1926.29 1120.65 Q1926.58 1120.57 1927.03 1120.57 Q1928.54 1120.57 1931.7 1120.69 Q1934.86 1120.81 1936.37 1120.81 Q1937.4 1120.81 1939.4 1120.69 Q1941.41 1120.57 1942.32 1120.57 Q1942.77 1120.57 1943.01 1120.89 Q1943.26 1121.18 1943.26 1121.51 Z" fill="#000000" fill-rule="evenodd" fill-opacity="1" /><polyline clip-path="url(#clip252)" style="stroke:#000000; stroke-linecap:butt; stroke-linejoin:round; stroke-width:2; stroke-opacity:0.1; fill:none" points="
  324.413,878.754 3489.76,878.754 
  "/>
<polyline clip-path="url(#clip252)" style="stroke:#000000; stroke-linecap:butt; stroke-linejoin:round; stroke-width:2; stroke-opacity:0.1; fill:none" points="
  324.413,494.495 3489.76,494.495 
  "/>
<polyline clip-path="url(#clip252)" style="stroke:#000000; stroke-linecap:butt; stroke-linejoin:round; stroke-width:2; stroke-opacity:0.1; fill:none" points="
  324.413,110.236 3489.76,110.236 
  "/>
<polyline clip-path="url(#clip250)" style="stroke:#000000; stroke-linecap:butt; stroke-linejoin:round; stroke-width:4; stroke-opacity:1; fill:none" points="
  324.413,994.428 324.413,110.236 
  "/>
<polyline clip-path="url(#clip250)" style="stroke:#000000; stroke-linecap:butt; stroke-linejoin:round; stroke-width:4; stroke-opacity:1; fill:none" points="
  3489.76,994.428 3489.76,110.236 
  "/>
<polyline clip-path="url(#clip250)" style="stroke:#000000; stroke-linecap:butt; stroke-linejoin:round; stroke-width:4; stroke-opacity:1; fill:none" points="
  324.413,878.754 343.31,878.754 
  "/>
<polyline clip-path="url(#clip250)" style="stroke:#000000; stroke-linecap:butt; stroke-linejoin:round; stroke-width:4; stroke-opacity:1; fill:none" points="
  324.413,494.495 343.31,494.495 
  "/>
<polyline clip-path="url(#clip250)" style="stroke:#000000; stroke-linecap:butt; stroke-linejoin:round; stroke-width:4; stroke-opacity:1; fill:none" points="
  324.413,110.236 343.31,110.236 
  "/>
<path clip-path="url(#clip250)" d="M156.715 872.316 L156.715 870.34 Q164.312 870.34 168.233 866.295 Q169.314 866.295 169.499 866.542 Q169.685 866.789 169.685 867.931 L169.685 903.411 Q169.685 905.295 170.611 905.882 Q171.537 906.468 175.583 906.468 L177.59 906.468 L177.59 908.414 Q175.366 908.228 167.338 908.228 Q159.309 908.228 157.117 908.414 L157.117 906.468 L159.124 906.468 Q163.107 906.468 164.065 905.913 Q165.022 905.326 165.022 903.411 L165.022 870.648 Q161.718 872.316 156.715 872.316 Z" fill="#000000" fill-rule="evenodd" fill-opacity="1" /><path clip-path="url(#clip250)" d="M185.186 888.188 Q185.186 878.893 187.533 873.829 Q190.806 866.295 198.526 866.295 Q200.162 866.295 201.861 866.758 Q203.59 867.19 205.751 868.888 Q207.944 870.587 209.272 873.366 Q211.804 878.739 211.804 888.188 Q211.804 897.421 209.457 902.454 Q206.029 909.803 198.464 909.803 Q195.623 909.803 192.72 908.352 Q189.849 906.901 188.027 903.411 Q185.186 898.193 185.186 888.188 M190.435 887.416 Q190.435 896.958 191.115 900.756 Q191.887 904.863 193.987 906.654 Q196.117 908.414 198.464 908.414 Q200.996 908.414 203.096 906.53 Q205.227 904.616 205.875 900.509 Q206.585 896.463 206.554 887.416 Q206.554 878.615 205.937 875.095 Q205.103 870.988 202.88 869.352 Q200.687 867.684 198.464 867.684 Q197.63 867.684 196.735 867.931 Q195.87 868.178 194.604 868.888 Q193.338 869.599 192.35 871.359 Q191.393 873.119 190.929 875.774 Q190.435 879.202 190.435 887.416 Z" fill="#000000" fill-rule="evenodd" fill-opacity="1" /><path clip-path="url(#clip250)" d="M245.725 860.577 Q246.026 860.878 246.026 861.305 Q246.026 861.732 245.725 862.033 Q245.424 862.334 244.997 862.334 L212.832 862.334 Q212.406 862.334 212.105 862.033 Q211.804 861.732 211.804 861.305 Q211.804 860.878 212.105 860.577 Q212.406 860.276 212.832 860.276 L244.997 860.276 Q245.424 860.276 245.725 860.577 Z" fill="#000000" fill-rule="evenodd" fill-opacity="1" /><path clip-path="url(#clip250)" d="M253.452 844.821 L253.452 843.216 Q259.624 843.216 262.81 839.929 Q263.689 839.929 263.839 840.13 Q263.99 840.33 263.99 841.259 L263.99 870.086 Q263.99 871.617 264.742 872.093 Q265.495 872.57 268.782 872.57 L270.413 872.57 L270.413 874.151 Q268.606 874 262.083 874 Q255.56 874 253.778 874.151 L253.778 872.57 L255.409 872.57 Q258.646 872.57 259.423 872.118 Q260.201 871.642 260.201 870.086 L260.201 843.466 Q257.517 844.821 253.452 844.821 Z" fill="#000000" fill-rule="evenodd" fill-opacity="1" /><path clip-path="url(#clip250)" d="M193.697 488.057 L193.697 486.081 Q201.293 486.081 205.215 482.035 Q206.296 482.035 206.481 482.283 Q206.666 482.53 206.666 483.672 L206.666 519.152 Q206.666 521.036 207.593 521.623 Q208.519 522.209 212.564 522.209 L214.571 522.209 L214.571 524.155 Q212.348 523.969 204.319 523.969 Q196.291 523.969 194.098 524.155 L194.098 522.209 L196.106 522.209 Q200.089 522.209 201.046 521.654 Q202.004 521.067 202.004 519.152 L202.004 486.389 Q198.699 488.057 193.697 488.057 Z" fill="#000000" fill-rule="evenodd" fill-opacity="1" /><path clip-path="url(#clip250)" d="M222.168 503.929 Q222.168 494.634 224.514 489.57 Q227.788 482.035 235.507 482.035 Q237.144 482.035 238.842 482.499 Q240.572 482.931 242.733 484.629 Q244.926 486.328 246.253 489.107 Q248.786 494.48 248.786 503.929 Q248.786 513.162 246.439 518.195 Q243.011 525.544 235.446 525.544 Q232.605 525.544 229.702 524.093 Q226.83 522.642 225.009 519.152 Q222.168 513.934 222.168 503.929 M227.417 503.157 Q227.417 512.699 228.096 516.497 Q228.868 520.604 230.968 522.395 Q233.099 524.155 235.446 524.155 Q237.978 524.155 240.078 522.271 Q242.208 520.357 242.857 516.25 Q243.567 512.204 243.536 503.157 Q243.536 494.356 242.918 490.836 Q242.085 486.729 239.861 485.093 Q237.669 483.425 235.446 483.425 Q234.612 483.425 233.716 483.672 Q232.852 483.919 231.586 484.629 Q230.32 485.34 229.332 487.1 Q228.374 488.86 227.911 491.515 Q227.417 494.943 227.417 503.157 Z" fill="#000000" fill-rule="evenodd" fill-opacity="1" /><path clip-path="url(#clip250)" d="M248.786 473.458 Q248.786 465.906 250.692 461.792 Q253.352 455.67 259.624 455.67 Q260.954 455.67 262.334 456.046 Q263.739 456.397 265.495 457.777 Q267.276 459.157 268.355 461.415 Q270.413 465.781 270.413 473.458 Q270.413 480.96 268.506 485.049 Q265.721 491.021 259.574 491.021 Q257.266 491.021 254.907 489.842 Q252.574 488.662 251.094 485.827 Q248.786 481.587 248.786 473.458 M253.051 472.831 Q253.051 480.584 253.603 483.67 Q254.23 487.006 255.936 488.462 Q257.667 489.892 259.574 489.892 Q261.631 489.892 263.337 488.361 Q265.069 486.806 265.595 483.469 Q266.172 480.182 266.147 472.831 Q266.147 465.681 265.646 462.82 Q264.968 459.483 263.162 458.154 Q261.38 456.799 259.574 456.799 Q258.897 456.799 258.169 457 Q257.466 457.2 256.438 457.777 Q255.409 458.354 254.606 459.785 Q253.828 461.215 253.452 463.372 Q253.051 466.157 253.051 472.831 Z" fill="#000000" fill-rule="evenodd" fill-opacity="1" /><path clip-path="url(#clip250)" d="M198.364 103.798 L198.364 101.822 Q205.96 101.822 209.882 97.7765 Q210.962 97.7765 211.148 98.0235 Q211.333 98.2706 211.333 99.4131 L211.333 134.893 Q211.333 136.777 212.259 137.364 Q213.186 137.95 217.231 137.95 L219.238 137.95 L219.238 139.896 Q217.015 139.71 208.986 139.71 Q200.958 139.71 198.765 139.896 L198.765 137.95 L200.772 137.95 Q204.756 137.95 205.713 137.395 Q206.67 136.808 206.67 134.893 L206.67 102.13 Q203.366 103.798 198.364 103.798 Z" fill="#000000" fill-rule="evenodd" fill-opacity="1" /><path clip-path="url(#clip250)" d="M226.834 119.67 Q226.834 110.375 229.181 105.311 Q232.454 97.7765 240.174 97.7765 Q241.811 97.7765 243.509 98.2397 Q245.238 98.672 247.4 100.37 Q249.592 102.069 250.92 104.848 Q253.452 110.221 253.452 119.67 Q253.452 128.903 251.105 133.936 Q247.678 141.285 240.112 141.285 Q237.271 141.285 234.369 139.834 Q231.497 138.383 229.675 134.893 Q226.834 129.675 226.834 119.67 M232.084 118.898 Q232.084 128.44 232.763 132.238 Q233.535 136.345 235.635 138.136 Q237.766 139.896 240.112 139.896 Q242.644 139.896 244.744 138.012 Q246.875 136.098 247.523 131.991 Q248.234 127.945 248.203 118.898 Q248.203 110.097 247.585 106.577 Q246.751 102.47 244.528 100.834 Q242.336 99.1661 240.112 99.1661 Q239.279 99.1661 238.383 99.4131 Q237.518 99.6601 236.252 100.37 Q234.986 101.081 233.998 102.841 Q233.041 104.601 232.578 107.256 Q232.084 110.684 232.084 118.898 Z" fill="#000000" fill-rule="evenodd" fill-opacity="1" /><path clip-path="url(#clip250)" d="M253.452 76.3033 L253.452 74.6976 Q259.624 74.6976 262.81 71.4108 Q263.689 71.4108 263.839 71.6116 Q263.99 71.8123 263.99 72.7406 L263.99 101.568 Q263.99 103.099 264.742 103.575 Q265.495 104.052 268.782 104.052 L270.413 104.052 L270.413 105.633 Q268.606 105.482 262.083 105.482 Q255.56 105.482 253.778 105.633 L253.778 104.052 L255.409 104.052 Q258.646 104.052 259.423 103.6 Q260.201 103.124 260.201 101.568 L260.201 74.9484 Q257.517 76.3033 253.452 76.3033 Z" fill="#000000" fill-rule="evenodd" fill-opacity="1" /><path clip-path="url(#clip250)" d="M91.0014 836.281 Q90.6735 836.281 88.542 835.175 Q86.3696 834.068 78.6226 830.174 Q70.8347 826.28 62.6778 822.263 L33.5754 807.794 Q31.7309 806.769 31.7309 805.457 Q31.7309 804.269 32.4687 803.736 Q33.2065 803.203 38.1662 800.744 Q40.5846 799.473 42.1422 798.735 L89.6488 775.002 Q90.6735 774.593 91.0014 774.552 Q91.8212 774.552 91.8212 775.986 L91.8212 834.068 Q91.8212 836.281 91.0014 836.281 M85.4269 830.748 L85.4269 785.578 L40.0927 808.163 L85.4269 830.748 Z" fill="#000000" fill-rule="evenodd" fill-opacity="1" /><path clip-path="url(#clip250)" d="M90.1406 709.482 Q90.9194 709.482 91.3293 709.81 Q91.6982 710.097 91.7802 710.384 Q91.8212 710.63 91.8212 710.998 Q91.8212 712.064 91.6982 715.753 Q91.5752 719.442 91.5752 720.508 Q91.5752 722.229 91.6982 725.755 Q91.8212 729.28 91.8212 731.001 Q91.8212 732.149 90.8784 732.149 Q90.2636 732.149 89.9357 732.026 Q89.5668 731.903 89.4438 731.575 Q89.2798 731.206 89.2798 731.001 Q89.2389 730.755 89.2389 730.14 Q89.2389 729.321 89.1569 728.46 Q89.0339 727.599 88.788 726.533 Q88.542 725.468 87.9272 724.812 Q87.3124 724.115 86.4516 724.115 Q86.0827 724.115 83.0495 724.402 Q80.0163 724.689 76.4912 725.058 Q72.9251 725.427 72.4333 725.468 L72.4333 746.536 Q75.7534 748.463 78.0488 749.815 Q80.3442 751.168 81.123 751.66 Q81.9018 752.152 82.3936 752.439 Q82.8855 752.725 83.1724 752.889 Q85.3449 754.078 86.2876 754.078 Q88.9109 754.078 89.2389 750.143 Q89.2389 748.791 90.2226 748.791 Q90.9604 748.791 91.3703 749.118 Q91.7392 749.446 91.7802 749.733 Q91.8212 749.979 91.8212 750.389 Q91.8212 751.742 91.6982 754.57 Q91.5752 757.398 91.5752 758.792 Q91.5752 759.981 91.6982 762.44 Q91.8212 764.899 91.8212 766.006 Q91.8212 766.498 91.5343 766.785 Q91.2473 767.072 90.8784 767.072 Q90.3046 767.072 89.9767 766.99 Q89.6488 766.867 89.4848 766.539 Q89.3208 766.211 89.3208 766.047 Q89.2798 765.883 89.2389 765.309 Q89.0339 762.194 87.5583 759.776 Q86.0417 757.316 82.1477 754.98 L33.1245 725.796 Q32.6327 725.509 32.3867 725.304 Q32.1408 725.099 31.9358 724.689 Q31.7309 724.238 31.7309 723.582 Q31.7309 722.557 32.0588 722.352 Q32.3457 722.147 33.7394 722.025 L86.2057 716.901 Q87.3124 716.778 87.7632 716.696 Q88.1731 716.573 88.624 716.04 Q89.0339 715.466 89.1569 714.442 Q89.2389 713.376 89.2389 711.408 Q89.2389 710.671 89.2798 710.384 Q89.2798 710.097 89.4848 709.81 Q89.6897 709.482 90.1406 709.482 M69.8099 725.714 L42.1422 728.378 L69.8099 744.938 L69.8099 725.714 Z" fill="#000000" fill-rule="evenodd" fill-opacity="1" /><path clip-path="url(#clip250)" d="M86.3295 679.454 Q87.9363 679.454 88.7971 680.258 Q89.6291 681.061 89.6291 682.151 Q89.6291 683.041 89.1127 683.529 Q88.5962 683.988 87.9076 683.988 Q86.9034 683.988 86.1 683.184 Q85.2966 682.352 85.2679 681.147 Q84.2063 681.549 83.575 682.61 Q82.9151 683.672 82.7429 684.619 Q82.5708 685.537 82.5708 686.455 Q82.5708 688.263 83.1446 689.64 Q83.7185 691.017 84.608 691.706 Q85.4687 692.394 86.3008 692.71 Q87.1329 693.026 87.8502 693.026 Q88.4814 693.026 88.9979 692.882 Q89.4857 692.71 89.8587 692.308 Q90.203 691.907 90.4325 691.62 Q90.6621 691.304 90.8629 690.616 Q91.0638 689.927 91.1498 689.64 Q91.2072 689.353 91.3794 688.55 Q91.7237 686.886 91.9245 686.14 Q92.0967 685.394 92.5845 684.418 Q93.0722 683.414 93.8469 682.668 Q95.6546 680.86 98.1508 680.86 Q99.069 680.86 100.188 681.176 Q101.307 681.463 102.713 682.295 Q104.119 683.127 105.238 684.389 Q106.357 685.652 107.132 687.832 Q107.906 689.984 107.906 692.681 Q107.906 696.44 106.328 698.764 Q104.721 701.088 102.196 701.088 Q100.36 701.088 99.3559 700.084 Q98.323 699.08 98.323 697.789 Q98.323 696.813 98.8681 696.211 Q99.3846 695.608 100.36 695.608 Q101.68 695.608 102.684 696.67 Q103.688 697.731 103.488 699.309 Q106.586 697.961 106.586 692.624 Q106.586 690.616 106.07 689.066 Q105.525 687.488 104.779 686.627 Q104.004 685.738 103.057 685.164 Q102.11 684.59 101.393 684.418 Q100.676 684.217 100.131 684.217 Q99.1837 684.217 98.4664 684.59 Q97.7491 684.963 97.3474 685.48 Q96.917 685.967 96.5727 686.914 Q96.1997 687.832 96.0563 688.492 Q95.9128 689.152 95.6833 690.329 Q95.5685 690.874 95.5111 691.218 Q95.425 691.562 95.1955 692.28 Q94.9373 692.968 94.679 693.456 Q94.4208 693.915 93.9617 694.518 Q93.5026 695.12 92.9575 695.493 Q92.4123 695.866 91.6089 696.125 Q90.8055 696.383 89.8587 696.383 Q88.9979 696.383 87.965 696.125 Q86.9321 695.838 85.727 695.12 Q84.5219 694.374 83.5463 693.313 Q82.5708 692.251 81.9396 690.472 Q81.2796 688.664 81.2796 686.455 Q81.2796 683.242 82.7716 681.348 Q84.235 679.454 86.3295 679.454 Z" fill="#000000" fill-rule="evenodd" fill-opacity="1" /><path clip-path="url(#clip250)" d="M100.446 651.694 Q100.704 651.465 100.963 651.465 Q101.221 651.465 101.967 652.038 Q102.713 652.584 103.717 653.76 Q104.721 654.936 105.668 656.457 Q106.615 657.978 107.246 660.216 Q107.906 662.454 107.906 664.807 Q107.906 669.024 104.894 671.549 Q101.881 674.046 97.2614 674.046 Q94.306 674.046 91.695 673.07 Q89.0553 672.094 87.1903 670.516 Q85.3253 668.91 83.9767 666.901 Q82.5995 664.864 81.9396 662.741 Q81.2796 660.617 81.2796 658.638 Q81.2796 655.74 82.7429 654.047 Q84.2063 652.354 86.2721 652.354 Q86.7599 652.354 87.3624 652.497 Q87.965 652.612 88.9118 653.014 Q89.8587 653.387 90.8055 654.363 Q91.7237 655.338 92.3262 656.773 Q93.6748 659.958 93.6748 665.753 L93.6748 668.881 Q97.3761 669.799 99.7863 669.799 Q100.733 669.799 101.709 669.627 Q102.656 669.455 103.861 668.996 Q105.066 668.508 105.84 667.418 Q106.586 666.299 106.586 664.692 Q106.586 664.175 106.558 663.63 Q106.529 663.056 106.213 661.622 Q105.898 660.158 105.353 658.867 Q104.807 657.576 103.631 655.941 Q102.426 654.276 100.791 652.957 Q100.188 652.497 100.188 652.182 Q100.188 651.924 100.446 651.694 M86.2721 654.305 Q84.694 654.305 83.6324 655.482 Q82.5708 656.629 82.5708 658.638 Q82.5708 659.269 82.7143 660.044 Q82.8577 660.818 83.4603 662.109 Q84.0628 663.372 85.067 664.491 Q86.0426 665.61 87.965 666.729 Q89.8587 667.848 92.3836 668.508 L92.3836 666.098 Q92.3836 665.266 92.3836 664.663 Q92.3549 664.061 92.2402 662.741 Q92.1254 661.392 91.9245 660.417 Q91.695 659.441 91.2359 658.207 Q90.7768 656.974 90.1743 656.199 Q89.5431 655.395 88.5388 654.85 Q87.5346 654.305 86.2721 654.305 Z" fill="#000000" fill-rule="evenodd" fill-opacity="1" /><path clip-path="url(#clip250)" d="M30.9628 652.942 Q31.1923 652.942 32.0818 653.201 Q32.9713 653.459 34.3485 654.09 Q35.7258 654.693 36.9882 655.553 Q38.222 656.385 39.1402 657.763 Q40.0296 659.111 40.0296 660.661 Q40.0296 662.726 38.6524 664.104 Q37.2751 665.481 35.2093 665.481 Q34.0903 665.481 31.967 664.706 Q22.269 661.062 18.7972 661.062 Q14.6942 661.062 14.6942 664.247 Q14.6942 666.055 15.4402 667.69 Q16.1862 669.326 17.2191 670.387 Q18.252 671.449 19.4284 672.281 Q20.6048 673.113 21.3795 673.486 Q22.1542 673.83 22.4985 673.917 L36.6726 677.446 Q37.8777 677.733 38.4515 677.933 Q39.0254 678.134 39.5132 678.679 Q40.0296 679.225 40.0296 680.085 Q40.0296 680.803 39.5992 681.319 Q39.1689 681.807 38.4228 681.807 Q38.3081 681.807 37.7055 681.663 Q37.103 681.52 36.2709 681.319 Q35.4388 681.118 34.9511 681.032 Q31.0489 679.999 30.5037 679.856 L23.6749 678.22 Q20.2892 677.331 18.7972 677.331 Q14.6942 677.331 14.6942 680.516 Q14.6942 682.094 15.2967 683.586 Q15.8705 685.049 16.6739 686.053 Q17.4773 687.058 18.5963 687.976 Q19.6866 688.865 20.4327 689.324 Q21.15 689.755 21.8673 690.099 L24.7939 690.845 Q25.5973 691.017 28.7248 691.849 L34.0329 693.14 Q37.9925 694.059 38.3655 694.259 Q39.1689 694.546 39.5992 695.178 Q40.0296 695.809 40.0296 696.44 Q40.0296 697.157 39.5992 697.645 Q39.1689 698.133 38.4228 698.133 Q38.3081 698.133 37.8777 698.047 Q37.4473 697.961 36.8448 697.817 Q36.2422 697.674 35.8979 697.617 L22.3264 694.202 Q19.8588 693.571 19.0841 693.427 Q18.2807 693.255 17.3912 693.255 Q14.6942 693.255 14.6942 695.092 Q14.6942 696.584 16.4731 697.559 Q18.252 698.535 21.6951 699.367 Q22.642 699.625 22.8428 699.797 Q23.0437 699.941 23.0437 700.371 Q23.015 701.088 22.4411 701.088 Q22.2977 701.088 21.3795 700.859 Q20.4613 700.629 19.0841 700.199 Q17.6782 699.74 16.76 699.252 Q16.1575 698.965 15.7558 698.707 Q15.3541 698.449 14.7228 697.932 Q14.0916 697.416 13.7473 696.641 Q13.403 695.866 13.403 694.919 Q13.403 692.825 14.7515 691.275 Q16.1001 689.697 18.5103 689.497 Q13.403 685.68 13.403 680.344 Q13.403 677.331 14.9237 675.523 Q16.387 673.83 19.0841 673.63 Q13.403 669.67 13.403 664.046 Q13.403 660.804 15.0958 659.054 Q16.76 657.304 19.6866 657.304 Q21.2073 657.304 24.1053 658.078 Q26.9745 658.853 28.4092 659.369 Q29.8438 659.886 32.5983 660.89 Q35.238 661.952 36.7874 661.952 Q37.7916 661.952 38.2507 661.607 Q38.7098 661.263 38.7098 660.517 Q38.7098 659.369 38.0498 658.365 Q37.3612 657.361 36.2422 656.644 Q35.0945 655.898 33.9468 655.41 Q32.7704 654.922 31.4506 654.549 Q30.7333 654.32 30.5611 654.205 Q30.3889 654.061 30.3889 653.66 Q30.3889 652.942 30.9628 652.942 Z" fill="#000000" fill-rule="evenodd" fill-opacity="1" /><path clip-path="url(#clip250)" d="M32.5696 626.42 Q32.8278 626.19 33.086 626.19 Q33.3443 626.19 34.0903 626.764 Q34.8363 627.309 35.8405 628.486 Q36.8448 629.662 37.7916 631.183 Q38.7385 632.703 39.3697 634.941 Q40.0296 637.179 40.0296 639.532 Q40.0296 643.922 37.1317 646.505 Q34.2337 649.058 30.0733 649.058 Q26.0277 649.058 22.1542 646.791 Q18.252 644.525 15.8419 640.852 Q13.403 637.179 13.403 633.306 Q13.403 630.236 14.8376 628.314 Q16.2722 626.391 18.4529 626.391 Q20.1457 626.391 21.1787 627.367 Q22.2116 628.342 22.2116 629.662 Q22.2116 630.58 21.6951 631.211 Q21.15 631.843 20.1457 631.843 Q18.8546 631.843 17.8503 630.781 Q17.4486 630.379 17.2765 629.92 Q17.0756 629.433 17.0756 629.146 Q17.0469 628.859 17.0469 628.199 Q15.9279 628.801 15.3254 630.236 Q14.6942 631.642 14.6942 633.249 Q14.6942 635.63 16.3583 637.897 Q17.9938 640.164 20.5761 641.541 Q23.1011 642.918 26.6876 643.807 Q30.2455 644.697 32.3113 644.697 Q35.1519 644.697 36.9308 643.377 Q38.7098 642.057 38.7098 639.417 Q38.7098 638.901 38.6811 638.356 Q38.6524 637.782 38.3368 636.347 Q38.0212 634.884 37.476 633.593 Q36.9308 632.302 35.7544 630.666 Q34.5494 629.002 32.9139 627.682 Q32.3113 627.223 32.3113 626.908 Q32.3113 626.649 32.5696 626.42 Z" fill="#000000" fill-rule="evenodd" fill-opacity="1" /><path clip-path="url(#clip250)" d="M111.619 614.923 Q111.209 614.923 110.307 614.595 L31.1161 584.96 Q31.0341 584.96 30.5832 584.755 Q30.1323 584.55 29.8454 584.427 Q29.5175 584.304 29.2715 584.058 Q29.0256 583.771 29.0256 583.443 Q29.0256 582.623 30.0503 582.623 Q30.1323 582.623 31.1161 582.869 L110.389 612.587 Q111.824 613.078 112.234 613.406 Q112.644 613.693 112.644 614.185 Q112.644 614.923 111.619 614.923 Z" fill="#000000" fill-rule="evenodd" fill-opacity="1" /><path clip-path="url(#clip250)" d="M90.1406 515.767 Q90.9194 515.767 91.3293 516.094 Q91.6982 516.381 91.7802 516.668 Q91.8212 516.914 91.8212 517.283 Q91.8212 518.349 91.6982 522.038 Q91.5752 525.727 91.5752 526.793 Q91.5752 528.514 91.6982 532.039 Q91.8212 535.564 91.8212 537.286 Q91.8212 538.434 90.8784 538.434 Q90.2636 538.434 89.9357 538.311 Q89.5668 538.188 89.4438 537.86 Q89.2798 537.491 89.2798 537.286 Q89.2389 537.04 89.2389 536.425 Q89.2389 535.605 89.1569 534.745 Q89.0339 533.884 88.788 532.818 Q88.542 531.752 87.9272 531.097 Q87.3124 530.4 86.4516 530.4 Q86.0827 530.4 83.0495 530.687 Q80.0163 530.974 76.4912 531.342 Q72.9251 531.711 72.4333 531.752 L72.4333 552.821 Q75.7534 554.747 78.0488 556.1 Q80.3442 557.453 81.123 557.945 Q81.9018 558.436 82.3936 558.723 Q82.8855 559.01 83.1724 559.174 Q85.3449 560.363 86.2876 560.363 Q88.9109 560.363 89.2389 556.428 Q89.2389 555.075 90.2226 555.075 Q90.9604 555.075 91.3703 555.403 Q91.7392 555.731 91.7802 556.018 Q91.8212 556.264 91.8212 556.674 Q91.8212 558.026 91.6982 560.855 Q91.5752 563.683 91.5752 565.077 Q91.5752 566.265 91.6982 568.725 Q91.8212 571.184 91.8212 572.291 Q91.8212 572.783 91.5343 573.07 Q91.2473 573.356 90.8784 573.356 Q90.3046 573.356 89.9767 573.275 Q89.6488 573.152 89.4848 572.824 Q89.3208 572.496 89.3208 572.332 Q89.2798 572.168 89.2389 571.594 Q89.0339 568.479 87.5583 566.06 Q86.0417 563.601 82.1477 561.265 L33.1245 532.08 Q32.6327 531.793 32.3867 531.588 Q32.1408 531.383 31.9358 530.974 Q31.7309 530.523 31.7309 529.867 Q31.7309 528.842 32.0588 528.637 Q32.3457 528.432 33.7394 528.309 L86.2057 523.186 Q87.3124 523.063 87.7632 522.981 Q88.1731 522.858 88.624 522.325 Q89.0339 521.751 89.1569 520.726 Q89.2389 519.661 89.2389 517.693 Q89.2389 516.955 89.2798 516.668 Q89.2798 516.381 89.4848 516.094 Q89.6897 515.767 90.1406 515.767 M69.8099 531.998 L42.1422 534.663 L69.8099 551.222 L69.8099 531.998 Z" fill="#000000" fill-rule="evenodd" fill-opacity="1" /><path clip-path="url(#clip250)" d="M86.3295 485.739 Q87.9363 485.739 88.7971 486.542 Q89.6291 487.346 89.6291 488.436 Q89.6291 489.325 89.1127 489.813 Q88.5962 490.272 87.9076 490.272 Q86.9034 490.272 86.1 489.469 Q85.2966 488.637 85.2679 487.432 Q84.2063 487.833 83.575 488.895 Q82.9151 489.957 82.7429 490.904 Q82.5708 491.822 82.5708 492.74 Q82.5708 494.548 83.1446 495.925 Q83.7185 497.302 84.608 497.991 Q85.4687 498.679 86.3008 498.995 Q87.1329 499.31 87.8502 499.31 Q88.4814 499.31 88.9979 499.167 Q89.4857 498.995 89.8587 498.593 Q90.203 498.191 90.4325 497.905 Q90.6621 497.589 90.8629 496.9 Q91.0638 496.212 91.1498 495.925 Q91.2072 495.638 91.3794 494.834 Q91.7237 493.17 91.9245 492.424 Q92.0967 491.678 92.5845 490.703 Q93.0722 489.698 93.8469 488.952 Q95.6546 487.145 98.1508 487.145 Q99.069 487.145 100.188 487.46 Q101.307 487.747 102.713 488.579 Q104.119 489.412 105.238 490.674 Q106.357 491.936 107.132 494.117 Q107.906 496.269 107.906 498.966 Q107.906 502.725 106.328 505.049 Q104.721 507.373 102.196 507.373 Q100.36 507.373 99.3559 506.369 Q98.323 505.365 98.323 504.073 Q98.323 503.098 98.8681 502.495 Q99.3846 501.893 100.36 501.893 Q101.68 501.893 102.684 502.954 Q103.688 504.016 103.488 505.594 Q106.586 504.246 106.586 498.909 Q106.586 496.9 106.07 495.351 Q105.525 493.773 104.779 492.912 Q104.004 492.023 103.057 491.449 Q102.11 490.875 101.393 490.703 Q100.676 490.502 100.131 490.502 Q99.1837 490.502 98.4664 490.875 Q97.7491 491.248 97.3474 491.764 Q96.917 492.252 96.5727 493.199 Q96.1997 494.117 96.0563 494.777 Q95.9128 495.437 95.6833 496.613 Q95.5685 497.159 95.5111 497.503 Q95.425 497.847 95.1955 498.564 Q94.9373 499.253 94.679 499.741 Q94.4208 500.2 93.9617 500.802 Q93.5026 501.405 92.9575 501.778 Q92.4123 502.151 91.6089 502.409 Q90.8055 502.667 89.8587 502.667 Q88.9979 502.667 87.965 502.409 Q86.9321 502.122 85.727 501.405 Q84.5219 500.659 83.5463 499.597 Q82.5708 498.536 81.9396 496.757 Q81.2796 494.949 81.2796 492.74 Q81.2796 489.526 82.7716 487.633 Q84.235 485.739 86.3295 485.739 Z" fill="#000000" fill-rule="evenodd" fill-opacity="1" /><path clip-path="url(#clip250)" d="M100.446 457.979 Q100.704 457.749 100.963 457.749 Q101.221 457.749 101.967 458.323 Q102.713 458.868 103.717 460.045 Q104.721 461.221 105.668 462.742 Q106.615 464.263 107.246 466.501 Q107.906 468.739 107.906 471.091 Q107.906 475.309 104.894 477.834 Q101.881 480.33 97.2614 480.33 Q94.306 480.33 91.695 479.355 Q89.0553 478.379 87.1903 476.801 Q85.3253 475.194 83.9767 473.186 Q82.5995 471.149 81.9396 469.025 Q81.2796 466.902 81.2796 464.922 Q81.2796 462.024 82.7429 460.332 Q84.2063 458.639 86.2721 458.639 Q86.7599 458.639 87.3624 458.782 Q87.965 458.897 88.9118 459.299 Q89.8587 459.672 90.8055 460.647 Q91.7237 461.623 92.3262 463.057 Q93.6748 466.242 93.6748 472.038 L93.6748 475.166 Q97.3761 476.084 99.7863 476.084 Q100.733 476.084 101.709 475.912 Q102.656 475.739 103.861 475.28 Q105.066 474.793 105.84 473.702 Q106.586 472.583 106.586 470.977 Q106.586 470.46 106.558 469.915 Q106.529 469.341 106.213 467.906 Q105.898 466.443 105.353 465.152 Q104.807 463.861 103.631 462.225 Q102.426 460.561 100.791 459.241 Q100.188 458.782 100.188 458.467 Q100.188 458.208 100.446 457.979 M86.2721 460.59 Q84.694 460.59 83.6324 461.766 Q82.5708 462.914 82.5708 464.922 Q82.5708 465.554 82.7143 466.328 Q82.8577 467.103 83.4603 468.394 Q84.0628 469.657 85.067 470.776 Q86.0426 471.895 87.965 473.014 Q89.8587 474.133 92.3836 474.793 L92.3836 472.382 Q92.3836 471.55 92.3836 470.948 Q92.3549 470.345 92.2402 469.025 Q92.1254 467.677 91.9245 466.701 Q91.695 465.726 91.2359 464.492 Q90.7768 463.258 90.1743 462.484 Q89.5431 461.68 88.5388 461.135 Q87.5346 460.59 86.2721 460.59 Z" fill="#000000" fill-rule="evenodd" fill-opacity="1" /><path clip-path="url(#clip250)" d="M30.9628 459.227 Q31.1923 459.227 32.0818 459.485 Q32.9713 459.744 34.3485 460.375 Q35.7258 460.977 36.9882 461.838 Q38.222 462.67 39.1402 464.047 Q40.0296 465.396 40.0296 466.945 Q40.0296 469.011 38.6524 470.388 Q37.2751 471.766 35.2093 471.766 Q34.0903 471.766 31.967 470.991 Q22.269 467.347 18.7972 467.347 Q14.6942 467.347 14.6942 470.532 Q14.6942 472.34 15.4402 473.975 Q16.1862 475.61 17.2191 476.672 Q18.252 477.734 19.4284 478.566 Q20.6048 479.398 21.3795 479.771 Q22.1542 480.115 22.4985 480.201 L36.6726 483.73 Q37.8777 484.017 38.4515 484.218 Q39.0254 484.419 39.5132 484.964 Q40.0296 485.509 40.0296 486.37 Q40.0296 487.087 39.5992 487.604 Q39.1689 488.092 38.4228 488.092 Q38.3081 488.092 37.7055 487.948 Q37.103 487.805 36.2709 487.604 Q35.4388 487.403 34.9511 487.317 Q31.0489 486.284 30.5037 486.141 L23.6749 484.505 Q20.2892 483.616 18.7972 483.616 Q14.6942 483.616 14.6942 486.801 Q14.6942 488.379 15.2967 489.871 Q15.8705 491.334 16.6739 492.338 Q17.4773 493.342 18.5963 494.261 Q19.6866 495.15 20.4327 495.609 Q21.15 496.04 21.8673 496.384 L24.7939 497.13 Q25.5973 497.302 28.7248 498.134 L34.0329 499.425 Q37.9925 500.343 38.3655 500.544 Q39.1689 500.831 39.5992 501.462 Q40.0296 502.094 40.0296 502.725 Q40.0296 503.442 39.5992 503.93 Q39.1689 504.418 38.4228 504.418 Q38.3081 504.418 37.8777 504.332 Q37.4473 504.246 36.8448 504.102 Q36.2422 503.959 35.8979 503.901 L22.3264 500.487 Q19.8588 499.856 19.0841 499.712 Q18.2807 499.54 17.3912 499.54 Q14.6942 499.54 14.6942 501.376 Q14.6942 502.868 16.4731 503.844 Q18.252 504.819 21.6951 505.652 Q22.642 505.91 22.8428 506.082 Q23.0437 506.225 23.0437 506.656 Q23.015 507.373 22.4411 507.373 Q22.2977 507.373 21.3795 507.144 Q20.4613 506.914 19.0841 506.484 Q17.6782 506.025 16.76 505.537 Q16.1575 505.25 15.7558 504.992 Q15.3541 504.733 14.7228 504.217 Q14.0916 503.7 13.7473 502.926 Q13.403 502.151 13.403 501.204 Q13.403 499.11 14.7515 497.56 Q16.1001 495.982 18.5103 495.781 Q13.403 491.965 13.403 486.628 Q13.403 483.616 14.9237 481.808 Q16.387 480.115 19.0841 479.914 Q13.403 475.955 13.403 470.331 Q13.403 467.089 15.0958 465.339 Q16.76 463.588 19.6866 463.588 Q21.2073 463.588 24.1053 464.363 Q26.9745 465.138 28.4092 465.654 Q29.8438 466.171 32.5983 467.175 Q35.238 468.236 36.7874 468.236 Q37.7916 468.236 38.2507 467.892 Q38.7098 467.548 38.7098 466.802 Q38.7098 465.654 38.0498 464.65 Q37.3612 463.646 36.2422 462.928 Q35.0945 462.182 33.9468 461.695 Q32.7704 461.207 31.4506 460.834 Q30.7333 460.604 30.5611 460.49 Q30.3889 460.346 30.3889 459.944 Q30.3889 459.227 30.9628 459.227 Z" fill="#000000" fill-rule="evenodd" fill-opacity="1" /><path clip-path="url(#clip250)" d="M32.5696 432.705 Q32.8278 432.475 33.086 432.475 Q33.3443 432.475 34.0903 433.049 Q34.8363 433.594 35.8405 434.77 Q36.8448 435.947 37.7916 437.467 Q38.7385 438.988 39.3697 441.226 Q40.0296 443.464 40.0296 445.817 Q40.0296 450.207 37.1317 452.789 Q34.2337 455.343 30.0733 455.343 Q26.0277 455.343 22.1542 453.076 Q18.252 450.81 15.8419 447.137 Q13.403 443.464 13.403 439.591 Q13.403 436.521 14.8376 434.598 Q16.2722 432.676 18.4529 432.676 Q20.1457 432.676 21.1787 433.651 Q22.2116 434.627 22.2116 435.947 Q22.2116 436.865 21.6951 437.496 Q21.15 438.127 20.1457 438.127 Q18.8546 438.127 17.8503 437.066 Q17.4486 436.664 17.2765 436.205 Q17.0756 435.717 17.0756 435.43 Q17.0469 435.143 17.0469 434.483 Q15.9279 435.086 15.3254 436.521 Q14.6942 437.927 14.6942 439.533 Q14.6942 441.915 16.3583 444.182 Q17.9938 446.448 20.5761 447.825 Q23.1011 449.203 26.6876 450.092 Q30.2455 450.982 32.3113 450.982 Q35.1519 450.982 36.9308 449.662 Q38.7098 448.342 38.7098 445.702 Q38.7098 445.186 38.6811 444.641 Q38.6524 444.067 38.3368 442.632 Q38.0212 441.169 37.476 439.878 Q36.9308 438.587 35.7544 436.951 Q34.5494 435.287 32.9139 433.967 Q32.3113 433.508 32.3113 433.192 Q32.3113 432.934 32.5696 432.705 Z" fill="#000000" fill-rule="evenodd" fill-opacity="1" /><path clip-path="url(#clip250)" d="M70.8347 399.029 Q56.6524 399.029 45.2164 393.741 Q40.4206 391.487 36.4037 388.33 Q32.3867 385.174 30.6242 383.084 Q28.8617 380.993 28.8617 380.419 Q28.8617 379.6 29.6814 379.559 Q30.0913 379.559 31.1161 380.665 Q44.8885 394.192 70.8347 394.151 Q96.8629 394.151 110.102 380.993 Q111.537 379.559 111.988 379.559 Q112.808 379.559 112.808 380.419 Q112.808 380.993 111.127 383.002 Q109.447 385.01 105.594 388.125 Q101.741 391.241 97.0268 393.495 Q85.5908 399.029 70.8347 399.029 Z" fill="#000000" fill-rule="evenodd" fill-opacity="1" /><path clip-path="url(#clip250)" d="M45.7492 371.838 Q38.5351 371.838 33.6984 368.149 Q28.8617 364.46 28.8617 359.501 Q28.8617 356.467 31.5669 353.475 Q38.0432 346.671 38.0023 337.776 Q38.0023 327.693 30.0503 321.831 Q28.8617 320.807 28.8617 320.069 Q28.8617 319.413 29.3945 318.921 Q29.8864 318.388 30.5422 318.388 Q31.0341 318.388 32.0588 319.044 L95.2643 361.509 Q96.5349 362.452 96.5349 363.19 Q96.5349 363.845 96.0021 364.378 Q95.5102 364.87 94.8544 364.87 Q94.2805 364.87 93.1738 364.132 L37.0185 326.422 L36.9365 326.504 Q39.8878 330.849 39.8468 337.694 Q39.8468 344.171 36.3217 350.36 Q40.6666 348.597 45.8312 348.597 Q52.8814 348.597 57.8001 351.754 Q62.6778 354.91 62.6778 359.501 Q62.6778 364.46 57.923 368.149 Q53.1273 371.838 45.7492 371.838 M38.904 366.059 Q41.8553 366.633 45.8312 366.633 Q49.7662 366.633 52.7174 366.059 Q55.6276 365.485 57.1443 364.665 Q58.6609 363.804 59.5626 362.657 Q60.4234 361.509 60.6283 360.812 Q60.8333 360.115 60.8333 359.419 Q60.8333 355.976 56.5704 353.352 Q52.2665 350.688 45.7492 350.688 Q39.3549 350.688 35.051 353.352 Q30.7062 355.976 30.7062 359.419 Q30.7062 360.156 30.9111 360.894 Q31.1161 361.591 32.0178 362.698 Q32.8786 363.804 34.3952 364.665 Q35.9118 365.485 38.904 366.059 M79.5654 334.661 Q72.3513 334.661 67.5145 330.972 Q62.6778 327.283 62.6778 322.323 Q62.6778 317.774 67.5965 314.617 Q72.5152 311.42 79.6474 311.42 Q86.6975 311.42 91.6162 314.576 Q96.5349 317.692 96.5349 322.323 Q96.5349 327.283 91.7392 330.972 Q86.9435 334.661 79.5654 334.661 M72.7202 328.882 Q75.7124 329.455 79.6474 329.455 Q83.5823 329.455 86.5336 328.882 Q89.4848 328.267 91.0014 327.447 Q92.477 326.586 93.3378 325.48 Q94.2395 324.332 94.4445 323.635 Q94.6904 322.897 94.6904 322.241 Q94.6904 318.798 90.4275 316.175 Q86.1237 313.511 79.5654 313.511 Q73.1711 313.511 68.8672 316.175 Q64.5223 318.798 64.5223 322.241 Q64.5223 322.979 64.7683 323.717 Q64.9732 324.414 65.875 325.521 Q66.7357 326.586 68.2523 327.447 Q69.728 328.267 72.7202 328.882 Z" fill="#000000" fill-rule="evenodd" fill-opacity="1" /><path clip-path="url(#clip250)" d="M111.988 300.613 Q111.578 300.613 110.553 299.547 Q96.7809 286.021 70.8347 286.021 Q44.8065 286.021 31.6489 299.014 Q30.1323 300.613 29.6814 300.613 Q28.8617 300.613 28.8617 299.793 Q28.8617 299.219 30.5422 297.211 Q32.2228 295.161 36.0758 292.087 Q39.9288 288.972 44.6425 286.676 Q56.0785 281.143 70.8347 281.143 Q85.017 281.143 96.453 286.43 Q101.249 288.685 105.266 291.841 Q109.283 294.997 111.045 297.088 Q112.808 299.178 112.808 299.793 Q112.808 300.613 111.988 300.613 Z" fill="#000000" fill-rule="evenodd" fill-opacity="1" /><polyline clip-path="url(#clip252)" style="stroke:#009af9; stroke-linecap:butt; stroke-linejoin:round; stroke-width:8; stroke-opacity:1; fill:none" points="
  413.998,249.323 571.165,279.867 728.333,254.368 885.5,269.564 1042.67,305.175 1199.83,309.197 1357,393.43 1514.17,407.124 1671.34,402.459 1828.5,385.367 
  1985.67,410.167 2142.84,409.989 2300.01,448.869 2457.17,496.915 2614.34,451.068 2771.51,452.543 2928.68,470.926 3085.84,473.903 3243.01,499.282 3400.18,489.315 
  
  "/>
<circle clip-path="url(#clip252)" cx="413.998" cy="249.323" r="18" fill="#009af9" fill-rule="evenodd" fill-opacity="1" stroke="#000000" stroke-opacity="1" stroke-width="3.6"/>
<circle clip-path="url(#clip252)" cx="571.165" cy="279.867" r="18" fill="#009af9" fill-rule="evenodd" fill-opacity="1" stroke="#000000" stroke-opacity="1" stroke-width="3.6"/>
<circle clip-path="url(#clip252)" cx="728.333" cy="254.368" r="18" fill="#009af9" fill-rule="evenodd" fill-opacity="1" stroke="#000000" stroke-opacity="1" stroke-width="3.6"/>
<circle clip-path="url(#clip252)" cx="885.5" cy="269.564" r="18" fill="#009af9" fill-rule="evenodd" fill-opacity="1" stroke="#000000" stroke-opacity="1" stroke-width="3.6"/>
<circle clip-path="url(#clip252)" cx="1042.67" cy="305.175" r="18" fill="#009af9" fill-rule="evenodd" fill-opacity="1" stroke="#000000" stroke-opacity="1" stroke-width="3.6"/>
<circle clip-path="url(#clip252)" cx="1199.83" cy="309.197" r="18" fill="#009af9" fill-rule="evenodd" fill-opacity="1" stroke="#000000" stroke-opacity="1" stroke-width="3.6"/>
<circle clip-path="url(#clip252)" cx="1357" cy="393.43" r="18" fill="#009af9" fill-rule="evenodd" fill-opacity="1" stroke="#000000" stroke-opacity="1" stroke-width="3.6"/>
<circle clip-path="url(#clip252)" cx="1514.17" cy="407.124" r="18" fill="#009af9" fill-rule="evenodd" fill-opacity="1" stroke="#000000" stroke-opacity="1" stroke-width="3.6"/>
<circle clip-path="url(#clip252)" cx="1671.34" cy="402.459" r="18" fill="#009af9" fill-rule="evenodd" fill-opacity="1" stroke="#000000" stroke-opacity="1" stroke-width="3.6"/>
<circle clip-path="url(#clip252)" cx="1828.5" cy="385.367" r="18" fill="#009af9" fill-rule="evenodd" fill-opacity="1" stroke="#000000" stroke-opacity="1" stroke-width="3.6"/>
<circle clip-path="url(#clip252)" cx="1985.67" cy="410.167" r="18" fill="#009af9" fill-rule="evenodd" fill-opacity="1" stroke="#000000" stroke-opacity="1" stroke-width="3.6"/>
<circle clip-path="url(#clip252)" cx="2142.84" cy="409.989" r="18" fill="#009af9" fill-rule="evenodd" fill-opacity="1" stroke="#000000" stroke-opacity="1" stroke-width="3.6"/>
<circle clip-path="url(#clip252)" cx="2300.01" cy="448.869" r="18" fill="#009af9" fill-rule="evenodd" fill-opacity="1" stroke="#000000" stroke-opacity="1" stroke-width="3.6"/>
<circle clip-path="url(#clip252)" cx="2457.17" cy="496.915" r="18" fill="#009af9" fill-rule="evenodd" fill-opacity="1" stroke="#000000" stroke-opacity="1" stroke-width="3.6"/>
<circle clip-path="url(#clip252)" cx="2614.34" cy="451.068" r="18" fill="#009af9" fill-rule="evenodd" fill-opacity="1" stroke="#000000" stroke-opacity="1" stroke-width="3.6"/>
<circle clip-path="url(#clip252)" cx="2771.51" cy="452.543" r="18" fill="#009af9" fill-rule="evenodd" fill-opacity="1" stroke="#000000" stroke-opacity="1" stroke-width="3.6"/>
<circle clip-path="url(#clip252)" cx="2928.68" cy="470.926" r="18" fill="#009af9" fill-rule="evenodd" fill-opacity="1" stroke="#000000" stroke-opacity="1" stroke-width="3.6"/>
<circle clip-path="url(#clip252)" cx="3085.84" cy="473.903" r="18" fill="#009af9" fill-rule="evenodd" fill-opacity="1" stroke="#000000" stroke-opacity="1" stroke-width="3.6"/>
<circle clip-path="url(#clip252)" cx="3243.01" cy="499.282" r="18" fill="#009af9" fill-rule="evenodd" fill-opacity="1" stroke="#000000" stroke-opacity="1" stroke-width="3.6"/>
<circle clip-path="url(#clip252)" cx="3400.18" cy="489.315" r="18" fill="#009af9" fill-rule="evenodd" fill-opacity="1" stroke="#000000" stroke-opacity="1" stroke-width="3.6"/>
<polyline clip-path="url(#clip252)" style="stroke:#e26f46; stroke-linecap:butt; stroke-linejoin:round; stroke-width:8; stroke-opacity:1; fill:none" points="
  413.998,452.139 571.165,431.498 728.333,460.279 885.5,467.923 1042.67,536.818 1199.83,577.504 1357,577.485 1514.17,589.395 1671.34,589.92 1828.5,638.528 
  1985.67,623.951 2142.84,595.63 2300.01,618.011 2457.17,654.919 2614.34,664.424 2771.51,677.169 2928.68,656.583 3085.84,653.725 3243.01,664.608 3400.18,676.329 
  
  "/>
<circle clip-path="url(#clip252)" cx="413.998" cy="452.139" r="18" fill="#e26f46" fill-rule="evenodd" fill-opacity="1" stroke="#000000" stroke-opacity="1" stroke-width="3.6"/>
<circle clip-path="url(#clip252)" cx="571.165" cy="431.498" r="18" fill="#e26f46" fill-rule="evenodd" fill-opacity="1" stroke="#000000" stroke-opacity="1" stroke-width="3.6"/>
<circle clip-path="url(#clip252)" cx="728.333" cy="460.279" r="18" fill="#e26f46" fill-rule="evenodd" fill-opacity="1" stroke="#000000" stroke-opacity="1" stroke-width="3.6"/>
<circle clip-path="url(#clip252)" cx="885.5" cy="467.923" r="18" fill="#e26f46" fill-rule="evenodd" fill-opacity="1" stroke="#000000" stroke-opacity="1" stroke-width="3.6"/>
<circle clip-path="url(#clip252)" cx="1042.67" cy="536.818" r="18" fill="#e26f46" fill-rule="evenodd" fill-opacity="1" stroke="#000000" stroke-opacity="1" stroke-width="3.6"/>
<circle clip-path="url(#clip252)" cx="1199.83" cy="577.504" r="18" fill="#e26f46" fill-rule="evenodd" fill-opacity="1" stroke="#000000" stroke-opacity="1" stroke-width="3.6"/>
<circle clip-path="url(#clip252)" cx="1357" cy="577.485" r="18" fill="#e26f46" fill-rule="evenodd" fill-opacity="1" stroke="#000000" stroke-opacity="1" stroke-width="3.6"/>
<circle clip-path="url(#clip252)" cx="1514.17" cy="589.395" r="18" fill="#e26f46" fill-rule="evenodd" fill-opacity="1" stroke="#000000" stroke-opacity="1" stroke-width="3.6"/>
<circle clip-path="url(#clip252)" cx="1671.34" cy="589.92" r="18" fill="#e26f46" fill-rule="evenodd" fill-opacity="1" stroke="#000000" stroke-opacity="1" stroke-width="3.6"/>
<circle clip-path="url(#clip252)" cx="1828.5" cy="638.528" r="18" fill="#e26f46" fill-rule="evenodd" fill-opacity="1" stroke="#000000" stroke-opacity="1" stroke-width="3.6"/>
<circle clip-path="url(#clip252)" cx="1985.67" cy="623.951" r="18" fill="#e26f46" fill-rule="evenodd" fill-opacity="1" stroke="#000000" stroke-opacity="1" stroke-width="3.6"/>
<circle clip-path="url(#clip252)" cx="2142.84" cy="595.63" r="18" fill="#e26f46" fill-rule="evenodd" fill-opacity="1" stroke="#000000" stroke-opacity="1" stroke-width="3.6"/>
<circle clip-path="url(#clip252)" cx="2300.01" cy="618.011" r="18" fill="#e26f46" fill-rule="evenodd" fill-opacity="1" stroke="#000000" stroke-opacity="1" stroke-width="3.6"/>
<circle clip-path="url(#clip252)" cx="2457.17" cy="654.919" r="18" fill="#e26f46" fill-rule="evenodd" fill-opacity="1" stroke="#000000" stroke-opacity="1" stroke-width="3.6"/>
<circle clip-path="url(#clip252)" cx="2614.34" cy="664.424" r="18" fill="#e26f46" fill-rule="evenodd" fill-opacity="1" stroke="#000000" stroke-opacity="1" stroke-width="3.6"/>
<circle clip-path="url(#clip252)" cx="2771.51" cy="677.169" r="18" fill="#e26f46" fill-rule="evenodd" fill-opacity="1" stroke="#000000" stroke-opacity="1" stroke-width="3.6"/>
<circle clip-path="url(#clip252)" cx="2928.68" cy="656.583" r="18" fill="#e26f46" fill-rule="evenodd" fill-opacity="1" stroke="#000000" stroke-opacity="1" stroke-width="3.6"/>
<circle clip-path="url(#clip252)" cx="3085.84" cy="653.725" r="18" fill="#e26f46" fill-rule="evenodd" fill-opacity="1" stroke="#000000" stroke-opacity="1" stroke-width="3.6"/>
<circle clip-path="url(#clip252)" cx="3243.01" cy="664.608" r="18" fill="#e26f46" fill-rule="evenodd" fill-opacity="1" stroke="#000000" stroke-opacity="1" stroke-width="3.6"/>
<circle clip-path="url(#clip252)" cx="3400.18" cy="676.329" r="18" fill="#e26f46" fill-rule="evenodd" fill-opacity="1" stroke="#000000" stroke-opacity="1" stroke-width="3.6"/>
<polyline clip-path="url(#clip252)" style="stroke:#3da44d; stroke-linecap:butt; stroke-linejoin:round; stroke-width:8; stroke-opacity:1; fill:none" points="
  413.998,594.696 571.165,612.239 728.333,650.287 885.5,728.517 1042.67,717.731 1199.83,742.959 1357,797.745 1514.17,788.832 1671.34,779.122 1828.5,793.561 
  1985.67,805.288 2142.84,815.447 2300.01,825.562 2457.17,808.497 2614.34,832.355 2771.51,828.544 2928.68,858.097 3085.84,857.716 3243.01,885.428 3400.18,913.748 
  
  "/>
<circle clip-path="url(#clip252)" cx="413.998" cy="594.696" r="18" fill="#3da44d" fill-rule="evenodd" fill-opacity="1" stroke="#000000" stroke-opacity="1" stroke-width="3.6"/>
<circle clip-path="url(#clip252)" cx="571.165" cy="612.239" r="18" fill="#3da44d" fill-rule="evenodd" fill-opacity="1" stroke="#000000" stroke-opacity="1" stroke-width="3.6"/>
<circle clip-path="url(#clip252)" cx="728.333" cy="650.287" r="18" fill="#3da44d" fill-rule="evenodd" fill-opacity="1" stroke="#000000" stroke-opacity="1" stroke-width="3.6"/>
<circle clip-path="url(#clip252)" cx="885.5" cy="728.517" r="18" fill="#3da44d" fill-rule="evenodd" fill-opacity="1" stroke="#000000" stroke-opacity="1" stroke-width="3.6"/>
<circle clip-path="url(#clip252)" cx="1042.67" cy="717.731" r="18" fill="#3da44d" fill-rule="evenodd" fill-opacity="1" stroke="#000000" stroke-opacity="1" stroke-width="3.6"/>
<circle clip-path="url(#clip252)" cx="1199.83" cy="742.959" r="18" fill="#3da44d" fill-rule="evenodd" fill-opacity="1" stroke="#000000" stroke-opacity="1" stroke-width="3.6"/>
<circle clip-path="url(#clip252)" cx="1357" cy="797.745" r="18" fill="#3da44d" fill-rule="evenodd" fill-opacity="1" stroke="#000000" stroke-opacity="1" stroke-width="3.6"/>
<circle clip-path="url(#clip252)" cx="1514.17" cy="788.832" r="18" fill="#3da44d" fill-rule="evenodd" fill-opacity="1" stroke="#000000" stroke-opacity="1" stroke-width="3.6"/>
<circle clip-path="url(#clip252)" cx="1671.34" cy="779.122" r="18" fill="#3da44d" fill-rule="evenodd" fill-opacity="1" stroke="#000000" stroke-opacity="1" stroke-width="3.6"/>
<circle clip-path="url(#clip252)" cx="1828.5" cy="793.561" r="18" fill="#3da44d" fill-rule="evenodd" fill-opacity="1" stroke="#000000" stroke-opacity="1" stroke-width="3.6"/>
<circle clip-path="url(#clip252)" cx="1985.67" cy="805.288" r="18" fill="#3da44d" fill-rule="evenodd" fill-opacity="1" stroke="#000000" stroke-opacity="1" stroke-width="3.6"/>
<circle clip-path="url(#clip252)" cx="2142.84" cy="815.447" r="18" fill="#3da44d" fill-rule="evenodd" fill-opacity="1" stroke="#000000" stroke-opacity="1" stroke-width="3.6"/>
<circle clip-path="url(#clip252)" cx="2300.01" cy="825.562" r="18" fill="#3da44d" fill-rule="evenodd" fill-opacity="1" stroke="#000000" stroke-opacity="1" stroke-width="3.6"/>
<circle clip-path="url(#clip252)" cx="2457.17" cy="808.497" r="18" fill="#3da44d" fill-rule="evenodd" fill-opacity="1" stroke="#000000" stroke-opacity="1" stroke-width="3.6"/>
<circle clip-path="url(#clip252)" cx="2614.34" cy="832.355" r="18" fill="#3da44d" fill-rule="evenodd" fill-opacity="1" stroke="#000000" stroke-opacity="1" stroke-width="3.6"/>
<circle clip-path="url(#clip252)" cx="2771.51" cy="828.544" r="18" fill="#3da44d" fill-rule="evenodd" fill-opacity="1" stroke="#000000" stroke-opacity="1" stroke-width="3.6"/>
<circle clip-path="url(#clip252)" cx="2928.68" cy="858.097" r="18" fill="#3da44d" fill-rule="evenodd" fill-opacity="1" stroke="#000000" stroke-opacity="1" stroke-width="3.6"/>
<circle clip-path="url(#clip252)" cx="3085.84" cy="857.716" r="18" fill="#3da44d" fill-rule="evenodd" fill-opacity="1" stroke="#000000" stroke-opacity="1" stroke-width="3.6"/>
<circle clip-path="url(#clip252)" cx="3243.01" cy="885.428" r="18" fill="#3da44d" fill-rule="evenodd" fill-opacity="1" stroke="#000000" stroke-opacity="1" stroke-width="3.6"/>
<circle clip-path="url(#clip252)" cx="3400.18" cy="913.748" r="18" fill="#3da44d" fill-rule="evenodd" fill-opacity="1" stroke="#000000" stroke-opacity="1" stroke-width="3.6"/>
<path clip-path="url(#clip250)" d="
M2733.6 393.055 L3462.51 393.055 L3462.51 133.855 L2733.6 133.855  Z
  " fill="#ffffff" fill-rule="evenodd" fill-opacity="1"/>
<polyline clip-path="url(#clip250)" style="stroke:#000000; stroke-linecap:butt; stroke-linejoin:round; stroke-width:4; stroke-opacity:1; fill:none" points="
  2733.6,393.055 3462.51,393.055 3462.51,133.855 2733.6,133.855 2733.6,393.055 
  "/>
<polyline clip-path="url(#clip250)" style="stroke:#009af9; stroke-linecap:butt; stroke-linejoin:round; stroke-width:5; stroke-opacity:1; fill:none" points="
  2768.77,198.655 2979.79,198.655 
  "/>
<circle clip-path="url(#clip250)" cx="2874.28" cy="198.655" r="28.8" fill="#009af9" fill-rule="evenodd" fill-opacity="1" stroke="#000000" stroke-opacity="1" stroke-width="5.76"/>
<path clip-path="url(#clip250)" d="M3065.44 172.912 Q3065.44 174.112 3064.41 174.112 Q3061.1 174.229 3059.76 175.342 Q3058.44 176.425 3057.94 178.533 L3049.57 211.939 Q3049.27 212.993 3049.1 213.111 Q3048.92 213.198 3048.6 213.198 Q3048.19 213.198 3047.96 212.993 Q3047.75 212.788 3047.46 212.056 L3032.53 176.747 Q3032.41 176.513 3032.26 176.191 Q3032.12 175.869 3032 175.664 L3024.07 207.313 Q3023.83 208.221 3023.83 208.69 Q3023.83 209.831 3024.62 210.563 Q3025.44 211.266 3027.78 211.354 Q3028.99 211.354 3028.99 211.998 Q3028.99 213.198 3027.9 213.198 Q3026.91 213.198 3024.83 213.111 Q3022.75 213.023 3021.72 213.023 Q3020.73 213.023 3018.71 213.111 Q3016.69 213.198 3015.72 213.198 Q3014.96 213.198 3014.96 212.525 Q3014.96 211.998 3015.17 211.734 Q3015.37 211.442 3015.55 211.412 Q3015.72 211.354 3015.99 211.354 Q3017.74 211.295 3018.94 210.944 Q3020.14 210.593 3020.82 209.919 Q3021.52 209.246 3021.84 208.572 Q3022.19 207.87 3022.46 206.845 L3030.48 174.639 Q3030.48 174.112 3026.41 174.112 Q3025.71 174.112 3025.41 174.083 Q3025.15 174.054 3024.94 173.907 Q3024.74 173.761 3024.74 173.439 Q3024.74 172.619 3025.09 172.443 Q3025.44 172.238 3026.47 172.238 L3034.52 172.238 Q3035.54 172.238 3035.81 172.414 Q3036.07 172.56 3036.42 173.38 L3049.68 204.678 L3056.39 178.006 Q3056.57 177.479 3056.57 176.747 Q3056.57 175.576 3055.69 174.873 Q3054.84 174.141 3052.5 174.112 Q3051.41 174.112 3051.41 173.439 Q3051.41 172.882 3051.62 172.619 Q3051.85 172.326 3052.03 172.297 Q3052.23 172.238 3052.5 172.238 Q3053.49 172.238 3055.54 172.326 Q3057.59 172.414 3058.61 172.414 Q3059.61 172.414 3061.63 172.326 Q3063.68 172.238 3064.68 172.238 Q3065.03 172.238 3065.2 172.414 Q3065.41 172.56 3065.44 172.736 L3065.44 172.912 Z" fill="#000000" fill-rule="evenodd" fill-opacity="1" /><path clip-path="url(#clip250)" d="M3105.74 218.218 Q3105.74 218.382 3105.56 219.018 Q3105.37 219.653 3104.92 220.637 Q3104.49 221.621 3103.88 222.522 Q3103.28 223.404 3102.3 224.059 Q3101.34 224.695 3100.23 224.695 Q3098.75 224.695 3097.77 223.711 Q3096.79 222.727 3096.79 221.252 Q3096.79 220.452 3097.34 218.936 Q3099.94 212.009 3099.94 209.529 Q3099.94 206.598 3097.67 206.598 Q3096.38 206.598 3095.21 207.131 Q3094.04 207.664 3093.28 208.401 Q3092.52 209.139 3091.93 209.98 Q3091.34 210.82 3091.07 211.373 Q3090.82 211.927 3090.76 212.172 L3088.24 222.297 Q3088.04 223.158 3087.89 223.568 Q3087.75 223.977 3087.36 224.326 Q3086.97 224.695 3086.36 224.695 Q3085.84 224.695 3085.47 224.387 Q3085.13 224.08 3085.13 223.547 Q3085.13 223.465 3085.23 223.035 Q3085.33 222.604 3085.47 222.01 Q3085.62 221.416 3085.68 221.067 Q3086.42 218.28 3086.52 217.89 L3087.69 213.013 Q3088.32 210.594 3088.32 209.529 Q3088.32 206.598 3086.05 206.598 Q3084.92 206.598 3083.86 207.028 Q3082.81 207.438 3082.09 208.012 Q3081.38 208.586 3080.72 209.385 Q3080.08 210.164 3079.76 210.697 Q3079.45 211.209 3079.2 211.722 L3078.67 213.812 Q3078.55 214.386 3077.95 216.62 L3077.03 220.411 Q3076.37 223.24 3076.23 223.506 Q3076.03 224.08 3075.58 224.387 Q3075.12 224.695 3074.67 224.695 Q3074.16 224.695 3073.81 224.387 Q3073.46 224.08 3073.46 223.547 Q3073.46 223.465 3073.53 223.158 Q3073.59 222.85 3073.69 222.42 Q3073.79 221.989 3073.83 221.743 L3076.27 212.05 Q3076.72 210.287 3076.83 209.734 Q3076.95 209.16 3076.95 208.524 Q3076.95 206.598 3075.64 206.598 Q3074.57 206.598 3073.87 207.869 Q3073.18 209.139 3072.58 211.599 Q3072.4 212.275 3072.28 212.418 Q3072.17 212.562 3071.87 212.562 Q3071.35 212.541 3071.35 212.132 Q3071.35 212.029 3071.52 211.373 Q3071.68 210.717 3071.99 209.734 Q3072.32 208.729 3072.66 208.074 Q3072.87 207.643 3073.05 207.356 Q3073.24 207.069 3073.61 206.618 Q3073.98 206.168 3074.53 205.922 Q3075.08 205.676 3075.76 205.676 Q3077.26 205.676 3078.36 206.639 Q3079.49 207.602 3079.63 209.324 Q3082.36 205.676 3086.17 205.676 Q3088.32 205.676 3089.61 206.762 Q3090.82 207.807 3090.97 209.734 Q3093.79 205.676 3097.81 205.676 Q3100.13 205.676 3101.38 206.885 Q3102.63 208.074 3102.63 210.164 Q3102.63 211.25 3102.07 213.32 Q3101.52 215.37 3101.15 216.394 Q3100.78 217.419 3100.07 219.387 Q3099.31 221.272 3099.31 222.379 Q3099.31 223.096 3099.55 223.424 Q3099.8 223.752 3100.33 223.752 Q3101.15 223.752 3101.87 223.281 Q3102.59 222.789 3103.1 221.989 Q3103.63 221.17 3103.98 220.35 Q3104.33 219.51 3104.6 218.567 Q3104.76 218.054 3104.84 217.931 Q3104.94 217.809 3105.23 217.809 Q3105.74 217.809 3105.74 218.218 Z" fill="#000000" fill-rule="evenodd" fill-opacity="1" /><path clip-path="url(#clip250)" d="M3124.69 219.366 Q3124.86 219.551 3124.86 219.735 Q3124.86 219.919 3124.45 220.452 Q3124.06 220.985 3123.22 221.702 Q3122.38 222.42 3121.29 223.096 Q3120.21 223.772 3118.61 224.223 Q3117.01 224.695 3115.33 224.695 Q3112.19 224.695 3110.35 222.625 Q3108.52 220.555 3108.52 217.583 Q3108.52 214.693 3110.14 211.927 Q3111.76 209.139 3114.39 207.418 Q3117.01 205.676 3119.78 205.676 Q3121.97 205.676 3123.34 206.7 Q3124.71 207.725 3124.71 209.283 Q3124.71 210.492 3124.02 211.23 Q3123.32 211.968 3122.38 211.968 Q3121.72 211.968 3121.27 211.599 Q3120.82 211.209 3120.82 210.492 Q3120.82 209.57 3121.58 208.852 Q3121.87 208.565 3122.19 208.442 Q3122.54 208.299 3122.75 208.299 Q3122.95 208.279 3123.42 208.279 Q3122.99 207.479 3121.97 207.049 Q3120.96 206.598 3119.82 206.598 Q3118.12 206.598 3116.5 207.787 Q3114.88 208.955 3113.89 210.799 Q3112.91 212.603 3112.27 215.165 Q3111.64 217.706 3111.64 219.182 Q3111.64 221.211 3112.58 222.481 Q3113.52 223.752 3115.41 223.752 Q3115.78 223.752 3116.17 223.731 Q3116.58 223.711 3117.6 223.486 Q3118.65 223.26 3119.57 222.871 Q3120.49 222.481 3121.66 221.641 Q3122.85 220.78 3123.79 219.612 Q3124.12 219.182 3124.35 219.182 Q3124.53 219.182 3124.69 219.366 Z" fill="#000000" fill-rule="evenodd" fill-opacity="1" /><path clip-path="url(#clip250)" d="M3149.55 204.093 Q3149.61 203.361 3150.75 203.361 L3187.49 203.361 Q3189.22 203.361 3189.25 204.034 Q3189.25 204.766 3187.61 204.737 L3151.16 204.737 Q3149.55 204.766 3149.55 204.093 M3149.55 192.382 Q3149.55 191.65 3150.81 191.679 L3187.44 191.679 Q3189.22 191.679 3189.25 192.382 Q3189.25 193.055 3187.73 193.055 L3150.75 193.055 Q3149.55 193.055 3149.55 192.382 Z" fill="#000000" fill-rule="evenodd" fill-opacity="1" /><path clip-path="url(#clip250)" d="M3212.39 178.972 L3212.39 177.098 Q3219.59 177.098 3223.31 173.263 Q3224.33 173.263 3224.51 173.497 Q3224.68 173.732 3224.68 174.815 L3224.68 208.455 Q3224.68 210.241 3225.56 210.798 Q3226.44 211.354 3230.28 211.354 L3232.18 211.354 L3232.18 213.198 Q3230.07 213.023 3222.46 213.023 Q3214.85 213.023 3212.77 213.198 L3212.77 211.354 L3214.67 211.354 Q3218.45 211.354 3219.36 210.827 Q3220.26 210.271 3220.26 208.455 L3220.26 177.391 Q3217.13 178.972 3212.39 178.972 Z" fill="#000000" fill-rule="evenodd" fill-opacity="1" /><path clip-path="url(#clip250)" d="M3250.01 194.021 Q3250.01 185.209 3252.23 180.407 Q3255.34 173.263 3262.65 173.263 Q3264.21 173.263 3265.82 173.702 Q3267.46 174.112 3269.51 175.722 Q3271.58 177.333 3272.84 179.968 Q3275.24 185.062 3275.24 194.021 Q3275.24 202.775 3273.02 207.548 Q3269.77 214.516 3262.6 214.516 Q3259.9 214.516 3257.15 213.14 Q3254.43 211.764 3252.7 208.455 Q3250.01 203.507 3250.01 194.021 M3254.98 193.289 Q3254.98 202.336 3255.63 205.937 Q3256.36 209.831 3258.35 211.529 Q3260.37 213.198 3262.6 213.198 Q3265 213.198 3266.99 211.412 Q3269.01 209.597 3269.62 205.703 Q3270.3 201.868 3270.27 193.289 Q3270.27 184.945 3269.68 181.607 Q3268.89 177.713 3266.78 176.162 Q3264.7 174.581 3262.6 174.581 Q3261.81 174.581 3260.96 174.815 Q3260.14 175.049 3258.94 175.722 Q3257.74 176.396 3256.8 178.065 Q3255.89 179.734 3255.45 182.251 Q3254.98 185.501 3254.98 193.289 Z" fill="#000000" fill-rule="evenodd" fill-opacity="1" /><path clip-path="url(#clip250)" d="M3279.94 194.021 Q3279.94 185.209 3282.17 180.407 Q3285.27 173.263 3292.59 173.263 Q3294.14 173.263 3295.75 173.702 Q3297.39 174.112 3299.44 175.722 Q3301.52 177.333 3302.78 179.968 Q3305.18 185.062 3305.18 194.021 Q3305.18 202.775 3302.95 207.548 Q3299.7 214.516 3292.53 214.516 Q3289.84 214.516 3287.09 213.14 Q3284.36 211.764 3282.64 208.455 Q3279.94 203.507 3279.94 194.021 M3284.92 193.289 Q3284.92 202.336 3285.56 205.937 Q3286.3 209.831 3288.29 211.529 Q3290.31 213.198 3292.53 213.198 Q3294.93 213.198 3296.92 211.412 Q3298.94 209.597 3299.56 205.703 Q3300.23 201.868 3300.2 193.289 Q3300.2 184.945 3299.62 181.607 Q3298.83 177.713 3296.72 176.162 Q3294.64 174.581 3292.53 174.581 Q3291.74 174.581 3290.89 174.815 Q3290.07 175.049 3288.87 175.722 Q3287.67 176.396 3286.73 178.065 Q3285.83 179.734 3285.39 182.251 Q3284.92 185.501 3284.92 193.289 Z" fill="#000000" fill-rule="evenodd" fill-opacity="1" /><path clip-path="url(#clip250)" d="M3309.88 194.021 Q3309.88 185.209 3312.1 180.407 Q3315.21 173.263 3322.53 173.263 Q3324.08 173.263 3325.69 173.702 Q3327.33 174.112 3329.38 175.722 Q3331.46 177.333 3332.71 179.968 Q3335.11 185.062 3335.11 194.021 Q3335.11 202.775 3332.89 207.548 Q3329.64 214.516 3322.47 214.516 Q3319.77 214.516 3317.02 213.14 Q3314.3 211.764 3312.57 208.455 Q3309.88 203.507 3309.88 194.021 M3314.85 193.289 Q3314.85 202.336 3315.5 205.937 Q3316.23 209.831 3318.22 211.529 Q3320.24 213.198 3322.47 213.198 Q3324.87 213.198 3326.86 211.412 Q3328.88 209.597 3329.49 205.703 Q3330.17 201.868 3330.14 193.289 Q3330.14 184.945 3329.55 181.607 Q3328.76 177.713 3326.65 176.162 Q3324.57 174.581 3322.47 174.581 Q3321.68 174.581 3320.83 174.815 Q3320.01 175.049 3318.81 175.722 Q3317.61 176.396 3316.67 178.065 Q3315.76 179.734 3315.32 182.251 Q3314.85 185.501 3314.85 193.289 Z" fill="#000000" fill-rule="evenodd" fill-opacity="1" /><polyline clip-path="url(#clip250)" style="stroke:#e26f46; stroke-linecap:butt; stroke-linejoin:round; stroke-width:5; stroke-opacity:1; fill:none" points="
  2768.77,263.455 2979.79,263.455 
  "/>
<circle clip-path="url(#clip250)" cx="2874.28" cy="263.455" r="28.8" fill="#e26f46" fill-rule="evenodd" fill-opacity="1" stroke="#000000" stroke-opacity="1" stroke-width="5.76"/>
<path clip-path="url(#clip250)" d="M3065.44 237.712 Q3065.44 238.912 3064.41 238.912 Q3061.1 239.029 3059.76 240.142 Q3058.44 241.225 3057.94 243.333 L3049.57 276.739 Q3049.27 277.793 3049.1 277.911 Q3048.92 277.998 3048.6 277.998 Q3048.19 277.998 3047.96 277.793 Q3047.75 277.588 3047.46 276.856 L3032.53 241.547 Q3032.41 241.313 3032.26 240.991 Q3032.12 240.669 3032 240.464 L3024.07 272.113 Q3023.83 273.021 3023.83 273.49 Q3023.83 274.631 3024.62 275.363 Q3025.44 276.066 3027.78 276.154 Q3028.99 276.154 3028.99 276.798 Q3028.99 277.998 3027.9 277.998 Q3026.91 277.998 3024.83 277.911 Q3022.75 277.823 3021.72 277.823 Q3020.73 277.823 3018.71 277.911 Q3016.69 277.998 3015.72 277.998 Q3014.96 277.998 3014.96 277.325 Q3014.96 276.798 3015.17 276.534 Q3015.37 276.242 3015.55 276.212 Q3015.72 276.154 3015.99 276.154 Q3017.74 276.095 3018.94 275.744 Q3020.14 275.393 3020.82 274.719 Q3021.52 274.046 3021.84 273.372 Q3022.19 272.67 3022.46 271.645 L3030.48 239.439 Q3030.48 238.912 3026.41 238.912 Q3025.71 238.912 3025.41 238.883 Q3025.15 238.854 3024.94 238.707 Q3024.74 238.561 3024.74 238.239 Q3024.74 237.419 3025.09 237.243 Q3025.44 237.038 3026.47 237.038 L3034.52 237.038 Q3035.54 237.038 3035.81 237.214 Q3036.07 237.36 3036.42 238.18 L3049.68 269.478 L3056.39 242.806 Q3056.57 242.279 3056.57 241.547 Q3056.57 240.376 3055.69 239.673 Q3054.84 238.941 3052.5 238.912 Q3051.41 238.912 3051.41 238.239 Q3051.41 237.682 3051.62 237.419 Q3051.85 237.126 3052.03 237.097 Q3052.23 237.038 3052.5 237.038 Q3053.49 237.038 3055.54 237.126 Q3057.59 237.214 3058.61 237.214 Q3059.61 237.214 3061.63 237.126 Q3063.68 237.038 3064.68 237.038 Q3065.03 237.038 3065.2 237.214 Q3065.41 237.36 3065.44 237.536 L3065.44 237.712 Z" fill="#000000" fill-rule="evenodd" fill-opacity="1" /><path clip-path="url(#clip250)" d="M3105.74 283.018 Q3105.74 283.182 3105.56 283.818 Q3105.37 284.453 3104.92 285.437 Q3104.49 286.421 3103.88 287.322 Q3103.28 288.204 3102.3 288.859 Q3101.34 289.495 3100.23 289.495 Q3098.75 289.495 3097.77 288.511 Q3096.79 287.527 3096.79 286.052 Q3096.79 285.252 3097.34 283.736 Q3099.94 276.809 3099.94 274.329 Q3099.94 271.398 3097.67 271.398 Q3096.38 271.398 3095.21 271.931 Q3094.04 272.464 3093.28 273.201 Q3092.52 273.939 3091.93 274.78 Q3091.34 275.62 3091.07 276.173 Q3090.82 276.727 3090.76 276.972 L3088.24 287.097 Q3088.04 287.958 3087.89 288.368 Q3087.75 288.777 3087.36 289.126 Q3086.97 289.495 3086.36 289.495 Q3085.84 289.495 3085.47 289.187 Q3085.13 288.88 3085.13 288.347 Q3085.13 288.265 3085.23 287.835 Q3085.33 287.404 3085.47 286.81 Q3085.62 286.216 3085.68 285.867 Q3086.42 283.08 3086.52 282.69 L3087.69 277.813 Q3088.32 275.394 3088.32 274.329 Q3088.32 271.398 3086.05 271.398 Q3084.92 271.398 3083.86 271.828 Q3082.81 272.238 3082.09 272.812 Q3081.38 273.386 3080.72 274.185 Q3080.08 274.964 3079.76 275.497 Q3079.45 276.009 3079.2 276.522 L3078.67 278.612 Q3078.55 279.186 3077.95 281.42 L3077.03 285.211 Q3076.37 288.04 3076.23 288.306 Q3076.03 288.88 3075.58 289.187 Q3075.12 289.495 3074.67 289.495 Q3074.16 289.495 3073.81 289.187 Q3073.46 288.88 3073.46 288.347 Q3073.46 288.265 3073.53 287.958 Q3073.59 287.65 3073.69 287.22 Q3073.79 286.789 3073.83 286.543 L3076.27 276.85 Q3076.72 275.087 3076.83 274.534 Q3076.95 273.96 3076.95 273.324 Q3076.95 271.398 3075.64 271.398 Q3074.57 271.398 3073.87 272.669 Q3073.18 273.939 3072.58 276.399 Q3072.4 277.075 3072.28 277.218 Q3072.17 277.362 3071.87 277.362 Q3071.35 277.341 3071.35 276.932 Q3071.35 276.829 3071.52 276.173 Q3071.68 275.517 3071.99 274.534 Q3072.32 273.529 3072.66 272.874 Q3072.87 272.443 3073.05 272.156 Q3073.24 271.869 3073.61 271.418 Q3073.98 270.968 3074.53 270.722 Q3075.08 270.476 3075.76 270.476 Q3077.26 270.476 3078.36 271.439 Q3079.49 272.402 3079.63 274.124 Q3082.36 270.476 3086.17 270.476 Q3088.32 270.476 3089.61 271.562 Q3090.82 272.607 3090.97 274.534 Q3093.79 270.476 3097.81 270.476 Q3100.13 270.476 3101.38 271.685 Q3102.63 272.874 3102.63 274.964 Q3102.63 276.05 3102.07 278.12 Q3101.52 280.17 3101.15 281.194 Q3100.78 282.219 3100.07 284.187 Q3099.31 286.072 3099.31 287.179 Q3099.31 287.896 3099.55 288.224 Q3099.8 288.552 3100.33 288.552 Q3101.15 288.552 3101.87 288.081 Q3102.59 287.589 3103.1 286.789 Q3103.63 285.97 3103.98 285.15 Q3104.33 284.31 3104.6 283.367 Q3104.76 282.854 3104.84 282.731 Q3104.94 282.609 3105.23 282.609 Q3105.74 282.609 3105.74 283.018 Z" fill="#000000" fill-rule="evenodd" fill-opacity="1" /><path clip-path="url(#clip250)" d="M3124.69 284.166 Q3124.86 284.351 3124.86 284.535 Q3124.86 284.719 3124.45 285.252 Q3124.06 285.785 3123.22 286.502 Q3122.38 287.22 3121.29 287.896 Q3120.21 288.572 3118.61 289.023 Q3117.01 289.495 3115.33 289.495 Q3112.19 289.495 3110.35 287.425 Q3108.52 285.355 3108.52 282.383 Q3108.52 279.493 3110.14 276.727 Q3111.76 273.939 3114.39 272.218 Q3117.01 270.476 3119.78 270.476 Q3121.97 270.476 3123.34 271.5 Q3124.71 272.525 3124.71 274.083 Q3124.71 275.292 3124.02 276.03 Q3123.32 276.768 3122.38 276.768 Q3121.72 276.768 3121.27 276.399 Q3120.82 276.009 3120.82 275.292 Q3120.82 274.37 3121.58 273.652 Q3121.87 273.365 3122.19 273.242 Q3122.54 273.099 3122.75 273.099 Q3122.95 273.079 3123.42 273.079 Q3122.99 272.279 3121.97 271.849 Q3120.96 271.398 3119.82 271.398 Q3118.12 271.398 3116.5 272.587 Q3114.88 273.755 3113.89 275.599 Q3112.91 277.403 3112.27 279.965 Q3111.64 282.506 3111.64 283.982 Q3111.64 286.011 3112.58 287.281 Q3113.52 288.552 3115.41 288.552 Q3115.78 288.552 3116.17 288.531 Q3116.58 288.511 3117.6 288.286 Q3118.65 288.06 3119.57 287.671 Q3120.49 287.281 3121.66 286.441 Q3122.85 285.58 3123.79 284.412 Q3124.12 283.982 3124.35 283.982 Q3124.53 283.982 3124.69 284.166 Z" fill="#000000" fill-rule="evenodd" fill-opacity="1" /><path clip-path="url(#clip250)" d="M3149.55 268.893 Q3149.61 268.161 3150.75 268.161 L3187.49 268.161 Q3189.22 268.161 3189.25 268.834 Q3189.25 269.566 3187.61 269.537 L3151.16 269.537 Q3149.55 269.566 3149.55 268.893 M3149.55 257.182 Q3149.55 256.45 3150.81 256.479 L3187.44 256.479 Q3189.22 256.479 3189.25 257.182 Q3189.25 257.855 3187.73 257.855 L3150.75 257.855 Q3149.55 257.855 3149.55 257.182 Z" fill="#000000" fill-rule="evenodd" fill-opacity="1" /><path clip-path="url(#clip250)" d="M3212.39 243.772 L3212.39 241.898 Q3219.59 241.898 3223.31 238.063 Q3224.33 238.063 3224.51 238.297 Q3224.68 238.532 3224.68 239.615 L3224.68 273.255 Q3224.68 275.041 3225.56 275.598 Q3226.44 276.154 3230.28 276.154 L3232.18 276.154 L3232.18 277.998 Q3230.07 277.823 3222.46 277.823 Q3214.85 277.823 3212.77 277.998 L3212.77 276.154 L3214.67 276.154 Q3218.45 276.154 3219.36 275.627 Q3220.26 275.071 3220.26 273.255 L3220.26 242.191 Q3217.13 243.772 3212.39 243.772 Z" fill="#000000" fill-rule="evenodd" fill-opacity="1" /><path clip-path="url(#clip250)" d="M3235.05 258.821 Q3235.05 250.009 3237.27 245.207 Q3240.38 238.063 3247.7 238.063 Q3249.25 238.063 3250.86 238.502 Q3252.5 238.912 3254.55 240.522 Q3256.63 242.133 3257.88 244.768 Q3260.28 249.862 3260.28 258.821 Q3260.28 267.575 3258.06 272.348 Q3254.81 279.316 3247.64 279.316 Q3244.94 279.316 3242.19 277.94 Q3239.47 276.564 3237.74 273.255 Q3235.05 268.307 3235.05 258.821 M3240.02 258.089 Q3240.02 267.136 3240.67 270.737 Q3241.4 274.631 3243.39 276.329 Q3245.41 277.998 3247.64 277.998 Q3250.04 277.998 3252.03 276.212 Q3254.05 274.397 3254.66 270.503 Q3255.34 266.668 3255.31 258.089 Q3255.31 249.745 3254.72 246.407 Q3253.93 242.513 3251.82 240.962 Q3249.74 239.381 3247.64 239.381 Q3246.85 239.381 3246 239.615 Q3245.18 239.849 3243.98 240.522 Q3242.78 241.196 3241.84 242.865 Q3240.93 244.534 3240.49 247.051 Q3240.02 250.301 3240.02 258.089 Z" fill="#000000" fill-rule="evenodd" fill-opacity="1" /><path clip-path="url(#clip250)" d="M3272.67 258.821 Q3272.67 250.009 3274.89 245.207 Q3278 238.063 3285.32 238.063 Q3286.87 238.063 3288.48 238.502 Q3290.12 238.912 3292.17 240.522 Q3294.24 242.133 3295.5 244.768 Q3297.9 249.862 3297.9 258.821 Q3297.9 267.575 3295.68 272.348 Q3292.43 279.316 3285.26 279.316 Q3282.56 279.316 3279.81 277.94 Q3277.09 276.564 3275.36 273.255 Q3272.67 268.307 3272.67 258.821 M3277.64 258.089 Q3277.64 267.136 3278.29 270.737 Q3279.02 274.631 3281.01 276.329 Q3283.03 277.998 3285.26 277.998 Q3287.66 277.998 3289.65 276.212 Q3291.67 274.397 3292.28 270.503 Q3292.96 266.668 3292.93 258.089 Q3292.93 249.745 3292.34 246.407 Q3291.55 242.513 3289.44 240.962 Q3287.36 239.381 3285.26 239.381 Q3284.47 239.381 3283.62 239.615 Q3282.8 239.849 3281.6 240.522 Q3280.4 241.196 3279.46 242.865 Q3278.55 244.534 3278.11 247.051 Q3277.64 250.301 3277.64 258.089 Z" fill="#000000" fill-rule="evenodd" fill-opacity="1" /><path clip-path="url(#clip250)" d="M3302.6 258.821 Q3302.6 250.009 3304.83 245.207 Q3307.93 238.063 3315.25 238.063 Q3316.8 238.063 3318.41 238.502 Q3320.05 238.912 3322.1 240.522 Q3324.18 242.133 3325.44 244.768 Q3327.84 249.862 3327.84 258.821 Q3327.84 267.575 3325.61 272.348 Q3322.36 279.316 3315.19 279.316 Q3312.5 279.316 3309.75 277.94 Q3307.02 276.564 3305.3 273.255 Q3302.6 268.307 3302.6 258.821 M3307.58 258.089 Q3307.58 267.136 3308.22 270.737 Q3308.96 274.631 3310.95 276.329 Q3312.97 277.998 3315.19 277.998 Q3317.59 277.998 3319.58 276.212 Q3321.6 274.397 3322.22 270.503 Q3322.89 266.668 3322.86 258.089 Q3322.86 249.745 3322.28 246.407 Q3321.49 242.513 3319.38 240.962 Q3317.3 239.381 3315.19 239.381 Q3314.4 239.381 3313.55 239.615 Q3312.73 239.849 3311.53 240.522 Q3310.33 241.196 3309.39 242.865 Q3308.49 244.534 3308.05 247.051 Q3307.58 250.301 3307.58 258.089 Z" fill="#000000" fill-rule="evenodd" fill-opacity="1" /><path clip-path="url(#clip250)" d="M3332.54 258.821 Q3332.54 250.009 3334.76 245.207 Q3337.87 238.063 3345.19 238.063 Q3346.74 238.063 3348.35 238.502 Q3349.99 238.912 3352.04 240.522 Q3354.12 242.133 3355.37 244.768 Q3357.78 249.862 3357.78 258.821 Q3357.78 267.575 3355.55 272.348 Q3352.3 279.316 3345.13 279.316 Q3342.43 279.316 3339.68 277.94 Q3336.96 276.564 3335.23 273.255 Q3332.54 268.307 3332.54 258.821 M3337.51 258.089 Q3337.51 267.136 3338.16 270.737 Q3338.89 274.631 3340.88 276.329 Q3342.9 277.998 3345.13 277.998 Q3347.53 277.998 3349.52 276.212 Q3351.54 274.397 3352.15 270.503 Q3352.83 266.668 3352.8 258.089 Q3352.8 249.745 3352.21 246.407 Q3351.42 242.513 3349.31 240.962 Q3347.24 239.381 3345.13 239.381 Q3344.34 239.381 3343.49 239.615 Q3342.67 239.849 3341.47 240.522 Q3340.27 241.196 3339.33 242.865 Q3338.42 244.534 3337.98 247.051 Q3337.51 250.301 3337.51 258.089 Z" fill="#000000" fill-rule="evenodd" fill-opacity="1" /><polyline clip-path="url(#clip250)" style="stroke:#3da44d; stroke-linecap:butt; stroke-linejoin:round; stroke-width:5; stroke-opacity:1; fill:none" points="
  2768.77,328.255 2979.79,328.255 
  "/>
<circle clip-path="url(#clip250)" cx="2874.28" cy="328.255" r="28.8" fill="#3da44d" fill-rule="evenodd" fill-opacity="1" stroke="#000000" stroke-opacity="1" stroke-width="5.76"/>
<path clip-path="url(#clip250)" d="M3065.44 302.512 Q3065.44 303.712 3064.41 303.712 Q3061.1 303.829 3059.76 304.942 Q3058.44 306.025 3057.94 308.133 L3049.57 341.539 Q3049.27 342.593 3049.1 342.711 Q3048.92 342.798 3048.6 342.798 Q3048.19 342.798 3047.96 342.593 Q3047.75 342.388 3047.46 341.656 L3032.53 306.347 Q3032.41 306.113 3032.26 305.791 Q3032.12 305.469 3032 305.264 L3024.07 336.913 Q3023.83 337.821 3023.83 338.29 Q3023.83 339.431 3024.62 340.163 Q3025.44 340.866 3027.78 340.954 Q3028.99 340.954 3028.99 341.598 Q3028.99 342.798 3027.9 342.798 Q3026.91 342.798 3024.83 342.711 Q3022.75 342.623 3021.72 342.623 Q3020.73 342.623 3018.71 342.711 Q3016.69 342.798 3015.72 342.798 Q3014.96 342.798 3014.96 342.125 Q3014.96 341.598 3015.17 341.334 Q3015.37 341.042 3015.55 341.012 Q3015.72 340.954 3015.99 340.954 Q3017.74 340.895 3018.94 340.544 Q3020.14 340.193 3020.82 339.519 Q3021.52 338.846 3021.84 338.172 Q3022.19 337.47 3022.46 336.445 L3030.48 304.239 Q3030.48 303.712 3026.41 303.712 Q3025.71 303.712 3025.41 303.683 Q3025.15 303.654 3024.94 303.507 Q3024.74 303.361 3024.74 303.039 Q3024.74 302.219 3025.09 302.043 Q3025.44 301.838 3026.47 301.838 L3034.52 301.838 Q3035.54 301.838 3035.81 302.014 Q3036.07 302.16 3036.42 302.98 L3049.68 334.278 L3056.39 307.606 Q3056.57 307.079 3056.57 306.347 Q3056.57 305.176 3055.69 304.473 Q3054.84 303.741 3052.5 303.712 Q3051.41 303.712 3051.41 303.039 Q3051.41 302.482 3051.62 302.219 Q3051.85 301.926 3052.03 301.897 Q3052.23 301.838 3052.5 301.838 Q3053.49 301.838 3055.54 301.926 Q3057.59 302.014 3058.61 302.014 Q3059.61 302.014 3061.63 301.926 Q3063.68 301.838 3064.68 301.838 Q3065.03 301.838 3065.2 302.014 Q3065.41 302.16 3065.44 302.336 L3065.44 302.512 Z" fill="#000000" fill-rule="evenodd" fill-opacity="1" /><path clip-path="url(#clip250)" d="M3105.74 347.818 Q3105.74 347.982 3105.56 348.618 Q3105.37 349.253 3104.92 350.237 Q3104.49 351.221 3103.88 352.122 Q3103.28 353.004 3102.3 353.659 Q3101.34 354.295 3100.23 354.295 Q3098.75 354.295 3097.77 353.311 Q3096.79 352.327 3096.79 350.852 Q3096.79 350.052 3097.34 348.536 Q3099.94 341.609 3099.94 339.129 Q3099.94 336.198 3097.67 336.198 Q3096.38 336.198 3095.21 336.731 Q3094.04 337.264 3093.28 338.001 Q3092.52 338.739 3091.93 339.58 Q3091.34 340.42 3091.07 340.973 Q3090.82 341.527 3090.76 341.772 L3088.24 351.897 Q3088.04 352.758 3087.89 353.168 Q3087.75 353.577 3087.36 353.926 Q3086.97 354.295 3086.36 354.295 Q3085.84 354.295 3085.47 353.987 Q3085.13 353.68 3085.13 353.147 Q3085.13 353.065 3085.23 352.635 Q3085.33 352.204 3085.47 351.61 Q3085.62 351.016 3085.68 350.667 Q3086.42 347.88 3086.52 347.49 L3087.69 342.613 Q3088.32 340.194 3088.32 339.129 Q3088.32 336.198 3086.05 336.198 Q3084.92 336.198 3083.86 336.628 Q3082.81 337.038 3082.09 337.612 Q3081.38 338.186 3080.72 338.985 Q3080.08 339.764 3079.76 340.297 Q3079.45 340.809 3079.2 341.322 L3078.67 343.412 Q3078.55 343.986 3077.95 346.22 L3077.03 350.011 Q3076.37 352.84 3076.23 353.106 Q3076.03 353.68 3075.58 353.987 Q3075.12 354.295 3074.67 354.295 Q3074.16 354.295 3073.81 353.987 Q3073.46 353.68 3073.46 353.147 Q3073.46 353.065 3073.53 352.758 Q3073.59 352.45 3073.69 352.02 Q3073.79 351.589 3073.83 351.343 L3076.27 341.65 Q3076.72 339.887 3076.83 339.334 Q3076.95 338.76 3076.95 338.124 Q3076.95 336.198 3075.64 336.198 Q3074.57 336.198 3073.87 337.469 Q3073.18 338.739 3072.58 341.199 Q3072.4 341.875 3072.28 342.018 Q3072.17 342.162 3071.87 342.162 Q3071.35 342.141 3071.35 341.732 Q3071.35 341.629 3071.52 340.973 Q3071.68 340.317 3071.99 339.334 Q3072.32 338.329 3072.66 337.674 Q3072.87 337.243 3073.05 336.956 Q3073.24 336.669 3073.61 336.218 Q3073.98 335.768 3074.53 335.522 Q3075.08 335.276 3075.76 335.276 Q3077.26 335.276 3078.36 336.239 Q3079.49 337.202 3079.63 338.924 Q3082.36 335.276 3086.17 335.276 Q3088.32 335.276 3089.61 336.362 Q3090.82 337.407 3090.97 339.334 Q3093.79 335.276 3097.81 335.276 Q3100.13 335.276 3101.38 336.485 Q3102.63 337.674 3102.63 339.764 Q3102.63 340.85 3102.07 342.92 Q3101.52 344.97 3101.15 345.994 Q3100.78 347.019 3100.07 348.987 Q3099.31 350.872 3099.31 351.979 Q3099.31 352.696 3099.55 353.024 Q3099.8 353.352 3100.33 353.352 Q3101.15 353.352 3101.87 352.881 Q3102.59 352.389 3103.1 351.589 Q3103.63 350.77 3103.98 349.95 Q3104.33 349.11 3104.6 348.167 Q3104.76 347.654 3104.84 347.531 Q3104.94 347.409 3105.23 347.409 Q3105.74 347.409 3105.74 347.818 Z" fill="#000000" fill-rule="evenodd" fill-opacity="1" /><path clip-path="url(#clip250)" d="M3124.69 348.966 Q3124.86 349.151 3124.86 349.335 Q3124.86 349.519 3124.45 350.052 Q3124.06 350.585 3123.22 351.302 Q3122.38 352.02 3121.29 352.696 Q3120.21 353.372 3118.61 353.823 Q3117.01 354.295 3115.33 354.295 Q3112.19 354.295 3110.35 352.225 Q3108.52 350.155 3108.52 347.183 Q3108.52 344.293 3110.14 341.527 Q3111.76 338.739 3114.39 337.018 Q3117.01 335.276 3119.78 335.276 Q3121.97 335.276 3123.34 336.3 Q3124.71 337.325 3124.71 338.883 Q3124.71 340.092 3124.02 340.83 Q3123.32 341.568 3122.38 341.568 Q3121.72 341.568 3121.27 341.199 Q3120.82 340.809 3120.82 340.092 Q3120.82 339.17 3121.58 338.452 Q3121.87 338.165 3122.19 338.042 Q3122.54 337.899 3122.75 337.899 Q3122.95 337.879 3123.42 337.879 Q3122.99 337.079 3121.97 336.649 Q3120.96 336.198 3119.82 336.198 Q3118.12 336.198 3116.5 337.387 Q3114.88 338.555 3113.89 340.399 Q3112.91 342.203 3112.27 344.765 Q3111.64 347.306 3111.64 348.782 Q3111.64 350.811 3112.58 352.081 Q3113.52 353.352 3115.41 353.352 Q3115.78 353.352 3116.17 353.331 Q3116.58 353.311 3117.6 353.086 Q3118.65 352.86 3119.57 352.471 Q3120.49 352.081 3121.66 351.241 Q3122.85 350.38 3123.79 349.212 Q3124.12 348.782 3124.35 348.782 Q3124.53 348.782 3124.69 348.966 Z" fill="#000000" fill-rule="evenodd" fill-opacity="1" /><path clip-path="url(#clip250)" d="M3149.55 333.693 Q3149.61 332.961 3150.75 332.961 L3187.49 332.961 Q3189.22 332.961 3189.25 333.634 Q3189.25 334.366 3187.61 334.337 L3151.16 334.337 Q3149.55 334.366 3149.55 333.693 M3149.55 321.982 Q3149.55 321.25 3150.81 321.279 L3187.44 321.279 Q3189.22 321.279 3189.25 321.982 Q3189.25 322.655 3187.73 322.655 L3150.75 322.655 Q3149.55 322.655 3149.55 321.982 Z" fill="#000000" fill-rule="evenodd" fill-opacity="1" /><path clip-path="url(#clip250)" d="M3212.39 308.572 L3212.39 306.698 Q3219.59 306.698 3223.31 302.863 Q3224.33 302.863 3224.51 303.097 Q3224.68 303.332 3224.68 304.415 L3224.68 338.055 Q3224.68 339.841 3225.56 340.398 Q3226.44 340.954 3230.28 340.954 L3232.18 340.954 L3232.18 342.798 Q3230.07 342.623 3222.46 342.623 Q3214.85 342.623 3212.77 342.798 L3212.77 340.954 L3214.67 340.954 Q3218.45 340.954 3219.36 340.427 Q3220.26 339.871 3220.26 338.055 L3220.26 306.991 Q3217.13 308.572 3212.39 308.572 Z" fill="#000000" fill-rule="evenodd" fill-opacity="1" /><path clip-path="url(#clip250)" d="M3235.05 323.621 Q3235.05 314.809 3237.27 310.007 Q3240.38 302.863 3247.7 302.863 Q3249.25 302.863 3250.86 303.302 Q3252.5 303.712 3254.55 305.322 Q3256.63 306.933 3257.88 309.568 Q3260.28 314.662 3260.28 323.621 Q3260.28 332.375 3258.06 337.148 Q3254.81 344.116 3247.64 344.116 Q3244.94 344.116 3242.19 342.74 Q3239.47 341.364 3237.74 338.055 Q3235.05 333.107 3235.05 323.621 M3240.02 322.889 Q3240.02 331.936 3240.67 335.537 Q3241.4 339.431 3243.39 341.129 Q3245.41 342.798 3247.64 342.798 Q3250.04 342.798 3252.03 341.012 Q3254.05 339.197 3254.66 335.303 Q3255.34 331.468 3255.31 322.889 Q3255.31 314.545 3254.72 311.207 Q3253.93 307.313 3251.82 305.762 Q3249.74 304.181 3247.64 304.181 Q3246.85 304.181 3246 304.415 Q3245.18 304.649 3243.98 305.322 Q3242.78 305.996 3241.84 307.665 Q3240.93 309.334 3240.49 311.851 Q3240.02 315.101 3240.02 322.889 Z" fill="#000000" fill-rule="evenodd" fill-opacity="1" /><path clip-path="url(#clip250)" d="M3264.98 323.621 Q3264.98 314.809 3267.21 310.007 Q3270.31 302.863 3277.63 302.863 Q3279.18 302.863 3280.79 303.302 Q3282.43 303.712 3284.48 305.322 Q3286.56 306.933 3287.82 309.568 Q3290.22 314.662 3290.22 323.621 Q3290.22 332.375 3288 337.148 Q3284.75 344.116 3277.57 344.116 Q3274.88 344.116 3272.13 342.74 Q3269.4 341.364 3267.68 338.055 Q3264.98 333.107 3264.98 323.621 M3269.96 322.889 Q3269.96 331.936 3270.6 335.537 Q3271.34 339.431 3273.33 341.129 Q3275.35 342.798 3277.57 342.798 Q3279.97 342.798 3281.96 341.012 Q3283.98 339.197 3284.6 335.303 Q3285.27 331.468 3285.24 322.889 Q3285.24 314.545 3284.66 311.207 Q3283.87 307.313 3281.76 305.762 Q3279.68 304.181 3277.57 304.181 Q3276.78 304.181 3275.93 304.415 Q3275.11 304.649 3273.91 305.322 Q3272.71 305.996 3271.78 307.665 Q3270.87 309.334 3270.43 311.851 Q3269.96 315.101 3269.96 322.889 Z" fill="#000000" fill-rule="evenodd" fill-opacity="1" /><path clip-path="url(#clip250)" d="M3302.6 323.621 Q3302.6 314.809 3304.83 310.007 Q3307.93 302.863 3315.25 302.863 Q3316.8 302.863 3318.41 303.302 Q3320.05 303.712 3322.1 305.322 Q3324.18 306.933 3325.44 309.568 Q3327.84 314.662 3327.84 323.621 Q3327.84 332.375 3325.61 337.148 Q3322.36 344.116 3315.19 344.116 Q3312.5 344.116 3309.75 342.74 Q3307.02 341.364 3305.3 338.055 Q3302.6 333.107 3302.6 323.621 M3307.58 322.889 Q3307.58 331.936 3308.22 335.537 Q3308.96 339.431 3310.95 341.129 Q3312.97 342.798 3315.19 342.798 Q3317.59 342.798 3319.58 341.012 Q3321.6 339.197 3322.22 335.303 Q3322.89 331.468 3322.86 322.889 Q3322.86 314.545 3322.28 311.207 Q3321.49 307.313 3319.38 305.762 Q3317.3 304.181 3315.19 304.181 Q3314.4 304.181 3313.55 304.415 Q3312.73 304.649 3311.53 305.322 Q3310.33 305.996 3309.39 307.665 Q3308.49 309.334 3308.05 311.851 Q3307.58 315.101 3307.58 322.889 Z" fill="#000000" fill-rule="evenodd" fill-opacity="1" /><path clip-path="url(#clip250)" d="M3332.54 323.621 Q3332.54 314.809 3334.76 310.007 Q3337.87 302.863 3345.19 302.863 Q3346.74 302.863 3348.35 303.302 Q3349.99 303.712 3352.04 305.322 Q3354.12 306.933 3355.37 309.568 Q3357.78 314.662 3357.78 323.621 Q3357.78 332.375 3355.55 337.148 Q3352.3 344.116 3345.13 344.116 Q3342.43 344.116 3339.68 342.74 Q3336.96 341.364 3335.23 338.055 Q3332.54 333.107 3332.54 323.621 M3337.51 322.889 Q3337.51 331.936 3338.16 335.537 Q3338.89 339.431 3340.88 341.129 Q3342.9 342.798 3345.13 342.798 Q3347.53 342.798 3349.52 341.012 Q3351.54 339.197 3352.15 335.303 Q3352.83 331.468 3352.8 322.889 Q3352.8 314.545 3352.21 311.207 Q3351.42 307.313 3349.31 305.762 Q3347.24 304.181 3345.13 304.181 Q3344.34 304.181 3343.49 304.415 Q3342.67 304.649 3341.47 305.322 Q3340.27 305.996 3339.33 307.665 Q3338.42 309.334 3337.98 311.851 Q3337.51 315.101 3337.51 322.889 Z" fill="#000000" fill-rule="evenodd" fill-opacity="1" /><path clip-path="url(#clip250)" d="M3362.47 323.621 Q3362.47 314.809 3364.7 310.007 Q3367.8 302.863 3375.12 302.863 Q3376.67 302.863 3378.28 303.302 Q3379.92 303.712 3381.97 305.322 Q3384.05 306.933 3385.31 309.568 Q3387.71 314.662 3387.71 323.621 Q3387.71 332.375 3385.49 337.148 Q3382.24 344.116 3375.06 344.116 Q3372.37 344.116 3369.62 342.74 Q3366.89 341.364 3365.17 338.055 Q3362.47 333.107 3362.47 323.621 M3367.45 322.889 Q3367.45 331.936 3368.09 335.537 Q3368.83 339.431 3370.82 341.129 Q3372.84 342.798 3375.06 342.798 Q3377.46 342.798 3379.45 341.012 Q3381.47 339.197 3382.09 335.303 Q3382.76 331.468 3382.73 322.889 Q3382.73 314.545 3382.15 311.207 Q3381.36 307.313 3379.25 305.762 Q3377.17 304.181 3375.06 304.181 Q3374.27 304.181 3373.42 304.415 Q3372.6 304.649 3371.4 305.322 Q3370.2 305.996 3369.27 307.665 Q3368.36 309.334 3367.92 311.851 Q3367.45 315.101 3367.45 322.889 Z" fill="#000000" fill-rule="evenodd" fill-opacity="1" /></svg>
