<?xml version="1.0" encoding="utf-8"?>
<svg xmlns="http://www.w3.org/2000/svg" xmlns:xlink="http://www.w3.org/1999/xlink" width="900" height="300" viewBox="0 0 3600 1200">
<defs>
  <clipPath id="clip710">
    <rect x="0" y="0" width="3600" height="1200"/>
  </clipPath>
</defs>
<path clip-path="url(#clip710)" d="
M0 1200 L3600 1200 L3600 0 L0 0  Z
  " fill="#ffffff" fill-rule="evenodd" fill-opacity="1"/>
<defs>
  <clipPath id="clip711">
    <rect x="720" y="0" width="2521" height="1200"/>
  </clipPath>
</defs>
<defs>
  <clipPath id="clip712">
    <rect x="323" y="110" width="3167" height="885"/>
  </clipPath>
</defs>
<path clip-path="url(#clip710)" d="
M363.511 994.428 L3489.76 994.428 L3489.76 110.236 L363.511 110.236  Z
  " fill="#ffffff" fill-rule="evenodd" fill-opacity="1"/>
<defs>
  <clipPath id="clip713">
    <rect x="363" y="110" width="3127" height="885"/>
  </clipPath>
</defs>
<polyline clip-path="url(#clip713)" style="stroke:#000000; stroke-linecap:round; stroke-linejoin:round; stroke-width:2; stroke-opacity:0.1; fill:none" points="
  607.216,994.428 607.216,110.236 
  "/>
<polyline clip-path="url(#clip713)" style="stroke:#000000; stroke-linecap:round; stroke-linejoin:round; stroke-width:2; stroke-opacity:0.1; fill:none" points="
  917.668,994.428 917.668,110.236 
  "/>
<polyline clip-path="url(#clip713)" style="stroke:#000000; stroke-linecap:round; stroke-linejoin:round; stroke-width:2; stroke-opacity:0.1; fill:none" points="
  1228.12,994.428 1228.12,110.236 
  "/>
<polyline clip-path="url(#clip713)" style="stroke:#000000; stroke-linecap:round; stroke-linejoin:round; stroke-width:2; stroke-opacity:0.1; fill:none" points="
  1538.57,994.428 1538.57,110.236 
  "/>
<polyline clip-path="url(#clip713)" style="stroke:#000000; stroke-linecap:round; stroke-linejoin:round; stroke-width:2; stroke-opacity:0.1; fill:none" points="
  1849.02,994.428 1849.02,110.236 
  "/>
<polyline clip-path="url(#clip713)" style="stroke:#000000; stroke-linecap:round; stroke-linejoin:round; stroke-width:2; stroke-opacity:0.1; fill:none" points="
  2159.48,994.428 2159.48,110.236 
  "/>
<polyline clip-path="url(#clip713)" style="stroke:#000000; stroke-linecap:round; stroke-linejoin:round; stroke-width:2; stroke-opacity:0.1; fill:none" points="
  2469.93,994.428 2469.93,110.236 
  "/>
<polyline clip-path="url(#clip713)" style="stroke:#000000; stroke-linecap:round; stroke-linejoin:round; stroke-width:2; stroke-opacity:0.1; fill:none" points="
  2780.38,994.428 2780.38,110.236 
  "/>
<polyline clip-path="url(#clip713)" style="stroke:#000000; stroke-linecap:round; stroke-linejoin:round; stroke-width:2; stroke-opacity:0.1; fill:none" points="
  3090.83,994.428 3090.83,110.236 
  "/>
<polyline clip-path="url(#clip713)" style="stroke:#000000; stroke-linecap:round; stroke-linejoin:round; stroke-width:2; stroke-opacity:0.1; fill:none" points="
  3401.28,994.428 3401.28,110.236 
  "/>
<polyline clip-path="url(#clip710)" style="stroke:#000000; stroke-linecap:round; stroke-linejoin:round; stroke-width:4; stroke-opacity:1; fill:none" points="
  363.511,994.428 3489.76,994.428 
  "/>
<polyline clip-path="url(#clip710)" style="stroke:#000000; stroke-linecap:round; stroke-linejoin:round; stroke-width:4; stroke-opacity:1; fill:none" points="
  363.511,110.236 3489.76,110.236 
  "/>
<polyline clip-path="url(#clip710)" style="stroke:#000000; stroke-linecap:round; stroke-linejoin:round; stroke-width:4; stroke-opacity:1; fill:none" points="
  607.216,994.428 607.216,975.53 
  "/>
<polyline clip-path="url(#clip710)" style="stroke:#000000; stroke-linecap:round; stroke-linejoin:round; stroke-width:4; stroke-opacity:1; fill:none" points="
  917.668,994.428 917.668,975.53 
  "/>
<polyline clip-path="url(#clip710)" style="stroke:#000000; stroke-linecap:round; stroke-linejoin:round; stroke-width:4; stroke-opacity:1; fill:none" points="
  1228.12,994.428 1228.12,975.53 
  "/>
<polyline clip-path="url(#clip710)" style="stroke:#000000; stroke-linecap:round; stroke-linejoin:round; stroke-width:4; stroke-opacity:1; fill:none" points="
  1538.57,994.428 1538.57,975.53 
  "/>
<polyline clip-path="url(#clip710)" style="stroke:#000000; stroke-linecap:round; stroke-linejoin:round; stroke-width:4; stroke-opacity:1; fill:none" points="
  1849.02,994.428 1849.02,975.53 
  "/>
<polyline clip-path="url(#clip710)" style="stroke:#000000; stroke-linecap:round; stroke-linejoin:round; stroke-width:4; stroke-opacity:1; fill:none" points="
  2159.48,994.428 2159.48,975.53 
  "/>
<polyline clip-path="url(#clip710)" style="stroke:#000000; stroke-linecap:round; stroke-linejoin:round; stroke-width:4; stroke-opacity:1; fill:none" points="
  2469.93,994.428 2469.93,975.53 
  "/>
<polyline clip-path="url(#clip710)" style="stroke:#000000; stroke-linecap:round; stroke-linejoin:round; stroke-width:4; stroke-opacity:1; fill:none" points="
  2780.38,994.428 2780.38,975.53 
  "/>
<polyline clip-path="url(#clip710)" style="stroke:#000000; stroke-linecap:round; stroke-linejoin:round; stroke-width:4; stroke-opacity:1; fill:none" points="
  3090.83,994.428 3090.83,975.53 
  "/>
<polyline clip-path="url(#clip710)" style="stroke:#000000; stroke-linecap:round; stroke-linejoin:round; stroke-width:4; stroke-opacity:1; fill:none" points="
  3401.28,994.428 3401.28,975.53 
  "/>
<path clip-path="url(#clip710)" d="M596.779 1041.13 L596.779 1039.15 Q604.375 1039.15 608.297 1035.11 Q609.377 1035.11 609.563 1035.36 Q609.748 1035.6 609.748 1036.75 L609.748 1072.23 Q609.748 1074.11 610.674 1074.7 Q611.601 1075.28 615.646 1075.28 L617.653 1075.28 L617.653 1077.23 Q615.43 1077.04 607.401 1077.04 Q599.372 1077.04 597.18 1077.23 L597.18 1075.28 L599.187 1075.28 Q603.171 1075.28 604.128 1074.73 Q605.085 1074.14 605.085 1072.23 L605.085 1039.46 Q601.781 1041.13 596.779 1041.13 Z" fill="#000000" fill-rule="evenodd" fill-opacity="1" /><path clip-path="url(#clip710)" d="M905.038 1077.23 Q905.038 1076.09 905.131 1075.75 Q905.254 1075.41 905.748 1074.88 L917.884 1061.36 Q924.523 1053.88 924.523 1047.37 Q924.523 1043.14 922.3 1040.11 Q920.107 1037.08 916.062 1037.08 Q913.283 1037.08 910.936 1038.78 Q908.589 1040.48 907.509 1043.51 Q907.694 1043.45 908.342 1043.45 Q909.917 1043.45 910.782 1044.43 Q911.677 1045.42 911.677 1046.75 Q911.677 1048.45 910.566 1049.28 Q909.485 1050.08 908.404 1050.08 Q907.972 1050.08 907.385 1049.99 Q906.829 1049.9 905.934 1049.04 Q905.038 1048.14 905.038 1046.56 Q905.038 1042.15 908.373 1038.63 Q911.739 1035.11 916.865 1035.11 Q922.67 1035.11 926.468 1038.57 Q930.297 1041.99 930.297 1047.37 Q930.297 1049.25 929.711 1050.98 Q929.155 1052.68 928.383 1054.01 Q927.642 1055.33 925.604 1057.47 Q923.566 1059.6 921.929 1061.11 Q920.293 1062.62 916.618 1065.83 L909.917 1072.35 L921.312 1072.35 Q926.87 1072.35 927.302 1071.85 Q927.92 1070.96 928.692 1066.23 L930.297 1066.23 L928.506 1077.23 L905.038 1077.23 Z" fill="#000000" fill-rule="evenodd" fill-opacity="1" /><path clip-path="url(#clip710)" d="M1215 1068.71 Q1215 1066.82 1216.08 1065.93 Q1217.16 1065.03 1218.55 1065.03 Q1220 1065.03 1221.02 1065.99 Q1222.07 1066.91 1222.07 1068.55 Q1222.07 1070.31 1220.83 1071.3 Q1219.63 1072.29 1217.9 1072.04 Q1219.41 1074.57 1222.19 1075.71 Q1225 1076.86 1227.6 1076.86 Q1230.31 1076.86 1232.5 1074.51 Q1234.73 1072.16 1234.73 1066.42 Q1234.73 1061.54 1232.81 1058.73 Q1230.93 1055.92 1227.19 1055.92 L1224.41 1055.92 Q1223.46 1055.92 1223.18 1055.83 Q1222.9 1055.74 1222.9 1055.21 Q1222.9 1054.59 1223.86 1054.47 Q1224.82 1054.47 1226.33 1054.28 Q1230 1054.16 1231.95 1050.98 Q1233.71 1048.02 1233.71 1043.79 Q1233.71 1039.93 1231.86 1038.32 Q1230.03 1036.68 1227.66 1036.68 Q1225.43 1036.68 1222.99 1037.61 Q1220.55 1038.54 1219.23 1040.6 Q1223.15 1040.6 1223.15 1043.79 Q1223.15 1045.18 1222.25 1046.1 Q1221.39 1047 1219.94 1047 Q1218.55 1047 1217.62 1046.13 Q1216.69 1045.24 1216.69 1043.72 Q1216.69 1040.11 1219.91 1037.61 Q1223.15 1035.11 1227.9 1035.11 Q1232.6 1035.11 1236.06 1037.58 Q1239.55 1040.05 1239.55 1043.85 Q1239.55 1047.58 1237.07 1050.64 Q1234.6 1053.7 1230.68 1054.96 Q1235.5 1055.92 1238.37 1059.19 Q1241.24 1062.44 1241.24 1066.42 Q1241.24 1071.36 1237.35 1075 Q1233.46 1078.62 1227.78 1078.62 Q1222.53 1078.62 1218.76 1075.78 Q1215 1072.94 1215 1068.71 Z" fill="#000000" fill-rule="evenodd" fill-opacity="1" /><path clip-path="url(#clip710)" d="M1524.55 1066.79 L1524.55 1064.85 L1543.98 1035.17 Q1544.47 1034.4 1545.24 1034.43 Q1545.95 1034.43 1546.11 1034.71 Q1546.26 1034.98 1546.26 1036.07 L1546.26 1064.85 L1552.59 1064.85 L1552.59 1066.79 L1546.26 1066.79 L1546.26 1072.29 Q1546.26 1074.11 1547 1074.7 Q1547.77 1075.28 1551.05 1075.28 L1552.38 1075.28 L1552.38 1077.23 Q1549.78 1077.04 1543.79 1077.04 Q1537.83 1077.04 1535.24 1077.23 L1535.24 1075.28 L1536.56 1075.28 Q1539.84 1075.28 1540.61 1074.73 Q1541.38 1074.14 1541.38 1072.29 L1541.38 1066.79 L1524.55 1066.79 M1526.34 1064.85 L1541.75 1064.85 L1541.75 1041.25 L1526.34 1064.85 Z" fill="#000000" fill-rule="evenodd" fill-opacity="1" /><path clip-path="url(#clip710)" d="M1836.39 1067.04 Q1836.39 1065.15 1837.41 1064.44 Q1838.43 1063.7 1839.51 1063.7 Q1840.96 1063.7 1841.8 1064.63 Q1842.66 1065.52 1842.66 1066.79 Q1842.66 1068.06 1841.8 1068.98 Q1840.96 1069.88 1839.51 1069.88 Q1838.8 1069.88 1838.43 1069.75 Q1839.27 1072.66 1841.8 1074.76 Q1844.36 1076.86 1847.73 1076.86 Q1851.96 1076.86 1854.49 1072.75 Q1856 1070.09 1856 1064.07 Q1856 1058.76 1854.86 1056.11 Q1853.1 1052.06 1849.49 1052.06 Q1844.36 1052.06 1841.34 1056.48 Q1840.96 1057.03 1840.53 1057.06 Q1839.91 1057.06 1839.76 1056.72 Q1839.64 1056.35 1839.64 1055.4 L1839.64 1036.68 Q1839.64 1035.17 1840.25 1035.17 Q1840.5 1035.17 1841.03 1035.36 Q1845.01 1037.12 1849.43 1037.15 Q1853.96 1037.15 1858.04 1035.29 Q1858.35 1035.11 1858.54 1035.11 Q1859.15 1035.11 1859.18 1035.82 Q1859.18 1036.07 1858.66 1036.81 Q1858.16 1037.52 1857.08 1038.47 Q1856 1039.4 1854.61 1040.3 Q1853.22 1041.19 1851.19 1041.81 Q1849.18 1042.4 1846.96 1042.4 Q1844.3 1042.4 1841.58 1041.56 L1841.58 1053.88 Q1844.86 1050.67 1849.61 1050.67 Q1854.68 1050.67 1858.16 1054.75 Q1861.65 1058.82 1861.65 1064.51 Q1861.65 1070.47 1857.52 1074.54 Q1853.41 1078.62 1847.85 1078.62 Q1842.79 1078.62 1839.58 1075 Q1836.39 1071.39 1836.39 1067.04 Z" fill="#000000" fill-rule="evenodd" fill-opacity="1" /><path clip-path="url(#clip710)" d="M2146.35 1057.25 Q2146.35 1047.31 2151.42 1041.22 Q2156.48 1035.11 2163 1035.11 Q2166.79 1035.11 2168.89 1037.05 Q2171.03 1038.97 2171.03 1041.93 Q2171.03 1043.57 2170.07 1044.28 Q2169.11 1044.99 2168.12 1044.99 Q2166.98 1044.99 2166.08 1044.22 Q2165.19 1043.45 2165.19 1042.06 Q2165.19 1039.22 2168.68 1039.22 Q2167.04 1036.68 2163.12 1036.68 Q2161.92 1036.68 2160.68 1037.05 Q2159.45 1037.39 2157.84 1038.57 Q2156.23 1039.74 2155 1041.59 Q2153.76 1043.45 2152.9 1046.94 Q2152.03 1050.42 2152.03 1054.96 L2152.03 1056.48 Q2154.63 1050.21 2159.94 1050.24 Q2165.25 1050.24 2168.93 1054.28 Q2172.6 1058.33 2172.6 1064.32 Q2172.6 1070.47 2168.77 1074.54 Q2164.94 1078.62 2159.57 1078.62 Q2157.16 1078.62 2154.97 1077.6 Q2152.81 1076.61 2150.77 1074.33 Q2148.76 1072.04 2147.56 1067.66 Q2146.35 1063.27 2146.35 1057.25 M2152.16 1062.93 Q2152.16 1069.14 2153.3 1072.1 Q2153.49 1072.6 2153.89 1073.28 Q2154.32 1073.95 2155.03 1074.85 Q2155.77 1075.71 2156.98 1076.3 Q2158.18 1076.86 2159.57 1076.86 Q2163.8 1076.86 2165.84 1072.75 Q2166.92 1070.47 2166.92 1064.26 Q2166.92 1057.93 2165.78 1055.61 Q2163.83 1051.69 2159.88 1051.69 Q2157.22 1051.69 2155.37 1053.51 Q2153.55 1055.33 2152.84 1057.77 Q2152.16 1060.21 2152.16 1062.93 Z" fill="#000000" fill-rule="evenodd" fill-opacity="1" /><path clip-path="url(#clip710)" d="M2456.37 1047.49 L2458.44 1034.49 L2460.02 1034.49 Q2460.2 1035.26 2460.51 1035.6 Q2460.85 1035.94 2462.64 1036.22 Q2464.46 1036.5 2468.14 1036.5 L2483.48 1036.5 Q2483.48 1037.95 2482.93 1038.72 L2474.38 1050.73 Q2471.66 1054.53 2470.45 1061.54 Q2469.74 1066.23 2469.77 1071.92 L2469.77 1075.13 Q2469.77 1078.62 2466.84 1078.62 Q2463.94 1078.62 2463.94 1075.13 Q2463.94 1063.05 2471.72 1051.35 Q2472.55 1050.15 2475.61 1045.85 Q2478.7 1041.56 2478.82 1041.38 L2465.73 1041.38 Q2459.99 1041.38 2459.52 1041.75 Q2458.9 1042.3 2457.95 1047.49 L2456.37 1047.49 Z" fill="#000000" fill-rule="evenodd" fill-opacity="1" /><path clip-path="url(#clip710)" d="M2767.26 1067.69 Q2767.26 1060.61 2776.37 1056.04 Q2772.44 1053.39 2771.73 1052.62 Q2768.96 1049.53 2768.96 1045.67 Q2768.96 1041.25 2772.29 1038.2 Q2775.66 1035.11 2780.41 1035.11 Q2784.95 1035.11 2788.38 1037.73 Q2791.81 1040.36 2791.81 1044.53 Q2791.81 1050.39 2784.15 1054.35 Q2789.21 1057.5 2790.42 1058.82 Q2793.5 1062.25 2793.5 1066.61 Q2793.5 1071.67 2789.61 1075.16 Q2785.72 1078.62 2780.35 1078.62 Q2775.1 1078.62 2771.18 1075.56 Q2767.26 1072.5 2767.26 1067.69 M2770.41 1067.69 Q2770.41 1071.61 2773.34 1074.23 Q2776.3 1076.86 2780.41 1076.86 Q2784.39 1076.86 2787.36 1074.57 Q2790.35 1072.29 2790.35 1068.89 Q2790.35 1067.56 2789.89 1066.42 Q2789.46 1065.28 2788.56 1064.38 Q2787.7 1063.46 2787.14 1063.05 Q2786.62 1062.62 2785.6 1061.91 L2777.82 1057 Q2770.41 1061.11 2770.41 1067.69 M2771.73 1043.2 Q2771.73 1046.23 2774.92 1048.32 L2782.76 1053.39 Q2789.03 1049.71 2789.03 1044.53 Q2789.03 1041.16 2786.46 1038.94 Q2783.9 1036.68 2780.35 1036.68 Q2776.86 1036.68 2774.3 1038.54 Q2771.73 1040.36 2771.73 1043.2 Z" fill="#000000" fill-rule="evenodd" fill-opacity="1" /><path clip-path="url(#clip710)" d="M3077.71 1049.34 Q3077.71 1045.98 3078.7 1043.69 Q3079.69 1041.38 3081.75 1039.09 Q3085.55 1035.11 3091.05 1035.11 Q3093.4 1035.11 3095.46 1036.1 Q3097.56 1037.08 3099.54 1039.34 Q3101.55 1041.56 3102.75 1045.98 Q3103.96 1050.36 3103.96 1056.42 Q3103.96 1066.2 3099.2 1072.41 Q3094.48 1078.62 3088.08 1078.62 Q3084.04 1078.62 3081.66 1076.8 Q3079.28 1074.94 3079.28 1071.79 Q3079.28 1070.16 3080.21 1069.48 Q3081.14 1068.77 3082.19 1068.77 Q3083.33 1068.77 3084.22 1069.54 Q3085.12 1070.28 3085.12 1071.67 Q3085.12 1072.81 3084.38 1073.71 Q3083.67 1074.57 3081.82 1074.57 Q3083.64 1076.86 3088.02 1076.86 Q3089.6 1076.86 3091.17 1076.15 Q3092.75 1075.41 3094.45 1073.65 Q3096.17 1071.85 3097.22 1068.12 Q3098.27 1064.38 3098.27 1059.13 L3098.27 1057.13 Q3095.74 1063.46 3090.37 1063.46 Q3085.06 1063.46 3081.38 1059.38 Q3077.71 1055.3 3077.71 1049.34 M3083.39 1049.41 Q3083.39 1055.67 3084.53 1057.99 Q3086.48 1061.97 3090.43 1061.97 Q3094.29 1061.97 3096.21 1058.55 Q3098.15 1055.09 3098.15 1050.61 Q3098.15 1044.4 3097.13 1041.69 Q3095.25 1036.68 3091.05 1036.68 Q3086.88 1036.68 3084.72 1040.67 Q3083.39 1043.01 3083.39 1049.41 Z" fill="#000000" fill-rule="evenodd" fill-opacity="1" /><path clip-path="url(#clip710)" d="M3373.74 1041.13 L3373.74 1039.15 Q3381.34 1039.15 3385.26 1035.11 Q3386.34 1035.11 3386.52 1035.36 Q3386.71 1035.6 3386.71 1036.75 L3386.71 1072.23 Q3386.71 1074.11 3387.64 1074.7 Q3388.56 1075.28 3392.61 1075.28 L3394.62 1075.28 L3394.62 1077.23 Q3392.39 1077.04 3384.36 1077.04 Q3376.33 1077.04 3374.14 1077.23 L3374.14 1075.28 L3376.15 1075.28 Q3380.13 1075.28 3381.09 1074.73 Q3382.05 1074.14 3382.05 1072.23 L3382.05 1039.46 Q3378.74 1041.13 3373.74 1041.13 Z" fill="#000000" fill-rule="evenodd" fill-opacity="1" /><path clip-path="url(#clip710)" d="M3402.21 1057 Q3402.21 1047.71 3404.56 1042.64 Q3407.83 1035.11 3415.55 1035.11 Q3417.19 1035.11 3418.89 1035.57 Q3420.62 1036 3422.78 1037.7 Q3424.97 1039.4 3426.3 1042.18 Q3428.83 1047.55 3428.83 1057 Q3428.83 1066.23 3426.48 1071.27 Q3423.05 1078.62 3415.49 1078.62 Q3412.65 1078.62 3409.75 1077.17 Q3406.87 1075.71 3405.05 1072.23 Q3402.21 1067.01 3402.21 1057 M3407.46 1056.23 Q3407.46 1065.77 3408.14 1069.57 Q3408.91 1073.68 3411.01 1075.47 Q3413.14 1077.23 3415.49 1077.23 Q3418.02 1077.23 3420.12 1075.34 Q3422.25 1073.43 3422.9 1069.32 Q3423.61 1065.28 3423.58 1056.23 Q3423.58 1047.43 3422.96 1043.91 Q3422.13 1039.8 3419.91 1038.17 Q3417.71 1036.5 3415.49 1036.5 Q3414.66 1036.5 3413.76 1036.75 Q3412.9 1036.99 3411.63 1037.7 Q3410.36 1038.41 3409.38 1040.17 Q3408.42 1041.93 3407.95 1044.59 Q3407.46 1048.02 3407.46 1056.23 Z" fill="#000000" fill-rule="evenodd" fill-opacity="1" /><path clip-path="url(#clip710)" d="M1962.81 1121.51 Q1962.81 1122.04 1962.68 1122.41 Q1962.56 1122.74 1962.27 1122.9 Q1961.99 1123.07 1961.82 1123.11 Q1961.66 1123.15 1961.29 1123.19 Q1959.53 1123.35 1958.3 1123.64 Q1957.11 1123.93 1954.16 1125.4 Q1951.25 1126.88 1947.6 1129.54 L1932.93 1140.9 L1930.47 1142.82 Q1930.47 1142.95 1930.55 1143.19 Q1930.63 1143.4 1930.71 1143.68 Q1930.84 1143.93 1930.88 1144.01 L1942.8 1171.52 Q1943.75 1173.73 1944.89 1174.51 Q1946.04 1175.29 1948.62 1175.33 Q1949.03 1175.33 1949.2 1175.37 Q1949.4 1175.37 1949.69 1175.45 Q1950.02 1175.49 1950.14 1175.7 Q1950.31 1175.9 1950.31 1176.23 Q1950.31 1177.91 1948.79 1177.91 Q1947.85 1177.91 1944.65 1177.79 Q1941.45 1177.66 1940.55 1177.66 Q1938.87 1177.66 1935.43 1177.79 Q1931.98 1177.91 1930.3 1177.91 Q1929.11 1177.91 1929.11 1176.97 Q1929.11 1176.19 1929.4 1175.82 Q1929.73 1175.41 1930.02 1175.37 Q1930.3 1175.33 1930.96 1175.33 Q1931.45 1175.33 1931.98 1175.29 Q1932.56 1175.2 1933.38 1175 Q1934.24 1174.75 1934.77 1174.18 Q1935.34 1173.57 1935.34 1172.7 Q1935.34 1172.01 1934.32 1169.75 L1924.6 1147.17 L1912.1 1156.92 L1908.74 1170.12 Q1908.66 1170.61 1908.46 1171.47 Q1908.25 1172.34 1908.09 1172.95 Q1907.96 1173.57 1907.96 1173.81 Q1907.96 1174.34 1908.29 1174.67 Q1908.66 1175 1909.56 1175.16 Q1910.46 1175.29 1911.16 1175.33 Q1911.9 1175.33 1913.41 1175.33 Q1915.3 1175.33 1915.63 1175.66 Q1915.79 1175.86 1915.79 1176.23 Q1915.79 1176.8 1915.63 1177.21 Q1915.46 1177.58 1915.14 1177.71 Q1914.85 1177.83 1914.64 1177.87 Q1914.44 1177.91 1914.11 1177.91 Q1913.25 1177.91 1911.41 1177.83 Q1909.6 1177.75 1908.66 1177.75 L1903.29 1177.66 L1892.63 1177.91 Q1891.36 1177.91 1891.36 1176.89 Q1891.36 1176.11 1891.69 1175.78 Q1892.02 1175.41 1892.39 1175.37 Q1892.76 1175.33 1893.7 1175.33 Q1895.75 1175.33 1896.98 1175.2 Q1898.21 1175.08 1898.99 1174.92 Q1899.81 1174.71 1900.22 1174.14 Q1900.67 1173.57 1900.87 1173.07 Q1901.08 1172.54 1901.36 1171.35 L1912.6 1126.26 Q1912.92 1124.91 1912.92 1124.71 Q1912.92 1124.01 1912.51 1123.76 Q1912.14 1123.48 1911.08 1123.35 Q1909.03 1123.19 1907.47 1123.19 Q1906.45 1123.19 1906.04 1123.15 Q1905.67 1123.11 1905.34 1122.9 Q1905.05 1122.66 1905.05 1122.16 Q1905.05 1120.57 1906.73 1120.57 L1917.55 1120.81 L1928.29 1120.57 Q1929.48 1120.57 1929.48 1121.51 Q1929.48 1122.7 1928.91 1122.94 Q1928.38 1123.19 1926.61 1123.19 Q1923.54 1123.19 1922.15 1123.6 Q1920.79 1123.97 1920.38 1124.62 Q1920.01 1125.24 1919.56 1127.04 L1912.84 1153.97 L1945.59 1128.81 Q1948.62 1126.26 1948.62 1124.95 Q1948.62 1124.09 1948.01 1123.72 Q1947.44 1123.31 1946 1123.19 Q1944.98 1123.03 1944.98 1122.25 Q1944.98 1121.47 1945.26 1121.1 Q1945.59 1120.69 1945.84 1120.65 Q1946.12 1120.57 1946.58 1120.57 Q1948.09 1120.57 1951.25 1120.69 Q1954.4 1120.81 1955.92 1120.81 Q1956.95 1120.81 1958.95 1120.69 Q1960.96 1120.57 1961.86 1120.57 Q1962.32 1120.57 1962.56 1120.89 Q1962.81 1121.18 1962.81 1121.51 Z" fill="#000000" fill-rule="evenodd" fill-opacity="1" /><polyline clip-path="url(#clip713)" style="stroke:#000000; stroke-linecap:round; stroke-linejoin:round; stroke-width:2; stroke-opacity:0.1; fill:none" points="
  363.511,885.347 3489.76,885.347 
  "/>
<polyline clip-path="url(#clip713)" style="stroke:#000000; stroke-linecap:round; stroke-linejoin:round; stroke-width:2; stroke-opacity:0.1; fill:none" points="
  363.511,698.68 3489.76,698.68 
  "/>
<polyline clip-path="url(#clip713)" style="stroke:#000000; stroke-linecap:round; stroke-linejoin:round; stroke-width:2; stroke-opacity:0.1; fill:none" points="
  363.511,512.012 3489.76,512.012 
  "/>
<polyline clip-path="url(#clip713)" style="stroke:#000000; stroke-linecap:round; stroke-linejoin:round; stroke-width:2; stroke-opacity:0.1; fill:none" points="
  363.511,325.345 3489.76,325.345 
  "/>
<polyline clip-path="url(#clip713)" style="stroke:#000000; stroke-linecap:round; stroke-linejoin:round; stroke-width:2; stroke-opacity:0.1; fill:none" points="
  363.511,138.677 3489.76,138.677 
  "/>
<polyline clip-path="url(#clip710)" style="stroke:#000000; stroke-linecap:round; stroke-linejoin:round; stroke-width:4; stroke-opacity:1; fill:none" points="
  363.511,994.428 363.511,110.236 
  "/>
<polyline clip-path="url(#clip710)" style="stroke:#000000; stroke-linecap:round; stroke-linejoin:round; stroke-width:4; stroke-opacity:1; fill:none" points="
  3489.76,994.428 3489.76,110.236 
  "/>
<polyline clip-path="url(#clip710)" style="stroke:#000000; stroke-linecap:round; stroke-linejoin:round; stroke-width:4; stroke-opacity:1; fill:none" points="
  363.511,885.347 382.408,885.347 
  "/>
<polyline clip-path="url(#clip710)" style="stroke:#000000; stroke-linecap:round; stroke-linejoin:round; stroke-width:4; stroke-opacity:1; fill:none" points="
  363.511,698.68 382.408,698.68 
  "/>
<polyline clip-path="url(#clip710)" style="stroke:#000000; stroke-linecap:round; stroke-linejoin:round; stroke-width:4; stroke-opacity:1; fill:none" points="
  363.511,512.012 382.408,512.012 
  "/>
<polyline clip-path="url(#clip710)" style="stroke:#000000; stroke-linecap:round; stroke-linejoin:round; stroke-width:4; stroke-opacity:1; fill:none" points="
  363.511,325.345 382.408,325.345 
  "/>
<polyline clip-path="url(#clip710)" style="stroke:#000000; stroke-linecap:round; stroke-linejoin:round; stroke-width:4; stroke-opacity:1; fill:none" points="
  363.511,138.677 382.408,138.677 
  "/>
<path clip-path="url(#clip710)" d="M195.721 890.241 Q196.092 890.612 196.092 891.137 Q196.092 891.662 195.721 892.032 Q195.35 892.403 194.825 892.403 L155.238 892.403 Q154.713 892.403 154.343 892.032 Q153.972 891.662 153.972 891.137 Q153.972 890.612 154.343 890.241 Q154.713 889.871 155.238 889.871 L194.825 889.871 Q195.35 889.871 195.721 890.241 Z" fill="#000000" fill-rule="evenodd" fill-opacity="1" /><path clip-path="url(#clip710)" d="M202.082 886.721 Q202.082 877.427 204.429 872.362 Q207.702 864.828 215.422 864.828 Q217.058 864.828 218.757 865.291 Q220.486 865.723 222.648 867.422 Q224.84 869.12 226.168 871.899 Q228.7 877.272 228.7 886.721 Q228.7 895.954 226.353 900.987 Q222.926 908.337 215.36 908.337 Q212.519 908.337 209.617 906.885 Q206.745 905.434 204.923 901.945 Q202.082 896.726 202.082 886.721 M207.332 885.949 Q207.332 895.491 208.011 899.289 Q208.783 903.396 210.883 905.187 Q213.013 906.947 215.36 906.947 Q217.892 906.947 219.992 905.063 Q222.123 903.149 222.771 899.042 Q223.481 894.997 223.45 885.949 Q223.45 877.149 222.833 873.628 Q221.999 869.521 219.776 867.885 Q217.583 866.217 215.36 866.217 Q214.526 866.217 213.631 866.464 Q212.766 866.711 211.5 867.422 Q210.234 868.132 209.246 869.892 Q208.289 871.652 207.826 874.308 Q207.332 877.735 207.332 885.949 Z" fill="#000000" fill-rule="evenodd" fill-opacity="1" /><path clip-path="url(#clip710)" d="M237.562 905.928 Q236.605 904.909 236.605 903.581 Q236.605 902.253 237.562 901.296 Q238.52 900.308 239.971 900.308 Q241.36 900.308 242.287 901.234 Q243.244 902.13 243.244 903.612 Q243.244 905.063 242.225 906.021 Q241.237 906.947 239.971 906.947 Q238.52 906.947 237.562 905.928 Z" fill="#000000" fill-rule="evenodd" fill-opacity="1" /><path clip-path="url(#clip710)" d="M251.952 896.757 Q251.952 894.873 252.971 894.163 Q253.99 893.422 255.071 893.422 Q256.522 893.422 257.356 894.348 Q258.22 895.244 258.22 896.51 Q258.22 897.776 257.356 898.702 Q256.522 899.598 255.071 899.598 Q254.361 899.598 253.99 899.474 Q254.824 902.377 257.356 904.477 Q259.919 906.576 263.285 906.576 Q267.515 906.576 270.047 902.47 Q271.56 899.814 271.56 893.793 Q271.56 888.481 270.418 885.826 Q268.658 881.78 265.045 881.78 Q259.919 881.78 256.893 886.196 Q256.522 886.752 256.09 886.783 Q255.472 886.783 255.318 886.443 Q255.194 886.073 255.194 885.115 L255.194 866.403 Q255.194 864.89 255.812 864.89 Q256.059 864.89 256.584 865.075 Q260.567 866.835 264.983 866.866 Q269.522 866.866 273.598 865.013 Q273.907 864.828 274.092 864.828 Q274.71 864.828 274.741 865.538 Q274.741 865.785 274.216 866.526 Q273.722 867.236 272.641 868.194 Q271.56 869.12 270.171 870.016 Q268.781 870.911 266.743 871.529 Q264.736 872.115 262.513 872.115 Q259.857 872.115 257.14 871.282 L257.14 883.602 Q260.413 880.391 265.168 880.391 Q270.232 880.391 273.722 884.467 Q277.211 888.543 277.211 894.225 Q277.211 900.185 273.073 904.261 Q268.966 908.337 263.408 908.337 Q258.344 908.337 255.133 904.724 Q251.952 901.111 251.952 896.757 Z" fill="#000000" fill-rule="evenodd" fill-opacity="1" /><path clip-path="url(#clip710)" d="M282.893 886.721 Q282.893 877.427 285.24 872.362 Q288.513 864.828 296.233 864.828 Q297.869 864.828 299.568 865.291 Q301.297 865.723 303.458 867.422 Q305.651 869.12 306.979 871.899 Q309.511 877.272 309.511 886.721 Q309.511 895.954 307.164 900.987 Q303.736 908.337 296.171 908.337 Q293.33 908.337 290.427 906.885 Q287.556 905.434 285.734 901.945 Q282.893 896.726 282.893 886.721 M288.142 885.949 Q288.142 895.491 288.822 899.289 Q289.594 903.396 291.694 905.187 Q293.824 906.947 296.171 906.947 Q298.703 906.947 300.803 905.063 Q302.934 903.149 303.582 899.042 Q304.292 894.997 304.261 885.949 Q304.261 877.149 303.644 873.628 Q302.81 869.521 300.587 867.885 Q298.394 866.217 296.171 866.217 Q295.337 866.217 294.442 866.464 Q293.577 866.711 292.311 867.422 Q291.045 868.132 290.057 869.892 Q289.1 871.652 288.636 874.308 Q288.142 877.735 288.142 885.949 Z" fill="#000000" fill-rule="evenodd" fill-opacity="1" /><path clip-path="url(#clip710)" d="M196.4 703.574 Q196.771 703.944 196.771 704.469 Q196.771 704.994 196.4 705.365 Q196.03 705.735 195.505 705.735 L155.918 705.735 Q155.393 705.735 155.022 705.365 Q154.652 704.994 154.652 704.469 Q154.652 703.944 155.022 703.574 Q155.393 703.203 155.918 703.203 L195.505 703.203 Q196.03 703.203 196.4 703.574 Z" fill="#000000" fill-rule="evenodd" fill-opacity="1" /><path clip-path="url(#clip710)" d="M202.761 700.054 Q202.761 690.759 205.108 685.695 Q208.381 678.16 216.101 678.16 Q217.738 678.16 219.436 678.624 Q221.165 679.056 223.327 680.754 Q225.519 682.453 226.847 685.232 Q229.379 690.605 229.379 700.054 Q229.379 709.287 227.032 714.32 Q223.605 721.669 216.039 721.669 Q213.199 721.669 210.296 720.218 Q207.424 718.767 205.602 715.277 Q202.761 710.059 202.761 700.054 M208.011 699.282 Q208.011 708.823 208.69 712.622 Q209.462 716.728 211.562 718.519 Q213.693 720.28 216.039 720.28 Q218.572 720.28 220.671 718.396 Q222.802 716.481 223.45 712.375 Q224.161 708.329 224.13 699.282 Q224.13 690.481 223.512 686.961 Q222.679 682.854 220.455 681.217 Q218.263 679.55 216.039 679.55 Q215.206 679.55 214.31 679.797 Q213.446 680.044 212.18 680.754 Q210.914 681.464 209.925 683.225 Q208.968 684.985 208.505 687.64 Q208.011 691.068 208.011 699.282 Z" fill="#000000" fill-rule="evenodd" fill-opacity="1" /><path clip-path="url(#clip710)" d="M238.242 719.261 Q237.284 718.242 237.284 716.914 Q237.284 715.586 238.242 714.629 Q239.199 713.641 240.65 713.641 Q242.04 713.641 242.966 714.567 Q243.923 715.462 243.923 716.945 Q243.923 718.396 242.904 719.353 Q241.916 720.28 240.65 720.28 Q239.199 720.28 238.242 719.261 Z" fill="#000000" fill-rule="evenodd" fill-opacity="1" /><path clip-path="url(#clip710)" d="M252.631 720.28 Q252.631 719.137 252.724 718.797 Q252.847 718.458 253.342 717.933 L265.477 704.408 Q272.116 696.935 272.116 690.419 Q272.116 686.189 269.893 683.163 Q267.7 680.137 263.655 680.137 Q260.876 680.137 258.529 681.835 Q256.182 683.533 255.102 686.56 Q255.287 686.498 255.935 686.498 Q257.51 686.498 258.375 687.486 Q259.27 688.474 259.27 689.802 Q259.27 691.5 258.159 692.334 Q257.078 693.137 255.997 693.137 Q255.565 693.137 254.978 693.044 Q254.422 692.951 253.527 692.087 Q252.631 691.191 252.631 689.617 Q252.631 685.201 255.966 681.681 Q259.332 678.16 264.458 678.16 Q270.263 678.16 274.061 681.619 Q277.891 685.046 277.891 690.419 Q277.891 692.303 277.304 694.032 Q276.748 695.731 275.976 697.058 Q275.235 698.386 273.197 700.517 Q271.159 702.648 269.522 704.161 Q267.886 705.674 264.211 708.885 L257.51 715.401 L268.905 715.401 Q274.463 715.401 274.895 714.907 Q275.513 714.011 276.285 709.287 L277.891 709.287 L276.1 720.28 L252.631 720.28 Z" fill="#000000" fill-rule="evenodd" fill-opacity="1" /><path clip-path="url(#clip710)" d="M284.252 710.089 Q284.252 708.206 285.271 707.496 Q286.29 706.755 287.37 706.755 Q288.822 706.755 289.655 707.681 Q290.52 708.576 290.52 709.842 Q290.52 711.108 289.655 712.035 Q288.822 712.93 287.37 712.93 Q286.66 712.93 286.29 712.807 Q287.123 715.709 289.655 717.809 Q292.218 719.909 295.584 719.909 Q299.815 719.909 302.347 715.802 Q303.86 713.146 303.86 707.125 Q303.86 701.814 302.717 699.158 Q300.957 695.113 297.344 695.113 Q292.218 695.113 289.192 699.529 Q288.822 700.085 288.389 700.115 Q287.772 700.115 287.617 699.776 Q287.494 699.405 287.494 698.448 L287.494 679.735 Q287.494 678.222 288.112 678.222 Q288.359 678.222 288.884 678.407 Q292.867 680.168 297.283 680.198 Q301.822 680.198 305.898 678.346 Q306.207 678.16 306.392 678.16 Q307.01 678.16 307.04 678.871 Q307.04 679.118 306.516 679.859 Q306.021 680.569 304.941 681.526 Q303.86 682.453 302.47 683.348 Q301.081 684.244 299.043 684.861 Q297.036 685.448 294.812 685.448 Q292.157 685.448 289.439 684.614 L289.439 696.935 Q292.713 693.723 297.468 693.723 Q302.532 693.723 306.021 697.8 Q309.511 701.876 309.511 707.557 Q309.511 713.517 305.373 717.593 Q301.266 721.669 295.708 721.669 Q290.644 721.669 287.432 718.056 Q284.252 714.443 284.252 710.089 Z" fill="#000000" fill-rule="evenodd" fill-opacity="1" /><path clip-path="url(#clip710)" d="M202.082 513.386 Q202.082 504.092 204.429 499.027 Q207.702 491.493 215.422 491.493 Q217.058 491.493 218.757 491.956 Q220.486 492.388 222.648 494.087 Q224.84 495.785 226.168 498.564 Q228.7 503.937 228.7 513.386 Q228.7 522.619 226.353 527.652 Q222.926 535.002 215.36 535.002 Q212.519 535.002 209.617 533.55 Q206.745 532.099 204.923 528.61 Q202.082 523.391 202.082 513.386 M207.332 512.614 Q207.332 522.156 208.011 525.954 Q208.783 530.061 210.883 531.852 Q213.013 533.612 215.36 533.612 Q217.892 533.612 219.992 531.729 Q222.123 529.814 222.771 525.707 Q223.481 521.662 223.45 512.614 Q223.45 503.814 222.833 500.293 Q221.999 496.187 219.776 494.55 Q217.583 492.882 215.36 492.882 Q214.526 492.882 213.631 493.13 Q212.766 493.377 211.5 494.087 Q210.234 494.797 209.246 496.557 Q208.289 498.317 207.826 500.973 Q207.332 504.4 207.332 512.614 Z" fill="#000000" fill-rule="evenodd" fill-opacity="1" /><path clip-path="url(#clip710)" d="M237.562 532.593 Q236.605 531.574 236.605 530.246 Q236.605 528.918 237.562 527.961 Q238.52 526.973 239.971 526.973 Q241.36 526.973 242.287 527.899 Q243.244 528.795 243.244 530.277 Q243.244 531.729 242.225 532.686 Q241.237 533.612 239.971 533.612 Q238.52 533.612 237.562 532.593 Z" fill="#000000" fill-rule="evenodd" fill-opacity="1" /><path clip-path="url(#clip710)" d="M251.273 513.386 Q251.273 504.092 253.619 499.027 Q256.893 491.493 264.612 491.493 Q266.249 491.493 267.947 491.956 Q269.677 492.388 271.838 494.087 Q274.031 495.785 275.358 498.564 Q277.891 503.937 277.891 513.386 Q277.891 522.619 275.544 527.652 Q272.116 535.002 264.551 535.002 Q261.71 535.002 258.807 533.55 Q255.935 532.099 254.114 528.61 Q251.273 523.391 251.273 513.386 M256.522 512.614 Q256.522 522.156 257.201 525.954 Q257.973 530.061 260.073 531.852 Q262.204 533.612 264.551 533.612 Q267.083 533.612 269.183 531.729 Q271.313 529.814 271.962 525.707 Q272.672 521.662 272.641 512.614 Q272.641 503.814 272.023 500.293 Q271.19 496.187 268.966 494.55 Q266.774 492.882 264.551 492.882 Q263.717 492.882 262.821 493.13 Q261.957 493.377 260.691 494.087 Q259.425 494.797 258.437 496.557 Q257.479 498.317 257.016 500.973 Q256.522 504.4 256.522 512.614 Z" fill="#000000" fill-rule="evenodd" fill-opacity="1" /><path clip-path="url(#clip710)" d="M282.893 513.386 Q282.893 504.092 285.24 499.027 Q288.513 491.493 296.233 491.493 Q297.869 491.493 299.568 491.956 Q301.297 492.388 303.458 494.087 Q305.651 495.785 306.979 498.564 Q309.511 503.937 309.511 513.386 Q309.511 522.619 307.164 527.652 Q303.736 535.002 296.171 535.002 Q293.33 535.002 290.427 533.55 Q287.556 532.099 285.734 528.61 Q282.893 523.391 282.893 513.386 M288.142 512.614 Q288.142 522.156 288.822 525.954 Q289.594 530.061 291.694 531.852 Q293.824 533.612 296.171 533.612 Q298.703 533.612 300.803 531.729 Q302.934 529.814 303.582 525.707 Q304.292 521.662 304.261 512.614 Q304.261 503.814 303.644 500.293 Q302.81 496.187 300.587 494.55 Q298.394 492.882 296.171 492.882 Q295.337 492.882 294.442 493.13 Q293.577 493.377 292.311 494.087 Q291.045 494.797 290.057 496.557 Q289.1 498.317 288.636 500.973 Q288.142 504.4 288.142 512.614 Z" fill="#000000" fill-rule="evenodd" fill-opacity="1" /><path clip-path="url(#clip710)" d="M202.761 326.719 Q202.761 317.424 205.108 312.36 Q208.381 304.825 216.101 304.825 Q217.738 304.825 219.436 305.289 Q221.165 305.721 223.327 307.419 Q225.519 309.118 226.847 311.897 Q229.379 317.27 229.379 326.719 Q229.379 335.952 227.032 340.985 Q223.605 348.334 216.039 348.334 Q213.199 348.334 210.296 346.883 Q207.424 345.432 205.602 341.942 Q202.761 336.724 202.761 326.719 M208.011 325.947 Q208.011 335.488 208.69 339.287 Q209.462 343.394 211.562 345.185 Q213.693 346.945 216.039 346.945 Q218.572 346.945 220.671 345.061 Q222.802 343.147 223.45 339.04 Q224.161 334.994 224.13 325.947 Q224.13 317.146 223.512 313.626 Q222.679 309.519 220.455 307.882 Q218.263 306.215 216.039 306.215 Q215.206 306.215 214.31 306.462 Q213.446 306.709 212.18 307.419 Q210.914 308.13 209.925 309.89 Q208.968 311.65 208.505 314.305 Q208.011 317.733 208.011 325.947 Z" fill="#000000" fill-rule="evenodd" fill-opacity="1" /><path clip-path="url(#clip710)" d="M238.242 345.926 Q237.284 344.907 237.284 343.579 Q237.284 342.251 238.242 341.294 Q239.199 340.306 240.65 340.306 Q242.04 340.306 242.966 341.232 Q243.923 342.128 243.923 343.61 Q243.923 345.061 242.904 346.018 Q241.916 346.945 240.65 346.945 Q239.199 346.945 238.242 345.926 Z" fill="#000000" fill-rule="evenodd" fill-opacity="1" /><path clip-path="url(#clip710)" d="M252.631 346.945 Q252.631 345.802 252.724 345.462 Q252.847 345.123 253.342 344.598 L265.477 331.073 Q272.116 323.6 272.116 317.084 Q272.116 312.854 269.893 309.828 Q267.7 306.802 263.655 306.802 Q260.876 306.802 258.529 308.5 Q256.182 310.198 255.102 313.225 Q255.287 313.163 255.935 313.163 Q257.51 313.163 258.375 314.151 Q259.27 315.139 259.27 316.467 Q259.27 318.165 258.159 318.999 Q257.078 319.802 255.997 319.802 Q255.565 319.802 254.978 319.709 Q254.422 319.617 253.527 318.752 Q252.631 317.856 252.631 316.282 Q252.631 311.866 255.966 308.346 Q259.332 304.825 264.458 304.825 Q270.263 304.825 274.061 308.284 Q277.891 311.712 277.891 317.084 Q277.891 318.968 277.304 320.697 Q276.748 322.396 275.976 323.724 Q275.235 325.051 273.197 327.182 Q271.159 329.313 269.522 330.826 Q267.886 332.339 264.211 335.55 L257.51 342.066 L268.905 342.066 Q274.463 342.066 274.895 341.572 Q275.513 340.676 276.285 335.952 L277.891 335.952 L276.1 346.945 L252.631 346.945 Z" fill="#000000" fill-rule="evenodd" fill-opacity="1" /><path clip-path="url(#clip710)" d="M284.252 336.755 Q284.252 334.871 285.271 334.161 Q286.29 333.42 287.37 333.42 Q288.822 333.42 289.655 334.346 Q290.52 335.241 290.52 336.508 Q290.52 337.774 289.655 338.7 Q288.822 339.595 287.37 339.595 Q286.66 339.595 286.29 339.472 Q287.123 342.375 289.655 344.474 Q292.218 346.574 295.584 346.574 Q299.815 346.574 302.347 342.467 Q303.86 339.812 303.86 333.79 Q303.86 328.479 302.717 325.823 Q300.957 321.778 297.344 321.778 Q292.218 321.778 289.192 326.194 Q288.822 326.75 288.389 326.781 Q287.772 326.781 287.617 326.441 Q287.494 326.07 287.494 325.113 L287.494 306.4 Q287.494 304.887 288.112 304.887 Q288.359 304.887 288.884 305.072 Q292.867 306.833 297.283 306.863 Q301.822 306.863 305.898 305.011 Q306.207 304.825 306.392 304.825 Q307.01 304.825 307.04 305.536 Q307.04 305.783 306.516 306.524 Q306.021 307.234 304.941 308.191 Q303.86 309.118 302.47 310.013 Q301.081 310.909 299.043 311.526 Q297.036 312.113 294.812 312.113 Q292.157 312.113 289.439 311.279 L289.439 323.6 Q292.713 320.389 297.468 320.389 Q302.532 320.389 306.021 324.465 Q309.511 328.541 309.511 334.222 Q309.511 340.182 305.373 344.258 Q301.266 348.334 295.708 348.334 Q290.644 348.334 287.432 344.721 Q284.252 341.109 284.252 336.755 Z" fill="#000000" fill-rule="evenodd" fill-opacity="1" /><path clip-path="url(#clip710)" d="M202.082 140.051 Q202.082 130.757 204.429 125.693 Q207.702 118.158 215.422 118.158 Q217.058 118.158 218.757 118.621 Q220.486 119.053 222.648 120.752 Q224.84 122.45 226.168 125.229 Q228.7 130.602 228.7 140.051 Q228.7 149.284 226.353 154.318 Q222.926 161.667 215.36 161.667 Q212.519 161.667 209.617 160.215 Q206.745 158.764 204.923 155.275 Q202.082 150.056 202.082 140.051 M207.332 139.279 Q207.332 148.821 208.011 152.619 Q208.783 156.726 210.883 158.517 Q213.013 160.277 215.36 160.277 Q217.892 160.277 219.992 158.394 Q222.123 156.479 222.771 152.372 Q223.481 148.327 223.45 139.279 Q223.45 130.479 222.833 126.959 Q221.999 122.852 219.776 121.215 Q217.583 119.548 215.36 119.548 Q214.526 119.548 213.631 119.795 Q212.766 120.042 211.5 120.752 Q210.234 121.462 209.246 123.222 Q208.289 124.982 207.826 127.638 Q207.332 131.065 207.332 139.279 Z" fill="#000000" fill-rule="evenodd" fill-opacity="1" /><path clip-path="url(#clip710)" d="M237.562 159.258 Q236.605 158.239 236.605 156.911 Q236.605 155.584 237.562 154.626 Q238.52 153.638 239.971 153.638 Q241.36 153.638 242.287 154.565 Q243.244 155.46 243.244 156.942 Q243.244 158.394 242.225 159.351 Q241.237 160.277 239.971 160.277 Q238.52 160.277 237.562 159.258 Z" fill="#000000" fill-rule="evenodd" fill-opacity="1" /><path clip-path="url(#clip710)" d="M251.952 150.087 Q251.952 148.203 252.971 147.493 Q253.99 146.752 255.071 146.752 Q256.522 146.752 257.356 147.679 Q258.22 148.574 258.22 149.84 Q258.22 151.106 257.356 152.032 Q256.522 152.928 255.071 152.928 Q254.361 152.928 253.99 152.804 Q254.824 155.707 257.356 157.807 Q259.919 159.907 263.285 159.907 Q267.515 159.907 270.047 155.8 Q271.56 153.144 271.56 147.123 Q271.56 141.811 270.418 139.156 Q268.658 135.111 265.045 135.111 Q259.919 135.111 256.893 139.526 Q256.522 140.082 256.09 140.113 Q255.472 140.113 255.318 139.773 Q255.194 139.403 255.194 138.446 L255.194 119.733 Q255.194 118.22 255.812 118.22 Q256.059 118.22 256.584 118.405 Q260.567 120.165 264.983 120.196 Q269.522 120.196 273.598 118.343 Q273.907 118.158 274.092 118.158 Q274.71 118.158 274.741 118.868 Q274.741 119.115 274.216 119.856 Q273.722 120.567 272.641 121.524 Q271.56 122.45 270.171 123.346 Q268.781 124.241 266.743 124.859 Q264.736 125.445 262.513 125.445 Q259.857 125.445 257.14 124.612 L257.14 136.933 Q260.413 133.721 265.168 133.721 Q270.232 133.721 273.722 137.797 Q277.211 141.873 277.211 147.555 Q277.211 153.515 273.073 157.591 Q268.966 161.667 263.408 161.667 Q258.344 161.667 255.133 158.054 Q251.952 154.441 251.952 150.087 Z" fill="#000000" fill-rule="evenodd" fill-opacity="1" /><path clip-path="url(#clip710)" d="M282.893 140.051 Q282.893 130.757 285.24 125.693 Q288.513 118.158 296.233 118.158 Q297.869 118.158 299.568 118.621 Q301.297 119.053 303.458 120.752 Q305.651 122.45 306.979 125.229 Q309.511 130.602 309.511 140.051 Q309.511 149.284 307.164 154.318 Q303.736 161.667 296.171 161.667 Q293.33 161.667 290.427 160.215 Q287.556 158.764 285.734 155.275 Q282.893 150.056 282.893 140.051 M288.142 139.279 Q288.142 148.821 288.822 152.619 Q289.594 156.726 291.694 158.517 Q293.824 160.277 296.171 160.277 Q298.703 160.277 300.803 158.394 Q302.934 156.479 303.582 152.372 Q304.292 148.327 304.261 139.279 Q304.261 130.479 303.644 126.959 Q302.81 122.852 300.587 121.215 Q298.394 119.548 296.171 119.548 Q295.337 119.548 294.442 119.795 Q293.577 120.042 292.311 120.752 Q291.045 121.462 290.057 123.222 Q289.1 124.982 288.636 127.638 Q288.142 131.065 288.142 139.279 Z" fill="#000000" fill-rule="evenodd" fill-opacity="1" /><path clip-path="url(#clip710)" d="M80.1441 795.691 Q80.9229 795.691 81.3328 796.019 Q81.7017 796.306 81.7837 796.593 Q81.8247 796.839 81.8247 797.208 Q81.8247 798.274 81.7017 801.963 Q81.5787 805.652 81.5787 806.717 Q81.5787 808.439 81.7017 811.964 Q81.8247 815.489 81.8247 817.211 Q81.8247 818.358 80.8819 818.358 Q80.2671 818.358 79.9392 818.235 Q79.5703 818.112 79.4473 817.784 Q79.2833 817.416 79.2833 817.211 Q79.2423 816.965 79.2423 816.35 Q79.2423 815.53 79.1604 814.669 Q79.0374 813.808 78.7915 812.743 Q78.5455 811.677 77.9307 811.021 Q77.3159 810.324 76.4551 810.324 Q76.0862 810.324 73.053 810.611 Q70.0198 810.898 66.4947 811.267 Q62.9286 811.636 62.4367 811.677 L62.4367 832.745 Q65.7569 834.672 68.0523 836.025 Q70.3477 837.377 71.1265 837.869 Q71.9053 838.361 72.3971 838.648 Q72.889 838.935 73.1759 839.099 Q75.3484 840.288 76.2911 840.288 Q78.9144 840.288 79.2423 836.353 Q79.2423 835 80.2261 835 Q80.9639 835 81.3738 835.328 Q81.7427 835.656 81.7837 835.943 Q81.8247 836.189 81.8247 836.598 Q81.8247 837.951 81.7017 840.779 Q81.5787 843.608 81.5787 845.001 Q81.5787 846.19 81.7017 848.649 Q81.8247 851.109 81.8247 852.215 Q81.8247 852.707 81.5377 852.994 Q81.2508 853.281 80.8819 853.281 Q80.3081 853.281 79.9802 853.199 Q79.6522 853.076 79.4883 852.748 Q79.3243 852.42 79.3243 852.256 Q79.2833 852.092 79.2423 851.519 Q79.0374 848.403 77.5618 845.985 Q76.0452 843.526 72.1512 841.189 L23.128 812.005 Q22.6362 811.718 22.3902 811.513 Q22.1443 811.308 21.9393 810.898 Q21.7344 810.447 21.7344 809.792 Q21.7344 808.767 22.0623 808.562 Q22.3492 808.357 23.7429 808.234 L76.2091 803.11 Q77.3159 802.987 77.7667 802.905 Q78.1766 802.782 78.6275 802.249 Q79.0374 801.676 79.1604 800.651 Q79.2423 799.585 79.2423 797.618 Q79.2423 796.88 79.2833 796.593 Q79.2833 796.306 79.4883 796.019 Q79.6932 795.691 80.1441 795.691 M59.8134 811.923 L32.1457 814.587 L59.8134 831.147 L59.8134 811.923 Z" fill="#000000" fill-rule="evenodd" fill-opacity="1" /><path clip-path="url(#clip710)" d="M66.963 728.421 Q67.7951 728.421 67.9673 728.794 Q68.1394 729.138 68.1394 730.286 Q68.1394 731.634 68.2542 732.466 Q68.3403 733.298 68.4837 733.815 Q68.5985 734.331 69.0002 734.647 Q69.4019 734.934 69.7462 735.049 Q70.0618 735.163 70.8365 735.364 L102.14 743.169 Q103.202 743.456 103.575 743.456 Q103.948 743.456 104.177 743.226 Q104.407 742.968 104.521 742.337 Q104.608 741.705 104.636 741.218 Q104.636 740.701 104.636 739.639 Q104.636 738.32 104.866 738.119 Q105.009 738.004 105.268 738.004 Q105.813 738.004 106.1 738.234 Q106.358 738.463 106.415 738.664 Q106.444 738.836 106.444 739.123 Q106.444 740.328 106.358 742.796 Q106.272 745.263 106.272 746.468 L106.444 753.756 Q106.444 754.617 105.727 754.617 Q105.181 754.617 104.952 754.387 Q104.694 754.158 104.665 753.9 Q104.636 753.641 104.636 752.981 Q104.636 750.629 104.378 749.624 Q104.12 748.592 103.661 748.305 Q103.173 747.989 101.853 747.645 L68.1968 739.238 L68.1968 739.295 L105.382 763.024 L105.641 763.196 Q105.87 763.368 105.956 763.426 Q106.014 763.483 106.186 763.655 Q106.329 763.799 106.387 763.971 Q106.444 764.114 106.444 764.315 Q106.444 764.659 106.214 764.86 Q105.985 765.032 105.813 765.09 Q105.612 765.118 105.095 765.204 L68.6559 770.254 L68.6559 770.312 L100.677 778.317 Q101.566 778.546 102.025 778.546 Q103.202 778.546 103.919 777.714 Q104.608 776.854 104.636 774.558 Q104.636 773.497 105.268 773.497 Q106.444 773.497 106.444 774.558 Q106.444 775.534 106.358 777.571 Q106.272 779.608 106.272 780.612 Q106.272 781.588 106.358 783.568 Q106.444 785.519 106.444 786.466 Q106.444 787.298 105.727 787.298 Q104.636 787.298 104.636 786.236 Q104.579 784.515 104.235 783.338 Q103.89 782.162 103.23 781.502 Q102.57 780.813 101.91 780.498 Q101.222 780.153 100.218 779.895 L70.2913 772.435 Q69.3445 772.205 69.201 772.205 Q68.7133 772.205 68.5411 772.492 Q68.3403 772.751 68.2542 773.497 Q68.1394 774.931 68.1394 776.022 Q68.1394 776.739 68.1107 777.026 Q68.082 777.284 67.9386 777.514 Q67.7664 777.714 67.4221 777.714 Q66.8769 777.714 66.6474 777.485 Q66.3892 777.227 66.3605 776.94 Q66.3031 776.653 66.3031 775.964 L66.3031 767.902 Q66.3031 766.725 66.5039 766.467 Q66.6761 766.209 67.6516 766.094 L100.906 761.503 L67.4221 740.041 Q66.59 739.496 66.4466 739.209 Q66.3031 738.922 66.3031 737.774 L66.3031 729.999 Q66.3031 729.368 66.3318 729.109 Q66.3605 728.851 66.5039 728.65 Q66.6474 728.421 66.963 728.421 Z" fill="#000000" fill-rule="evenodd" fill-opacity="1" /><path clip-path="url(#clip710)" d="M65.6145 683.503 L80.592 687.204 Q81.5388 687.462 81.6536 687.634 Q81.7683 687.778 81.7683 688.237 Q81.7683 689.126 81.1658 689.126 Q81.1084 689.126 80.3624 689.04 Q79.5877 688.954 78.1818 688.954 Q72.9884 688.954 69.9183 691.479 Q66.8483 693.975 66.8483 698.423 Q66.8483 702.268 68.7993 706.141 Q70.7504 709.986 73.9353 712.74 Q76.3455 714.806 79.3869 716.327 Q82.4283 717.819 85.2114 718.536 Q87.9946 719.225 90.0892 719.541 Q92.1837 719.856 93.7044 719.856 Q95.9137 719.856 97.7788 719.397 Q99.6438 718.909 100.964 718.048 Q102.255 717.188 103.259 716.097 Q104.235 714.978 104.808 713.687 Q105.382 712.367 105.669 711.048 Q105.927 709.728 105.927 708.35 Q105.927 702.813 101.624 697.533 Q98.0944 693.344 92.3272 691.594 Q91.7533 691.451 91.7533 690.848 Q91.7533 690.131 92.3272 690.131 Q92.442 690.131 93.0158 690.274 Q93.561 690.418 94.68 690.848 Q95.7703 691.278 97.0041 691.938 Q98.2378 692.598 99.7872 693.832 Q101.337 695.066 102.685 696.587 Q104.923 699.169 106.329 702.44 Q107.735 705.711 107.735 709.297 Q107.735 713.773 105.755 717.389 Q103.775 721.004 100.074 723.127 Q96.3728 725.222 91.6386 725.222 Q86.6461 725.222 81.7397 722.926 Q76.8332 720.631 73.1893 716.987 Q69.5453 713.343 67.2786 708.523 Q65.0119 703.702 65.0119 698.882 Q65.0119 697.046 65.4997 695.41 Q65.9875 693.775 66.59 692.799 Q67.1926 691.795 68.082 690.905 Q68.9428 690.016 69.3445 689.729 Q69.7462 689.413 70.234 689.126 L65.7292 685.023 Q65.0119 684.306 65.0119 684.134 Q65.0119 683.79 65.2128 683.646 Q65.4136 683.503 65.6145 683.503 Z" fill="#000000" fill-rule="evenodd" fill-opacity="1" /><path clip-path="url(#clip710)" d="M101.622 674.663 Q101.213 674.663 100.311 674.335 L21.1196 644.7 Q21.0376 644.7 20.5867 644.495 Q20.1358 644.29 19.8489 644.167 Q19.521 644.044 19.275 643.798 Q19.0291 643.511 19.0291 643.183 Q19.0291 642.363 20.0538 642.363 Q20.1358 642.363 21.1196 642.609 L100.393 672.326 Q101.827 672.818 102.237 673.146 Q102.647 673.433 102.647 673.925 Q102.647 674.663 101.622 674.663 Z" fill="#000000" fill-rule="evenodd" fill-opacity="1" /><path clip-path="url(#clip710)" d="M80.1441 575.506 Q80.9229 575.506 81.3328 575.834 Q81.7017 576.121 81.7837 576.408 Q81.8247 576.654 81.8247 577.023 Q81.8247 578.089 81.7017 581.778 Q81.5787 585.467 81.5787 586.533 Q81.5787 588.254 81.7017 591.779 Q81.8247 595.304 81.8247 597.026 Q81.8247 598.173 80.8819 598.173 Q80.2671 598.173 79.9392 598.051 Q79.5703 597.928 79.4473 597.6 Q79.2833 597.231 79.2833 597.026 Q79.2423 596.78 79.2423 596.165 Q79.2423 595.345 79.1604 594.484 Q79.0374 593.624 78.7915 592.558 Q78.5455 591.492 77.9307 590.836 Q77.3159 590.14 76.4551 590.14 Q76.0862 590.14 73.053 590.426 Q70.0198 590.713 66.4947 591.082 Q62.9286 591.451 62.4367 591.492 L62.4367 612.561 Q65.7569 614.487 68.0523 615.84 Q70.3477 617.192 71.1265 617.684 Q71.9053 618.176 72.3971 618.463 Q72.889 618.75 73.1759 618.914 Q75.3484 620.103 76.2911 620.103 Q78.9144 620.103 79.2423 616.168 Q79.2423 614.815 80.2261 614.815 Q80.9639 614.815 81.3738 615.143 Q81.7427 615.471 81.7837 615.758 Q81.8247 616.004 81.8247 616.414 Q81.8247 617.766 81.7017 620.595 Q81.5787 623.423 81.5787 624.817 Q81.5787 626.005 81.7017 628.465 Q81.8247 630.924 81.8247 632.031 Q81.8247 632.522 81.5377 632.809 Q81.2508 633.096 80.8819 633.096 Q80.3081 633.096 79.9802 633.014 Q79.6522 632.891 79.4883 632.563 Q79.3243 632.236 79.3243 632.072 Q79.2833 631.908 79.2423 631.334 Q79.0374 628.219 77.5618 625.8 Q76.0452 623.341 72.1512 621.004 L23.128 591.82 Q22.6362 591.533 22.3902 591.328 Q22.1443 591.123 21.9393 590.713 Q21.7344 590.263 21.7344 589.607 Q21.7344 588.582 22.0623 588.377 Q22.3492 588.172 23.7429 588.049 L76.2091 582.925 Q77.3159 582.802 77.7667 582.721 Q78.1766 582.598 78.6275 582.065 Q79.0374 581.491 79.1604 580.466 Q79.2423 579.4 79.2423 577.433 Q79.2423 576.695 79.2833 576.408 Q79.2833 576.121 79.4883 575.834 Q79.6932 575.506 80.1441 575.506 M59.8134 591.738 L32.1457 594.402 L59.8134 610.962 L59.8134 591.738 Z" fill="#000000" fill-rule="evenodd" fill-opacity="1" /><path clip-path="url(#clip710)" d="M67.2158 524.505 L77.3729 525.681 Q78.2911 525.767 78.578 525.91 Q78.8362 526.054 78.8362 526.513 Q78.8362 526.857 78.6354 527.058 Q78.4059 527.23 78.1476 527.23 Q78.0042 527.23 77.6312 527.202 Q77.2582 527.173 77.086 527.173 Q75.3071 526.915 73.9585 526.915 Q71.4623 526.915 70.1137 527.661 Q68.7365 528.407 68.1052 530.329 Q67.4453 532.252 67.4453 535.867 L67.4453 544.13 Q67.4453 546.024 67.7896 546.483 Q68.1339 546.913 69.7407 547.315 L83.8861 550.844 L83.8861 545.307 Q83.8861 543.241 83.6279 542.007 Q83.3697 540.744 82.6523 539.912 Q81.9063 539.052 80.9021 538.593 Q79.8979 538.105 78.0902 537.617 Q77.4877 537.474 77.2582 537.33 Q77.0286 537.158 77.0286 536.785 Q77.0286 536.498 77.2295 536.297 Q77.4016 536.096 77.6598 536.096 L91.4036 539.453 Q92.0922 539.625 92.3504 539.798 Q92.5799 539.97 92.5799 540.314 Q92.5799 540.687 92.3791 540.888 Q92.1782 541.089 91.9487 541.089 Q91.7192 541.089 91.2888 540.917 Q89.4238 540.486 88.4195 540.486 Q87.8457 540.486 87.5588 540.544 Q87.2718 540.572 86.8701 540.831 Q86.4397 541.06 86.2389 541.577 Q86.0381 542.093 85.8946 543.069 Q85.7224 544.044 85.7224 545.507 L85.7224 551.303 L101.762 555.32 Q102.823 555.607 103.11 555.607 Q103.426 555.607 103.54 555.464 Q103.627 555.292 103.684 554.833 Q103.77 554.316 103.77 553.541 L103.77 544.962 Q103.77 543.069 103.598 541.548 Q103.426 540.027 102.995 538.765 Q102.565 537.474 102.077 536.498 Q101.589 535.522 100.7 534.604 Q99.7818 533.686 98.9784 533.055 Q98.1463 532.395 96.7404 531.62 Q95.3344 530.846 94.1867 530.3 Q93.0103 529.755 91.1166 528.923 Q90.428 528.694 90.428 528.148 Q90.428 527.833 90.6002 527.661 Q90.7436 527.489 90.8871 527.46 L91.0592 527.46 Q91.6044 527.632 91.8913 527.747 L104.573 533.141 Q105.291 533.457 105.434 533.715 Q105.578 533.973 105.578 534.977 L105.578 565.477 Q105.578 566.166 105.549 566.453 Q105.52 566.711 105.377 566.912 Q105.205 567.113 104.86 567.113 Q104.315 567.113 104.086 566.883 Q103.827 566.654 103.799 566.396 Q103.77 566.137 103.77 565.477 Q103.77 564.043 103.684 563.182 Q103.598 562.321 103.483 561.776 Q103.34 561.202 102.938 560.915 Q102.536 560.6 102.192 560.456 Q101.819 560.313 100.987 560.112 L69.9129 552.365 Q68.8512 552.078 68.5069 552.078 Q68.1339 552.078 67.9044 552.336 Q67.6749 552.566 67.5888 553.197 Q67.474 553.828 67.474 554.345 Q67.4453 554.833 67.4453 555.894 Q67.4453 556.583 67.4166 556.87 Q67.3879 557.128 67.2445 557.329 Q67.101 557.53 66.7854 557.53 Q65.982 557.53 65.8098 557.185 Q65.609 556.812 65.609 555.779 L65.609 526.111 Q65.609 524.935 65.8672 524.677 Q66.0968 524.39 67.2158 524.505 Z" fill="#000000" fill-rule="evenodd" fill-opacity="1" /><path clip-path="url(#clip710)" d="M83.4844 492.795 Q85.0912 492.795 86.0094 493.8 Q86.8988 494.804 86.8988 495.952 Q86.8988 497.042 86.2676 497.616 Q85.6364 498.19 84.833 498.19 Q83.7427 498.19 82.7958 497.386 Q81.8489 496.583 81.6481 495.378 Q80.9021 496.554 80.9021 498.304 Q80.9021 499.452 81.5046 500.456 Q82.1072 501.432 82.8819 502.034 Q83.6566 502.608 84.7756 503.125 Q85.8659 503.612 86.5258 503.813 Q87.1571 503.985 87.8457 504.129 L95.8796 506.137 Q99.6957 507.113 101.044 507.113 Q102.708 507.113 103.827 506.31 Q104.918 505.506 104.918 503.899 Q104.918 503.268 104.746 502.551 Q104.545 501.834 104.028 500.915 Q103.483 499.969 102.68 499.136 Q101.848 498.276 100.442 497.444 Q99.0358 496.611 97.2281 496.066 Q96.5969 495.894 96.5969 495.32 Q96.5969 494.603 97.1707 494.603 Q97.6585 494.603 98.6914 495.005 Q99.6957 495.378 101.016 496.21 Q102.307 497.013 103.483 498.075 Q104.631 499.136 105.434 500.715 Q106.238 502.293 106.238 504.014 Q106.238 506.482 104.918 508.117 Q103.598 509.753 101.762 510.355 Q102.02 510.499 102.364 510.7 Q102.708 510.9 103.483 511.503 Q104.229 512.077 104.803 512.737 Q105.348 513.397 105.778 514.43 Q106.238 515.434 106.238 516.524 Q106.238 517.901 105.836 519.135 Q105.434 520.34 104.516 521.201 Q103.598 522.062 102.335 522.062 Q100.929 522.062 99.9539 521.115 Q98.9497 520.139 98.9497 518.819 Q98.9497 517.987 99.4374 517.327 Q99.9252 516.639 100.987 516.639 Q102.163 516.639 103.053 517.442 Q103.942 518.246 104.172 519.393 Q104.918 518.217 104.918 516.467 Q104.918 514.573 103.254 513.081 Q101.589 511.589 98.8062 510.872 Q92.1209 509.093 89.1368 508.404 Q86.1241 507.715 84.833 507.715 Q83.6279 507.715 82.7958 508.031 Q81.9637 508.347 81.5907 508.892 Q81.189 509.408 81.0456 509.896 Q80.9021 510.355 80.9021 510.872 Q80.9021 511.732 81.2464 512.708 Q81.5907 513.655 82.3941 514.803 Q83.1688 515.922 84.7756 516.983 Q86.3824 518.045 88.5917 518.762 Q89.2516 518.906 89.2516 519.537 Q89.2229 520.225 88.6491 520.225 Q88.1613 520.225 87.1571 519.852 Q86.1241 519.451 84.833 518.647 Q83.5418 517.815 82.3941 516.754 Q81.2177 515.663 80.4143 514.085 Q79.6109 512.478 79.6109 510.757 Q79.6109 509.982 79.7831 509.236 Q79.9266 508.461 80.3569 507.543 Q80.7873 506.596 81.7342 505.764 Q82.681 504.932 84.0583 504.416 Q83.3983 504.072 82.7671 503.612 Q82.1359 503.125 81.3612 502.379 Q80.5578 501.604 80.0987 500.542 Q79.6109 499.452 79.6109 498.247 Q79.6109 497.071 79.9266 495.923 Q80.2135 494.775 81.1603 493.8 Q82.0785 492.795 83.4844 492.795 Z" fill="#000000" fill-rule="evenodd" fill-opacity="1" /><path clip-path="url(#clip710)" d="M97.1707 461.771 Q100.872 462.546 102.995 463.55 Q106.238 465.157 106.238 467.882 Q106.238 469.948 104.975 471.411 Q103.713 472.875 101.819 473.219 Q106.238 476.978 106.238 480.88 Q106.238 484.323 103.627 486.504 Q100.987 488.684 96.8264 488.684 Q92.6373 488.684 88.6204 486.619 Q84.6034 484.524 82.1072 481.224 Q79.6109 477.925 79.6109 474.539 Q79.6109 470.952 83.3697 469.116 Q82.3367 468.973 81.562 468.313 Q80.7873 467.653 80.7873 466.649 Q80.7873 465.874 81.2177 465.415 Q81.6194 464.956 82.3654 464.956 Q82.7384 464.956 84.3739 465.357 L92.5799 467.481 L97.8881 468.772 Q99.8391 469.26 100.556 469.403 Q101.274 469.518 102.221 469.518 Q104.918 469.518 104.918 467.768 Q104.918 466.907 104.373 466.218 Q103.827 465.53 102.68 464.984 Q101.532 464.439 100.47 464.095 Q99.3801 463.751 97.6585 463.292 Q96.9699 463.148 96.7977 463.033 Q96.5969 462.89 96.5969 462.488 Q96.5969 461.771 97.1707 461.771 M86.0667 469.833 Q85.8085 469.833 85.0912 470.034 Q84.3739 470.235 83.3697 470.694 Q82.3654 471.153 81.6481 472.158 Q80.9021 473.133 80.9021 474.453 Q80.9021 476.232 82.4228 478.097 Q83.9435 479.933 86.5258 481.282 Q88.5917 482.315 92.9243 483.434 Q97.2568 484.524 99.4088 484.524 Q100.729 484.524 101.905 484.237 Q103.053 483.921 104 483.032 Q104.918 482.142 104.918 480.765 Q104.918 477.408 100.757 474.109 Q100.04 473.477 99.7531 473.334 Q99.4374 473.162 98.5767 472.932 L87.071 470.006 Q86.2102 469.833 86.0667 469.833 Z" fill="#000000" fill-rule="evenodd" fill-opacity="1" /><path clip-path="url(#clip710)" d="M98.7775 435.273 Q99.0358 435.044 99.294 435.044 Q99.5522 435.044 100.298 435.617 Q101.044 436.163 102.048 437.339 Q103.053 438.515 104 440.036 Q104.946 441.557 105.578 443.795 Q106.238 446.033 106.238 448.386 Q106.238 452.775 103.34 455.358 Q100.442 457.911 96.2813 457.911 Q92.2356 457.911 88.3621 455.645 Q84.46 453.378 82.0498 449.705 Q79.6109 446.033 79.6109 442.159 Q79.6109 439.089 81.0456 437.167 Q82.4802 435.244 84.6608 435.244 Q86.3537 435.244 87.3866 436.22 Q88.4195 437.195 88.4195 438.515 Q88.4195 439.433 87.9031 440.065 Q87.3579 440.696 86.3537 440.696 Q85.0625 440.696 84.0583 439.634 Q83.6566 439.233 83.4844 438.774 Q83.2836 438.286 83.2836 437.999 Q83.2549 437.712 83.2549 437.052 Q82.1359 437.655 81.5333 439.089 Q80.9021 440.495 80.9021 442.102 Q80.9021 444.483 82.5663 446.75 Q84.2017 449.017 86.7841 450.394 Q89.309 451.771 92.8956 452.661 Q96.4534 453.55 98.5193 453.55 Q101.36 453.55 103.139 452.23 Q104.918 450.91 104.918 448.271 Q104.918 447.754 104.889 447.209 Q104.86 446.635 104.545 445.201 Q104.229 443.737 103.684 442.446 Q103.139 441.155 101.962 439.52 Q100.757 437.855 99.1218 436.536 Q98.5193 436.076 98.5193 435.761 Q98.5193 435.503 98.7775 435.273 Z" fill="#000000" fill-rule="evenodd" fill-opacity="1" /><path clip-path="url(#clip710)" d="M80.9021 416.1 Q81.7055 416.1 81.9063 416.473 Q82.0785 416.846 82.0785 417.879 L82.0785 423.388 L99.4088 427.749 Q100.929 428.093 102.221 428.093 Q103.655 428.093 104.286 427.663 Q104.918 427.204 104.918 426.257 Q104.918 424.392 103.225 422.383 Q101.532 420.346 97.4003 418.625 Q96.8551 418.395 96.7404 418.28 Q96.5969 418.137 96.5969 417.764 Q96.5969 417.047 97.1707 417.047 Q97.3716 417.047 98.2897 417.448 Q99.2079 417.821 100.556 418.653 Q101.905 419.457 103.167 420.518 Q104.43 421.551 105.348 423.129 Q106.238 424.708 106.238 426.4 Q106.238 428.782 104.717 430.303 Q103.196 431.795 100.815 431.795 Q100.04 431.795 97.5724 431.192 Q95.0762 430.589 82.0785 427.319 L82.0785 432.512 Q82.0785 433.229 82.0498 433.516 Q82.0211 433.774 81.8776 433.975 Q81.7055 434.147 81.3612 434.147 Q80.816 434.147 80.5865 433.918 Q80.3282 433.688 80.2996 433.401 Q80.2422 433.086 80.2422 432.368 L80.2422 426.859 L70.9171 424.564 Q69.9989 424.335 69.4825 423.761 Q68.9373 423.158 68.8799 422.814 Q68.7939 422.47 68.7939 422.211 Q68.7939 421.437 69.2243 420.978 Q69.6259 420.518 70.372 420.518 Q70.7736 420.518 80.2422 422.929 L80.2422 417.764 Q80.2422 417.104 80.2709 416.846 Q80.2996 416.559 80.443 416.329 Q80.5865 416.1 80.9021 416.1 Z" fill="#000000" fill-rule="evenodd" fill-opacity="1" /><path clip-path="url(#clip710)" d="M59.6495 325.483 Q60.1413 324.991 60.8382 324.991 Q61.535 324.991 62.0269 325.483 Q62.5187 325.975 62.5187 326.672 L62.5187 379.22 Q62.5187 379.917 62.0269 380.409 Q61.535 380.901 60.8382 380.901 Q60.1413 380.901 59.6495 380.409 Q59.1576 379.917 59.1576 379.22 L59.1576 326.672 Q59.1576 325.975 59.6495 325.483 Z" fill="#000000" fill-rule="evenodd" fill-opacity="1" /><path clip-path="url(#clip710)" d="M33.9082 292.949 L31.2849 292.949 Q31.2849 282.866 25.9153 277.66 Q25.9153 276.226 26.2432 275.98 Q26.5711 275.734 28.0877 275.734 L75.1844 275.734 Q77.6848 275.734 78.4636 274.504 Q79.2423 273.274 79.2423 267.905 L79.2423 265.24 L81.8247 265.24 Q81.5787 268.192 81.5787 278.849 Q81.5787 289.506 81.8247 292.416 L79.2423 292.416 L79.2423 289.752 Q79.2423 284.464 78.5045 283.194 Q77.7257 281.923 75.1844 281.923 L31.6948 281.923 Q33.9082 286.309 33.9082 292.949 Z" fill="#000000" fill-rule="evenodd" fill-opacity="1" /><polyline clip-path="url(#clip713)" style="stroke:#009af9; stroke-linecap:round; stroke-linejoin:round; stroke-width:8; stroke-opacity:1; fill:none" points="
  451.99,560.061 607.216,504.032 762.442,616.585 917.668,462.795 1072.89,490.804 1228.12,503.863 1383.35,475.147 1538.57,462.609 1693.8,482.02 1849.02,509.724 
  2004.25,521.307 2159.48,524.546 2314.7,495.389 2469.93,502.583 2625.15,515.016 2780.38,498.707 2935.61,521.291 3090.83,512.829 3246.06,524.393 3401.28,514.79 
  
  "/>
<circle clip-path="url(#clip713)" cx="451.99" cy="560.061" r="18" fill="#009af9" fill-rule="evenodd" fill-opacity="1" stroke="#000000" stroke-opacity="1" stroke-width="3.6"/>
<circle clip-path="url(#clip713)" cx="607.216" cy="504.032" r="18" fill="#009af9" fill-rule="evenodd" fill-opacity="1" stroke="#000000" stroke-opacity="1" stroke-width="3.6"/>
<circle clip-path="url(#clip713)" cx="762.442" cy="616.585" r="18" fill="#009af9" fill-rule="evenodd" fill-opacity="1" stroke="#000000" stroke-opacity="1" stroke-width="3.6"/>
<circle clip-path="url(#clip713)" cx="917.668" cy="462.795" r="18" fill="#009af9" fill-rule="evenodd" fill-opacity="1" stroke="#000000" stroke-opacity="1" stroke-width="3.6"/>
<circle clip-path="url(#clip713)" cx="1072.89" cy="490.804" r="18" fill="#009af9" fill-rule="evenodd" fill-opacity="1" stroke="#000000" stroke-opacity="1" stroke-width="3.6"/>
<circle clip-path="url(#clip713)" cx="1228.12" cy="503.863" r="18" fill="#009af9" fill-rule="evenodd" fill-opacity="1" stroke="#000000" stroke-opacity="1" stroke-width="3.6"/>
<circle clip-path="url(#clip713)" cx="1383.35" cy="475.147" r="18" fill="#009af9" fill-rule="evenodd" fill-opacity="1" stroke="#000000" stroke-opacity="1" stroke-width="3.6"/>
<circle clip-path="url(#clip713)" cx="1538.57" cy="462.609" r="18" fill="#009af9" fill-rule="evenodd" fill-opacity="1" stroke="#000000" stroke-opacity="1" stroke-width="3.6"/>
<circle clip-path="url(#clip713)" cx="1693.8" cy="482.02" r="18" fill="#009af9" fill-rule="evenodd" fill-opacity="1" stroke="#000000" stroke-opacity="1" stroke-width="3.6"/>
<circle clip-path="url(#clip713)" cx="1849.02" cy="509.724" r="18" fill="#009af9" fill-rule="evenodd" fill-opacity="1" stroke="#000000" stroke-opacity="1" stroke-width="3.6"/>
<circle clip-path="url(#clip713)" cx="2004.25" cy="521.307" r="18" fill="#009af9" fill-rule="evenodd" fill-opacity="1" stroke="#000000" stroke-opacity="1" stroke-width="3.6"/>
<circle clip-path="url(#clip713)" cx="2159.48" cy="524.546" r="18" fill="#009af9" fill-rule="evenodd" fill-opacity="1" stroke="#000000" stroke-opacity="1" stroke-width="3.6"/>
<circle clip-path="url(#clip713)" cx="2314.7" cy="495.389" r="18" fill="#009af9" fill-rule="evenodd" fill-opacity="1" stroke="#000000" stroke-opacity="1" stroke-width="3.6"/>
<circle clip-path="url(#clip713)" cx="2469.93" cy="502.583" r="18" fill="#009af9" fill-rule="evenodd" fill-opacity="1" stroke="#000000" stroke-opacity="1" stroke-width="3.6"/>
<circle clip-path="url(#clip713)" cx="2625.15" cy="515.016" r="18" fill="#009af9" fill-rule="evenodd" fill-opacity="1" stroke="#000000" stroke-opacity="1" stroke-width="3.6"/>
<circle clip-path="url(#clip713)" cx="2780.38" cy="498.707" r="18" fill="#009af9" fill-rule="evenodd" fill-opacity="1" stroke="#000000" stroke-opacity="1" stroke-width="3.6"/>
<circle clip-path="url(#clip713)" cx="2935.61" cy="521.291" r="18" fill="#009af9" fill-rule="evenodd" fill-opacity="1" stroke="#000000" stroke-opacity="1" stroke-width="3.6"/>
<circle clip-path="url(#clip713)" cx="3090.83" cy="512.829" r="18" fill="#009af9" fill-rule="evenodd" fill-opacity="1" stroke="#000000" stroke-opacity="1" stroke-width="3.6"/>
<circle clip-path="url(#clip713)" cx="3246.06" cy="524.393" r="18" fill="#009af9" fill-rule="evenodd" fill-opacity="1" stroke="#000000" stroke-opacity="1" stroke-width="3.6"/>
<circle clip-path="url(#clip713)" cx="3401.28" cy="514.79" r="18" fill="#009af9" fill-rule="evenodd" fill-opacity="1" stroke="#000000" stroke-opacity="1" stroke-width="3.6"/>
<polyline clip-path="url(#clip713)" style="stroke:#000000; stroke-linecap:round; stroke-linejoin:round; stroke-width:6; stroke-opacity:1; fill:none" points="
  451.99,969.403 451.99,150.719 
  "/>
<polyline clip-path="url(#clip713)" style="stroke:#000000; stroke-linecap:round; stroke-linejoin:round; stroke-width:6; stroke-opacity:1; fill:none" points="
  607.216,872.803 607.216,135.261 
  "/>
<polyline clip-path="url(#clip713)" style="stroke:#000000; stroke-linecap:round; stroke-linejoin:round; stroke-width:6; stroke-opacity:1; fill:none" points="
  762.442,909.732 762.442,323.439 
  "/>
<polyline clip-path="url(#clip713)" style="stroke:#000000; stroke-linecap:round; stroke-linejoin:round; stroke-width:6; stroke-opacity:1; fill:none" points="
  917.668,646.615 917.668,278.975 
  "/>
<polyline clip-path="url(#clip713)" style="stroke:#000000; stroke-linecap:round; stroke-linejoin:round; stroke-width:6; stroke-opacity:1; fill:none" points="
  1072.89,686.824 1072.89,294.784 
  "/>
<polyline clip-path="url(#clip713)" style="stroke:#000000; stroke-linecap:round; stroke-linejoin:round; stroke-width:6; stroke-opacity:1; fill:none" points="
  1228.12,672.352 1228.12,335.374 
  "/>
<polyline clip-path="url(#clip713)" style="stroke:#000000; stroke-linecap:round; stroke-linejoin:round; stroke-width:6; stroke-opacity:1; fill:none" points="
  1383.35,596.532 1383.35,353.762 
  "/>
<polyline clip-path="url(#clip713)" style="stroke:#000000; stroke-linecap:round; stroke-linejoin:round; stroke-width:6; stroke-opacity:1; fill:none" points="
  1538.57,590.674 1538.57,334.544 
  "/>
<polyline clip-path="url(#clip713)" style="stroke:#000000; stroke-linecap:round; stroke-linejoin:round; stroke-width:6; stroke-opacity:1; fill:none" points="
  1693.8,617.722 1693.8,346.318 
  "/>
<polyline clip-path="url(#clip713)" style="stroke:#000000; stroke-linecap:round; stroke-linejoin:round; stroke-width:6; stroke-opacity:1; fill:none" points="
  1849.02,634.133 1849.02,385.316 
  "/>
<polyline clip-path="url(#clip713)" style="stroke:#000000; stroke-linecap:round; stroke-linejoin:round; stroke-width:6; stroke-opacity:1; fill:none" points="
  2004.25,637.256 2004.25,405.359 
  "/>
<polyline clip-path="url(#clip713)" style="stroke:#000000; stroke-linecap:round; stroke-linejoin:round; stroke-width:6; stroke-opacity:1; fill:none" points="
  2159.48,633.642 2159.48,415.451 
  "/>
<polyline clip-path="url(#clip713)" style="stroke:#000000; stroke-linecap:round; stroke-linejoin:round; stroke-width:6; stroke-opacity:1; fill:none" points="
  2314.7,598.108 2314.7,392.669 
  "/>
<polyline clip-path="url(#clip713)" style="stroke:#000000; stroke-linecap:round; stroke-linejoin:round; stroke-width:6; stroke-opacity:1; fill:none" points="
  2469.93,616.351 2469.93,388.814 
  "/>
<polyline clip-path="url(#clip713)" style="stroke:#000000; stroke-linecap:round; stroke-linejoin:round; stroke-width:6; stroke-opacity:1; fill:none" points="
  2625.15,613.612 2625.15,416.42 
  "/>
<polyline clip-path="url(#clip713)" style="stroke:#000000; stroke-linecap:round; stroke-linejoin:round; stroke-width:6; stroke-opacity:1; fill:none" points="
  2780.38,599.603 2780.38,397.811 
  "/>
<polyline clip-path="url(#clip713)" style="stroke:#000000; stroke-linecap:round; stroke-linejoin:round; stroke-width:6; stroke-opacity:1; fill:none" points="
  2935.61,605.787 2935.61,436.795 
  "/>
<polyline clip-path="url(#clip713)" style="stroke:#000000; stroke-linecap:round; stroke-linejoin:round; stroke-width:6; stroke-opacity:1; fill:none" points="
  3090.83,597.527 3090.83,428.131 
  "/>
<polyline clip-path="url(#clip713)" style="stroke:#000000; stroke-linecap:round; stroke-linejoin:round; stroke-width:6; stroke-opacity:1; fill:none" points="
  3246.06,596.121 3246.06,452.665 
  "/>
<polyline clip-path="url(#clip713)" style="stroke:#000000; stroke-linecap:round; stroke-linejoin:round; stroke-width:6; stroke-opacity:1; fill:none" points="
  3401.28,575.33 3401.28,454.249 
  "/>
<line clip-path="url(#clip713)" x1="471.99" y1="969.403" x2="431.99" y2="969.403" style="stroke:#000000; stroke-width:3.6; stroke-opacity:1"/>
<line clip-path="url(#clip713)" x1="471.99" y1="150.719" x2="431.99" y2="150.719" style="stroke:#000000; stroke-width:3.6; stroke-opacity:1"/>
<line clip-path="url(#clip713)" x1="627.216" y1="872.803" x2="587.216" y2="872.803" style="stroke:#000000; stroke-width:3.6; stroke-opacity:1"/>
<line clip-path="url(#clip713)" x1="627.216" y1="135.261" x2="587.216" y2="135.261" style="stroke:#000000; stroke-width:3.6; stroke-opacity:1"/>
<line clip-path="url(#clip713)" x1="782.442" y1="909.732" x2="742.442" y2="909.732" style="stroke:#000000; stroke-width:3.6; stroke-opacity:1"/>
<line clip-path="url(#clip713)" x1="782.442" y1="323.439" x2="742.442" y2="323.439" style="stroke:#000000; stroke-width:3.6; stroke-opacity:1"/>
<line clip-path="url(#clip713)" x1="937.668" y1="646.615" x2="897.668" y2="646.615" style="stroke:#000000; stroke-width:3.6; stroke-opacity:1"/>
<line clip-path="url(#clip713)" x1="937.668" y1="278.975" x2="897.668" y2="278.975" style="stroke:#000000; stroke-width:3.6; stroke-opacity:1"/>
<line clip-path="url(#clip713)" x1="1092.89" y1="686.824" x2="1052.89" y2="686.824" style="stroke:#000000; stroke-width:3.6; stroke-opacity:1"/>
<line clip-path="url(#clip713)" x1="1092.89" y1="294.784" x2="1052.89" y2="294.784" style="stroke:#000000; stroke-width:3.6; stroke-opacity:1"/>
<line clip-path="url(#clip713)" x1="1248.12" y1="672.352" x2="1208.12" y2="672.352" style="stroke:#000000; stroke-width:3.6; stroke-opacity:1"/>
<line clip-path="url(#clip713)" x1="1248.12" y1="335.374" x2="1208.12" y2="335.374" style="stroke:#000000; stroke-width:3.6; stroke-opacity:1"/>
<line clip-path="url(#clip713)" x1="1403.35" y1="596.532" x2="1363.35" y2="596.532" style="stroke:#000000; stroke-width:3.6; stroke-opacity:1"/>
<line clip-path="url(#clip713)" x1="1403.35" y1="353.762" x2="1363.35" y2="353.762" style="stroke:#000000; stroke-width:3.6; stroke-opacity:1"/>
<line clip-path="url(#clip713)" x1="1558.57" y1="590.674" x2="1518.57" y2="590.674" style="stroke:#000000; stroke-width:3.6; stroke-opacity:1"/>
<line clip-path="url(#clip713)" x1="1558.57" y1="334.544" x2="1518.57" y2="334.544" style="stroke:#000000; stroke-width:3.6; stroke-opacity:1"/>
<line clip-path="url(#clip713)" x1="1713.8" y1="617.722" x2="1673.8" y2="617.722" style="stroke:#000000; stroke-width:3.6; stroke-opacity:1"/>
<line clip-path="url(#clip713)" x1="1713.8" y1="346.318" x2="1673.8" y2="346.318" style="stroke:#000000; stroke-width:3.6; stroke-opacity:1"/>
<line clip-path="url(#clip713)" x1="1869.02" y1="634.133" x2="1829.02" y2="634.133" style="stroke:#000000; stroke-width:3.6; stroke-opacity:1"/>
<line clip-path="url(#clip713)" x1="1869.02" y1="385.316" x2="1829.02" y2="385.316" style="stroke:#000000; stroke-width:3.6; stroke-opacity:1"/>
<line clip-path="url(#clip713)" x1="2024.25" y1="637.256" x2="1984.25" y2="637.256" style="stroke:#000000; stroke-width:3.6; stroke-opacity:1"/>
<line clip-path="url(#clip713)" x1="2024.25" y1="405.359" x2="1984.25" y2="405.359" style="stroke:#000000; stroke-width:3.6; stroke-opacity:1"/>
<line clip-path="url(#clip713)" x1="2179.48" y1="633.642" x2="2139.48" y2="633.642" style="stroke:#000000; stroke-width:3.6; stroke-opacity:1"/>
<line clip-path="url(#clip713)" x1="2179.48" y1="415.451" x2="2139.48" y2="415.451" style="stroke:#000000; stroke-width:3.6; stroke-opacity:1"/>
<line clip-path="url(#clip713)" x1="2334.7" y1="598.108" x2="2294.7" y2="598.108" style="stroke:#000000; stroke-width:3.6; stroke-opacity:1"/>
<line clip-path="url(#clip713)" x1="2334.7" y1="392.669" x2="2294.7" y2="392.669" style="stroke:#000000; stroke-width:3.6; stroke-opacity:1"/>
<line clip-path="url(#clip713)" x1="2489.93" y1="616.351" x2="2449.93" y2="616.351" style="stroke:#000000; stroke-width:3.6; stroke-opacity:1"/>
<line clip-path="url(#clip713)" x1="2489.93" y1="388.814" x2="2449.93" y2="388.814" style="stroke:#000000; stroke-width:3.6; stroke-opacity:1"/>
<line clip-path="url(#clip713)" x1="2645.15" y1="613.612" x2="2605.15" y2="613.612" style="stroke:#000000; stroke-width:3.6; stroke-opacity:1"/>
<line clip-path="url(#clip713)" x1="2645.15" y1="416.42" x2="2605.15" y2="416.42" style="stroke:#000000; stroke-width:3.6; stroke-opacity:1"/>
<line clip-path="url(#clip713)" x1="2800.38" y1="599.603" x2="2760.38" y2="599.603" style="stroke:#000000; stroke-width:3.6; stroke-opacity:1"/>
<line clip-path="url(#clip713)" x1="2800.38" y1="397.811" x2="2760.38" y2="397.811" style="stroke:#000000; stroke-width:3.6; stroke-opacity:1"/>
<line clip-path="url(#clip713)" x1="2955.61" y1="605.787" x2="2915.61" y2="605.787" style="stroke:#000000; stroke-width:3.6; stroke-opacity:1"/>
<line clip-path="url(#clip713)" x1="2955.61" y1="436.795" x2="2915.61" y2="436.795" style="stroke:#000000; stroke-width:3.6; stroke-opacity:1"/>
<line clip-path="url(#clip713)" x1="3110.83" y1="597.527" x2="3070.83" y2="597.527" style="stroke:#000000; stroke-width:3.6; stroke-opacity:1"/>
<line clip-path="url(#clip713)" x1="3110.83" y1="428.131" x2="3070.83" y2="428.131" style="stroke:#000000; stroke-width:3.6; stroke-opacity:1"/>
<line clip-path="url(#clip713)" x1="3266.06" y1="596.121" x2="3226.06" y2="596.121" style="stroke:#000000; stroke-width:3.6; stroke-opacity:1"/>
<line clip-path="url(#clip713)" x1="3266.06" y1="452.665" x2="3226.06" y2="452.665" style="stroke:#000000; stroke-width:3.6; stroke-opacity:1"/>
<line clip-path="url(#clip713)" x1="3421.28" y1="575.33" x2="3381.28" y2="575.33" style="stroke:#000000; stroke-width:3.6; stroke-opacity:1"/>
<line clip-path="url(#clip713)" x1="3421.28" y1="454.249" x2="3381.28" y2="454.249" style="stroke:#000000; stroke-width:3.6; stroke-opacity:1"/>
<path clip-path="url(#clip710)" d="
M2742.94 263.455 L3467.51 263.455 L3467.51 133.855 L2742.94 133.855  Z
  " fill="#ffffff" fill-rule="evenodd" fill-opacity="1"/>
<polyline clip-path="url(#clip710)" style="stroke:#000000; stroke-linecap:round; stroke-linejoin:round; stroke-width:4; stroke-opacity:1; fill:none" points="
  2742.94,263.455 3467.51,263.455 3467.51,133.855 2742.94,133.855 2742.94,263.455 
  "/>
<polyline clip-path="url(#clip710)" style="stroke:#009af9; stroke-linecap:round; stroke-linejoin:round; stroke-width:5; stroke-opacity:1; fill:none" points="
  2777.67,198.655 2986.09,198.655 
  "/>
<circle clip-path="url(#clip710)" cx="2881.88" cy="198.655" r="23.1574" fill="#009af9" fill-rule="evenodd" fill-opacity="1" stroke="#000000" stroke-opacity="1" stroke-width="5.76"/>
<path clip-path="url(#clip710)" d="M3071.3 172.912 Q3071.3 174.112 3070.28 174.112 Q3066.97 174.229 3065.62 175.342 Q3064.3 176.425 3063.81 178.533 L3055.43 211.939 Q3055.14 212.993 3054.96 213.111 Q3054.79 213.198 3054.47 213.198 Q3054.06 213.198 3053.82 212.993 Q3053.62 212.788 3053.32 212.056 L3038.39 176.747 Q3038.28 176.513 3038.13 176.191 Q3037.98 175.869 3037.87 175.664 L3029.93 207.313 Q3029.7 208.221 3029.7 208.69 Q3029.7 209.831 3030.49 210.563 Q3031.31 211.266 3033.65 211.354 Q3034.85 211.354 3034.85 211.998 Q3034.85 213.198 3033.77 213.198 Q3032.77 213.198 3030.69 213.111 Q3028.61 213.023 3027.59 213.023 Q3026.59 213.023 3024.57 213.111 Q3022.55 213.198 3021.59 213.198 Q3020.83 213.198 3020.83 212.525 Q3020.83 211.998 3021.03 211.734 Q3021.24 211.442 3021.41 211.412 Q3021.59 211.354 3021.85 211.354 Q3023.61 211.295 3024.81 210.944 Q3026.01 210.593 3026.68 209.919 Q3027.38 209.246 3027.71 208.572 Q3028.06 207.87 3028.32 206.845 L3036.34 174.639 Q3036.34 174.112 3032.27 174.112 Q3031.57 174.112 3031.28 174.083 Q3031.01 174.054 3030.81 173.907 Q3030.6 173.761 3030.6 173.439 Q3030.6 172.619 3030.96 172.443 Q3031.31 172.238 3032.33 172.238 L3040.38 172.238 Q3041.41 172.238 3041.67 172.414 Q3041.94 172.56 3042.29 173.38 L3055.55 204.678 L3062.25 178.006 Q3062.43 177.479 3062.43 176.747 Q3062.43 175.576 3061.55 174.873 Q3060.7 174.141 3058.36 174.112 Q3057.28 174.112 3057.28 173.439 Q3057.28 172.882 3057.48 172.619 Q3057.72 172.326 3057.89 172.297 Q3058.1 172.238 3058.36 172.238 Q3059.36 172.238 3061.41 172.326 Q3063.45 172.414 3064.48 172.414 Q3065.47 172.414 3067.5 172.326 Q3069.54 172.238 3070.54 172.238 Q3070.89 172.238 3071.07 172.414 Q3071.27 172.56 3071.3 172.736 L3071.3 172.912 Z" fill="#000000" fill-rule="evenodd" fill-opacity="1" /><path clip-path="url(#clip710)" d="M3111.61 218.218 Q3111.61 218.382 3111.42 219.018 Q3111.24 219.653 3110.79 220.637 Q3110.36 221.621 3109.74 222.522 Q3109.15 223.404 3108.16 224.059 Q3107.2 224.695 3106.09 224.695 Q3104.62 224.695 3103.64 223.711 Q3102.65 222.727 3102.65 221.252 Q3102.65 220.452 3103.21 218.936 Q3105.81 212.009 3105.81 209.529 Q3105.81 206.598 3103.53 206.598 Q3102.24 206.598 3101.07 207.131 Q3099.91 207.664 3099.15 208.401 Q3098.39 209.139 3097.79 209.98 Q3097.2 210.82 3096.93 211.373 Q3096.69 211.927 3096.63 212.172 L3094.11 222.297 Q3093.9 223.158 3093.76 223.568 Q3093.61 223.977 3093.22 224.326 Q3092.83 224.695 3092.22 224.695 Q3091.71 224.695 3091.34 224.387 Q3090.99 224.08 3090.99 223.547 Q3090.99 223.465 3091.09 223.035 Q3091.2 222.604 3091.34 222.01 Q3091.48 221.416 3091.54 221.067 Q3092.28 218.28 3092.38 217.89 L3093.55 213.013 Q3094.19 210.594 3094.19 209.529 Q3094.19 206.598 3091.91 206.598 Q3090.79 206.598 3089.72 207.028 Q3088.67 207.438 3087.96 208.012 Q3087.24 208.586 3086.58 209.385 Q3085.95 210.164 3085.62 210.697 Q3085.31 211.209 3085.07 211.722 L3084.53 213.812 Q3084.41 214.386 3083.82 216.62 L3082.9 220.411 Q3082.24 223.24 3082.1 223.506 Q3081.89 224.08 3081.44 224.387 Q3080.99 224.695 3080.54 224.695 Q3080.03 224.695 3079.68 224.387 Q3079.33 224.08 3079.33 223.547 Q3079.33 223.465 3079.39 223.158 Q3079.45 222.85 3079.55 222.42 Q3079.66 221.989 3079.7 221.743 L3082.14 212.05 Q3082.59 210.287 3082.69 209.734 Q3082.81 209.16 3082.81 208.524 Q3082.81 206.598 3081.5 206.598 Q3080.44 206.598 3079.74 207.869 Q3079.04 209.139 3078.45 211.599 Q3078.26 212.275 3078.14 212.418 Q3078.04 212.562 3077.73 212.562 Q3077.22 212.541 3077.22 212.132 Q3077.22 212.029 3077.38 211.373 Q3077.55 210.717 3077.85 209.734 Q3078.18 208.729 3078.53 208.074 Q3078.73 207.643 3078.92 207.356 Q3079.1 207.069 3079.47 206.618 Q3079.84 206.168 3080.39 205.922 Q3080.95 205.676 3081.62 205.676 Q3083.12 205.676 3084.23 206.639 Q3085.35 207.602 3085.5 209.324 Q3088.22 205.676 3092.04 205.676 Q3094.19 205.676 3095.48 206.762 Q3096.69 207.807 3096.83 209.734 Q3099.66 205.676 3103.68 205.676 Q3105.99 205.676 3107.24 206.885 Q3108.49 208.074 3108.49 210.164 Q3108.49 211.25 3107.94 213.32 Q3107.39 215.37 3107.02 216.394 Q3106.65 217.419 3105.93 219.387 Q3105.17 221.272 3105.17 222.379 Q3105.17 223.096 3105.42 223.424 Q3105.66 223.752 3106.2 223.752 Q3107.02 223.752 3107.73 223.281 Q3108.45 222.789 3108.96 221.989 Q3109.5 221.17 3109.85 220.35 Q3110.19 219.51 3110.46 218.567 Q3110.62 218.054 3110.71 217.931 Q3110.81 217.809 3111.1 217.809 Q3111.61 217.809 3111.61 218.218 Z" fill="#000000" fill-rule="evenodd" fill-opacity="1" /><path clip-path="url(#clip710)" d="M3130.56 219.366 Q3130.72 219.551 3130.72 219.735 Q3130.72 219.919 3130.31 220.452 Q3129.92 220.985 3129.08 221.702 Q3128.24 222.42 3127.16 223.096 Q3126.07 223.772 3124.47 224.223 Q3122.87 224.695 3121.19 224.695 Q3118.06 224.695 3116.21 222.625 Q3114.39 220.555 3114.39 217.583 Q3114.39 214.693 3116.01 211.927 Q3117.63 209.139 3120.25 207.418 Q3122.87 205.676 3125.64 205.676 Q3127.83 205.676 3129.21 206.7 Q3130.58 207.725 3130.58 209.283 Q3130.58 210.492 3129.88 211.23 Q3129.19 211.968 3128.24 211.968 Q3127.59 211.968 3127.14 211.599 Q3126.69 211.209 3126.69 210.492 Q3126.69 209.57 3127.44 208.852 Q3127.73 208.565 3128.06 208.442 Q3128.41 208.299 3128.61 208.299 Q3128.82 208.279 3129.29 208.279 Q3128.86 207.479 3127.83 207.049 Q3126.83 206.598 3125.68 206.598 Q3123.98 206.598 3122.36 207.787 Q3120.74 208.955 3119.76 210.799 Q3118.77 212.603 3118.14 215.165 Q3117.5 217.706 3117.5 219.182 Q3117.5 221.211 3118.45 222.481 Q3119.39 223.752 3121.27 223.752 Q3121.64 223.752 3122.03 223.731 Q3122.44 223.711 3123.47 223.486 Q3124.51 223.26 3125.44 222.871 Q3126.36 222.481 3127.53 221.641 Q3128.71 220.78 3129.66 219.612 Q3129.98 219.182 3130.21 219.182 Q3130.39 219.182 3130.56 219.366 Z" fill="#000000" fill-rule="evenodd" fill-opacity="1" /><path clip-path="url(#clip710)" d="M3155.41 204.093 Q3155.47 203.361 3156.62 203.361 L3193.36 203.361 Q3195.09 203.361 3195.12 204.034 Q3195.12 204.766 3193.48 204.737 L3157.03 204.737 Q3155.41 204.766 3155.41 204.093 M3155.41 192.382 Q3155.41 191.65 3156.67 191.679 L3193.3 191.679 Q3195.09 191.679 3195.12 192.382 Q3195.12 193.055 3193.59 193.055 L3156.62 193.055 Q3155.41 193.055 3155.41 192.382 Z" fill="#000000" fill-rule="evenodd" fill-opacity="1" /><path clip-path="url(#clip710)" d="M3218.25 178.972 L3218.25 177.098 Q3225.45 177.098 3229.17 173.263 Q3230.2 173.263 3230.37 173.497 Q3230.55 173.732 3230.55 174.815 L3230.55 208.455 Q3230.55 210.241 3231.43 210.798 Q3232.31 211.354 3236.14 211.354 L3238.04 211.354 L3238.04 213.198 Q3235.94 213.023 3228.32 213.023 Q3220.71 213.023 3218.63 213.198 L3218.63 211.354 L3220.54 211.354 Q3224.31 211.354 3225.22 210.827 Q3226.13 210.271 3226.13 208.455 L3226.13 177.391 Q3222.99 178.972 3218.25 178.972 Z" fill="#000000" fill-rule="evenodd" fill-opacity="1" /><path clip-path="url(#clip710)" d="M3240.91 194.021 Q3240.91 185.209 3243.14 180.407 Q3246.24 173.263 3253.56 173.263 Q3255.11 173.263 3256.72 173.702 Q3258.36 174.112 3260.41 175.722 Q3262.49 177.333 3263.75 179.968 Q3266.15 185.062 3266.15 194.021 Q3266.15 202.775 3263.92 207.548 Q3260.67 214.516 3253.5 214.516 Q3250.81 214.516 3248.06 213.14 Q3245.33 211.764 3243.61 208.455 Q3240.91 203.507 3240.91 194.021 M3245.89 193.289 Q3245.89 202.336 3246.53 205.937 Q3247.27 209.831 3249.26 211.529 Q3251.28 213.198 3253.5 213.198 Q3255.9 213.198 3257.89 211.412 Q3259.91 209.597 3260.53 205.703 Q3261.2 201.868 3261.17 193.289 Q3261.17 184.945 3260.59 181.607 Q3259.8 177.713 3257.69 176.162 Q3255.61 174.581 3253.5 174.581 Q3252.71 174.581 3251.86 174.815 Q3251.04 175.049 3249.84 175.722 Q3248.64 176.396 3247.7 178.065 Q3246.8 179.734 3246.36 182.251 Q3245.89 185.501 3245.89 193.289 Z" fill="#000000" fill-rule="evenodd" fill-opacity="1" /><path clip-path="url(#clip710)" d="M3270.85 194.021 Q3270.85 185.209 3273.07 180.407 Q3276.18 173.263 3283.5 173.263 Q3285.05 173.263 3286.66 173.702 Q3288.3 174.112 3290.35 175.722 Q3292.43 177.333 3293.68 179.968 Q3296.08 185.062 3296.08 194.021 Q3296.08 202.775 3293.86 207.548 Q3290.61 214.516 3283.44 214.516 Q3280.74 214.516 3277.99 213.14 Q3275.27 211.764 3273.54 208.455 Q3270.85 203.507 3270.85 194.021 M3275.82 193.289 Q3275.82 202.336 3276.47 205.937 Q3277.2 209.831 3279.19 211.529 Q3281.21 213.198 3283.44 213.198 Q3285.84 213.198 3287.83 211.412 Q3289.85 209.597 3290.46 205.703 Q3291.14 201.868 3291.11 193.289 Q3291.11 184.945 3290.52 181.607 Q3289.73 177.713 3287.62 176.162 Q3285.54 174.581 3283.44 174.581 Q3282.65 174.581 3281.8 174.815 Q3280.98 175.049 3279.78 175.722 Q3278.58 176.396 3277.64 178.065 Q3276.73 179.734 3276.29 182.251 Q3275.82 185.501 3275.82 193.289 Z" fill="#000000" fill-rule="evenodd" fill-opacity="1" /><path clip-path="url(#clip710)" d="M3308.47 194.021 Q3308.47 185.209 3310.69 180.407 Q3313.8 173.263 3321.12 173.263 Q3322.67 173.263 3324.28 173.702 Q3325.92 174.112 3327.97 175.722 Q3330.04 177.333 3331.3 179.968 Q3333.7 185.062 3333.7 194.021 Q3333.7 202.775 3331.48 207.548 Q3328.23 214.516 3321.06 214.516 Q3318.36 214.516 3315.61 213.14 Q3312.89 211.764 3311.16 208.455 Q3308.47 203.507 3308.47 194.021 M3313.44 193.289 Q3313.44 202.336 3314.09 205.937 Q3314.82 209.831 3316.81 211.529 Q3318.83 213.198 3321.06 213.198 Q3323.46 213.198 3325.45 211.412 Q3327.47 209.597 3328.08 205.703 Q3328.76 201.868 3328.73 193.289 Q3328.73 184.945 3328.14 181.607 Q3327.35 177.713 3325.24 176.162 Q3323.16 174.581 3321.06 174.581 Q3320.27 174.581 3319.42 174.815 Q3318.6 175.049 3317.4 175.722 Q3316.2 176.396 3315.26 178.065 Q3314.35 179.734 3313.91 182.251 Q3313.44 185.501 3313.44 193.289 Z" fill="#000000" fill-rule="evenodd" fill-opacity="1" /><path clip-path="url(#clip710)" d="M3338.4 194.021 Q3338.4 185.209 3340.63 180.407 Q3343.73 173.263 3351.05 173.263 Q3352.6 173.263 3354.21 173.702 Q3355.85 174.112 3357.9 175.722 Q3359.98 177.333 3361.24 179.968 Q3363.64 185.062 3363.64 194.021 Q3363.64 202.775 3361.41 207.548 Q3358.17 214.516 3350.99 214.516 Q3348.3 214.516 3345.55 213.14 Q3342.82 211.764 3341.1 208.455 Q3338.4 203.507 3338.4 194.021 M3343.38 193.289 Q3343.38 202.336 3344.02 205.937 Q3344.76 209.831 3346.75 211.529 Q3348.77 213.198 3350.99 213.198 Q3353.39 213.198 3355.38 211.412 Q3357.4 209.597 3358.02 205.703 Q3358.69 201.868 3358.66 193.289 Q3358.66 184.945 3358.08 181.607 Q3357.29 177.713 3355.18 176.162 Q3353.1 174.581 3350.99 174.581 Q3350.2 174.581 3349.35 174.815 Q3348.53 175.049 3347.33 175.722 Q3346.13 176.396 3345.19 178.065 Q3344.29 179.734 3343.85 182.251 Q3343.38 185.501 3343.38 193.289 Z" fill="#000000" fill-rule="evenodd" fill-opacity="1" /><path clip-path="url(#clip710)" d="M3368.34 194.021 Q3368.34 185.209 3370.56 180.407 Q3373.67 173.263 3380.99 173.263 Q3382.54 173.263 3384.15 173.702 Q3385.79 174.112 3387.84 175.722 Q3389.92 177.333 3391.17 179.968 Q3393.58 185.062 3393.58 194.021 Q3393.58 202.775 3391.35 207.548 Q3388.1 214.516 3380.93 214.516 Q3378.23 214.516 3375.48 213.14 Q3372.76 211.764 3371.03 208.455 Q3368.34 203.507 3368.34 194.021 M3373.31 193.289 Q3373.31 202.336 3373.96 205.937 Q3374.69 209.831 3376.68 211.529 Q3378.7 213.198 3380.93 213.198 Q3383.33 213.198 3385.32 211.412 Q3387.34 209.597 3387.95 205.703 Q3388.63 201.868 3388.6 193.289 Q3388.6 184.945 3388.01 181.607 Q3387.22 177.713 3385.11 176.162 Q3383.04 174.581 3380.93 174.581 Q3380.14 174.581 3379.29 174.815 Q3378.47 175.049 3377.27 175.722 Q3376.07 176.396 3375.13 178.065 Q3374.22 179.734 3373.78 182.251 Q3373.31 185.501 3373.31 193.289 Z" fill="#000000" fill-rule="evenodd" fill-opacity="1" /></svg>
