<?xml version="1.0" encoding="utf-8"?>
<svg xmlns="http://www.w3.org/2000/svg" xmlns:xlink="http://www.w3.org/1999/xlink" width="900" height="300" viewBox="0 0 3600 1200">
<defs>
  <clipPath id="clip600">
    <rect x="0" y="0" width="3600" height="1200"/>
  </clipPath>
</defs>
<path clip-path="url(#clip600)" d="
M0 1200 L3600 1200 L3600 0 L0 0  Z
  " fill="#ffffff" fill-rule="evenodd" fill-opacity="1"/>
<defs>
  <clipPath id="clip601">
    <rect x="720" y="0" width="2521" height="1200"/>
  </clipPath>
</defs>
<defs>
  <clipPath id="clip602">
    <rect x="324" y="110" width="3166" height="885"/>
  </clipPath>
</defs>
<path clip-path="url(#clip600)" d="
M366.254 994.428 L3489.76 994.428 L3489.76 110.236 L366.254 110.236  Z
  " fill="#ffffff" fill-rule="evenodd" fill-opacity="1"/>
<defs>
  <clipPath id="clip603">
    <rect x="366" y="110" width="3125" height="885"/>
  </clipPath>
</defs>
<polyline clip-path="url(#clip603)" style="stroke:#000000; stroke-linecap:round; stroke-linejoin:round; stroke-width:2; stroke-opacity:0.1; fill:none" points="
  609.745,994.428 609.745,110.236 
  "/>
<polyline clip-path="url(#clip603)" style="stroke:#000000; stroke-linecap:round; stroke-linejoin:round; stroke-width:2; stroke-opacity:0.1; fill:none" points="
  919.925,994.428 919.925,110.236 
  "/>
<polyline clip-path="url(#clip603)" style="stroke:#000000; stroke-linecap:round; stroke-linejoin:round; stroke-width:2; stroke-opacity:0.1; fill:none" points="
  1230.1,994.428 1230.1,110.236 
  "/>
<polyline clip-path="url(#clip603)" style="stroke:#000000; stroke-linecap:round; stroke-linejoin:round; stroke-width:2; stroke-opacity:0.1; fill:none" points="
  1540.28,994.428 1540.28,110.236 
  "/>
<polyline clip-path="url(#clip603)" style="stroke:#000000; stroke-linecap:round; stroke-linejoin:round; stroke-width:2; stroke-opacity:0.1; fill:none" points="
  1850.46,994.428 1850.46,110.236 
  "/>
<polyline clip-path="url(#clip603)" style="stroke:#000000; stroke-linecap:round; stroke-linejoin:round; stroke-width:2; stroke-opacity:0.1; fill:none" points="
  2160.64,994.428 2160.64,110.236 
  "/>
<polyline clip-path="url(#clip603)" style="stroke:#000000; stroke-linecap:round; stroke-linejoin:round; stroke-width:2; stroke-opacity:0.1; fill:none" points="
  2470.82,994.428 2470.82,110.236 
  "/>
<polyline clip-path="url(#clip603)" style="stroke:#000000; stroke-linecap:round; stroke-linejoin:round; stroke-width:2; stroke-opacity:0.1; fill:none" points="
  2781,994.428 2781,110.236 
  "/>
<polyline clip-path="url(#clip603)" style="stroke:#000000; stroke-linecap:round; stroke-linejoin:round; stroke-width:2; stroke-opacity:0.1; fill:none" points="
  3091.18,994.428 3091.18,110.236 
  "/>
<polyline clip-path="url(#clip603)" style="stroke:#000000; stroke-linecap:round; stroke-linejoin:round; stroke-width:2; stroke-opacity:0.1; fill:none" points="
  3401.36,994.428 3401.36,110.236 
  "/>
<polyline clip-path="url(#clip600)" style="stroke:#000000; stroke-linecap:round; stroke-linejoin:round; stroke-width:4; stroke-opacity:1; fill:none" points="
  366.254,994.428 3489.76,994.428 
  "/>
<polyline clip-path="url(#clip600)" style="stroke:#000000; stroke-linecap:round; stroke-linejoin:round; stroke-width:4; stroke-opacity:1; fill:none" points="
  366.254,110.236 3489.76,110.236 
  "/>
<polyline clip-path="url(#clip600)" style="stroke:#000000; stroke-linecap:round; stroke-linejoin:round; stroke-width:4; stroke-opacity:1; fill:none" points="
  609.745,994.428 609.745,975.53 
  "/>
<polyline clip-path="url(#clip600)" style="stroke:#000000; stroke-linecap:round; stroke-linejoin:round; stroke-width:4; stroke-opacity:1; fill:none" points="
  919.925,994.428 919.925,975.53 
  "/>
<polyline clip-path="url(#clip600)" style="stroke:#000000; stroke-linecap:round; stroke-linejoin:round; stroke-width:4; stroke-opacity:1; fill:none" points="
  1230.1,994.428 1230.1,975.53 
  "/>
<polyline clip-path="url(#clip600)" style="stroke:#000000; stroke-linecap:round; stroke-linejoin:round; stroke-width:4; stroke-opacity:1; fill:none" points="
  1540.28,994.428 1540.28,975.53 
  "/>
<polyline clip-path="url(#clip600)" style="stroke:#000000; stroke-linecap:round; stroke-linejoin:round; stroke-width:4; stroke-opacity:1; fill:none" points="
  1850.46,994.428 1850.46,975.53 
  "/>
<polyline clip-path="url(#clip600)" style="stroke:#000000; stroke-linecap:round; stroke-linejoin:round; stroke-width:4; stroke-opacity:1; fill:none" points="
  2160.64,994.428 2160.64,975.53 
  "/>
<polyline clip-path="url(#clip600)" style="stroke:#000000; stroke-linecap:round; stroke-linejoin:round; stroke-width:4; stroke-opacity:1; fill:none" points="
  2470.82,994.428 2470.82,975.53 
  "/>
<polyline clip-path="url(#clip600)" style="stroke:#000000; stroke-linecap:round; stroke-linejoin:round; stroke-width:4; stroke-opacity:1; fill:none" points="
  2781,994.428 2781,975.53 
  "/>
<polyline clip-path="url(#clip600)" style="stroke:#000000; stroke-linecap:round; stroke-linejoin:round; stroke-width:4; stroke-opacity:1; fill:none" points="
  3091.18,994.428 3091.18,975.53 
  "/>
<polyline clip-path="url(#clip600)" style="stroke:#000000; stroke-linecap:round; stroke-linejoin:round; stroke-width:4; stroke-opacity:1; fill:none" points="
  3401.36,994.428 3401.36,975.53 
  "/>
<path clip-path="url(#clip600)" d="M599.308 1041.13 L599.308 1039.15 Q606.904 1039.15 610.826 1035.11 Q611.906 1035.11 612.092 1035.36 Q612.277 1035.6 612.277 1036.75 L612.277 1072.23 Q612.277 1074.11 613.203 1074.7 Q614.13 1075.28 618.175 1075.28 L620.182 1075.28 L620.182 1077.23 Q617.959 1077.04 609.93 1077.04 Q601.902 1077.04 599.709 1077.23 L599.709 1075.28 L601.716 1075.28 Q605.7 1075.28 606.657 1074.73 Q607.614 1074.14 607.614 1072.23 L607.614 1039.46 Q604.31 1041.13 599.308 1041.13 Z" fill="#000000" fill-rule="evenodd" fill-opacity="1" /><path clip-path="url(#clip600)" d="M907.295 1077.23 Q907.295 1076.09 907.388 1075.75 Q907.511 1075.41 908.005 1074.88 L920.141 1061.36 Q926.78 1053.88 926.78 1047.37 Q926.78 1043.14 924.557 1040.11 Q922.364 1037.08 918.319 1037.08 Q915.54 1037.08 913.193 1038.78 Q910.846 1040.48 909.765 1043.51 Q909.951 1043.45 910.599 1043.45 Q912.174 1043.45 913.039 1044.43 Q913.934 1045.42 913.934 1046.75 Q913.934 1048.45 912.822 1049.28 Q911.742 1050.08 910.661 1050.08 Q910.229 1050.08 909.642 1049.99 Q909.086 1049.9 908.191 1049.04 Q907.295 1048.14 907.295 1046.56 Q907.295 1042.15 910.63 1038.63 Q913.996 1035.11 919.122 1035.11 Q924.927 1035.11 928.725 1038.57 Q932.554 1041.99 932.554 1047.37 Q932.554 1049.25 931.968 1050.98 Q931.412 1052.68 930.64 1054.01 Q929.899 1055.33 927.861 1057.47 Q925.823 1059.6 924.186 1061.11 Q922.549 1062.62 918.875 1065.83 L912.174 1072.35 L923.568 1072.35 Q929.127 1072.35 929.559 1071.85 Q930.177 1070.96 930.949 1066.23 L932.554 1066.23 L930.763 1077.23 L907.295 1077.23 Z" fill="#000000" fill-rule="evenodd" fill-opacity="1" /><path clip-path="url(#clip600)" d="M1216.98 1068.71 Q1216.98 1066.82 1218.06 1065.93 Q1219.14 1065.03 1220.53 1065.03 Q1221.98 1065.03 1223 1065.99 Q1224.05 1066.91 1224.05 1068.55 Q1224.05 1070.31 1222.82 1071.3 Q1221.61 1072.29 1219.88 1072.04 Q1221.4 1074.57 1224.18 1075.71 Q1226.99 1076.86 1229.58 1076.86 Q1232.3 1076.86 1234.49 1074.51 Q1236.71 1072.16 1236.71 1066.42 Q1236.71 1061.54 1234.8 1058.73 Q1232.91 1055.92 1229.18 1055.92 L1226.4 1055.92 Q1225.44 1055.92 1225.16 1055.83 Q1224.89 1055.74 1224.89 1055.21 Q1224.89 1054.59 1225.84 1054.47 Q1226.8 1054.47 1228.31 1054.28 Q1231.99 1054.16 1233.93 1050.98 Q1235.69 1048.02 1235.69 1043.79 Q1235.69 1039.93 1233.84 1038.32 Q1232.02 1036.68 1229.64 1036.68 Q1227.42 1036.68 1224.98 1037.61 Q1222.54 1038.54 1221.21 1040.6 Q1225.13 1040.6 1225.13 1043.79 Q1225.13 1045.18 1224.24 1046.1 Q1223.37 1047 1221.92 1047 Q1220.53 1047 1219.61 1046.13 Q1218.68 1045.24 1218.68 1043.72 Q1218.68 1040.11 1221.89 1037.61 Q1225.13 1035.11 1229.89 1035.11 Q1234.58 1035.11 1238.04 1037.58 Q1241.53 1040.05 1241.53 1043.85 Q1241.53 1047.58 1239.06 1050.64 Q1236.59 1053.7 1232.67 1054.96 Q1237.48 1055.92 1240.36 1059.19 Q1243.23 1062.44 1243.23 1066.42 Q1243.23 1071.36 1239.34 1075 Q1235.45 1078.62 1229.76 1078.62 Q1224.52 1078.62 1220.75 1075.78 Q1216.98 1072.94 1216.98 1068.71 Z" fill="#000000" fill-rule="evenodd" fill-opacity="1" /><path clip-path="url(#clip600)" d="M1526.26 1066.79 L1526.26 1064.85 L1545.69 1035.17 Q1546.18 1034.4 1546.95 1034.43 Q1547.66 1034.43 1547.82 1034.71 Q1547.97 1034.98 1547.97 1036.07 L1547.97 1064.85 L1554.3 1064.85 L1554.3 1066.79 L1547.97 1066.79 L1547.97 1072.29 Q1547.97 1074.11 1548.71 1074.7 Q1549.49 1075.28 1552.76 1075.28 L1554.09 1075.28 L1554.09 1077.23 Q1551.49 1077.04 1545.5 1077.04 Q1539.54 1077.04 1536.95 1077.23 L1536.95 1075.28 L1538.28 1075.28 Q1541.55 1075.28 1542.32 1074.73 Q1543.09 1074.14 1543.09 1072.29 L1543.09 1066.79 L1526.26 1066.79 M1528.06 1064.85 L1543.46 1064.85 L1543.46 1041.25 L1528.06 1064.85 Z" fill="#000000" fill-rule="evenodd" fill-opacity="1" /><path clip-path="url(#clip600)" d="M1837.83 1067.04 Q1837.83 1065.15 1838.85 1064.44 Q1839.87 1063.7 1840.95 1063.7 Q1842.4 1063.7 1843.24 1064.63 Q1844.1 1065.52 1844.1 1066.79 Q1844.1 1068.06 1843.24 1068.98 Q1842.4 1069.88 1840.95 1069.88 Q1840.24 1069.88 1839.87 1069.75 Q1840.71 1072.66 1843.24 1074.76 Q1845.8 1076.86 1849.17 1076.86 Q1853.4 1076.86 1855.93 1072.75 Q1857.44 1070.09 1857.44 1064.07 Q1857.44 1058.76 1856.3 1056.11 Q1854.54 1052.06 1850.93 1052.06 Q1845.8 1052.06 1842.77 1056.48 Q1842.4 1057.03 1841.97 1057.06 Q1841.35 1057.06 1841.2 1056.72 Q1841.08 1056.35 1841.08 1055.4 L1841.08 1036.68 Q1841.08 1035.17 1841.69 1035.17 Q1841.94 1035.17 1842.47 1035.36 Q1846.45 1037.12 1850.87 1037.15 Q1855.4 1037.15 1859.48 1035.29 Q1859.79 1035.11 1859.97 1035.11 Q1860.59 1035.11 1860.62 1035.82 Q1860.62 1036.07 1860.1 1036.81 Q1859.6 1037.52 1858.52 1038.47 Q1857.44 1039.4 1856.05 1040.3 Q1854.66 1041.19 1852.63 1041.81 Q1850.62 1042.4 1848.39 1042.4 Q1845.74 1042.4 1843.02 1041.56 L1843.02 1053.88 Q1846.3 1050.67 1851.05 1050.67 Q1856.11 1050.67 1859.6 1054.75 Q1863.09 1058.82 1863.09 1064.51 Q1863.09 1070.47 1858.96 1074.54 Q1854.85 1078.62 1849.29 1078.62 Q1844.23 1078.62 1841.01 1075 Q1837.83 1071.39 1837.83 1067.04 Z" fill="#000000" fill-rule="evenodd" fill-opacity="1" /><path clip-path="url(#clip600)" d="M2147.52 1057.25 Q2147.52 1047.31 2152.58 1041.22 Q2157.65 1035.11 2164.16 1035.11 Q2167.96 1035.11 2170.06 1037.05 Q2172.19 1038.97 2172.19 1041.93 Q2172.19 1043.57 2171.24 1044.28 Q2170.28 1044.99 2169.29 1044.99 Q2168.15 1044.99 2167.25 1044.22 Q2166.36 1043.45 2166.36 1042.06 Q2166.36 1039.22 2169.85 1039.22 Q2168.21 1036.68 2164.29 1036.68 Q2163.08 1036.68 2161.85 1037.05 Q2160.61 1037.39 2159.01 1038.57 Q2157.4 1039.74 2156.17 1041.59 Q2154.93 1043.45 2154.07 1046.94 Q2153.2 1050.42 2153.2 1054.96 L2153.2 1056.48 Q2155.8 1050.21 2161.11 1050.24 Q2166.42 1050.24 2170.09 1054.28 Q2173.77 1058.33 2173.77 1064.32 Q2173.77 1070.47 2169.94 1074.54 Q2166.11 1078.62 2160.74 1078.62 Q2158.33 1078.62 2156.14 1077.6 Q2153.97 1076.61 2151.94 1074.33 Q2149.93 1072.04 2148.72 1067.66 Q2147.52 1063.27 2147.52 1057.25 M2153.33 1062.93 Q2153.33 1069.14 2154.47 1072.1 Q2154.65 1072.6 2155.05 1073.28 Q2155.49 1073.95 2156.2 1074.85 Q2156.94 1075.71 2158.14 1076.3 Q2159.35 1076.86 2160.74 1076.86 Q2164.97 1076.86 2167 1072.75 Q2168.09 1070.47 2168.09 1064.26 Q2168.09 1057.93 2166.94 1055.61 Q2165 1051.69 2161.05 1051.69 Q2158.39 1051.69 2156.54 1053.51 Q2154.71 1055.33 2154 1057.77 Q2153.33 1060.21 2153.33 1062.93 Z" fill="#000000" fill-rule="evenodd" fill-opacity="1" /><path clip-path="url(#clip600)" d="M2457.27 1047.49 L2459.34 1034.49 L2460.91 1034.49 Q2461.1 1035.26 2461.41 1035.6 Q2461.74 1035.94 2463.54 1036.22 Q2465.36 1036.5 2469.03 1036.5 L2484.38 1036.5 Q2484.38 1037.95 2483.82 1038.72 L2475.27 1050.73 Q2472.55 1054.53 2471.35 1061.54 Q2470.64 1066.23 2470.67 1071.92 L2470.67 1075.13 Q2470.67 1078.62 2467.74 1078.62 Q2464.83 1078.62 2464.83 1075.13 Q2464.83 1063.05 2472.61 1051.35 Q2473.45 1050.15 2476.51 1045.85 Q2479.59 1041.56 2479.72 1041.38 L2466.62 1041.38 Q2460.88 1041.38 2460.42 1041.75 Q2459.8 1042.3 2458.84 1047.49 L2457.27 1047.49 Z" fill="#000000" fill-rule="evenodd" fill-opacity="1" /><path clip-path="url(#clip600)" d="M2767.88 1067.69 Q2767.88 1060.61 2776.99 1056.04 Q2773.07 1053.39 2772.36 1052.62 Q2769.58 1049.53 2769.58 1045.67 Q2769.58 1041.25 2772.91 1038.2 Q2776.28 1035.11 2781.03 1035.11 Q2785.57 1035.11 2789 1037.73 Q2792.43 1040.36 2792.43 1044.53 Q2792.43 1050.39 2784.77 1054.35 Q2789.83 1057.5 2791.04 1058.82 Q2794.13 1062.25 2794.13 1066.61 Q2794.13 1071.67 2790.24 1075.16 Q2786.35 1078.62 2780.97 1078.62 Q2775.72 1078.62 2771.8 1075.56 Q2767.88 1072.5 2767.88 1067.69 M2771.03 1067.69 Q2771.03 1071.61 2773.96 1074.23 Q2776.93 1076.86 2781.03 1076.86 Q2785.02 1076.86 2787.98 1074.57 Q2790.98 1072.29 2790.98 1068.89 Q2790.98 1067.56 2790.51 1066.42 Q2790.08 1065.28 2789.19 1064.38 Q2788.32 1063.46 2787.77 1063.05 Q2787.24 1062.62 2786.22 1061.91 L2778.44 1057 Q2771.03 1061.11 2771.03 1067.69 M2772.36 1043.2 Q2772.36 1046.23 2775.54 1048.32 L2783.38 1053.39 Q2789.65 1049.71 2789.65 1044.53 Q2789.65 1041.16 2787.09 1038.94 Q2784.52 1036.68 2780.97 1036.68 Q2777.48 1036.68 2774.92 1038.54 Q2772.36 1040.36 2772.36 1043.2 Z" fill="#000000" fill-rule="evenodd" fill-opacity="1" /><path clip-path="url(#clip600)" d="M3078.06 1049.34 Q3078.06 1045.98 3079.05 1043.69 Q3080.04 1041.38 3082.1 1039.09 Q3085.9 1035.11 3091.4 1035.11 Q3093.75 1035.11 3095.81 1036.1 Q3097.91 1037.08 3099.89 1039.34 Q3101.9 1041.56 3103.1 1045.98 Q3104.31 1050.36 3104.31 1056.42 Q3104.31 1066.2 3099.55 1072.41 Q3094.83 1078.62 3088.43 1078.62 Q3084.39 1078.62 3082.01 1076.8 Q3079.63 1074.94 3079.63 1071.79 Q3079.63 1070.16 3080.56 1069.48 Q3081.49 1068.77 3082.54 1068.77 Q3083.68 1068.77 3084.57 1069.54 Q3085.47 1070.28 3085.47 1071.67 Q3085.47 1072.81 3084.73 1073.71 Q3084.02 1074.57 3082.17 1074.57 Q3083.99 1076.86 3088.37 1076.86 Q3089.95 1076.86 3091.52 1076.15 Q3093.1 1075.41 3094.8 1073.65 Q3096.52 1071.85 3097.57 1068.12 Q3098.62 1064.38 3098.62 1059.13 L3098.62 1057.13 Q3096.09 1063.46 3090.72 1063.46 Q3085.41 1063.46 3081.73 1059.38 Q3078.06 1055.3 3078.06 1049.34 M3083.74 1049.41 Q3083.74 1055.67 3084.88 1057.99 Q3086.83 1061.97 3090.78 1061.97 Q3094.64 1061.97 3096.56 1058.55 Q3098.5 1055.09 3098.5 1050.61 Q3098.5 1044.4 3097.48 1041.69 Q3095.6 1036.68 3091.4 1036.68 Q3087.23 1036.68 3085.07 1040.67 Q3083.74 1043.01 3083.74 1049.41 Z" fill="#000000" fill-rule="evenodd" fill-opacity="1" /><path clip-path="url(#clip600)" d="M3373.82 1041.13 L3373.82 1039.15 Q3381.41 1039.15 3385.34 1035.11 Q3386.42 1035.11 3386.6 1035.36 Q3386.79 1035.6 3386.79 1036.75 L3386.79 1072.23 Q3386.79 1074.11 3387.71 1074.7 Q3388.64 1075.28 3392.69 1075.28 L3394.69 1075.28 L3394.69 1077.23 Q3392.47 1077.04 3384.44 1077.04 Q3376.41 1077.04 3374.22 1077.23 L3374.22 1075.28 L3376.23 1075.28 Q3380.21 1075.28 3381.17 1074.73 Q3382.12 1074.14 3382.12 1072.23 L3382.12 1039.46 Q3378.82 1041.13 3373.82 1041.13 Z" fill="#000000" fill-rule="evenodd" fill-opacity="1" /><path clip-path="url(#clip600)" d="M3402.29 1057 Q3402.29 1047.71 3404.64 1042.64 Q3407.91 1035.11 3415.63 1035.11 Q3417.27 1035.11 3418.96 1035.57 Q3420.69 1036 3422.85 1037.7 Q3425.05 1039.4 3426.37 1042.18 Q3428.91 1047.55 3428.91 1057 Q3428.91 1066.23 3426.56 1071.27 Q3423.13 1078.62 3415.57 1078.62 Q3412.73 1078.62 3409.82 1077.17 Q3406.95 1075.71 3405.13 1072.23 Q3402.29 1067.01 3402.29 1057 M3407.54 1056.23 Q3407.54 1065.77 3408.22 1069.57 Q3408.99 1073.68 3411.09 1075.47 Q3413.22 1077.23 3415.57 1077.23 Q3418.1 1077.23 3420.2 1075.34 Q3422.33 1073.43 3422.98 1069.32 Q3423.69 1065.28 3423.66 1056.23 Q3423.66 1047.43 3423.04 1043.91 Q3422.21 1039.8 3419.98 1038.17 Q3417.79 1036.5 3415.57 1036.5 Q3414.73 1036.5 3413.84 1036.75 Q3412.97 1036.99 3411.71 1037.7 Q3410.44 1038.41 3409.45 1040.17 Q3408.5 1041.93 3408.03 1044.59 Q3407.54 1048.02 3407.54 1056.23 Z" fill="#000000" fill-rule="evenodd" fill-opacity="1" /><path clip-path="url(#clip600)" d="M1964.18 1121.51 Q1964.18 1122.04 1964.06 1122.41 Q1963.93 1122.74 1963.65 1122.9 Q1963.36 1123.07 1963.19 1123.11 Q1963.03 1123.15 1962.66 1123.19 Q1960.9 1123.35 1959.67 1123.64 Q1958.48 1123.93 1955.53 1125.4 Q1952.62 1126.88 1948.97 1129.54 L1934.3 1140.9 L1931.84 1142.82 Q1931.84 1142.95 1931.92 1143.19 Q1932 1143.4 1932.08 1143.68 Q1932.21 1143.93 1932.25 1144.01 L1944.18 1171.52 Q1945.12 1173.73 1946.27 1174.51 Q1947.41 1175.29 1950 1175.33 Q1950.41 1175.33 1950.57 1175.37 Q1950.78 1175.37 1951.06 1175.45 Q1951.39 1175.49 1951.51 1175.7 Q1951.68 1175.9 1951.68 1176.23 Q1951.68 1177.91 1950.16 1177.91 Q1949.22 1177.91 1946.02 1177.79 Q1942.82 1177.66 1941.92 1177.66 Q1940.24 1177.66 1936.8 1177.79 Q1933.35 1177.91 1931.67 1177.91 Q1930.49 1177.91 1930.49 1176.97 Q1930.49 1176.19 1930.77 1175.82 Q1931.1 1175.41 1931.39 1175.37 Q1931.67 1175.33 1932.33 1175.33 Q1932.82 1175.33 1933.35 1175.29 Q1933.93 1175.2 1934.75 1175 Q1935.61 1174.75 1936.14 1174.18 Q1936.72 1173.57 1936.72 1172.7 Q1936.72 1172.01 1935.69 1169.75 L1925.98 1147.17 L1913.47 1156.92 L1910.11 1170.12 Q1910.03 1170.61 1909.83 1171.47 Q1909.62 1172.34 1909.46 1172.95 Q1909.33 1173.57 1909.33 1173.81 Q1909.33 1174.34 1909.66 1174.67 Q1910.03 1175 1910.93 1175.16 Q1911.84 1175.29 1912.53 1175.33 Q1913.27 1175.33 1914.79 1175.33 Q1916.67 1175.33 1917 1175.66 Q1917.16 1175.86 1917.16 1176.23 Q1917.16 1176.8 1917 1177.21 Q1916.84 1177.58 1916.51 1177.71 Q1916.22 1177.83 1916.02 1177.87 Q1915.81 1177.91 1915.48 1177.91 Q1914.62 1177.91 1912.78 1177.83 Q1910.97 1177.75 1910.03 1177.75 L1904.66 1177.66 L1894 1177.91 Q1892.73 1177.91 1892.73 1176.89 Q1892.73 1176.11 1893.06 1175.78 Q1893.39 1175.41 1893.76 1175.37 Q1894.13 1175.33 1895.07 1175.33 Q1897.12 1175.33 1898.35 1175.2 Q1899.58 1175.08 1900.36 1174.92 Q1901.18 1174.71 1901.59 1174.14 Q1902.04 1173.57 1902.24 1173.07 Q1902.45 1172.54 1902.74 1171.35 L1913.97 1126.26 Q1914.29 1124.91 1914.29 1124.71 Q1914.29 1124.01 1913.88 1123.76 Q1913.52 1123.48 1912.45 1123.35 Q1910.4 1123.19 1908.84 1123.19 Q1907.82 1123.19 1907.41 1123.15 Q1907.04 1123.11 1906.71 1122.9 Q1906.42 1122.66 1906.42 1122.16 Q1906.42 1120.57 1908.11 1120.57 L1918.93 1120.81 L1929.67 1120.57 Q1930.85 1120.57 1930.85 1121.51 Q1930.85 1122.7 1930.28 1122.94 Q1929.75 1123.19 1927.98 1123.19 Q1924.91 1123.19 1923.52 1123.6 Q1922.16 1123.97 1921.75 1124.62 Q1921.39 1125.24 1920.93 1127.04 L1914.21 1153.97 L1946.96 1128.81 Q1950 1126.26 1950 1124.95 Q1950 1124.09 1949.38 1123.72 Q1948.81 1123.31 1947.37 1123.19 Q1946.35 1123.03 1946.35 1122.25 Q1946.35 1121.47 1946.64 1121.1 Q1946.96 1120.69 1947.21 1120.65 Q1947.5 1120.57 1947.95 1120.57 Q1949.46 1120.57 1952.62 1120.69 Q1955.78 1120.81 1957.29 1120.81 Q1958.32 1120.81 1960.33 1120.69 Q1962.33 1120.57 1963.24 1120.57 Q1963.69 1120.57 1963.93 1120.89 Q1964.18 1121.18 1964.18 1121.51 Z" fill="#000000" fill-rule="evenodd" fill-opacity="1" /><polyline clip-path="url(#clip603)" style="stroke:#000000; stroke-linecap:round; stroke-linejoin:round; stroke-width:2; stroke-opacity:0.1; fill:none" points="
  366.254,885.347 3489.76,885.347 
  "/>
<polyline clip-path="url(#clip603)" style="stroke:#000000; stroke-linecap:round; stroke-linejoin:round; stroke-width:2; stroke-opacity:0.1; fill:none" points="
  366.254,698.68 3489.76,698.68 
  "/>
<polyline clip-path="url(#clip603)" style="stroke:#000000; stroke-linecap:round; stroke-linejoin:round; stroke-width:2; stroke-opacity:0.1; fill:none" points="
  366.254,512.012 3489.76,512.012 
  "/>
<polyline clip-path="url(#clip603)" style="stroke:#000000; stroke-linecap:round; stroke-linejoin:round; stroke-width:2; stroke-opacity:0.1; fill:none" points="
  366.254,325.345 3489.76,325.345 
  "/>
<polyline clip-path="url(#clip603)" style="stroke:#000000; stroke-linecap:round; stroke-linejoin:round; stroke-width:2; stroke-opacity:0.1; fill:none" points="
  366.254,138.677 3489.76,138.677 
  "/>
<polyline clip-path="url(#clip600)" style="stroke:#000000; stroke-linecap:round; stroke-linejoin:round; stroke-width:4; stroke-opacity:1; fill:none" points="
  366.254,994.428 366.254,110.236 
  "/>
<polyline clip-path="url(#clip600)" style="stroke:#000000; stroke-linecap:round; stroke-linejoin:round; stroke-width:4; stroke-opacity:1; fill:none" points="
  3489.76,994.428 3489.76,110.236 
  "/>
<polyline clip-path="url(#clip600)" style="stroke:#000000; stroke-linecap:round; stroke-linejoin:round; stroke-width:4; stroke-opacity:1; fill:none" points="
  366.254,885.347 385.151,885.347 
  "/>
<polyline clip-path="url(#clip600)" style="stroke:#000000; stroke-linecap:round; stroke-linejoin:round; stroke-width:4; stroke-opacity:1; fill:none" points="
  366.254,698.68 385.151,698.68 
  "/>
<polyline clip-path="url(#clip600)" style="stroke:#000000; stroke-linecap:round; stroke-linejoin:round; stroke-width:4; stroke-opacity:1; fill:none" points="
  366.254,512.012 385.151,512.012 
  "/>
<polyline clip-path="url(#clip600)" style="stroke:#000000; stroke-linecap:round; stroke-linejoin:round; stroke-width:4; stroke-opacity:1; fill:none" points="
  366.254,325.345 385.151,325.345 
  "/>
<polyline clip-path="url(#clip600)" style="stroke:#000000; stroke-linecap:round; stroke-linejoin:round; stroke-width:4; stroke-opacity:1; fill:none" points="
  366.254,138.677 385.151,138.677 
  "/>
<path clip-path="url(#clip600)" d="M198.464 890.241 Q198.835 890.612 198.835 891.137 Q198.835 891.662 198.464 892.032 Q198.093 892.403 197.569 892.403 L157.981 892.403 Q157.456 892.403 157.086 892.032 Q156.715 891.662 156.715 891.137 Q156.715 890.612 157.086 890.241 Q157.456 889.871 157.981 889.871 L197.569 889.871 Q198.093 889.871 198.464 890.241 Z" fill="#000000" fill-rule="evenodd" fill-opacity="1" /><path clip-path="url(#clip600)" d="M204.825 886.721 Q204.825 877.427 207.172 872.362 Q210.445 864.828 218.165 864.828 Q219.802 864.828 221.5 865.291 Q223.229 865.723 225.391 867.422 Q227.583 869.12 228.911 871.899 Q231.443 877.272 231.443 886.721 Q231.443 895.954 229.096 900.987 Q225.669 908.337 218.103 908.337 Q215.262 908.337 212.36 906.885 Q209.488 905.434 207.666 901.945 Q204.825 896.726 204.825 886.721 M210.075 885.949 Q210.075 895.491 210.754 899.289 Q211.526 903.396 213.626 905.187 Q215.756 906.947 218.103 906.947 Q220.635 906.947 222.735 905.063 Q224.866 903.149 225.514 899.042 Q226.224 894.997 226.194 885.949 Q226.194 877.149 225.576 873.628 Q224.742 869.521 222.519 867.885 Q220.326 866.217 218.103 866.217 Q217.269 866.217 216.374 866.464 Q215.509 866.711 214.243 867.422 Q212.977 868.132 211.989 869.892 Q211.032 871.652 210.569 874.308 Q210.075 877.735 210.075 885.949 Z" fill="#000000" fill-rule="evenodd" fill-opacity="1" /><path clip-path="url(#clip600)" d="M240.305 905.928 Q239.348 904.909 239.348 903.581 Q239.348 902.253 240.305 901.296 Q241.263 900.308 242.714 900.308 Q244.103 900.308 245.03 901.234 Q245.987 902.13 245.987 903.612 Q245.987 905.063 244.968 906.021 Q243.98 906.947 242.714 906.947 Q241.263 906.947 240.305 905.928 Z" fill="#000000" fill-rule="evenodd" fill-opacity="1" /><path clip-path="url(#clip600)" d="M254.695 896.757 Q254.695 894.873 255.714 894.163 Q256.733 893.422 257.814 893.422 Q259.265 893.422 260.099 894.348 Q260.964 895.244 260.964 896.51 Q260.964 897.776 260.099 898.702 Q259.265 899.598 257.814 899.598 Q257.104 899.598 256.733 899.474 Q257.567 902.377 260.099 904.477 Q262.662 906.576 266.028 906.576 Q270.258 906.576 272.79 902.47 Q274.303 899.814 274.303 893.793 Q274.303 888.481 273.161 885.826 Q271.401 881.78 267.788 881.78 Q262.662 881.78 259.636 886.196 Q259.265 886.752 258.833 886.783 Q258.215 886.783 258.061 886.443 Q257.937 886.073 257.937 885.115 L257.937 866.403 Q257.937 864.89 258.555 864.89 Q258.802 864.89 259.327 865.075 Q263.31 866.835 267.726 866.866 Q272.265 866.866 276.341 865.013 Q276.65 864.828 276.835 864.828 Q277.453 864.828 277.484 865.538 Q277.484 865.785 276.959 866.526 Q276.465 867.236 275.384 868.194 Q274.303 869.12 272.914 870.016 Q271.524 870.911 269.486 871.529 Q267.479 872.115 265.256 872.115 Q262.6 872.115 259.883 871.282 L259.883 883.602 Q263.156 880.391 267.911 880.391 Q272.976 880.391 276.465 884.467 Q279.954 888.543 279.954 894.225 Q279.954 900.185 275.816 904.261 Q271.709 908.337 266.151 908.337 Q261.087 908.337 257.876 904.724 Q254.695 901.111 254.695 896.757 Z" fill="#000000" fill-rule="evenodd" fill-opacity="1" /><path clip-path="url(#clip600)" d="M285.636 886.721 Q285.636 877.427 287.983 872.362 Q291.256 864.828 298.976 864.828 Q300.612 864.828 302.311 865.291 Q304.04 865.723 306.202 867.422 Q308.394 869.12 309.722 871.899 Q312.254 877.272 312.254 886.721 Q312.254 895.954 309.907 900.987 Q306.479 908.337 298.914 908.337 Q296.073 908.337 293.171 906.885 Q290.299 905.434 288.477 901.945 Q285.636 896.726 285.636 886.721 M290.885 885.949 Q290.885 895.491 291.565 899.289 Q292.337 903.396 294.437 905.187 Q296.567 906.947 298.914 906.947 Q301.446 906.947 303.546 905.063 Q305.677 903.149 306.325 899.042 Q307.035 894.997 307.004 885.949 Q307.004 877.149 306.387 873.628 Q305.553 869.521 303.33 867.885 Q301.137 866.217 298.914 866.217 Q298.08 866.217 297.185 866.464 Q296.32 866.711 295.054 867.422 Q293.788 868.132 292.8 869.892 Q291.843 871.652 291.38 874.308 Q290.885 877.735 290.885 885.949 Z" fill="#000000" fill-rule="evenodd" fill-opacity="1" /><path clip-path="url(#clip600)" d="M199.143 703.574 Q199.514 703.944 199.514 704.469 Q199.514 704.994 199.143 705.365 Q198.773 705.735 198.248 705.735 L158.661 705.735 Q158.136 705.735 157.765 705.365 Q157.395 704.994 157.395 704.469 Q157.395 703.944 157.765 703.574 Q158.136 703.203 158.661 703.203 L198.248 703.203 Q198.773 703.203 199.143 703.574 Z" fill="#000000" fill-rule="evenodd" fill-opacity="1" /><path clip-path="url(#clip600)" d="M205.504 700.054 Q205.504 690.759 207.851 685.695 Q211.124 678.16 218.844 678.16 Q220.481 678.16 222.179 678.624 Q223.908 679.056 226.07 680.754 Q228.262 682.453 229.59 685.232 Q232.122 690.605 232.122 700.054 Q232.122 709.287 229.776 714.32 Q226.348 721.669 218.783 721.669 Q215.942 721.669 213.039 720.218 Q210.167 718.767 208.345 715.277 Q205.504 710.059 205.504 700.054 M210.754 699.282 Q210.754 708.823 211.433 712.622 Q212.205 716.728 214.305 718.519 Q216.436 720.28 218.783 720.28 Q221.315 720.28 223.414 718.396 Q225.545 716.481 226.194 712.375 Q226.904 708.329 226.873 699.282 Q226.873 690.481 226.255 686.961 Q225.422 682.854 223.198 681.217 Q221.006 679.55 218.783 679.55 Q217.949 679.55 217.053 679.797 Q216.189 680.044 214.923 680.754 Q213.657 681.464 212.668 683.225 Q211.711 684.985 211.248 687.64 Q210.754 691.068 210.754 699.282 Z" fill="#000000" fill-rule="evenodd" fill-opacity="1" /><path clip-path="url(#clip600)" d="M240.985 719.261 Q240.027 718.242 240.027 716.914 Q240.027 715.586 240.985 714.629 Q241.942 713.641 243.393 713.641 Q244.783 713.641 245.709 714.567 Q246.666 715.462 246.666 716.945 Q246.666 718.396 245.647 719.353 Q244.659 720.28 243.393 720.28 Q241.942 720.28 240.985 719.261 Z" fill="#000000" fill-rule="evenodd" fill-opacity="1" /><path clip-path="url(#clip600)" d="M255.374 720.28 Q255.374 719.137 255.467 718.797 Q255.591 718.458 256.085 717.933 L268.22 704.408 Q274.859 696.935 274.859 690.419 Q274.859 686.189 272.636 683.163 Q270.443 680.137 266.398 680.137 Q263.619 680.137 261.272 681.835 Q258.925 683.533 257.845 686.56 Q258.03 686.498 258.678 686.498 Q260.253 686.498 261.118 687.486 Q262.013 688.474 262.013 689.802 Q262.013 691.5 260.902 692.334 Q259.821 693.137 258.74 693.137 Q258.308 693.137 257.721 693.044 Q257.165 692.951 256.27 692.087 Q255.374 691.191 255.374 689.617 Q255.374 685.201 258.709 681.681 Q262.075 678.16 267.201 678.16 Q273.006 678.16 276.805 681.619 Q280.634 685.046 280.634 690.419 Q280.634 692.303 280.047 694.032 Q279.491 695.731 278.719 697.058 Q277.978 698.386 275.94 700.517 Q273.902 702.648 272.265 704.161 Q270.629 705.674 266.954 708.885 L260.253 715.401 L271.648 715.401 Q277.206 715.401 277.638 714.907 Q278.256 714.011 279.028 709.287 L280.634 709.287 L278.843 720.28 L255.374 720.28 Z" fill="#000000" fill-rule="evenodd" fill-opacity="1" /><path clip-path="url(#clip600)" d="M286.995 710.089 Q286.995 708.206 288.014 707.496 Q289.033 706.755 290.113 706.755 Q291.565 706.755 292.399 707.681 Q293.263 708.576 293.263 709.842 Q293.263 711.108 292.399 712.035 Q291.565 712.93 290.113 712.93 Q289.403 712.93 289.033 712.807 Q289.866 715.709 292.399 717.809 Q294.962 719.909 298.327 719.909 Q302.558 719.909 305.09 715.802 Q306.603 713.146 306.603 707.125 Q306.603 701.814 305.46 699.158 Q303.7 695.113 300.087 695.113 Q294.962 695.113 291.935 699.529 Q291.565 700.085 291.132 700.115 Q290.515 700.115 290.361 699.776 Q290.237 699.405 290.237 698.448 L290.237 679.735 Q290.237 678.222 290.855 678.222 Q291.102 678.222 291.627 678.407 Q295.61 680.168 300.026 680.198 Q304.565 680.198 308.641 678.346 Q308.95 678.16 309.135 678.16 Q309.753 678.16 309.784 678.871 Q309.784 679.118 309.259 679.859 Q308.765 680.569 307.684 681.526 Q306.603 682.453 305.213 683.348 Q303.824 684.244 301.786 684.861 Q299.779 685.448 297.555 685.448 Q294.9 685.448 292.182 684.614 L292.182 696.935 Q295.456 693.723 300.211 693.723 Q305.275 693.723 308.765 697.8 Q312.254 701.876 312.254 707.557 Q312.254 713.517 308.116 717.593 Q304.009 721.669 298.451 721.669 Q293.387 721.669 290.175 718.056 Q286.995 714.443 286.995 710.089 Z" fill="#000000" fill-rule="evenodd" fill-opacity="1" /><path clip-path="url(#clip600)" d="M204.825 513.386 Q204.825 504.092 207.172 499.027 Q210.445 491.493 218.165 491.493 Q219.802 491.493 221.5 491.956 Q223.229 492.388 225.391 494.087 Q227.583 495.785 228.911 498.564 Q231.443 503.937 231.443 513.386 Q231.443 522.619 229.096 527.652 Q225.669 535.002 218.103 535.002 Q215.262 535.002 212.36 533.55 Q209.488 532.099 207.666 528.61 Q204.825 523.391 204.825 513.386 M210.075 512.614 Q210.075 522.156 210.754 525.954 Q211.526 530.061 213.626 531.852 Q215.756 533.612 218.103 533.612 Q220.635 533.612 222.735 531.729 Q224.866 529.814 225.514 525.707 Q226.224 521.662 226.194 512.614 Q226.194 503.814 225.576 500.293 Q224.742 496.187 222.519 494.55 Q220.326 492.882 218.103 492.882 Q217.269 492.882 216.374 493.13 Q215.509 493.377 214.243 494.087 Q212.977 494.797 211.989 496.557 Q211.032 498.317 210.569 500.973 Q210.075 504.4 210.075 512.614 Z" fill="#000000" fill-rule="evenodd" fill-opacity="1" /><path clip-path="url(#clip600)" d="M240.305 532.593 Q239.348 531.574 239.348 530.246 Q239.348 528.918 240.305 527.961 Q241.263 526.973 242.714 526.973 Q244.103 526.973 245.03 527.899 Q245.987 528.795 245.987 530.277 Q245.987 531.729 244.968 532.686 Q243.98 533.612 242.714 533.612 Q241.263 533.612 240.305 532.593 Z" fill="#000000" fill-rule="evenodd" fill-opacity="1" /><path clip-path="url(#clip600)" d="M254.016 513.386 Q254.016 504.092 256.363 499.027 Q259.636 491.493 267.356 491.493 Q268.992 491.493 270.69 491.956 Q272.42 492.388 274.581 494.087 Q276.774 495.785 278.101 498.564 Q280.634 503.937 280.634 513.386 Q280.634 522.619 278.287 527.652 Q274.859 535.002 267.294 535.002 Q264.453 535.002 261.55 533.55 Q258.678 532.099 256.857 528.61 Q254.016 523.391 254.016 513.386 M259.265 512.614 Q259.265 522.156 259.944 525.954 Q260.716 530.061 262.816 531.852 Q264.947 533.612 267.294 533.612 Q269.826 533.612 271.926 531.729 Q274.056 529.814 274.705 525.707 Q275.415 521.662 275.384 512.614 Q275.384 503.814 274.767 500.293 Q273.933 496.187 271.709 494.55 Q269.517 492.882 267.294 492.882 Q266.46 492.882 265.565 493.13 Q264.7 493.377 263.434 494.087 Q262.168 494.797 261.18 496.557 Q260.222 498.317 259.759 500.973 Q259.265 504.4 259.265 512.614 Z" fill="#000000" fill-rule="evenodd" fill-opacity="1" /><path clip-path="url(#clip600)" d="M285.636 513.386 Q285.636 504.092 287.983 499.027 Q291.256 491.493 298.976 491.493 Q300.612 491.493 302.311 491.956 Q304.04 492.388 306.202 494.087 Q308.394 495.785 309.722 498.564 Q312.254 503.937 312.254 513.386 Q312.254 522.619 309.907 527.652 Q306.479 535.002 298.914 535.002 Q296.073 535.002 293.171 533.55 Q290.299 532.099 288.477 528.61 Q285.636 523.391 285.636 513.386 M290.885 512.614 Q290.885 522.156 291.565 525.954 Q292.337 530.061 294.437 531.852 Q296.567 533.612 298.914 533.612 Q301.446 533.612 303.546 531.729 Q305.677 529.814 306.325 525.707 Q307.035 521.662 307.004 512.614 Q307.004 503.814 306.387 500.293 Q305.553 496.187 303.33 494.55 Q301.137 492.882 298.914 492.882 Q298.08 492.882 297.185 493.13 Q296.32 493.377 295.054 494.087 Q293.788 494.797 292.8 496.557 Q291.843 498.317 291.38 500.973 Q290.885 504.4 290.885 512.614 Z" fill="#000000" fill-rule="evenodd" fill-opacity="1" /><path clip-path="url(#clip600)" d="M205.504 326.719 Q205.504 317.424 207.851 312.36 Q211.124 304.825 218.844 304.825 Q220.481 304.825 222.179 305.289 Q223.908 305.721 226.07 307.419 Q228.262 309.118 229.59 311.897 Q232.122 317.27 232.122 326.719 Q232.122 335.952 229.776 340.985 Q226.348 348.334 218.783 348.334 Q215.942 348.334 213.039 346.883 Q210.167 345.432 208.345 341.942 Q205.504 336.724 205.504 326.719 M210.754 325.947 Q210.754 335.488 211.433 339.287 Q212.205 343.394 214.305 345.185 Q216.436 346.945 218.783 346.945 Q221.315 346.945 223.414 345.061 Q225.545 343.147 226.194 339.04 Q226.904 334.994 226.873 325.947 Q226.873 317.146 226.255 313.626 Q225.422 309.519 223.198 307.882 Q221.006 306.215 218.783 306.215 Q217.949 306.215 217.053 306.462 Q216.189 306.709 214.923 307.419 Q213.657 308.13 212.668 309.89 Q211.711 311.65 211.248 314.305 Q210.754 317.733 210.754 325.947 Z" fill="#000000" fill-rule="evenodd" fill-opacity="1" /><path clip-path="url(#clip600)" d="M240.985 345.926 Q240.027 344.907 240.027 343.579 Q240.027 342.251 240.985 341.294 Q241.942 340.306 243.393 340.306 Q244.783 340.306 245.709 341.232 Q246.666 342.128 246.666 343.61 Q246.666 345.061 245.647 346.018 Q244.659 346.945 243.393 346.945 Q241.942 346.945 240.985 345.926 Z" fill="#000000" fill-rule="evenodd" fill-opacity="1" /><path clip-path="url(#clip600)" d="M255.374 346.945 Q255.374 345.802 255.467 345.462 Q255.591 345.123 256.085 344.598 L268.22 331.073 Q274.859 323.6 274.859 317.084 Q274.859 312.854 272.636 309.828 Q270.443 306.802 266.398 306.802 Q263.619 306.802 261.272 308.5 Q258.925 310.198 257.845 313.225 Q258.03 313.163 258.678 313.163 Q260.253 313.163 261.118 314.151 Q262.013 315.139 262.013 316.467 Q262.013 318.165 260.902 318.999 Q259.821 319.802 258.74 319.802 Q258.308 319.802 257.721 319.709 Q257.165 319.617 256.27 318.752 Q255.374 317.856 255.374 316.282 Q255.374 311.866 258.709 308.346 Q262.075 304.825 267.201 304.825 Q273.006 304.825 276.805 308.284 Q280.634 311.712 280.634 317.084 Q280.634 318.968 280.047 320.697 Q279.491 322.396 278.719 323.724 Q277.978 325.051 275.94 327.182 Q273.902 329.313 272.265 330.826 Q270.629 332.339 266.954 335.55 L260.253 342.066 L271.648 342.066 Q277.206 342.066 277.638 341.572 Q278.256 340.676 279.028 335.952 L280.634 335.952 L278.843 346.945 L255.374 346.945 Z" fill="#000000" fill-rule="evenodd" fill-opacity="1" /><path clip-path="url(#clip600)" d="M286.995 336.755 Q286.995 334.871 288.014 334.161 Q289.033 333.42 290.113 333.42 Q291.565 333.42 292.399 334.346 Q293.263 335.241 293.263 336.508 Q293.263 337.774 292.399 338.7 Q291.565 339.595 290.113 339.595 Q289.403 339.595 289.033 339.472 Q289.866 342.375 292.399 344.474 Q294.962 346.574 298.327 346.574 Q302.558 346.574 305.09 342.467 Q306.603 339.812 306.603 333.79 Q306.603 328.479 305.46 325.823 Q303.7 321.778 300.087 321.778 Q294.962 321.778 291.935 326.194 Q291.565 326.75 291.132 326.781 Q290.515 326.781 290.361 326.441 Q290.237 326.07 290.237 325.113 L290.237 306.4 Q290.237 304.887 290.855 304.887 Q291.102 304.887 291.627 305.072 Q295.61 306.833 300.026 306.863 Q304.565 306.863 308.641 305.011 Q308.95 304.825 309.135 304.825 Q309.753 304.825 309.784 305.536 Q309.784 305.783 309.259 306.524 Q308.765 307.234 307.684 308.191 Q306.603 309.118 305.213 310.013 Q303.824 310.909 301.786 311.526 Q299.779 312.113 297.555 312.113 Q294.9 312.113 292.182 311.279 L292.182 323.6 Q295.456 320.389 300.211 320.389 Q305.275 320.389 308.765 324.465 Q312.254 328.541 312.254 334.222 Q312.254 340.182 308.116 344.258 Q304.009 348.334 298.451 348.334 Q293.387 348.334 290.175 344.721 Q286.995 341.109 286.995 336.755 Z" fill="#000000" fill-rule="evenodd" fill-opacity="1" /><path clip-path="url(#clip600)" d="M204.825 140.051 Q204.825 130.757 207.172 125.693 Q210.445 118.158 218.165 118.158 Q219.802 118.158 221.5 118.621 Q223.229 119.053 225.391 120.752 Q227.583 122.45 228.911 125.229 Q231.443 130.602 231.443 140.051 Q231.443 149.284 229.096 154.318 Q225.669 161.667 218.103 161.667 Q215.262 161.667 212.36 160.215 Q209.488 158.764 207.666 155.275 Q204.825 150.056 204.825 140.051 M210.075 139.279 Q210.075 148.821 210.754 152.619 Q211.526 156.726 213.626 158.517 Q215.756 160.277 218.103 160.277 Q220.635 160.277 222.735 158.394 Q224.866 156.479 225.514 152.372 Q226.224 148.327 226.194 139.279 Q226.194 130.479 225.576 126.959 Q224.742 122.852 222.519 121.215 Q220.326 119.548 218.103 119.548 Q217.269 119.548 216.374 119.795 Q215.509 120.042 214.243 120.752 Q212.977 121.462 211.989 123.222 Q211.032 124.982 210.569 127.638 Q210.075 131.065 210.075 139.279 Z" fill="#000000" fill-rule="evenodd" fill-opacity="1" /><path clip-path="url(#clip600)" d="M240.305 159.258 Q239.348 158.239 239.348 156.911 Q239.348 155.584 240.305 154.626 Q241.263 153.638 242.714 153.638 Q244.103 153.638 245.03 154.565 Q245.987 155.46 245.987 156.942 Q245.987 158.394 244.968 159.351 Q243.98 160.277 242.714 160.277 Q241.263 160.277 240.305 159.258 Z" fill="#000000" fill-rule="evenodd" fill-opacity="1" /><path clip-path="url(#clip600)" d="M254.695 150.087 Q254.695 148.203 255.714 147.493 Q256.733 146.752 257.814 146.752 Q259.265 146.752 260.099 147.679 Q260.964 148.574 260.964 149.84 Q260.964 151.106 260.099 152.032 Q259.265 152.928 257.814 152.928 Q257.104 152.928 256.733 152.804 Q257.567 155.707 260.099 157.807 Q262.662 159.907 266.028 159.907 Q270.258 159.907 272.79 155.8 Q274.303 153.144 274.303 147.123 Q274.303 141.811 273.161 139.156 Q271.401 135.111 267.788 135.111 Q262.662 135.111 259.636 139.526 Q259.265 140.082 258.833 140.113 Q258.215 140.113 258.061 139.773 Q257.937 139.403 257.937 138.446 L257.937 119.733 Q257.937 118.22 258.555 118.22 Q258.802 118.22 259.327 118.405 Q263.31 120.165 267.726 120.196 Q272.265 120.196 276.341 118.343 Q276.65 118.158 276.835 118.158 Q277.453 118.158 277.484 118.868 Q277.484 119.115 276.959 119.856 Q276.465 120.567 275.384 121.524 Q274.303 122.45 272.914 123.346 Q271.524 124.241 269.486 124.859 Q267.479 125.445 265.256 125.445 Q262.6 125.445 259.883 124.612 L259.883 136.933 Q263.156 133.721 267.911 133.721 Q272.976 133.721 276.465 137.797 Q279.954 141.873 279.954 147.555 Q279.954 153.515 275.816 157.591 Q271.709 161.667 266.151 161.667 Q261.087 161.667 257.876 158.054 Q254.695 154.441 254.695 150.087 Z" fill="#000000" fill-rule="evenodd" fill-opacity="1" /><path clip-path="url(#clip600)" d="M285.636 140.051 Q285.636 130.757 287.983 125.693 Q291.256 118.158 298.976 118.158 Q300.612 118.158 302.311 118.621 Q304.04 119.053 306.202 120.752 Q308.394 122.45 309.722 125.229 Q312.254 130.602 312.254 140.051 Q312.254 149.284 309.907 154.318 Q306.479 161.667 298.914 161.667 Q296.073 161.667 293.171 160.215 Q290.299 158.764 288.477 155.275 Q285.636 150.056 285.636 140.051 M290.885 139.279 Q290.885 148.821 291.565 152.619 Q292.337 156.726 294.437 158.517 Q296.567 160.277 298.914 160.277 Q301.446 160.277 303.546 158.394 Q305.677 156.479 306.325 152.372 Q307.035 148.327 307.004 139.279 Q307.004 130.479 306.387 126.959 Q305.553 122.852 303.33 121.215 Q301.137 119.548 298.914 119.548 Q298.08 119.548 297.185 119.795 Q296.32 120.042 295.054 120.752 Q293.788 121.462 292.8 123.222 Q291.843 124.982 291.38 127.638 Q290.885 131.065 290.885 139.279 Z" fill="#000000" fill-rule="evenodd" fill-opacity="1" /><path clip-path="url(#clip600)" d="M90.1406 808.962 Q90.9194 808.962 91.3293 809.29 Q91.6982 809.577 91.7802 809.864 Q91.8212 810.11 91.8212 810.479 Q91.8212 811.544 91.6982 815.234 Q91.5752 818.923 91.5752 819.988 Q91.5752 821.71 91.6982 825.235 Q91.8212 828.76 91.8212 830.482 Q91.8212 831.629 90.8784 831.629 Q90.2636 831.629 89.9357 831.506 Q89.5668 831.383 89.4438 831.055 Q89.2798 830.686 89.2798 830.482 Q89.2389 830.236 89.2389 829.621 Q89.2389 828.801 89.1569 827.94 Q89.0339 827.079 88.788 826.014 Q88.542 824.948 87.9272 824.292 Q87.3124 823.595 86.4516 823.595 Q86.0827 823.595 83.0495 823.882 Q80.0163 824.169 76.4912 824.538 Q72.9251 824.907 72.4333 824.948 L72.4333 846.016 Q75.7534 847.943 78.0488 849.296 Q80.3442 850.648 81.123 851.14 Q81.9018 851.632 82.3936 851.919 Q82.8855 852.206 83.1724 852.37 Q85.3449 853.558 86.2876 853.558 Q88.9109 853.558 89.2389 849.624 Q89.2389 848.271 90.2226 848.271 Q90.9604 848.271 91.3703 848.599 Q91.7392 848.927 91.7802 849.214 Q91.8212 849.46 91.8212 849.869 Q91.8212 851.222 91.6982 854.05 Q91.5752 856.879 91.5752 858.272 Q91.5752 859.461 91.6982 861.92 Q91.8212 864.38 91.8212 865.486 Q91.8212 865.978 91.5343 866.265 Q91.2473 866.552 90.8784 866.552 Q90.3046 866.552 89.9767 866.47 Q89.6488 866.347 89.4848 866.019 Q89.3208 865.691 89.3208 865.527 Q89.2798 865.363 89.2389 864.79 Q89.0339 861.674 87.5583 859.256 Q86.0417 856.797 82.1477 854.46 L33.1245 825.276 Q32.6327 824.989 32.3867 824.784 Q32.1408 824.579 31.9358 824.169 Q31.7309 823.718 31.7309 823.062 Q31.7309 822.038 32.0588 821.833 Q32.3457 821.628 33.7394 821.505 L86.2057 816.381 Q87.3124 816.258 87.7632 816.176 Q88.1731 816.053 88.624 815.52 Q89.0339 814.947 89.1569 813.922 Q89.2389 812.856 89.2389 810.889 Q89.2389 810.151 89.2798 809.864 Q89.2798 809.577 89.4848 809.29 Q89.6897 808.962 90.1406 808.962 M69.8099 825.194 L42.1422 827.858 L69.8099 844.418 L69.8099 825.194 Z" fill="#000000" fill-rule="evenodd" fill-opacity="1" /><path clip-path="url(#clip600)" d="M86.3295 778.935 Q87.9363 778.935 88.7971 779.738 Q89.6291 780.541 89.6291 781.632 Q89.6291 782.521 89.1127 783.009 Q88.5962 783.468 87.9076 783.468 Q86.9034 783.468 86.1 782.665 Q85.2966 781.832 85.2679 780.627 Q84.2063 781.029 83.575 782.091 Q82.9151 783.152 82.7429 784.099 Q82.5708 785.017 82.5708 785.935 Q82.5708 787.743 83.1446 789.12 Q83.7185 790.498 84.608 791.186 Q85.4687 791.875 86.3008 792.19 Q87.1329 792.506 87.8502 792.506 Q88.4814 792.506 88.9979 792.363 Q89.4857 792.19 89.8587 791.789 Q90.203 791.387 90.4325 791.1 Q90.6621 790.785 90.8629 790.096 Q91.0638 789.407 91.1498 789.12 Q91.2072 788.833 91.3794 788.03 Q91.7237 786.366 91.9245 785.62 Q92.0967 784.874 92.5845 783.898 Q93.0722 782.894 93.8469 782.148 Q95.6546 780.34 98.1508 780.34 Q99.069 780.34 100.188 780.656 Q101.307 780.943 102.713 781.775 Q104.119 782.607 105.238 783.87 Q106.357 785.132 107.132 787.313 Q107.906 789.465 107.906 792.162 Q107.906 795.92 106.328 798.245 Q104.721 800.569 102.196 800.569 Q100.36 800.569 99.3559 799.564 Q98.323 798.56 98.323 797.269 Q98.323 796.293 98.8681 795.691 Q99.3846 795.088 100.36 795.088 Q101.68 795.088 102.684 796.15 Q103.688 797.212 103.488 798.79 Q106.586 797.441 106.586 792.104 Q106.586 790.096 106.07 788.547 Q105.525 786.968 104.779 786.108 Q104.004 785.218 103.057 784.644 Q102.11 784.07 101.393 783.898 Q100.676 783.697 100.131 783.697 Q99.1837 783.697 98.4664 784.07 Q97.7491 784.443 97.3474 784.96 Q96.917 785.448 96.5727 786.395 Q96.1997 787.313 96.0563 787.973 Q95.9128 788.633 95.6833 789.809 Q95.5685 790.354 95.5111 790.698 Q95.425 791.043 95.1955 791.76 Q94.9373 792.449 94.679 792.936 Q94.4208 793.396 93.9617 793.998 Q93.5026 794.601 92.9575 794.974 Q92.4123 795.347 91.6089 795.605 Q90.8055 795.863 89.8587 795.863 Q88.9979 795.863 87.965 795.605 Q86.9321 795.318 85.727 794.601 Q84.5219 793.855 83.5463 792.793 Q82.5708 791.731 81.9396 789.952 Q81.2796 788.145 81.2796 785.935 Q81.2796 782.722 82.7716 780.828 Q84.235 778.935 86.3295 778.935 Z" fill="#000000" fill-rule="evenodd" fill-opacity="1" /><path clip-path="url(#clip600)" d="M100.446 751.174 Q100.704 750.945 100.963 750.945 Q101.221 750.945 101.967 751.519 Q102.713 752.064 103.717 753.24 Q104.721 754.417 105.668 755.937 Q106.615 757.458 107.246 759.696 Q107.906 761.934 107.906 764.287 Q107.906 768.505 104.894 771.03 Q101.881 773.526 97.2614 773.526 Q94.306 773.526 91.695 772.55 Q89.0553 771.575 87.1903 769.997 Q85.3253 768.39 83.9767 766.381 Q82.5995 764.344 81.9396 762.221 Q81.2796 760.098 81.2796 758.118 Q81.2796 755.22 82.7429 753.527 Q84.2063 751.834 86.2721 751.834 Q86.7599 751.834 87.3624 751.978 Q87.965 752.093 88.9118 752.494 Q89.8587 752.867 90.8055 753.843 Q91.7237 754.818 92.3262 756.253 Q93.6748 759.438 93.6748 765.234 L93.6748 768.361 Q97.3761 769.279 99.7863 769.279 Q100.733 769.279 101.709 769.107 Q102.656 768.935 103.861 768.476 Q105.066 767.988 105.84 766.898 Q106.586 765.779 106.586 764.172 Q106.586 763.656 106.558 763.111 Q106.529 762.537 106.213 761.102 Q105.898 759.639 105.353 758.348 Q104.807 757.056 103.631 755.421 Q102.426 753.757 100.791 752.437 Q100.188 751.978 100.188 751.662 Q100.188 751.404 100.446 751.174 M86.2721 753.785 Q84.694 753.785 83.6324 754.962 Q82.5708 756.11 82.5708 758.118 Q82.5708 758.749 82.7143 759.524 Q82.8577 760.299 83.4603 761.59 Q84.0628 762.852 85.067 763.971 Q86.0426 765.09 87.965 766.209 Q89.8587 767.328 92.3836 767.988 L92.3836 765.578 Q92.3836 764.746 92.3836 764.143 Q92.3549 763.541 92.2402 762.221 Q92.1254 760.873 91.9245 759.897 Q91.695 758.921 91.2359 757.688 Q90.7768 756.454 90.1743 755.679 Q89.5431 754.876 88.5388 754.331 Q87.5346 753.785 86.2721 753.785 Z" fill="#000000" fill-rule="evenodd" fill-opacity="1" /><path clip-path="url(#clip600)" d="M30.9628 752.423 Q31.1923 752.423 32.0818 752.681 Q32.9713 752.939 34.3485 753.57 Q35.7258 754.173 36.9882 755.034 Q38.222 755.866 39.1402 757.243 Q40.0296 758.592 40.0296 760.141 Q40.0296 762.207 38.6524 763.584 Q37.2751 764.961 35.2093 764.961 Q34.0903 764.961 31.967 764.187 Q22.269 760.543 18.7972 760.543 Q14.6942 760.543 14.6942 763.728 Q14.6942 765.535 15.4402 767.171 Q16.1862 768.806 17.2191 769.868 Q18.252 770.929 19.4284 771.761 Q20.6048 772.593 21.3795 772.966 Q22.1542 773.311 22.4985 773.397 L36.6726 776.926 Q37.8777 777.213 38.4515 777.414 Q39.0254 777.615 39.5132 778.16 Q40.0296 778.705 40.0296 779.566 Q40.0296 780.283 39.5992 780.8 Q39.1689 781.287 38.4228 781.287 Q38.3081 781.287 37.7055 781.144 Q37.103 781 36.2709 780.8 Q35.4388 780.599 34.9511 780.513 Q31.0489 779.48 30.5037 779.336 L23.6749 777.701 Q20.2892 776.811 18.7972 776.811 Q14.6942 776.811 14.6942 779.996 Q14.6942 781.574 15.2967 783.066 Q15.8705 784.53 16.6739 785.534 Q17.4773 786.538 18.5963 787.456 Q19.6866 788.346 20.4327 788.805 Q21.15 789.235 21.8673 789.579 L24.7939 790.325 Q25.5973 790.498 28.7248 791.33 L34.0329 792.621 Q37.9925 793.539 38.3655 793.74 Q39.1689 794.027 39.5992 794.658 Q40.0296 795.289 40.0296 795.92 Q40.0296 796.638 39.5992 797.126 Q39.1689 797.613 38.4228 797.613 Q38.3081 797.613 37.8777 797.527 Q37.4473 797.441 36.8448 797.298 Q36.2422 797.154 35.8979 797.097 L22.3264 793.682 Q19.8588 793.051 19.0841 792.908 Q18.2807 792.736 17.3912 792.736 Q14.6942 792.736 14.6942 794.572 Q14.6942 796.064 16.4731 797.039 Q18.252 798.015 21.6951 798.847 Q22.642 799.105 22.8428 799.278 Q23.0437 799.421 23.0437 799.851 Q23.015 800.569 22.4411 800.569 Q22.2977 800.569 21.3795 800.339 Q20.4613 800.11 19.0841 799.679 Q17.6782 799.22 16.76 798.732 Q16.1575 798.445 15.7558 798.187 Q15.3541 797.929 14.7228 797.412 Q14.0916 796.896 13.7473 796.121 Q13.403 795.347 13.403 794.4 Q13.403 792.305 14.7515 790.756 Q16.1001 789.178 18.5103 788.977 Q13.403 785.161 13.403 779.824 Q13.403 776.811 14.9237 775.004 Q16.387 773.311 19.0841 773.11 Q13.403 769.15 13.403 763.527 Q13.403 760.284 15.0958 758.534 Q16.76 756.784 19.6866 756.784 Q21.2073 756.784 24.1053 757.559 Q26.9745 758.333 28.4092 758.85 Q29.8438 759.366 32.5983 760.37 Q35.238 761.432 36.7874 761.432 Q37.7916 761.432 38.2507 761.088 Q38.7098 760.743 38.7098 759.997 Q38.7098 758.85 38.0498 757.846 Q37.3612 756.841 36.2422 756.124 Q35.0945 755.378 33.9468 754.89 Q32.7704 754.402 31.4506 754.029 Q30.7333 753.8 30.5611 753.685 Q30.3889 753.542 30.3889 753.14 Q30.3889 752.423 30.9628 752.423 Z" fill="#000000" fill-rule="evenodd" fill-opacity="1" /><path clip-path="url(#clip600)" d="M32.5696 725.9 Q32.8278 725.671 33.086 725.671 Q33.3443 725.671 34.0903 726.244 Q34.8363 726.79 35.8405 727.966 Q36.8448 729.142 37.7916 730.663 Q38.7385 732.184 39.3697 734.422 Q40.0296 736.66 40.0296 739.013 Q40.0296 743.403 37.1317 745.985 Q34.2337 748.539 30.0733 748.539 Q26.0277 748.539 22.1542 746.272 Q18.252 744.005 15.8419 740.332 Q13.403 736.66 13.403 732.786 Q13.403 729.716 14.8376 727.794 Q16.2722 725.871 18.4529 725.871 Q20.1457 725.871 21.1787 726.847 Q22.2116 727.823 22.2116 729.142 Q22.2116 730.061 21.6951 730.692 Q21.15 731.323 20.1457 731.323 Q18.8546 731.323 17.8503 730.261 Q17.4486 729.86 17.2765 729.401 Q17.0756 728.913 17.0756 728.626 Q17.0469 728.339 17.0469 727.679 Q15.9279 728.282 15.3254 729.716 Q14.6942 731.122 14.6942 732.729 Q14.6942 735.11 16.3583 737.377 Q17.9938 739.644 20.5761 741.021 Q23.1011 742.398 26.6876 743.288 Q30.2455 744.177 32.3113 744.177 Q35.1519 744.177 36.9308 742.857 Q38.7098 741.538 38.7098 738.898 Q38.7098 738.381 38.6811 737.836 Q38.6524 737.262 38.3368 735.828 Q38.0212 734.364 37.476 733.073 Q36.9308 731.782 35.7544 730.147 Q34.5494 728.482 32.9139 727.163 Q32.3113 726.704 32.3113 726.388 Q32.3113 726.13 32.5696 725.9 Z" fill="#000000" fill-rule="evenodd" fill-opacity="1" /><path clip-path="url(#clip600)" d="M111.619 714.403 Q111.209 714.403 110.307 714.075 L31.1161 684.44 Q31.0341 684.44 30.5832 684.235 Q30.1323 684.03 29.8454 683.907 Q29.5175 683.784 29.2715 683.538 Q29.0256 683.251 29.0256 682.923 Q29.0256 682.104 30.0503 682.104 Q30.1323 682.104 31.1161 682.35 L110.389 712.067 Q111.824 712.559 112.234 712.887 Q112.644 713.174 112.644 713.665 Q112.644 714.403 111.619 714.403 Z" fill="#000000" fill-rule="evenodd" fill-opacity="1" /><path clip-path="url(#clip600)" d="M90.1406 615.247 Q90.9194 615.247 91.3293 615.575 Q91.6982 615.862 91.7802 616.149 Q91.8212 616.395 91.8212 616.764 Q91.8212 617.829 91.6982 621.518 Q91.5752 625.207 91.5752 626.273 Q91.5752 627.995 91.6982 631.52 Q91.8212 635.045 91.8212 636.766 Q91.8212 637.914 90.8784 637.914 Q90.2636 637.914 89.9357 637.791 Q89.5668 637.668 89.4438 637.34 Q89.2798 636.971 89.2798 636.766 Q89.2389 636.52 89.2389 635.906 Q89.2389 635.086 89.1569 634.225 Q89.0339 633.364 88.788 632.298 Q88.542 631.233 87.9272 630.577 Q87.3124 629.88 86.4516 629.88 Q86.0827 629.88 83.0495 630.167 Q80.0163 630.454 76.4912 630.823 Q72.9251 631.192 72.4333 631.233 L72.4333 652.301 Q75.7534 654.228 78.0488 655.58 Q80.3442 656.933 81.123 657.425 Q81.9018 657.917 82.3936 658.204 Q82.8855 658.491 83.1724 658.655 Q85.3449 659.843 86.2876 659.843 Q88.9109 659.843 89.2389 655.908 Q89.2389 654.556 90.2226 654.556 Q90.9604 654.556 91.3703 654.884 Q91.7392 655.211 91.7802 655.498 Q91.8212 655.744 91.8212 656.154 Q91.8212 657.507 91.6982 660.335 Q91.5752 663.163 91.5752 664.557 Q91.5752 665.746 91.6982 668.205 Q91.8212 670.664 91.8212 671.771 Q91.8212 672.263 91.5343 672.55 Q91.2473 672.837 90.8784 672.837 Q90.3046 672.837 89.9767 672.755 Q89.6488 672.632 89.4848 672.304 Q89.3208 671.976 89.3208 671.812 Q89.2798 671.648 89.2389 671.074 Q89.0339 667.959 87.5583 665.541 Q86.0417 663.081 82.1477 660.745 L33.1245 631.561 Q32.6327 631.274 32.3867 631.069 Q32.1408 630.864 31.9358 630.454 Q31.7309 630.003 31.7309 629.347 Q31.7309 628.322 32.0588 628.118 Q32.3457 627.913 33.7394 627.79 L86.2057 622.666 Q87.3124 622.543 87.7632 622.461 Q88.1731 622.338 88.624 621.805 Q89.0339 621.231 89.1569 620.207 Q89.2389 619.141 89.2389 617.173 Q89.2389 616.436 89.2798 616.149 Q89.2798 615.862 89.4848 615.575 Q89.6897 615.247 90.1406 615.247 M69.8099 631.479 L42.1422 634.143 L69.8099 650.703 L69.8099 631.479 Z" fill="#000000" fill-rule="evenodd" fill-opacity="1" /><path clip-path="url(#clip600)" d="M86.3295 585.219 Q87.9363 585.219 88.7971 586.023 Q89.6291 586.826 89.6291 587.916 Q89.6291 588.806 89.1127 589.294 Q88.5962 589.753 87.9076 589.753 Q86.9034 589.753 86.1 588.949 Q85.2966 588.117 85.2679 586.912 Q84.2063 587.314 83.575 588.375 Q82.9151 589.437 82.7429 590.384 Q82.5708 591.302 82.5708 592.22 Q82.5708 594.028 83.1446 595.405 Q83.7185 596.782 84.608 597.471 Q85.4687 598.16 86.3008 598.475 Q87.1329 598.791 87.8502 598.791 Q88.4814 598.791 88.9979 598.647 Q89.4857 598.475 89.8587 598.074 Q90.203 597.672 90.4325 597.385 Q90.6621 597.069 90.8629 596.381 Q91.0638 595.692 91.1498 595.405 Q91.2072 595.118 91.3794 594.315 Q91.7237 592.651 91.9245 591.905 Q92.0967 591.159 92.5845 590.183 Q93.0722 589.179 93.8469 588.433 Q95.6546 586.625 98.1508 586.625 Q99.069 586.625 100.188 586.941 Q101.307 587.228 102.713 588.06 Q104.119 588.892 105.238 590.154 Q106.357 591.417 107.132 593.597 Q107.906 595.749 107.906 598.447 Q107.906 602.205 106.328 604.529 Q104.721 606.853 102.196 606.853 Q100.36 606.853 99.3559 605.849 Q98.323 604.845 98.323 603.554 Q98.323 602.578 98.8681 601.976 Q99.3846 601.373 100.36 601.373 Q101.68 601.373 102.684 602.435 Q103.688 603.496 103.488 605.074 Q106.586 603.726 106.586 598.389 Q106.586 596.381 106.07 594.831 Q105.525 593.253 104.779 592.392 Q104.004 591.503 103.057 590.929 Q102.11 590.355 101.393 590.183 Q100.676 589.982 100.131 589.982 Q99.1837 589.982 98.4664 590.355 Q97.7491 590.728 97.3474 591.245 Q96.917 591.732 96.5727 592.679 Q96.1997 593.597 96.0563 594.257 Q95.9128 594.917 95.6833 596.094 Q95.5685 596.639 95.5111 596.983 Q95.425 597.327 95.1955 598.045 Q94.9373 598.733 94.679 599.221 Q94.4208 599.68 93.9617 600.283 Q93.5026 600.885 92.9575 601.258 Q92.4123 601.631 91.6089 601.89 Q90.8055 602.148 89.8587 602.148 Q88.9979 602.148 87.965 601.89 Q86.9321 601.603 85.727 600.885 Q84.5219 600.139 83.5463 599.078 Q82.5708 598.016 81.9396 596.237 Q81.2796 594.43 81.2796 592.22 Q81.2796 589.007 82.7716 587.113 Q84.235 585.219 86.3295 585.219 Z" fill="#000000" fill-rule="evenodd" fill-opacity="1" /><path clip-path="url(#clip600)" d="M100.446 557.459 Q100.704 557.23 100.963 557.23 Q101.221 557.23 101.967 557.804 Q102.713 558.349 103.717 559.525 Q104.721 560.701 105.668 562.222 Q106.615 563.743 107.246 565.981 Q107.906 568.219 107.906 570.572 Q107.906 574.789 104.894 577.314 Q101.881 579.811 97.2614 579.811 Q94.306 579.811 91.695 578.835 Q89.0553 577.86 87.1903 576.281 Q85.3253 574.675 83.9767 572.666 Q82.5995 570.629 81.9396 568.506 Q81.2796 566.383 81.2796 564.403 Q81.2796 561.505 82.7429 559.812 Q84.2063 558.119 86.2721 558.119 Q86.7599 558.119 87.3624 558.263 Q87.965 558.377 88.9118 558.779 Q89.8587 559.152 90.8055 560.128 Q91.7237 561.103 92.3262 562.538 Q93.6748 565.723 93.6748 571.519 L93.6748 574.646 Q97.3761 575.564 99.7863 575.564 Q100.733 575.564 101.709 575.392 Q102.656 575.22 103.861 574.761 Q105.066 574.273 105.84 573.183 Q106.586 572.064 106.586 570.457 Q106.586 569.94 106.558 569.395 Q106.529 568.821 106.213 567.387 Q105.898 565.923 105.353 564.632 Q104.807 563.341 103.631 561.706 Q102.426 560.042 100.791 558.722 Q100.188 558.263 100.188 557.947 Q100.188 557.689 100.446 557.459 M86.2721 560.07 Q84.694 560.07 83.6324 561.247 Q82.5708 562.394 82.5708 564.403 Q82.5708 565.034 82.7143 565.809 Q82.8577 566.583 83.4603 567.875 Q84.0628 569.137 85.067 570.256 Q86.0426 571.375 87.965 572.494 Q89.8587 573.613 92.3836 574.273 L92.3836 571.863 Q92.3836 571.031 92.3836 570.428 Q92.3549 569.826 92.2402 568.506 Q92.1254 567.157 91.9245 566.182 Q91.695 565.206 91.2359 563.972 Q90.7768 562.739 90.1743 561.964 Q89.5431 561.161 88.5388 560.615 Q87.5346 560.07 86.2721 560.07 Z" fill="#000000" fill-rule="evenodd" fill-opacity="1" /><path clip-path="url(#clip600)" d="M69.646 465.037 Q70.1379 464.546 70.8347 464.546 Q71.5315 464.546 72.0234 465.037 Q72.5152 465.529 72.5152 466.226 L72.5152 518.774 Q72.5152 519.471 72.0234 519.963 Q71.5315 520.455 70.8347 520.455 Q70.1379 520.455 69.646 519.963 Q69.1541 519.471 69.1541 518.774 L69.1541 466.226 Q69.1541 465.529 69.646 465.037 Z" fill="#000000" fill-rule="evenodd" fill-opacity="1" /><path clip-path="url(#clip600)" d="M43.9047 432.503 L41.2814 432.503 Q41.2814 422.42 35.9118 417.214 Q35.9118 415.78 36.2397 415.534 Q36.5676 415.288 38.0842 415.288 L85.1809 415.288 Q87.6813 415.288 88.4601 414.058 Q89.2389 412.829 89.2389 407.459 L89.2389 404.795 L91.8212 404.795 Q91.5752 407.746 91.5752 418.403 Q91.5752 429.06 91.8212 431.971 L89.2389 431.971 L89.2389 429.306 Q89.2389 424.019 88.5011 422.748 Q87.7223 421.477 85.1809 421.477 L41.6913 421.477 Q43.9047 425.863 43.9047 432.503 Z" fill="#000000" fill-rule="evenodd" fill-opacity="1" /><path clip-path="url(#clip600)" d="M70.8347 368.758 Q56.6524 368.758 45.2164 363.47 Q40.4206 361.216 36.4037 358.06 Q32.3867 354.904 30.6242 352.813 Q28.8617 350.723 28.8617 350.149 Q28.8617 349.329 29.6814 349.288 Q30.0913 349.288 31.1161 350.395 Q44.8885 363.921 70.8347 363.88 Q96.8629 363.88 110.102 350.723 Q111.537 349.288 111.988 349.288 Q112.808 349.288 112.808 350.149 Q112.808 350.723 111.127 352.731 Q109.447 354.74 105.594 357.855 Q101.741 360.97 97.0268 363.224 Q85.5908 368.758 70.8347 368.758 Z" fill="#000000" fill-rule="evenodd" fill-opacity="1" /><path clip-path="url(#clip600)" d="M45.7492 341.568 Q38.5351 341.568 33.6984 337.879 Q28.8617 334.19 28.8617 329.23 Q28.8617 326.197 31.5669 323.205 Q38.0432 316.4 38.0023 307.506 Q38.0023 297.422 30.0503 291.561 Q28.8617 290.536 28.8617 289.798 Q28.8617 289.142 29.3945 288.651 Q29.8864 288.118 30.5422 288.118 Q31.0341 288.118 32.0588 288.774 L95.2643 331.238 Q96.5349 332.181 96.5349 332.919 Q96.5349 333.575 96.0021 334.108 Q95.5102 334.6 94.8544 334.6 Q94.2805 334.6 93.1738 333.862 L37.0185 296.152 L36.9365 296.234 Q39.8878 300.578 39.8468 307.424 Q39.8468 313.9 36.3217 320.089 Q40.6666 318.327 45.8312 318.327 Q52.8814 318.327 57.8001 321.483 Q62.6778 324.639 62.6778 329.23 Q62.6778 334.19 57.923 337.879 Q53.1273 341.568 45.7492 341.568 M38.904 335.788 Q41.8553 336.362 45.8312 336.362 Q49.7662 336.362 52.7174 335.788 Q55.6276 335.214 57.1443 334.395 Q58.6609 333.534 59.5626 332.386 Q60.4234 331.238 60.6283 330.542 Q60.8333 329.845 60.8333 329.148 Q60.8333 325.705 56.5704 323.082 Q52.2665 320.417 45.7492 320.417 Q39.3549 320.417 35.051 323.082 Q30.7062 325.705 30.7062 329.148 Q30.7062 329.886 30.9111 330.624 Q31.1161 331.32 32.0178 332.427 Q32.8786 333.534 34.3952 334.395 Q35.9118 335.214 38.904 335.788 M79.5654 304.39 Q72.3513 304.39 67.5145 300.701 Q62.6778 297.012 62.6778 292.053 Q62.6778 287.503 67.5965 284.347 Q72.5152 281.15 79.6474 281.15 Q86.6975 281.15 91.6162 284.306 Q96.5349 287.421 96.5349 292.053 Q96.5349 297.012 91.7392 300.701 Q86.9435 304.39 79.5654 304.39 M72.7202 298.611 Q75.7124 299.185 79.6474 299.185 Q83.5823 299.185 86.5336 298.611 Q89.4848 297.996 91.0014 297.176 Q92.477 296.316 93.3378 295.209 Q94.2395 294.061 94.4445 293.364 Q94.6904 292.627 94.6904 291.971 Q94.6904 288.528 90.4275 285.904 Q86.1237 283.24 79.5654 283.24 Q73.1711 283.24 68.8672 285.904 Q64.5223 288.528 64.5223 291.971 Q64.5223 292.708 64.7683 293.446 Q64.9732 294.143 65.875 295.25 Q66.7357 296.316 68.2523 297.176 Q69.728 297.996 72.7202 298.611 Z" fill="#000000" fill-rule="evenodd" fill-opacity="1" /><path clip-path="url(#clip600)" d="M111.988 270.342 Q111.578 270.342 110.553 269.276 Q96.7809 255.75 70.8347 255.75 Q44.8065 255.75 31.6489 268.743 Q30.1323 270.342 29.6814 270.342 Q28.8617 270.342 28.8617 269.522 Q28.8617 268.948 30.5422 266.94 Q32.2228 264.89 36.0758 261.816 Q39.9288 258.701 44.6425 256.406 Q56.0785 250.872 70.8347 250.872 Q85.017 250.872 96.453 256.16 Q101.249 258.414 105.266 261.57 Q109.283 264.727 111.045 266.817 Q112.808 268.907 112.808 269.522 Q112.808 270.342 111.988 270.342 Z" fill="#000000" fill-rule="evenodd" fill-opacity="1" /><polyline clip-path="url(#clip603)" style="stroke:#009af9; stroke-linecap:round; stroke-linejoin:round; stroke-width:8; stroke-opacity:1; fill:none" points="
  454.655,560.061 609.745,504.032 764.835,616.585 919.925,462.795 1075.01,490.804 1230.1,503.863 1385.19,475.147 1540.28,462.609 1695.37,482.02 1850.46,509.724 
  2005.55,521.307 2160.64,524.546 2315.73,495.389 2470.82,502.583 2625.91,515.016 2781,498.707 2936.09,521.291 3091.18,512.829 3246.27,524.393 3401.36,514.79 
  
  "/>
<circle clip-path="url(#clip603)" cx="454.655" cy="560.061" r="18" fill="#009af9" fill-rule="evenodd" fill-opacity="1" stroke="#000000" stroke-opacity="1" stroke-width="3.6"/>
<circle clip-path="url(#clip603)" cx="609.745" cy="504.032" r="18" fill="#009af9" fill-rule="evenodd" fill-opacity="1" stroke="#000000" stroke-opacity="1" stroke-width="3.6"/>
<circle clip-path="url(#clip603)" cx="764.835" cy="616.585" r="18" fill="#009af9" fill-rule="evenodd" fill-opacity="1" stroke="#000000" stroke-opacity="1" stroke-width="3.6"/>
<circle clip-path="url(#clip603)" cx="919.925" cy="462.795" r="18" fill="#009af9" fill-rule="evenodd" fill-opacity="1" stroke="#000000" stroke-opacity="1" stroke-width="3.6"/>
<circle clip-path="url(#clip603)" cx="1075.01" cy="490.804" r="18" fill="#009af9" fill-rule="evenodd" fill-opacity="1" stroke="#000000" stroke-opacity="1" stroke-width="3.6"/>
<circle clip-path="url(#clip603)" cx="1230.1" cy="503.863" r="18" fill="#009af9" fill-rule="evenodd" fill-opacity="1" stroke="#000000" stroke-opacity="1" stroke-width="3.6"/>
<circle clip-path="url(#clip603)" cx="1385.19" cy="475.147" r="18" fill="#009af9" fill-rule="evenodd" fill-opacity="1" stroke="#000000" stroke-opacity="1" stroke-width="3.6"/>
<circle clip-path="url(#clip603)" cx="1540.28" cy="462.609" r="18" fill="#009af9" fill-rule="evenodd" fill-opacity="1" stroke="#000000" stroke-opacity="1" stroke-width="3.6"/>
<circle clip-path="url(#clip603)" cx="1695.37" cy="482.02" r="18" fill="#009af9" fill-rule="evenodd" fill-opacity="1" stroke="#000000" stroke-opacity="1" stroke-width="3.6"/>
<circle clip-path="url(#clip603)" cx="1850.46" cy="509.724" r="18" fill="#009af9" fill-rule="evenodd" fill-opacity="1" stroke="#000000" stroke-opacity="1" stroke-width="3.6"/>
<circle clip-path="url(#clip603)" cx="2005.55" cy="521.307" r="18" fill="#009af9" fill-rule="evenodd" fill-opacity="1" stroke="#000000" stroke-opacity="1" stroke-width="3.6"/>
<circle clip-path="url(#clip603)" cx="2160.64" cy="524.546" r="18" fill="#009af9" fill-rule="evenodd" fill-opacity="1" stroke="#000000" stroke-opacity="1" stroke-width="3.6"/>
<circle clip-path="url(#clip603)" cx="2315.73" cy="495.389" r="18" fill="#009af9" fill-rule="evenodd" fill-opacity="1" stroke="#000000" stroke-opacity="1" stroke-width="3.6"/>
<circle clip-path="url(#clip603)" cx="2470.82" cy="502.583" r="18" fill="#009af9" fill-rule="evenodd" fill-opacity="1" stroke="#000000" stroke-opacity="1" stroke-width="3.6"/>
<circle clip-path="url(#clip603)" cx="2625.91" cy="515.016" r="18" fill="#009af9" fill-rule="evenodd" fill-opacity="1" stroke="#000000" stroke-opacity="1" stroke-width="3.6"/>
<circle clip-path="url(#clip603)" cx="2781" cy="498.707" r="18" fill="#009af9" fill-rule="evenodd" fill-opacity="1" stroke="#000000" stroke-opacity="1" stroke-width="3.6"/>
<circle clip-path="url(#clip603)" cx="2936.09" cy="521.291" r="18" fill="#009af9" fill-rule="evenodd" fill-opacity="1" stroke="#000000" stroke-opacity="1" stroke-width="3.6"/>
<circle clip-path="url(#clip603)" cx="3091.18" cy="512.829" r="18" fill="#009af9" fill-rule="evenodd" fill-opacity="1" stroke="#000000" stroke-opacity="1" stroke-width="3.6"/>
<circle clip-path="url(#clip603)" cx="3246.27" cy="524.393" r="18" fill="#009af9" fill-rule="evenodd" fill-opacity="1" stroke="#000000" stroke-opacity="1" stroke-width="3.6"/>
<circle clip-path="url(#clip603)" cx="3401.36" cy="514.79" r="18" fill="#009af9" fill-rule="evenodd" fill-opacity="1" stroke="#000000" stroke-opacity="1" stroke-width="3.6"/>
<polyline clip-path="url(#clip603)" style="stroke:#000000; stroke-linecap:round; stroke-linejoin:round; stroke-width:6; stroke-opacity:1; fill:none" points="
  454.655,969.403 454.655,150.719 
  "/>
<polyline clip-path="url(#clip603)" style="stroke:#000000; stroke-linecap:round; stroke-linejoin:round; stroke-width:6; stroke-opacity:1; fill:none" points="
  609.745,872.803 609.745,135.261 
  "/>
<polyline clip-path="url(#clip603)" style="stroke:#000000; stroke-linecap:round; stroke-linejoin:round; stroke-width:6; stroke-opacity:1; fill:none" points="
  764.835,909.732 764.835,323.439 
  "/>
<polyline clip-path="url(#clip603)" style="stroke:#000000; stroke-linecap:round; stroke-linejoin:round; stroke-width:6; stroke-opacity:1; fill:none" points="
  919.925,646.615 919.925,278.975 
  "/>
<polyline clip-path="url(#clip603)" style="stroke:#000000; stroke-linecap:round; stroke-linejoin:round; stroke-width:6; stroke-opacity:1; fill:none" points="
  1075.01,686.824 1075.01,294.784 
  "/>
<polyline clip-path="url(#clip603)" style="stroke:#000000; stroke-linecap:round; stroke-linejoin:round; stroke-width:6; stroke-opacity:1; fill:none" points="
  1230.1,672.352 1230.1,335.374 
  "/>
<polyline clip-path="url(#clip603)" style="stroke:#000000; stroke-linecap:round; stroke-linejoin:round; stroke-width:6; stroke-opacity:1; fill:none" points="
  1385.19,596.532 1385.19,353.762 
  "/>
<polyline clip-path="url(#clip603)" style="stroke:#000000; stroke-linecap:round; stroke-linejoin:round; stroke-width:6; stroke-opacity:1; fill:none" points="
  1540.28,590.674 1540.28,334.544 
  "/>
<polyline clip-path="url(#clip603)" style="stroke:#000000; stroke-linecap:round; stroke-linejoin:round; stroke-width:6; stroke-opacity:1; fill:none" points="
  1695.37,617.722 1695.37,346.318 
  "/>
<polyline clip-path="url(#clip603)" style="stroke:#000000; stroke-linecap:round; stroke-linejoin:round; stroke-width:6; stroke-opacity:1; fill:none" points="
  1850.46,634.133 1850.46,385.316 
  "/>
<polyline clip-path="url(#clip603)" style="stroke:#000000; stroke-linecap:round; stroke-linejoin:round; stroke-width:6; stroke-opacity:1; fill:none" points="
  2005.55,637.256 2005.55,405.359 
  "/>
<polyline clip-path="url(#clip603)" style="stroke:#000000; stroke-linecap:round; stroke-linejoin:round; stroke-width:6; stroke-opacity:1; fill:none" points="
  2160.64,633.642 2160.64,415.451 
  "/>
<polyline clip-path="url(#clip603)" style="stroke:#000000; stroke-linecap:round; stroke-linejoin:round; stroke-width:6; stroke-opacity:1; fill:none" points="
  2315.73,598.108 2315.73,392.669 
  "/>
<polyline clip-path="url(#clip603)" style="stroke:#000000; stroke-linecap:round; stroke-linejoin:round; stroke-width:6; stroke-opacity:1; fill:none" points="
  2470.82,616.351 2470.82,388.814 
  "/>
<polyline clip-path="url(#clip603)" style="stroke:#000000; stroke-linecap:round; stroke-linejoin:round; stroke-width:6; stroke-opacity:1; fill:none" points="
  2625.91,613.612 2625.91,416.42 
  "/>
<polyline clip-path="url(#clip603)" style="stroke:#000000; stroke-linecap:round; stroke-linejoin:round; stroke-width:6; stroke-opacity:1; fill:none" points="
  2781,599.603 2781,397.811 
  "/>
<polyline clip-path="url(#clip603)" style="stroke:#000000; stroke-linecap:round; stroke-linejoin:round; stroke-width:6; stroke-opacity:1; fill:none" points="
  2936.09,605.787 2936.09,436.795 
  "/>
<polyline clip-path="url(#clip603)" style="stroke:#000000; stroke-linecap:round; stroke-linejoin:round; stroke-width:6; stroke-opacity:1; fill:none" points="
  3091.18,597.527 3091.18,428.131 
  "/>
<polyline clip-path="url(#clip603)" style="stroke:#000000; stroke-linecap:round; stroke-linejoin:round; stroke-width:6; stroke-opacity:1; fill:none" points="
  3246.27,596.121 3246.27,452.665 
  "/>
<polyline clip-path="url(#clip603)" style="stroke:#000000; stroke-linecap:round; stroke-linejoin:round; stroke-width:6; stroke-opacity:1; fill:none" points="
  3401.36,575.33 3401.36,454.249 
  "/>
<line clip-path="url(#clip603)" x1="474.655" y1="969.403" x2="434.655" y2="969.403" style="stroke:#000000; stroke-width:3.6; stroke-opacity:1"/>
<line clip-path="url(#clip603)" x1="474.655" y1="150.719" x2="434.655" y2="150.719" style="stroke:#000000; stroke-width:3.6; stroke-opacity:1"/>
<line clip-path="url(#clip603)" x1="629.745" y1="872.803" x2="589.745" y2="872.803" style="stroke:#000000; stroke-width:3.6; stroke-opacity:1"/>
<line clip-path="url(#clip603)" x1="629.745" y1="135.261" x2="589.745" y2="135.261" style="stroke:#000000; stroke-width:3.6; stroke-opacity:1"/>
<line clip-path="url(#clip603)" x1="784.835" y1="909.732" x2="744.835" y2="909.732" style="stroke:#000000; stroke-width:3.6; stroke-opacity:1"/>
<line clip-path="url(#clip603)" x1="784.835" y1="323.439" x2="744.835" y2="323.439" style="stroke:#000000; stroke-width:3.6; stroke-opacity:1"/>
<line clip-path="url(#clip603)" x1="939.925" y1="646.615" x2="899.925" y2="646.615" style="stroke:#000000; stroke-width:3.6; stroke-opacity:1"/>
<line clip-path="url(#clip603)" x1="939.925" y1="278.975" x2="899.925" y2="278.975" style="stroke:#000000; stroke-width:3.6; stroke-opacity:1"/>
<line clip-path="url(#clip603)" x1="1095.01" y1="686.824" x2="1055.01" y2="686.824" style="stroke:#000000; stroke-width:3.6; stroke-opacity:1"/>
<line clip-path="url(#clip603)" x1="1095.01" y1="294.784" x2="1055.01" y2="294.784" style="stroke:#000000; stroke-width:3.6; stroke-opacity:1"/>
<line clip-path="url(#clip603)" x1="1250.1" y1="672.352" x2="1210.1" y2="672.352" style="stroke:#000000; stroke-width:3.6; stroke-opacity:1"/>
<line clip-path="url(#clip603)" x1="1250.1" y1="335.374" x2="1210.1" y2="335.374" style="stroke:#000000; stroke-width:3.6; stroke-opacity:1"/>
<line clip-path="url(#clip603)" x1="1405.19" y1="596.532" x2="1365.19" y2="596.532" style="stroke:#000000; stroke-width:3.6; stroke-opacity:1"/>
<line clip-path="url(#clip603)" x1="1405.19" y1="353.762" x2="1365.19" y2="353.762" style="stroke:#000000; stroke-width:3.6; stroke-opacity:1"/>
<line clip-path="url(#clip603)" x1="1560.28" y1="590.674" x2="1520.28" y2="590.674" style="stroke:#000000; stroke-width:3.6; stroke-opacity:1"/>
<line clip-path="url(#clip603)" x1="1560.28" y1="334.544" x2="1520.28" y2="334.544" style="stroke:#000000; stroke-width:3.6; stroke-opacity:1"/>
<line clip-path="url(#clip603)" x1="1715.37" y1="617.722" x2="1675.37" y2="617.722" style="stroke:#000000; stroke-width:3.6; stroke-opacity:1"/>
<line clip-path="url(#clip603)" x1="1715.37" y1="346.318" x2="1675.37" y2="346.318" style="stroke:#000000; stroke-width:3.6; stroke-opacity:1"/>
<line clip-path="url(#clip603)" x1="1870.46" y1="634.133" x2="1830.46" y2="634.133" style="stroke:#000000; stroke-width:3.6; stroke-opacity:1"/>
<line clip-path="url(#clip603)" x1="1870.46" y1="385.316" x2="1830.46" y2="385.316" style="stroke:#000000; stroke-width:3.6; stroke-opacity:1"/>
<line clip-path="url(#clip603)" x1="2025.55" y1="637.256" x2="1985.55" y2="637.256" style="stroke:#000000; stroke-width:3.6; stroke-opacity:1"/>
<line clip-path="url(#clip603)" x1="2025.55" y1="405.359" x2="1985.55" y2="405.359" style="stroke:#000000; stroke-width:3.6; stroke-opacity:1"/>
<line clip-path="url(#clip603)" x1="2180.64" y1="633.642" x2="2140.64" y2="633.642" style="stroke:#000000; stroke-width:3.6; stroke-opacity:1"/>
<line clip-path="url(#clip603)" x1="2180.64" y1="415.451" x2="2140.64" y2="415.451" style="stroke:#000000; stroke-width:3.6; stroke-opacity:1"/>
<line clip-path="url(#clip603)" x1="2335.73" y1="598.108" x2="2295.73" y2="598.108" style="stroke:#000000; stroke-width:3.6; stroke-opacity:1"/>
<line clip-path="url(#clip603)" x1="2335.73" y1="392.669" x2="2295.73" y2="392.669" style="stroke:#000000; stroke-width:3.6; stroke-opacity:1"/>
<line clip-path="url(#clip603)" x1="2490.82" y1="616.351" x2="2450.82" y2="616.351" style="stroke:#000000; stroke-width:3.6; stroke-opacity:1"/>
<line clip-path="url(#clip603)" x1="2490.82" y1="388.814" x2="2450.82" y2="388.814" style="stroke:#000000; stroke-width:3.6; stroke-opacity:1"/>
<line clip-path="url(#clip603)" x1="2645.91" y1="613.612" x2="2605.91" y2="613.612" style="stroke:#000000; stroke-width:3.6; stroke-opacity:1"/>
<line clip-path="url(#clip603)" x1="2645.91" y1="416.42" x2="2605.91" y2="416.42" style="stroke:#000000; stroke-width:3.6; stroke-opacity:1"/>
<line clip-path="url(#clip603)" x1="2801" y1="599.603" x2="2761" y2="599.603" style="stroke:#000000; stroke-width:3.6; stroke-opacity:1"/>
<line clip-path="url(#clip603)" x1="2801" y1="397.811" x2="2761" y2="397.811" style="stroke:#000000; stroke-width:3.6; stroke-opacity:1"/>
<line clip-path="url(#clip603)" x1="2956.09" y1="605.787" x2="2916.09" y2="605.787" style="stroke:#000000; stroke-width:3.6; stroke-opacity:1"/>
<line clip-path="url(#clip603)" x1="2956.09" y1="436.795" x2="2916.09" y2="436.795" style="stroke:#000000; stroke-width:3.6; stroke-opacity:1"/>
<line clip-path="url(#clip603)" x1="3111.18" y1="597.527" x2="3071.18" y2="597.527" style="stroke:#000000; stroke-width:3.6; stroke-opacity:1"/>
<line clip-path="url(#clip603)" x1="3111.18" y1="428.131" x2="3071.18" y2="428.131" style="stroke:#000000; stroke-width:3.6; stroke-opacity:1"/>
<line clip-path="url(#clip603)" x1="3266.27" y1="596.121" x2="3226.27" y2="596.121" style="stroke:#000000; stroke-width:3.6; stroke-opacity:1"/>
<line clip-path="url(#clip603)" x1="3266.27" y1="452.665" x2="3226.27" y2="452.665" style="stroke:#000000; stroke-width:3.6; stroke-opacity:1"/>
<line clip-path="url(#clip603)" x1="3421.36" y1="575.33" x2="3381.36" y2="575.33" style="stroke:#000000; stroke-width:3.6; stroke-opacity:1"/>
<line clip-path="url(#clip603)" x1="3421.36" y1="454.249" x2="3381.36" y2="454.249" style="stroke:#000000; stroke-width:3.6; stroke-opacity:1"/>
<path clip-path="url(#clip600)" d="
M2743.59 263.455 L3467.86 263.455 L3467.86 133.855 L2743.59 133.855  Z
  " fill="#ffffff" fill-rule="evenodd" fill-opacity="1"/>
<polyline clip-path="url(#clip600)" style="stroke:#000000; stroke-linecap:round; stroke-linejoin:round; stroke-width:4; stroke-opacity:1; fill:none" points="
  2743.59,263.455 3467.86,263.455 3467.86,133.855 2743.59,133.855 2743.59,263.455 
  "/>
<polyline clip-path="url(#clip600)" style="stroke:#009af9; stroke-linecap:round; stroke-linejoin:round; stroke-width:5; stroke-opacity:1; fill:none" points="
  2778.3,198.655 2986.53,198.655 
  "/>
<circle clip-path="url(#clip600)" cx="2882.41" cy="198.655" r="23.1371" fill="#009af9" fill-rule="evenodd" fill-opacity="1" stroke="#000000" stroke-opacity="1" stroke-width="5.76"/>
<path clip-path="url(#clip600)" d="M3071.71 172.912 Q3071.71 174.112 3070.69 174.112 Q3067.38 174.229 3066.03 175.342 Q3064.72 176.425 3064.22 178.533 L3055.84 211.939 Q3055.55 212.993 3055.38 213.111 Q3055.2 213.198 3054.88 213.198 Q3054.47 213.198 3054.23 212.993 Q3054.03 212.788 3053.74 212.056 L3038.8 176.747 Q3038.69 176.513 3038.54 176.191 Q3038.39 175.869 3038.28 175.664 L3030.34 207.313 Q3030.11 208.221 3030.11 208.69 Q3030.11 209.831 3030.9 210.563 Q3031.72 211.266 3034.06 211.354 Q3035.26 211.354 3035.26 211.998 Q3035.26 213.198 3034.18 213.198 Q3033.18 213.198 3031.1 213.111 Q3029.03 213.023 3028 213.023 Q3027.01 213.023 3024.98 213.111 Q3022.96 213.198 3022 213.198 Q3021.24 213.198 3021.24 212.525 Q3021.24 211.998 3021.44 211.734 Q3021.65 211.442 3021.82 211.412 Q3022 211.354 3022.26 211.354 Q3024.02 211.295 3025.22 210.944 Q3026.42 210.593 3027.09 209.919 Q3027.8 209.246 3028.12 208.572 Q3028.47 207.87 3028.73 206.845 L3036.75 174.639 Q3036.75 174.112 3032.69 174.112 Q3031.98 174.112 3031.69 174.083 Q3031.43 174.054 3031.22 173.907 Q3031.02 173.761 3031.02 173.439 Q3031.02 172.619 3031.37 172.443 Q3031.72 172.238 3032.74 172.238 L3040.8 172.238 Q3041.82 172.238 3042.08 172.414 Q3042.35 172.56 3042.7 173.38 L3055.96 204.678 L3062.67 178.006 Q3062.84 177.479 3062.84 176.747 Q3062.84 175.576 3061.96 174.873 Q3061.11 174.141 3058.77 174.112 Q3057.69 174.112 3057.69 173.439 Q3057.69 172.882 3057.89 172.619 Q3058.13 172.326 3058.3 172.297 Q3058.51 172.238 3058.77 172.238 Q3059.77 172.238 3061.82 172.326 Q3063.87 172.414 3064.89 172.414 Q3065.89 172.414 3067.91 172.326 Q3069.96 172.238 3070.95 172.238 Q3071.3 172.238 3071.48 172.414 Q3071.68 172.56 3071.71 172.736 L3071.71 172.912 Z" fill="#000000" fill-rule="evenodd" fill-opacity="1" /><path clip-path="url(#clip600)" d="M3112.02 218.218 Q3112.02 218.382 3111.84 219.018 Q3111.65 219.653 3111.2 220.637 Q3110.77 221.621 3110.15 222.522 Q3109.56 223.404 3108.58 224.059 Q3107.61 224.695 3106.51 224.695 Q3105.03 224.695 3104.05 223.711 Q3103.06 222.727 3103.06 221.252 Q3103.06 220.452 3103.62 218.936 Q3106.22 212.009 3106.22 209.529 Q3106.22 206.598 3103.94 206.598 Q3102.65 206.598 3101.49 207.131 Q3100.32 207.664 3099.56 208.401 Q3098.8 209.139 3098.21 209.98 Q3097.61 210.82 3097.35 211.373 Q3097.1 211.927 3097.04 212.172 L3094.52 222.297 Q3094.31 223.158 3094.17 223.568 Q3094.03 223.977 3093.64 224.326 Q3093.25 224.695 3092.63 224.695 Q3092.12 224.695 3091.75 224.387 Q3091.4 224.08 3091.4 223.547 Q3091.4 223.465 3091.5 223.035 Q3091.61 222.604 3091.75 222.01 Q3091.89 221.416 3091.96 221.067 Q3092.69 218.28 3092.8 217.89 L3093.96 213.013 Q3094.6 210.594 3094.6 209.529 Q3094.6 206.598 3092.32 206.598 Q3091.2 206.598 3090.13 207.028 Q3089.09 207.438 3088.37 208.012 Q3087.65 208.586 3087 209.385 Q3086.36 210.164 3086.03 210.697 Q3085.72 211.209 3085.48 211.722 L3084.95 213.812 Q3084.82 214.386 3084.23 216.62 L3083.31 220.411 Q3082.65 223.24 3082.51 223.506 Q3082.3 224.08 3081.85 224.387 Q3081.4 224.695 3080.95 224.695 Q3080.44 224.695 3080.09 224.387 Q3079.74 224.08 3079.74 223.547 Q3079.74 223.465 3079.8 223.158 Q3079.86 222.85 3079.97 222.42 Q3080.07 221.989 3080.11 221.743 L3082.55 212.05 Q3083 210.287 3083.1 209.734 Q3083.22 209.16 3083.22 208.524 Q3083.22 206.598 3081.91 206.598 Q3080.85 206.598 3080.15 207.869 Q3079.45 209.139 3078.86 211.599 Q3078.67 212.275 3078.55 212.418 Q3078.45 212.562 3078.14 212.562 Q3077.63 212.541 3077.63 212.132 Q3077.63 212.029 3077.79 211.373 Q3077.96 210.717 3078.26 209.734 Q3078.59 208.729 3078.94 208.074 Q3079.15 207.643 3079.33 207.356 Q3079.51 207.069 3079.88 206.618 Q3080.25 206.168 3080.81 205.922 Q3081.36 205.676 3082.04 205.676 Q3083.53 205.676 3084.64 206.639 Q3085.77 207.602 3085.91 209.324 Q3088.64 205.676 3092.45 205.676 Q3094.6 205.676 3095.89 206.762 Q3097.1 207.807 3097.24 209.734 Q3100.07 205.676 3104.09 205.676 Q3106.4 205.676 3107.65 206.885 Q3108.9 208.074 3108.9 210.164 Q3108.9 211.25 3108.35 213.32 Q3107.8 215.37 3107.43 216.394 Q3107.06 217.419 3106.34 219.387 Q3105.58 221.272 3105.58 222.379 Q3105.58 223.096 3105.83 223.424 Q3106.08 223.752 3106.61 223.752 Q3107.43 223.752 3108.15 223.281 Q3108.86 222.789 3109.38 221.989 Q3109.91 221.17 3110.26 220.35 Q3110.61 219.51 3110.87 218.567 Q3111.04 218.054 3111.12 217.931 Q3111.22 217.809 3111.51 217.809 Q3112.02 217.809 3112.02 218.218 Z" fill="#000000" fill-rule="evenodd" fill-opacity="1" /><path clip-path="url(#clip600)" d="M3130.97 219.366 Q3131.13 219.551 3131.13 219.735 Q3131.13 219.919 3130.72 220.452 Q3130.33 220.985 3129.49 221.702 Q3128.65 222.42 3127.57 223.096 Q3126.48 223.772 3124.88 224.223 Q3123.28 224.695 3121.6 224.695 Q3118.47 224.695 3116.62 222.625 Q3114.8 220.555 3114.8 217.583 Q3114.8 214.693 3116.42 211.927 Q3118.04 209.139 3120.66 207.418 Q3123.28 205.676 3126.05 205.676 Q3128.24 205.676 3129.62 206.7 Q3130.99 207.725 3130.99 209.283 Q3130.99 210.492 3130.29 211.23 Q3129.6 211.968 3128.65 211.968 Q3128 211.968 3127.55 211.599 Q3127.1 211.209 3127.1 210.492 Q3127.1 209.57 3127.86 208.852 Q3128.14 208.565 3128.47 208.442 Q3128.82 208.299 3129.02 208.299 Q3129.23 208.279 3129.7 208.279 Q3129.27 207.479 3128.24 207.049 Q3127.24 206.598 3126.09 206.598 Q3124.39 206.598 3122.77 207.787 Q3121.15 208.955 3120.17 210.799 Q3119.19 212.603 3118.55 215.165 Q3117.92 217.706 3117.92 219.182 Q3117.92 221.211 3118.86 222.481 Q3119.8 223.752 3121.69 223.752 Q3122.06 223.752 3122.44 223.731 Q3122.85 223.711 3123.88 223.486 Q3124.92 223.26 3125.85 222.871 Q3126.77 222.481 3127.94 221.641 Q3129.13 220.78 3130.07 219.612 Q3130.4 219.182 3130.62 219.182 Q3130.81 219.182 3130.97 219.366 Z" fill="#000000" fill-rule="evenodd" fill-opacity="1" /><path clip-path="url(#clip600)" d="M3155.83 204.093 Q3155.88 203.361 3157.03 203.361 L3193.77 203.361 Q3195.5 203.361 3195.53 204.034 Q3195.53 204.766 3193.89 204.737 L3157.44 204.737 Q3155.83 204.766 3155.83 204.093 M3155.83 192.382 Q3155.83 191.65 3157.09 191.679 L3193.71 191.679 Q3195.5 191.679 3195.53 192.382 Q3195.53 193.055 3194 193.055 L3157.03 193.055 Q3155.83 193.055 3155.83 192.382 Z" fill="#000000" fill-rule="evenodd" fill-opacity="1" /><path clip-path="url(#clip600)" d="M3218.66 178.972 L3218.66 177.098 Q3225.87 177.098 3229.58 173.263 Q3230.61 173.263 3230.78 173.497 Q3230.96 173.732 3230.96 174.815 L3230.96 208.455 Q3230.96 210.241 3231.84 210.798 Q3232.72 211.354 3236.55 211.354 L3238.46 211.354 L3238.46 213.198 Q3236.35 213.023 3228.73 213.023 Q3221.12 213.023 3219.04 213.198 L3219.04 211.354 L3220.95 211.354 Q3224.72 211.354 3225.63 210.827 Q3226.54 210.271 3226.54 208.455 L3226.54 177.391 Q3223.41 178.972 3218.66 178.972 Z" fill="#000000" fill-rule="evenodd" fill-opacity="1" /><path clip-path="url(#clip600)" d="M3241.32 194.021 Q3241.32 185.209 3243.55 180.407 Q3246.65 173.263 3253.97 173.263 Q3255.52 173.263 3257.13 173.702 Q3258.77 174.112 3260.82 175.722 Q3262.9 177.333 3264.16 179.968 Q3266.56 185.062 3266.56 194.021 Q3266.56 202.775 3264.34 207.548 Q3261.09 214.516 3253.91 214.516 Q3251.22 214.516 3248.47 213.14 Q3245.74 211.764 3244.02 208.455 Q3241.32 203.507 3241.32 194.021 M3246.3 193.289 Q3246.3 202.336 3246.94 205.937 Q3247.68 209.831 3249.67 211.529 Q3251.69 213.198 3253.91 213.198 Q3256.31 213.198 3258.3 211.412 Q3260.32 209.597 3260.94 205.703 Q3261.61 201.868 3261.58 193.289 Q3261.58 184.945 3261 181.607 Q3260.21 177.713 3258.1 176.162 Q3256.02 174.581 3253.91 174.581 Q3253.12 174.581 3252.27 174.815 Q3251.45 175.049 3250.25 175.722 Q3249.05 176.396 3248.12 178.065 Q3247.21 179.734 3246.77 182.251 Q3246.3 185.501 3246.3 193.289 Z" fill="#000000" fill-rule="evenodd" fill-opacity="1" /><path clip-path="url(#clip600)" d="M3271.26 194.021 Q3271.26 185.209 3273.48 180.407 Q3276.59 173.263 3283.91 173.263 Q3285.46 173.263 3287.07 173.702 Q3288.71 174.112 3290.76 175.722 Q3292.84 177.333 3294.1 179.968 Q3296.5 185.062 3296.5 194.021 Q3296.5 202.775 3294.27 207.548 Q3291.02 214.516 3283.85 214.516 Q3281.15 214.516 3278.4 213.14 Q3275.68 211.764 3273.95 208.455 Q3271.26 203.507 3271.26 194.021 M3276.24 193.289 Q3276.24 202.336 3276.88 205.937 Q3277.61 209.831 3279.6 211.529 Q3281.62 213.198 3283.85 213.198 Q3286.25 213.198 3288.24 211.412 Q3290.26 209.597 3290.88 205.703 Q3291.55 201.868 3291.52 193.289 Q3291.52 184.945 3290.93 181.607 Q3290.14 177.713 3288.04 176.162 Q3285.96 174.581 3283.85 174.581 Q3283.06 174.581 3282.21 174.815 Q3281.39 175.049 3280.19 175.722 Q3278.99 176.396 3278.05 178.065 Q3277.14 179.734 3276.7 182.251 Q3276.24 185.501 3276.24 193.289 Z" fill="#000000" fill-rule="evenodd" fill-opacity="1" /><path clip-path="url(#clip600)" d="M3308.88 194.021 Q3308.88 185.209 3311.1 180.407 Q3314.21 173.263 3321.53 173.263 Q3323.08 173.263 3324.69 173.702 Q3326.33 174.112 3328.38 175.722 Q3330.46 177.333 3331.72 179.968 Q3334.12 185.062 3334.12 194.021 Q3334.12 202.775 3331.89 207.548 Q3328.64 214.516 3321.47 214.516 Q3318.77 214.516 3316.02 213.14 Q3313.3 211.764 3311.57 208.455 Q3308.88 203.507 3308.88 194.021 M3313.86 193.289 Q3313.86 202.336 3314.5 205.937 Q3315.23 209.831 3317.22 211.529 Q3319.24 213.198 3321.47 213.198 Q3323.87 213.198 3325.86 211.412 Q3327.88 209.597 3328.49 205.703 Q3329.17 201.868 3329.14 193.289 Q3329.14 184.945 3328.55 181.607 Q3327.76 177.713 3325.65 176.162 Q3323.58 174.581 3321.47 174.581 Q3320.68 174.581 3319.83 174.815 Q3319.01 175.049 3317.81 175.722 Q3316.61 176.396 3315.67 178.065 Q3314.76 179.734 3314.32 182.251 Q3313.86 185.501 3313.86 193.289 Z" fill="#000000" fill-rule="evenodd" fill-opacity="1" /><path clip-path="url(#clip600)" d="M3338.81 194.021 Q3338.81 185.209 3341.04 180.407 Q3344.14 173.263 3351.46 173.263 Q3353.01 173.263 3354.62 173.702 Q3356.26 174.112 3358.31 175.722 Q3360.39 177.333 3361.65 179.968 Q3364.05 185.062 3364.05 194.021 Q3364.05 202.775 3361.83 207.548 Q3358.58 214.516 3351.4 214.516 Q3348.71 214.516 3345.96 213.14 Q3343.23 211.764 3341.51 208.455 Q3338.81 203.507 3338.81 194.021 M3343.79 193.289 Q3343.79 202.336 3344.44 205.937 Q3345.17 209.831 3347.16 211.529 Q3349.18 213.198 3351.4 213.198 Q3353.8 213.198 3355.8 211.412 Q3357.82 209.597 3358.43 205.703 Q3359.1 201.868 3359.07 193.289 Q3359.07 184.945 3358.49 181.607 Q3357.7 177.713 3355.59 176.162 Q3353.51 174.581 3351.4 174.581 Q3350.61 174.581 3349.76 174.815 Q3348.94 175.049 3347.74 175.722 Q3346.54 176.396 3345.61 178.065 Q3344.7 179.734 3344.26 182.251 Q3343.79 185.501 3343.79 193.289 Z" fill="#000000" fill-rule="evenodd" fill-opacity="1" /><path clip-path="url(#clip600)" d="M3368.75 194.021 Q3368.75 185.209 3370.97 180.407 Q3374.08 173.263 3381.4 173.263 Q3382.95 173.263 3384.56 173.702 Q3386.2 174.112 3388.25 175.722 Q3390.33 177.333 3391.59 179.968 Q3393.99 185.062 3393.99 194.021 Q3393.99 202.775 3391.76 207.548 Q3388.51 214.516 3381.34 214.516 Q3378.65 214.516 3375.89 213.14 Q3373.17 211.764 3371.44 208.455 Q3368.75 203.507 3368.75 194.021 M3373.73 193.289 Q3373.73 202.336 3374.37 205.937 Q3375.1 209.831 3377.09 211.529 Q3379.11 213.198 3381.34 213.198 Q3383.74 213.198 3385.73 211.412 Q3387.75 209.597 3388.37 205.703 Q3389.04 201.868 3389.01 193.289 Q3389.01 184.945 3388.42 181.607 Q3387.63 177.713 3385.53 176.162 Q3383.45 174.581 3381.34 174.581 Q3380.55 174.581 3379.7 174.815 Q3378.88 175.049 3377.68 175.722 Q3376.48 176.396 3375.54 178.065 Q3374.63 179.734 3374.19 182.251 Q3373.73 185.501 3373.73 193.289 Z" fill="#000000" fill-rule="evenodd" fill-opacity="1" /></svg>
