<?xml version="1.0" encoding="utf-8"?>
<svg xmlns="http://www.w3.org/2000/svg" xmlns:xlink="http://www.w3.org/1999/xlink" width="900" height="300" viewBox="0 0 3600 1200">
<defs>
  <clipPath id="clip300">
    <rect x="0" y="0" width="3600" height="1200"/>
  </clipPath>
</defs>
<path clip-path="url(#clip300)" d="
M0 1200 L3600 1200 L3600 0 L0 0  Z
  " fill="#ffffff" fill-rule="evenodd" fill-opacity="1"/>
<defs>
  <clipPath id="clip301">
    <rect x="720" y="0" width="2521" height="1200"/>
  </clipPath>
</defs>
<defs>
  <clipPath id="clip302">
    <rect x="324" y="110" width="3166" height="885"/>
  </clipPath>
</defs>
<path clip-path="url(#clip300)" d="
M366.254 994.428 L3489.76 994.428 L3489.76 110.236 L366.254 110.236  Z
  " fill="#ffffff" fill-rule="evenodd" fill-opacity="1"/>
<defs>
  <clipPath id="clip303">
    <rect x="366" y="110" width="3125" height="885"/>
  </clipPath>
</defs>
<polyline clip-path="url(#clip303)" style="stroke:#000000; stroke-linecap:butt; stroke-linejoin:round; stroke-width:2; stroke-opacity:0.1; fill:none" points="
  609.745,994.428 609.745,110.236 
  "/>
<polyline clip-path="url(#clip303)" style="stroke:#000000; stroke-linecap:butt; stroke-linejoin:round; stroke-width:2; stroke-opacity:0.1; fill:none" points="
  919.925,994.428 919.925,110.236 
  "/>
<polyline clip-path="url(#clip303)" style="stroke:#000000; stroke-linecap:butt; stroke-linejoin:round; stroke-width:2; stroke-opacity:0.1; fill:none" points="
  1230.1,994.428 1230.1,110.236 
  "/>
<polyline clip-path="url(#clip303)" style="stroke:#000000; stroke-linecap:butt; stroke-linejoin:round; stroke-width:2; stroke-opacity:0.1; fill:none" points="
  1540.28,994.428 1540.28,110.236 
  "/>
<polyline clip-path="url(#clip303)" style="stroke:#000000; stroke-linecap:butt; stroke-linejoin:round; stroke-width:2; stroke-opacity:0.1; fill:none" points="
  1850.46,994.428 1850.46,110.236 
  "/>
<polyline clip-path="url(#clip303)" style="stroke:#000000; stroke-linecap:butt; stroke-linejoin:round; stroke-width:2; stroke-opacity:0.1; fill:none" points="
  2160.64,994.428 2160.64,110.236 
  "/>
<polyline clip-path="url(#clip303)" style="stroke:#000000; stroke-linecap:butt; stroke-linejoin:round; stroke-width:2; stroke-opacity:0.1; fill:none" points="
  2470.82,994.428 2470.82,110.236 
  "/>
<polyline clip-path="url(#clip303)" style="stroke:#000000; stroke-linecap:butt; stroke-linejoin:round; stroke-width:2; stroke-opacity:0.1; fill:none" points="
  2781,994.428 2781,110.236 
  "/>
<polyline clip-path="url(#clip303)" style="stroke:#000000; stroke-linecap:butt; stroke-linejoin:round; stroke-width:2; stroke-opacity:0.1; fill:none" points="
  3091.18,994.428 3091.18,110.236 
  "/>
<polyline clip-path="url(#clip303)" style="stroke:#000000; stroke-linecap:butt; stroke-linejoin:round; stroke-width:2; stroke-opacity:0.1; fill:none" points="
  3401.36,994.428 3401.36,110.236 
  "/>
<polyline clip-path="url(#clip300)" style="stroke:#000000; stroke-linecap:butt; stroke-linejoin:round; stroke-width:4; stroke-opacity:1; fill:none" points="
  366.254,994.428 3489.76,994.428 
  "/>
<polyline clip-path="url(#clip300)" style="stroke:#000000; stroke-linecap:butt; stroke-linejoin:round; stroke-width:4; stroke-opacity:1; fill:none" points="
  366.254,110.236 3489.76,110.236 
  "/>
<polyline clip-path="url(#clip300)" style="stroke:#000000; stroke-linecap:butt; stroke-linejoin:round; stroke-width:4; stroke-opacity:1; fill:none" points="
  609.745,994.428 609.745,975.53 
  "/>
<polyline clip-path="url(#clip300)" style="stroke:#000000; stroke-linecap:butt; stroke-linejoin:round; stroke-width:4; stroke-opacity:1; fill:none" points="
  919.925,994.428 919.925,975.53 
  "/>
<polyline clip-path="url(#clip300)" style="stroke:#000000; stroke-linecap:butt; stroke-linejoin:round; stroke-width:4; stroke-opacity:1; fill:none" points="
  1230.1,994.428 1230.1,975.53 
  "/>
<polyline clip-path="url(#clip300)" style="stroke:#000000; stroke-linecap:butt; stroke-linejoin:round; stroke-width:4; stroke-opacity:1; fill:none" points="
  1540.28,994.428 1540.28,975.53 
  "/>
<polyline clip-path="url(#clip300)" style="stroke:#000000; stroke-linecap:butt; stroke-linejoin:round; stroke-width:4; stroke-opacity:1; fill:none" points="
  1850.46,994.428 1850.46,975.53 
  "/>
<polyline clip-path="url(#clip300)" style="stroke:#000000; stroke-linecap:butt; stroke-linejoin:round; stroke-width:4; stroke-opacity:1; fill:none" points="
  2160.64,994.428 2160.64,975.53 
  "/>
<polyline clip-path="url(#clip300)" style="stroke:#000000; stroke-linecap:butt; stroke-linejoin:round; stroke-width:4; stroke-opacity:1; fill:none" points="
  2470.82,994.428 2470.82,975.53 
  "/>
<polyline clip-path="url(#clip300)" style="stroke:#000000; stroke-linecap:butt; stroke-linejoin:round; stroke-width:4; stroke-opacity:1; fill:none" points="
  2781,994.428 2781,975.53 
  "/>
<polyline clip-path="url(#clip300)" style="stroke:#000000; stroke-linecap:butt; stroke-linejoin:round; stroke-width:4; stroke-opacity:1; fill:none" points="
  3091.18,994.428 3091.18,975.53 
  "/>
<polyline clip-path="url(#clip300)" style="stroke:#000000; stroke-linecap:butt; stroke-linejoin:round; stroke-width:4; stroke-opacity:1; fill:none" points="
  3401.36,994.428 3401.36,975.53 
  "/>
<path clip-path="url(#clip300)" d="M599.308 1041.13 L599.308 1039.15 Q606.904 1039.15 610.826 1035.11 Q611.906 1035.11 612.092 1035.36 Q612.277 1035.6 612.277 1036.75 L612.277 1072.23 Q612.277 1074.11 613.203 1074.7 Q614.13 1075.28 618.175 1075.28 L620.182 1075.28 L620.182 1077.23 Q617.959 1077.04 609.93 1077.04 Q601.902 1077.04 599.709 1077.23 L599.709 1075.28 L601.716 1075.28 Q605.7 1075.28 606.657 1074.73 Q607.614 1074.14 607.614 1072.23 L607.614 1039.46 Q604.31 1041.13 599.308 1041.13 Z" fill="#000000" fill-rule="evenodd" fill-opacity="1" /><path clip-path="url(#clip300)" d="M907.295 1077.23 Q907.295 1076.09 907.388 1075.75 Q907.511 1075.41 908.005 1074.88 L920.141 1061.36 Q926.78 1053.88 926.78 1047.37 Q926.78 1043.14 924.557 1040.11 Q922.364 1037.08 918.319 1037.08 Q915.54 1037.08 913.193 1038.78 Q910.846 1040.48 909.765 1043.51 Q909.951 1043.45 910.599 1043.45 Q912.174 1043.45 913.039 1044.43 Q913.934 1045.42 913.934 1046.75 Q913.934 1048.45 912.822 1049.28 Q911.742 1050.08 910.661 1050.08 Q910.229 1050.08 909.642 1049.99 Q909.086 1049.9 908.191 1049.04 Q907.295 1048.14 907.295 1046.56 Q907.295 1042.15 910.63 1038.63 Q913.996 1035.11 919.122 1035.11 Q924.927 1035.11 928.725 1038.57 Q932.554 1041.99 932.554 1047.37 Q932.554 1049.25 931.968 1050.98 Q931.412 1052.68 930.64 1054.01 Q929.899 1055.33 927.861 1057.47 Q925.823 1059.6 924.186 1061.11 Q922.549 1062.62 918.875 1065.83 L912.174 1072.35 L923.568 1072.35 Q929.127 1072.35 929.559 1071.85 Q930.177 1070.96 930.949 1066.23 L932.554 1066.23 L930.763 1077.23 L907.295 1077.23 Z" fill="#000000" fill-rule="evenodd" fill-opacity="1" /><path clip-path="url(#clip300)" d="M1216.98 1068.71 Q1216.98 1066.82 1218.06 1065.93 Q1219.14 1065.03 1220.53 1065.03 Q1221.98 1065.03 1223 1065.99 Q1224.05 1066.91 1224.05 1068.55 Q1224.05 1070.31 1222.82 1071.3 Q1221.61 1072.29 1219.88 1072.04 Q1221.4 1074.57 1224.18 1075.71 Q1226.99 1076.86 1229.58 1076.86 Q1232.3 1076.86 1234.49 1074.51 Q1236.71 1072.16 1236.71 1066.42 Q1236.71 1061.54 1234.8 1058.73 Q1232.91 1055.92 1229.18 1055.92 L1226.4 1055.92 Q1225.44 1055.92 1225.16 1055.83 Q1224.89 1055.74 1224.89 1055.21 Q1224.89 1054.59 1225.84 1054.47 Q1226.8 1054.47 1228.31 1054.28 Q1231.99 1054.16 1233.93 1050.98 Q1235.69 1048.02 1235.69 1043.79 Q1235.69 1039.93 1233.84 1038.32 Q1232.02 1036.68 1229.64 1036.68 Q1227.42 1036.68 1224.98 1037.61 Q1222.54 1038.54 1221.21 1040.6 Q1225.13 1040.6 1225.13 1043.79 Q1225.13 1045.18 1224.24 1046.1 Q1223.37 1047 1221.92 1047 Q1220.53 1047 1219.61 1046.13 Q1218.68 1045.24 1218.68 1043.72 Q1218.68 1040.11 1221.89 1037.61 Q1225.13 1035.11 1229.89 1035.11 Q1234.58 1035.11 1238.04 1037.58 Q1241.53 1040.05 1241.53 1043.85 Q1241.53 1047.58 1239.06 1050.64 Q1236.59 1053.7 1232.67 1054.96 Q1237.48 1055.92 1240.36 1059.19 Q1243.23 1062.44 1243.23 1066.42 Q1243.23 1071.36 1239.34 1075 Q1235.45 1078.62 1229.76 1078.62 Q1224.52 1078.62 1220.75 1075.78 Q1216.98 1072.94 1216.98 1068.71 Z" fill="#000000" fill-rule="evenodd" fill-opacity="1" /><path clip-path="url(#clip300)" d="M1526.26 1066.79 L1526.26 1064.85 L1545.69 1035.17 Q1546.18 1034.4 1546.95 1034.43 Q1547.66 1034.43 1547.82 1034.71 Q1547.97 1034.98 1547.97 1036.07 L1547.97 1064.85 L1554.3 1064.85 L1554.3 1066.79 L1547.97 1066.79 L1547.97 1072.29 Q1547.97 1074.11 1548.71 1074.7 Q1549.49 1075.28 1552.76 1075.28 L1554.09 1075.28 L1554.09 1077.23 Q1551.49 1077.04 1545.5 1077.04 Q1539.54 1077.04 1536.95 1077.23 L1536.95 1075.28 L1538.28 1075.28 Q1541.55 1075.28 1542.32 1074.73 Q1543.09 1074.14 1543.09 1072.29 L1543.09 1066.79 L1526.26 1066.79 M1528.06 1064.85 L1543.46 1064.85 L1543.46 1041.25 L1528.06 1064.85 Z" fill="#000000" fill-rule="evenodd" fill-opacity="1" /><path clip-path="url(#clip300)" d="M1837.83 1067.04 Q1837.83 1065.15 1838.85 1064.44 Q1839.87 1063.7 1840.95 1063.7 Q1842.4 1063.7 1843.24 1064.63 Q1844.1 1065.52 1844.1 1066.79 Q1844.1 1068.06 1843.24 1068.98 Q1842.4 1069.88 1840.95 1069.88 Q1840.24 1069.88 1839.87 1069.75 Q1840.71 1072.66 1843.24 1074.76 Q1845.8 1076.86 1849.17 1076.86 Q1853.4 1076.86 1855.93 1072.75 Q1857.44 1070.09 1857.44 1064.07 Q1857.44 1058.76 1856.3 1056.11 Q1854.54 1052.06 1850.93 1052.06 Q1845.8 1052.06 1842.77 1056.48 Q1842.4 1057.03 1841.97 1057.06 Q1841.35 1057.06 1841.2 1056.72 Q1841.08 1056.35 1841.08 1055.4 L1841.08 1036.68 Q1841.08 1035.17 1841.69 1035.17 Q1841.94 1035.17 1842.47 1035.36 Q1846.45 1037.12 1850.87 1037.15 Q1855.4 1037.15 1859.48 1035.29 Q1859.79 1035.11 1859.97 1035.11 Q1860.59 1035.11 1860.62 1035.82 Q1860.62 1036.07 1860.1 1036.81 Q1859.6 1037.52 1858.52 1038.47 Q1857.44 1039.4 1856.05 1040.3 Q1854.66 1041.19 1852.63 1041.81 Q1850.62 1042.4 1848.39 1042.4 Q1845.74 1042.4 1843.02 1041.56 L1843.02 1053.88 Q1846.3 1050.67 1851.05 1050.67 Q1856.11 1050.67 1859.6 1054.75 Q1863.09 1058.82 1863.09 1064.51 Q1863.09 1070.47 1858.96 1074.54 Q1854.85 1078.62 1849.29 1078.62 Q1844.23 1078.62 1841.01 1075 Q1837.83 1071.39 1837.83 1067.04 Z" fill="#000000" fill-rule="evenodd" fill-opacity="1" /><path clip-path="url(#clip300)" d="M2147.52 1057.25 Q2147.52 1047.31 2152.58 1041.22 Q2157.65 1035.11 2164.16 1035.11 Q2167.96 1035.11 2170.06 1037.05 Q2172.19 1038.97 2172.19 1041.93 Q2172.19 1043.57 2171.24 1044.28 Q2170.28 1044.99 2169.29 1044.99 Q2168.15 1044.99 2167.25 1044.22 Q2166.36 1043.45 2166.36 1042.06 Q2166.36 1039.22 2169.85 1039.22 Q2168.21 1036.68 2164.29 1036.68 Q2163.08 1036.68 2161.85 1037.05 Q2160.61 1037.39 2159.01 1038.57 Q2157.4 1039.74 2156.17 1041.59 Q2154.93 1043.45 2154.07 1046.94 Q2153.2 1050.42 2153.2 1054.96 L2153.2 1056.48 Q2155.8 1050.21 2161.11 1050.24 Q2166.42 1050.24 2170.09 1054.28 Q2173.77 1058.33 2173.77 1064.32 Q2173.77 1070.47 2169.94 1074.54 Q2166.11 1078.62 2160.74 1078.62 Q2158.33 1078.62 2156.14 1077.6 Q2153.97 1076.61 2151.94 1074.33 Q2149.93 1072.04 2148.72 1067.66 Q2147.52 1063.27 2147.52 1057.25 M2153.33 1062.93 Q2153.33 1069.14 2154.47 1072.1 Q2154.65 1072.6 2155.05 1073.28 Q2155.49 1073.95 2156.2 1074.85 Q2156.94 1075.71 2158.14 1076.3 Q2159.35 1076.86 2160.74 1076.86 Q2164.97 1076.86 2167 1072.75 Q2168.09 1070.47 2168.09 1064.26 Q2168.09 1057.93 2166.94 1055.61 Q2165 1051.69 2161.05 1051.69 Q2158.39 1051.69 2156.54 1053.51 Q2154.71 1055.33 2154 1057.77 Q2153.33 1060.21 2153.33 1062.93 Z" fill="#000000" fill-rule="evenodd" fill-opacity="1" /><path clip-path="url(#clip300)" d="M2457.27 1047.49 L2459.34 1034.49 L2460.91 1034.49 Q2461.1 1035.26 2461.41 1035.6 Q2461.74 1035.94 2463.54 1036.22 Q2465.36 1036.5 2469.03 1036.5 L2484.38 1036.5 Q2484.38 1037.95 2483.82 1038.72 L2475.27 1050.73 Q2472.55 1054.53 2471.35 1061.54 Q2470.64 1066.23 2470.67 1071.92 L2470.67 1075.13 Q2470.67 1078.62 2467.74 1078.62 Q2464.83 1078.62 2464.83 1075.13 Q2464.83 1063.05 2472.61 1051.35 Q2473.45 1050.15 2476.51 1045.85 Q2479.59 1041.56 2479.72 1041.38 L2466.62 1041.38 Q2460.88 1041.38 2460.42 1041.75 Q2459.8 1042.3 2458.84 1047.49 L2457.27 1047.49 Z" fill="#000000" fill-rule="evenodd" fill-opacity="1" /><path clip-path="url(#clip300)" d="M2767.88 1067.69 Q2767.88 1060.61 2776.99 1056.04 Q2773.07 1053.39 2772.36 1052.62 Q2769.58 1049.53 2769.58 1045.67 Q2769.58 1041.25 2772.91 1038.2 Q2776.28 1035.11 2781.03 1035.11 Q2785.57 1035.11 2789 1037.73 Q2792.43 1040.36 2792.43 1044.53 Q2792.43 1050.39 2784.77 1054.35 Q2789.83 1057.5 2791.04 1058.82 Q2794.13 1062.25 2794.13 1066.61 Q2794.13 1071.67 2790.24 1075.16 Q2786.35 1078.62 2780.97 1078.62 Q2775.72 1078.62 2771.8 1075.56 Q2767.88 1072.5 2767.88 1067.69 M2771.03 1067.69 Q2771.03 1071.61 2773.96 1074.23 Q2776.93 1076.86 2781.03 1076.86 Q2785.02 1076.86 2787.98 1074.57 Q2790.98 1072.29 2790.98 1068.89 Q2790.98 1067.56 2790.51 1066.42 Q2790.08 1065.28 2789.19 1064.38 Q2788.32 1063.46 2787.77 1063.05 Q2787.24 1062.62 2786.22 1061.91 L2778.44 1057 Q2771.03 1061.11 2771.03 1067.69 M2772.36 1043.2 Q2772.36 1046.23 2775.54 1048.32 L2783.38 1053.39 Q2789.65 1049.71 2789.65 1044.53 Q2789.65 1041.16 2787.09 1038.94 Q2784.52 1036.68 2780.97 1036.68 Q2777.48 1036.68 2774.92 1038.54 Q2772.36 1040.36 2772.36 1043.2 Z" fill="#000000" fill-rule="evenodd" fill-opacity="1" /><path clip-path="url(#clip300)" d="M3078.06 1049.34 Q3078.06 1045.98 3079.05 1043.69 Q3080.04 1041.38 3082.1 1039.09 Q3085.9 1035.11 3091.4 1035.11 Q3093.75 1035.11 3095.81 1036.1 Q3097.91 1037.08 3099.89 1039.34 Q3101.9 1041.56 3103.1 1045.98 Q3104.31 1050.36 3104.31 1056.42 Q3104.31 1066.2 3099.55 1072.41 Q3094.83 1078.62 3088.43 1078.62 Q3084.39 1078.62 3082.01 1076.8 Q3079.63 1074.94 3079.63 1071.79 Q3079.63 1070.16 3080.56 1069.48 Q3081.49 1068.77 3082.54 1068.77 Q3083.68 1068.77 3084.57 1069.54 Q3085.47 1070.28 3085.47 1071.67 Q3085.47 1072.81 3084.73 1073.71 Q3084.02 1074.57 3082.17 1074.57 Q3083.99 1076.86 3088.37 1076.86 Q3089.95 1076.86 3091.52 1076.15 Q3093.1 1075.41 3094.8 1073.65 Q3096.52 1071.85 3097.57 1068.12 Q3098.62 1064.38 3098.62 1059.13 L3098.62 1057.13 Q3096.09 1063.46 3090.72 1063.46 Q3085.41 1063.46 3081.73 1059.38 Q3078.06 1055.3 3078.06 1049.34 M3083.74 1049.41 Q3083.74 1055.67 3084.88 1057.99 Q3086.83 1061.97 3090.78 1061.97 Q3094.64 1061.97 3096.56 1058.55 Q3098.5 1055.09 3098.5 1050.61 Q3098.5 1044.4 3097.48 1041.69 Q3095.6 1036.68 3091.4 1036.68 Q3087.23 1036.68 3085.07 1040.67 Q3083.74 1043.01 3083.74 1049.41 Z" fill="#000000" fill-rule="evenodd" fill-opacity="1" /><path clip-path="url(#clip300)" d="M3373.82 1041.13 L3373.82 1039.15 Q3381.41 1039.15 3385.34 1035.11 Q3386.42 1035.11 3386.6 1035.36 Q3386.79 1035.6 3386.79 1036.75 L3386.79 1072.23 Q3386.79 1074.11 3387.71 1074.7 Q3388.64 1075.28 3392.69 1075.28 L3394.69 1075.28 L3394.69 1077.23 Q3392.47 1077.04 3384.44 1077.04 Q3376.41 1077.04 3374.22 1077.23 L3374.22 1075.28 L3376.23 1075.28 Q3380.21 1075.28 3381.17 1074.73 Q3382.12 1074.14 3382.12 1072.23 L3382.12 1039.46 Q3378.82 1041.13 3373.82 1041.13 Z" fill="#000000" fill-rule="evenodd" fill-opacity="1" /><path clip-path="url(#clip300)" d="M3402.29 1057 Q3402.29 1047.71 3404.64 1042.64 Q3407.91 1035.11 3415.63 1035.11 Q3417.27 1035.11 3418.96 1035.57 Q3420.69 1036 3422.85 1037.7 Q3425.05 1039.4 3426.37 1042.18 Q3428.91 1047.55 3428.91 1057 Q3428.91 1066.23 3426.56 1071.27 Q3423.13 1078.62 3415.57 1078.62 Q3412.73 1078.62 3409.82 1077.17 Q3406.95 1075.71 3405.13 1072.23 Q3402.29 1067.01 3402.29 1057 M3407.54 1056.23 Q3407.54 1065.77 3408.22 1069.57 Q3408.99 1073.68 3411.09 1075.47 Q3413.22 1077.23 3415.57 1077.23 Q3418.1 1077.23 3420.2 1075.34 Q3422.33 1073.43 3422.98 1069.32 Q3423.69 1065.28 3423.66 1056.23 Q3423.66 1047.43 3423.04 1043.91 Q3422.21 1039.8 3419.98 1038.17 Q3417.79 1036.5 3415.57 1036.5 Q3414.73 1036.5 3413.84 1036.75 Q3412.97 1036.99 3411.71 1037.7 Q3410.44 1038.41 3409.45 1040.17 Q3408.5 1041.93 3408.03 1044.59 Q3407.54 1048.02 3407.54 1056.23 Z" fill="#000000" fill-rule="evenodd" fill-opacity="1" /><path clip-path="url(#clip300)" d="M1964.18 1142.68 Q1964.18 1143.21 1964.06 1143.58 Q1963.93 1143.91 1963.65 1144.07 Q1963.36 1144.23 1963.19 1144.28 Q1963.03 1144.32 1962.66 1144.36 Q1960.9 1144.52 1959.67 1144.81 Q1958.48 1145.1 1955.53 1146.57 Q1952.62 1148.05 1948.97 1150.71 L1934.3 1162.06 L1931.84 1163.99 Q1931.84 1164.11 1931.92 1164.36 Q1932 1164.57 1932.08 1164.85 Q1932.21 1165.1 1932.25 1165.18 L1944.18 1192.68 Q1945.12 1194.9 1946.27 1195.68 Q1947.41 1196.45 1950 1196.5 Q1950.41 1196.5 1950.57 1196.54 Q1950.78 1196.54 1951.06 1196.62 Q1951.39 1196.66 1951.51 1196.86 Q1951.68 1197.07 1951.68 1197.4 Q1951.68 1199.08 1950.16 1199.08 Q1949.22 1199.08 1946.02 1198.96 Q1942.82 1198.83 1941.92 1198.83 Q1940.24 1198.83 1936.8 1198.96 Q1933.35 1199.08 1931.67 1199.08 Q1930.49 1199.08 1930.49 1198.14 Q1930.49 1197.36 1930.77 1196.99 Q1931.1 1196.58 1931.39 1196.54 Q1931.67 1196.5 1932.33 1196.5 Q1932.82 1196.5 1933.35 1196.45 Q1933.93 1196.37 1934.75 1196.17 Q1935.61 1195.92 1936.14 1195.35 Q1936.72 1194.73 1936.72 1193.87 Q1936.72 1193.18 1935.69 1190.92 L1925.98 1168.34 L1913.47 1178.09 L1910.11 1191.29 Q1910.03 1191.78 1909.83 1192.64 Q1909.62 1193.5 1909.46 1194.12 Q1909.33 1194.73 1909.33 1194.98 Q1909.33 1195.51 1909.66 1195.84 Q1910.03 1196.17 1910.93 1196.33 Q1911.84 1196.45 1912.53 1196.5 Q1913.27 1196.5 1914.79 1196.5 Q1916.67 1196.5 1917 1196.82 Q1917.16 1197.03 1917.16 1197.4 Q1917.16 1197.97 1917 1198.38 Q1916.84 1198.75 1916.51 1198.87 Q1916.22 1199 1916.02 1199.04 Q1915.81 1199.08 1915.48 1199.08 Q1914.62 1199.08 1912.78 1199 Q1910.97 1198.91 1910.03 1198.91 L1904.66 1198.83 L1894 1199.08 Q1892.73 1199.08 1892.73 1198.05 Q1892.73 1197.27 1893.06 1196.95 Q1893.39 1196.58 1893.76 1196.54 Q1894.13 1196.5 1895.07 1196.5 Q1897.12 1196.5 1898.35 1196.37 Q1899.58 1196.25 1900.36 1196.09 Q1901.18 1195.88 1901.59 1195.31 Q1902.04 1194.73 1902.24 1194.24 Q1902.45 1193.71 1902.74 1192.52 L1913.97 1147.43 Q1914.29 1146.08 1914.29 1145.87 Q1914.29 1145.18 1913.88 1144.93 Q1913.52 1144.64 1912.45 1144.52 Q1910.4 1144.36 1908.84 1144.36 Q1907.82 1144.36 1907.41 1144.32 Q1907.04 1144.28 1906.71 1144.07 Q1906.42 1143.82 1906.42 1143.33 Q1906.42 1141.73 1908.11 1141.73 L1918.93 1141.98 L1929.67 1141.73 Q1930.85 1141.73 1930.85 1142.68 Q1930.85 1143.87 1930.28 1144.11 Q1929.75 1144.36 1927.98 1144.36 Q1924.91 1144.36 1923.52 1144.77 Q1922.16 1145.14 1921.75 1145.79 Q1921.39 1146.41 1920.93 1148.21 L1914.21 1175.14 L1946.96 1149.97 Q1950 1147.43 1950 1146.12 Q1950 1145.26 1949.38 1144.89 Q1948.81 1144.48 1947.37 1144.36 Q1946.35 1144.19 1946.35 1143.41 Q1946.35 1142.64 1946.64 1142.27 Q1946.96 1141.86 1947.21 1141.82 Q1947.5 1141.73 1947.95 1141.73 Q1949.46 1141.73 1952.62 1141.86 Q1955.78 1141.98 1957.29 1141.98 Q1958.32 1141.98 1960.33 1141.86 Q1962.33 1141.73 1963.24 1141.73 Q1963.69 1141.73 1963.93 1142.06 Q1964.18 1142.35 1964.18 1142.68 Z" fill="#000000" fill-rule="evenodd" fill-opacity="1" /><polyline clip-path="url(#clip303)" style="stroke:#000000; stroke-linecap:butt; stroke-linejoin:round; stroke-width:2; stroke-opacity:0.1; fill:none" points="
  366.254,885.347 3489.76,885.347 
  "/>
<polyline clip-path="url(#clip303)" style="stroke:#000000; stroke-linecap:butt; stroke-linejoin:round; stroke-width:2; stroke-opacity:0.1; fill:none" points="
  366.254,698.68 3489.76,698.68 
  "/>
<polyline clip-path="url(#clip303)" style="stroke:#000000; stroke-linecap:butt; stroke-linejoin:round; stroke-width:2; stroke-opacity:0.1; fill:none" points="
  366.254,512.012 3489.76,512.012 
  "/>
<polyline clip-path="url(#clip303)" style="stroke:#000000; stroke-linecap:butt; stroke-linejoin:round; stroke-width:2; stroke-opacity:0.1; fill:none" points="
  366.254,325.345 3489.76,325.345 
  "/>
<polyline clip-path="url(#clip303)" style="stroke:#000000; stroke-linecap:butt; stroke-linejoin:round; stroke-width:2; stroke-opacity:0.1; fill:none" points="
  366.254,138.677 3489.76,138.677 
  "/>
<polyline clip-path="url(#clip300)" style="stroke:#000000; stroke-linecap:butt; stroke-linejoin:round; stroke-width:4; stroke-opacity:1; fill:none" points="
  366.254,994.428 366.254,110.236 
  "/>
<polyline clip-path="url(#clip300)" style="stroke:#000000; stroke-linecap:butt; stroke-linejoin:round; stroke-width:4; stroke-opacity:1; fill:none" points="
  3489.76,994.428 3489.76,110.236 
  "/>
<polyline clip-path="url(#clip300)" style="stroke:#000000; stroke-linecap:butt; stroke-linejoin:round; stroke-width:4; stroke-opacity:1; fill:none" points="
  366.254,885.347 385.151,885.347 
  "/>
<polyline clip-path="url(#clip300)" style="stroke:#000000; stroke-linecap:butt; stroke-linejoin:round; stroke-width:4; stroke-opacity:1; fill:none" points="
  366.254,698.68 385.151,698.68 
  "/>
<polyline clip-path="url(#clip300)" style="stroke:#000000; stroke-linecap:butt; stroke-linejoin:round; stroke-width:4; stroke-opacity:1; fill:none" points="
  366.254,512.012 385.151,512.012 
  "/>
<polyline clip-path="url(#clip300)" style="stroke:#000000; stroke-linecap:butt; stroke-linejoin:round; stroke-width:4; stroke-opacity:1; fill:none" points="
  366.254,325.345 385.151,325.345 
  "/>
<polyline clip-path="url(#clip300)" style="stroke:#000000; stroke-linecap:butt; stroke-linejoin:round; stroke-width:4; stroke-opacity:1; fill:none" points="
  366.254,138.677 385.151,138.677 
  "/>
<path clip-path="url(#clip300)" d="M198.464 890.241 Q198.835 890.612 198.835 891.137 Q198.835 891.662 198.464 892.032 Q198.093 892.403 197.569 892.403 L157.981 892.403 Q157.456 892.403 157.086 892.032 Q156.715 891.662 156.715 891.137 Q156.715 890.612 157.086 890.241 Q157.456 889.871 157.981 889.871 L197.569 889.871 Q198.093 889.871 198.464 890.241 Z" fill="#000000" fill-rule="evenodd" fill-opacity="1" /><path clip-path="url(#clip300)" d="M204.825 886.721 Q204.825 877.427 207.172 872.362 Q210.445 864.828 218.165 864.828 Q219.802 864.828 221.5 865.291 Q223.229 865.723 225.391 867.422 Q227.583 869.12 228.911 871.899 Q231.443 877.272 231.443 886.721 Q231.443 895.954 229.096 900.987 Q225.669 908.337 218.103 908.337 Q215.262 908.337 212.36 906.885 Q209.488 905.434 207.666 901.945 Q204.825 896.726 204.825 886.721 M210.075 885.949 Q210.075 895.491 210.754 899.289 Q211.526 903.396 213.626 905.187 Q215.756 906.947 218.103 906.947 Q220.635 906.947 222.735 905.063 Q224.866 903.149 225.514 899.042 Q226.224 894.997 226.194 885.949 Q226.194 877.149 225.576 873.628 Q224.742 869.521 222.519 867.885 Q220.326 866.217 218.103 866.217 Q217.269 866.217 216.374 866.464 Q215.509 866.711 214.243 867.422 Q212.977 868.132 211.989 869.892 Q211.032 871.652 210.569 874.308 Q210.075 877.735 210.075 885.949 Z" fill="#000000" fill-rule="evenodd" fill-opacity="1" /><path clip-path="url(#clip300)" d="M240.305 905.928 Q239.348 904.909 239.348 903.581 Q239.348 902.253 240.305 901.296 Q241.263 900.308 242.714 900.308 Q244.103 900.308 245.03 901.234 Q245.987 902.13 245.987 903.612 Q245.987 905.063 244.968 906.021 Q243.98 906.947 242.714 906.947 Q241.263 906.947 240.305 905.928 Z" fill="#000000" fill-rule="evenodd" fill-opacity="1" /><path clip-path="url(#clip300)" d="M254.695 896.757 Q254.695 894.873 255.714 894.163 Q256.733 893.422 257.814 893.422 Q259.265 893.422 260.099 894.348 Q260.964 895.244 260.964 896.51 Q260.964 897.776 260.099 898.702 Q259.265 899.598 257.814 899.598 Q257.104 899.598 256.733 899.474 Q257.567 902.377 260.099 904.477 Q262.662 906.576 266.028 906.576 Q270.258 906.576 272.79 902.47 Q274.303 899.814 274.303 893.793 Q274.303 888.481 273.161 885.826 Q271.401 881.78 267.788 881.78 Q262.662 881.78 259.636 886.196 Q259.265 886.752 258.833 886.783 Q258.215 886.783 258.061 886.443 Q257.937 886.073 257.937 885.115 L257.937 866.403 Q257.937 864.89 258.555 864.89 Q258.802 864.89 259.327 865.075 Q263.31 866.835 267.726 866.866 Q272.265 866.866 276.341 865.013 Q276.65 864.828 276.835 864.828 Q277.453 864.828 277.484 865.538 Q277.484 865.785 276.959 866.526 Q276.465 867.236 275.384 868.194 Q274.303 869.12 272.914 870.016 Q271.524 870.911 269.486 871.529 Q267.479 872.115 265.256 872.115 Q262.6 872.115 259.883 871.282 L259.883 883.602 Q263.156 880.391 267.911 880.391 Q272.976 880.391 276.465 884.467 Q279.954 888.543 279.954 894.225 Q279.954 900.185 275.816 904.261 Q271.709 908.337 266.151 908.337 Q261.087 908.337 257.876 904.724 Q254.695 901.111 254.695 896.757 Z" fill="#000000" fill-rule="evenodd" fill-opacity="1" /><path clip-path="url(#clip300)" d="M285.636 886.721 Q285.636 877.427 287.983 872.362 Q291.256 864.828 298.976 864.828 Q300.612 864.828 302.311 865.291 Q304.04 865.723 306.202 867.422 Q308.394 869.12 309.722 871.899 Q312.254 877.272 312.254 886.721 Q312.254 895.954 309.907 900.987 Q306.479 908.337 298.914 908.337 Q296.073 908.337 293.171 906.885 Q290.299 905.434 288.477 901.945 Q285.636 896.726 285.636 886.721 M290.885 885.949 Q290.885 895.491 291.565 899.289 Q292.337 903.396 294.437 905.187 Q296.567 906.947 298.914 906.947 Q301.446 906.947 303.546 905.063 Q305.677 903.149 306.325 899.042 Q307.035 894.997 307.004 885.949 Q307.004 877.149 306.387 873.628 Q305.553 869.521 303.33 867.885 Q301.137 866.217 298.914 866.217 Q298.08 866.217 297.185 866.464 Q296.32 866.711 295.054 867.422 Q293.788 868.132 292.8 869.892 Q291.843 871.652 291.38 874.308 Q290.885 877.735 290.885 885.949 Z" fill="#000000" fill-rule="evenodd" fill-opacity="1" /><path clip-path="url(#clip300)" d="M199.143 703.574 Q199.514 703.944 199.514 704.469 Q199.514 704.994 199.143 705.365 Q198.773 705.735 198.248 705.735 L158.661 705.735 Q158.136 705.735 157.765 705.365 Q157.395 704.994 157.395 704.469 Q157.395 703.944 157.765 703.574 Q158.136 703.203 158.661 703.203 L198.248 703.203 Q198.773 703.203 199.143 703.574 Z" fill="#000000" fill-rule="evenodd" fill-opacity="1" /><path clip-path="url(#clip300)" d="M205.504 700.054 Q205.504 690.759 207.851 685.695 Q211.124 678.16 218.844 678.16 Q220.481 678.16 222.179 678.624 Q223.908 679.056 226.07 680.754 Q228.262 682.453 229.59 685.232 Q232.122 690.605 232.122 700.054 Q232.122 709.287 229.776 714.32 Q226.348 721.669 218.783 721.669 Q215.942 721.669 213.039 720.218 Q210.167 718.767 208.345 715.277 Q205.504 710.059 205.504 700.054 M210.754 699.282 Q210.754 708.823 211.433 712.622 Q212.205 716.728 214.305 718.519 Q216.436 720.28 218.783 720.28 Q221.315 720.28 223.414 718.396 Q225.545 716.481 226.194 712.375 Q226.904 708.329 226.873 699.282 Q226.873 690.481 226.255 686.961 Q225.422 682.854 223.198 681.217 Q221.006 679.55 218.783 679.55 Q217.949 679.55 217.053 679.797 Q216.189 680.044 214.923 680.754 Q213.657 681.464 212.668 683.225 Q211.711 684.985 211.248 687.64 Q210.754 691.068 210.754 699.282 Z" fill="#000000" fill-rule="evenodd" fill-opacity="1" /><path clip-path="url(#clip300)" d="M240.985 719.261 Q240.027 718.242 240.027 716.914 Q240.027 715.586 240.985 714.629 Q241.942 713.641 243.393 713.641 Q244.783 713.641 245.709 714.567 Q246.666 715.462 246.666 716.945 Q246.666 718.396 245.647 719.353 Q244.659 720.28 243.393 720.28 Q241.942 720.28 240.985 719.261 Z" fill="#000000" fill-rule="evenodd" fill-opacity="1" /><path clip-path="url(#clip300)" d="M255.374 720.28 Q255.374 719.137 255.467 718.797 Q255.591 718.458 256.085 717.933 L268.22 704.408 Q274.859 696.935 274.859 690.419 Q274.859 686.189 272.636 683.163 Q270.443 680.137 266.398 680.137 Q263.619 680.137 261.272 681.835 Q258.925 683.533 257.845 686.56 Q258.03 686.498 258.678 686.498 Q260.253 686.498 261.118 687.486 Q262.013 688.474 262.013 689.802 Q262.013 691.5 260.902 692.334 Q259.821 693.137 258.74 693.137 Q258.308 693.137 257.721 693.044 Q257.165 692.951 256.27 692.087 Q255.374 691.191 255.374 689.617 Q255.374 685.201 258.709 681.681 Q262.075 678.16 267.201 678.16 Q273.006 678.16 276.805 681.619 Q280.634 685.046 280.634 690.419 Q280.634 692.303 280.047 694.032 Q279.491 695.731 278.719 697.058 Q277.978 698.386 275.94 700.517 Q273.902 702.648 272.265 704.161 Q270.629 705.674 266.954 708.885 L260.253 715.401 L271.648 715.401 Q277.206 715.401 277.638 714.907 Q278.256 714.011 279.028 709.287 L280.634 709.287 L278.843 720.28 L255.374 720.28 Z" fill="#000000" fill-rule="evenodd" fill-opacity="1" /><path clip-path="url(#clip300)" d="M286.995 710.089 Q286.995 708.206 288.014 707.496 Q289.033 706.755 290.113 706.755 Q291.565 706.755 292.399 707.681 Q293.263 708.576 293.263 709.842 Q293.263 711.108 292.399 712.035 Q291.565 712.93 290.113 712.93 Q289.403 712.93 289.033 712.807 Q289.866 715.709 292.399 717.809 Q294.962 719.909 298.327 719.909 Q302.558 719.909 305.09 715.802 Q306.603 713.146 306.603 707.125 Q306.603 701.814 305.46 699.158 Q303.7 695.113 300.087 695.113 Q294.962 695.113 291.935 699.529 Q291.565 700.085 291.132 700.115 Q290.515 700.115 290.361 699.776 Q290.237 699.405 290.237 698.448 L290.237 679.735 Q290.237 678.222 290.855 678.222 Q291.102 678.222 291.627 678.407 Q295.61 680.168 300.026 680.198 Q304.565 680.198 308.641 678.346 Q308.95 678.16 309.135 678.16 Q309.753 678.16 309.784 678.871 Q309.784 679.118 309.259 679.859 Q308.765 680.569 307.684 681.526 Q306.603 682.453 305.213 683.348 Q303.824 684.244 301.786 684.861 Q299.779 685.448 297.555 685.448 Q294.9 685.448 292.182 684.614 L292.182 696.935 Q295.456 693.723 300.211 693.723 Q305.275 693.723 308.765 697.8 Q312.254 701.876 312.254 707.557 Q312.254 713.517 308.116 717.593 Q304.009 721.669 298.451 721.669 Q293.387 721.669 290.175 718.056 Q286.995 714.443 286.995 710.089 Z" fill="#000000" fill-rule="evenodd" fill-opacity="1" /><path clip-path="url(#clip300)" d="M204.825 513.386 Q204.825 504.092 207.172 499.027 Q210.445 491.493 218.165 491.493 Q219.802 491.493 221.5 491.956 Q223.229 492.388 225.391 494.087 Q227.583 495.785 228.911 498.564 Q231.443 503.937 231.443 513.386 Q231.443 522.619 229.096 527.652 Q225.669 535.002 218.103 535.002 Q215.262 535.002 212.36 533.55 Q209.488 532.099 207.666 528.61 Q204.825 523.391 204.825 513.386 M210.075 512.614 Q210.075 522.156 210.754 525.954 Q211.526 530.061 213.626 531.852 Q215.756 533.612 218.103 533.612 Q220.635 533.612 222.735 531.729 Q224.866 529.814 225.514 525.707 Q226.224 521.662 226.194 512.614 Q226.194 503.814 225.576 500.293 Q224.742 496.187 222.519 494.55 Q220.326 492.882 218.103 492.882 Q217.269 492.882 216.374 493.13 Q215.509 493.377 214.243 494.087 Q212.977 494.797 211.989 496.557 Q211.032 498.317 210.569 500.973 Q210.075 504.4 210.075 512.614 Z" fill="#000000" fill-rule="evenodd" fill-opacity="1" /><path clip-path="url(#clip300)" d="M240.305 532.593 Q239.348 531.574 239.348 530.246 Q239.348 528.918 240.305 527.961 Q241.263 526.973 242.714 526.973 Q244.103 526.973 245.03 527.899 Q245.987 528.795 245.987 530.277 Q245.987 531.729 244.968 532.686 Q243.98 533.612 242.714 533.612 Q241.263 533.612 240.305 532.593 Z" fill="#000000" fill-rule="evenodd" fill-opacity="1" /><path clip-path="url(#clip300)" d="M254.016 513.386 Q254.016 504.092 256.363 499.027 Q259.636 491.493 267.356 491.493 Q268.992 491.493 270.69 491.956 Q272.42 492.388 274.581 494.087 Q276.774 495.785 278.101 498.564 Q280.634 503.937 280.634 513.386 Q280.634 522.619 278.287 527.652 Q274.859 535.002 267.294 535.002 Q264.453 535.002 261.55 533.55 Q258.678 532.099 256.857 528.61 Q254.016 523.391 254.016 513.386 M259.265 512.614 Q259.265 522.156 259.944 525.954 Q260.716 530.061 262.816 531.852 Q264.947 533.612 267.294 533.612 Q269.826 533.612 271.926 531.729 Q274.056 529.814 274.705 525.707 Q275.415 521.662 275.384 512.614 Q275.384 503.814 274.767 500.293 Q273.933 496.187 271.709 494.55 Q269.517 492.882 267.294 492.882 Q266.46 492.882 265.565 493.13 Q264.7 493.377 263.434 494.087 Q262.168 494.797 261.18 496.557 Q260.222 498.317 259.759 500.973 Q259.265 504.4 259.265 512.614 Z" fill="#000000" fill-rule="evenodd" fill-opacity="1" /><path clip-path="url(#clip300)" d="M285.636 513.386 Q285.636 504.092 287.983 499.027 Q291.256 491.493 298.976 491.493 Q300.612 491.493 302.311 491.956 Q304.04 492.388 306.202 494.087 Q308.394 495.785 309.722 498.564 Q312.254 503.937 312.254 513.386 Q312.254 522.619 309.907 527.652 Q306.479 535.002 298.914 535.002 Q296.073 535.002 293.171 533.55 Q290.299 532.099 288.477 528.61 Q285.636 523.391 285.636 513.386 M290.885 512.614 Q290.885 522.156 291.565 525.954 Q292.337 530.061 294.437 531.852 Q296.567 533.612 298.914 533.612 Q301.446 533.612 303.546 531.729 Q305.677 529.814 306.325 525.707 Q307.035 521.662 307.004 512.614 Q307.004 503.814 306.387 500.293 Q305.553 496.187 303.33 494.55 Q301.137 492.882 298.914 492.882 Q298.08 492.882 297.185 493.13 Q296.32 493.377 295.054 494.087 Q293.788 494.797 292.8 496.557 Q291.843 498.317 291.38 500.973 Q290.885 504.4 290.885 512.614 Z" fill="#000000" fill-rule="evenodd" fill-opacity="1" /><path clip-path="url(#clip300)" d="M205.504 326.719 Q205.504 317.424 207.851 312.36 Q211.124 304.825 218.844 304.825 Q220.481 304.825 222.179 305.289 Q223.908 305.721 226.07 307.419 Q228.262 309.118 229.59 311.897 Q232.122 317.27 232.122 326.719 Q232.122 335.952 229.776 340.985 Q226.348 348.334 218.783 348.334 Q215.942 348.334 213.039 346.883 Q210.167 345.432 208.345 341.942 Q205.504 336.724 205.504 326.719 M210.754 325.947 Q210.754 335.488 211.433 339.287 Q212.205 343.394 214.305 345.185 Q216.436 346.945 218.783 346.945 Q221.315 346.945 223.414 345.061 Q225.545 343.147 226.194 339.04 Q226.904 334.994 226.873 325.947 Q226.873 317.146 226.255 313.626 Q225.422 309.519 223.198 307.882 Q221.006 306.215 218.783 306.215 Q217.949 306.215 217.053 306.462 Q216.189 306.709 214.923 307.419 Q213.657 308.13 212.668 309.89 Q211.711 311.65 211.248 314.305 Q210.754 317.733 210.754 325.947 Z" fill="#000000" fill-rule="evenodd" fill-opacity="1" /><path clip-path="url(#clip300)" d="M240.985 345.926 Q240.027 344.907 240.027 343.579 Q240.027 342.251 240.985 341.294 Q241.942 340.306 243.393 340.306 Q244.783 340.306 245.709 341.232 Q246.666 342.128 246.666 343.61 Q246.666 345.061 245.647 346.018 Q244.659 346.945 243.393 346.945 Q241.942 346.945 240.985 345.926 Z" fill="#000000" fill-rule="evenodd" fill-opacity="1" /><path clip-path="url(#clip300)" d="M255.374 346.945 Q255.374 345.802 255.467 345.462 Q255.591 345.123 256.085 344.598 L268.22 331.073 Q274.859 323.6 274.859 317.084 Q274.859 312.854 272.636 309.828 Q270.443 306.802 266.398 306.802 Q263.619 306.802 261.272 308.5 Q258.925 310.198 257.845 313.225 Q258.03 313.163 258.678 313.163 Q260.253 313.163 261.118 314.151 Q262.013 315.139 262.013 316.467 Q262.013 318.165 260.902 318.999 Q259.821 319.802 258.74 319.802 Q258.308 319.802 257.721 319.709 Q257.165 319.617 256.27 318.752 Q255.374 317.856 255.374 316.282 Q255.374 311.866 258.709 308.346 Q262.075 304.825 267.201 304.825 Q273.006 304.825 276.805 308.284 Q280.634 311.712 280.634 317.084 Q280.634 318.968 280.047 320.697 Q279.491 322.396 278.719 323.724 Q277.978 325.051 275.94 327.182 Q273.902 329.313 272.265 330.826 Q270.629 332.339 266.954 335.55 L260.253 342.066 L271.648 342.066 Q277.206 342.066 277.638 341.572 Q278.256 340.676 279.028 335.952 L280.634 335.952 L278.843 346.945 L255.374 346.945 Z" fill="#000000" fill-rule="evenodd" fill-opacity="1" /><path clip-path="url(#clip300)" d="M286.995 336.755 Q286.995 334.871 288.014 334.161 Q289.033 333.42 290.113 333.42 Q291.565 333.42 292.399 334.346 Q293.263 335.241 293.263 336.508 Q293.263 337.774 292.399 338.7 Q291.565 339.595 290.113 339.595 Q289.403 339.595 289.033 339.472 Q289.866 342.375 292.399 344.474 Q294.962 346.574 298.327 346.574 Q302.558 346.574 305.09 342.467 Q306.603 339.812 306.603 333.79 Q306.603 328.479 305.46 325.823 Q303.7 321.778 300.087 321.778 Q294.962 321.778 291.935 326.194 Q291.565 326.75 291.132 326.781 Q290.515 326.781 290.361 326.441 Q290.237 326.07 290.237 325.113 L290.237 306.4 Q290.237 304.887 290.855 304.887 Q291.102 304.887 291.627 305.072 Q295.61 306.833 300.026 306.863 Q304.565 306.863 308.641 305.011 Q308.95 304.825 309.135 304.825 Q309.753 304.825 309.784 305.536 Q309.784 305.783 309.259 306.524 Q308.765 307.234 307.684 308.191 Q306.603 309.118 305.213 310.013 Q303.824 310.909 301.786 311.526 Q299.779 312.113 297.555 312.113 Q294.9 312.113 292.182 311.279 L292.182 323.6 Q295.456 320.389 300.211 320.389 Q305.275 320.389 308.765 324.465 Q312.254 328.541 312.254 334.222 Q312.254 340.182 308.116 344.258 Q304.009 348.334 298.451 348.334 Q293.387 348.334 290.175 344.721 Q286.995 341.109 286.995 336.755 Z" fill="#000000" fill-rule="evenodd" fill-opacity="1" /><path clip-path="url(#clip300)" d="M204.825 140.051 Q204.825 130.757 207.172 125.693 Q210.445 118.158 218.165 118.158 Q219.802 118.158 221.5 118.621 Q223.229 119.053 225.391 120.752 Q227.583 122.45 228.911 125.229 Q231.443 130.602 231.443 140.051 Q231.443 149.284 229.096 154.318 Q225.669 161.667 218.103 161.667 Q215.262 161.667 212.36 160.215 Q209.488 158.764 207.666 155.275 Q204.825 150.056 204.825 140.051 M210.075 139.279 Q210.075 148.821 210.754 152.619 Q211.526 156.726 213.626 158.517 Q215.756 160.277 218.103 160.277 Q220.635 160.277 222.735 158.394 Q224.866 156.479 225.514 152.372 Q226.224 148.327 226.194 139.279 Q226.194 130.479 225.576 126.959 Q224.742 122.852 222.519 121.215 Q220.326 119.548 218.103 119.548 Q217.269 119.548 216.374 119.795 Q215.509 120.042 214.243 120.752 Q212.977 121.462 211.989 123.222 Q211.032 124.982 210.569 127.638 Q210.075 131.065 210.075 139.279 Z" fill="#000000" fill-rule="evenodd" fill-opacity="1" /><path clip-path="url(#clip300)" d="M240.305 159.258 Q239.348 158.239 239.348 156.911 Q239.348 155.584 240.305 154.626 Q241.263 153.638 242.714 153.638 Q244.103 153.638 245.03 154.565 Q245.987 155.46 245.987 156.942 Q245.987 158.394 244.968 159.351 Q243.98 160.277 242.714 160.277 Q241.263 160.277 240.305 159.258 Z" fill="#000000" fill-rule="evenodd" fill-opacity="1" /><path clip-path="url(#clip300)" d="M254.695 150.087 Q254.695 148.203 255.714 147.493 Q256.733 146.752 257.814 146.752 Q259.265 146.752 260.099 147.679 Q260.964 148.574 260.964 149.84 Q260.964 151.106 260.099 152.032 Q259.265 152.928 257.814 152.928 Q257.104 152.928 256.733 152.804 Q257.567 155.707 260.099 157.807 Q262.662 159.907 266.028 159.907 Q270.258 159.907 272.79 155.8 Q274.303 153.144 274.303 147.123 Q274.303 141.811 273.161 139.156 Q271.401 135.111 267.788 135.111 Q262.662 135.111 259.636 139.526 Q259.265 140.082 258.833 140.113 Q258.215 140.113 258.061 139.773 Q257.937 139.403 257.937 138.446 L257.937 119.733 Q257.937 118.22 258.555 118.22 Q258.802 118.22 259.327 118.405 Q263.31 120.165 267.726 120.196 Q272.265 120.196 276.341 118.343 Q276.65 118.158 276.835 118.158 Q277.453 118.158 277.484 118.868 Q277.484 119.115 276.959 119.856 Q276.465 120.567 275.384 121.524 Q274.303 122.45 272.914 123.346 Q271.524 124.241 269.486 124.859 Q267.479 125.445 265.256 125.445 Q262.6 125.445 259.883 124.612 L259.883 136.933 Q263.156 133.721 267.911 133.721 Q272.976 133.721 276.465 137.797 Q279.954 141.873 279.954 147.555 Q279.954 153.515 275.816 157.591 Q271.709 161.667 266.151 161.667 Q261.087 161.667 257.876 158.054 Q254.695 154.441 254.695 150.087 Z" fill="#000000" fill-rule="evenodd" fill-opacity="1" /><path clip-path="url(#clip300)" d="M285.636 140.051 Q285.636 130.757 287.983 125.693 Q291.256 118.158 298.976 118.158 Q300.612 118.158 302.311 118.621 Q304.04 119.053 306.202 120.752 Q308.394 122.45 309.722 125.229 Q312.254 130.602 312.254 140.051 Q312.254 149.284 309.907 154.318 Q306.479 161.667 298.914 161.667 Q296.073 161.667 293.171 160.215 Q290.299 158.764 288.477 155.275 Q285.636 150.056 285.636 140.051 M290.885 139.279 Q290.885 148.821 291.565 152.619 Q292.337 156.726 294.437 158.517 Q296.567 160.277 298.914 160.277 Q301.446 160.277 303.546 158.394 Q305.677 156.479 306.325 152.372 Q307.035 148.327 307.004 139.279 Q307.004 130.479 306.387 126.959 Q305.553 122.852 303.33 121.215 Q301.137 119.548 298.914 119.548 Q298.08 119.548 297.185 119.795 Q296.32 120.042 295.054 120.752 Q293.788 121.462 292.8 123.222 Q291.843 124.982 291.38 127.638 Q290.885 131.065 290.885 139.279 Z" fill="#000000" fill-rule="evenodd" fill-opacity="1" /><path clip-path="url(#clip300)" d="M92.3417 808.962 Q93.1205 808.962 93.5304 809.29 Q93.8993 809.577 93.9813 809.864 Q94.0223 810.11 94.0223 810.479 Q94.0223 811.544 93.8993 815.234 Q93.7763 818.923 93.7763 819.988 Q93.7763 821.71 93.8993 825.235 Q94.0223 828.76 94.0223 830.482 Q94.0223 831.629 93.0795 831.629 Q92.4647 831.629 92.1368 831.506 Q91.7679 831.383 91.6449 831.055 Q91.4809 830.686 91.4809 830.482 Q91.4399 830.236 91.4399 829.621 Q91.4399 828.801 91.358 827.94 Q91.235 827.079 90.9891 826.014 Q90.7431 824.948 90.1283 824.292 Q89.5134 823.595 88.6527 823.595 Q88.2838 823.595 85.2506 823.882 Q82.2174 824.169 78.6923 824.538 Q75.1262 824.907 74.6343 824.948 L74.6343 846.016 Q77.9545 847.943 80.2499 849.296 Q82.5453 850.648 83.3241 851.14 Q84.1029 851.632 84.5947 851.919 Q85.0866 852.206 85.3735 852.37 Q87.546 853.558 88.4887 853.558 Q91.112 853.558 91.4399 849.624 Q91.4399 848.271 92.4237 848.271 Q93.1615 848.271 93.5714 848.599 Q93.9403 848.927 93.9813 849.214 Q94.0223 849.46 94.0223 849.869 Q94.0223 851.222 93.8993 854.05 Q93.7763 856.879 93.7763 858.272 Q93.7763 859.461 93.8993 861.92 Q94.0223 864.38 94.0223 865.486 Q94.0223 865.978 93.7353 866.265 Q93.4484 866.552 93.0795 866.552 Q92.5057 866.552 92.1778 866.47 Q91.8498 866.347 91.6859 866.019 Q91.5219 865.691 91.5219 865.527 Q91.4809 865.363 91.4399 864.79 Q91.235 861.674 89.7594 859.256 Q88.2428 856.797 84.3488 854.46 L35.3256 825.276 Q34.8338 824.989 34.5878 824.784 Q34.3419 824.579 34.1369 824.169 Q33.932 823.718 33.932 823.062 Q33.932 822.038 34.2599 821.833 Q34.5468 821.628 35.9405 821.505 L88.4067 816.381 Q89.5134 816.258 89.9643 816.176 Q90.3742 816.053 90.8251 815.52 Q91.235 814.947 91.358 813.922 Q91.4399 812.856 91.4399 810.889 Q91.4399 810.151 91.4809 809.864 Q91.4809 809.577 91.6859 809.29 Q91.8908 808.962 92.3417 808.962 M72.011 825.194 L44.3433 827.858 L72.011 844.418 L72.011 825.194 Z" fill="#000000" fill-rule="evenodd" fill-opacity="1" /><path clip-path="url(#clip300)" d="M88.5306 778.935 Q90.1374 778.935 90.9982 779.738 Q91.8302 780.541 91.8302 781.632 Q91.8302 782.521 91.3138 783.009 Q90.7973 783.468 90.1087 783.468 Q89.1044 783.468 88.3011 782.665 Q87.4977 781.832 87.469 780.627 Q86.4074 781.029 85.7761 782.091 Q85.1162 783.152 84.944 784.099 Q84.7719 785.017 84.7719 785.935 Q84.7719 787.743 85.3457 789.12 Q85.9196 790.498 86.809 791.186 Q87.6698 791.875 88.5019 792.19 Q89.334 792.506 90.0513 792.506 Q90.6825 792.506 91.199 792.363 Q91.6868 792.19 92.0598 791.789 Q92.4041 791.387 92.6336 791.1 Q92.8632 790.785 93.064 790.096 Q93.2649 789.407 93.3509 789.12 Q93.4083 788.833 93.5805 788.03 Q93.9248 786.366 94.1256 785.62 Q94.2978 784.874 94.7856 783.898 Q95.2733 782.894 96.048 782.148 Q97.8557 780.34 100.352 780.34 Q101.27 780.34 102.389 780.656 Q103.508 780.943 104.914 781.775 Q106.32 782.607 107.439 783.87 Q108.558 785.132 109.333 787.313 Q110.107 789.465 110.107 792.162 Q110.107 795.92 108.529 798.245 Q106.922 800.569 104.398 800.569 Q102.561 800.569 101.557 799.564 Q100.524 798.56 100.524 797.269 Q100.524 796.293 101.069 795.691 Q101.586 795.088 102.561 795.088 Q103.881 795.088 104.885 796.15 Q105.89 797.212 105.689 798.79 Q108.787 797.441 108.787 792.104 Q108.787 790.096 108.271 788.547 Q107.726 786.968 106.98 786.108 Q106.205 785.218 105.258 784.644 Q104.311 784.07 103.594 783.898 Q102.877 783.697 102.332 783.697 Q101.385 783.697 100.668 784.07 Q99.9502 784.443 99.5485 784.96 Q99.1181 785.448 98.7738 786.395 Q98.4008 787.313 98.2574 787.973 Q98.1139 788.633 97.8843 789.809 Q97.7696 790.354 97.7122 790.698 Q97.6261 791.043 97.3966 791.76 Q97.1383 792.449 96.8801 792.936 Q96.6219 793.396 96.1628 793.998 Q95.7037 794.601 95.1586 794.974 Q94.6134 795.347 93.81 795.605 Q93.0066 795.863 92.0598 795.863 Q91.199 795.863 90.1661 795.605 Q89.1331 795.318 87.9281 794.601 Q86.723 793.855 85.7474 792.793 Q84.7719 791.731 84.1406 789.952 Q83.4807 788.145 83.4807 785.935 Q83.4807 782.722 84.9727 780.828 Q86.436 778.935 88.5306 778.935 Z" fill="#000000" fill-rule="evenodd" fill-opacity="1" /><path clip-path="url(#clip300)" d="M102.647 751.174 Q102.906 750.945 103.164 750.945 Q103.422 750.945 104.168 751.519 Q104.914 752.064 105.918 753.24 Q106.922 754.417 107.869 755.937 Q108.816 757.458 109.447 759.696 Q110.107 761.934 110.107 764.287 Q110.107 768.505 107.095 771.03 Q104.082 773.526 99.4624 773.526 Q96.5071 773.526 93.8961 772.55 Q91.2564 771.575 89.3914 769.997 Q87.5264 768.39 86.1778 766.381 Q84.8006 764.344 84.1406 762.221 Q83.4807 760.098 83.4807 758.118 Q83.4807 755.22 84.944 753.527 Q86.4074 751.834 88.4732 751.834 Q88.961 751.834 89.5635 751.978 Q90.1661 752.093 91.1129 752.494 Q92.0598 752.867 93.0066 753.843 Q93.9248 754.818 94.5273 756.253 Q95.8759 759.438 95.8759 765.234 L95.8759 768.361 Q99.5772 769.279 101.987 769.279 Q102.934 769.279 103.91 769.107 Q104.857 768.935 106.062 768.476 Q107.267 767.988 108.041 766.898 Q108.787 765.779 108.787 764.172 Q108.787 763.656 108.759 763.111 Q108.73 762.537 108.414 761.102 Q108.099 759.639 107.554 758.348 Q107.009 757.056 105.832 755.421 Q104.627 753.757 102.992 752.437 Q102.389 751.978 102.389 751.662 Q102.389 751.404 102.647 751.174 M88.4732 753.785 Q86.8951 753.785 85.8335 754.962 Q84.7719 756.11 84.7719 758.118 Q84.7719 758.749 84.9153 759.524 Q85.0588 760.299 85.6613 761.59 Q86.2639 762.852 87.2681 763.971 Q88.2437 765.09 90.1661 766.209 Q92.0598 767.328 94.5847 767.988 L94.5847 765.578 Q94.5847 764.746 94.5847 764.143 Q94.556 763.541 94.4412 762.221 Q94.3265 760.873 94.1256 759.897 Q93.8961 758.921 93.437 757.688 Q92.9779 756.454 92.3754 755.679 Q91.7442 754.876 90.7399 754.331 Q89.7357 753.785 88.4732 753.785 Z" fill="#000000" fill-rule="evenodd" fill-opacity="1" /><path clip-path="url(#clip300)" d="M33.1639 752.423 Q33.3934 752.423 34.2829 752.681 Q35.1724 752.939 36.5496 753.57 Q37.9268 754.173 39.1893 755.034 Q40.4231 755.866 41.3412 757.243 Q42.2307 758.592 42.2307 760.141 Q42.2307 762.207 40.8535 763.584 Q39.4762 764.961 37.4104 764.961 Q36.2914 764.961 34.1681 764.187 Q24.4701 760.543 20.9983 760.543 Q16.8952 760.543 16.8952 763.728 Q16.8952 765.535 17.6412 767.171 Q18.3872 768.806 19.4202 769.868 Q20.4531 770.929 21.6295 771.761 Q22.8059 772.593 23.5806 772.966 Q24.3553 773.311 24.6996 773.397 L38.8737 776.926 Q40.0788 777.213 40.6526 777.414 Q41.2265 777.615 41.7142 778.16 Q42.2307 778.705 42.2307 779.566 Q42.2307 780.283 41.8003 780.8 Q41.3699 781.287 40.6239 781.287 Q40.5092 781.287 39.9066 781.144 Q39.3041 781 38.472 780.8 Q37.6399 780.599 37.1521 780.513 Q33.25 779.48 32.7048 779.336 L25.876 777.701 Q22.4903 776.811 20.9983 776.811 Q16.8952 776.811 16.8952 779.996 Q16.8952 781.574 17.4978 783.066 Q18.0716 784.53 18.875 785.534 Q19.6784 786.538 20.7974 787.456 Q21.8877 788.346 22.6337 788.805 Q23.351 789.235 24.0684 789.579 L26.995 790.325 Q27.7984 790.498 30.9259 791.33 L36.234 792.621 Q40.1935 793.539 40.5665 793.74 Q41.3699 794.027 41.8003 794.658 Q42.2307 795.289 42.2307 795.92 Q42.2307 796.638 41.8003 797.126 Q41.3699 797.613 40.6239 797.613 Q40.5092 797.613 40.0788 797.527 Q39.6484 797.441 39.0458 797.298 Q38.4433 797.154 38.099 797.097 L24.5274 793.682 Q22.0599 793.051 21.2852 792.908 Q20.4818 792.736 19.5923 792.736 Q16.8952 792.736 16.8952 794.572 Q16.8952 796.064 18.6742 797.039 Q20.4531 798.015 23.8962 798.847 Q24.8431 799.105 25.0439 799.278 Q25.2448 799.421 25.2448 799.851 Q25.2161 800.569 24.6422 800.569 Q24.4987 800.569 23.5806 800.339 Q22.6624 800.11 21.2852 799.679 Q19.8793 799.22 18.9611 798.732 Q18.3586 798.445 17.9569 798.187 Q17.5552 797.929 16.9239 797.412 Q16.2927 796.896 15.9484 796.121 Q15.6041 795.347 15.6041 794.4 Q15.6041 792.305 16.9526 790.756 Q18.3012 789.178 20.7113 788.977 Q15.6041 785.161 15.6041 779.824 Q15.6041 776.811 17.1248 775.004 Q18.5881 773.311 21.2852 773.11 Q15.6041 769.15 15.6041 763.527 Q15.6041 760.284 17.2969 758.534 Q18.9611 756.784 21.8877 756.784 Q23.4084 756.784 26.3064 757.559 Q29.1756 758.333 30.6103 758.85 Q32.0449 759.366 34.7994 760.37 Q37.4391 761.432 38.9885 761.432 Q39.9927 761.432 40.4518 761.088 Q40.9109 760.743 40.9109 759.997 Q40.9109 758.85 40.2509 757.846 Q39.5623 756.841 38.4433 756.124 Q37.2956 755.378 36.1479 754.89 Q34.9715 754.402 33.6517 754.029 Q32.9343 753.8 32.7622 753.685 Q32.59 753.542 32.59 753.14 Q32.59 752.423 33.1639 752.423 Z" fill="#000000" fill-rule="evenodd" fill-opacity="1" /><path clip-path="url(#clip300)" d="M34.7707 725.9 Q35.0289 725.671 35.2871 725.671 Q35.5454 725.671 36.2914 726.244 Q37.0374 726.79 38.0416 727.966 Q39.0458 729.142 39.9927 730.663 Q40.9395 732.184 41.5708 734.422 Q42.2307 736.66 42.2307 739.013 Q42.2307 743.403 39.3328 745.985 Q36.4348 748.539 32.2744 748.539 Q28.2288 748.539 24.3553 746.272 Q20.4531 744.005 18.0429 740.332 Q15.6041 736.66 15.6041 732.786 Q15.6041 729.716 17.0387 727.794 Q18.4733 725.871 20.654 725.871 Q22.3468 725.871 23.3797 726.847 Q24.4127 727.823 24.4127 729.142 Q24.4127 730.061 23.8962 730.692 Q23.351 731.323 22.3468 731.323 Q21.0556 731.323 20.0514 730.261 Q19.6497 729.86 19.4776 729.401 Q19.2767 728.913 19.2767 728.626 Q19.248 728.339 19.248 727.679 Q18.129 728.282 17.5265 729.716 Q16.8952 731.122 16.8952 732.729 Q16.8952 735.11 18.5594 737.377 Q20.1949 739.644 22.7772 741.021 Q25.3021 742.398 28.8887 743.288 Q32.4466 744.177 34.5124 744.177 Q37.353 744.177 39.1319 742.857 Q40.9109 741.538 40.9109 738.898 Q40.9109 738.381 40.8822 737.836 Q40.8535 737.262 40.5379 735.828 Q40.2222 734.364 39.6771 733.073 Q39.1319 731.782 37.9555 730.147 Q36.7504 728.482 35.115 727.163 Q34.5124 726.704 34.5124 726.388 Q34.5124 726.13 34.7707 725.9 Z" fill="#000000" fill-rule="evenodd" fill-opacity="1" /><path clip-path="url(#clip300)" d="M113.82 714.403 Q113.41 714.403 112.508 714.075 L33.3171 684.44 Q33.2352 684.44 32.7843 684.235 Q32.3334 684.03 32.0465 683.907 Q31.7186 683.784 31.4726 683.538 Q31.2267 683.251 31.2267 682.923 Q31.2267 682.104 32.2514 682.104 Q32.3334 682.104 33.3171 682.35 L112.59 712.067 Q114.025 712.559 114.435 712.887 Q114.845 713.174 114.845 713.665 Q114.845 714.403 113.82 714.403 Z" fill="#000000" fill-rule="evenodd" fill-opacity="1" /><path clip-path="url(#clip300)" d="M92.3417 615.247 Q93.1205 615.247 93.5304 615.575 Q93.8993 615.862 93.9813 616.149 Q94.0223 616.395 94.0223 616.764 Q94.0223 617.829 93.8993 621.518 Q93.7763 625.207 93.7763 626.273 Q93.7763 627.995 93.8993 631.52 Q94.0223 635.045 94.0223 636.766 Q94.0223 637.914 93.0795 637.914 Q92.4647 637.914 92.1368 637.791 Q91.7679 637.668 91.6449 637.34 Q91.4809 636.971 91.4809 636.766 Q91.4399 636.52 91.4399 635.906 Q91.4399 635.086 91.358 634.225 Q91.235 633.364 90.9891 632.298 Q90.7431 631.233 90.1283 630.577 Q89.5134 629.88 88.6527 629.88 Q88.2838 629.88 85.2506 630.167 Q82.2174 630.454 78.6923 630.823 Q75.1262 631.192 74.6343 631.233 L74.6343 652.301 Q77.9545 654.228 80.2499 655.58 Q82.5453 656.933 83.3241 657.425 Q84.1029 657.917 84.5947 658.204 Q85.0866 658.491 85.3735 658.655 Q87.546 659.843 88.4887 659.843 Q91.112 659.843 91.4399 655.908 Q91.4399 654.556 92.4237 654.556 Q93.1615 654.556 93.5714 654.884 Q93.9403 655.211 93.9813 655.498 Q94.0223 655.744 94.0223 656.154 Q94.0223 657.507 93.8993 660.335 Q93.7763 663.163 93.7763 664.557 Q93.7763 665.746 93.8993 668.205 Q94.0223 670.664 94.0223 671.771 Q94.0223 672.263 93.7353 672.55 Q93.4484 672.837 93.0795 672.837 Q92.5057 672.837 92.1778 672.755 Q91.8498 672.632 91.6859 672.304 Q91.5219 671.976 91.5219 671.812 Q91.4809 671.648 91.4399 671.074 Q91.235 667.959 89.7594 665.541 Q88.2428 663.081 84.3488 660.745 L35.3256 631.561 Q34.8338 631.274 34.5878 631.069 Q34.3419 630.864 34.1369 630.454 Q33.932 630.003 33.932 629.347 Q33.932 628.322 34.2599 628.118 Q34.5468 627.913 35.9405 627.79 L88.4067 622.666 Q89.5134 622.543 89.9643 622.461 Q90.3742 622.338 90.8251 621.805 Q91.235 621.231 91.358 620.207 Q91.4399 619.141 91.4399 617.173 Q91.4399 616.436 91.4809 616.149 Q91.4809 615.862 91.6859 615.575 Q91.8908 615.247 92.3417 615.247 M72.011 631.479 L44.3433 634.143 L72.011 650.703 L72.011 631.479 Z" fill="#000000" fill-rule="evenodd" fill-opacity="1" /><path clip-path="url(#clip300)" d="M88.5306 585.219 Q90.1374 585.219 90.9982 586.023 Q91.8302 586.826 91.8302 587.916 Q91.8302 588.806 91.3138 589.294 Q90.7973 589.753 90.1087 589.753 Q89.1044 589.753 88.3011 588.949 Q87.4977 588.117 87.469 586.912 Q86.4074 587.314 85.7761 588.375 Q85.1162 589.437 84.944 590.384 Q84.7719 591.302 84.7719 592.22 Q84.7719 594.028 85.3457 595.405 Q85.9196 596.782 86.809 597.471 Q87.6698 598.16 88.5019 598.475 Q89.334 598.791 90.0513 598.791 Q90.6825 598.791 91.199 598.647 Q91.6868 598.475 92.0598 598.074 Q92.4041 597.672 92.6336 597.385 Q92.8632 597.069 93.064 596.381 Q93.2649 595.692 93.3509 595.405 Q93.4083 595.118 93.5805 594.315 Q93.9248 592.651 94.1256 591.905 Q94.2978 591.159 94.7856 590.183 Q95.2733 589.179 96.048 588.433 Q97.8557 586.625 100.352 586.625 Q101.27 586.625 102.389 586.941 Q103.508 587.228 104.914 588.06 Q106.32 588.892 107.439 590.154 Q108.558 591.417 109.333 593.597 Q110.107 595.749 110.107 598.447 Q110.107 602.205 108.529 604.529 Q106.922 606.853 104.398 606.853 Q102.561 606.853 101.557 605.849 Q100.524 604.845 100.524 603.554 Q100.524 602.578 101.069 601.976 Q101.586 601.373 102.561 601.373 Q103.881 601.373 104.885 602.435 Q105.89 603.496 105.689 605.074 Q108.787 603.726 108.787 598.389 Q108.787 596.381 108.271 594.831 Q107.726 593.253 106.98 592.392 Q106.205 591.503 105.258 590.929 Q104.311 590.355 103.594 590.183 Q102.877 589.982 102.332 589.982 Q101.385 589.982 100.668 590.355 Q99.9502 590.728 99.5485 591.245 Q99.1181 591.732 98.7738 592.679 Q98.4008 593.597 98.2574 594.257 Q98.1139 594.917 97.8843 596.094 Q97.7696 596.639 97.7122 596.983 Q97.6261 597.327 97.3966 598.045 Q97.1383 598.733 96.8801 599.221 Q96.6219 599.68 96.1628 600.283 Q95.7037 600.885 95.1586 601.258 Q94.6134 601.631 93.81 601.89 Q93.0066 602.148 92.0598 602.148 Q91.199 602.148 90.1661 601.89 Q89.1331 601.603 87.9281 600.885 Q86.723 600.139 85.7474 599.078 Q84.7719 598.016 84.1406 596.237 Q83.4807 594.43 83.4807 592.22 Q83.4807 589.007 84.9727 587.113 Q86.436 585.219 88.5306 585.219 Z" fill="#000000" fill-rule="evenodd" fill-opacity="1" /><path clip-path="url(#clip300)" d="M102.647 557.459 Q102.906 557.23 103.164 557.23 Q103.422 557.23 104.168 557.804 Q104.914 558.349 105.918 559.525 Q106.922 560.701 107.869 562.222 Q108.816 563.743 109.447 565.981 Q110.107 568.219 110.107 570.572 Q110.107 574.789 107.095 577.314 Q104.082 579.811 99.4624 579.811 Q96.5071 579.811 93.8961 578.835 Q91.2564 577.86 89.3914 576.281 Q87.5264 574.675 86.1778 572.666 Q84.8006 570.629 84.1406 568.506 Q83.4807 566.383 83.4807 564.403 Q83.4807 561.505 84.944 559.812 Q86.4074 558.119 88.4732 558.119 Q88.961 558.119 89.5635 558.263 Q90.1661 558.377 91.1129 558.779 Q92.0598 559.152 93.0066 560.128 Q93.9248 561.103 94.5273 562.538 Q95.8759 565.723 95.8759 571.519 L95.8759 574.646 Q99.5772 575.564 101.987 575.564 Q102.934 575.564 103.91 575.392 Q104.857 575.22 106.062 574.761 Q107.267 574.273 108.041 573.183 Q108.787 572.064 108.787 570.457 Q108.787 569.94 108.759 569.395 Q108.73 568.821 108.414 567.387 Q108.099 565.923 107.554 564.632 Q107.009 563.341 105.832 561.706 Q104.627 560.042 102.992 558.722 Q102.389 558.263 102.389 557.947 Q102.389 557.689 102.647 557.459 M88.4732 560.07 Q86.8951 560.07 85.8335 561.247 Q84.7719 562.394 84.7719 564.403 Q84.7719 565.034 84.9153 565.809 Q85.0588 566.583 85.6613 567.875 Q86.2639 569.137 87.2681 570.256 Q88.2437 571.375 90.1661 572.494 Q92.0598 573.613 94.5847 574.273 L94.5847 571.863 Q94.5847 571.031 94.5847 570.428 Q94.556 569.826 94.4412 568.506 Q94.3265 567.157 94.1256 566.182 Q93.8961 565.206 93.437 563.972 Q92.9779 562.739 92.3754 561.964 Q91.7442 561.161 90.7399 560.615 Q89.7357 560.07 88.4732 560.07 Z" fill="#000000" fill-rule="evenodd" fill-opacity="1" /><path clip-path="url(#clip300)" d="M71.8471 465.037 Q72.3389 464.546 73.0358 464.546 Q73.7326 464.546 74.2244 465.037 Q74.7163 465.529 74.7163 466.226 L74.7163 518.774 Q74.7163 519.471 74.2244 519.963 Q73.7326 520.455 73.0358 520.455 Q72.3389 520.455 71.8471 519.963 Q71.3552 519.471 71.3552 518.774 L71.3552 466.226 Q71.3552 465.529 71.8471 465.037 Z" fill="#000000" fill-rule="evenodd" fill-opacity="1" /><path clip-path="url(#clip300)" d="M46.1058 432.503 L43.4825 432.503 Q43.4825 422.42 38.1129 417.214 Q38.1129 415.78 38.4408 415.534 Q38.7687 415.288 40.2853 415.288 L87.382 415.288 Q89.8824 415.288 90.6611 414.058 Q91.4399 412.829 91.4399 407.459 L91.4399 404.795 L94.0223 404.795 Q93.7763 407.746 93.7763 418.403 Q93.7763 429.06 94.0223 431.971 L91.4399 431.971 L91.4399 429.306 Q91.4399 424.019 90.7021 422.748 Q89.9233 421.477 87.382 421.477 L43.8924 421.477 Q46.1058 425.863 46.1058 432.503 Z" fill="#000000" fill-rule="evenodd" fill-opacity="1" /><path clip-path="url(#clip300)" d="M73.0358 368.758 Q58.8535 368.758 47.4175 363.47 Q42.6217 361.216 38.6048 358.06 Q34.5878 354.904 32.8253 352.813 Q31.0627 350.723 31.0627 350.149 Q31.0627 349.329 31.8825 349.288 Q32.2924 349.288 33.3171 350.395 Q47.0895 363.921 73.0358 363.88 Q99.0639 363.88 112.303 350.723 Q113.738 349.288 114.189 349.288 Q115.009 349.288 115.009 350.149 Q115.009 350.723 113.328 352.731 Q111.648 354.74 107.795 357.855 Q103.942 360.97 99.2279 363.224 Q87.7919 368.758 73.0358 368.758 Z" fill="#000000" fill-rule="evenodd" fill-opacity="1" /><path clip-path="url(#clip300)" d="M47.9503 341.568 Q40.7362 341.568 35.8995 337.879 Q31.0627 334.19 31.0627 329.23 Q31.0627 326.197 33.768 323.205 Q40.2443 316.4 40.2033 307.506 Q40.2033 297.422 32.2514 291.561 Q31.0627 290.536 31.0627 289.798 Q31.0627 289.142 31.5956 288.651 Q32.0875 288.118 32.7433 288.118 Q33.2352 288.118 34.2599 288.774 L97.4654 331.238 Q98.736 332.181 98.736 332.919 Q98.736 333.575 98.2032 334.108 Q97.7113 334.6 97.0555 334.6 Q96.4816 334.6 95.3749 333.862 L39.2196 296.152 L39.1376 296.234 Q42.0889 300.578 42.0479 307.424 Q42.0479 313.9 38.5228 320.089 Q42.8676 318.327 48.0323 318.327 Q55.0825 318.327 60.0012 321.483 Q64.8789 324.639 64.8789 329.23 Q64.8789 334.19 60.1241 337.879 Q55.3284 341.568 47.9503 341.568 M41.1051 335.788 Q44.0563 336.362 48.0323 336.362 Q51.9673 336.362 54.9185 335.788 Q57.8287 335.214 59.3453 334.395 Q60.8619 333.534 61.7637 332.386 Q62.6245 331.238 62.8294 330.542 Q63.0344 329.845 63.0344 329.148 Q63.0344 325.705 58.7715 323.082 Q54.4676 320.417 47.9503 320.417 Q41.556 320.417 37.2521 323.082 Q32.9073 325.705 32.9073 329.148 Q32.9073 329.886 33.1122 330.624 Q33.3171 331.32 34.2189 332.427 Q35.0797 333.534 36.5963 334.395 Q38.1129 335.214 41.1051 335.788 M81.7665 304.39 Q74.5524 304.39 69.7156 300.701 Q64.8789 297.012 64.8789 292.053 Q64.8789 287.503 69.7976 284.347 Q74.7163 281.15 81.8485 281.15 Q88.8986 281.15 93.8173 284.306 Q98.736 287.421 98.736 292.053 Q98.736 297.012 93.9403 300.701 Q89.1445 304.39 81.7665 304.39 M74.9213 298.611 Q77.9135 299.185 81.8485 299.185 Q85.7834 299.185 88.7347 298.611 Q91.6859 297.996 93.2025 297.176 Q94.6781 296.316 95.5389 295.209 Q96.4406 294.061 96.6456 293.364 Q96.8915 292.627 96.8915 291.971 Q96.8915 288.528 92.6286 285.904 Q88.3248 283.24 81.7665 283.24 Q75.3721 283.24 71.0683 285.904 Q66.7234 288.528 66.7234 291.971 Q66.7234 292.708 66.9693 293.446 Q67.1743 294.143 68.0761 295.25 Q68.9368 296.316 70.4534 297.176 Q71.929 297.996 74.9213 298.611 Z" fill="#000000" fill-rule="evenodd" fill-opacity="1" /><path clip-path="url(#clip300)" d="M114.189 270.342 Q113.779 270.342 112.754 269.276 Q98.982 255.75 73.0358 255.75 Q47.0076 255.75 33.85 268.743 Q32.3334 270.342 31.8825 270.342 Q31.0627 270.342 31.0627 269.522 Q31.0627 268.948 32.7433 266.94 Q34.4239 264.89 38.2768 261.816 Q42.1298 258.701 46.8436 256.406 Q58.2796 250.872 73.0358 250.872 Q87.218 250.872 98.6541 256.16 Q103.45 258.414 107.467 261.57 Q111.484 264.727 113.246 266.817 Q115.009 268.907 115.009 269.522 Q115.009 270.342 114.189 270.342 Z" fill="#000000" fill-rule="evenodd" fill-opacity="1" /><polyline clip-path="url(#clip303)" style="stroke:#009af9; stroke-linecap:butt; stroke-linejoin:round; stroke-width:8; stroke-opacity:1; fill:none" points="
  454.655,560.061 609.745,504.032 764.835,616.585 919.925,462.795 1075.01,490.804 1230.1,503.863 1385.19,475.147 1540.28,462.609 1695.37,482.02 1850.46,509.724 
  2005.55,521.307 2160.64,524.546 2315.73,495.389 2470.82,502.583 2625.91,515.016 2781,498.707 2936.09,521.291 3091.18,512.829 3246.27,524.393 3401.36,514.79 
  
  "/>
<circle clip-path="url(#clip303)" cx="454.655" cy="560.061" r="18" fill="#009af9" fill-rule="evenodd" fill-opacity="1" stroke="#000000" stroke-opacity="1" stroke-width="3.6"/>
<circle clip-path="url(#clip303)" cx="609.745" cy="504.032" r="18" fill="#009af9" fill-rule="evenodd" fill-opacity="1" stroke="#000000" stroke-opacity="1" stroke-width="3.6"/>
<circle clip-path="url(#clip303)" cx="764.835" cy="616.585" r="18" fill="#009af9" fill-rule="evenodd" fill-opacity="1" stroke="#000000" stroke-opacity="1" stroke-width="3.6"/>
<circle clip-path="url(#clip303)" cx="919.925" cy="462.795" r="18" fill="#009af9" fill-rule="evenodd" fill-opacity="1" stroke="#000000" stroke-opacity="1" stroke-width="3.6"/>
<circle clip-path="url(#clip303)" cx="1075.01" cy="490.804" r="18" fill="#009af9" fill-rule="evenodd" fill-opacity="1" stroke="#000000" stroke-opacity="1" stroke-width="3.6"/>
<circle clip-path="url(#clip303)" cx="1230.1" cy="503.863" r="18" fill="#009af9" fill-rule="evenodd" fill-opacity="1" stroke="#000000" stroke-opacity="1" stroke-width="3.6"/>
<circle clip-path="url(#clip303)" cx="1385.19" cy="475.147" r="18" fill="#009af9" fill-rule="evenodd" fill-opacity="1" stroke="#000000" stroke-opacity="1" stroke-width="3.6"/>
<circle clip-path="url(#clip303)" cx="1540.28" cy="462.609" r="18" fill="#009af9" fill-rule="evenodd" fill-opacity="1" stroke="#000000" stroke-opacity="1" stroke-width="3.6"/>
<circle clip-path="url(#clip303)" cx="1695.37" cy="482.02" r="18" fill="#009af9" fill-rule="evenodd" fill-opacity="1" stroke="#000000" stroke-opacity="1" stroke-width="3.6"/>
<circle clip-path="url(#clip303)" cx="1850.46" cy="509.724" r="18" fill="#009af9" fill-rule="evenodd" fill-opacity="1" stroke="#000000" stroke-opacity="1" stroke-width="3.6"/>
<circle clip-path="url(#clip303)" cx="2005.55" cy="521.307" r="18" fill="#009af9" fill-rule="evenodd" fill-opacity="1" stroke="#000000" stroke-opacity="1" stroke-width="3.6"/>
<circle clip-path="url(#clip303)" cx="2160.64" cy="524.546" r="18" fill="#009af9" fill-rule="evenodd" fill-opacity="1" stroke="#000000" stroke-opacity="1" stroke-width="3.6"/>
<circle clip-path="url(#clip303)" cx="2315.73" cy="495.389" r="18" fill="#009af9" fill-rule="evenodd" fill-opacity="1" stroke="#000000" stroke-opacity="1" stroke-width="3.6"/>
<circle clip-path="url(#clip303)" cx="2470.82" cy="502.583" r="18" fill="#009af9" fill-rule="evenodd" fill-opacity="1" stroke="#000000" stroke-opacity="1" stroke-width="3.6"/>
<circle clip-path="url(#clip303)" cx="2625.91" cy="515.016" r="18" fill="#009af9" fill-rule="evenodd" fill-opacity="1" stroke="#000000" stroke-opacity="1" stroke-width="3.6"/>
<circle clip-path="url(#clip303)" cx="2781" cy="498.707" r="18" fill="#009af9" fill-rule="evenodd" fill-opacity="1" stroke="#000000" stroke-opacity="1" stroke-width="3.6"/>
<circle clip-path="url(#clip303)" cx="2936.09" cy="521.291" r="18" fill="#009af9" fill-rule="evenodd" fill-opacity="1" stroke="#000000" stroke-opacity="1" stroke-width="3.6"/>
<circle clip-path="url(#clip303)" cx="3091.18" cy="512.829" r="18" fill="#009af9" fill-rule="evenodd" fill-opacity="1" stroke="#000000" stroke-opacity="1" stroke-width="3.6"/>
<circle clip-path="url(#clip303)" cx="3246.27" cy="524.393" r="18" fill="#009af9" fill-rule="evenodd" fill-opacity="1" stroke="#000000" stroke-opacity="1" stroke-width="3.6"/>
<circle clip-path="url(#clip303)" cx="3401.36" cy="514.79" r="18" fill="#009af9" fill-rule="evenodd" fill-opacity="1" stroke="#000000" stroke-opacity="1" stroke-width="3.6"/>
<polyline clip-path="url(#clip303)" style="stroke:#000000; stroke-linecap:butt; stroke-linejoin:round; stroke-width:6; stroke-opacity:1; fill:none" points="
  454.655,969.403 454.655,150.719 
  "/>
<polyline clip-path="url(#clip303)" style="stroke:#000000; stroke-linecap:butt; stroke-linejoin:round; stroke-width:6; stroke-opacity:1; fill:none" points="
  609.745,872.803 609.745,135.261 
  "/>
<polyline clip-path="url(#clip303)" style="stroke:#000000; stroke-linecap:butt; stroke-linejoin:round; stroke-width:6; stroke-opacity:1; fill:none" points="
  764.835,909.732 764.835,323.439 
  "/>
<polyline clip-path="url(#clip303)" style="stroke:#000000; stroke-linecap:butt; stroke-linejoin:round; stroke-width:6; stroke-opacity:1; fill:none" points="
  919.925,646.615 919.925,278.975 
  "/>
<polyline clip-path="url(#clip303)" style="stroke:#000000; stroke-linecap:butt; stroke-linejoin:round; stroke-width:6; stroke-opacity:1; fill:none" points="
  1075.01,686.824 1075.01,294.784 
  "/>
<polyline clip-path="url(#clip303)" style="stroke:#000000; stroke-linecap:butt; stroke-linejoin:round; stroke-width:6; stroke-opacity:1; fill:none" points="
  1230.1,672.352 1230.1,335.374 
  "/>
<polyline clip-path="url(#clip303)" style="stroke:#000000; stroke-linecap:butt; stroke-linejoin:round; stroke-width:6; stroke-opacity:1; fill:none" points="
  1385.19,596.532 1385.19,353.762 
  "/>
<polyline clip-path="url(#clip303)" style="stroke:#000000; stroke-linecap:butt; stroke-linejoin:round; stroke-width:6; stroke-opacity:1; fill:none" points="
  1540.28,590.674 1540.28,334.544 
  "/>
<polyline clip-path="url(#clip303)" style="stroke:#000000; stroke-linecap:butt; stroke-linejoin:round; stroke-width:6; stroke-opacity:1; fill:none" points="
  1695.37,617.722 1695.37,346.318 
  "/>
<polyline clip-path="url(#clip303)" style="stroke:#000000; stroke-linecap:butt; stroke-linejoin:round; stroke-width:6; stroke-opacity:1; fill:none" points="
  1850.46,634.133 1850.46,385.316 
  "/>
<polyline clip-path="url(#clip303)" style="stroke:#000000; stroke-linecap:butt; stroke-linejoin:round; stroke-width:6; stroke-opacity:1; fill:none" points="
  2005.55,637.256 2005.55,405.359 
  "/>
<polyline clip-path="url(#clip303)" style="stroke:#000000; stroke-linecap:butt; stroke-linejoin:round; stroke-width:6; stroke-opacity:1; fill:none" points="
  2160.64,633.642 2160.64,415.451 
  "/>
<polyline clip-path="url(#clip303)" style="stroke:#000000; stroke-linecap:butt; stroke-linejoin:round; stroke-width:6; stroke-opacity:1; fill:none" points="
  2315.73,598.108 2315.73,392.669 
  "/>
<polyline clip-path="url(#clip303)" style="stroke:#000000; stroke-linecap:butt; stroke-linejoin:round; stroke-width:6; stroke-opacity:1; fill:none" points="
  2470.82,616.351 2470.82,388.814 
  "/>
<polyline clip-path="url(#clip303)" style="stroke:#000000; stroke-linecap:butt; stroke-linejoin:round; stroke-width:6; stroke-opacity:1; fill:none" points="
  2625.91,613.612 2625.91,416.42 
  "/>
<polyline clip-path="url(#clip303)" style="stroke:#000000; stroke-linecap:butt; stroke-linejoin:round; stroke-width:6; stroke-opacity:1; fill:none" points="
  2781,599.603 2781,397.811 
  "/>
<polyline clip-path="url(#clip303)" style="stroke:#000000; stroke-linecap:butt; stroke-linejoin:round; stroke-width:6; stroke-opacity:1; fill:none" points="
  2936.09,605.787 2936.09,436.795 
  "/>
<polyline clip-path="url(#clip303)" style="stroke:#000000; stroke-linecap:butt; stroke-linejoin:round; stroke-width:6; stroke-opacity:1; fill:none" points="
  3091.18,597.527 3091.18,428.131 
  "/>
<polyline clip-path="url(#clip303)" style="stroke:#000000; stroke-linecap:butt; stroke-linejoin:round; stroke-width:6; stroke-opacity:1; fill:none" points="
  3246.27,596.121 3246.27,452.665 
  "/>
<polyline clip-path="url(#clip303)" style="stroke:#000000; stroke-linecap:butt; stroke-linejoin:round; stroke-width:6; stroke-opacity:1; fill:none" points="
  3401.36,575.33 3401.36,454.249 
  "/>
<line clip-path="url(#clip303)" x1="474.655" y1="969.403" x2="434.655" y2="969.403" style="stroke:#000000; stroke-width:2.4; stroke-opacity:1"/>
<line clip-path="url(#clip303)" x1="474.655" y1="150.719" x2="434.655" y2="150.719" style="stroke:#000000; stroke-width:2.4; stroke-opacity:1"/>
<line clip-path="url(#clip303)" x1="629.745" y1="872.803" x2="589.745" y2="872.803" style="stroke:#000000; stroke-width:2.4; stroke-opacity:1"/>
<line clip-path="url(#clip303)" x1="629.745" y1="135.261" x2="589.745" y2="135.261" style="stroke:#000000; stroke-width:2.4; stroke-opacity:1"/>
<line clip-path="url(#clip303)" x1="784.835" y1="909.732" x2="744.835" y2="909.732" style="stroke:#000000; stroke-width:2.4; stroke-opacity:1"/>
<line clip-path="url(#clip303)" x1="784.835" y1="323.439" x2="744.835" y2="323.439" style="stroke:#000000; stroke-width:2.4; stroke-opacity:1"/>
<line clip-path="url(#clip303)" x1="939.925" y1="646.615" x2="899.925" y2="646.615" style="stroke:#000000; stroke-width:2.4; stroke-opacity:1"/>
<line clip-path="url(#clip303)" x1="939.925" y1="278.975" x2="899.925" y2="278.975" style="stroke:#000000; stroke-width:2.4; stroke-opacity:1"/>
<line clip-path="url(#clip303)" x1="1095.01" y1="686.824" x2="1055.01" y2="686.824" style="stroke:#000000; stroke-width:2.4; stroke-opacity:1"/>
<line clip-path="url(#clip303)" x1="1095.01" y1="294.784" x2="1055.01" y2="294.784" style="stroke:#000000; stroke-width:2.4; stroke-opacity:1"/>
<line clip-path="url(#clip303)" x1="1250.1" y1="672.352" x2="1210.1" y2="672.352" style="stroke:#000000; stroke-width:2.4; stroke-opacity:1"/>
<line clip-path="url(#clip303)" x1="1250.1" y1="335.374" x2="1210.1" y2="335.374" style="stroke:#000000; stroke-width:2.4; stroke-opacity:1"/>
<line clip-path="url(#clip303)" x1="1405.19" y1="596.532" x2="1365.19" y2="596.532" style="stroke:#000000; stroke-width:2.4; stroke-opacity:1"/>
<line clip-path="url(#clip303)" x1="1405.19" y1="353.762" x2="1365.19" y2="353.762" style="stroke:#000000; stroke-width:2.4; stroke-opacity:1"/>
<line clip-path="url(#clip303)" x1="1560.28" y1="590.674" x2="1520.28" y2="590.674" style="stroke:#000000; stroke-width:2.4; stroke-opacity:1"/>
<line clip-path="url(#clip303)" x1="1560.28" y1="334.544" x2="1520.28" y2="334.544" style="stroke:#000000; stroke-width:2.4; stroke-opacity:1"/>
<line clip-path="url(#clip303)" x1="1715.37" y1="617.722" x2="1675.37" y2="617.722" style="stroke:#000000; stroke-width:2.4; stroke-opacity:1"/>
<line clip-path="url(#clip303)" x1="1715.37" y1="346.318" x2="1675.37" y2="346.318" style="stroke:#000000; stroke-width:2.4; stroke-opacity:1"/>
<line clip-path="url(#clip303)" x1="1870.46" y1="634.133" x2="1830.46" y2="634.133" style="stroke:#000000; stroke-width:2.4; stroke-opacity:1"/>
<line clip-path="url(#clip303)" x1="1870.46" y1="385.316" x2="1830.46" y2="385.316" style="stroke:#000000; stroke-width:2.4; stroke-opacity:1"/>
<line clip-path="url(#clip303)" x1="2025.55" y1="637.256" x2="1985.55" y2="637.256" style="stroke:#000000; stroke-width:2.4; stroke-opacity:1"/>
<line clip-path="url(#clip303)" x1="2025.55" y1="405.359" x2="1985.55" y2="405.359" style="stroke:#000000; stroke-width:2.4; stroke-opacity:1"/>
<line clip-path="url(#clip303)" x1="2180.64" y1="633.642" x2="2140.64" y2="633.642" style="stroke:#000000; stroke-width:2.4; stroke-opacity:1"/>
<line clip-path="url(#clip303)" x1="2180.64" y1="415.451" x2="2140.64" y2="415.451" style="stroke:#000000; stroke-width:2.4; stroke-opacity:1"/>
<line clip-path="url(#clip303)" x1="2335.73" y1="598.108" x2="2295.73" y2="598.108" style="stroke:#000000; stroke-width:2.4; stroke-opacity:1"/>
<line clip-path="url(#clip303)" x1="2335.73" y1="392.669" x2="2295.73" y2="392.669" style="stroke:#000000; stroke-width:2.4; stroke-opacity:1"/>
<line clip-path="url(#clip303)" x1="2490.82" y1="616.351" x2="2450.82" y2="616.351" style="stroke:#000000; stroke-width:2.4; stroke-opacity:1"/>
<line clip-path="url(#clip303)" x1="2490.82" y1="388.814" x2="2450.82" y2="388.814" style="stroke:#000000; stroke-width:2.4; stroke-opacity:1"/>
<line clip-path="url(#clip303)" x1="2645.91" y1="613.612" x2="2605.91" y2="613.612" style="stroke:#000000; stroke-width:2.4; stroke-opacity:1"/>
<line clip-path="url(#clip303)" x1="2645.91" y1="416.42" x2="2605.91" y2="416.42" style="stroke:#000000; stroke-width:2.4; stroke-opacity:1"/>
<line clip-path="url(#clip303)" x1="2801" y1="599.603" x2="2761" y2="599.603" style="stroke:#000000; stroke-width:2.4; stroke-opacity:1"/>
<line clip-path="url(#clip303)" x1="2801" y1="397.811" x2="2761" y2="397.811" style="stroke:#000000; stroke-width:2.4; stroke-opacity:1"/>
<line clip-path="url(#clip303)" x1="2956.09" y1="605.787" x2="2916.09" y2="605.787" style="stroke:#000000; stroke-width:2.4; stroke-opacity:1"/>
<line clip-path="url(#clip303)" x1="2956.09" y1="436.795" x2="2916.09" y2="436.795" style="stroke:#000000; stroke-width:2.4; stroke-opacity:1"/>
<line clip-path="url(#clip303)" x1="3111.18" y1="597.527" x2="3071.18" y2="597.527" style="stroke:#000000; stroke-width:2.4; stroke-opacity:1"/>
<line clip-path="url(#clip303)" x1="3111.18" y1="428.131" x2="3071.18" y2="428.131" style="stroke:#000000; stroke-width:2.4; stroke-opacity:1"/>
<line clip-path="url(#clip303)" x1="3266.27" y1="596.121" x2="3226.27" y2="596.121" style="stroke:#000000; stroke-width:2.4; stroke-opacity:1"/>
<line clip-path="url(#clip303)" x1="3266.27" y1="452.665" x2="3226.27" y2="452.665" style="stroke:#000000; stroke-width:2.4; stroke-opacity:1"/>
<line clip-path="url(#clip303)" x1="3421.36" y1="575.33" x2="3381.36" y2="575.33" style="stroke:#000000; stroke-width:2.4; stroke-opacity:1"/>
<line clip-path="url(#clip303)" x1="3421.36" y1="454.249" x2="3381.36" y2="454.249" style="stroke:#000000; stroke-width:2.4; stroke-opacity:1"/>
<path clip-path="url(#clip300)" d="
M2743.59 263.455 L3467.86 263.455 L3467.86 133.855 L2743.59 133.855  Z
  " fill="#ffffff" fill-rule="evenodd" fill-opacity="1"/>
<polyline clip-path="url(#clip300)" style="stroke:#000000; stroke-linecap:butt; stroke-linejoin:round; stroke-width:4; stroke-opacity:1; fill:none" points="
  2743.59,263.455 3467.86,263.455 3467.86,133.855 2743.59,133.855 2743.59,263.455 
  "/>
<polyline clip-path="url(#clip300)" style="stroke:#009af9; stroke-linecap:butt; stroke-linejoin:round; stroke-width:5; stroke-opacity:1; fill:none" points="
  2778.3,198.655 2986.53,198.655 
  "/>
<circle clip-path="url(#clip300)" cx="2882.41" cy="198.655" r="28" fill="#009af9" fill-rule="evenodd" fill-opacity="1" stroke="#000000" stroke-opacity="1" stroke-width="5.76"/>
<path clip-path="url(#clip300)" d="M3071.71 181.552 Q3071.71 182.752 3070.69 182.752 Q3067.38 182.869 3066.03 183.982 Q3064.72 185.065 3064.22 187.173 L3055.84 220.579 Q3055.55 221.633 3055.38 221.751 Q3055.2 221.838 3054.88 221.838 Q3054.47 221.838 3054.23 221.633 Q3054.03 221.428 3053.74 220.696 L3038.8 185.387 Q3038.69 185.153 3038.54 184.831 Q3038.39 184.509 3038.28 184.304 L3030.34 215.953 Q3030.11 216.861 3030.11 217.33 Q3030.11 218.471 3030.9 219.203 Q3031.72 219.906 3034.06 219.994 Q3035.26 219.994 3035.26 220.638 Q3035.26 221.838 3034.18 221.838 Q3033.18 221.838 3031.1 221.751 Q3029.03 221.663 3028 221.663 Q3027.01 221.663 3024.98 221.751 Q3022.96 221.838 3022 221.838 Q3021.24 221.838 3021.24 221.165 Q3021.24 220.638 3021.44 220.374 Q3021.65 220.082 3021.82 220.052 Q3022 219.994 3022.26 219.994 Q3024.02 219.935 3025.22 219.584 Q3026.42 219.233 3027.09 218.559 Q3027.8 217.886 3028.12 217.212 Q3028.47 216.51 3028.73 215.485 L3036.75 183.279 Q3036.75 182.752 3032.69 182.752 Q3031.98 182.752 3031.69 182.723 Q3031.43 182.694 3031.22 182.547 Q3031.02 182.401 3031.02 182.079 Q3031.02 181.259 3031.37 181.083 Q3031.72 180.878 3032.74 180.878 L3040.8 180.878 Q3041.82 180.878 3042.08 181.054 Q3042.35 181.2 3042.7 182.02 L3055.96 213.318 L3062.67 186.646 Q3062.84 186.119 3062.84 185.387 Q3062.84 184.216 3061.96 183.513 Q3061.11 182.781 3058.77 182.752 Q3057.69 182.752 3057.69 182.079 Q3057.69 181.522 3057.89 181.259 Q3058.13 180.966 3058.3 180.937 Q3058.51 180.878 3058.77 180.878 Q3059.77 180.878 3061.82 180.966 Q3063.87 181.054 3064.89 181.054 Q3065.89 181.054 3067.91 180.966 Q3069.96 180.878 3070.95 180.878 Q3071.3 180.878 3071.48 181.054 Q3071.68 181.2 3071.71 181.376 L3071.71 181.552 Z" fill="#000000" fill-rule="evenodd" fill-opacity="1" /><path clip-path="url(#clip300)" d="M3112.02 226.858 Q3112.02 227.022 3111.84 227.658 Q3111.65 228.293 3111.2 229.277 Q3110.77 230.261 3110.15 231.162 Q3109.56 232.044 3108.58 232.699 Q3107.61 233.335 3106.51 233.335 Q3105.03 233.335 3104.05 232.351 Q3103.06 231.367 3103.06 229.892 Q3103.06 229.092 3103.62 227.576 Q3106.22 220.649 3106.22 218.169 Q3106.22 215.238 3103.94 215.238 Q3102.65 215.238 3101.49 215.771 Q3100.32 216.304 3099.56 217.041 Q3098.8 217.779 3098.21 218.62 Q3097.61 219.46 3097.35 220.013 Q3097.1 220.567 3097.04 220.812 L3094.52 230.937 Q3094.31 231.798 3094.17 232.208 Q3094.03 232.617 3093.64 232.966 Q3093.25 233.335 3092.63 233.335 Q3092.12 233.335 3091.75 233.027 Q3091.4 232.72 3091.4 232.187 Q3091.4 232.105 3091.5 231.675 Q3091.61 231.244 3091.75 230.65 Q3091.89 230.056 3091.96 229.707 Q3092.69 226.92 3092.8 226.53 L3093.96 221.653 Q3094.6 219.234 3094.6 218.169 Q3094.6 215.238 3092.32 215.238 Q3091.2 215.238 3090.13 215.668 Q3089.09 216.078 3088.37 216.652 Q3087.65 217.226 3087 218.025 Q3086.36 218.804 3086.03 219.337 Q3085.72 219.849 3085.48 220.362 L3084.95 222.452 Q3084.82 223.026 3084.23 225.26 L3083.31 229.051 Q3082.65 231.88 3082.51 232.146 Q3082.3 232.72 3081.85 233.027 Q3081.4 233.335 3080.95 233.335 Q3080.44 233.335 3080.09 233.027 Q3079.74 232.72 3079.74 232.187 Q3079.74 232.105 3079.8 231.798 Q3079.86 231.49 3079.97 231.06 Q3080.07 230.629 3080.11 230.383 L3082.55 220.69 Q3083 218.927 3083.1 218.374 Q3083.22 217.8 3083.22 217.164 Q3083.22 215.238 3081.91 215.238 Q3080.85 215.238 3080.15 216.509 Q3079.45 217.779 3078.86 220.239 Q3078.67 220.915 3078.55 221.058 Q3078.45 221.202 3078.14 221.202 Q3077.63 221.181 3077.63 220.772 Q3077.63 220.669 3077.79 220.013 Q3077.96 219.357 3078.26 218.374 Q3078.59 217.369 3078.94 216.714 Q3079.15 216.283 3079.33 215.996 Q3079.51 215.709 3079.88 215.258 Q3080.25 214.808 3080.81 214.562 Q3081.36 214.316 3082.04 214.316 Q3083.53 214.316 3084.64 215.279 Q3085.77 216.242 3085.91 217.964 Q3088.64 214.316 3092.45 214.316 Q3094.6 214.316 3095.89 215.402 Q3097.1 216.447 3097.24 218.374 Q3100.07 214.316 3104.09 214.316 Q3106.4 214.316 3107.65 215.525 Q3108.9 216.714 3108.9 218.804 Q3108.9 219.89 3108.35 221.96 Q3107.8 224.01 3107.43 225.034 Q3107.06 226.059 3106.34 228.027 Q3105.58 229.912 3105.58 231.019 Q3105.58 231.736 3105.83 232.064 Q3106.08 232.392 3106.61 232.392 Q3107.43 232.392 3108.15 231.921 Q3108.86 231.429 3109.38 230.629 Q3109.91 229.81 3110.26 228.99 Q3110.61 228.15 3110.87 227.207 Q3111.04 226.694 3111.12 226.571 Q3111.22 226.449 3111.51 226.449 Q3112.02 226.449 3112.02 226.858 Z" fill="#000000" fill-rule="evenodd" fill-opacity="1" /><path clip-path="url(#clip300)" d="M3130.97 228.006 Q3131.13 228.191 3131.13 228.375 Q3131.13 228.559 3130.72 229.092 Q3130.33 229.625 3129.49 230.342 Q3128.65 231.06 3127.57 231.736 Q3126.48 232.412 3124.88 232.863 Q3123.28 233.335 3121.6 233.335 Q3118.47 233.335 3116.62 231.265 Q3114.8 229.195 3114.8 226.223 Q3114.8 223.333 3116.42 220.567 Q3118.04 217.779 3120.66 216.058 Q3123.28 214.316 3126.05 214.316 Q3128.24 214.316 3129.62 215.34 Q3130.99 216.365 3130.99 217.923 Q3130.99 219.132 3130.29 219.87 Q3129.6 220.608 3128.65 220.608 Q3128 220.608 3127.55 220.239 Q3127.1 219.849 3127.1 219.132 Q3127.1 218.21 3127.86 217.492 Q3128.14 217.205 3128.47 217.082 Q3128.82 216.939 3129.02 216.939 Q3129.23 216.919 3129.7 216.919 Q3129.27 216.119 3128.24 215.689 Q3127.24 215.238 3126.09 215.238 Q3124.39 215.238 3122.77 216.427 Q3121.15 217.595 3120.17 219.439 Q3119.19 221.243 3118.55 223.805 Q3117.92 226.346 3117.92 227.822 Q3117.92 229.851 3118.86 231.121 Q3119.8 232.392 3121.69 232.392 Q3122.06 232.392 3122.44 232.371 Q3122.85 232.351 3123.88 232.126 Q3124.92 231.9 3125.85 231.511 Q3126.77 231.121 3127.94 230.281 Q3129.13 229.42 3130.07 228.252 Q3130.4 227.822 3130.62 227.822 Q3130.81 227.822 3130.97 228.006 Z" fill="#000000" fill-rule="evenodd" fill-opacity="1" /><path clip-path="url(#clip300)" d="M3155.83 212.733 Q3155.88 212.001 3157.03 212.001 L3193.77 212.001 Q3195.5 212.001 3195.53 212.674 Q3195.53 213.406 3193.89 213.377 L3157.44 213.377 Q3155.83 213.406 3155.83 212.733 M3155.83 201.022 Q3155.83 200.29 3157.09 200.319 L3193.71 200.319 Q3195.5 200.319 3195.53 201.022 Q3195.53 201.695 3194 201.695 L3157.03 201.695 Q3155.83 201.695 3155.83 201.022 Z" fill="#000000" fill-rule="evenodd" fill-opacity="1" /><path clip-path="url(#clip300)" d="M3218.66 187.612 L3218.66 185.738 Q3225.87 185.738 3229.58 181.903 Q3230.61 181.903 3230.78 182.137 Q3230.96 182.372 3230.96 183.455 L3230.96 217.095 Q3230.96 218.881 3231.84 219.438 Q3232.72 219.994 3236.55 219.994 L3238.46 219.994 L3238.46 221.838 Q3236.35 221.663 3228.73 221.663 Q3221.12 221.663 3219.04 221.838 L3219.04 219.994 L3220.95 219.994 Q3224.72 219.994 3225.63 219.467 Q3226.54 218.911 3226.54 217.095 L3226.54 186.031 Q3223.41 187.612 3218.66 187.612 Z" fill="#000000" fill-rule="evenodd" fill-opacity="1" /><path clip-path="url(#clip300)" d="M3241.32 202.661 Q3241.32 193.849 3243.55 189.047 Q3246.65 181.903 3253.97 181.903 Q3255.52 181.903 3257.13 182.342 Q3258.77 182.752 3260.82 184.362 Q3262.9 185.973 3264.16 188.608 Q3266.56 193.702 3266.56 202.661 Q3266.56 211.415 3264.34 216.188 Q3261.09 223.156 3253.91 223.156 Q3251.22 223.156 3248.47 221.78 Q3245.74 220.404 3244.02 217.095 Q3241.32 212.147 3241.32 202.661 M3246.3 201.929 Q3246.3 210.976 3246.94 214.577 Q3247.68 218.471 3249.67 220.169 Q3251.69 221.838 3253.91 221.838 Q3256.31 221.838 3258.3 220.052 Q3260.32 218.237 3260.94 214.343 Q3261.61 210.508 3261.58 201.929 Q3261.58 193.585 3261 190.247 Q3260.21 186.353 3258.1 184.802 Q3256.02 183.221 3253.91 183.221 Q3253.12 183.221 3252.27 183.455 Q3251.45 183.689 3250.25 184.362 Q3249.05 185.036 3248.12 186.705 Q3247.21 188.374 3246.77 190.891 Q3246.3 194.141 3246.3 201.929 Z" fill="#000000" fill-rule="evenodd" fill-opacity="1" /><path clip-path="url(#clip300)" d="M3271.26 202.661 Q3271.26 193.849 3273.48 189.047 Q3276.59 181.903 3283.91 181.903 Q3285.46 181.903 3287.07 182.342 Q3288.71 182.752 3290.76 184.362 Q3292.84 185.973 3294.1 188.608 Q3296.5 193.702 3296.5 202.661 Q3296.5 211.415 3294.27 216.188 Q3291.02 223.156 3283.85 223.156 Q3281.15 223.156 3278.4 221.78 Q3275.68 220.404 3273.95 217.095 Q3271.26 212.147 3271.26 202.661 M3276.24 201.929 Q3276.24 210.976 3276.88 214.577 Q3277.61 218.471 3279.6 220.169 Q3281.62 221.838 3283.85 221.838 Q3286.25 221.838 3288.24 220.052 Q3290.26 218.237 3290.88 214.343 Q3291.55 210.508 3291.52 201.929 Q3291.52 193.585 3290.93 190.247 Q3290.14 186.353 3288.04 184.802 Q3285.96 183.221 3283.85 183.221 Q3283.06 183.221 3282.21 183.455 Q3281.39 183.689 3280.19 184.362 Q3278.99 185.036 3278.05 186.705 Q3277.14 188.374 3276.7 190.891 Q3276.24 194.141 3276.24 201.929 Z" fill="#000000" fill-rule="evenodd" fill-opacity="1" /><path clip-path="url(#clip300)" d="M3308.88 202.661 Q3308.88 193.849 3311.1 189.047 Q3314.21 181.903 3321.53 181.903 Q3323.08 181.903 3324.69 182.342 Q3326.33 182.752 3328.38 184.362 Q3330.46 185.973 3331.72 188.608 Q3334.12 193.702 3334.12 202.661 Q3334.12 211.415 3331.89 216.188 Q3328.64 223.156 3321.47 223.156 Q3318.77 223.156 3316.02 221.78 Q3313.3 220.404 3311.57 217.095 Q3308.88 212.147 3308.88 202.661 M3313.86 201.929 Q3313.86 210.976 3314.5 214.577 Q3315.23 218.471 3317.22 220.169 Q3319.24 221.838 3321.47 221.838 Q3323.87 221.838 3325.86 220.052 Q3327.88 218.237 3328.49 214.343 Q3329.17 210.508 3329.14 201.929 Q3329.14 193.585 3328.55 190.247 Q3327.76 186.353 3325.65 184.802 Q3323.58 183.221 3321.47 183.221 Q3320.68 183.221 3319.83 183.455 Q3319.01 183.689 3317.81 184.362 Q3316.61 185.036 3315.67 186.705 Q3314.76 188.374 3314.32 190.891 Q3313.86 194.141 3313.86 201.929 Z" fill="#000000" fill-rule="evenodd" fill-opacity="1" /><path clip-path="url(#clip300)" d="M3338.81 202.661 Q3338.81 193.849 3341.04 189.047 Q3344.14 181.903 3351.46 181.903 Q3353.01 181.903 3354.62 182.342 Q3356.26 182.752 3358.31 184.362 Q3360.39 185.973 3361.65 188.608 Q3364.05 193.702 3364.05 202.661 Q3364.05 211.415 3361.83 216.188 Q3358.58 223.156 3351.4 223.156 Q3348.71 223.156 3345.96 221.78 Q3343.23 220.404 3341.51 217.095 Q3338.81 212.147 3338.81 202.661 M3343.79 201.929 Q3343.79 210.976 3344.44 214.577 Q3345.17 218.471 3347.16 220.169 Q3349.18 221.838 3351.4 221.838 Q3353.8 221.838 3355.8 220.052 Q3357.82 218.237 3358.43 214.343 Q3359.1 210.508 3359.07 201.929 Q3359.07 193.585 3358.49 190.247 Q3357.7 186.353 3355.59 184.802 Q3353.51 183.221 3351.4 183.221 Q3350.61 183.221 3349.76 183.455 Q3348.94 183.689 3347.74 184.362 Q3346.54 185.036 3345.61 186.705 Q3344.7 188.374 3344.26 190.891 Q3343.79 194.141 3343.79 201.929 Z" fill="#000000" fill-rule="evenodd" fill-opacity="1" /><path clip-path="url(#clip300)" d="M3368.75 202.661 Q3368.75 193.849 3370.97 189.047 Q3374.08 181.903 3381.4 181.903 Q3382.95 181.903 3384.56 182.342 Q3386.2 182.752 3388.25 184.362 Q3390.33 185.973 3391.59 188.608 Q3393.99 193.702 3393.99 202.661 Q3393.99 211.415 3391.76 216.188 Q3388.51 223.156 3381.34 223.156 Q3378.65 223.156 3375.89 221.78 Q3373.17 220.404 3371.44 217.095 Q3368.75 212.147 3368.75 202.661 M3373.73 201.929 Q3373.73 210.976 3374.37 214.577 Q3375.1 218.471 3377.09 220.169 Q3379.11 221.838 3381.34 221.838 Q3383.74 221.838 3385.73 220.052 Q3387.75 218.237 3388.37 214.343 Q3389.04 210.508 3389.01 201.929 Q3389.01 193.585 3388.42 190.247 Q3387.63 186.353 3385.53 184.802 Q3383.45 183.221 3381.34 183.221 Q3380.55 183.221 3379.7 183.455 Q3378.88 183.689 3377.68 184.362 Q3376.48 185.036 3375.54 186.705 Q3374.63 188.374 3374.19 190.891 Q3373.73 194.141 3373.73 201.929 Z" fill="#000000" fill-rule="evenodd" fill-opacity="1" /></svg>
