<?xml version="1.0" encoding="utf-8"?>
<svg xmlns="http://www.w3.org/2000/svg" xmlns:xlink="http://www.w3.org/1999/xlink" width="900" height="300" viewBox="0 0 3600 1200">
<defs>
  <clipPath id="clip040">
    <rect x="0" y="0" width="3600" height="1200"/>
  </clipPath>
</defs>
<path clip-path="url(#clip040)" d="
M0 1200 L3600 1200 L3600 0 L0 0  Z
  " fill="#ffffff" fill-rule="evenodd" fill-opacity="1"/>
<defs>
  <clipPath id="clip041">
    <rect x="720" y="0" width="2521" height="1200"/>
  </clipPath>
</defs>
<defs>
  <clipPath id="clip042">
    <rect x="300" y="47" width="3254" height="1011"/>
  </clipPath>
</defs>
<path clip-path="url(#clip040)" d="
M300.2 1057.42 L3552.76 1057.42 L3552.76 47.2441 L300.2 47.2441  Z
  " fill="#ffffff" fill-rule="evenodd" fill-opacity="1"/>
<polyline clip-path="url(#clip042)" style="stroke:#000000; stroke-linecap:butt; stroke-linejoin:round; stroke-width:2; stroke-opacity:0.1; fill:none" points="
  553.751,1057.42 553.751,47.2441 
  "/>
<polyline clip-path="url(#clip042)" style="stroke:#000000; stroke-linecap:butt; stroke-linejoin:round; stroke-width:2; stroke-opacity:0.1; fill:none" points="
  876.746,1057.42 876.746,47.2441 
  "/>
<polyline clip-path="url(#clip042)" style="stroke:#000000; stroke-linecap:butt; stroke-linejoin:round; stroke-width:2; stroke-opacity:0.1; fill:none" points="
  1199.74,1057.42 1199.74,47.2441 
  "/>
<polyline clip-path="url(#clip042)" style="stroke:#000000; stroke-linecap:butt; stroke-linejoin:round; stroke-width:2; stroke-opacity:0.1; fill:none" points="
  1522.73,1057.42 1522.73,47.2441 
  "/>
<polyline clip-path="url(#clip042)" style="stroke:#000000; stroke-linecap:butt; stroke-linejoin:round; stroke-width:2; stroke-opacity:0.1; fill:none" points="
  1845.73,1057.42 1845.73,47.2441 
  "/>
<polyline clip-path="url(#clip042)" style="stroke:#000000; stroke-linecap:butt; stroke-linejoin:round; stroke-width:2; stroke-opacity:0.1; fill:none" points="
  2168.72,1057.42 2168.72,47.2441 
  "/>
<polyline clip-path="url(#clip042)" style="stroke:#000000; stroke-linecap:butt; stroke-linejoin:round; stroke-width:2; stroke-opacity:0.1; fill:none" points="
  2491.72,1057.42 2491.72,47.2441 
  "/>
<polyline clip-path="url(#clip042)" style="stroke:#000000; stroke-linecap:butt; stroke-linejoin:round; stroke-width:2; stroke-opacity:0.1; fill:none" points="
  2814.71,1057.42 2814.71,47.2441 
  "/>
<polyline clip-path="url(#clip042)" style="stroke:#000000; stroke-linecap:butt; stroke-linejoin:round; stroke-width:2; stroke-opacity:0.1; fill:none" points="
  3137.71,1057.42 3137.71,47.2441 
  "/>
<polyline clip-path="url(#clip042)" style="stroke:#000000; stroke-linecap:butt; stroke-linejoin:round; stroke-width:2; stroke-opacity:0.1; fill:none" points="
  3460.7,1057.42 3460.7,47.2441 
  "/>
<polyline clip-path="url(#clip040)" style="stroke:#000000; stroke-linecap:butt; stroke-linejoin:round; stroke-width:4; stroke-opacity:1; fill:none" points="
  300.2,1057.42 3552.76,1057.42 
  "/>
<polyline clip-path="url(#clip040)" style="stroke:#000000; stroke-linecap:butt; stroke-linejoin:round; stroke-width:4; stroke-opacity:1; fill:none" points="
  300.2,47.2441 3552.76,47.2441 
  "/>
<polyline clip-path="url(#clip040)" style="stroke:#000000; stroke-linecap:butt; stroke-linejoin:round; stroke-width:4; stroke-opacity:1; fill:none" points="
  553.751,1057.42 553.751,1038.52 
  "/>
<polyline clip-path="url(#clip040)" style="stroke:#000000; stroke-linecap:butt; stroke-linejoin:round; stroke-width:4; stroke-opacity:1; fill:none" points="
  876.746,1057.42 876.746,1038.52 
  "/>
<polyline clip-path="url(#clip040)" style="stroke:#000000; stroke-linecap:butt; stroke-linejoin:round; stroke-width:4; stroke-opacity:1; fill:none" points="
  1199.74,1057.42 1199.74,1038.52 
  "/>
<polyline clip-path="url(#clip040)" style="stroke:#000000; stroke-linecap:butt; stroke-linejoin:round; stroke-width:4; stroke-opacity:1; fill:none" points="
  1522.73,1057.42 1522.73,1038.52 
  "/>
<polyline clip-path="url(#clip040)" style="stroke:#000000; stroke-linecap:butt; stroke-linejoin:round; stroke-width:4; stroke-opacity:1; fill:none" points="
  1845.73,1057.42 1845.73,1038.52 
  "/>
<polyline clip-path="url(#clip040)" style="stroke:#000000; stroke-linecap:butt; stroke-linejoin:round; stroke-width:4; stroke-opacity:1; fill:none" points="
  2168.72,1057.42 2168.72,1038.52 
  "/>
<polyline clip-path="url(#clip040)" style="stroke:#000000; stroke-linecap:butt; stroke-linejoin:round; stroke-width:4; stroke-opacity:1; fill:none" points="
  2491.72,1057.42 2491.72,1038.52 
  "/>
<polyline clip-path="url(#clip040)" style="stroke:#000000; stroke-linecap:butt; stroke-linejoin:round; stroke-width:4; stroke-opacity:1; fill:none" points="
  2814.71,1057.42 2814.71,1038.52 
  "/>
<polyline clip-path="url(#clip040)" style="stroke:#000000; stroke-linecap:butt; stroke-linejoin:round; stroke-width:4; stroke-opacity:1; fill:none" points="
  3137.71,1057.42 3137.71,1038.52 
  "/>
<polyline clip-path="url(#clip040)" style="stroke:#000000; stroke-linecap:butt; stroke-linejoin:round; stroke-width:4; stroke-opacity:1; fill:none" points="
  3460.7,1057.42 3460.7,1038.52 
  "/>
<path clip-path="url(#clip040)" d="M543.314 1104.12 L543.314 1102.15 Q550.91 1102.15 554.832 1098.1 Q555.913 1098.1 556.098 1098.35 Q556.283 1098.59 556.283 1099.74 L556.283 1135.22 Q556.283 1137.1 557.209 1137.69 Q558.136 1138.27 562.181 1138.27 L564.188 1138.27 L564.188 1140.22 Q561.965 1140.03 553.936 1140.03 Q545.908 1140.03 543.715 1140.22 L543.715 1138.27 L545.722 1138.27 Q549.706 1138.27 550.663 1137.72 Q551.62 1137.13 551.62 1135.22 L551.62 1102.45 Q548.316 1104.12 543.314 1104.12 Z" fill="#000000" fill-rule="evenodd" fill-opacity="1" /><path clip-path="url(#clip040)" d="M864.116 1140.22 Q864.116 1139.08 864.209 1138.74 Q864.332 1138.4 864.826 1137.87 L876.962 1124.35 Q883.601 1116.88 883.601 1110.36 Q883.601 1106.13 881.377 1103.1 Q879.185 1100.08 875.14 1100.08 Q872.361 1100.08 870.014 1101.78 Q867.667 1103.47 866.586 1106.5 Q866.772 1106.44 867.42 1106.44 Q868.995 1106.44 869.86 1107.43 Q870.755 1108.41 870.755 1109.74 Q870.755 1111.44 869.643 1112.27 Q868.563 1113.08 867.482 1113.08 Q867.05 1113.08 866.463 1112.98 Q865.907 1112.89 865.012 1112.03 Q864.116 1111.13 864.116 1109.56 Q864.116 1105.14 867.451 1101.62 Q870.817 1098.1 875.943 1098.1 Q881.748 1098.1 885.546 1101.56 Q889.375 1104.99 889.375 1110.36 Q889.375 1112.24 888.788 1113.97 Q888.233 1115.67 887.461 1117 Q886.72 1118.33 884.682 1120.46 Q882.644 1122.59 881.007 1124.1 Q879.37 1125.61 875.696 1128.83 L868.995 1135.34 L880.389 1135.34 Q885.948 1135.34 886.38 1134.85 Q886.998 1133.95 887.769 1129.23 L889.375 1129.23 L887.584 1140.22 L864.116 1140.22 Z" fill="#000000" fill-rule="evenodd" fill-opacity="1" /><path clip-path="url(#clip040)" d="M1186.62 1131.7 Q1186.62 1129.81 1187.7 1128.92 Q1188.78 1128.02 1190.17 1128.02 Q1191.62 1128.02 1192.64 1128.98 Q1193.69 1129.91 1193.69 1131.54 Q1193.69 1133.3 1192.45 1134.29 Q1191.25 1135.28 1189.52 1135.03 Q1191.03 1137.56 1193.81 1138.71 Q1196.62 1139.85 1199.22 1139.85 Q1201.93 1139.85 1204.13 1137.5 Q1206.35 1135.16 1206.35 1129.41 Q1206.35 1124.53 1204.43 1121.72 Q1202.55 1118.91 1198.81 1118.91 L1196.03 1118.91 Q1195.08 1118.91 1194.8 1118.82 Q1194.52 1118.73 1194.52 1118.2 Q1194.52 1117.59 1195.48 1117.46 Q1196.44 1117.46 1197.95 1117.28 Q1201.62 1117.15 1203.57 1113.97 Q1205.33 1111.01 1205.33 1106.78 Q1205.33 1102.92 1203.48 1101.31 Q1201.65 1099.68 1199.28 1099.68 Q1197.05 1099.68 1194.61 1100.6 Q1192.17 1101.53 1190.85 1103.6 Q1194.77 1103.6 1194.77 1106.78 Q1194.77 1108.17 1193.87 1109.09 Q1193.01 1109.99 1191.56 1109.99 Q1190.17 1109.99 1189.24 1109.12 Q1188.31 1108.23 1188.31 1106.72 Q1188.31 1103.1 1191.53 1100.6 Q1194.77 1098.1 1199.52 1098.1 Q1204.22 1098.1 1207.68 1100.57 Q1211.17 1103.04 1211.17 1106.84 Q1211.17 1110.58 1208.7 1113.63 Q1206.22 1116.69 1202.3 1117.96 Q1207.12 1118.91 1209.99 1122.19 Q1212.86 1125.43 1212.86 1129.41 Q1212.86 1134.35 1208.97 1138 Q1205.08 1141.61 1199.4 1141.61 Q1194.15 1141.61 1190.38 1138.77 Q1186.62 1135.93 1186.62 1131.7 Z" fill="#000000" fill-rule="evenodd" fill-opacity="1" /><path clip-path="url(#clip040)" d="M1508.72 1129.78 L1508.72 1127.84 L1528.14 1098.16 Q1528.63 1097.39 1529.4 1097.42 Q1530.11 1097.42 1530.27 1097.7 Q1530.42 1097.98 1530.42 1099.06 L1530.42 1127.84 L1536.75 1127.84 L1536.75 1129.78 L1530.42 1129.78 L1530.42 1135.28 Q1530.42 1137.1 1531.16 1137.69 Q1531.94 1138.27 1535.21 1138.27 L1536.54 1138.27 L1536.54 1140.22 Q1533.94 1140.03 1527.95 1140.03 Q1521.99 1140.03 1519.4 1140.22 L1519.4 1138.27 L1520.73 1138.27 Q1524 1138.27 1524.77 1137.72 Q1525.54 1137.13 1525.54 1135.28 L1525.54 1129.78 L1508.72 1129.78 M1510.51 1127.84 L1525.92 1127.84 L1525.92 1104.25 L1510.51 1127.84 Z" fill="#000000" fill-rule="evenodd" fill-opacity="1" /><path clip-path="url(#clip040)" d="M1833.1 1130.03 Q1833.1 1128.15 1834.12 1127.44 Q1835.14 1126.69 1836.22 1126.69 Q1837.67 1126.69 1838.5 1127.62 Q1839.37 1128.52 1839.37 1129.78 Q1839.37 1131.05 1838.5 1131.98 Q1837.67 1132.87 1836.22 1132.87 Q1835.51 1132.87 1835.14 1132.75 Q1835.97 1135.65 1838.5 1137.75 Q1841.07 1139.85 1844.43 1139.85 Q1848.66 1139.85 1851.2 1135.74 Q1852.71 1133.09 1852.71 1127.07 Q1852.71 1121.75 1851.57 1119.1 Q1849.81 1115.05 1846.19 1115.05 Q1841.07 1115.05 1838.04 1119.47 Q1837.67 1120.02 1837.24 1120.06 Q1836.62 1120.06 1836.47 1119.72 Q1836.34 1119.35 1836.34 1118.39 L1836.34 1099.68 Q1836.34 1098.16 1836.96 1098.16 Q1837.21 1098.16 1837.73 1098.35 Q1841.72 1100.11 1846.13 1100.14 Q1850.67 1100.14 1854.75 1098.29 Q1855.05 1098.1 1855.24 1098.1 Q1855.86 1098.1 1855.89 1098.81 Q1855.89 1099.06 1855.36 1099.8 Q1854.87 1100.51 1853.79 1101.47 Q1852.71 1102.39 1851.32 1103.29 Q1849.93 1104.18 1847.89 1104.8 Q1845.88 1105.39 1843.66 1105.39 Q1841 1105.39 1838.29 1104.55 L1838.29 1116.88 Q1841.56 1113.66 1846.32 1113.66 Q1851.38 1113.66 1854.87 1117.74 Q1858.36 1121.82 1858.36 1127.5 Q1858.36 1133.46 1854.22 1137.53 Q1850.11 1141.61 1844.56 1141.61 Q1839.49 1141.61 1836.28 1138 Q1833.1 1134.38 1833.1 1130.03 Z" fill="#000000" fill-rule="evenodd" fill-opacity="1" /><path clip-path="url(#clip040)" d="M2155.6 1120.24 Q2155.6 1110.3 2160.66 1104.21 Q2165.73 1098.1 2172.24 1098.1 Q2176.04 1098.1 2178.14 1100.05 Q2180.27 1101.96 2180.27 1104.92 Q2180.27 1106.56 2179.32 1107.27 Q2178.36 1107.98 2177.37 1107.98 Q2176.23 1107.98 2175.33 1107.21 Q2174.44 1106.44 2174.44 1105.05 Q2174.44 1102.21 2177.93 1102.21 Q2176.29 1099.68 2172.37 1099.68 Q2171.16 1099.68 2169.93 1100.05 Q2168.69 1100.39 2167.09 1101.56 Q2165.48 1102.73 2164.25 1104.59 Q2163.01 1106.44 2162.15 1109.93 Q2161.28 1113.42 2161.28 1117.96 L2161.28 1119.47 Q2163.88 1113.2 2169.19 1113.23 Q2174.5 1113.23 2178.17 1117.28 Q2181.85 1121.32 2181.85 1127.31 Q2181.85 1133.46 2178.02 1137.53 Q2174.19 1141.61 2168.82 1141.61 Q2166.41 1141.61 2164.22 1140.59 Q2162.05 1139.6 2160.02 1137.32 Q2158.01 1135.03 2156.8 1130.65 Q2155.6 1126.26 2155.6 1120.24 M2161.41 1125.92 Q2161.41 1132.13 2162.55 1135.09 Q2162.73 1135.59 2163.13 1136.27 Q2163.57 1136.95 2164.28 1137.84 Q2165.02 1138.71 2166.22 1139.29 Q2167.43 1139.85 2168.82 1139.85 Q2173.05 1139.85 2175.09 1135.74 Q2176.17 1133.46 2176.17 1127.25 Q2176.17 1120.92 2175.02 1118.6 Q2173.08 1114.68 2169.13 1114.68 Q2166.47 1114.68 2164.62 1116.5 Q2162.8 1118.33 2162.08 1120.77 Q2161.41 1123.21 2161.41 1125.92 Z" fill="#000000" fill-rule="evenodd" fill-opacity="1" /><path clip-path="url(#clip040)" d="M2478.16 1110.48 L2480.23 1097.48 L2481.81 1097.48 Q2481.99 1098.26 2482.3 1098.59 Q2482.64 1098.93 2484.43 1099.21 Q2486.25 1099.49 2489.93 1099.49 L2505.27 1099.49 Q2505.27 1100.94 2504.72 1101.71 L2496.17 1113.73 Q2493.45 1117.52 2492.24 1124.53 Q2491.53 1129.23 2491.56 1134.91 L2491.56 1138.12 Q2491.56 1141.61 2488.63 1141.61 Q2485.73 1141.61 2485.73 1138.12 Q2485.73 1126.05 2493.51 1114.34 Q2494.34 1113.14 2497.4 1108.85 Q2500.49 1104.55 2500.61 1104.37 L2487.52 1104.37 Q2481.78 1104.37 2481.31 1104.74 Q2480.69 1105.3 2479.74 1110.48 L2478.16 1110.48 Z" fill="#000000" fill-rule="evenodd" fill-opacity="1" /><path clip-path="url(#clip040)" d="M2801.59 1130.68 Q2801.59 1123.61 2810.7 1119.04 Q2806.78 1116.38 2806.07 1115.61 Q2803.29 1112.52 2803.29 1108.66 Q2803.29 1104.25 2806.62 1101.19 Q2809.99 1098.1 2814.74 1098.1 Q2819.28 1098.1 2822.71 1100.73 Q2826.14 1103.35 2826.14 1107.52 Q2826.14 1113.39 2818.48 1117.34 Q2823.54 1120.49 2824.75 1121.82 Q2827.84 1125.24 2827.84 1129.6 Q2827.84 1134.66 2823.95 1138.15 Q2820.06 1141.61 2814.68 1141.61 Q2809.43 1141.61 2805.51 1138.55 Q2801.59 1135.5 2801.59 1130.68 M2804.74 1130.68 Q2804.74 1134.6 2807.67 1137.22 Q2810.64 1139.85 2814.74 1139.85 Q2818.73 1139.85 2821.69 1137.56 Q2824.69 1135.28 2824.69 1131.88 Q2824.69 1130.55 2824.22 1129.41 Q2823.79 1128.27 2822.9 1127.37 Q2822.03 1126.45 2821.48 1126.05 Q2820.95 1125.61 2819.93 1124.9 L2812.15 1119.99 Q2804.74 1124.1 2804.74 1130.68 M2806.07 1106.19 Q2806.07 1109.22 2809.25 1111.32 L2817.09 1116.38 Q2823.36 1112.71 2823.36 1107.52 Q2823.36 1104.15 2820.8 1101.93 Q2818.23 1099.68 2814.68 1099.68 Q2811.19 1099.68 2808.63 1101.53 Q2806.07 1103.35 2806.07 1106.19 Z" fill="#000000" fill-rule="evenodd" fill-opacity="1" /><path clip-path="url(#clip040)" d="M3124.58 1112.34 Q3124.58 1108.97 3125.57 1106.69 Q3126.56 1104.37 3128.63 1102.08 Q3132.43 1098.1 3137.92 1098.1 Q3140.27 1098.1 3142.34 1099.09 Q3144.44 1100.08 3146.42 1102.33 Q3148.42 1104.55 3149.63 1108.97 Q3150.83 1113.35 3150.83 1119.41 Q3150.83 1129.2 3146.08 1135.4 Q3141.35 1141.61 3134.96 1141.61 Q3130.91 1141.61 3128.54 1139.79 Q3126.16 1137.93 3126.16 1134.79 Q3126.16 1133.15 3127.09 1132.47 Q3128.01 1131.76 3129.06 1131.76 Q3130.2 1131.76 3131.1 1132.53 Q3132 1133.27 3132 1134.66 Q3132 1135.8 3131.25 1136.7 Q3130.54 1137.56 3128.69 1137.56 Q3130.51 1139.85 3134.9 1139.85 Q3136.47 1139.85 3138.05 1139.14 Q3139.62 1138.4 3141.32 1136.64 Q3143.05 1134.85 3144.1 1131.11 Q3145.15 1127.37 3145.15 1122.12 L3145.15 1120.12 Q3142.62 1126.45 3137.24 1126.45 Q3131.93 1126.45 3128.26 1122.37 Q3124.58 1118.3 3124.58 1112.34 M3130.27 1112.4 Q3130.27 1118.67 3131.41 1120.98 Q3133.35 1124.97 3137.31 1124.97 Q3141.17 1124.97 3143.08 1121.54 Q3145.03 1118.08 3145.03 1113.6 Q3145.03 1107.4 3144.01 1104.68 Q3142.12 1099.68 3137.92 1099.68 Q3133.76 1099.68 3131.59 1103.66 Q3130.27 1106.01 3130.27 1112.4 Z" fill="#000000" fill-rule="evenodd" fill-opacity="1" /><path clip-path="url(#clip040)" d="M3433.16 1104.12 L3433.16 1102.15 Q3440.75 1102.15 3444.68 1098.1 Q3445.76 1098.1 3445.94 1098.35 Q3446.13 1098.59 3446.13 1099.74 L3446.13 1135.22 Q3446.13 1137.1 3447.05 1137.69 Q3447.98 1138.27 3452.03 1138.27 L3454.03 1138.27 L3454.03 1140.22 Q3451.81 1140.03 3443.78 1140.03 Q3435.75 1140.03 3433.56 1140.22 L3433.56 1138.27 L3435.57 1138.27 Q3439.55 1138.27 3440.51 1137.72 Q3441.46 1137.13 3441.46 1135.22 L3441.46 1102.45 Q3438.16 1104.12 3433.16 1104.12 Z" fill="#000000" fill-rule="evenodd" fill-opacity="1" /><path clip-path="url(#clip040)" d="M3461.63 1119.99 Q3461.63 1110.7 3463.98 1105.64 Q3467.25 1098.1 3474.97 1098.1 Q3476.61 1098.1 3478.3 1098.56 Q3480.03 1099 3482.19 1100.69 Q3484.39 1102.39 3485.71 1105.17 Q3488.25 1110.54 3488.25 1119.99 Q3488.25 1129.23 3485.9 1134.26 Q3482.47 1141.61 3474.91 1141.61 Q3472.07 1141.61 3469.16 1140.16 Q3466.29 1138.71 3464.47 1135.22 Q3461.63 1130 3461.63 1119.99 M3466.88 1119.22 Q3466.88 1128.76 3467.56 1132.56 Q3468.33 1136.67 3470.43 1138.46 Q3472.56 1140.22 3474.91 1140.22 Q3477.44 1140.22 3479.54 1138.34 Q3481.67 1136.42 3482.32 1132.31 Q3483.03 1128.27 3483 1119.22 Q3483 1110.42 3482.38 1106.9 Q3481.55 1102.79 3479.32 1101.16 Q3477.13 1099.49 3474.91 1099.49 Q3474.07 1099.49 3473.18 1099.74 Q3472.31 1099.98 3471.05 1100.69 Q3469.78 1101.4 3468.79 1103.16 Q3467.84 1104.92 3467.37 1107.58 Q3466.88 1111.01 3466.88 1119.22 Z" fill="#000000" fill-rule="evenodd" fill-opacity="1" /><path clip-path="url(#clip040)" d="M1895.37 1248.8 L1895.37 1246.07 L1897.49 1246.07 Q1902.29 1246.07 1903.37 1245.29 Q1904.5 1244.47 1904.5 1241.88 L1904.5 1195.23 Q1904.5 1192.68 1903.37 1191.9 Q1902.25 1191.08 1897.49 1191.08 L1895.37 1191.08 L1895.37 1188.32 Q1898.49 1188.58 1908.47 1188.58 Q1918.37 1188.58 1921.48 1188.32 L1921.48 1191.08 L1919.37 1191.08 Q1914.57 1191.08 1913.44 1191.9 Q1912.36 1192.68 1912.36 1195.23 L1912.36 1223.38 L1940.07 1196.92 Q1941.67 1195.49 1941.67 1193.98 Q1941.67 1193.46 1941.41 1192.9 Q1941.2 1192.29 1940.16 1191.69 Q1939.17 1191.08 1937.57 1191.08 L1937.57 1188.32 Q1940.59 1188.58 1948.85 1188.58 Q1954.08 1188.58 1956.37 1188.32 L1956.37 1191.08 Q1949.02 1191.17 1943.79 1196.4 L1927.84 1211.7 L1948.29 1241.79 Q1950.15 1244.52 1951.96 1245.29 Q1953.78 1246.07 1957.58 1246.07 L1957.58 1248.8 Q1952.01 1248.54 1947.42 1248.54 Q1937.87 1248.54 1934.76 1248.8 L1934.76 1246.07 Q1939.99 1246.07 1939.99 1243.39 Q1939.99 1242.4 1938.65 1240.37 L1922.61 1216.68 L1912.36 1226.4 L1912.36 1241.88 Q1912.36 1244.43 1913.44 1245.25 Q1914.57 1246.07 1919.37 1246.07 L1921.48 1246.07 L1921.48 1248.8 Q1918.37 1248.54 1908.39 1248.54 Q1898.49 1248.54 1895.37 1248.8 Z" fill="#000000" fill-rule="evenodd" fill-opacity="1" /><polyline clip-path="url(#clip042)" style="stroke:#000000; stroke-linecap:butt; stroke-linejoin:round; stroke-width:2; stroke-opacity:0.1; fill:none" points="
  300.2,1007.97 3552.76,1007.97 
  "/>
<polyline clip-path="url(#clip042)" style="stroke:#000000; stroke-linecap:butt; stroke-linejoin:round; stroke-width:2; stroke-opacity:0.1; fill:none" points="
  300.2,683.571 3552.76,683.571 
  "/>
<polyline clip-path="url(#clip042)" style="stroke:#000000; stroke-linecap:butt; stroke-linejoin:round; stroke-width:2; stroke-opacity:0.1; fill:none" points="
  300.2,359.168 3552.76,359.168 
  "/>
<polyline clip-path="url(#clip040)" style="stroke:#000000; stroke-linecap:butt; stroke-linejoin:round; stroke-width:4; stroke-opacity:1; fill:none" points="
  300.2,1057.42 300.2,47.2441 
  "/>
<polyline clip-path="url(#clip040)" style="stroke:#000000; stroke-linecap:butt; stroke-linejoin:round; stroke-width:4; stroke-opacity:1; fill:none" points="
  3552.76,1057.42 3552.76,47.2441 
  "/>
<polyline clip-path="url(#clip040)" style="stroke:#000000; stroke-linecap:butt; stroke-linejoin:round; stroke-width:4; stroke-opacity:1; fill:none" points="
  300.2,1007.97 319.098,1007.97 
  "/>
<polyline clip-path="url(#clip040)" style="stroke:#000000; stroke-linecap:butt; stroke-linejoin:round; stroke-width:4; stroke-opacity:1; fill:none" points="
  300.2,683.571 319.098,683.571 
  "/>
<polyline clip-path="url(#clip040)" style="stroke:#000000; stroke-linecap:butt; stroke-linejoin:round; stroke-width:4; stroke-opacity:1; fill:none" points="
  300.2,359.168 319.098,359.168 
  "/>
<path clip-path="url(#clip040)" d="M90.9802 1001.54 L90.9802 999.56 Q98.5764 999.56 102.498 995.515 Q103.579 995.515 103.764 995.762 Q103.949 996.009 103.949 997.151 L103.949 1032.63 Q103.949 1034.52 104.876 1035.1 Q105.802 1035.69 109.847 1035.69 L111.854 1035.69 L111.854 1037.63 Q109.631 1037.45 101.603 1037.45 Q93.574 1037.45 91.3816 1037.63 L91.3816 1035.69 L93.3887 1035.69 Q97.3722 1035.69 98.3294 1035.13 Q99.2867 1034.55 99.2867 1032.63 L99.2867 999.869 Q95.9826 1001.54 90.9802 1001.54 Z" fill="#000000" fill-rule="evenodd" fill-opacity="1" /><path clip-path="url(#clip040)" d="M119.451 1017.41 Q119.451 1008.11 121.798 1003.05 Q125.071 995.515 132.791 995.515 Q134.427 995.515 136.126 995.978 Q137.855 996.41 140.016 998.109 Q142.209 999.807 143.537 1002.59 Q146.069 1007.96 146.069 1017.41 Q146.069 1026.64 143.722 1031.67 Q140.294 1039.02 132.729 1039.02 Q129.888 1039.02 126.985 1037.57 Q124.114 1036.12 122.292 1032.63 Q119.451 1027.41 119.451 1017.41 M124.7 1016.64 Q124.7 1026.18 125.38 1029.98 Q126.152 1034.08 128.251 1035.87 Q130.382 1037.63 132.729 1037.63 Q135.261 1037.63 137.361 1035.75 Q139.491 1033.84 140.14 1029.73 Q140.85 1025.68 140.819 1016.64 Q140.819 1007.84 140.202 1004.32 Q139.368 1000.21 137.145 998.572 Q134.952 996.904 132.729 996.904 Q131.895 996.904 131 997.151 Q130.135 997.398 128.869 998.109 Q127.603 998.819 126.615 1000.58 Q125.657 1002.34 125.194 1004.99 Q124.7 1008.42 124.7 1016.64 Z" fill="#000000" fill-rule="evenodd" fill-opacity="1" /><path clip-path="url(#clip040)" d="M179.989 989.798 Q180.291 990.099 180.291 990.525 Q180.291 990.952 179.989 991.253 Q179.688 991.554 179.262 991.554 L147.097 991.554 Q146.671 991.554 146.37 991.253 Q146.069 990.952 146.069 990.525 Q146.069 990.099 146.37 989.798 Q146.671 989.497 147.097 989.497 L179.262 989.497 Q179.688 989.497 179.989 989.798 Z" fill="#000000" fill-rule="evenodd" fill-opacity="1" /><path clip-path="url(#clip040)" d="M185.158 986.938 Q185.158 979.386 187.065 975.271 Q189.724 969.149 195.996 969.149 Q197.326 969.149 198.706 969.526 Q200.111 969.877 201.867 971.257 Q203.649 972.637 204.728 974.895 Q206.785 979.26 206.785 986.938 Q206.785 994.439 204.878 998.529 Q202.093 1004.5 195.946 1004.5 Q193.638 1004.5 191.28 1003.32 Q188.946 1002.14 187.466 999.307 Q185.158 995.067 185.158 986.938 M189.423 986.31 Q189.423 994.063 189.975 997.149 Q190.602 1000.49 192.308 1001.94 Q194.039 1003.37 195.946 1003.37 Q198.004 1003.37 199.71 1001.84 Q201.441 1000.29 201.968 996.948 Q202.545 993.662 202.52 986.31 Q202.52 979.16 202.018 976.3 Q201.34 972.963 199.534 971.633 Q197.753 970.278 195.946 970.278 Q195.269 970.278 194.541 970.479 Q193.839 970.68 192.81 971.257 Q191.781 971.834 190.979 973.264 Q190.201 974.694 189.824 976.852 Q189.423 979.637 189.423 986.31 Z" fill="#000000" fill-rule="evenodd" fill-opacity="1" /><path clip-path="url(#clip040)" d="M213.986 1002.54 Q213.208 1001.72 213.208 1000.64 Q213.208 999.558 213.986 998.78 Q214.763 997.977 215.942 997.977 Q217.072 997.977 217.824 998.73 Q218.602 999.457 218.602 1000.66 Q218.602 1001.84 217.774 1002.62 Q216.971 1003.37 215.942 1003.37 Q214.763 1003.37 213.986 1002.54 Z" fill="#000000" fill-rule="evenodd" fill-opacity="1" /><path clip-path="url(#clip040)" d="M225.677 995.092 Q225.677 993.561 226.505 992.984 Q227.333 992.382 228.211 992.382 Q229.39 992.382 230.068 993.135 Q230.77 993.862 230.77 994.891 Q230.77 995.92 230.068 996.672 Q229.39 997.4 228.211 997.4 Q227.634 997.4 227.333 997.299 Q228.01 999.658 230.068 1001.36 Q232.15 1003.07 234.885 1003.07 Q238.322 1003.07 240.38 999.733 Q241.609 997.575 241.609 992.683 Q241.609 988.368 240.681 986.21 Q239.25 982.923 236.315 982.923 Q232.15 982.923 229.691 986.511 Q229.39 986.963 229.039 986.988 Q228.537 986.988 228.412 986.712 Q228.312 986.411 228.312 985.633 L228.312 970.429 Q228.312 969.199 228.813 969.199 Q229.014 969.199 229.441 969.35 Q232.677 970.78 236.265 970.805 Q239.953 970.805 243.265 969.3 Q243.516 969.149 243.666 969.149 Q244.168 969.149 244.193 969.726 Q244.193 969.927 243.767 970.529 Q243.365 971.106 242.487 971.884 Q241.609 972.637 240.48 973.364 Q239.351 974.092 237.695 974.594 Q236.064 975.07 234.258 975.07 Q232.1 975.07 229.892 974.393 L229.892 984.404 Q232.552 981.794 236.415 981.794 Q240.53 981.794 243.365 985.106 Q246.2 988.418 246.2 993.034 Q246.2 997.877 242.838 1001.19 Q239.501 1004.5 234.985 1004.5 Q230.871 1004.5 228.261 1001.56 Q225.677 998.629 225.677 995.092 Z" fill="#000000" fill-rule="evenodd" fill-opacity="1" /><path clip-path="url(#clip040)" d="M129.517 677.133 L129.517 675.157 Q137.114 675.157 141.035 671.112 Q142.116 671.112 142.301 671.359 Q142.487 671.606 142.487 672.748 L142.487 708.228 Q142.487 710.112 143.413 710.699 Q144.339 711.285 148.385 711.285 L150.392 711.285 L150.392 713.231 Q148.168 713.046 140.14 713.046 Q132.111 713.046 129.919 713.231 L129.919 711.285 L131.926 711.285 Q135.909 711.285 136.867 710.73 Q137.824 710.143 137.824 708.228 L137.824 675.466 Q134.52 677.133 129.517 677.133 Z" fill="#000000" fill-rule="evenodd" fill-opacity="1" /><path clip-path="url(#clip040)" d="M157.988 693.005 Q157.988 683.71 160.335 678.646 Q163.608 671.112 171.328 671.112 Q172.964 671.112 174.663 671.575 Q176.392 672.007 178.554 673.705 Q180.746 675.404 182.074 678.183 Q184.606 683.556 184.606 693.005 Q184.606 702.238 182.259 707.271 Q178.831 714.62 171.266 714.62 Q168.425 714.62 165.523 713.169 Q162.651 711.718 160.829 708.228 Q157.988 703.01 157.988 693.005 M163.237 692.233 Q163.237 701.775 163.917 705.573 Q164.689 709.68 166.789 711.471 Q168.919 713.231 171.266 713.231 Q173.798 713.231 175.898 711.347 Q178.029 709.433 178.677 705.326 Q179.387 701.281 179.356 692.233 Q179.356 683.432 178.739 679.912 Q177.905 675.805 175.682 674.169 Q173.489 672.501 171.266 672.501 Q170.432 672.501 169.537 672.748 Q168.672 672.995 167.406 673.705 Q166.14 674.416 165.152 676.176 Q164.195 677.936 163.732 680.591 Q163.237 684.019 163.237 692.233 Z" fill="#000000" fill-rule="evenodd" fill-opacity="1" /><path clip-path="url(#clip040)" d="M184.606 662.534 Q184.606 654.982 186.513 650.868 Q189.172 644.746 195.444 644.746 Q196.774 644.746 198.154 645.122 Q199.559 645.474 201.315 646.853 Q203.097 648.233 204.176 650.491 Q206.233 654.857 206.233 662.534 Q206.233 670.036 204.326 674.126 Q201.541 680.097 195.394 680.097 Q193.086 680.097 190.728 678.918 Q188.394 677.738 186.914 674.903 Q184.606 670.663 184.606 662.534 M188.871 661.907 Q188.871 669.66 189.423 672.746 Q190.05 676.083 191.756 677.538 Q193.488 678.968 195.394 678.968 Q197.452 678.968 199.158 677.437 Q200.889 675.882 201.416 672.545 Q201.993 669.258 201.968 661.907 Q201.968 654.757 201.466 651.896 Q200.789 648.56 198.982 647.23 Q197.201 645.875 195.394 645.875 Q194.717 645.875 193.989 646.076 Q193.287 646.276 192.258 646.853 Q191.229 647.43 190.427 648.861 Q189.649 650.291 189.273 652.448 Q188.871 655.233 188.871 661.907 Z" fill="#000000" fill-rule="evenodd" fill-opacity="1" /><path clip-path="url(#clip040)" d="M213.434 678.14 Q212.656 677.312 212.656 676.233 Q212.656 675.154 213.434 674.376 Q214.211 673.574 215.391 673.574 Q216.52 673.574 217.272 674.326 Q218.05 675.054 218.05 676.258 Q218.05 677.437 217.222 678.215 Q216.419 678.968 215.391 678.968 Q214.211 678.968 213.434 678.14 Z" fill="#000000" fill-rule="evenodd" fill-opacity="1" /><path clip-path="url(#clip040)" d="M224.573 662.534 Q224.573 654.982 226.48 650.868 Q229.139 644.746 235.412 644.746 Q236.742 644.746 238.121 645.122 Q239.526 645.474 241.283 646.853 Q243.064 648.233 244.143 650.491 Q246.2 654.857 246.2 662.534 Q246.2 670.036 244.293 674.126 Q241.509 680.097 235.362 680.097 Q233.053 680.097 230.695 678.918 Q228.362 677.738 226.881 674.903 Q224.573 670.663 224.573 662.534 M228.838 661.907 Q228.838 669.66 229.39 672.746 Q230.018 676.083 231.724 677.538 Q233.455 678.968 235.362 678.968 Q237.419 678.968 239.125 677.437 Q240.856 675.882 241.383 672.545 Q241.96 669.258 241.935 661.907 Q241.935 654.757 241.433 651.896 Q240.756 648.56 238.949 647.23 Q237.168 645.875 235.362 645.875 Q234.684 645.875 233.957 646.076 Q233.254 646.276 232.225 646.853 Q231.197 647.43 230.394 648.861 Q229.616 650.291 229.24 652.448 Q228.838 655.233 228.838 661.907 Z" fill="#000000" fill-rule="evenodd" fill-opacity="1" /><path clip-path="url(#clip040)" d="M130.069 352.73 L130.069 350.753 Q137.666 350.753 141.587 346.708 Q142.668 346.708 142.853 346.955 Q143.039 347.202 143.039 348.345 L143.039 383.825 Q143.039 385.709 143.965 386.295 Q144.891 386.882 148.937 386.882 L150.944 386.882 L150.944 388.828 Q148.72 388.642 140.692 388.642 Q132.663 388.642 130.471 388.828 L130.471 386.882 L132.478 386.882 Q136.461 386.882 137.419 386.326 Q138.376 385.74 138.376 383.825 L138.376 351.062 Q135.072 352.73 130.069 352.73 Z" fill="#000000" fill-rule="evenodd" fill-opacity="1" /><path clip-path="url(#clip040)" d="M158.54 368.602 Q158.54 359.307 160.887 354.243 Q164.16 346.708 171.88 346.708 Q173.516 346.708 175.215 347.171 Q176.944 347.604 179.106 349.302 Q181.298 351 182.626 353.78 Q185.158 359.153 185.158 368.602 Q185.158 377.835 182.811 382.868 Q179.383 390.217 171.818 390.217 Q168.977 390.217 166.075 388.766 Q163.203 387.314 161.381 383.825 Q158.54 378.606 158.54 368.602 M163.789 367.83 Q163.789 377.371 164.469 381.169 Q165.241 385.276 167.341 387.067 Q169.471 388.828 171.818 388.828 Q174.35 388.828 176.45 386.944 Q178.581 385.029 179.229 380.922 Q179.939 376.877 179.908 367.83 Q179.908 359.029 179.291 355.509 Q178.457 351.402 176.234 349.765 Q174.041 348.098 171.818 348.098 Q170.984 348.098 170.089 348.345 Q169.224 348.592 167.958 349.302 Q166.692 350.012 165.704 351.772 Q164.747 353.533 164.284 356.188 Q163.789 359.616 163.789 367.83 Z" fill="#000000" fill-rule="evenodd" fill-opacity="1" /><path clip-path="url(#clip040)" d="M185.158 338.131 Q185.158 330.579 187.065 326.464 Q189.724 320.343 195.996 320.343 Q197.326 320.343 198.706 320.719 Q200.111 321.07 201.867 322.45 Q203.649 323.83 204.728 326.088 Q206.785 330.454 206.785 338.131 Q206.785 345.633 204.878 349.722 Q202.093 355.694 195.946 355.694 Q193.638 355.694 191.28 354.514 Q188.946 353.335 187.466 350.5 Q185.158 346.26 185.158 338.131 M189.423 337.504 Q189.423 345.256 189.975 348.342 Q190.602 351.679 192.308 353.134 Q194.039 354.565 195.946 354.565 Q198.004 354.565 199.71 353.034 Q201.441 351.479 201.968 348.142 Q202.545 344.855 202.52 337.504 Q202.52 330.353 202.018 327.493 Q201.34 324.156 199.534 322.826 Q197.753 321.472 195.946 321.472 Q195.269 321.472 194.541 321.672 Q193.839 321.873 192.81 322.45 Q191.781 323.027 190.979 324.457 Q190.201 325.887 189.824 328.045 Q189.423 330.83 189.423 337.504 Z" fill="#000000" fill-rule="evenodd" fill-opacity="1" /><path clip-path="url(#clip040)" d="M213.986 353.737 Q213.208 352.909 213.208 351.83 Q213.208 350.751 213.986 349.973 Q214.763 349.17 215.942 349.17 Q217.072 349.17 217.824 349.923 Q218.602 350.651 218.602 351.855 Q218.602 353.034 217.774 353.812 Q216.971 354.565 215.942 354.565 Q214.763 354.565 213.986 353.737 Z" fill="#000000" fill-rule="evenodd" fill-opacity="1" /><path clip-path="url(#clip040)" d="M225.677 346.285 Q225.677 344.755 226.505 344.178 Q227.333 343.575 228.211 343.575 Q229.39 343.575 230.068 344.328 Q230.77 345.056 230.77 346.084 Q230.77 347.113 230.068 347.866 Q229.39 348.593 228.211 348.593 Q227.634 348.593 227.333 348.493 Q228.01 350.851 230.068 352.557 Q232.15 354.263 234.885 354.263 Q238.322 354.263 240.38 350.927 Q241.609 348.769 241.609 343.876 Q241.609 339.561 240.681 337.403 Q239.25 334.117 236.315 334.117 Q232.15 334.117 229.691 337.704 Q229.39 338.156 229.039 338.181 Q228.537 338.181 228.412 337.905 Q228.312 337.604 228.312 336.826 L228.312 321.622 Q228.312 320.393 228.813 320.393 Q229.014 320.393 229.441 320.543 Q232.677 321.973 236.265 321.999 Q239.953 321.999 243.265 320.493 Q243.516 320.343 243.666 320.343 Q244.168 320.343 244.193 320.92 Q244.193 321.12 243.767 321.723 Q243.365 322.3 242.487 323.077 Q241.609 323.83 240.48 324.558 Q239.351 325.285 237.695 325.787 Q236.064 326.264 234.258 326.264 Q232.1 326.264 229.892 325.586 L229.892 335.597 Q232.552 332.988 236.415 332.988 Q240.53 332.988 243.365 336.299 Q246.2 339.611 246.2 344.228 Q246.2 349.07 242.838 352.382 Q239.501 355.694 234.985 355.694 Q230.871 355.694 228.261 352.758 Q225.677 349.823 225.677 346.285 Z" fill="#000000" fill-rule="evenodd" fill-opacity="1" /><path clip-path="url(#clip040)" d="M21.1188 862.751 Q20.7909 862.751 18.6594 861.644 Q16.487 860.538 8.74003 856.644 Q0.952069 852.75 -7.2048 848.733 L-36.3072 834.263 Q-38.1517 833.239 -38.1517 831.927 Q-38.1517 830.738 -37.4139 830.205 Q-36.6761 829.673 -31.7164 827.213 Q-29.298 825.943 -27.7404 825.205 L19.7661 801.472 Q20.7909 801.062 21.1188 801.021 Q21.9386 801.021 21.9386 802.456 L21.9386 860.538 Q21.9386 862.751 21.1188 862.751 M15.5443 857.217 L15.5443 812.047 L-29.7899 834.632 L15.5443 857.217 Z" fill="#000000" fill-rule="evenodd" fill-opacity="1" /><path clip-path="url(#clip040)" d="M20.258 735.951 Q21.0368 735.951 21.4467 736.279 Q21.8156 736.566 21.8976 736.853 Q21.9386 737.099 21.9386 737.468 Q21.9386 738.534 21.8156 742.223 Q21.6926 745.912 21.6926 746.977 Q21.6926 748.699 21.8156 752.224 Q21.9386 755.749 21.9386 757.471 Q21.9386 758.618 20.9958 758.618 Q20.381 758.618 20.0531 758.495 Q19.6842 758.372 19.5612 758.045 Q19.3972 757.676 19.3972 757.471 Q19.3563 757.225 19.3563 756.61 Q19.3563 755.79 19.2743 754.929 Q19.1513 754.069 18.9054 753.003 Q18.6594 751.937 18.0446 751.281 Q17.4298 750.585 16.569 750.585 Q16.2001 750.585 13.1669 750.871 Q10.1337 751.158 6.60859 751.527 Q3.04252 751.896 2.55065 751.937 L2.55065 773.006 Q5.87078 774.932 8.16618 776.285 Q10.4616 777.637 11.2404 778.129 Q12.0192 778.621 12.511 778.908 Q13.0029 779.195 13.2898 779.359 Q15.4623 780.548 16.405 780.548 Q19.0283 780.548 19.3563 776.613 Q19.3563 775.26 20.34 775.26 Q21.0778 775.26 21.4877 775.588 Q21.8566 775.916 21.8976 776.203 Q21.9386 776.449 21.9386 776.859 Q21.9386 778.211 21.8156 781.04 Q21.6926 783.868 21.6926 785.261 Q21.6926 786.45 21.8156 788.909 Q21.9386 791.369 21.9386 792.476 Q21.9386 792.967 21.6517 793.254 Q21.3647 793.541 20.9958 793.541 Q20.422 793.541 20.0941 793.459 Q19.7661 793.336 19.6022 793.008 Q19.4382 792.681 19.4382 792.517 Q19.3972 792.353 19.3563 791.779 Q19.1513 788.664 17.6757 786.245 Q16.1591 783.786 12.2651 781.449 L-36.7581 752.265 Q-37.2499 751.978 -37.4959 751.773 Q-37.7418 751.568 -37.9468 751.158 Q-38.1517 750.707 -38.1517 750.052 Q-38.1517 749.027 -37.8238 748.822 Q-37.5369 748.617 -36.1432 748.494 L16.323 743.37 Q17.4298 743.247 17.8806 743.165 Q18.2905 743.042 18.7414 742.51 Q19.1513 741.936 19.2743 740.911 Q19.3563 739.845 19.3563 737.878 Q19.3563 737.14 19.3972 736.853 Q19.3972 736.566 19.6022 736.279 Q19.8071 735.951 20.258 735.951 M-0.072663 752.183 L-27.7404 754.847 L-0.072663 771.407 L-0.072663 752.183 Z" fill="#000000" fill-rule="evenodd" fill-opacity="1" /><path clip-path="url(#clip040)" d="M7.07693 668.681 Q7.90901 668.681 8.08116 669.054 Q8.25332 669.398 8.25332 670.546 Q8.25332 671.894 8.36809 672.726 Q8.45417 673.559 8.59763 674.075 Q8.7124 674.591 9.11409 674.907 Q9.51579 675.194 9.8601 675.309 Q10.1757 675.424 10.9504 675.624 L42.2539 683.429 Q43.3155 683.716 43.6885 683.716 Q44.0616 683.716 44.2911 683.486 Q44.5206 683.228 44.6354 682.597 Q44.7215 681.965 44.7502 681.478 Q44.7502 680.961 44.7502 679.9 Q44.7502 678.58 44.9797 678.379 Q45.1232 678.264 45.3814 678.264 Q45.9266 678.264 46.2135 678.494 Q46.4717 678.723 46.5291 678.924 Q46.5578 679.096 46.5578 679.383 Q46.5578 680.588 46.4717 683.056 Q46.3856 685.523 46.3856 686.728 L46.5578 694.016 Q46.5578 694.877 45.8405 694.877 Q45.2953 694.877 45.0658 694.648 Q44.8076 694.418 44.7789 694.16 Q44.7502 693.902 44.7502 693.242 Q44.7502 690.889 44.4919 689.885 Q44.2337 688.852 43.7746 688.565 Q43.2869 688.249 41.967 687.905 L8.3107 679.498 L8.3107 679.555 L45.4962 703.284 L45.7544 703.456 Q45.9839 703.628 46.07 703.686 Q46.1274 703.743 46.2996 703.915 Q46.443 704.059 46.5004 704.231 Q46.5578 704.374 46.5578 704.575 Q46.5578 704.919 46.3283 705.12 Q46.0987 705.292 45.9266 705.35 Q45.7257 705.379 45.2093 705.465 L8.76978 710.515 L8.76978 710.572 L40.7906 718.577 Q41.6801 718.807 42.1392 718.807 Q43.3155 718.807 44.0329 717.975 Q44.7215 717.114 44.7502 714.818 Q44.7502 713.757 45.3814 713.757 Q46.5578 713.757 46.5578 714.818 Q46.5578 715.794 46.4717 717.831 Q46.3856 719.868 46.3856 720.872 Q46.3856 721.848 46.4717 723.828 Q46.5578 725.779 46.5578 726.726 Q46.5578 727.558 45.8405 727.558 Q44.7502 727.558 44.7502 726.496 Q44.6928 724.775 44.3485 723.598 Q44.0042 722.422 43.3442 721.762 Q42.6843 721.073 42.0244 720.758 Q41.3358 720.413 40.3315 720.155 L10.4053 712.695 Q9.4584 712.466 9.31494 712.466 Q8.82717 712.466 8.65501 712.753 Q8.45417 713.011 8.36809 713.757 Q8.25332 715.191 8.25332 716.282 Q8.25332 716.999 8.22463 717.286 Q8.19593 717.544 8.05247 717.774 Q7.88032 717.975 7.53601 717.975 Q6.99085 717.975 6.76131 717.745 Q6.50308 717.487 6.47438 717.2 Q6.417 716.913 6.417 716.224 L6.417 708.162 Q6.417 706.985 6.61785 706.727 Q6.79 706.469 7.76555 706.354 L41.0201 701.763 L7.53601 680.301 Q6.70392 679.756 6.56046 679.469 Q6.417 679.182 6.417 678.035 L6.417 670.259 Q6.417 669.628 6.44569 669.369 Q6.47438 669.111 6.61785 668.91 Q6.76131 668.681 7.07693 668.681 Z" fill="#000000" fill-rule="evenodd" fill-opacity="1" /><path clip-path="url(#clip040)" d="M5.72838 623.763 L20.7059 627.464 Q21.6527 627.722 21.7675 627.895 Q21.8823 628.038 21.8823 628.497 Q21.8823 629.387 21.2797 629.387 Q21.2223 629.387 20.4763 629.301 Q19.7016 629.214 18.2957 629.214 Q13.1023 629.214 10.0323 631.739 Q6.96216 634.236 6.96216 638.683 Q6.96216 642.528 8.91325 646.401 Q10.8643 650.246 14.0492 653.001 Q16.4594 655.066 19.5008 656.587 Q22.5422 658.079 25.3254 658.796 Q28.1085 659.485 30.2031 659.801 Q32.2976 660.116 33.8183 660.116 Q36.0277 660.116 37.8927 659.657 Q39.7577 659.169 41.0775 658.309 Q42.3687 657.448 43.3729 656.358 Q44.3485 655.239 44.9223 653.947 Q45.4962 652.628 45.7831 651.308 Q46.0413 649.988 46.0413 648.611 Q46.0413 643.073 41.7375 637.794 Q38.2083 633.604 32.4411 631.854 Q31.8672 631.711 31.8672 631.108 Q31.8672 630.391 32.4411 630.391 Q32.5559 630.391 33.1297 630.534 Q33.6749 630.678 34.7939 631.108 Q35.8842 631.539 37.118 632.198 Q38.3517 632.858 39.9011 634.092 Q41.4505 635.326 42.7991 636.847 Q45.0371 639.429 46.443 642.7 Q47.849 645.971 47.849 649.557 Q47.849 654.033 45.8692 657.649 Q43.8894 661.264 40.1881 663.387 Q36.4867 665.482 31.7525 665.482 Q26.76 665.482 21.8536 663.186 Q16.9471 660.891 13.3032 657.247 Q9.65925 653.603 7.39254 648.783 Q5.12584 643.962 5.12584 639.142 Q5.12584 637.306 5.61361 635.67 Q6.10138 634.035 6.70392 633.059 Q7.30647 632.055 8.19593 631.166 Q9.05671 630.276 9.4584 629.989 Q9.8601 629.674 10.3479 629.387 L5.84315 625.284 Q5.12584 624.566 5.12584 624.394 Q5.12584 624.05 5.32668 623.906 Q5.52753 623.763 5.72838 623.763 Z" fill="#000000" fill-rule="evenodd" fill-opacity="1" /><path clip-path="url(#clip040)" d="M41.7364 614.923 Q41.3265 614.923 40.4247 614.595 L-38.7665 584.96 Q-38.8485 584.96 -39.2994 584.755 Q-39.7503 584.55 -40.0372 584.427 Q-40.3651 584.304 -40.6111 584.058 Q-40.857 583.771 -40.857 583.443 Q-40.857 582.623 -39.8323 582.623 Q-39.7503 582.623 -38.7665 582.869 L40.5067 612.587 Q41.9413 613.078 42.3512 613.406 Q42.7611 613.693 42.7611 614.185 Q42.7611 614.923 41.7364 614.923 Z" fill="#000000" fill-rule="evenodd" fill-opacity="1" /><path clip-path="url(#clip040)" d="M20.258 515.767 Q21.0368 515.767 21.4467 516.094 Q21.8156 516.381 21.8976 516.668 Q21.9386 516.914 21.9386 517.283 Q21.9386 518.349 21.8156 522.038 Q21.6926 525.727 21.6926 526.793 Q21.6926 528.514 21.8156 532.039 Q21.9386 535.564 21.9386 537.286 Q21.9386 538.434 20.9958 538.434 Q20.381 538.434 20.0531 538.311 Q19.6842 538.188 19.5612 537.86 Q19.3972 537.491 19.3972 537.286 Q19.3563 537.04 19.3563 536.425 Q19.3563 535.605 19.2743 534.745 Q19.1513 533.884 18.9054 532.818 Q18.6594 531.752 18.0446 531.097 Q17.4298 530.4 16.569 530.4 Q16.2001 530.4 13.1669 530.687 Q10.1337 530.974 6.60859 531.342 Q3.04252 531.711 2.55065 531.752 L2.55065 552.821 Q5.87078 554.747 8.16618 556.1 Q10.4616 557.453 11.2404 557.945 Q12.0192 558.436 12.511 558.723 Q13.0029 559.01 13.2898 559.174 Q15.4623 560.363 16.405 560.363 Q19.0283 560.363 19.3563 556.428 Q19.3563 555.075 20.34 555.075 Q21.0778 555.075 21.4877 555.403 Q21.8566 555.731 21.8976 556.018 Q21.9386 556.264 21.9386 556.674 Q21.9386 558.026 21.8156 560.855 Q21.6926 563.683 21.6926 565.077 Q21.6926 566.265 21.8156 568.725 Q21.9386 571.184 21.9386 572.291 Q21.9386 572.783 21.6517 573.07 Q21.3647 573.356 20.9958 573.356 Q20.422 573.356 20.0941 573.275 Q19.7661 573.152 19.6022 572.824 Q19.4382 572.496 19.4382 572.332 Q19.3972 572.168 19.3563 571.594 Q19.1513 568.479 17.6757 566.06 Q16.1591 563.601 12.2651 561.265 L-36.7581 532.08 Q-37.2499 531.793 -37.4959 531.588 Q-37.7418 531.383 -37.9468 530.974 Q-38.1517 530.523 -38.1517 529.867 Q-38.1517 528.842 -37.8238 528.637 Q-37.5369 528.432 -36.1432 528.309 L16.323 523.186 Q17.4298 523.063 17.8806 522.981 Q18.2905 522.858 18.7414 522.325 Q19.1513 521.751 19.2743 520.726 Q19.3563 519.661 19.3563 517.693 Q19.3563 516.955 19.3972 516.668 Q19.3972 516.381 19.6022 516.094 Q19.8071 515.767 20.258 515.767 M-0.072663 531.998 L-27.7404 534.663 L-0.072663 551.222 L-0.072663 531.998 Z" fill="#000000" fill-rule="evenodd" fill-opacity="1" /><path clip-path="url(#clip040)" d="M7.07693 448.496 Q7.90901 448.496 8.08116 448.869 Q8.25332 449.213 8.25332 450.361 Q8.25332 451.71 8.36809 452.542 Q8.45417 453.374 8.59763 453.89 Q8.7124 454.407 9.11409 454.722 Q9.51579 455.009 9.8601 455.124 Q10.1757 455.239 10.9504 455.44 L42.2539 463.244 Q43.3155 463.531 43.6885 463.531 Q44.0616 463.531 44.2911 463.301 Q44.5206 463.043 44.6354 462.412 Q44.7215 461.781 44.7502 461.293 Q44.7502 460.776 44.7502 459.715 Q44.7502 458.395 44.9797 458.194 Q45.1232 458.079 45.3814 458.079 Q45.9266 458.079 46.2135 458.309 Q46.4717 458.538 46.5291 458.739 Q46.5578 458.911 46.5578 459.198 Q46.5578 460.403 46.4717 462.871 Q46.3856 465.339 46.3856 466.544 L46.5578 473.832 Q46.5578 474.692 45.8405 474.692 Q45.2953 474.692 45.0658 474.463 Q44.8076 474.233 44.7789 473.975 Q44.7502 473.717 44.7502 473.057 Q44.7502 470.704 44.4919 469.7 Q44.2337 468.667 43.7746 468.38 Q43.2869 468.064 41.967 467.72 L8.3107 459.313 L8.3107 459.371 L45.4962 483.099 L45.7544 483.271 Q45.9839 483.444 46.07 483.501 Q46.1274 483.558 46.2996 483.73 Q46.443 483.874 46.5004 484.046 Q46.5578 484.19 46.5578 484.39 Q46.5578 484.735 46.3283 484.936 Q46.0987 485.108 45.9266 485.165 Q45.7257 485.194 45.2093 485.28 L8.76978 490.33 L8.76978 490.387 L40.7906 498.392 Q41.6801 498.622 42.1392 498.622 Q43.3155 498.622 44.0329 497.79 Q44.7215 496.929 44.7502 494.634 Q44.7502 493.572 45.3814 493.572 Q46.5578 493.572 46.5578 494.634 Q46.5578 495.609 46.4717 497.646 Q46.3856 499.683 46.3856 500.688 Q46.3856 501.663 46.4717 503.643 Q46.5578 505.594 46.5578 506.541 Q46.5578 507.373 45.8405 507.373 Q44.7502 507.373 44.7502 506.311 Q44.6928 504.59 44.3485 503.413 Q44.0042 502.237 43.3442 501.577 Q42.6843 500.889 42.0244 500.573 Q41.3358 500.229 40.3315 499.97 L10.4053 492.51 Q9.4584 492.281 9.31494 492.281 Q8.82717 492.281 8.65501 492.568 Q8.45417 492.826 8.36809 493.572 Q8.25332 495.007 8.25332 496.097 Q8.25332 496.814 8.22463 497.101 Q8.19593 497.359 8.05247 497.589 Q7.88032 497.79 7.53601 497.79 Q6.99085 497.79 6.76131 497.56 Q6.50308 497.302 6.47438 497.015 Q6.417 496.728 6.417 496.04 L6.417 487.977 Q6.417 486.801 6.61785 486.542 Q6.79 486.284 7.76555 486.169 L41.0201 481.578 L7.53601 460.117 Q6.70392 459.571 6.56046 459.284 Q6.417 458.998 6.417 457.85 L6.417 450.074 Q6.417 449.443 6.44569 449.185 Q6.47438 448.926 6.61785 448.726 Q6.76131 448.496 7.07693 448.496 Z" fill="#000000" fill-rule="evenodd" fill-opacity="1" /><path clip-path="url(#clip040)" d="M5.72838 403.578 L20.7059 407.279 Q21.6527 407.538 21.7675 407.71 Q21.8823 407.853 21.8823 408.312 Q21.8823 409.202 21.2797 409.202 Q21.2223 409.202 20.4763 409.116 Q19.7016 409.03 18.2957 409.03 Q13.1023 409.03 10.0323 411.555 Q6.96216 414.051 6.96216 418.498 Q6.96216 422.343 8.91325 426.216 Q10.8643 430.061 14.0492 432.816 Q16.4594 434.882 19.5008 436.402 Q22.5422 437.894 25.3254 438.612 Q28.1085 439.3 30.2031 439.616 Q32.2976 439.931 33.8183 439.931 Q36.0277 439.931 37.8927 439.472 Q39.7577 438.985 41.0775 438.124 Q42.3687 437.263 43.3729 436.173 Q44.3485 435.054 44.9223 433.763 Q45.4962 432.443 45.7831 431.123 Q46.0413 429.803 46.0413 428.426 Q46.0413 422.888 41.7375 417.609 Q38.2083 413.42 32.4411 411.669 Q31.8672 411.526 31.8672 410.923 Q31.8672 410.206 32.4411 410.206 Q32.5559 410.206 33.1297 410.35 Q33.6749 410.493 34.7939 410.923 Q35.8842 411.354 37.118 412.014 Q38.3517 412.674 39.9011 413.907 Q41.4505 415.141 42.7991 416.662 Q45.0371 419.244 46.443 422.515 Q47.849 425.786 47.849 429.373 Q47.849 433.849 45.8692 437.464 Q43.8894 441.079 40.1881 443.202 Q36.4867 445.297 31.7525 445.297 Q26.76 445.297 21.8536 443.002 Q16.9471 440.706 13.3032 437.062 Q9.65925 433.418 7.39254 428.598 Q5.12584 423.778 5.12584 418.957 Q5.12584 417.121 5.61361 415.485 Q6.10138 413.85 6.70392 412.874 Q7.30647 411.87 8.19593 410.981 Q9.05671 410.091 9.4584 409.804 Q9.8601 409.489 10.3479 409.202 L5.84315 405.099 Q5.12584 404.381 5.12584 404.209 Q5.12584 403.865 5.32668 403.722 Q5.52753 403.578 5.72838 403.578 Z" fill="#000000" fill-rule="evenodd" fill-opacity="1" /><path clip-path="url(#clip040)" d="M0.952069 372.559 Q-13.2302 372.559 -24.6662 367.271 Q-29.462 365.017 -33.4789 361.861 Q-37.4959 358.705 -39.2584 356.614 Q-41.021 354.524 -41.021 353.95 Q-41.021 353.13 -40.2012 353.089 Q-39.7913 353.089 -38.7665 354.196 Q-24.9941 367.722 0.952069 367.681 Q26.9803 367.681 40.2198 354.524 Q41.6544 353.089 42.1053 353.089 Q42.9251 353.089 42.9251 353.95 Q42.9251 354.524 41.2445 356.532 Q39.564 358.541 35.711 361.656 Q31.858 364.771 27.1442 367.026 Q15.7082 372.559 0.952069 372.559 Z" fill="#000000" fill-rule="evenodd" fill-opacity="1" /><path clip-path="url(#clip040)" d="M-24.1334 345.369 Q-31.3475 345.369 -36.1842 341.68 Q-41.021 337.991 -41.021 333.031 Q-41.021 329.998 -38.3157 327.006 Q-31.8394 320.201 -31.8803 311.307 Q-31.8803 301.223 -39.8323 295.362 Q-41.021 294.337 -41.021 293.599 Q-41.021 292.944 -40.4881 292.452 Q-39.9962 291.919 -39.3404 291.919 Q-38.8485 291.919 -37.8238 292.575 L25.3817 335.04 Q26.6523 335.982 26.6523 336.72 Q26.6523 337.376 26.1195 337.909 Q25.6276 338.401 24.9718 338.401 Q24.3979 338.401 23.2912 337.663 L-32.8641 299.953 L-32.9461 300.035 Q-29.9948 304.38 -30.0358 311.225 Q-30.0358 317.701 -33.5609 323.89 Q-29.216 322.128 -24.0514 322.128 Q-17.0012 322.128 -12.0825 325.284 Q-7.2048 328.44 -7.2048 333.031 Q-7.2048 337.991 -11.9596 341.68 Q-16.7553 345.369 -24.1334 345.369 M-30.9786 339.589 Q-28.0274 340.163 -24.0514 340.163 Q-20.1164 340.163 -17.1652 339.589 Q-14.255 339.016 -12.7383 338.196 Q-11.2217 337.335 -10.32 336.187 Q-9.45921 335.04 -9.25426 334.343 Q-9.04931 333.646 -9.04931 332.949 Q-9.04931 329.506 -13.3122 326.883 Q-17.6161 324.218 -24.1334 324.218 Q-30.5277 324.218 -34.8316 326.883 Q-39.1764 329.506 -39.1764 332.949 Q-39.1764 333.687 -38.9715 334.425 Q-38.7665 335.122 -37.8648 336.228 Q-37.004 337.335 -35.4874 338.196 Q-33.9708 339.016 -30.9786 339.589 M9.68279 308.192 Q2.46867 308.192 -2.36806 304.503 Q-7.2048 300.814 -7.2048 295.854 Q-7.2048 291.304 -2.28608 288.148 Q2.63263 284.951 9.76476 284.951 Q16.8149 284.951 21.7336 288.107 Q26.6523 291.222 26.6523 295.854 Q26.6523 300.814 21.8566 304.503 Q17.0609 308.192 9.68279 308.192 M2.83758 302.412 Q5.82979 302.986 9.76476 302.986 Q13.6997 302.986 16.651 302.412 Q19.6022 301.797 21.1188 300.977 Q22.5944 300.117 23.4552 299.01 Q24.3569 297.862 24.5619 297.165 Q24.8078 296.428 24.8078 295.772 Q24.8078 292.329 20.5449 289.705 Q16.2411 287.041 9.68279 287.041 Q3.28846 287.041 -1.01542 289.705 Q-5.36028 292.329 -5.36028 295.772 Q-5.36028 296.51 -5.11434 297.247 Q-4.9094 297.944 -4.00763 299.051 Q-3.14686 300.117 -1.63026 300.977 Q-0.154642 301.797 2.83758 302.412 Z" fill="#000000" fill-rule="evenodd" fill-opacity="1" /><path clip-path="url(#clip040)" d="M42.1053 274.143 Q41.6954 274.143 40.6707 273.077 Q26.8983 259.551 0.952069 259.551 Q-25.0761 259.551 -38.2337 272.545 Q-39.7503 274.143 -40.2012 274.143 Q-41.021 274.143 -41.021 273.323 Q-41.021 272.75 -39.3404 270.741 Q-37.6598 268.692 -33.8068 265.617 Q-29.9538 262.502 -25.2401 260.207 Q-13.8041 254.673 0.952069 254.673 Q15.1344 254.673 26.5704 259.961 Q31.3661 262.215 35.3831 265.371 Q39.4 268.528 41.1626 270.618 Q42.9251 272.709 42.9251 273.323 Q42.9251 274.143 42.1053 274.143 Z" fill="#000000" fill-rule="evenodd" fill-opacity="1" /><polyline clip-path="url(#clip042)" style="stroke:#009af9; stroke-linecap:butt; stroke-linejoin:round; stroke-width:8; stroke-opacity:1; fill:none" points="
  392.254,91.8456 553.751,75.834 715.248,97.4314 876.746,295.525 1038.24,336.607 1199.74,270.067 1361.24,298.188 1522.73,312.3 1684.23,316.317 1845.73,339.373 
  2007.23,357.784 2168.72,300.162 2330.22,389.543 2491.72,292.645 2653.22,365.543 2814.71,343.234 2976.21,374.893 3137.71,363.085 3299.21,390.972 3460.7,403.276 
  
  "/>
<circle clip-path="url(#clip042)" cx="392.254" cy="91.8456" r="18" fill="#009af9" fill-rule="evenodd" fill-opacity="1" stroke="#000000" stroke-opacity="1" stroke-width="3.6"/>
<circle clip-path="url(#clip042)" cx="553.751" cy="75.834" r="18" fill="#009af9" fill-rule="evenodd" fill-opacity="1" stroke="#000000" stroke-opacity="1" stroke-width="3.6"/>
<circle clip-path="url(#clip042)" cx="715.248" cy="97.4314" r="18" fill="#009af9" fill-rule="evenodd" fill-opacity="1" stroke="#000000" stroke-opacity="1" stroke-width="3.6"/>
<circle clip-path="url(#clip042)" cx="876.746" cy="295.525" r="18" fill="#009af9" fill-rule="evenodd" fill-opacity="1" stroke="#000000" stroke-opacity="1" stroke-width="3.6"/>
<circle clip-path="url(#clip042)" cx="1038.24" cy="336.607" r="18" fill="#009af9" fill-rule="evenodd" fill-opacity="1" stroke="#000000" stroke-opacity="1" stroke-width="3.6"/>
<circle clip-path="url(#clip042)" cx="1199.74" cy="270.067" r="18" fill="#009af9" fill-rule="evenodd" fill-opacity="1" stroke="#000000" stroke-opacity="1" stroke-width="3.6"/>
<circle clip-path="url(#clip042)" cx="1361.24" cy="298.188" r="18" fill="#009af9" fill-rule="evenodd" fill-opacity="1" stroke="#000000" stroke-opacity="1" stroke-width="3.6"/>
<circle clip-path="url(#clip042)" cx="1522.73" cy="312.3" r="18" fill="#009af9" fill-rule="evenodd" fill-opacity="1" stroke="#000000" stroke-opacity="1" stroke-width="3.6"/>
<circle clip-path="url(#clip042)" cx="1684.23" cy="316.317" r="18" fill="#009af9" fill-rule="evenodd" fill-opacity="1" stroke="#000000" stroke-opacity="1" stroke-width="3.6"/>
<circle clip-path="url(#clip042)" cx="1845.73" cy="339.373" r="18" fill="#009af9" fill-rule="evenodd" fill-opacity="1" stroke="#000000" stroke-opacity="1" stroke-width="3.6"/>
<circle clip-path="url(#clip042)" cx="2007.23" cy="357.784" r="18" fill="#009af9" fill-rule="evenodd" fill-opacity="1" stroke="#000000" stroke-opacity="1" stroke-width="3.6"/>
<circle clip-path="url(#clip042)" cx="2168.72" cy="300.162" r="18" fill="#009af9" fill-rule="evenodd" fill-opacity="1" stroke="#000000" stroke-opacity="1" stroke-width="3.6"/>
<circle clip-path="url(#clip042)" cx="2330.22" cy="389.543" r="18" fill="#009af9" fill-rule="evenodd" fill-opacity="1" stroke="#000000" stroke-opacity="1" stroke-width="3.6"/>
<circle clip-path="url(#clip042)" cx="2491.72" cy="292.645" r="18" fill="#009af9" fill-rule="evenodd" fill-opacity="1" stroke="#000000" stroke-opacity="1" stroke-width="3.6"/>
<circle clip-path="url(#clip042)" cx="2653.22" cy="365.543" r="18" fill="#009af9" fill-rule="evenodd" fill-opacity="1" stroke="#000000" stroke-opacity="1" stroke-width="3.6"/>
<circle clip-path="url(#clip042)" cx="2814.71" cy="343.234" r="18" fill="#009af9" fill-rule="evenodd" fill-opacity="1" stroke="#000000" stroke-opacity="1" stroke-width="3.6"/>
<circle clip-path="url(#clip042)" cx="2976.21" cy="374.893" r="18" fill="#009af9" fill-rule="evenodd" fill-opacity="1" stroke="#000000" stroke-opacity="1" stroke-width="3.6"/>
<circle clip-path="url(#clip042)" cx="3137.71" cy="363.085" r="18" fill="#009af9" fill-rule="evenodd" fill-opacity="1" stroke="#000000" stroke-opacity="1" stroke-width="3.6"/>
<circle clip-path="url(#clip042)" cx="3299.21" cy="390.972" r="18" fill="#009af9" fill-rule="evenodd" fill-opacity="1" stroke="#000000" stroke-opacity="1" stroke-width="3.6"/>
<circle clip-path="url(#clip042)" cx="3460.7" cy="403.276" r="18" fill="#009af9" fill-rule="evenodd" fill-opacity="1" stroke="#000000" stroke-opacity="1" stroke-width="3.6"/>
<polyline clip-path="url(#clip042)" style="stroke:#e26f46; stroke-linecap:butt; stroke-linejoin:round; stroke-width:8; stroke-opacity:1; fill:none" points="
  392.254,400.747 553.751,478.467 715.248,465.171 876.746,499.341 1038.24,597.182 1199.74,589.544 1361.24,577.342 1522.73,626.752 1684.23,630.471 1845.73,556.301 
  2007.23,599.119 2168.72,664.998 2330.22,655.149 2491.72,710.244 2653.22,703.537 2814.71,683.551 2976.21,666.124 3137.71,626.976 3299.21,697.91 3460.7,694.866 
  
  "/>
<circle clip-path="url(#clip042)" cx="392.254" cy="400.747" r="18" fill="#e26f46" fill-rule="evenodd" fill-opacity="1" stroke="#000000" stroke-opacity="1" stroke-width="3.6"/>
<circle clip-path="url(#clip042)" cx="553.751" cy="478.467" r="18" fill="#e26f46" fill-rule="evenodd" fill-opacity="1" stroke="#000000" stroke-opacity="1" stroke-width="3.6"/>
<circle clip-path="url(#clip042)" cx="715.248" cy="465.171" r="18" fill="#e26f46" fill-rule="evenodd" fill-opacity="1" stroke="#000000" stroke-opacity="1" stroke-width="3.6"/>
<circle clip-path="url(#clip042)" cx="876.746" cy="499.341" r="18" fill="#e26f46" fill-rule="evenodd" fill-opacity="1" stroke="#000000" stroke-opacity="1" stroke-width="3.6"/>
<circle clip-path="url(#clip042)" cx="1038.24" cy="597.182" r="18" fill="#e26f46" fill-rule="evenodd" fill-opacity="1" stroke="#000000" stroke-opacity="1" stroke-width="3.6"/>
<circle clip-path="url(#clip042)" cx="1199.74" cy="589.544" r="18" fill="#e26f46" fill-rule="evenodd" fill-opacity="1" stroke="#000000" stroke-opacity="1" stroke-width="3.6"/>
<circle clip-path="url(#clip042)" cx="1361.24" cy="577.342" r="18" fill="#e26f46" fill-rule="evenodd" fill-opacity="1" stroke="#000000" stroke-opacity="1" stroke-width="3.6"/>
<circle clip-path="url(#clip042)" cx="1522.73" cy="626.752" r="18" fill="#e26f46" fill-rule="evenodd" fill-opacity="1" stroke="#000000" stroke-opacity="1" stroke-width="3.6"/>
<circle clip-path="url(#clip042)" cx="1684.23" cy="630.471" r="18" fill="#e26f46" fill-rule="evenodd" fill-opacity="1" stroke="#000000" stroke-opacity="1" stroke-width="3.6"/>
<circle clip-path="url(#clip042)" cx="1845.73" cy="556.301" r="18" fill="#e26f46" fill-rule="evenodd" fill-opacity="1" stroke="#000000" stroke-opacity="1" stroke-width="3.6"/>
<circle clip-path="url(#clip042)" cx="2007.23" cy="599.119" r="18" fill="#e26f46" fill-rule="evenodd" fill-opacity="1" stroke="#000000" stroke-opacity="1" stroke-width="3.6"/>
<circle clip-path="url(#clip042)" cx="2168.72" cy="664.998" r="18" fill="#e26f46" fill-rule="evenodd" fill-opacity="1" stroke="#000000" stroke-opacity="1" stroke-width="3.6"/>
<circle clip-path="url(#clip042)" cx="2330.22" cy="655.149" r="18" fill="#e26f46" fill-rule="evenodd" fill-opacity="1" stroke="#000000" stroke-opacity="1" stroke-width="3.6"/>
<circle clip-path="url(#clip042)" cx="2491.72" cy="710.244" r="18" fill="#e26f46" fill-rule="evenodd" fill-opacity="1" stroke="#000000" stroke-opacity="1" stroke-width="3.6"/>
<circle clip-path="url(#clip042)" cx="2653.22" cy="703.537" r="18" fill="#e26f46" fill-rule="evenodd" fill-opacity="1" stroke="#000000" stroke-opacity="1" stroke-width="3.6"/>
<circle clip-path="url(#clip042)" cx="2814.71" cy="683.551" r="18" fill="#e26f46" fill-rule="evenodd" fill-opacity="1" stroke="#000000" stroke-opacity="1" stroke-width="3.6"/>
<circle clip-path="url(#clip042)" cx="2976.21" cy="666.124" r="18" fill="#e26f46" fill-rule="evenodd" fill-opacity="1" stroke="#000000" stroke-opacity="1" stroke-width="3.6"/>
<circle clip-path="url(#clip042)" cx="3137.71" cy="626.976" r="18" fill="#e26f46" fill-rule="evenodd" fill-opacity="1" stroke="#000000" stroke-opacity="1" stroke-width="3.6"/>
<circle clip-path="url(#clip042)" cx="3299.21" cy="697.91" r="18" fill="#e26f46" fill-rule="evenodd" fill-opacity="1" stroke="#000000" stroke-opacity="1" stroke-width="3.6"/>
<circle clip-path="url(#clip042)" cx="3460.7" cy="694.866" r="18" fill="#e26f46" fill-rule="evenodd" fill-opacity="1" stroke="#000000" stroke-opacity="1" stroke-width="3.6"/>
<polyline clip-path="url(#clip042)" style="stroke:#3da44d; stroke-linecap:butt; stroke-linejoin:round; stroke-width:8; stroke-opacity:1; fill:none" points="
  392.254,748.394 553.751,749.465 715.248,765.515 876.746,852.403 1038.24,893.055 1199.74,860.56 1361.24,960.652 1522.73,943.236 1684.23,972.827 1845.73,943.054 
  2007.23,984.219 2168.72,1028.83 2330.22,1011.76 2491.72,1005.08 2653.22,1020.51 2814.71,926.62 2976.21,962.557 3137.71,980.309 3299.21,1010.29 3460.7,977.684 
  
  "/>
<circle clip-path="url(#clip042)" cx="392.254" cy="748.394" r="18" fill="#3da44d" fill-rule="evenodd" fill-opacity="1" stroke="#000000" stroke-opacity="1" stroke-width="3.6"/>
<circle clip-path="url(#clip042)" cx="553.751" cy="749.465" r="18" fill="#3da44d" fill-rule="evenodd" fill-opacity="1" stroke="#000000" stroke-opacity="1" stroke-width="3.6"/>
<circle clip-path="url(#clip042)" cx="715.248" cy="765.515" r="18" fill="#3da44d" fill-rule="evenodd" fill-opacity="1" stroke="#000000" stroke-opacity="1" stroke-width="3.6"/>
<circle clip-path="url(#clip042)" cx="876.746" cy="852.403" r="18" fill="#3da44d" fill-rule="evenodd" fill-opacity="1" stroke="#000000" stroke-opacity="1" stroke-width="3.6"/>
<circle clip-path="url(#clip042)" cx="1038.24" cy="893.055" r="18" fill="#3da44d" fill-rule="evenodd" fill-opacity="1" stroke="#000000" stroke-opacity="1" stroke-width="3.6"/>
<circle clip-path="url(#clip042)" cx="1199.74" cy="860.56" r="18" fill="#3da44d" fill-rule="evenodd" fill-opacity="1" stroke="#000000" stroke-opacity="1" stroke-width="3.6"/>
<circle clip-path="url(#clip042)" cx="1361.24" cy="960.652" r="18" fill="#3da44d" fill-rule="evenodd" fill-opacity="1" stroke="#000000" stroke-opacity="1" stroke-width="3.6"/>
<circle clip-path="url(#clip042)" cx="1522.73" cy="943.236" r="18" fill="#3da44d" fill-rule="evenodd" fill-opacity="1" stroke="#000000" stroke-opacity="1" stroke-width="3.6"/>
<circle clip-path="url(#clip042)" cx="1684.23" cy="972.827" r="18" fill="#3da44d" fill-rule="evenodd" fill-opacity="1" stroke="#000000" stroke-opacity="1" stroke-width="3.6"/>
<circle clip-path="url(#clip042)" cx="1845.73" cy="943.054" r="18" fill="#3da44d" fill-rule="evenodd" fill-opacity="1" stroke="#000000" stroke-opacity="1" stroke-width="3.6"/>
<circle clip-path="url(#clip042)" cx="2007.23" cy="984.219" r="18" fill="#3da44d" fill-rule="evenodd" fill-opacity="1" stroke="#000000" stroke-opacity="1" stroke-width="3.6"/>
<circle clip-path="url(#clip042)" cx="2168.72" cy="1028.83" r="18" fill="#3da44d" fill-rule="evenodd" fill-opacity="1" stroke="#000000" stroke-opacity="1" stroke-width="3.6"/>
<circle clip-path="url(#clip042)" cx="2330.22" cy="1011.76" r="18" fill="#3da44d" fill-rule="evenodd" fill-opacity="1" stroke="#000000" stroke-opacity="1" stroke-width="3.6"/>
<circle clip-path="url(#clip042)" cx="2491.72" cy="1005.08" r="18" fill="#3da44d" fill-rule="evenodd" fill-opacity="1" stroke="#000000" stroke-opacity="1" stroke-width="3.6"/>
<circle clip-path="url(#clip042)" cx="2653.22" cy="1020.51" r="18" fill="#3da44d" fill-rule="evenodd" fill-opacity="1" stroke="#000000" stroke-opacity="1" stroke-width="3.6"/>
<circle clip-path="url(#clip042)" cx="2814.71" cy="926.62" r="18" fill="#3da44d" fill-rule="evenodd" fill-opacity="1" stroke="#000000" stroke-opacity="1" stroke-width="3.6"/>
<circle clip-path="url(#clip042)" cx="2976.21" cy="962.557" r="18" fill="#3da44d" fill-rule="evenodd" fill-opacity="1" stroke="#000000" stroke-opacity="1" stroke-width="3.6"/>
<circle clip-path="url(#clip042)" cx="3137.71" cy="980.309" r="18" fill="#3da44d" fill-rule="evenodd" fill-opacity="1" stroke="#000000" stroke-opacity="1" stroke-width="3.6"/>
<circle clip-path="url(#clip042)" cx="3299.21" cy="1010.29" r="18" fill="#3da44d" fill-rule="evenodd" fill-opacity="1" stroke="#000000" stroke-opacity="1" stroke-width="3.6"/>
<circle clip-path="url(#clip042)" cx="3460.7" cy="977.684" r="18" fill="#3da44d" fill-rule="evenodd" fill-opacity="1" stroke="#000000" stroke-opacity="1" stroke-width="3.6"/>
<path clip-path="url(#clip040)" d="
M2787.14 342.662 L3525.74 342.662 L3525.74 83.4617 L2787.14 83.4617  Z
  " fill="#ffffff" fill-rule="evenodd" fill-opacity="1"/>
<polyline clip-path="url(#clip040)" style="stroke:#000000; stroke-linecap:butt; stroke-linejoin:round; stroke-width:4; stroke-opacity:1; fill:none" points="
  2787.14,342.662 3525.74,342.662 3525.74,83.4617 2787.14,83.4617 2787.14,342.662 
  "/>
<polyline clip-path="url(#clip040)" style="stroke:#009af9; stroke-linecap:butt; stroke-linejoin:round; stroke-width:5; stroke-opacity:1; fill:none" points="
  2823.28,148.262 3040.12,148.262 
  "/>
<circle clip-path="url(#clip040)" cx="2931.7" cy="148.262" r="28" fill="#009af9" fill-rule="evenodd" fill-opacity="1" stroke="#000000" stroke-opacity="1" stroke-width="5.76"/>
<path clip-path="url(#clip040)" d="M3126.73 131.158 Q3126.73 132.358 3125.71 132.358 Q3122.4 132.476 3121.05 133.588 Q3119.73 134.671 3119.24 136.779 L3110.86 170.186 Q3110.57 171.24 3110.39 171.357 Q3110.22 171.445 3109.9 171.445 Q3109.49 171.445 3109.25 171.24 Q3109.05 171.035 3108.76 170.303 L3093.82 134.993 Q3093.71 134.759 3093.56 134.437 Q3093.41 134.115 3093.3 133.91 L3085.36 165.56 Q3085.13 166.467 3085.13 166.936 Q3085.13 168.078 3085.92 168.81 Q3086.74 169.512 3089.08 169.6 Q3090.28 169.6 3090.28 170.244 Q3090.28 171.445 3089.2 171.445 Q3088.2 171.445 3086.12 171.357 Q3084.04 171.269 3083.02 171.269 Q3082.02 171.269 3080 171.357 Q3077.98 171.445 3077.02 171.445 Q3076.26 171.445 3076.26 170.771 Q3076.26 170.244 3076.46 169.981 Q3076.67 169.688 3076.84 169.659 Q3077.02 169.6 3077.28 169.6 Q3079.04 169.542 3080.24 169.19 Q3081.44 168.839 3082.11 168.165 Q3082.81 167.492 3083.14 166.819 Q3083.49 166.116 3083.75 165.091 L3091.77 132.885 Q3091.77 132.358 3087.7 132.358 Q3087 132.358 3086.71 132.329 Q3086.45 132.3 3086.24 132.153 Q3086.04 132.007 3086.04 131.685 Q3086.04 130.865 3086.39 130.69 Q3086.74 130.485 3087.76 130.485 L3095.81 130.485 Q3096.84 130.485 3097.1 130.66 Q3097.37 130.807 3097.72 131.626 L3110.98 162.925 L3117.68 136.252 Q3117.86 135.725 3117.86 134.993 Q3117.86 133.822 3116.98 133.12 Q3116.13 132.388 3113.79 132.358 Q3112.71 132.358 3112.71 131.685 Q3112.71 131.129 3112.91 130.865 Q3113.15 130.572 3113.32 130.543 Q3113.53 130.485 3113.79 130.485 Q3114.79 130.485 3116.84 130.572 Q3118.89 130.66 3119.91 130.66 Q3120.91 130.66 3122.93 130.572 Q3124.98 130.485 3125.97 130.485 Q3126.32 130.485 3126.5 130.66 Q3126.7 130.807 3126.73 130.982 L3126.73 131.158 Z" fill="#000000" fill-rule="evenodd" fill-opacity="1" /><path clip-path="url(#clip040)" d="M3167.04 176.465 Q3167.04 176.629 3166.85 177.264 Q3166.67 177.899 3166.22 178.883 Q3165.79 179.867 3165.17 180.769 Q3164.58 181.65 3163.6 182.306 Q3162.63 182.941 3161.53 182.941 Q3160.05 182.941 3159.07 181.957 Q3158.08 180.974 3158.08 179.498 Q3158.08 178.699 3158.64 177.182 Q3161.24 170.255 3161.24 167.775 Q3161.24 164.844 3158.96 164.844 Q3157.67 164.844 3156.5 165.377 Q3155.34 165.91 3154.58 166.648 Q3153.82 167.386 3153.23 168.226 Q3152.63 169.066 3152.36 169.619 Q3152.12 170.173 3152.06 170.419 L3149.54 180.543 Q3149.33 181.404 3149.19 181.814 Q3149.04 182.224 3148.66 182.572 Q3148.27 182.941 3147.65 182.941 Q3147.14 182.941 3146.77 182.634 Q3146.42 182.326 3146.42 181.793 Q3146.42 181.711 3146.52 181.281 Q3146.63 180.851 3146.77 180.256 Q3146.91 179.662 3146.97 179.313 Q3147.71 176.526 3147.81 176.137 L3148.98 171.259 Q3149.62 168.841 3149.62 167.775 Q3149.62 164.844 3147.34 164.844 Q3146.22 164.844 3145.15 165.275 Q3144.11 165.685 3143.39 166.258 Q3142.67 166.832 3142.01 167.632 Q3141.38 168.41 3141.05 168.943 Q3140.74 169.456 3140.5 169.968 L3139.97 172.058 Q3139.84 172.632 3139.25 174.866 L3138.33 178.658 Q3137.67 181.486 3137.53 181.752 Q3137.32 182.326 3136.87 182.634 Q3136.42 182.941 3135.97 182.941 Q3135.46 182.941 3135.11 182.634 Q3134.76 182.326 3134.76 181.793 Q3134.76 181.711 3134.82 181.404 Q3134.88 181.096 3134.99 180.666 Q3135.09 180.236 3135.13 179.99 L3137.57 170.296 Q3138.02 168.533 3138.12 167.98 Q3138.24 167.406 3138.24 166.771 Q3138.24 164.844 3136.93 164.844 Q3135.87 164.844 3135.17 166.115 Q3134.47 167.386 3133.88 169.845 Q3133.69 170.521 3133.57 170.665 Q3133.47 170.808 3133.16 170.808 Q3132.65 170.788 3132.65 170.378 Q3132.65 170.275 3132.81 169.619 Q3132.98 168.964 3133.28 167.98 Q3133.61 166.976 3133.96 166.32 Q3134.17 165.889 3134.35 165.603 Q3134.53 165.316 3134.9 164.865 Q3135.27 164.414 3135.83 164.168 Q3136.38 163.922 3137.06 163.922 Q3138.55 163.922 3139.66 164.885 Q3140.79 165.848 3140.93 167.57 Q3143.65 163.922 3147.47 163.922 Q3149.62 163.922 3150.91 165.008 Q3152.12 166.053 3152.26 167.98 Q3155.09 163.922 3159.11 163.922 Q3161.42 163.922 3162.67 165.131 Q3163.92 166.32 3163.92 168.41 Q3163.92 169.497 3163.37 171.566 Q3162.82 173.616 3162.45 174.641 Q3162.08 175.665 3161.36 177.633 Q3160.6 179.518 3160.6 180.625 Q3160.6 181.342 3160.85 181.67 Q3161.1 181.998 3161.63 181.998 Q3162.45 181.998 3163.17 181.527 Q3163.88 181.035 3164.39 180.236 Q3164.93 179.416 3165.28 178.596 Q3165.62 177.756 3165.89 176.813 Q3166.05 176.301 3166.14 176.178 Q3166.24 176.055 3166.53 176.055 Q3167.04 176.055 3167.04 176.465 Z" fill="#000000" fill-rule="evenodd" fill-opacity="1" /><path clip-path="url(#clip040)" d="M3185.99 177.612 Q3186.15 177.797 3186.15 177.981 Q3186.15 178.166 3185.74 178.699 Q3185.35 179.231 3184.51 179.949 Q3183.67 180.666 3182.59 181.342 Q3181.5 182.019 3179.9 182.47 Q3178.3 182.941 3176.62 182.941 Q3173.49 182.941 3171.64 180.871 Q3169.82 178.801 3169.82 175.829 Q3169.82 172.94 3171.44 170.173 Q3173.06 167.386 3175.68 165.664 Q3178.3 163.922 3181.07 163.922 Q3183.26 163.922 3184.64 164.947 Q3186.01 165.971 3186.01 167.529 Q3186.01 168.738 3185.31 169.476 Q3184.62 170.214 3183.67 170.214 Q3183.02 170.214 3182.57 169.845 Q3182.12 169.456 3182.12 168.738 Q3182.12 167.816 3182.87 167.099 Q3183.16 166.812 3183.49 166.689 Q3183.84 166.545 3184.04 166.545 Q3184.25 166.525 3184.72 166.525 Q3184.29 165.726 3183.26 165.295 Q3182.26 164.844 3181.11 164.844 Q3179.41 164.844 3177.79 166.033 Q3176.17 167.201 3175.19 169.046 Q3174.21 170.849 3173.57 173.411 Q3172.93 175.952 3172.93 177.428 Q3172.93 179.457 3173.88 180.728 Q3174.82 181.998 3176.71 181.998 Q3177.07 181.998 3177.46 181.978 Q3177.87 181.957 3178.9 181.732 Q3179.94 181.506 3180.87 181.117 Q3181.79 180.728 3182.96 179.887 Q3184.14 179.027 3185.09 177.858 Q3185.42 177.428 3185.64 177.428 Q3185.83 177.428 3185.99 177.612 Z" fill="#000000" fill-rule="evenodd" fill-opacity="1" /><path clip-path="url(#clip040)" d="M3210.85 162.339 Q3210.9 161.607 3212.05 161.607 L3248.79 161.607 Q3250.52 161.607 3250.55 162.281 Q3250.55 163.013 3248.91 162.983 L3212.46 162.983 Q3210.85 163.013 3210.85 162.339 M3210.85 150.628 Q3210.85 149.896 3212.1 149.925 L3248.73 149.925 Q3250.52 149.925 3250.55 150.628 Q3250.55 151.301 3249.02 151.301 L3212.05 151.301 Q3210.85 151.301 3210.85 150.628 Z" fill="#000000" fill-rule="evenodd" fill-opacity="1" /><path clip-path="url(#clip040)" d="M3273.68 137.219 L3273.68 135.345 Q3280.88 135.345 3284.6 131.509 Q3285.63 131.509 3285.8 131.744 Q3285.98 131.978 3285.98 133.061 L3285.98 166.702 Q3285.98 168.488 3286.86 169.044 Q3287.74 169.6 3291.57 169.6 L3293.47 169.6 L3293.47 171.445 Q3291.37 171.269 3283.75 171.269 Q3276.14 171.269 3274.06 171.445 L3274.06 169.6 L3275.97 169.6 Q3279.74 169.6 3280.65 169.073 Q3281.56 168.517 3281.56 166.702 L3281.56 135.638 Q3278.43 137.219 3273.68 137.219 Z" fill="#000000" fill-rule="evenodd" fill-opacity="1" /><path clip-path="url(#clip040)" d="M3311.3 152.268 Q3311.3 143.455 3313.53 138.653 Q3316.63 131.509 3323.95 131.509 Q3325.5 131.509 3327.11 131.949 Q3328.75 132.358 3330.8 133.969 Q3332.88 135.579 3334.14 138.214 Q3336.54 143.308 3336.54 152.268 Q3336.54 161.022 3334.31 165.794 Q3331.06 172.762 3323.89 172.762 Q3321.2 172.762 3318.45 171.386 Q3315.72 170.01 3314 166.702 Q3311.3 161.754 3311.3 152.268 M3316.28 151.536 Q3316.28 160.582 3316.92 164.184 Q3317.66 168.078 3319.65 169.776 Q3321.67 171.445 3323.89 171.445 Q3326.29 171.445 3328.28 169.659 Q3330.3 167.843 3330.92 163.949 Q3331.59 160.114 3331.56 151.536 Q3331.56 143.191 3330.98 139.854 Q3330.19 135.96 3328.08 134.408 Q3326 132.827 3323.89 132.827 Q3323.1 132.827 3322.25 133.061 Q3321.43 133.295 3320.23 133.969 Q3319.03 134.642 3318.09 136.311 Q3317.19 137.98 3316.75 140.498 Q3316.28 143.748 3316.28 151.536 Z" fill="#000000" fill-rule="evenodd" fill-opacity="1" /><path clip-path="url(#clip040)" d="M3341.24 152.268 Q3341.24 143.455 3343.46 138.653 Q3346.57 131.509 3353.89 131.509 Q3355.44 131.509 3357.05 131.949 Q3358.69 132.358 3360.74 133.969 Q3362.82 135.579 3364.07 138.214 Q3366.48 143.308 3366.48 152.268 Q3366.48 161.022 3364.25 165.794 Q3361 172.762 3353.83 172.762 Q3351.13 172.762 3348.38 171.386 Q3345.66 170.01 3343.93 166.702 Q3341.24 161.754 3341.24 152.268 M3346.21 151.536 Q3346.21 160.582 3346.86 164.184 Q3347.59 168.078 3349.58 169.776 Q3351.6 171.445 3353.83 171.445 Q3356.23 171.445 3358.22 169.659 Q3360.24 167.843 3360.85 163.949 Q3361.53 160.114 3361.5 151.536 Q3361.5 143.191 3360.91 139.854 Q3360.12 135.96 3358.01 134.408 Q3355.93 132.827 3353.83 132.827 Q3353.04 132.827 3352.19 133.061 Q3351.37 133.295 3350.17 133.969 Q3348.97 134.642 3348.03 136.311 Q3347.12 137.98 3346.68 140.498 Q3346.21 143.748 3346.21 151.536 Z" fill="#000000" fill-rule="evenodd" fill-opacity="1" /><path clip-path="url(#clip040)" d="M3371.17 152.268 Q3371.17 143.455 3373.4 138.653 Q3376.5 131.509 3383.82 131.509 Q3385.37 131.509 3386.98 131.949 Q3388.62 132.358 3390.67 133.969 Q3392.75 135.579 3394.01 138.214 Q3396.41 143.308 3396.41 152.268 Q3396.41 161.022 3394.19 165.794 Q3390.94 172.762 3383.76 172.762 Q3381.07 172.762 3378.32 171.386 Q3375.59 170.01 3373.87 166.702 Q3371.17 161.754 3371.17 152.268 M3376.15 151.536 Q3376.15 160.582 3376.79 164.184 Q3377.53 168.078 3379.52 169.776 Q3381.54 171.445 3383.76 171.445 Q3386.16 171.445 3388.15 169.659 Q3390.17 167.843 3390.79 163.949 Q3391.46 160.114 3391.43 151.536 Q3391.43 143.191 3390.85 139.854 Q3390.06 135.96 3387.95 134.408 Q3385.87 132.827 3383.76 132.827 Q3382.97 132.827 3382.12 133.061 Q3381.3 133.295 3380.1 133.969 Q3378.9 134.642 3377.97 136.311 Q3377.06 137.98 3376.62 140.498 Q3376.15 143.748 3376.15 151.536 Z" fill="#000000" fill-rule="evenodd" fill-opacity="1" /><polyline clip-path="url(#clip040)" style="stroke:#e26f46; stroke-linecap:butt; stroke-linejoin:round; stroke-width:5; stroke-opacity:1; fill:none" points="
  2823.28,213.062 3040.12,213.062 
  "/>
<circle clip-path="url(#clip040)" cx="2931.7" cy="213.062" r="28" fill="#e26f46" fill-rule="evenodd" fill-opacity="1" stroke="#000000" stroke-opacity="1" stroke-width="5.76"/>
<path clip-path="url(#clip040)" d="M3126.73 195.958 Q3126.73 197.158 3125.71 197.158 Q3122.4 197.276 3121.05 198.388 Q3119.73 199.471 3119.24 201.579 L3110.86 234.986 Q3110.57 236.04 3110.39 236.157 Q3110.22 236.245 3109.9 236.245 Q3109.49 236.245 3109.25 236.04 Q3109.05 235.835 3108.76 235.103 L3093.82 199.793 Q3093.71 199.559 3093.56 199.237 Q3093.41 198.915 3093.3 198.71 L3085.36 230.36 Q3085.13 231.267 3085.13 231.736 Q3085.13 232.878 3085.92 233.61 Q3086.74 234.312 3089.08 234.4 Q3090.28 234.4 3090.28 235.044 Q3090.28 236.245 3089.2 236.245 Q3088.2 236.245 3086.12 236.157 Q3084.04 236.069 3083.02 236.069 Q3082.02 236.069 3080 236.157 Q3077.98 236.245 3077.02 236.245 Q3076.26 236.245 3076.26 235.571 Q3076.26 235.044 3076.46 234.781 Q3076.67 234.488 3076.84 234.459 Q3077.02 234.4 3077.28 234.4 Q3079.04 234.342 3080.24 233.99 Q3081.44 233.639 3082.11 232.965 Q3082.81 232.292 3083.14 231.619 Q3083.49 230.916 3083.75 229.891 L3091.77 197.685 Q3091.77 197.158 3087.7 197.158 Q3087 197.158 3086.71 197.129 Q3086.45 197.1 3086.24 196.953 Q3086.04 196.807 3086.04 196.485 Q3086.04 195.665 3086.39 195.49 Q3086.74 195.285 3087.76 195.285 L3095.81 195.285 Q3096.84 195.285 3097.1 195.46 Q3097.37 195.607 3097.72 196.426 L3110.98 227.725 L3117.68 201.052 Q3117.86 200.525 3117.86 199.793 Q3117.86 198.622 3116.98 197.92 Q3116.13 197.188 3113.79 197.158 Q3112.71 197.158 3112.71 196.485 Q3112.71 195.929 3112.91 195.665 Q3113.15 195.372 3113.32 195.343 Q3113.53 195.285 3113.79 195.285 Q3114.79 195.285 3116.84 195.372 Q3118.89 195.46 3119.91 195.46 Q3120.91 195.46 3122.93 195.372 Q3124.98 195.285 3125.97 195.285 Q3126.32 195.285 3126.5 195.46 Q3126.7 195.607 3126.73 195.782 L3126.73 195.958 Z" fill="#000000" fill-rule="evenodd" fill-opacity="1" /><path clip-path="url(#clip040)" d="M3167.04 241.265 Q3167.04 241.429 3166.85 242.064 Q3166.67 242.699 3166.22 243.683 Q3165.79 244.667 3165.17 245.569 Q3164.58 246.45 3163.6 247.106 Q3162.63 247.741 3161.53 247.741 Q3160.05 247.741 3159.07 246.757 Q3158.08 245.774 3158.08 244.298 Q3158.08 243.499 3158.64 241.982 Q3161.24 235.055 3161.24 232.575 Q3161.24 229.644 3158.96 229.644 Q3157.67 229.644 3156.5 230.177 Q3155.34 230.71 3154.58 231.448 Q3153.82 232.186 3153.23 233.026 Q3152.63 233.866 3152.36 234.419 Q3152.12 234.973 3152.06 235.219 L3149.54 245.343 Q3149.33 246.204 3149.19 246.614 Q3149.04 247.024 3148.66 247.372 Q3148.27 247.741 3147.65 247.741 Q3147.14 247.741 3146.77 247.434 Q3146.42 247.126 3146.42 246.593 Q3146.42 246.511 3146.52 246.081 Q3146.63 245.651 3146.77 245.056 Q3146.91 244.462 3146.97 244.113 Q3147.71 241.326 3147.81 240.937 L3148.98 236.059 Q3149.62 233.641 3149.62 232.575 Q3149.62 229.644 3147.34 229.644 Q3146.22 229.644 3145.15 230.075 Q3144.11 230.485 3143.39 231.058 Q3142.67 231.632 3142.01 232.432 Q3141.38 233.21 3141.05 233.743 Q3140.74 234.256 3140.5 234.768 L3139.97 236.858 Q3139.84 237.432 3139.25 239.666 L3138.33 243.458 Q3137.67 246.286 3137.53 246.552 Q3137.32 247.126 3136.87 247.434 Q3136.42 247.741 3135.97 247.741 Q3135.46 247.741 3135.11 247.434 Q3134.76 247.126 3134.76 246.593 Q3134.76 246.511 3134.82 246.204 Q3134.88 245.896 3134.99 245.466 Q3135.09 245.036 3135.13 244.79 L3137.57 235.096 Q3138.02 233.333 3138.12 232.78 Q3138.24 232.206 3138.24 231.571 Q3138.24 229.644 3136.93 229.644 Q3135.87 229.644 3135.17 230.915 Q3134.47 232.186 3133.88 234.645 Q3133.69 235.321 3133.57 235.465 Q3133.47 235.608 3133.16 235.608 Q3132.65 235.588 3132.65 235.178 Q3132.65 235.075 3132.81 234.419 Q3132.98 233.764 3133.28 232.78 Q3133.61 231.776 3133.96 231.12 Q3134.17 230.689 3134.35 230.403 Q3134.53 230.116 3134.9 229.665 Q3135.27 229.214 3135.83 228.968 Q3136.38 228.722 3137.06 228.722 Q3138.55 228.722 3139.66 229.685 Q3140.79 230.648 3140.93 232.37 Q3143.65 228.722 3147.47 228.722 Q3149.62 228.722 3150.91 229.808 Q3152.12 230.853 3152.26 232.78 Q3155.09 228.722 3159.11 228.722 Q3161.42 228.722 3162.67 229.931 Q3163.92 231.12 3163.92 233.21 Q3163.92 234.297 3163.37 236.366 Q3162.82 238.416 3162.45 239.441 Q3162.08 240.465 3161.36 242.433 Q3160.6 244.318 3160.6 245.425 Q3160.6 246.142 3160.85 246.47 Q3161.1 246.798 3161.63 246.798 Q3162.45 246.798 3163.17 246.327 Q3163.88 245.835 3164.39 245.036 Q3164.93 244.216 3165.28 243.396 Q3165.62 242.556 3165.89 241.613 Q3166.05 241.101 3166.14 240.978 Q3166.24 240.855 3166.53 240.855 Q3167.04 240.855 3167.04 241.265 Z" fill="#000000" fill-rule="evenodd" fill-opacity="1" /><path clip-path="url(#clip040)" d="M3185.99 242.412 Q3186.15 242.597 3186.15 242.781 Q3186.15 242.966 3185.74 243.499 Q3185.35 244.031 3184.51 244.749 Q3183.67 245.466 3182.59 246.142 Q3181.5 246.819 3179.9 247.27 Q3178.3 247.741 3176.62 247.741 Q3173.49 247.741 3171.64 245.671 Q3169.82 243.601 3169.82 240.629 Q3169.82 237.74 3171.44 234.973 Q3173.06 232.186 3175.68 230.464 Q3178.3 228.722 3181.07 228.722 Q3183.26 228.722 3184.64 229.747 Q3186.01 230.771 3186.01 232.329 Q3186.01 233.538 3185.31 234.276 Q3184.62 235.014 3183.67 235.014 Q3183.02 235.014 3182.57 234.645 Q3182.12 234.256 3182.12 233.538 Q3182.12 232.616 3182.87 231.899 Q3183.16 231.612 3183.49 231.489 Q3183.84 231.345 3184.04 231.345 Q3184.25 231.325 3184.72 231.325 Q3184.29 230.526 3183.26 230.095 Q3182.26 229.644 3181.11 229.644 Q3179.41 229.644 3177.79 230.833 Q3176.17 232.001 3175.19 233.846 Q3174.21 235.649 3173.57 238.211 Q3172.93 240.752 3172.93 242.228 Q3172.93 244.257 3173.88 245.528 Q3174.82 246.798 3176.71 246.798 Q3177.07 246.798 3177.46 246.778 Q3177.87 246.757 3178.9 246.532 Q3179.94 246.306 3180.87 245.917 Q3181.79 245.528 3182.96 244.687 Q3184.14 243.827 3185.09 242.658 Q3185.42 242.228 3185.64 242.228 Q3185.83 242.228 3185.99 242.412 Z" fill="#000000" fill-rule="evenodd" fill-opacity="1" /><path clip-path="url(#clip040)" d="M3210.85 227.139 Q3210.9 226.407 3212.05 226.407 L3248.79 226.407 Q3250.52 226.407 3250.55 227.081 Q3250.55 227.813 3248.91 227.783 L3212.46 227.783 Q3210.85 227.813 3210.85 227.139 M3210.85 215.428 Q3210.85 214.696 3212.1 214.725 L3248.73 214.725 Q3250.52 214.725 3250.55 215.428 Q3250.55 216.101 3249.02 216.101 L3212.05 216.101 Q3210.85 216.101 3210.85 215.428 Z" fill="#000000" fill-rule="evenodd" fill-opacity="1" /><path clip-path="url(#clip040)" d="M3273.68 202.019 L3273.68 200.145 Q3280.88 200.145 3284.6 196.309 Q3285.63 196.309 3285.8 196.544 Q3285.98 196.778 3285.98 197.861 L3285.98 231.502 Q3285.98 233.288 3286.86 233.844 Q3287.74 234.4 3291.57 234.4 L3293.47 234.4 L3293.47 236.245 Q3291.37 236.069 3283.75 236.069 Q3276.14 236.069 3274.06 236.245 L3274.06 234.4 L3275.97 234.4 Q3279.74 234.4 3280.65 233.873 Q3281.56 233.317 3281.56 231.502 L3281.56 200.438 Q3278.43 202.019 3273.68 202.019 Z" fill="#000000" fill-rule="evenodd" fill-opacity="1" /><path clip-path="url(#clip040)" d="M3296.34 217.068 Q3296.34 208.255 3298.57 203.453 Q3301.67 196.309 3308.99 196.309 Q3310.54 196.309 3312.15 196.749 Q3313.79 197.158 3315.84 198.769 Q3317.92 200.379 3319.18 203.014 Q3321.58 208.108 3321.58 217.068 Q3321.58 225.822 3319.36 230.594 Q3316.11 237.562 3308.93 237.562 Q3306.24 237.562 3303.49 236.186 Q3300.76 234.81 3299.04 231.502 Q3296.34 226.554 3296.34 217.068 M3301.32 216.336 Q3301.32 225.382 3301.96 228.984 Q3302.7 232.878 3304.69 234.576 Q3306.71 236.245 3308.93 236.245 Q3311.33 236.245 3313.32 234.459 Q3315.34 232.643 3315.96 228.749 Q3316.63 224.914 3316.6 216.336 Q3316.6 207.991 3316.02 204.654 Q3315.23 200.76 3313.12 199.208 Q3311.04 197.627 3308.93 197.627 Q3308.14 197.627 3307.29 197.861 Q3306.47 198.095 3305.27 198.769 Q3304.07 199.442 3303.14 201.111 Q3302.23 202.78 3301.79 205.298 Q3301.32 208.548 3301.32 216.336 Z" fill="#000000" fill-rule="evenodd" fill-opacity="1" /><path clip-path="url(#clip040)" d="M3333.96 217.068 Q3333.96 208.255 3336.19 203.453 Q3339.29 196.309 3346.61 196.309 Q3348.16 196.309 3349.77 196.749 Q3351.41 197.158 3353.46 198.769 Q3355.54 200.379 3356.8 203.014 Q3359.2 208.108 3359.2 217.068 Q3359.2 225.822 3356.97 230.594 Q3353.73 237.562 3346.55 237.562 Q3343.86 237.562 3341.11 236.186 Q3338.38 234.81 3336.66 231.502 Q3333.96 226.554 3333.96 217.068 M3338.94 216.336 Q3338.94 225.382 3339.58 228.984 Q3340.32 232.878 3342.31 234.576 Q3344.33 236.245 3346.55 236.245 Q3348.95 236.245 3350.94 234.459 Q3352.96 232.643 3353.58 228.749 Q3354.25 224.914 3354.22 216.336 Q3354.22 207.991 3353.64 204.654 Q3352.85 200.76 3350.74 199.208 Q3348.66 197.627 3346.55 197.627 Q3345.76 197.627 3344.91 197.861 Q3344.09 198.095 3342.89 198.769 Q3341.69 199.442 3340.75 201.111 Q3339.85 202.78 3339.41 205.298 Q3338.94 208.548 3338.94 216.336 Z" fill="#000000" fill-rule="evenodd" fill-opacity="1" /><path clip-path="url(#clip040)" d="M3363.9 217.068 Q3363.9 208.255 3366.12 203.453 Q3369.23 196.309 3376.55 196.309 Q3378.1 196.309 3379.71 196.749 Q3381.35 197.158 3383.4 198.769 Q3385.48 200.379 3386.73 203.014 Q3389.14 208.108 3389.14 217.068 Q3389.14 225.822 3386.91 230.594 Q3383.66 237.562 3376.49 237.562 Q3373.79 237.562 3371.04 236.186 Q3368.32 234.81 3366.59 231.502 Q3363.9 226.554 3363.9 217.068 M3368.87 216.336 Q3368.87 225.382 3369.52 228.984 Q3370.25 232.878 3372.24 234.576 Q3374.26 236.245 3376.49 236.245 Q3378.89 236.245 3380.88 234.459 Q3382.9 232.643 3383.51 228.749 Q3384.19 224.914 3384.16 216.336 Q3384.16 207.991 3383.57 204.654 Q3382.78 200.76 3380.67 199.208 Q3378.6 197.627 3376.49 197.627 Q3375.7 197.627 3374.85 197.861 Q3374.03 198.095 3372.83 198.769 Q3371.63 199.442 3370.69 201.111 Q3369.78 202.78 3369.34 205.298 Q3368.87 208.548 3368.87 216.336 Z" fill="#000000" fill-rule="evenodd" fill-opacity="1" /><path clip-path="url(#clip040)" d="M3393.83 217.068 Q3393.83 208.255 3396.06 203.453 Q3399.16 196.309 3406.48 196.309 Q3408.03 196.309 3409.64 196.749 Q3411.28 197.158 3413.33 198.769 Q3415.41 200.379 3416.67 203.014 Q3419.07 208.108 3419.07 217.068 Q3419.07 225.822 3416.85 230.594 Q3413.6 237.562 3406.42 237.562 Q3403.73 237.562 3400.98 236.186 Q3398.25 234.81 3396.53 231.502 Q3393.83 226.554 3393.83 217.068 M3398.81 216.336 Q3398.81 225.382 3399.45 228.984 Q3400.19 232.878 3402.18 234.576 Q3404.2 236.245 3406.42 236.245 Q3408.82 236.245 3410.81 234.459 Q3412.83 232.643 3413.45 228.749 Q3414.12 224.914 3414.09 216.336 Q3414.09 207.991 3413.51 204.654 Q3412.72 200.76 3410.61 199.208 Q3408.53 197.627 3406.42 197.627 Q3405.63 197.627 3404.78 197.861 Q3403.96 198.095 3402.76 198.769 Q3401.56 199.442 3400.63 201.111 Q3399.72 202.78 3399.28 205.298 Q3398.81 208.548 3398.81 216.336 Z" fill="#000000" fill-rule="evenodd" fill-opacity="1" /><polyline clip-path="url(#clip040)" style="stroke:#3da44d; stroke-linecap:butt; stroke-linejoin:round; stroke-width:5; stroke-opacity:1; fill:none" points="
  2823.28,277.862 3040.12,277.862 
  "/>
<circle clip-path="url(#clip040)" cx="2931.7" cy="277.862" r="28" fill="#3da44d" fill-rule="evenodd" fill-opacity="1" stroke="#000000" stroke-opacity="1" stroke-width="5.76"/>
<path clip-path="url(#clip040)" d="M3126.73 260.758 Q3126.73 261.958 3125.71 261.958 Q3122.4 262.076 3121.05 263.188 Q3119.73 264.271 3119.24 266.379 L3110.86 299.786 Q3110.57 300.84 3110.39 300.957 Q3110.22 301.045 3109.9 301.045 Q3109.49 301.045 3109.25 300.84 Q3109.05 300.635 3108.76 299.903 L3093.82 264.593 Q3093.71 264.359 3093.56 264.037 Q3093.41 263.715 3093.3 263.51 L3085.36 295.16 Q3085.13 296.067 3085.13 296.536 Q3085.13 297.678 3085.92 298.41 Q3086.74 299.112 3089.08 299.2 Q3090.28 299.2 3090.28 299.844 Q3090.28 301.045 3089.2 301.045 Q3088.2 301.045 3086.12 300.957 Q3084.04 300.869 3083.02 300.869 Q3082.02 300.869 3080 300.957 Q3077.98 301.045 3077.02 301.045 Q3076.26 301.045 3076.26 300.371 Q3076.26 299.844 3076.46 299.581 Q3076.67 299.288 3076.84 299.259 Q3077.02 299.2 3077.28 299.2 Q3079.04 299.142 3080.24 298.79 Q3081.44 298.439 3082.11 297.765 Q3082.81 297.092 3083.14 296.419 Q3083.49 295.716 3083.75 294.691 L3091.77 262.485 Q3091.77 261.958 3087.7 261.958 Q3087 261.958 3086.71 261.929 Q3086.45 261.9 3086.24 261.753 Q3086.04 261.607 3086.04 261.285 Q3086.04 260.465 3086.39 260.29 Q3086.74 260.085 3087.76 260.085 L3095.81 260.085 Q3096.84 260.085 3097.1 260.26 Q3097.37 260.407 3097.72 261.226 L3110.98 292.525 L3117.68 265.852 Q3117.86 265.325 3117.86 264.593 Q3117.86 263.422 3116.98 262.72 Q3116.13 261.988 3113.79 261.958 Q3112.71 261.958 3112.71 261.285 Q3112.71 260.729 3112.91 260.465 Q3113.15 260.172 3113.32 260.143 Q3113.53 260.085 3113.79 260.085 Q3114.79 260.085 3116.84 260.172 Q3118.89 260.26 3119.91 260.26 Q3120.91 260.26 3122.93 260.172 Q3124.98 260.085 3125.97 260.085 Q3126.32 260.085 3126.5 260.26 Q3126.7 260.407 3126.73 260.582 L3126.73 260.758 Z" fill="#000000" fill-rule="evenodd" fill-opacity="1" /><path clip-path="url(#clip040)" d="M3167.04 306.065 Q3167.04 306.229 3166.85 306.864 Q3166.67 307.499 3166.22 308.483 Q3165.79 309.467 3165.17 310.369 Q3164.58 311.25 3163.6 311.906 Q3162.63 312.541 3161.53 312.541 Q3160.05 312.541 3159.07 311.557 Q3158.08 310.574 3158.08 309.098 Q3158.08 308.299 3158.64 306.782 Q3161.24 299.855 3161.24 297.375 Q3161.24 294.444 3158.96 294.444 Q3157.67 294.444 3156.5 294.977 Q3155.34 295.51 3154.58 296.248 Q3153.82 296.986 3153.23 297.826 Q3152.63 298.666 3152.36 299.219 Q3152.12 299.773 3152.06 300.019 L3149.54 310.143 Q3149.33 311.004 3149.19 311.414 Q3149.04 311.824 3148.66 312.172 Q3148.27 312.541 3147.65 312.541 Q3147.14 312.541 3146.77 312.234 Q3146.42 311.926 3146.42 311.393 Q3146.42 311.311 3146.52 310.881 Q3146.63 310.451 3146.77 309.856 Q3146.91 309.262 3146.97 308.913 Q3147.71 306.126 3147.81 305.737 L3148.98 300.859 Q3149.62 298.441 3149.62 297.375 Q3149.62 294.444 3147.34 294.444 Q3146.22 294.444 3145.15 294.875 Q3144.11 295.285 3143.39 295.858 Q3142.67 296.432 3142.01 297.232 Q3141.38 298.01 3141.05 298.543 Q3140.74 299.056 3140.5 299.568 L3139.97 301.658 Q3139.84 302.232 3139.25 304.466 L3138.33 308.258 Q3137.67 311.086 3137.53 311.352 Q3137.32 311.926 3136.87 312.234 Q3136.42 312.541 3135.97 312.541 Q3135.46 312.541 3135.11 312.234 Q3134.76 311.926 3134.76 311.393 Q3134.76 311.311 3134.82 311.004 Q3134.88 310.696 3134.99 310.266 Q3135.09 309.836 3135.13 309.59 L3137.57 299.896 Q3138.02 298.133 3138.12 297.58 Q3138.24 297.006 3138.24 296.371 Q3138.24 294.444 3136.93 294.444 Q3135.87 294.444 3135.17 295.715 Q3134.47 296.986 3133.88 299.445 Q3133.69 300.121 3133.57 300.265 Q3133.47 300.408 3133.16 300.408 Q3132.65 300.388 3132.65 299.978 Q3132.65 299.875 3132.81 299.219 Q3132.98 298.564 3133.28 297.58 Q3133.61 296.576 3133.96 295.92 Q3134.17 295.489 3134.35 295.203 Q3134.53 294.916 3134.9 294.465 Q3135.27 294.014 3135.83 293.768 Q3136.38 293.522 3137.06 293.522 Q3138.55 293.522 3139.66 294.485 Q3140.79 295.448 3140.93 297.17 Q3143.65 293.522 3147.47 293.522 Q3149.62 293.522 3150.91 294.608 Q3152.12 295.653 3152.26 297.58 Q3155.09 293.522 3159.11 293.522 Q3161.42 293.522 3162.67 294.731 Q3163.92 295.92 3163.92 298.01 Q3163.92 299.097 3163.37 301.166 Q3162.82 303.216 3162.45 304.241 Q3162.08 305.265 3161.36 307.233 Q3160.6 309.118 3160.6 310.225 Q3160.6 310.942 3160.85 311.27 Q3161.1 311.598 3161.63 311.598 Q3162.45 311.598 3163.17 311.127 Q3163.88 310.635 3164.39 309.836 Q3164.93 309.016 3165.28 308.196 Q3165.62 307.356 3165.89 306.413 Q3166.05 305.901 3166.14 305.778 Q3166.24 305.655 3166.53 305.655 Q3167.04 305.655 3167.04 306.065 Z" fill="#000000" fill-rule="evenodd" fill-opacity="1" /><path clip-path="url(#clip040)" d="M3185.99 307.212 Q3186.15 307.397 3186.15 307.581 Q3186.15 307.766 3185.74 308.299 Q3185.35 308.831 3184.51 309.549 Q3183.67 310.266 3182.59 310.942 Q3181.5 311.619 3179.9 312.07 Q3178.3 312.541 3176.62 312.541 Q3173.49 312.541 3171.64 310.471 Q3169.82 308.401 3169.82 305.429 Q3169.82 302.54 3171.44 299.773 Q3173.06 296.986 3175.68 295.264 Q3178.3 293.522 3181.07 293.522 Q3183.26 293.522 3184.64 294.547 Q3186.01 295.571 3186.01 297.129 Q3186.01 298.338 3185.31 299.076 Q3184.62 299.814 3183.67 299.814 Q3183.02 299.814 3182.57 299.445 Q3182.12 299.056 3182.12 298.338 Q3182.12 297.416 3182.87 296.699 Q3183.16 296.412 3183.49 296.289 Q3183.84 296.145 3184.04 296.145 Q3184.25 296.125 3184.72 296.125 Q3184.29 295.326 3183.26 294.895 Q3182.26 294.444 3181.11 294.444 Q3179.41 294.444 3177.79 295.633 Q3176.17 296.801 3175.19 298.646 Q3174.21 300.449 3173.57 303.011 Q3172.93 305.552 3172.93 307.028 Q3172.93 309.057 3173.88 310.328 Q3174.82 311.598 3176.71 311.598 Q3177.07 311.598 3177.46 311.578 Q3177.87 311.557 3178.9 311.332 Q3179.94 311.106 3180.87 310.717 Q3181.79 310.328 3182.96 309.487 Q3184.14 308.627 3185.09 307.458 Q3185.42 307.028 3185.64 307.028 Q3185.83 307.028 3185.99 307.212 Z" fill="#000000" fill-rule="evenodd" fill-opacity="1" /><path clip-path="url(#clip040)" d="M3210.85 291.939 Q3210.9 291.207 3212.05 291.207 L3248.79 291.207 Q3250.52 291.207 3250.55 291.881 Q3250.55 292.613 3248.91 292.583 L3212.46 292.583 Q3210.85 292.613 3210.85 291.939 M3210.85 280.228 Q3210.85 279.496 3212.1 279.525 L3248.73 279.525 Q3250.52 279.525 3250.55 280.228 Q3250.55 280.901 3249.02 280.901 L3212.05 280.901 Q3210.85 280.901 3210.85 280.228 Z" fill="#000000" fill-rule="evenodd" fill-opacity="1" /><path clip-path="url(#clip040)" d="M3273.68 266.819 L3273.68 264.945 Q3280.88 264.945 3284.6 261.109 Q3285.63 261.109 3285.8 261.344 Q3285.98 261.578 3285.98 262.661 L3285.98 296.302 Q3285.98 298.088 3286.86 298.644 Q3287.74 299.2 3291.57 299.2 L3293.47 299.2 L3293.47 301.045 Q3291.37 300.869 3283.75 300.869 Q3276.14 300.869 3274.06 301.045 L3274.06 299.2 L3275.97 299.2 Q3279.74 299.2 3280.65 298.673 Q3281.56 298.117 3281.56 296.302 L3281.56 265.238 Q3278.43 266.819 3273.68 266.819 Z" fill="#000000" fill-rule="evenodd" fill-opacity="1" /><path clip-path="url(#clip040)" d="M3296.34 281.868 Q3296.34 273.055 3298.57 268.253 Q3301.67 261.109 3308.99 261.109 Q3310.54 261.109 3312.15 261.549 Q3313.79 261.958 3315.84 263.569 Q3317.92 265.179 3319.18 267.814 Q3321.58 272.908 3321.58 281.868 Q3321.58 290.622 3319.36 295.394 Q3316.11 302.362 3308.93 302.362 Q3306.24 302.362 3303.49 300.986 Q3300.76 299.61 3299.04 296.302 Q3296.34 291.354 3296.34 281.868 M3301.32 281.136 Q3301.32 290.182 3301.96 293.784 Q3302.7 297.678 3304.69 299.376 Q3306.71 301.045 3308.93 301.045 Q3311.33 301.045 3313.32 299.259 Q3315.34 297.443 3315.96 293.549 Q3316.63 289.714 3316.6 281.136 Q3316.6 272.791 3316.02 269.454 Q3315.23 265.56 3313.12 264.008 Q3311.04 262.427 3308.93 262.427 Q3308.14 262.427 3307.29 262.661 Q3306.47 262.895 3305.27 263.569 Q3304.07 264.242 3303.14 265.911 Q3302.23 267.58 3301.79 270.098 Q3301.32 273.348 3301.32 281.136 Z" fill="#000000" fill-rule="evenodd" fill-opacity="1" /><path clip-path="url(#clip040)" d="M3326.28 281.868 Q3326.28 273.055 3328.5 268.253 Q3331.61 261.109 3338.93 261.109 Q3340.48 261.109 3342.09 261.549 Q3343.73 261.958 3345.78 263.569 Q3347.86 265.179 3349.11 267.814 Q3351.52 272.908 3351.52 281.868 Q3351.52 290.622 3349.29 295.394 Q3346.04 302.362 3338.87 302.362 Q3336.17 302.362 3333.42 300.986 Q3330.7 299.61 3328.97 296.302 Q3326.28 291.354 3326.28 281.868 M3331.26 281.136 Q3331.26 290.182 3331.9 293.784 Q3332.63 297.678 3334.62 299.376 Q3336.64 301.045 3338.87 301.045 Q3341.27 301.045 3343.26 299.259 Q3345.28 297.443 3345.89 293.549 Q3346.57 289.714 3346.54 281.136 Q3346.54 272.791 3345.95 269.454 Q3345.16 265.56 3343.05 264.008 Q3340.98 262.427 3338.87 262.427 Q3338.08 262.427 3337.23 262.661 Q3336.41 262.895 3335.21 263.569 Q3334.01 264.242 3333.07 265.911 Q3332.16 267.58 3331.72 270.098 Q3331.26 273.348 3331.26 281.136 Z" fill="#000000" fill-rule="evenodd" fill-opacity="1" /><path clip-path="url(#clip040)" d="M3363.9 281.868 Q3363.9 273.055 3366.12 268.253 Q3369.23 261.109 3376.55 261.109 Q3378.1 261.109 3379.71 261.549 Q3381.35 261.958 3383.4 263.569 Q3385.48 265.179 3386.73 267.814 Q3389.14 272.908 3389.14 281.868 Q3389.14 290.622 3386.91 295.394 Q3383.66 302.362 3376.49 302.362 Q3373.79 302.362 3371.04 300.986 Q3368.32 299.61 3366.59 296.302 Q3363.9 291.354 3363.9 281.868 M3368.87 281.136 Q3368.87 290.182 3369.52 293.784 Q3370.25 297.678 3372.24 299.376 Q3374.26 301.045 3376.49 301.045 Q3378.89 301.045 3380.88 299.259 Q3382.9 297.443 3383.51 293.549 Q3384.19 289.714 3384.16 281.136 Q3384.16 272.791 3383.57 269.454 Q3382.78 265.56 3380.67 264.008 Q3378.6 262.427 3376.49 262.427 Q3375.7 262.427 3374.85 262.661 Q3374.03 262.895 3372.83 263.569 Q3371.63 264.242 3370.69 265.911 Q3369.78 267.58 3369.34 270.098 Q3368.87 273.348 3368.87 281.136 Z" fill="#000000" fill-rule="evenodd" fill-opacity="1" /><path clip-path="url(#clip040)" d="M3393.83 281.868 Q3393.83 273.055 3396.06 268.253 Q3399.16 261.109 3406.48 261.109 Q3408.03 261.109 3409.64 261.549 Q3411.28 261.958 3413.33 263.569 Q3415.41 265.179 3416.67 267.814 Q3419.07 272.908 3419.07 281.868 Q3419.07 290.622 3416.85 295.394 Q3413.6 302.362 3406.42 302.362 Q3403.73 302.362 3400.98 300.986 Q3398.25 299.61 3396.53 296.302 Q3393.83 291.354 3393.83 281.868 M3398.81 281.136 Q3398.81 290.182 3399.45 293.784 Q3400.19 297.678 3402.18 299.376 Q3404.2 301.045 3406.42 301.045 Q3408.82 301.045 3410.81 299.259 Q3412.83 297.443 3413.45 293.549 Q3414.12 289.714 3414.09 281.136 Q3414.09 272.791 3413.51 269.454 Q3412.72 265.56 3410.61 264.008 Q3408.53 262.427 3406.42 262.427 Q3405.63 262.427 3404.78 262.661 Q3403.96 262.895 3402.76 263.569 Q3401.56 264.242 3400.63 265.911 Q3399.72 267.58 3399.28 270.098 Q3398.81 273.348 3398.81 281.136 Z" fill="#000000" fill-rule="evenodd" fill-opacity="1" /><path clip-path="url(#clip040)" d="M3423.77 281.868 Q3423.77 273.055 3425.99 268.253 Q3429.1 261.109 3436.42 261.109 Q3437.97 261.109 3439.58 261.549 Q3441.22 261.958 3443.27 263.569 Q3445.35 265.179 3446.61 267.814 Q3449.01 272.908 3449.01 281.868 Q3449.01 290.622 3446.78 295.394 Q3443.53 302.362 3436.36 302.362 Q3433.66 302.362 3430.91 300.986 Q3428.19 299.61 3426.46 296.302 Q3423.77 291.354 3423.77 281.868 M3428.75 281.136 Q3428.75 290.182 3429.39 293.784 Q3430.12 297.678 3432.11 299.376 Q3434.13 301.045 3436.36 301.045 Q3438.76 301.045 3440.75 299.259 Q3442.77 297.443 3443.38 293.549 Q3444.06 289.714 3444.03 281.136 Q3444.03 272.791 3443.44 269.454 Q3442.65 265.56 3440.54 264.008 Q3438.47 262.427 3436.36 262.427 Q3435.57 262.427 3434.72 262.661 Q3433.9 262.895 3432.7 263.569 Q3431.5 264.242 3430.56 265.911 Q3429.65 267.58 3429.21 270.098 Q3428.75 273.348 3428.75 281.136 Z" fill="#000000" fill-rule="evenodd" fill-opacity="1" /></svg>
