<?xml version="1.0" encoding="utf-8"?>
<svg xmlns="http://www.w3.org/2000/svg" xmlns:xlink="http://www.w3.org/1999/xlink" width="900" height="300" viewBox="0 0 3600 1200">
<defs>
  <clipPath id="clip890">
    <rect x="0" y="0" width="3600" height="1200"/>
  </clipPath>
</defs>
<path clip-path="url(#clip890)" d="
M0 1200 L3600 1200 L3600 0 L0 0  Z
  " fill="#ffffff" fill-rule="evenodd" fill-opacity="1"/>
<defs>
  <clipPath id="clip891">
    <rect x="720" y="0" width="2521" height="1200"/>
  </clipPath>
</defs>
<defs>
  <clipPath id="clip892">
    <rect x="287" y="110" width="3203" height="885"/>
  </clipPath>
</defs>
<path clip-path="url(#clip890)" d="
M287.431 994.428 L3489.76 994.428 L3489.76 110.236 L287.431 110.236  Z
  " fill="#ffffff" fill-rule="evenodd" fill-opacity="1"/>
<polyline clip-path="url(#clip892)" style="stroke:#000000; stroke-linecap:round; stroke-linejoin:round; stroke-width:2; stroke-opacity:0.1; fill:none" points="
  537.067,994.428 537.067,110.236 
  "/>
<polyline clip-path="url(#clip892)" style="stroke:#000000; stroke-linecap:round; stroke-linejoin:round; stroke-width:2; stroke-opacity:0.1; fill:none" points="
  855.074,994.428 855.074,110.236 
  "/>
<polyline clip-path="url(#clip892)" style="stroke:#000000; stroke-linecap:round; stroke-linejoin:round; stroke-width:2; stroke-opacity:0.1; fill:none" points="
  1173.08,994.428 1173.08,110.236 
  "/>
<polyline clip-path="url(#clip892)" style="stroke:#000000; stroke-linecap:round; stroke-linejoin:round; stroke-width:2; stroke-opacity:0.1; fill:none" points="
  1491.09,994.428 1491.09,110.236 
  "/>
<polyline clip-path="url(#clip892)" style="stroke:#000000; stroke-linecap:round; stroke-linejoin:round; stroke-width:2; stroke-opacity:0.1; fill:none" points="
  1809.1,994.428 1809.1,110.236 
  "/>
<polyline clip-path="url(#clip892)" style="stroke:#000000; stroke-linecap:round; stroke-linejoin:round; stroke-width:2; stroke-opacity:0.1; fill:none" points="
  2127.1,994.428 2127.1,110.236 
  "/>
<polyline clip-path="url(#clip892)" style="stroke:#000000; stroke-linecap:round; stroke-linejoin:round; stroke-width:2; stroke-opacity:0.1; fill:none" points="
  2445.11,994.428 2445.11,110.236 
  "/>
<polyline clip-path="url(#clip892)" style="stroke:#000000; stroke-linecap:round; stroke-linejoin:round; stroke-width:2; stroke-opacity:0.1; fill:none" points="
  2763.12,994.428 2763.12,110.236 
  "/>
<polyline clip-path="url(#clip892)" style="stroke:#000000; stroke-linecap:round; stroke-linejoin:round; stroke-width:2; stroke-opacity:0.1; fill:none" points="
  3081.12,994.428 3081.12,110.236 
  "/>
<polyline clip-path="url(#clip892)" style="stroke:#000000; stroke-linecap:round; stroke-linejoin:round; stroke-width:2; stroke-opacity:0.1; fill:none" points="
  3399.13,994.428 3399.13,110.236 
  "/>
<polyline clip-path="url(#clip890)" style="stroke:#000000; stroke-linecap:round; stroke-linejoin:round; stroke-width:4; stroke-opacity:1; fill:none" points="
  287.431,994.428 3489.76,994.428 
  "/>
<polyline clip-path="url(#clip890)" style="stroke:#000000; stroke-linecap:round; stroke-linejoin:round; stroke-width:4; stroke-opacity:1; fill:none" points="
  287.431,110.236 3489.76,110.236 
  "/>
<polyline clip-path="url(#clip890)" style="stroke:#000000; stroke-linecap:round; stroke-linejoin:round; stroke-width:4; stroke-opacity:1; fill:none" points="
  537.067,994.428 537.067,975.53 
  "/>
<polyline clip-path="url(#clip890)" style="stroke:#000000; stroke-linecap:round; stroke-linejoin:round; stroke-width:4; stroke-opacity:1; fill:none" points="
  855.074,994.428 855.074,975.53 
  "/>
<polyline clip-path="url(#clip890)" style="stroke:#000000; stroke-linecap:round; stroke-linejoin:round; stroke-width:4; stroke-opacity:1; fill:none" points="
  1173.08,994.428 1173.08,975.53 
  "/>
<polyline clip-path="url(#clip890)" style="stroke:#000000; stroke-linecap:round; stroke-linejoin:round; stroke-width:4; stroke-opacity:1; fill:none" points="
  1491.09,994.428 1491.09,975.53 
  "/>
<polyline clip-path="url(#clip890)" style="stroke:#000000; stroke-linecap:round; stroke-linejoin:round; stroke-width:4; stroke-opacity:1; fill:none" points="
  1809.1,994.428 1809.1,975.53 
  "/>
<polyline clip-path="url(#clip890)" style="stroke:#000000; stroke-linecap:round; stroke-linejoin:round; stroke-width:4; stroke-opacity:1; fill:none" points="
  2127.1,994.428 2127.1,975.53 
  "/>
<polyline clip-path="url(#clip890)" style="stroke:#000000; stroke-linecap:round; stroke-linejoin:round; stroke-width:4; stroke-opacity:1; fill:none" points="
  2445.11,994.428 2445.11,975.53 
  "/>
<polyline clip-path="url(#clip890)" style="stroke:#000000; stroke-linecap:round; stroke-linejoin:round; stroke-width:4; stroke-opacity:1; fill:none" points="
  2763.12,994.428 2763.12,975.53 
  "/>
<polyline clip-path="url(#clip890)" style="stroke:#000000; stroke-linecap:round; stroke-linejoin:round; stroke-width:4; stroke-opacity:1; fill:none" points="
  3081.12,994.428 3081.12,975.53 
  "/>
<polyline clip-path="url(#clip890)" style="stroke:#000000; stroke-linecap:round; stroke-linejoin:round; stroke-width:4; stroke-opacity:1; fill:none" points="
  3399.13,994.428 3399.13,975.53 
  "/>
<path clip-path="url(#clip890)" d="M526.629 1041.13 L526.629 1039.15 Q534.226 1039.15 538.147 1035.11 Q539.228 1035.11 539.413 1035.36 Q539.599 1035.6 539.599 1036.75 L539.599 1072.23 Q539.599 1074.11 540.525 1074.7 Q541.451 1075.28 545.497 1075.28 L547.504 1075.28 L547.504 1077.23 Q545.28 1077.04 537.252 1077.04 Q529.223 1077.04 527.031 1077.23 L527.031 1075.28 L529.038 1075.28 Q533.021 1075.28 533.979 1074.73 Q534.936 1074.14 534.936 1072.23 L534.936 1039.46 Q531.632 1041.13 526.629 1041.13 Z" fill="#000000" fill-rule="evenodd" fill-opacity="1" /><path clip-path="url(#clip890)" d="M842.444 1077.23 Q842.444 1076.09 842.537 1075.75 Q842.66 1075.41 843.154 1074.88 L855.29 1061.36 Q861.929 1053.88 861.929 1047.37 Q861.929 1043.14 859.706 1040.11 Q857.513 1037.08 853.468 1037.08 Q850.689 1037.08 848.342 1038.78 Q845.995 1040.48 844.915 1043.51 Q845.1 1043.45 845.748 1043.45 Q847.323 1043.45 848.188 1044.43 Q849.083 1045.42 849.083 1046.75 Q849.083 1048.45 847.972 1049.28 Q846.891 1050.08 845.81 1050.08 Q845.378 1050.08 844.791 1049.99 Q844.235 1049.9 843.34 1049.04 Q842.444 1048.14 842.444 1046.56 Q842.444 1042.15 845.779 1038.63 Q849.145 1035.11 854.271 1035.11 Q860.076 1035.11 863.874 1038.57 Q867.703 1041.99 867.703 1047.37 Q867.703 1049.25 867.117 1050.98 Q866.561 1052.68 865.789 1054.01 Q865.048 1055.33 863.01 1057.47 Q860.972 1059.6 859.335 1061.11 Q857.699 1062.62 854.024 1065.83 L847.323 1072.35 L858.718 1072.35 Q864.276 1072.35 864.708 1071.85 Q865.326 1070.96 866.098 1066.23 L867.703 1066.23 L865.912 1077.23 L842.444 1077.23 Z" fill="#000000" fill-rule="evenodd" fill-opacity="1" /><path clip-path="url(#clip890)" d="M1159.96 1068.71 Q1159.96 1066.82 1161.04 1065.93 Q1162.12 1065.03 1163.51 1065.03 Q1164.96 1065.03 1165.98 1065.99 Q1167.03 1066.91 1167.03 1068.55 Q1167.03 1070.31 1165.79 1071.3 Q1164.59 1072.29 1162.86 1072.04 Q1164.37 1074.57 1167.15 1075.71 Q1169.96 1076.86 1172.56 1076.86 Q1175.27 1076.86 1177.47 1074.51 Q1179.69 1072.16 1179.69 1066.42 Q1179.69 1061.54 1177.77 1058.73 Q1175.89 1055.92 1172.15 1055.92 L1169.38 1055.92 Q1168.42 1055.92 1168.14 1055.83 Q1167.86 1055.74 1167.86 1055.21 Q1167.86 1054.59 1168.82 1054.47 Q1169.78 1054.47 1171.29 1054.28 Q1174.96 1054.16 1176.91 1050.98 Q1178.67 1048.02 1178.67 1043.79 Q1178.67 1039.93 1176.82 1038.32 Q1175 1036.68 1172.62 1036.68 Q1170.39 1036.68 1167.96 1037.61 Q1165.52 1038.54 1164.19 1040.6 Q1168.11 1040.6 1168.11 1043.79 Q1168.11 1045.18 1167.21 1046.1 Q1166.35 1047 1164.9 1047 Q1163.51 1047 1162.58 1046.13 Q1161.66 1045.24 1161.66 1043.72 Q1161.66 1040.11 1164.87 1037.61 Q1168.11 1035.11 1172.86 1035.11 Q1177.56 1035.11 1181.02 1037.58 Q1184.51 1040.05 1184.51 1043.85 Q1184.51 1047.58 1182.04 1050.64 Q1179.57 1053.7 1175.64 1054.96 Q1180.46 1055.92 1183.33 1059.19 Q1186.2 1062.44 1186.2 1066.42 Q1186.2 1071.36 1182.31 1075 Q1178.42 1078.62 1172.74 1078.62 Q1167.49 1078.62 1163.72 1075.78 Q1159.96 1072.94 1159.96 1068.71 Z" fill="#000000" fill-rule="evenodd" fill-opacity="1" /><path clip-path="url(#clip890)" d="M1477.07 1066.79 L1477.07 1064.85 L1496.49 1035.17 Q1496.99 1034.4 1497.76 1034.43 Q1498.47 1034.43 1498.62 1034.71 Q1498.78 1034.98 1498.78 1036.07 L1498.78 1064.85 L1505.11 1064.85 L1505.11 1066.79 L1498.78 1066.79 L1498.78 1072.29 Q1498.78 1074.11 1499.52 1074.7 Q1500.29 1075.28 1503.56 1075.28 L1504.89 1075.28 L1504.89 1077.23 Q1502.3 1077.04 1496.31 1077.04 Q1490.35 1077.04 1487.75 1077.23 L1487.75 1075.28 L1489.08 1075.28 Q1492.35 1075.28 1493.13 1074.73 Q1493.9 1074.14 1493.9 1072.29 L1493.9 1066.79 L1477.07 1066.79 M1478.86 1064.85 L1494.27 1064.85 L1494.27 1041.25 L1478.86 1064.85 Z" fill="#000000" fill-rule="evenodd" fill-opacity="1" /><path clip-path="url(#clip890)" d="M1796.47 1067.04 Q1796.47 1065.15 1797.48 1064.44 Q1798.5 1063.7 1799.58 1063.7 Q1801.04 1063.7 1801.87 1064.63 Q1802.73 1065.52 1802.73 1066.79 Q1802.73 1068.06 1801.87 1068.98 Q1801.04 1069.88 1799.58 1069.88 Q1798.87 1069.88 1798.5 1069.75 Q1799.34 1072.66 1801.87 1074.76 Q1804.43 1076.86 1807.8 1076.86 Q1812.03 1076.86 1814.56 1072.75 Q1816.07 1070.09 1816.07 1064.07 Q1816.07 1058.76 1814.93 1056.11 Q1813.17 1052.06 1809.56 1052.06 Q1804.43 1052.06 1801.41 1056.48 Q1801.04 1057.03 1800.6 1057.06 Q1799.99 1057.06 1799.83 1056.72 Q1799.71 1056.35 1799.71 1055.4 L1799.71 1036.68 Q1799.71 1035.17 1800.33 1035.17 Q1800.57 1035.17 1801.1 1035.36 Q1805.08 1037.12 1809.5 1037.15 Q1814.04 1037.15 1818.11 1035.29 Q1818.42 1035.11 1818.61 1035.11 Q1819.22 1035.11 1819.25 1035.82 Q1819.25 1036.07 1818.73 1036.81 Q1818.24 1037.52 1817.15 1038.47 Q1816.07 1039.4 1814.68 1040.3 Q1813.3 1041.19 1811.26 1041.81 Q1809.25 1042.4 1807.03 1042.4 Q1804.37 1042.4 1801.65 1041.56 L1801.65 1053.88 Q1804.93 1050.67 1809.68 1050.67 Q1814.75 1050.67 1818.24 1054.75 Q1821.73 1058.82 1821.73 1064.51 Q1821.73 1070.47 1817.59 1074.54 Q1813.48 1078.62 1807.92 1078.62 Q1802.86 1078.62 1799.65 1075 Q1796.47 1071.39 1796.47 1067.04 Z" fill="#000000" fill-rule="evenodd" fill-opacity="1" /><path clip-path="url(#clip890)" d="M2113.98 1057.25 Q2113.98 1047.31 2119.04 1041.22 Q2124.11 1035.11 2130.62 1035.11 Q2134.42 1035.11 2136.52 1037.05 Q2138.65 1038.97 2138.65 1041.93 Q2138.65 1043.57 2137.69 1044.28 Q2136.74 1044.99 2135.75 1044.99 Q2134.61 1044.99 2133.71 1044.22 Q2132.82 1043.45 2132.82 1042.06 Q2132.82 1039.22 2136.3 1039.22 Q2134.67 1036.68 2130.75 1036.68 Q2129.54 1036.68 2128.31 1037.05 Q2127.07 1037.39 2125.47 1038.57 Q2123.86 1039.74 2122.63 1041.59 Q2121.39 1043.45 2120.53 1046.94 Q2119.66 1050.42 2119.66 1054.96 L2119.66 1056.48 Q2122.25 1050.21 2127.57 1050.24 Q2132.88 1050.24 2136.55 1054.28 Q2140.23 1058.33 2140.23 1064.32 Q2140.23 1070.47 2136.4 1074.54 Q2132.57 1078.62 2127.2 1078.62 Q2124.79 1078.62 2122.59 1077.6 Q2120.43 1076.61 2118.39 1074.33 Q2116.39 1072.04 2115.18 1067.66 Q2113.98 1063.27 2113.98 1057.25 M2119.78 1062.93 Q2119.78 1069.14 2120.93 1072.1 Q2121.11 1072.6 2121.51 1073.28 Q2121.95 1073.95 2122.66 1074.85 Q2123.4 1075.71 2124.6 1076.3 Q2125.81 1076.86 2127.2 1076.86 Q2131.43 1076.86 2133.46 1072.75 Q2134.54 1070.47 2134.54 1064.26 Q2134.54 1057.93 2133.4 1055.61 Q2131.46 1051.69 2127.5 1051.69 Q2124.85 1051.69 2123 1053.51 Q2121.17 1055.33 2120.46 1057.77 Q2119.78 1060.21 2119.78 1062.93 Z" fill="#000000" fill-rule="evenodd" fill-opacity="1" /><path clip-path="url(#clip890)" d="M2431.55 1047.49 L2433.62 1034.49 L2435.2 1034.49 Q2435.38 1035.26 2435.69 1035.6 Q2436.03 1035.94 2437.82 1036.22 Q2439.64 1036.5 2443.32 1036.5 L2458.67 1036.5 Q2458.67 1037.95 2458.11 1038.72 L2449.56 1050.73 Q2446.84 1054.53 2445.63 1061.54 Q2444.92 1066.23 2444.96 1071.92 L2444.96 1075.13 Q2444.96 1078.62 2442.02 1078.62 Q2439.12 1078.62 2439.12 1075.13 Q2439.12 1063.05 2446.9 1051.35 Q2447.73 1050.15 2450.79 1045.85 Q2453.88 1041.56 2454 1041.38 L2440.91 1041.38 Q2435.17 1041.38 2434.7 1041.75 Q2434.09 1042.3 2433.13 1047.49 L2431.55 1047.49 Z" fill="#000000" fill-rule="evenodd" fill-opacity="1" /><path clip-path="url(#clip890)" d="M2749.99 1067.69 Q2749.99 1060.61 2759.1 1056.04 Q2755.18 1053.39 2754.47 1052.62 Q2751.69 1049.53 2751.69 1045.67 Q2751.69 1041.25 2755.03 1038.2 Q2758.39 1035.11 2763.15 1035.11 Q2767.69 1035.11 2771.11 1037.73 Q2774.54 1040.36 2774.54 1044.53 Q2774.54 1050.39 2766.88 1054.35 Q2771.95 1057.5 2773.15 1058.82 Q2776.24 1062.25 2776.24 1066.61 Q2776.24 1071.67 2772.35 1075.16 Q2768.46 1078.62 2763.09 1078.62 Q2757.84 1078.62 2753.92 1075.56 Q2749.99 1072.5 2749.99 1067.69 M2753.14 1067.69 Q2753.14 1071.61 2756.08 1074.23 Q2759.04 1076.86 2763.15 1076.86 Q2767.13 1076.86 2770.1 1074.57 Q2773.09 1072.29 2773.09 1068.89 Q2773.09 1067.56 2772.63 1066.42 Q2772.2 1065.28 2771.3 1064.38 Q2770.44 1063.46 2769.88 1063.05 Q2769.35 1062.62 2768.34 1061.91 L2760.55 1057 Q2753.14 1061.11 2753.14 1067.69 M2754.47 1043.2 Q2754.47 1046.23 2757.65 1048.32 L2765.49 1053.39 Q2771.76 1049.71 2771.76 1044.53 Q2771.76 1041.16 2769.2 1038.94 Q2766.64 1036.68 2763.09 1036.68 Q2759.6 1036.68 2757.03 1038.54 Q2754.47 1040.36 2754.47 1043.2 Z" fill="#000000" fill-rule="evenodd" fill-opacity="1" /><path clip-path="url(#clip890)" d="M3068 1049.34 Q3068 1045.98 3068.99 1043.69 Q3069.98 1041.38 3072.05 1039.09 Q3075.84 1035.11 3081.34 1035.11 Q3083.69 1035.11 3085.76 1036.1 Q3087.86 1037.08 3089.83 1039.34 Q3091.84 1041.56 3093.04 1045.98 Q3094.25 1050.36 3094.25 1056.42 Q3094.25 1066.2 3089.49 1072.41 Q3084.77 1078.62 3078.38 1078.62 Q3074.33 1078.62 3071.95 1076.8 Q3069.58 1074.94 3069.58 1071.79 Q3069.58 1070.16 3070.5 1069.48 Q3071.43 1068.77 3072.48 1068.77 Q3073.62 1068.77 3074.52 1069.54 Q3075.41 1070.28 3075.41 1071.67 Q3075.41 1072.81 3074.67 1073.71 Q3073.96 1074.57 3072.11 1074.57 Q3073.93 1076.86 3078.31 1076.86 Q3079.89 1076.86 3081.46 1076.15 Q3083.04 1075.41 3084.74 1073.65 Q3086.47 1071.85 3087.52 1068.12 Q3088.57 1064.38 3088.57 1059.13 L3088.57 1057.13 Q3086.03 1063.46 3080.66 1063.46 Q3075.35 1063.46 3071.68 1059.38 Q3068 1055.3 3068 1049.34 M3073.68 1049.41 Q3073.68 1055.67 3074.83 1057.99 Q3076.77 1061.97 3080.72 1061.97 Q3084.58 1061.97 3086.5 1058.55 Q3088.44 1055.09 3088.44 1050.61 Q3088.44 1044.4 3087.42 1041.69 Q3085.54 1036.68 3081.34 1036.68 Q3077.17 1036.68 3075.01 1040.67 Q3073.68 1043.01 3073.68 1049.41 Z" fill="#000000" fill-rule="evenodd" fill-opacity="1" /><path clip-path="url(#clip890)" d="M3371.59 1041.13 L3371.59 1039.15 Q3379.18 1039.15 3383.11 1035.11 Q3384.19 1035.11 3384.37 1035.36 Q3384.56 1035.6 3384.56 1036.75 L3384.56 1072.23 Q3384.56 1074.11 3385.48 1074.7 Q3386.41 1075.28 3390.45 1075.28 L3392.46 1075.28 L3392.46 1077.23 Q3390.24 1077.04 3382.21 1077.04 Q3374.18 1077.04 3371.99 1077.23 L3371.99 1075.28 L3374 1075.28 Q3377.98 1075.28 3378.94 1074.73 Q3379.89 1074.14 3379.89 1072.23 L3379.89 1039.46 Q3376.59 1041.13 3371.59 1041.13 Z" fill="#000000" fill-rule="evenodd" fill-opacity="1" /><path clip-path="url(#clip890)" d="M3400.06 1057 Q3400.06 1047.71 3402.4 1042.64 Q3405.68 1035.11 3413.4 1035.11 Q3415.03 1035.11 3416.73 1035.57 Q3418.46 1036 3420.62 1037.7 Q3422.82 1039.4 3424.14 1042.18 Q3426.68 1047.55 3426.68 1057 Q3426.68 1066.23 3424.33 1071.27 Q3420.9 1078.62 3413.34 1078.62 Q3410.5 1078.62 3407.59 1077.17 Q3404.72 1075.71 3402.9 1072.23 Q3400.06 1067.01 3400.06 1057 M3405.31 1056.23 Q3405.31 1065.77 3405.99 1069.57 Q3406.76 1073.68 3408.86 1075.47 Q3410.99 1077.23 3413.34 1077.23 Q3415.87 1077.23 3417.97 1075.34 Q3420.1 1073.43 3420.75 1069.32 Q3421.46 1065.28 3421.43 1056.23 Q3421.43 1047.43 3420.81 1043.91 Q3419.98 1039.8 3417.75 1038.17 Q3415.56 1036.5 3413.34 1036.5 Q3412.5 1036.5 3411.61 1036.75 Q3410.74 1036.99 3409.48 1037.7 Q3408.21 1038.41 3407.22 1040.17 Q3406.26 1041.93 3405.8 1044.59 Q3405.31 1048.02 3405.31 1056.23 Z" fill="#000000" fill-rule="evenodd" fill-opacity="1" /><path clip-path="url(#clip890)" d="M1924.77 1121.51 Q1924.77 1122.04 1924.64 1122.41 Q1924.52 1122.74 1924.23 1122.9 Q1923.95 1123.07 1923.78 1123.11 Q1923.62 1123.15 1923.25 1123.19 Q1921.49 1123.35 1920.26 1123.64 Q1919.07 1123.93 1916.12 1125.4 Q1913.21 1126.88 1909.56 1129.54 L1894.89 1140.9 L1892.43 1142.82 Q1892.43 1142.95 1892.51 1143.19 Q1892.59 1143.4 1892.67 1143.68 Q1892.8 1143.93 1892.84 1144.01 L1904.76 1171.52 Q1905.71 1173.73 1906.85 1174.51 Q1908 1175.29 1910.58 1175.33 Q1910.99 1175.33 1911.16 1175.37 Q1911.36 1175.37 1911.65 1175.45 Q1911.98 1175.49 1912.1 1175.7 Q1912.27 1175.9 1912.27 1176.23 Q1912.27 1177.91 1910.75 1177.91 Q1909.81 1177.91 1906.61 1177.79 Q1903.41 1177.66 1902.51 1177.66 Q1900.83 1177.66 1897.39 1177.79 Q1893.94 1177.91 1892.26 1177.91 Q1891.07 1177.91 1891.07 1176.97 Q1891.07 1176.19 1891.36 1175.82 Q1891.69 1175.41 1891.98 1175.37 Q1892.26 1175.33 1892.92 1175.33 Q1893.41 1175.33 1893.94 1175.29 Q1894.52 1175.2 1895.34 1175 Q1896.2 1174.75 1896.73 1174.18 Q1897.3 1173.57 1897.3 1172.7 Q1897.3 1172.01 1896.28 1169.75 L1886.56 1147.17 L1874.06 1156.92 L1870.7 1170.12 Q1870.62 1170.61 1870.42 1171.47 Q1870.21 1172.34 1870.05 1172.95 Q1869.92 1173.57 1869.92 1173.81 Q1869.92 1174.34 1870.25 1174.67 Q1870.62 1175 1871.52 1175.16 Q1872.42 1175.29 1873.12 1175.33 Q1873.86 1175.33 1875.37 1175.33 Q1877.26 1175.33 1877.59 1175.66 Q1877.75 1175.86 1877.75 1176.23 Q1877.75 1176.8 1877.59 1177.21 Q1877.42 1177.58 1877.1 1177.71 Q1876.81 1177.83 1876.6 1177.87 Q1876.4 1177.91 1876.07 1177.91 Q1875.21 1177.91 1873.37 1177.83 Q1871.56 1177.75 1870.62 1177.75 L1865.25 1177.66 L1854.59 1177.91 Q1853.32 1177.91 1853.32 1176.89 Q1853.32 1176.11 1853.65 1175.78 Q1853.98 1175.41 1854.35 1175.37 Q1854.72 1175.33 1855.66 1175.33 Q1857.71 1175.33 1858.94 1175.2 Q1860.17 1175.08 1860.95 1174.92 Q1861.77 1174.71 1862.18 1174.14 Q1862.63 1173.57 1862.83 1173.07 Q1863.04 1172.54 1863.32 1171.35 L1874.56 1126.26 Q1874.88 1124.91 1874.88 1124.71 Q1874.88 1124.01 1874.47 1123.76 Q1874.1 1123.48 1873.04 1123.35 Q1870.99 1123.19 1869.43 1123.19 Q1868.41 1123.19 1868 1123.15 Q1867.63 1123.11 1867.3 1122.9 Q1867.01 1122.66 1867.01 1122.16 Q1867.01 1120.57 1868.69 1120.57 L1879.51 1120.81 L1890.25 1120.57 Q1891.44 1120.57 1891.44 1121.51 Q1891.44 1122.7 1890.87 1122.94 Q1890.34 1123.19 1888.57 1123.19 Q1885.5 1123.19 1884.11 1123.6 Q1882.75 1123.97 1882.34 1124.62 Q1881.97 1125.24 1881.52 1127.04 L1874.8 1153.97 L1907.55 1128.81 Q1910.58 1126.26 1910.58 1124.95 Q1910.58 1124.09 1909.97 1123.72 Q1909.4 1123.31 1907.96 1123.19 Q1906.94 1123.03 1906.94 1122.25 Q1906.94 1121.47 1907.22 1121.1 Q1907.55 1120.69 1907.8 1120.65 Q1908.08 1120.57 1908.54 1120.57 Q1910.05 1120.57 1913.21 1120.69 Q1916.36 1120.81 1917.88 1120.81 Q1918.91 1120.81 1920.91 1120.69 Q1922.92 1120.57 1923.82 1120.57 Q1924.28 1120.57 1924.52 1120.89 Q1924.77 1121.18 1924.77 1121.51 Z" fill="#000000" fill-rule="evenodd" fill-opacity="1" /><polyline clip-path="url(#clip892)" style="stroke:#000000; stroke-linecap:round; stroke-linejoin:round; stroke-width:2; stroke-opacity:0.1; fill:none" points="
  287.431,710.422 3489.76,710.422 
  "/>
<polyline clip-path="url(#clip892)" style="stroke:#000000; stroke-linecap:round; stroke-linejoin:round; stroke-width:2; stroke-opacity:0.1; fill:none" points="
  287.431,304.101 3489.76,304.101 
  "/>
<polyline clip-path="url(#clip890)" style="stroke:#000000; stroke-linecap:round; stroke-linejoin:round; stroke-width:4; stroke-opacity:1; fill:none" points="
  287.431,994.428 287.431,110.236 
  "/>
<polyline clip-path="url(#clip890)" style="stroke:#000000; stroke-linecap:round; stroke-linejoin:round; stroke-width:4; stroke-opacity:1; fill:none" points="
  3489.76,994.428 3489.76,110.236 
  "/>
<polyline clip-path="url(#clip890)" style="stroke:#000000; stroke-linecap:round; stroke-linejoin:round; stroke-width:4; stroke-opacity:1; fill:none" points="
  287.431,710.422 306.328,710.422 
  "/>
<polyline clip-path="url(#clip890)" style="stroke:#000000; stroke-linecap:round; stroke-linejoin:round; stroke-width:4; stroke-opacity:1; fill:none" points="
  287.431,304.101 306.328,304.101 
  "/>
<path clip-path="url(#clip890)" d="M156.715 703.983 L156.715 702.007 Q164.312 702.007 168.233 697.962 Q169.314 697.962 169.499 698.209 Q169.685 698.456 169.685 699.598 L169.685 735.079 Q169.685 736.962 170.611 737.549 Q171.537 738.136 175.583 738.136 L177.59 738.136 L177.59 740.081 Q175.366 739.896 167.338 739.896 Q159.309 739.896 157.117 740.081 L157.117 738.136 L159.124 738.136 Q163.107 738.136 164.065 737.58 Q165.022 736.993 165.022 735.079 L165.022 702.316 Q161.718 703.983 156.715 703.983 Z" fill="#000000" fill-rule="evenodd" fill-opacity="1" /><path clip-path="url(#clip890)" d="M185.186 719.855 Q185.186 710.561 187.533 705.496 Q190.806 697.962 198.526 697.962 Q200.162 697.962 201.861 698.425 Q203.59 698.857 205.751 700.556 Q207.944 702.254 209.272 705.033 Q211.804 710.406 211.804 719.855 Q211.804 729.088 209.457 734.121 Q206.029 741.471 198.464 741.471 Q195.623 741.471 192.72 740.019 Q189.849 738.568 188.027 735.079 Q185.186 729.86 185.186 719.855 M190.435 719.083 Q190.435 728.625 191.115 732.423 Q191.887 736.53 193.987 738.321 Q196.117 740.081 198.464 740.081 Q200.996 740.081 203.096 738.197 Q205.227 736.283 205.875 732.176 Q206.585 728.131 206.554 719.083 Q206.554 710.283 205.937 706.762 Q205.103 702.655 202.88 701.019 Q200.687 699.351 198.464 699.351 Q197.63 699.351 196.735 699.598 Q195.87 699.845 194.604 700.556 Q193.338 701.266 192.35 703.026 Q191.393 704.786 190.929 707.442 Q190.435 710.869 190.435 719.083 Z" fill="#000000" fill-rule="evenodd" fill-opacity="1" /><path clip-path="url(#clip890)" d="M211.804 689.385 Q211.804 681.833 213.711 677.718 Q216.37 671.596 222.642 671.596 Q223.972 671.596 225.352 671.973 Q226.757 672.324 228.513 673.704 Q230.295 675.084 231.374 677.342 Q233.431 681.707 233.431 689.385 Q233.431 696.886 231.524 700.976 Q228.739 706.947 222.592 706.947 Q220.284 706.947 217.926 705.768 Q215.592 704.589 214.112 701.754 Q211.804 697.513 211.804 689.385 M216.069 688.757 Q216.069 696.51 216.621 699.596 Q217.248 702.933 218.954 704.388 Q220.685 705.818 222.592 705.818 Q224.65 705.818 226.356 704.288 Q228.087 702.732 228.614 699.395 Q229.191 696.108 229.166 688.757 Q229.166 681.607 228.664 678.747 Q227.986 675.41 226.18 674.08 Q224.399 672.725 222.592 672.725 Q221.915 672.725 221.187 672.926 Q220.485 673.127 219.456 673.704 Q218.427 674.281 217.625 675.711 Q216.847 677.141 216.47 679.299 Q216.069 682.084 216.069 688.757 Z" fill="#000000" fill-rule="evenodd" fill-opacity="1" /><path clip-path="url(#clip890)" d="M161.382 297.662 L161.382 295.686 Q168.978 295.686 172.9 291.641 Q173.981 291.641 174.166 291.888 Q174.351 292.135 174.351 293.277 L174.351 328.758 Q174.351 330.641 175.278 331.228 Q176.204 331.815 180.249 331.815 L182.256 331.815 L182.256 333.76 Q180.033 333.575 172.004 333.575 Q163.976 333.575 161.783 333.76 L161.783 331.815 L163.791 331.815 Q167.774 331.815 168.731 331.259 Q169.688 330.672 169.688 328.758 L169.688 295.995 Q166.384 297.662 161.382 297.662 Z" fill="#000000" fill-rule="evenodd" fill-opacity="1" /><path clip-path="url(#clip890)" d="M189.853 313.534 Q189.853 304.24 192.199 299.175 Q195.473 291.641 203.192 291.641 Q204.829 291.641 206.527 292.104 Q208.257 292.536 210.418 294.235 Q212.611 295.933 213.938 298.712 Q216.47 304.085 216.47 313.534 Q216.47 322.767 214.124 327.8 Q210.696 335.15 203.131 335.15 Q200.29 335.15 197.387 333.698 Q194.515 332.247 192.693 328.758 Q189.853 323.539 189.853 313.534 M195.102 312.762 Q195.102 322.304 195.781 326.102 Q196.553 330.209 198.653 332 Q200.784 333.76 203.131 333.76 Q205.663 333.76 207.763 331.876 Q209.893 329.962 210.542 325.855 Q211.252 321.81 211.221 312.762 Q211.221 303.962 210.603 300.441 Q209.77 296.334 207.546 294.698 Q205.354 293.03 203.131 293.03 Q202.297 293.03 201.401 293.277 Q200.537 293.524 199.271 294.235 Q198.005 294.945 197.017 296.705 Q196.059 298.465 195.596 301.121 Q195.102 304.548 195.102 312.762 Z" fill="#000000" fill-rule="evenodd" fill-opacity="1" /><path clip-path="url(#clip890)" d="M216.47 270.168 L216.47 268.562 Q222.642 268.562 225.829 265.275 Q226.707 265.275 226.857 265.476 Q227.008 265.677 227.008 266.605 L227.008 295.433 Q227.008 296.963 227.761 297.44 Q228.513 297.916 231.8 297.916 L233.431 297.916 L233.431 299.497 Q231.624 299.347 225.101 299.347 Q218.578 299.347 216.797 299.497 L216.797 297.916 L218.427 297.916 Q221.664 297.916 222.442 297.465 Q223.219 296.988 223.219 295.433 L223.219 268.813 Q220.535 270.168 216.47 270.168 Z" fill="#000000" fill-rule="evenodd" fill-opacity="1" /><path clip-path="url(#clip890)" d="M91.0014 826.076 Q90.6735 826.076 88.542 824.969 Q86.3696 823.862 78.6226 819.968 Q70.8347 816.074 62.6778 812.058 L33.5754 797.588 Q31.7309 796.564 31.7309 795.252 Q31.7309 794.063 32.4687 793.53 Q33.2065 792.997 38.1662 790.538 Q40.5846 789.267 42.1422 788.53 L89.6488 764.797 Q90.6735 764.387 91.0014 764.346 Q91.8212 764.346 91.8212 765.781 L91.8212 823.862 Q91.8212 826.076 91.0014 826.076 M85.4269 820.542 L85.4269 775.372 L40.0927 797.957 L85.4269 820.542 Z" fill="#000000" fill-rule="evenodd" fill-opacity="1" /><path clip-path="url(#clip890)" d="M90.1406 699.276 Q90.9194 699.276 91.3293 699.604 Q91.6982 699.891 91.7802 700.178 Q91.8212 700.424 91.8212 700.793 Q91.8212 701.859 91.6982 705.548 Q91.5752 709.237 91.5752 710.302 Q91.5752 712.024 91.6982 715.549 Q91.8212 719.074 91.8212 720.796 Q91.8212 721.943 90.8784 721.943 Q90.2636 721.943 89.9357 721.82 Q89.5668 721.697 89.4438 721.369 Q89.2798 721.001 89.2798 720.796 Q89.2389 720.55 89.2389 719.935 Q89.2389 719.115 89.1569 718.254 Q89.0339 717.393 88.788 716.328 Q88.542 715.262 87.9272 714.606 Q87.3124 713.909 86.4516 713.909 Q86.0827 713.909 83.0495 714.196 Q80.0163 714.483 76.4912 714.852 Q72.9251 715.221 72.4333 715.262 L72.4333 736.331 Q75.7534 738.257 78.0488 739.61 Q80.3442 740.962 81.123 741.454 Q81.9018 741.946 82.3936 742.233 Q82.8855 742.52 83.1724 742.684 Q85.3449 743.873 86.2876 743.873 Q88.9109 743.873 89.2389 739.938 Q89.2389 738.585 90.2226 738.585 Q90.9604 738.585 91.3703 738.913 Q91.7392 739.241 91.7802 739.528 Q91.8212 739.774 91.8212 740.184 Q91.8212 741.536 91.6982 744.364 Q91.5752 747.193 91.5752 748.586 Q91.5752 749.775 91.6982 752.234 Q91.8212 754.694 91.8212 755.8 Q91.8212 756.292 91.5343 756.579 Q91.2473 756.866 90.8784 756.866 Q90.3046 756.866 89.9767 756.784 Q89.6488 756.661 89.4848 756.333 Q89.3208 756.005 89.3208 755.841 Q89.2798 755.677 89.2389 755.104 Q89.0339 751.988 87.5583 749.57 Q86.0417 747.111 82.1477 744.774 L33.1245 715.59 Q32.6327 715.303 32.3867 715.098 Q32.1408 714.893 31.9358 714.483 Q31.7309 714.032 31.7309 713.377 Q31.7309 712.352 32.0588 712.147 Q32.3457 711.942 33.7394 711.819 L86.2057 706.695 Q87.3124 706.572 87.7632 706.49 Q88.1731 706.367 88.624 705.835 Q89.0339 705.261 89.1569 704.236 Q89.2389 703.17 89.2389 701.203 Q89.2389 700.465 89.2798 700.178 Q89.2798 699.891 89.4848 699.604 Q89.6897 699.276 90.1406 699.276 M69.8099 715.508 L42.1422 718.172 L69.8099 734.732 L69.8099 715.508 Z" fill="#000000" fill-rule="evenodd" fill-opacity="1" /><path clip-path="url(#clip890)" d="M85.3827 665.088 Q86.1287 665.088 87.592 665.289 Q89.0553 665.49 91.1785 665.978 Q93.3018 666.465 95.5398 667.183 Q97.7778 667.871 100.016 668.962 Q102.225 670.052 103.975 671.343 Q105.726 672.634 106.816 674.442 Q107.906 676.25 107.906 678.287 Q107.906 679.234 107.763 680.152 Q107.619 681.07 107.16 682.218 Q106.701 683.365 105.955 684.197 Q105.18 685.029 103.803 685.603 Q102.426 686.177 100.618 686.177 Q98.7534 686.177 96.2571 685.489 Q93.7322 684.771 88.5675 682.82 Q85.8991 681.816 84.4358 681.816 Q83.7759 681.816 83.3742 681.959 Q82.9438 682.103 82.8003 682.39 Q82.6282 682.677 82.5995 682.849 Q82.5708 682.992 82.5708 683.279 Q82.5708 684.857 84.2063 686.464 Q85.8417 688.071 89.8587 689.219 Q90.576 689.448 90.7482 689.592 Q90.9203 689.735 90.9203 690.165 Q90.8916 690.883 90.3178 690.883 Q90.1456 690.883 89.4857 690.682 Q88.7971 690.481 87.7641 690.108 Q86.7025 689.735 85.6122 689.075 Q84.4932 688.415 83.5176 687.612 Q82.5421 686.78 81.9109 685.603 Q81.2796 684.427 81.2796 683.107 Q81.2796 680.955 82.6856 679.635 Q84.0628 678.287 86.1 678.287 Q87.219 678.287 89.0266 679.004 Q92.2975 680.209 93.8756 680.754 Q95.4537 681.299 97.6917 681.873 Q99.9298 682.418 101.479 682.418 Q103.832 682.418 105.209 681.328 Q106.586 680.238 106.586 678.057 Q106.586 676.106 105.18 674.356 Q103.746 672.577 101.709 671.401 Q99.6428 670.224 97.3474 669.335 Q95.0233 668.445 93.2731 668.043 Q91.4942 667.613 90.6621 667.613 Q87.7641 667.613 85.8704 669.593 Q85.3253 670.138 84.981 670.339 Q84.6367 670.54 84.0915 670.54 Q83.0873 670.54 82.1978 669.65 Q81.2796 668.732 81.2796 667.67 Q81.2796 666.695 82.2552 665.892 Q83.2307 665.088 85.3827 665.088 Z" fill="#000000" fill-rule="evenodd" fill-opacity="1" /><path clip-path="url(#clip890)" d="M85.0957 636.386 Q86.6164 636.386 87.592 637.39 Q88.5675 638.365 88.5675 639.628 Q88.5675 640.718 87.9363 641.292 Q87.3051 641.866 86.5017 641.866 Q85.354 641.866 84.4071 640.976 Q83.4603 640.087 83.2594 638.796 Q82.5708 639.743 82.5708 641.263 Q82.5708 643.76 84.4932 645.969 Q85.3827 646.944 87.0181 648.006 Q88.6249 649.068 89.3135 649.268 L96.9744 651.133 Q97.8352 651.306 101.967 652.367 Q106.07 653.4 106.242 653.486 Q107.045 653.773 107.476 654.404 Q107.906 655.036 107.906 655.667 Q107.906 656.384 107.476 656.872 Q107.045 657.36 106.299 657.36 Q106.185 657.36 105.754 657.274 Q105.324 657.188 104.721 657.044 Q104.119 656.901 103.775 656.843 L90.203 653.429 Q87.7354 652.798 86.9607 652.654 Q86.1574 652.482 85.2679 652.482 Q83.7185 652.482 83.1446 652.97 Q82.5708 653.458 82.5708 654.318 Q82.5708 655.81 84.3497 656.786 Q86.1287 657.761 89.5718 658.594 Q90.5186 658.852 90.7195 659.024 Q90.9203 659.167 90.9203 659.598 Q90.8916 660.315 90.3178 660.315 Q90.1743 660.315 89.2561 660.086 Q88.3093 659.856 86.9321 659.426 Q85.5261 658.967 84.6367 658.479 Q84.0341 658.192 83.6324 657.934 Q83.2307 657.675 82.5995 657.159 Q81.9683 656.642 81.6239 655.868 Q81.2796 655.093 81.2796 654.146 Q81.2796 652.08 82.5421 650.617 Q83.8046 649.125 85.7844 648.781 Q84.7514 648.063 83.862 647.174 Q82.9438 646.284 82.1117 644.649 Q81.2796 643.014 81.2796 641.263 Q81.2796 639.083 82.3986 637.734 Q83.489 636.386 85.0957 636.386 Z" fill="#000000" fill-rule="evenodd" fill-opacity="1" /><path clip-path="url(#clip890)" d="M30.9628 642.737 Q31.1923 642.737 32.0818 642.995 Q32.9713 643.253 34.3485 643.884 Q35.7258 644.487 36.9882 645.348 Q38.222 646.18 39.1402 647.557 Q40.0296 648.906 40.0296 650.455 Q40.0296 652.521 38.6524 653.898 Q37.2751 655.275 35.2093 655.275 Q34.0903 655.275 31.967 654.501 Q22.269 650.857 18.7972 650.857 Q14.6942 650.857 14.6942 654.042 Q14.6942 655.849 15.4402 657.485 Q16.1862 659.12 17.2191 660.182 Q18.252 661.243 19.4284 662.075 Q20.6048 662.908 21.3795 663.281 Q22.1542 663.625 22.4985 663.711 L36.6726 667.24 Q37.8777 667.527 38.4515 667.728 Q39.0254 667.929 39.5132 668.474 Q40.0296 669.019 40.0296 669.88 Q40.0296 670.597 39.5992 671.114 Q39.1689 671.601 38.4228 671.601 Q38.3081 671.601 37.7055 671.458 Q37.103 671.314 36.2709 671.114 Q35.4388 670.913 34.9511 670.827 Q31.0489 669.794 30.5037 669.65 L23.6749 668.015 Q20.2892 667.125 18.7972 667.125 Q14.6942 667.125 14.6942 670.31 Q14.6942 671.888 15.2967 673.38 Q15.8705 674.844 16.6739 675.848 Q17.4773 676.852 18.5963 677.77 Q19.6866 678.66 20.4327 679.119 Q21.15 679.549 21.8673 679.893 L24.7939 680.639 Q25.5973 680.812 28.7248 681.644 L34.0329 682.935 Q37.9925 683.853 38.3655 684.054 Q39.1689 684.341 39.5992 684.972 Q40.0296 685.603 40.0296 686.235 Q40.0296 686.952 39.5992 687.44 Q39.1689 687.927 38.4228 687.927 Q38.3081 687.927 37.8777 687.841 Q37.4473 687.755 36.8448 687.612 Q36.2422 687.468 35.8979 687.411 L22.3264 683.997 Q19.8588 683.365 19.0841 683.222 Q18.2807 683.05 17.3912 683.05 Q14.6942 683.05 14.6942 684.886 Q14.6942 686.378 16.4731 687.354 Q18.252 688.329 21.6951 689.161 Q22.642 689.419 22.8428 689.592 Q23.0437 689.735 23.0437 690.165 Q23.015 690.883 22.4411 690.883 Q22.2977 690.883 21.3795 690.653 Q20.4613 690.424 19.0841 689.993 Q17.6782 689.534 16.76 689.046 Q16.1575 688.759 15.7558 688.501 Q15.3541 688.243 14.7228 687.727 Q14.0916 687.21 13.7473 686.435 Q13.403 685.661 13.403 684.714 Q13.403 682.619 14.7515 681.07 Q16.1001 679.492 18.5103 679.291 Q13.403 675.475 13.403 670.138 Q13.403 667.125 14.9237 665.318 Q16.387 663.625 19.0841 663.424 Q13.403 659.464 13.403 653.841 Q13.403 650.598 15.0958 648.848 Q16.76 647.098 19.6866 647.098 Q21.2073 647.098 24.1053 647.873 Q26.9745 648.647 28.4092 649.164 Q29.8438 649.68 32.5983 650.685 Q35.238 651.746 36.7874 651.746 Q37.7916 651.746 38.2507 651.402 Q38.7098 651.058 38.7098 650.312 Q38.7098 649.164 38.0498 648.16 Q37.3612 647.155 36.2422 646.438 Q35.0945 645.692 33.9468 645.204 Q32.7704 644.716 31.4506 644.343 Q30.7333 644.114 30.5611 643.999 Q30.3889 643.856 30.3889 643.454 Q30.3889 642.737 30.9628 642.737 Z" fill="#000000" fill-rule="evenodd" fill-opacity="1" /><path clip-path="url(#clip890)" d="M32.5696 616.214 Q32.8278 615.985 33.086 615.985 Q33.3443 615.985 34.0903 616.559 Q34.8363 617.104 35.8405 618.28 Q36.8448 619.456 37.7916 620.977 Q38.7385 622.498 39.3697 624.736 Q40.0296 626.974 40.0296 629.327 Q40.0296 633.717 37.1317 636.299 Q34.2337 638.853 30.0733 638.853 Q26.0277 638.853 22.1542 636.586 Q18.252 634.319 15.8419 630.647 Q13.403 626.974 13.403 623.1 Q13.403 620.03 14.8376 618.108 Q16.2722 616.186 18.4529 616.186 Q20.1457 616.186 21.1787 617.161 Q22.2116 618.137 22.2116 619.456 Q22.2116 620.375 21.6951 621.006 Q21.15 621.637 20.1457 621.637 Q18.8546 621.637 17.8503 620.575 Q17.4486 620.174 17.2765 619.715 Q17.0756 619.227 17.0756 618.94 Q17.0469 618.653 17.0469 617.993 Q15.9279 618.596 15.3254 620.03 Q14.6942 621.436 14.6942 623.043 Q14.6942 625.424 16.3583 627.691 Q17.9938 629.958 20.5761 631.335 Q23.1011 632.712 26.6876 633.602 Q30.2455 634.491 32.3113 634.491 Q35.1519 634.491 36.9308 633.171 Q38.7098 631.852 38.7098 629.212 Q38.7098 628.695 38.6811 628.15 Q38.6524 627.576 38.3368 626.142 Q38.0212 624.678 37.476 623.387 Q36.9308 622.096 35.7544 620.461 Q34.5494 618.797 32.9139 617.477 Q32.3113 617.018 32.3113 616.702 Q32.3113 616.444 32.5696 616.214 Z" fill="#000000" fill-rule="evenodd" fill-opacity="1" /><path clip-path="url(#clip890)" d="M111.619 604.717 Q111.209 604.717 110.307 604.389 L31.1161 574.754 Q31.0341 574.754 30.5832 574.549 Q30.1323 574.344 29.8454 574.221 Q29.5175 574.098 29.2715 573.852 Q29.0256 573.565 29.0256 573.238 Q29.0256 572.418 30.0503 572.418 Q30.1323 572.418 31.1161 572.664 L110.389 602.381 Q111.824 602.873 112.234 603.201 Q112.644 603.488 112.644 603.979 Q112.644 604.717 111.619 604.717 Z" fill="#000000" fill-rule="evenodd" fill-opacity="1" /><path clip-path="url(#clip890)" d="M90.1406 505.561 Q90.9194 505.561 91.3293 505.889 Q91.6982 506.176 91.7802 506.463 Q91.8212 506.709 91.8212 507.078 Q91.8212 508.143 91.6982 511.832 Q91.5752 515.521 91.5752 516.587 Q91.5752 518.309 91.6982 521.834 Q91.8212 525.359 91.8212 527.08 Q91.8212 528.228 90.8784 528.228 Q90.2636 528.228 89.9357 528.105 Q89.5668 527.982 89.4438 527.654 Q89.2798 527.285 89.2798 527.08 Q89.2389 526.834 89.2389 526.22 Q89.2389 525.4 89.1569 524.539 Q89.0339 523.678 88.788 522.613 Q88.542 521.547 87.9272 520.891 Q87.3124 520.194 86.4516 520.194 Q86.0827 520.194 83.0495 520.481 Q80.0163 520.768 76.4912 521.137 Q72.9251 521.506 72.4333 521.547 L72.4333 542.615 Q75.7534 544.542 78.0488 545.894 Q80.3442 547.247 81.123 547.739 Q81.9018 548.231 82.3936 548.518 Q82.8855 548.805 83.1724 548.969 Q85.3449 550.157 86.2876 550.157 Q88.9109 550.157 89.2389 546.222 Q89.2389 544.87 90.2226 544.87 Q90.9604 544.87 91.3703 545.198 Q91.7392 545.526 91.7802 545.812 Q91.8212 546.058 91.8212 546.468 Q91.8212 547.821 91.6982 550.649 Q91.5752 553.477 91.5752 554.871 Q91.5752 556.06 91.6982 558.519 Q91.8212 560.978 91.8212 562.085 Q91.8212 562.577 91.5343 562.864 Q91.2473 563.151 90.8784 563.151 Q90.3046 563.151 89.9767 563.069 Q89.6488 562.946 89.4848 562.618 Q89.3208 562.29 89.3208 562.126 Q89.2798 561.962 89.2389 561.388 Q89.0339 558.273 87.5583 555.855 Q86.0417 553.395 82.1477 551.059 L33.1245 521.875 Q32.6327 521.588 32.3867 521.383 Q32.1408 521.178 31.9358 520.768 Q31.7309 520.317 31.7309 519.661 Q31.7309 518.637 32.0588 518.432 Q32.3457 518.227 33.7394 518.104 L86.2057 512.98 Q87.3124 512.857 87.7632 512.775 Q88.1731 512.652 88.624 512.119 Q89.0339 511.545 89.1569 510.521 Q89.2389 509.455 89.2389 507.487 Q89.2389 506.75 89.2798 506.463 Q89.2798 506.176 89.4848 505.889 Q89.6897 505.561 90.1406 505.561 M69.8099 521.793 L42.1422 524.457 L69.8099 541.017 L69.8099 521.793 Z" fill="#000000" fill-rule="evenodd" fill-opacity="1" /><path clip-path="url(#clip890)" d="M85.3827 471.373 Q86.1287 471.373 87.592 471.574 Q89.0553 471.775 91.1785 472.262 Q93.3018 472.75 95.5398 473.467 Q97.7778 474.156 100.016 475.246 Q102.225 476.337 103.975 477.628 Q105.726 478.919 106.816 480.727 Q107.906 482.534 107.906 484.571 Q107.906 485.518 107.763 486.436 Q107.619 487.355 107.16 488.502 Q106.701 489.65 105.955 490.482 Q105.18 491.314 103.803 491.888 Q102.426 492.462 100.618 492.462 Q98.7534 492.462 96.2571 491.773 Q93.7322 491.056 88.5675 489.105 Q85.8991 488.101 84.4358 488.101 Q83.7759 488.101 83.3742 488.244 Q82.9438 488.388 82.8003 488.674 Q82.6282 488.961 82.5995 489.134 Q82.5708 489.277 82.5708 489.564 Q82.5708 491.142 84.2063 492.749 Q85.8417 494.356 89.8587 495.503 Q90.576 495.733 90.7482 495.876 Q90.9203 496.02 90.9203 496.45 Q90.8916 497.167 90.3178 497.167 Q90.1456 497.167 89.4857 496.967 Q88.7971 496.766 87.7641 496.393 Q86.7025 496.02 85.6122 495.36 Q84.4932 494.7 83.5176 493.897 Q82.5421 493.064 81.9109 491.888 Q81.2796 490.712 81.2796 489.392 Q81.2796 487.24 82.6856 485.92 Q84.0628 484.571 86.1 484.571 Q87.219 484.571 89.0266 485.289 Q92.2975 486.494 93.8756 487.039 Q95.4537 487.584 97.6917 488.158 Q99.9298 488.703 101.479 488.703 Q103.832 488.703 105.209 487.613 Q106.586 486.523 106.586 484.342 Q106.586 482.391 105.18 480.641 Q103.746 478.862 101.709 477.685 Q99.6428 476.509 97.3474 475.619 Q95.0233 474.73 93.2731 474.328 Q91.4942 473.898 90.6621 473.898 Q87.7641 473.898 85.8704 475.878 Q85.3253 476.423 84.981 476.624 Q84.6367 476.824 84.0915 476.824 Q83.0873 476.824 82.1978 475.935 Q81.2796 475.017 81.2796 473.955 Q81.2796 472.98 82.2552 472.176 Q83.2307 471.373 85.3827 471.373 Z" fill="#000000" fill-rule="evenodd" fill-opacity="1" /><path clip-path="url(#clip890)" d="M85.0957 442.67 Q86.6164 442.67 87.592 443.675 Q88.5675 444.65 88.5675 445.913 Q88.5675 447.003 87.9363 447.577 Q87.3051 448.151 86.5017 448.151 Q85.354 448.151 84.4071 447.261 Q83.4603 446.372 83.2594 445.08 Q82.5708 446.027 82.5708 447.548 Q82.5708 450.044 84.4932 452.254 Q85.3827 453.229 87.0181 454.291 Q88.6249 455.352 89.3135 455.553 L96.9744 457.418 Q97.8352 457.59 101.967 458.652 Q106.07 459.685 106.242 459.771 Q107.045 460.058 107.476 460.689 Q107.906 461.32 107.906 461.952 Q107.906 462.669 107.476 463.157 Q107.045 463.645 106.299 463.645 Q106.185 463.645 105.754 463.558 Q105.324 463.472 104.721 463.329 Q104.119 463.185 103.775 463.128 L90.203 459.714 Q87.7354 459.082 86.9607 458.939 Q86.1574 458.767 85.2679 458.767 Q83.7185 458.767 83.1446 459.255 Q82.5708 459.742 82.5708 460.603 Q82.5708 462.095 84.3497 463.071 Q86.1287 464.046 89.5718 464.878 Q90.5186 465.137 90.7195 465.309 Q90.9203 465.452 90.9203 465.883 Q90.8916 466.6 90.3178 466.6 Q90.1743 466.6 89.2561 466.37 Q88.3093 466.141 86.9321 465.71 Q85.5261 465.251 84.6367 464.764 Q84.0341 464.477 83.6324 464.218 Q83.2307 463.96 82.5995 463.444 Q81.9683 462.927 81.6239 462.153 Q81.2796 461.378 81.2796 460.431 Q81.2796 458.365 82.5421 456.902 Q83.8046 455.41 85.7844 455.065 Q84.7514 454.348 83.862 453.459 Q82.9438 452.569 82.1117 450.934 Q81.2796 449.298 81.2796 447.548 Q81.2796 445.367 82.3986 444.019 Q83.489 442.67 85.0957 442.67 Z" fill="#000000" fill-rule="evenodd" fill-opacity="1" /><path clip-path="url(#clip890)" d="M70.8347 409.234 Q56.6524 409.234 45.2164 403.947 Q40.4206 401.692 36.4037 398.536 Q32.3867 395.38 30.6242 393.289 Q28.8617 391.199 28.8617 390.625 Q28.8617 389.805 29.6814 389.764 Q30.0913 389.764 31.1161 390.871 Q44.8885 404.397 70.8347 404.356 Q96.8629 404.356 110.102 391.199 Q111.537 389.764 111.988 389.764 Q112.808 389.764 112.808 390.625 Q112.808 391.199 111.127 393.207 Q109.447 395.216 105.594 398.331 Q101.741 401.446 97.0268 403.701 Q85.5908 409.234 70.8347 409.234 Z" fill="#000000" fill-rule="evenodd" fill-opacity="1" /><path clip-path="url(#clip890)" d="M45.7492 382.044 Q38.5351 382.044 33.6984 378.355 Q28.8617 374.666 28.8617 369.706 Q28.8617 366.673 31.5669 363.681 Q38.0432 356.877 38.0023 347.982 Q38.0023 337.899 30.0503 332.037 Q28.8617 331.012 28.8617 330.275 Q28.8617 329.619 29.3945 329.127 Q29.8864 328.594 30.5422 328.594 Q31.0341 328.594 32.0588 329.25 L95.2643 371.715 Q96.5349 372.657 96.5349 373.395 Q96.5349 374.051 96.0021 374.584 Q95.5102 375.076 94.8544 375.076 Q94.2805 375.076 93.1738 374.338 L37.0185 336.628 L36.9365 336.71 Q39.8878 341.055 39.8468 347.9 Q39.8468 354.376 36.3217 360.566 Q40.6666 358.803 45.8312 358.803 Q52.8814 358.803 57.8001 361.959 Q62.6778 365.115 62.6778 369.706 Q62.6778 374.666 57.923 378.355 Q53.1273 382.044 45.7492 382.044 M38.904 376.264 Q41.8553 376.838 45.8312 376.838 Q49.7662 376.838 52.7174 376.264 Q55.6276 375.691 57.1443 374.871 Q58.6609 374.01 59.5626 372.862 Q60.4234 371.715 60.6283 371.018 Q60.8333 370.321 60.8333 369.624 Q60.8333 366.181 56.5704 363.558 Q52.2665 360.894 45.7492 360.894 Q39.3549 360.894 35.051 363.558 Q30.7062 366.181 30.7062 369.624 Q30.7062 370.362 30.9111 371.1 Q31.1161 371.797 32.0178 372.903 Q32.8786 374.01 34.3952 374.871 Q35.9118 375.691 38.904 376.264 M79.5654 344.867 Q72.3513 344.867 67.5145 341.178 Q62.6778 337.489 62.6778 332.529 Q62.6778 327.979 67.5965 324.823 Q72.5152 321.626 79.6474 321.626 Q86.6975 321.626 91.6162 324.782 Q96.5349 327.897 96.5349 332.529 Q96.5349 337.489 91.7392 341.178 Q86.9435 344.867 79.5654 344.867 M72.7202 339.087 Q75.7124 339.661 79.6474 339.661 Q83.5823 339.661 86.5336 339.087 Q89.4848 338.472 91.0014 337.653 Q92.477 336.792 93.3378 335.685 Q94.2395 334.537 94.4445 333.841 Q94.6904 333.103 94.6904 332.447 Q94.6904 329.004 90.4275 326.381 Q86.1237 323.716 79.5654 323.716 Q73.1711 323.716 68.8672 326.381 Q64.5223 329.004 64.5223 332.447 Q64.5223 333.185 64.7683 333.923 Q64.9732 334.619 65.875 335.726 Q66.7357 336.792 68.2523 337.653 Q69.728 338.472 72.7202 339.087 Z" fill="#000000" fill-rule="evenodd" fill-opacity="1" /><path clip-path="url(#clip890)" d="M111.988 310.818 Q111.578 310.818 110.553 309.753 Q96.7809 296.226 70.8347 296.226 Q44.8065 296.226 31.6489 309.22 Q30.1323 310.818 29.6814 310.818 Q28.8617 310.818 28.8617 309.999 Q28.8617 309.425 30.5422 307.416 Q32.2228 305.367 36.0758 302.293 Q39.9288 299.177 44.6425 296.882 Q56.0785 291.348 70.8347 291.348 Q85.017 291.348 96.453 296.636 Q101.249 298.89 105.266 302.047 Q109.283 305.203 111.045 307.293 Q112.808 309.384 112.808 309.999 Q112.808 310.818 111.988 310.818 Z" fill="#000000" fill-rule="evenodd" fill-opacity="1" /><polyline clip-path="url(#clip892)" style="stroke:#009af9; stroke-linecap:round; stroke-linejoin:round; stroke-width:8; stroke-opacity:1; fill:none" points="
  378.063,339.848 537.067,329.821 696.07,343.346 855.074,467.404 1014.08,493.132 1173.08,451.461 1332.08,469.072 1491.09,477.909 1650.09,480.425 1809.1,494.864 
  1968.1,506.394 2127.1,470.308 2286.11,526.284 2445.11,465.601 2604.11,511.254 2763.12,497.282 2922.12,517.109 3081.12,509.714 3240.13,527.179 3399.13,534.884 
  
  "/>
<circle clip-path="url(#clip892)" cx="378.063" cy="339.848" r="18" fill="#009af9" fill-rule="evenodd" fill-opacity="1" stroke="#000000" stroke-opacity="1" stroke-width="3.6"/>
<circle clip-path="url(#clip892)" cx="537.067" cy="329.821" r="18" fill="#009af9" fill-rule="evenodd" fill-opacity="1" stroke="#000000" stroke-opacity="1" stroke-width="3.6"/>
<circle clip-path="url(#clip892)" cx="696.07" cy="343.346" r="18" fill="#009af9" fill-rule="evenodd" fill-opacity="1" stroke="#000000" stroke-opacity="1" stroke-width="3.6"/>
<circle clip-path="url(#clip892)" cx="855.074" cy="467.404" r="18" fill="#009af9" fill-rule="evenodd" fill-opacity="1" stroke="#000000" stroke-opacity="1" stroke-width="3.6"/>
<circle clip-path="url(#clip892)" cx="1014.08" cy="493.132" r="18" fill="#009af9" fill-rule="evenodd" fill-opacity="1" stroke="#000000" stroke-opacity="1" stroke-width="3.6"/>
<circle clip-path="url(#clip892)" cx="1173.08" cy="451.461" r="18" fill="#009af9" fill-rule="evenodd" fill-opacity="1" stroke="#000000" stroke-opacity="1" stroke-width="3.6"/>
<circle clip-path="url(#clip892)" cx="1332.08" cy="469.072" r="18" fill="#009af9" fill-rule="evenodd" fill-opacity="1" stroke="#000000" stroke-opacity="1" stroke-width="3.6"/>
<circle clip-path="url(#clip892)" cx="1491.09" cy="477.909" r="18" fill="#009af9" fill-rule="evenodd" fill-opacity="1" stroke="#000000" stroke-opacity="1" stroke-width="3.6"/>
<circle clip-path="url(#clip892)" cx="1650.09" cy="480.425" r="18" fill="#009af9" fill-rule="evenodd" fill-opacity="1" stroke="#000000" stroke-opacity="1" stroke-width="3.6"/>
<circle clip-path="url(#clip892)" cx="1809.1" cy="494.864" r="18" fill="#009af9" fill-rule="evenodd" fill-opacity="1" stroke="#000000" stroke-opacity="1" stroke-width="3.6"/>
<circle clip-path="url(#clip892)" cx="1968.1" cy="506.394" r="18" fill="#009af9" fill-rule="evenodd" fill-opacity="1" stroke="#000000" stroke-opacity="1" stroke-width="3.6"/>
<circle clip-path="url(#clip892)" cx="2127.1" cy="470.308" r="18" fill="#009af9" fill-rule="evenodd" fill-opacity="1" stroke="#000000" stroke-opacity="1" stroke-width="3.6"/>
<circle clip-path="url(#clip892)" cx="2286.11" cy="526.284" r="18" fill="#009af9" fill-rule="evenodd" fill-opacity="1" stroke="#000000" stroke-opacity="1" stroke-width="3.6"/>
<circle clip-path="url(#clip892)" cx="2445.11" cy="465.601" r="18" fill="#009af9" fill-rule="evenodd" fill-opacity="1" stroke="#000000" stroke-opacity="1" stroke-width="3.6"/>
<circle clip-path="url(#clip892)" cx="2604.11" cy="511.254" r="18" fill="#009af9" fill-rule="evenodd" fill-opacity="1" stroke="#000000" stroke-opacity="1" stroke-width="3.6"/>
<circle clip-path="url(#clip892)" cx="2763.12" cy="497.282" r="18" fill="#009af9" fill-rule="evenodd" fill-opacity="1" stroke="#000000" stroke-opacity="1" stroke-width="3.6"/>
<circle clip-path="url(#clip892)" cx="2922.12" cy="517.109" r="18" fill="#009af9" fill-rule="evenodd" fill-opacity="1" stroke="#000000" stroke-opacity="1" stroke-width="3.6"/>
<circle clip-path="url(#clip892)" cx="3081.12" cy="509.714" r="18" fill="#009af9" fill-rule="evenodd" fill-opacity="1" stroke="#000000" stroke-opacity="1" stroke-width="3.6"/>
<circle clip-path="url(#clip892)" cx="3240.13" cy="527.179" r="18" fill="#009af9" fill-rule="evenodd" fill-opacity="1" stroke="#000000" stroke-opacity="1" stroke-width="3.6"/>
<circle clip-path="url(#clip892)" cx="3399.13" cy="534.884" r="18" fill="#009af9" fill-rule="evenodd" fill-opacity="1" stroke="#000000" stroke-opacity="1" stroke-width="3.6"/>
<polyline clip-path="url(#clip892)" style="stroke:#e26f46; stroke-linecap:round; stroke-linejoin:round; stroke-width:8; stroke-opacity:1; fill:none" points="
  378.063,533.3 537.067,581.973 696.07,573.647 855.074,595.046 1014.08,656.32 1173.08,651.536 1332.08,643.894 1491.09,674.838 1650.09,677.167 1809.1,630.717 
  1968.1,657.532 2127.1,698.79 2286.11,692.622 2445.11,727.126 2604.11,722.925 2763.12,710.409 2922.12,699.495 3081.12,674.978 3240.13,719.402 3399.13,717.495 
  
  "/>
<circle clip-path="url(#clip892)" cx="378.063" cy="533.3" r="18" fill="#e26f46" fill-rule="evenodd" fill-opacity="1" stroke="#000000" stroke-opacity="1" stroke-width="3.6"/>
<circle clip-path="url(#clip892)" cx="537.067" cy="581.973" r="18" fill="#e26f46" fill-rule="evenodd" fill-opacity="1" stroke="#000000" stroke-opacity="1" stroke-width="3.6"/>
<circle clip-path="url(#clip892)" cx="696.07" cy="573.647" r="18" fill="#e26f46" fill-rule="evenodd" fill-opacity="1" stroke="#000000" stroke-opacity="1" stroke-width="3.6"/>
<circle clip-path="url(#clip892)" cx="855.074" cy="595.046" r="18" fill="#e26f46" fill-rule="evenodd" fill-opacity="1" stroke="#000000" stroke-opacity="1" stroke-width="3.6"/>
<circle clip-path="url(#clip892)" cx="1014.08" cy="656.32" r="18" fill="#e26f46" fill-rule="evenodd" fill-opacity="1" stroke="#000000" stroke-opacity="1" stroke-width="3.6"/>
<circle clip-path="url(#clip892)" cx="1173.08" cy="651.536" r="18" fill="#e26f46" fill-rule="evenodd" fill-opacity="1" stroke="#000000" stroke-opacity="1" stroke-width="3.6"/>
<circle clip-path="url(#clip892)" cx="1332.08" cy="643.894" r="18" fill="#e26f46" fill-rule="evenodd" fill-opacity="1" stroke="#000000" stroke-opacity="1" stroke-width="3.6"/>
<circle clip-path="url(#clip892)" cx="1491.09" cy="674.838" r="18" fill="#e26f46" fill-rule="evenodd" fill-opacity="1" stroke="#000000" stroke-opacity="1" stroke-width="3.6"/>
<circle clip-path="url(#clip892)" cx="1650.09" cy="677.167" r="18" fill="#e26f46" fill-rule="evenodd" fill-opacity="1" stroke="#000000" stroke-opacity="1" stroke-width="3.6"/>
<circle clip-path="url(#clip892)" cx="1809.1" cy="630.717" r="18" fill="#e26f46" fill-rule="evenodd" fill-opacity="1" stroke="#000000" stroke-opacity="1" stroke-width="3.6"/>
<circle clip-path="url(#clip892)" cx="1968.1" cy="657.532" r="18" fill="#e26f46" fill-rule="evenodd" fill-opacity="1" stroke="#000000" stroke-opacity="1" stroke-width="3.6"/>
<circle clip-path="url(#clip892)" cx="2127.1" cy="698.79" r="18" fill="#e26f46" fill-rule="evenodd" fill-opacity="1" stroke="#000000" stroke-opacity="1" stroke-width="3.6"/>
<circle clip-path="url(#clip892)" cx="2286.11" cy="692.622" r="18" fill="#e26f46" fill-rule="evenodd" fill-opacity="1" stroke="#000000" stroke-opacity="1" stroke-width="3.6"/>
<circle clip-path="url(#clip892)" cx="2445.11" cy="727.126" r="18" fill="#e26f46" fill-rule="evenodd" fill-opacity="1" stroke="#000000" stroke-opacity="1" stroke-width="3.6"/>
<circle clip-path="url(#clip892)" cx="2604.11" cy="722.925" r="18" fill="#e26f46" fill-rule="evenodd" fill-opacity="1" stroke="#000000" stroke-opacity="1" stroke-width="3.6"/>
<circle clip-path="url(#clip892)" cx="2763.12" cy="710.409" r="18" fill="#e26f46" fill-rule="evenodd" fill-opacity="1" stroke="#000000" stroke-opacity="1" stroke-width="3.6"/>
<circle clip-path="url(#clip892)" cx="2922.12" cy="699.495" r="18" fill="#e26f46" fill-rule="evenodd" fill-opacity="1" stroke="#000000" stroke-opacity="1" stroke-width="3.6"/>
<circle clip-path="url(#clip892)" cx="3081.12" cy="674.978" r="18" fill="#e26f46" fill-rule="evenodd" fill-opacity="1" stroke="#000000" stroke-opacity="1" stroke-width="3.6"/>
<circle clip-path="url(#clip892)" cx="3240.13" cy="719.402" r="18" fill="#e26f46" fill-rule="evenodd" fill-opacity="1" stroke="#000000" stroke-opacity="1" stroke-width="3.6"/>
<circle clip-path="url(#clip892)" cx="3399.13" cy="717.495" r="18" fill="#e26f46" fill-rule="evenodd" fill-opacity="1" stroke="#000000" stroke-opacity="1" stroke-width="3.6"/>
<polyline clip-path="url(#clip892)" style="stroke:#3da44d; stroke-linecap:round; stroke-linejoin:round; stroke-width:8; stroke-opacity:1; fill:none" points="
  378.063,751.017 537.067,751.688 696.07,761.74 855.074,816.154 1014.08,841.612 1173.08,821.262 1332.08,883.946 1491.09,873.039 1650.09,891.57 1809.1,872.925 
  1968.1,898.705 2127.1,926.643 2286.11,915.955 2445.11,911.768 2604.11,921.433 2763.12,862.633 2922.12,885.139 3081.12,896.256 3240.13,915.03 3399.13,894.612 
  
  "/>
<circle clip-path="url(#clip892)" cx="378.063" cy="751.017" r="18" fill="#3da44d" fill-rule="evenodd" fill-opacity="1" stroke="#000000" stroke-opacity="1" stroke-width="3.6"/>
<circle clip-path="url(#clip892)" cx="537.067" cy="751.688" r="18" fill="#3da44d" fill-rule="evenodd" fill-opacity="1" stroke="#000000" stroke-opacity="1" stroke-width="3.6"/>
<circle clip-path="url(#clip892)" cx="696.07" cy="761.74" r="18" fill="#3da44d" fill-rule="evenodd" fill-opacity="1" stroke="#000000" stroke-opacity="1" stroke-width="3.6"/>
<circle clip-path="url(#clip892)" cx="855.074" cy="816.154" r="18" fill="#3da44d" fill-rule="evenodd" fill-opacity="1" stroke="#000000" stroke-opacity="1" stroke-width="3.6"/>
<circle clip-path="url(#clip892)" cx="1014.08" cy="841.612" r="18" fill="#3da44d" fill-rule="evenodd" fill-opacity="1" stroke="#000000" stroke-opacity="1" stroke-width="3.6"/>
<circle clip-path="url(#clip892)" cx="1173.08" cy="821.262" r="18" fill="#3da44d" fill-rule="evenodd" fill-opacity="1" stroke="#000000" stroke-opacity="1" stroke-width="3.6"/>
<circle clip-path="url(#clip892)" cx="1332.08" cy="883.946" r="18" fill="#3da44d" fill-rule="evenodd" fill-opacity="1" stroke="#000000" stroke-opacity="1" stroke-width="3.6"/>
<circle clip-path="url(#clip892)" cx="1491.09" cy="873.039" r="18" fill="#3da44d" fill-rule="evenodd" fill-opacity="1" stroke="#000000" stroke-opacity="1" stroke-width="3.6"/>
<circle clip-path="url(#clip892)" cx="1650.09" cy="891.57" r="18" fill="#3da44d" fill-rule="evenodd" fill-opacity="1" stroke="#000000" stroke-opacity="1" stroke-width="3.6"/>
<circle clip-path="url(#clip892)" cx="1809.1" cy="872.925" r="18" fill="#3da44d" fill-rule="evenodd" fill-opacity="1" stroke="#000000" stroke-opacity="1" stroke-width="3.6"/>
<circle clip-path="url(#clip892)" cx="1968.1" cy="898.705" r="18" fill="#3da44d" fill-rule="evenodd" fill-opacity="1" stroke="#000000" stroke-opacity="1" stroke-width="3.6"/>
<circle clip-path="url(#clip892)" cx="2127.1" cy="926.643" r="18" fill="#3da44d" fill-rule="evenodd" fill-opacity="1" stroke="#000000" stroke-opacity="1" stroke-width="3.6"/>
<circle clip-path="url(#clip892)" cx="2286.11" cy="915.955" r="18" fill="#3da44d" fill-rule="evenodd" fill-opacity="1" stroke="#000000" stroke-opacity="1" stroke-width="3.6"/>
<circle clip-path="url(#clip892)" cx="2445.11" cy="911.768" r="18" fill="#3da44d" fill-rule="evenodd" fill-opacity="1" stroke="#000000" stroke-opacity="1" stroke-width="3.6"/>
<circle clip-path="url(#clip892)" cx="2604.11" cy="921.433" r="18" fill="#3da44d" fill-rule="evenodd" fill-opacity="1" stroke="#000000" stroke-opacity="1" stroke-width="3.6"/>
<circle clip-path="url(#clip892)" cx="2763.12" cy="862.633" r="18" fill="#3da44d" fill-rule="evenodd" fill-opacity="1" stroke="#000000" stroke-opacity="1" stroke-width="3.6"/>
<circle clip-path="url(#clip892)" cx="2922.12" cy="885.139" r="18" fill="#3da44d" fill-rule="evenodd" fill-opacity="1" stroke="#000000" stroke-opacity="1" stroke-width="3.6"/>
<circle clip-path="url(#clip892)" cx="3081.12" cy="896.256" r="18" fill="#3da44d" fill-rule="evenodd" fill-opacity="1" stroke="#000000" stroke-opacity="1" stroke-width="3.6"/>
<circle clip-path="url(#clip892)" cx="3240.13" cy="915.03" r="18" fill="#3da44d" fill-rule="evenodd" fill-opacity="1" stroke="#000000" stroke-opacity="1" stroke-width="3.6"/>
<circle clip-path="url(#clip892)" cx="3399.13" cy="894.612" r="18" fill="#3da44d" fill-rule="evenodd" fill-opacity="1" stroke="#000000" stroke-opacity="1" stroke-width="3.6"/>
<path clip-path="url(#clip890)" d="
M2724.76 393.055 L3457.78 393.055 L3457.78 133.855 L2724.76 133.855  Z
  " fill="#ffffff" fill-rule="evenodd" fill-opacity="1"/>
<polyline clip-path="url(#clip890)" style="stroke:#000000; stroke-linecap:round; stroke-linejoin:round; stroke-width:4; stroke-opacity:1; fill:none" points="
  2724.76,393.055 3457.78,393.055 3457.78,133.855 2724.76,133.855 2724.76,393.055 
  "/>
<polyline clip-path="url(#clip890)" style="stroke:#009af9; stroke-linecap:round; stroke-linejoin:round; stroke-width:5; stroke-opacity:1; fill:none" points="
  2760.34,198.655 2973.83,198.655 
  "/>
<circle clip-path="url(#clip890)" cx="2867.09" cy="198.655" r="23.721" fill="#009af9" fill-rule="evenodd" fill-opacity="1" stroke="#000000" stroke-opacity="1" stroke-width="5.76"/>
<path clip-path="url(#clip890)" d="M3059.89 172.912 Q3059.89 174.112 3058.86 174.112 Q3055.56 174.229 3054.21 175.342 Q3052.89 176.425 3052.39 178.533 L3044.02 211.939 Q3043.73 212.993 3043.55 213.111 Q3043.38 213.198 3043.05 213.198 Q3042.64 213.198 3042.41 212.993 Q3042.21 212.788 3041.91 212.056 L3026.98 176.747 Q3026.86 176.513 3026.72 176.191 Q3026.57 175.869 3026.45 175.664 L3018.52 207.313 Q3018.29 208.221 3018.29 208.69 Q3018.29 209.831 3019.08 210.563 Q3019.9 211.266 3022.24 211.354 Q3023.44 211.354 3023.44 211.998 Q3023.44 213.198 3022.35 213.198 Q3021.36 213.198 3019.28 213.111 Q3017.2 213.023 3016.18 213.023 Q3015.18 213.023 3013.16 213.111 Q3011.14 213.198 3010.18 213.198 Q3009.41 213.198 3009.41 212.525 Q3009.41 211.998 3009.62 211.734 Q3009.82 211.442 3010 211.412 Q3010.18 211.354 3010.44 211.354 Q3012.2 211.295 3013.4 210.944 Q3014.6 210.593 3015.27 209.919 Q3015.97 209.246 3016.29 208.572 Q3016.65 207.87 3016.91 206.845 L3024.93 174.639 Q3024.93 174.112 3020.86 174.112 Q3020.16 174.112 3019.87 174.083 Q3019.6 174.054 3019.4 173.907 Q3019.19 173.761 3019.19 173.439 Q3019.19 172.619 3019.54 172.443 Q3019.9 172.238 3020.92 172.238 L3028.97 172.238 Q3030 172.238 3030.26 172.414 Q3030.52 172.56 3030.87 173.38 L3044.14 204.678 L3050.84 178.006 Q3051.02 177.479 3051.02 176.747 Q3051.02 175.576 3050.14 174.873 Q3049.29 174.141 3046.95 174.112 Q3045.87 174.112 3045.87 173.439 Q3045.87 172.882 3046.07 172.619 Q3046.3 172.326 3046.48 172.297 Q3046.68 172.238 3046.95 172.238 Q3047.94 172.238 3049.99 172.326 Q3052.04 172.414 3053.07 172.414 Q3054.06 172.414 3056.08 172.326 Q3058.13 172.238 3059.13 172.238 Q3059.48 172.238 3059.65 172.414 Q3059.86 172.56 3059.89 172.736 L3059.89 172.912 Z" fill="#000000" fill-rule="evenodd" fill-opacity="1" /><path clip-path="url(#clip890)" d="M3100.2 218.218 Q3100.2 218.382 3100.01 219.018 Q3099.83 219.653 3099.38 220.637 Q3098.95 221.621 3098.33 222.522 Q3097.74 223.404 3096.75 224.059 Q3095.79 224.695 3094.68 224.695 Q3093.21 224.695 3092.22 223.711 Q3091.24 222.727 3091.24 221.252 Q3091.24 220.452 3091.79 218.936 Q3094.4 212.009 3094.4 209.529 Q3094.4 206.598 3092.12 206.598 Q3090.83 206.598 3089.66 207.131 Q3088.49 207.664 3087.74 208.401 Q3086.98 209.139 3086.38 209.98 Q3085.79 210.82 3085.52 211.373 Q3085.28 211.927 3085.21 212.172 L3082.69 222.297 Q3082.49 223.158 3082.35 223.568 Q3082.2 223.977 3081.81 224.326 Q3081.42 224.695 3080.81 224.695 Q3080.3 224.695 3079.93 224.387 Q3079.58 224.08 3079.58 223.547 Q3079.58 223.465 3079.68 223.035 Q3079.78 222.604 3079.93 222.01 Q3080.07 221.416 3080.13 221.067 Q3080.87 218.28 3080.97 217.89 L3082.14 213.013 Q3082.78 210.594 3082.78 209.529 Q3082.78 206.598 3080.5 206.598 Q3079.37 206.598 3078.31 207.028 Q3077.26 207.438 3076.55 208.012 Q3075.83 208.586 3075.17 209.385 Q3074.54 210.164 3074.21 210.697 Q3073.9 211.209 3073.66 211.722 L3073.12 213.812 Q3073 214.386 3072.41 216.62 L3071.48 220.411 Q3070.83 223.24 3070.68 223.506 Q3070.48 224.08 3070.03 224.387 Q3069.58 224.695 3069.13 224.695 Q3068.61 224.695 3068.27 224.387 Q3067.92 224.08 3067.92 223.547 Q3067.92 223.465 3067.98 223.158 Q3068.04 222.85 3068.14 222.42 Q3068.24 221.989 3068.29 221.743 L3070.72 212.05 Q3071.18 210.287 3071.28 209.734 Q3071.4 209.16 3071.4 208.524 Q3071.4 206.598 3070.09 206.598 Q3069.02 206.598 3068.33 207.869 Q3067.63 209.139 3067.04 211.599 Q3066.85 212.275 3066.73 212.418 Q3066.63 212.562 3066.32 212.562 Q3065.81 212.541 3065.81 212.132 Q3065.81 212.029 3065.97 211.373 Q3066.13 210.717 3066.44 209.734 Q3066.77 208.729 3067.12 208.074 Q3067.32 207.643 3067.51 207.356 Q3067.69 207.069 3068.06 206.618 Q3068.43 206.168 3068.98 205.922 Q3069.54 205.676 3070.21 205.676 Q3071.71 205.676 3072.82 206.639 Q3073.94 207.602 3074.09 209.324 Q3076.81 205.676 3080.62 205.676 Q3082.78 205.676 3084.07 206.762 Q3085.28 207.807 3085.42 209.734 Q3088.25 205.676 3092.26 205.676 Q3094.58 205.676 3095.83 206.885 Q3097.08 208.074 3097.08 210.164 Q3097.08 211.25 3096.53 213.32 Q3095.97 215.37 3095.61 216.394 Q3095.24 217.419 3094.52 219.387 Q3093.76 221.272 3093.76 222.379 Q3093.76 223.096 3094.01 223.424 Q3094.25 223.752 3094.79 223.752 Q3095.61 223.752 3096.32 223.281 Q3097.04 222.789 3097.55 221.989 Q3098.09 221.17 3098.43 220.35 Q3098.78 219.51 3099.05 218.567 Q3099.21 218.054 3099.29 217.931 Q3099.4 217.809 3099.68 217.809 Q3100.2 217.809 3100.2 218.218 Z" fill="#000000" fill-rule="evenodd" fill-opacity="1" /><path clip-path="url(#clip890)" d="M3119.15 219.366 Q3119.31 219.551 3119.31 219.735 Q3119.31 219.919 3118.9 220.452 Q3118.51 220.985 3117.67 221.702 Q3116.83 222.42 3115.74 223.096 Q3114.66 223.772 3113.06 224.223 Q3111.46 224.695 3109.78 224.695 Q3106.65 224.695 3104.8 222.625 Q3102.98 220.555 3102.98 217.583 Q3102.98 214.693 3104.6 211.927 Q3106.21 209.139 3108.84 207.418 Q3111.46 205.676 3114.23 205.676 Q3116.42 205.676 3117.79 206.7 Q3119.17 207.725 3119.17 209.283 Q3119.17 210.492 3118.47 211.23 Q3117.77 211.968 3116.83 211.968 Q3116.18 211.968 3115.72 211.599 Q3115.27 211.209 3115.27 210.492 Q3115.27 209.57 3116.03 208.852 Q3116.32 208.565 3116.65 208.442 Q3116.99 208.299 3117.2 208.299 Q3117.4 208.279 3117.88 208.279 Q3117.45 207.479 3116.42 207.049 Q3115.42 206.598 3114.27 206.598 Q3112.57 206.598 3110.95 207.787 Q3109.33 208.955 3108.35 210.799 Q3107.36 212.603 3106.73 215.165 Q3106.09 217.706 3106.09 219.182 Q3106.09 221.211 3107.03 222.481 Q3107.98 223.752 3109.86 223.752 Q3110.23 223.752 3110.62 223.731 Q3111.03 223.711 3112.06 223.486 Q3113.1 223.26 3114.02 222.871 Q3114.95 222.481 3116.11 221.641 Q3117.3 220.78 3118.25 219.612 Q3118.57 219.182 3118.8 219.182 Q3118.98 219.182 3119.15 219.366 Z" fill="#000000" fill-rule="evenodd" fill-opacity="1" /><path clip-path="url(#clip890)" d="M3144 204.093 Q3144.06 203.361 3145.2 203.361 L3181.95 203.361 Q3183.67 203.361 3183.7 204.034 Q3183.7 204.766 3182.06 204.737 L3145.61 204.737 Q3144 204.766 3144 204.093 M3144 192.382 Q3144 191.65 3145.26 191.679 L3181.89 191.679 Q3183.67 191.679 3183.7 192.382 Q3183.7 193.055 3182.18 193.055 L3145.2 193.055 Q3144 193.055 3144 192.382 Z" fill="#000000" fill-rule="evenodd" fill-opacity="1" /><path clip-path="url(#clip890)" d="M3206.84 178.972 L3206.84 177.098 Q3214.04 177.098 3217.76 173.263 Q3218.79 173.263 3218.96 173.497 Q3219.14 173.732 3219.14 174.815 L3219.14 208.455 Q3219.14 210.241 3220.01 210.798 Q3220.89 211.354 3224.73 211.354 L3226.63 211.354 L3226.63 213.198 Q3224.52 213.023 3216.91 213.023 Q3209.3 213.023 3207.22 213.198 L3207.22 211.354 L3209.12 211.354 Q3212.9 211.354 3213.81 210.827 Q3214.72 210.271 3214.72 208.455 L3214.72 177.391 Q3211.58 178.972 3206.84 178.972 Z" fill="#000000" fill-rule="evenodd" fill-opacity="1" /><path clip-path="url(#clip890)" d="M3244.46 194.021 Q3244.46 185.209 3246.68 180.407 Q3249.79 173.263 3257.11 173.263 Q3258.66 173.263 3260.27 173.702 Q3261.91 174.112 3263.96 175.722 Q3266.04 177.333 3267.3 179.968 Q3269.7 185.062 3269.7 194.021 Q3269.7 202.775 3267.47 207.548 Q3264.22 214.516 3257.05 214.516 Q3254.36 214.516 3251.6 213.14 Q3248.88 211.764 3247.15 208.455 Q3244.46 203.507 3244.46 194.021 M3249.44 193.289 Q3249.44 202.336 3250.08 205.937 Q3250.81 209.831 3252.8 211.529 Q3254.82 213.198 3257.05 213.198 Q3259.45 213.198 3261.44 211.412 Q3263.46 209.597 3264.08 205.703 Q3264.75 201.868 3264.72 193.289 Q3264.72 184.945 3264.13 181.607 Q3263.34 177.713 3261.24 176.162 Q3259.16 174.581 3257.05 174.581 Q3256.26 174.581 3255.41 174.815 Q3254.59 175.049 3253.39 175.722 Q3252.19 176.396 3251.25 178.065 Q3250.34 179.734 3249.91 182.251 Q3249.44 185.501 3249.44 193.289 Z" fill="#000000" fill-rule="evenodd" fill-opacity="1" /><path clip-path="url(#clip890)" d="M3274.39 194.021 Q3274.39 185.209 3276.62 180.407 Q3279.72 173.263 3287.04 173.263 Q3288.59 173.263 3290.2 173.702 Q3291.84 174.112 3293.89 175.722 Q3295.97 177.333 3297.23 179.968 Q3299.63 185.062 3299.63 194.021 Q3299.63 202.775 3297.41 207.548 Q3294.16 214.516 3286.98 214.516 Q3284.29 214.516 3281.54 213.14 Q3278.82 211.764 3277.09 208.455 Q3274.39 203.507 3274.39 194.021 M3279.37 193.289 Q3279.37 202.336 3280.02 205.937 Q3280.75 209.831 3282.74 211.529 Q3284.76 213.198 3286.98 213.198 Q3289.39 213.198 3291.38 211.412 Q3293.4 209.597 3294.01 205.703 Q3294.68 201.868 3294.66 193.289 Q3294.66 184.945 3294.07 181.607 Q3293.28 177.713 3291.17 176.162 Q3289.09 174.581 3286.98 174.581 Q3286.19 174.581 3285.34 174.815 Q3284.52 175.049 3283.32 175.722 Q3282.12 176.396 3281.19 178.065 Q3280.28 179.734 3279.84 182.251 Q3279.37 185.501 3279.37 193.289 Z" fill="#000000" fill-rule="evenodd" fill-opacity="1" /><path clip-path="url(#clip890)" d="M3304.33 194.021 Q3304.33 185.209 3306.56 180.407 Q3309.66 173.263 3316.98 173.263 Q3318.53 173.263 3320.14 173.702 Q3321.78 174.112 3323.83 175.722 Q3325.91 177.333 3327.17 179.968 Q3329.57 185.062 3329.57 194.021 Q3329.57 202.775 3327.34 207.548 Q3324.09 214.516 3316.92 214.516 Q3314.23 214.516 3311.47 213.14 Q3308.75 211.764 3307.02 208.455 Q3304.33 203.507 3304.33 194.021 M3309.31 193.289 Q3309.31 202.336 3309.95 205.937 Q3310.68 209.831 3312.67 211.529 Q3314.69 213.198 3316.92 213.198 Q3319.32 213.198 3321.31 211.412 Q3323.33 209.597 3323.95 205.703 Q3324.62 201.868 3324.59 193.289 Q3324.59 184.945 3324 181.607 Q3323.21 177.713 3321.11 176.162 Q3319.03 174.581 3316.92 174.581 Q3316.13 174.581 3315.28 174.815 Q3314.46 175.049 3313.26 175.722 Q3312.06 176.396 3311.12 178.065 Q3310.21 179.734 3309.78 182.251 Q3309.31 185.501 3309.31 193.289 Z" fill="#000000" fill-rule="evenodd" fill-opacity="1" /><polyline clip-path="url(#clip890)" style="stroke:#e26f46; stroke-linecap:round; stroke-linejoin:round; stroke-width:5; stroke-opacity:1; fill:none" points="
  2760.34,263.455 2973.83,263.455 
  "/>
<circle clip-path="url(#clip890)" cx="2867.09" cy="263.455" r="23.721" fill="#e26f46" fill-rule="evenodd" fill-opacity="1" stroke="#000000" stroke-opacity="1" stroke-width="5.76"/>
<path clip-path="url(#clip890)" d="M3059.89 237.712 Q3059.89 238.912 3058.86 238.912 Q3055.56 239.029 3054.21 240.142 Q3052.89 241.225 3052.39 243.333 L3044.02 276.739 Q3043.73 277.793 3043.55 277.911 Q3043.38 277.998 3043.05 277.998 Q3042.64 277.998 3042.41 277.793 Q3042.21 277.588 3041.91 276.856 L3026.98 241.547 Q3026.86 241.313 3026.72 240.991 Q3026.57 240.669 3026.45 240.464 L3018.52 272.113 Q3018.29 273.021 3018.29 273.49 Q3018.29 274.631 3019.08 275.363 Q3019.9 276.066 3022.24 276.154 Q3023.44 276.154 3023.44 276.798 Q3023.44 277.998 3022.35 277.998 Q3021.36 277.998 3019.28 277.911 Q3017.2 277.823 3016.18 277.823 Q3015.18 277.823 3013.16 277.911 Q3011.14 277.998 3010.18 277.998 Q3009.41 277.998 3009.41 277.325 Q3009.41 276.798 3009.62 276.534 Q3009.82 276.242 3010 276.212 Q3010.18 276.154 3010.44 276.154 Q3012.2 276.095 3013.4 275.744 Q3014.6 275.393 3015.27 274.719 Q3015.97 274.046 3016.29 273.372 Q3016.65 272.67 3016.91 271.645 L3024.93 239.439 Q3024.93 238.912 3020.86 238.912 Q3020.16 238.912 3019.87 238.883 Q3019.6 238.854 3019.4 238.707 Q3019.19 238.561 3019.19 238.239 Q3019.19 237.419 3019.54 237.243 Q3019.9 237.038 3020.92 237.038 L3028.97 237.038 Q3030 237.038 3030.26 237.214 Q3030.52 237.36 3030.87 238.18 L3044.14 269.478 L3050.84 242.806 Q3051.02 242.279 3051.02 241.547 Q3051.02 240.376 3050.14 239.673 Q3049.29 238.941 3046.95 238.912 Q3045.87 238.912 3045.87 238.239 Q3045.87 237.682 3046.07 237.419 Q3046.3 237.126 3046.48 237.097 Q3046.68 237.038 3046.95 237.038 Q3047.94 237.038 3049.99 237.126 Q3052.04 237.214 3053.07 237.214 Q3054.06 237.214 3056.08 237.126 Q3058.13 237.038 3059.13 237.038 Q3059.48 237.038 3059.65 237.214 Q3059.86 237.36 3059.89 237.536 L3059.89 237.712 Z" fill="#000000" fill-rule="evenodd" fill-opacity="1" /><path clip-path="url(#clip890)" d="M3100.2 283.018 Q3100.2 283.182 3100.01 283.818 Q3099.83 284.453 3099.38 285.437 Q3098.95 286.421 3098.33 287.322 Q3097.74 288.204 3096.75 288.859 Q3095.79 289.495 3094.68 289.495 Q3093.21 289.495 3092.22 288.511 Q3091.24 287.527 3091.24 286.052 Q3091.24 285.252 3091.79 283.736 Q3094.4 276.809 3094.4 274.329 Q3094.4 271.398 3092.12 271.398 Q3090.83 271.398 3089.66 271.931 Q3088.49 272.464 3087.74 273.201 Q3086.98 273.939 3086.38 274.78 Q3085.79 275.62 3085.52 276.173 Q3085.28 276.727 3085.21 276.972 L3082.69 287.097 Q3082.49 287.958 3082.35 288.368 Q3082.2 288.777 3081.81 289.126 Q3081.42 289.495 3080.81 289.495 Q3080.3 289.495 3079.93 289.187 Q3079.58 288.88 3079.58 288.347 Q3079.58 288.265 3079.68 287.835 Q3079.78 287.404 3079.93 286.81 Q3080.07 286.216 3080.13 285.867 Q3080.87 283.08 3080.97 282.69 L3082.14 277.813 Q3082.78 275.394 3082.78 274.329 Q3082.78 271.398 3080.5 271.398 Q3079.37 271.398 3078.31 271.828 Q3077.26 272.238 3076.55 272.812 Q3075.83 273.386 3075.17 274.185 Q3074.54 274.964 3074.21 275.497 Q3073.9 276.009 3073.66 276.522 L3073.12 278.612 Q3073 279.186 3072.41 281.42 L3071.48 285.211 Q3070.83 288.04 3070.68 288.306 Q3070.48 288.88 3070.03 289.187 Q3069.58 289.495 3069.13 289.495 Q3068.61 289.495 3068.27 289.187 Q3067.92 288.88 3067.92 288.347 Q3067.92 288.265 3067.98 287.958 Q3068.04 287.65 3068.14 287.22 Q3068.24 286.789 3068.29 286.543 L3070.72 276.85 Q3071.18 275.087 3071.28 274.534 Q3071.4 273.96 3071.4 273.324 Q3071.4 271.398 3070.09 271.398 Q3069.02 271.398 3068.33 272.669 Q3067.63 273.939 3067.04 276.399 Q3066.85 277.075 3066.73 277.218 Q3066.63 277.362 3066.32 277.362 Q3065.81 277.341 3065.81 276.932 Q3065.81 276.829 3065.97 276.173 Q3066.13 275.517 3066.44 274.534 Q3066.77 273.529 3067.12 272.874 Q3067.32 272.443 3067.51 272.156 Q3067.69 271.869 3068.06 271.418 Q3068.43 270.968 3068.98 270.722 Q3069.54 270.476 3070.21 270.476 Q3071.71 270.476 3072.82 271.439 Q3073.94 272.402 3074.09 274.124 Q3076.81 270.476 3080.62 270.476 Q3082.78 270.476 3084.07 271.562 Q3085.28 272.607 3085.42 274.534 Q3088.25 270.476 3092.26 270.476 Q3094.58 270.476 3095.83 271.685 Q3097.08 272.874 3097.08 274.964 Q3097.08 276.05 3096.53 278.12 Q3095.97 280.17 3095.61 281.194 Q3095.24 282.219 3094.52 284.187 Q3093.76 286.072 3093.76 287.179 Q3093.76 287.896 3094.01 288.224 Q3094.25 288.552 3094.79 288.552 Q3095.61 288.552 3096.32 288.081 Q3097.04 287.589 3097.55 286.789 Q3098.09 285.97 3098.43 285.15 Q3098.78 284.31 3099.05 283.367 Q3099.21 282.854 3099.29 282.731 Q3099.4 282.609 3099.68 282.609 Q3100.2 282.609 3100.2 283.018 Z" fill="#000000" fill-rule="evenodd" fill-opacity="1" /><path clip-path="url(#clip890)" d="M3119.15 284.166 Q3119.31 284.351 3119.31 284.535 Q3119.31 284.719 3118.9 285.252 Q3118.51 285.785 3117.67 286.502 Q3116.83 287.22 3115.74 287.896 Q3114.66 288.572 3113.06 289.023 Q3111.46 289.495 3109.78 289.495 Q3106.65 289.495 3104.8 287.425 Q3102.98 285.355 3102.98 282.383 Q3102.98 279.493 3104.6 276.727 Q3106.21 273.939 3108.84 272.218 Q3111.46 270.476 3114.23 270.476 Q3116.42 270.476 3117.79 271.5 Q3119.17 272.525 3119.17 274.083 Q3119.17 275.292 3118.47 276.03 Q3117.77 276.768 3116.83 276.768 Q3116.18 276.768 3115.72 276.399 Q3115.27 276.009 3115.27 275.292 Q3115.27 274.37 3116.03 273.652 Q3116.32 273.365 3116.65 273.242 Q3116.99 273.099 3117.2 273.099 Q3117.4 273.079 3117.88 273.079 Q3117.45 272.279 3116.42 271.849 Q3115.42 271.398 3114.27 271.398 Q3112.57 271.398 3110.95 272.587 Q3109.33 273.755 3108.35 275.599 Q3107.36 277.403 3106.73 279.965 Q3106.09 282.506 3106.09 283.982 Q3106.09 286.011 3107.03 287.281 Q3107.98 288.552 3109.86 288.552 Q3110.23 288.552 3110.62 288.531 Q3111.03 288.511 3112.06 288.286 Q3113.1 288.06 3114.02 287.671 Q3114.95 287.281 3116.11 286.441 Q3117.3 285.58 3118.25 284.412 Q3118.57 283.982 3118.8 283.982 Q3118.98 283.982 3119.15 284.166 Z" fill="#000000" fill-rule="evenodd" fill-opacity="1" /><path clip-path="url(#clip890)" d="M3144 268.893 Q3144.06 268.161 3145.2 268.161 L3181.95 268.161 Q3183.67 268.161 3183.7 268.834 Q3183.7 269.566 3182.06 269.537 L3145.61 269.537 Q3144 269.566 3144 268.893 M3144 257.182 Q3144 256.45 3145.26 256.479 L3181.89 256.479 Q3183.67 256.479 3183.7 257.182 Q3183.7 257.855 3182.18 257.855 L3145.2 257.855 Q3144 257.855 3144 257.182 Z" fill="#000000" fill-rule="evenodd" fill-opacity="1" /><path clip-path="url(#clip890)" d="M3206.84 243.772 L3206.84 241.898 Q3214.04 241.898 3217.76 238.063 Q3218.79 238.063 3218.96 238.297 Q3219.14 238.532 3219.14 239.615 L3219.14 273.255 Q3219.14 275.041 3220.01 275.598 Q3220.89 276.154 3224.73 276.154 L3226.63 276.154 L3226.63 277.998 Q3224.52 277.823 3216.91 277.823 Q3209.3 277.823 3207.22 277.998 L3207.22 276.154 L3209.12 276.154 Q3212.9 276.154 3213.81 275.627 Q3214.72 275.071 3214.72 273.255 L3214.72 242.191 Q3211.58 243.772 3206.84 243.772 Z" fill="#000000" fill-rule="evenodd" fill-opacity="1" /><path clip-path="url(#clip890)" d="M3229.5 258.821 Q3229.5 250.009 3231.73 245.207 Q3234.83 238.063 3242.15 238.063 Q3243.7 238.063 3245.31 238.502 Q3246.95 238.912 3249 240.522 Q3251.08 242.133 3252.34 244.768 Q3254.74 249.862 3254.74 258.821 Q3254.74 267.575 3252.51 272.348 Q3249.26 279.316 3242.09 279.316 Q3239.4 279.316 3236.64 277.94 Q3233.92 276.564 3232.19 273.255 Q3229.5 268.307 3229.5 258.821 M3234.48 258.089 Q3234.48 267.136 3235.12 270.737 Q3235.85 274.631 3237.84 276.329 Q3239.86 277.998 3242.09 277.998 Q3244.49 277.998 3246.48 276.212 Q3248.5 274.397 3249.12 270.503 Q3249.79 266.668 3249.76 258.089 Q3249.76 249.745 3249.17 246.407 Q3248.38 242.513 3246.28 240.962 Q3244.2 239.381 3242.09 239.381 Q3241.3 239.381 3240.45 239.615 Q3239.63 239.849 3238.43 240.522 Q3237.23 241.196 3236.29 242.865 Q3235.38 244.534 3234.95 247.051 Q3234.48 250.301 3234.48 258.089 Z" fill="#000000" fill-rule="evenodd" fill-opacity="1" /><path clip-path="url(#clip890)" d="M3267.12 258.821 Q3267.12 250.009 3269.34 245.207 Q3272.45 238.063 3279.77 238.063 Q3281.32 238.063 3282.93 238.502 Q3284.57 238.912 3286.62 240.522 Q3288.7 242.133 3289.96 244.768 Q3292.36 249.862 3292.36 258.821 Q3292.36 267.575 3290.13 272.348 Q3286.88 279.316 3279.71 279.316 Q3277.02 279.316 3274.26 277.94 Q3271.54 276.564 3269.81 273.255 Q3267.12 268.307 3267.12 258.821 M3272.1 258.089 Q3272.1 267.136 3272.74 270.737 Q3273.47 274.631 3275.46 276.329 Q3277.48 277.998 3279.71 277.998 Q3282.11 277.998 3284.1 276.212 Q3286.12 274.397 3286.74 270.503 Q3287.41 266.668 3287.38 258.089 Q3287.38 249.745 3286.79 246.407 Q3286 242.513 3283.9 240.962 Q3281.82 239.381 3279.71 239.381 Q3278.92 239.381 3278.07 239.615 Q3277.25 239.849 3276.05 240.522 Q3274.85 241.196 3273.91 242.865 Q3273 244.534 3272.57 247.051 Q3272.1 250.301 3272.1 258.089 Z" fill="#000000" fill-rule="evenodd" fill-opacity="1" /><path clip-path="url(#clip890)" d="M3297.06 258.821 Q3297.06 250.009 3299.28 245.207 Q3302.38 238.063 3309.7 238.063 Q3311.25 238.063 3312.87 238.502 Q3314.5 238.912 3316.55 240.522 Q3318.63 242.133 3319.89 244.768 Q3322.29 249.862 3322.29 258.821 Q3322.29 267.575 3320.07 272.348 Q3316.82 279.316 3309.64 279.316 Q3306.95 279.316 3304.2 277.94 Q3301.48 276.564 3299.75 273.255 Q3297.06 268.307 3297.06 258.821 M3302.03 258.089 Q3302.03 267.136 3302.68 270.737 Q3303.41 274.631 3305.4 276.329 Q3307.42 277.998 3309.64 277.998 Q3312.05 277.998 3314.04 276.212 Q3316.06 274.397 3316.67 270.503 Q3317.34 266.668 3317.32 258.089 Q3317.32 249.745 3316.73 246.407 Q3315.94 242.513 3313.83 240.962 Q3311.75 239.381 3309.64 239.381 Q3308.85 239.381 3308.01 239.615 Q3307.19 239.849 3305.98 240.522 Q3304.78 241.196 3303.85 242.865 Q3302.94 244.534 3302.5 247.051 Q3302.03 250.301 3302.03 258.089 Z" fill="#000000" fill-rule="evenodd" fill-opacity="1" /><path clip-path="url(#clip890)" d="M3326.99 258.821 Q3326.99 250.009 3329.22 245.207 Q3332.32 238.063 3339.64 238.063 Q3341.19 238.063 3342.8 238.502 Q3344.44 238.912 3346.49 240.522 Q3348.57 242.133 3349.83 244.768 Q3352.23 249.862 3352.23 258.821 Q3352.23 267.575 3350 272.348 Q3346.75 279.316 3339.58 279.316 Q3336.89 279.316 3334.13 277.94 Q3331.41 276.564 3329.68 273.255 Q3326.99 268.307 3326.99 258.821 M3331.97 258.089 Q3331.97 267.136 3332.61 270.737 Q3333.34 274.631 3335.33 276.329 Q3337.35 277.998 3339.58 277.998 Q3341.98 277.998 3343.97 276.212 Q3345.99 274.397 3346.61 270.503 Q3347.28 266.668 3347.25 258.089 Q3347.25 249.745 3346.67 246.407 Q3345.87 242.513 3343.77 240.962 Q3341.69 239.381 3339.58 239.381 Q3338.79 239.381 3337.94 239.615 Q3337.12 239.849 3335.92 240.522 Q3334.72 241.196 3333.78 242.865 Q3332.88 244.534 3332.44 247.051 Q3331.97 250.301 3331.97 258.089 Z" fill="#000000" fill-rule="evenodd" fill-opacity="1" /><polyline clip-path="url(#clip890)" style="stroke:#3da44d; stroke-linecap:round; stroke-linejoin:round; stroke-width:5; stroke-opacity:1; fill:none" points="
  2760.34,328.255 2973.83,328.255 
  "/>
<circle clip-path="url(#clip890)" cx="2867.09" cy="328.255" r="23.721" fill="#3da44d" fill-rule="evenodd" fill-opacity="1" stroke="#000000" stroke-opacity="1" stroke-width="5.76"/>
<path clip-path="url(#clip890)" d="M3059.89 302.512 Q3059.89 303.712 3058.86 303.712 Q3055.56 303.829 3054.21 304.942 Q3052.89 306.025 3052.39 308.133 L3044.02 341.539 Q3043.73 342.593 3043.55 342.711 Q3043.38 342.798 3043.05 342.798 Q3042.64 342.798 3042.41 342.593 Q3042.21 342.388 3041.91 341.656 L3026.98 306.347 Q3026.86 306.113 3026.72 305.791 Q3026.57 305.469 3026.45 305.264 L3018.52 336.913 Q3018.29 337.821 3018.29 338.29 Q3018.29 339.431 3019.08 340.163 Q3019.9 340.866 3022.24 340.954 Q3023.44 340.954 3023.44 341.598 Q3023.44 342.798 3022.35 342.798 Q3021.36 342.798 3019.28 342.711 Q3017.2 342.623 3016.18 342.623 Q3015.18 342.623 3013.16 342.711 Q3011.14 342.798 3010.18 342.798 Q3009.41 342.798 3009.41 342.125 Q3009.41 341.598 3009.62 341.334 Q3009.82 341.042 3010 341.012 Q3010.18 340.954 3010.44 340.954 Q3012.2 340.895 3013.4 340.544 Q3014.6 340.193 3015.27 339.519 Q3015.97 338.846 3016.29 338.172 Q3016.65 337.47 3016.91 336.445 L3024.93 304.239 Q3024.93 303.712 3020.86 303.712 Q3020.16 303.712 3019.87 303.683 Q3019.6 303.654 3019.4 303.507 Q3019.19 303.361 3019.19 303.039 Q3019.19 302.219 3019.54 302.043 Q3019.9 301.838 3020.92 301.838 L3028.97 301.838 Q3030 301.838 3030.26 302.014 Q3030.52 302.16 3030.87 302.98 L3044.14 334.278 L3050.84 307.606 Q3051.02 307.079 3051.02 306.347 Q3051.02 305.176 3050.14 304.473 Q3049.29 303.741 3046.95 303.712 Q3045.87 303.712 3045.87 303.039 Q3045.87 302.482 3046.07 302.219 Q3046.3 301.926 3046.48 301.897 Q3046.68 301.838 3046.95 301.838 Q3047.94 301.838 3049.99 301.926 Q3052.04 302.014 3053.07 302.014 Q3054.06 302.014 3056.08 301.926 Q3058.13 301.838 3059.13 301.838 Q3059.48 301.838 3059.65 302.014 Q3059.86 302.16 3059.89 302.336 L3059.89 302.512 Z" fill="#000000" fill-rule="evenodd" fill-opacity="1" /><path clip-path="url(#clip890)" d="M3100.2 347.818 Q3100.2 347.982 3100.01 348.618 Q3099.83 349.253 3099.38 350.237 Q3098.95 351.221 3098.33 352.122 Q3097.74 353.004 3096.75 353.659 Q3095.79 354.295 3094.68 354.295 Q3093.21 354.295 3092.22 353.311 Q3091.24 352.327 3091.24 350.852 Q3091.24 350.052 3091.79 348.536 Q3094.4 341.609 3094.4 339.129 Q3094.4 336.198 3092.12 336.198 Q3090.83 336.198 3089.66 336.731 Q3088.49 337.264 3087.74 338.001 Q3086.98 338.739 3086.38 339.58 Q3085.79 340.42 3085.52 340.973 Q3085.28 341.527 3085.21 341.772 L3082.69 351.897 Q3082.49 352.758 3082.35 353.168 Q3082.2 353.577 3081.81 353.926 Q3081.42 354.295 3080.81 354.295 Q3080.3 354.295 3079.93 353.987 Q3079.58 353.68 3079.58 353.147 Q3079.58 353.065 3079.68 352.635 Q3079.78 352.204 3079.93 351.61 Q3080.07 351.016 3080.13 350.667 Q3080.87 347.88 3080.97 347.49 L3082.14 342.613 Q3082.78 340.194 3082.78 339.129 Q3082.78 336.198 3080.5 336.198 Q3079.37 336.198 3078.31 336.628 Q3077.26 337.038 3076.55 337.612 Q3075.83 338.186 3075.17 338.985 Q3074.54 339.764 3074.21 340.297 Q3073.9 340.809 3073.66 341.322 L3073.12 343.412 Q3073 343.986 3072.41 346.22 L3071.48 350.011 Q3070.83 352.84 3070.68 353.106 Q3070.48 353.68 3070.03 353.987 Q3069.58 354.295 3069.13 354.295 Q3068.61 354.295 3068.27 353.987 Q3067.92 353.68 3067.92 353.147 Q3067.92 353.065 3067.98 352.758 Q3068.04 352.45 3068.14 352.02 Q3068.24 351.589 3068.29 351.343 L3070.72 341.65 Q3071.18 339.887 3071.28 339.334 Q3071.4 338.76 3071.4 338.124 Q3071.4 336.198 3070.09 336.198 Q3069.02 336.198 3068.33 337.469 Q3067.63 338.739 3067.04 341.199 Q3066.85 341.875 3066.73 342.018 Q3066.63 342.162 3066.32 342.162 Q3065.81 342.141 3065.81 341.732 Q3065.81 341.629 3065.97 340.973 Q3066.13 340.317 3066.44 339.334 Q3066.77 338.329 3067.12 337.674 Q3067.32 337.243 3067.51 336.956 Q3067.69 336.669 3068.06 336.218 Q3068.43 335.768 3068.98 335.522 Q3069.54 335.276 3070.21 335.276 Q3071.71 335.276 3072.82 336.239 Q3073.94 337.202 3074.09 338.924 Q3076.81 335.276 3080.62 335.276 Q3082.78 335.276 3084.07 336.362 Q3085.28 337.407 3085.42 339.334 Q3088.25 335.276 3092.26 335.276 Q3094.58 335.276 3095.83 336.485 Q3097.08 337.674 3097.08 339.764 Q3097.08 340.85 3096.53 342.92 Q3095.97 344.97 3095.61 345.994 Q3095.24 347.019 3094.52 348.987 Q3093.76 350.872 3093.76 351.979 Q3093.76 352.696 3094.01 353.024 Q3094.25 353.352 3094.79 353.352 Q3095.61 353.352 3096.32 352.881 Q3097.04 352.389 3097.55 351.589 Q3098.09 350.77 3098.43 349.95 Q3098.78 349.11 3099.05 348.167 Q3099.21 347.654 3099.29 347.531 Q3099.4 347.409 3099.68 347.409 Q3100.2 347.409 3100.2 347.818 Z" fill="#000000" fill-rule="evenodd" fill-opacity="1" /><path clip-path="url(#clip890)" d="M3119.15 348.966 Q3119.31 349.151 3119.31 349.335 Q3119.31 349.519 3118.9 350.052 Q3118.51 350.585 3117.67 351.302 Q3116.83 352.02 3115.74 352.696 Q3114.66 353.372 3113.06 353.823 Q3111.46 354.295 3109.78 354.295 Q3106.65 354.295 3104.8 352.225 Q3102.98 350.155 3102.98 347.183 Q3102.98 344.293 3104.6 341.527 Q3106.21 338.739 3108.84 337.018 Q3111.46 335.276 3114.23 335.276 Q3116.42 335.276 3117.79 336.3 Q3119.17 337.325 3119.17 338.883 Q3119.17 340.092 3118.47 340.83 Q3117.77 341.568 3116.83 341.568 Q3116.18 341.568 3115.72 341.199 Q3115.27 340.809 3115.27 340.092 Q3115.27 339.17 3116.03 338.452 Q3116.32 338.165 3116.65 338.042 Q3116.99 337.899 3117.2 337.899 Q3117.4 337.879 3117.88 337.879 Q3117.45 337.079 3116.42 336.649 Q3115.42 336.198 3114.27 336.198 Q3112.57 336.198 3110.95 337.387 Q3109.33 338.555 3108.35 340.399 Q3107.36 342.203 3106.73 344.765 Q3106.09 347.306 3106.09 348.782 Q3106.09 350.811 3107.03 352.081 Q3107.98 353.352 3109.86 353.352 Q3110.23 353.352 3110.62 353.331 Q3111.03 353.311 3112.06 353.086 Q3113.1 352.86 3114.02 352.471 Q3114.95 352.081 3116.11 351.241 Q3117.3 350.38 3118.25 349.212 Q3118.57 348.782 3118.8 348.782 Q3118.98 348.782 3119.15 348.966 Z" fill="#000000" fill-rule="evenodd" fill-opacity="1" /><path clip-path="url(#clip890)" d="M3144 333.693 Q3144.06 332.961 3145.2 332.961 L3181.95 332.961 Q3183.67 332.961 3183.7 333.634 Q3183.7 334.366 3182.06 334.337 L3145.61 334.337 Q3144 334.366 3144 333.693 M3144 321.982 Q3144 321.25 3145.26 321.279 L3181.89 321.279 Q3183.67 321.279 3183.7 321.982 Q3183.7 322.655 3182.18 322.655 L3145.2 322.655 Q3144 322.655 3144 321.982 Z" fill="#000000" fill-rule="evenodd" fill-opacity="1" /><path clip-path="url(#clip890)" d="M3206.84 308.572 L3206.84 306.698 Q3214.04 306.698 3217.76 302.863 Q3218.79 302.863 3218.96 303.097 Q3219.14 303.332 3219.14 304.415 L3219.14 338.055 Q3219.14 339.841 3220.01 340.398 Q3220.89 340.954 3224.73 340.954 L3226.63 340.954 L3226.63 342.798 Q3224.52 342.623 3216.91 342.623 Q3209.3 342.623 3207.22 342.798 L3207.22 340.954 L3209.12 340.954 Q3212.9 340.954 3213.81 340.427 Q3214.72 339.871 3214.72 338.055 L3214.72 306.991 Q3211.58 308.572 3206.84 308.572 Z" fill="#000000" fill-rule="evenodd" fill-opacity="1" /><path clip-path="url(#clip890)" d="M3229.5 323.621 Q3229.5 314.809 3231.73 310.007 Q3234.83 302.863 3242.15 302.863 Q3243.7 302.863 3245.31 303.302 Q3246.95 303.712 3249 305.322 Q3251.08 306.933 3252.34 309.568 Q3254.74 314.662 3254.74 323.621 Q3254.74 332.375 3252.51 337.148 Q3249.26 344.116 3242.09 344.116 Q3239.4 344.116 3236.64 342.74 Q3233.92 341.364 3232.19 338.055 Q3229.5 333.107 3229.5 323.621 M3234.48 322.889 Q3234.48 331.936 3235.12 335.537 Q3235.85 339.431 3237.84 341.129 Q3239.86 342.798 3242.09 342.798 Q3244.49 342.798 3246.48 341.012 Q3248.5 339.197 3249.12 335.303 Q3249.79 331.468 3249.76 322.889 Q3249.76 314.545 3249.17 311.207 Q3248.38 307.313 3246.28 305.762 Q3244.2 304.181 3242.09 304.181 Q3241.3 304.181 3240.45 304.415 Q3239.63 304.649 3238.43 305.322 Q3237.23 305.996 3236.29 307.665 Q3235.38 309.334 3234.95 311.851 Q3234.48 315.101 3234.48 322.889 Z" fill="#000000" fill-rule="evenodd" fill-opacity="1" /><path clip-path="url(#clip890)" d="M3259.44 323.621 Q3259.44 314.809 3261.66 310.007 Q3264.76 302.863 3272.08 302.863 Q3273.64 302.863 3275.25 303.302 Q3276.89 303.712 3278.93 305.322 Q3281.01 306.933 3282.27 309.568 Q3284.67 314.662 3284.67 323.621 Q3284.67 332.375 3282.45 337.148 Q3279.2 344.116 3272.02 344.116 Q3269.33 344.116 3266.58 342.74 Q3263.86 341.364 3262.13 338.055 Q3259.44 333.107 3259.44 323.621 M3264.41 322.889 Q3264.41 331.936 3265.06 335.537 Q3265.79 339.431 3267.78 341.129 Q3269.8 342.798 3272.02 342.798 Q3274.43 342.798 3276.42 341.012 Q3278.44 339.197 3279.05 335.303 Q3279.73 331.468 3279.7 322.889 Q3279.7 314.545 3279.11 311.207 Q3278.32 307.313 3276.21 305.762 Q3274.13 304.181 3272.02 304.181 Q3271.23 304.181 3270.39 304.415 Q3269.57 304.649 3268.37 305.322 Q3267.16 305.996 3266.23 307.665 Q3265.32 309.334 3264.88 311.851 Q3264.41 315.101 3264.41 322.889 Z" fill="#000000" fill-rule="evenodd" fill-opacity="1" /><path clip-path="url(#clip890)" d="M3297.06 323.621 Q3297.06 314.809 3299.28 310.007 Q3302.38 302.863 3309.7 302.863 Q3311.25 302.863 3312.87 303.302 Q3314.5 303.712 3316.55 305.322 Q3318.63 306.933 3319.89 309.568 Q3322.29 314.662 3322.29 323.621 Q3322.29 332.375 3320.07 337.148 Q3316.82 344.116 3309.64 344.116 Q3306.95 344.116 3304.2 342.74 Q3301.48 341.364 3299.75 338.055 Q3297.06 333.107 3297.06 323.621 M3302.03 322.889 Q3302.03 331.936 3302.68 335.537 Q3303.41 339.431 3305.4 341.129 Q3307.42 342.798 3309.64 342.798 Q3312.05 342.798 3314.04 341.012 Q3316.06 339.197 3316.67 335.303 Q3317.34 331.468 3317.32 322.889 Q3317.32 314.545 3316.73 311.207 Q3315.94 307.313 3313.83 305.762 Q3311.75 304.181 3309.64 304.181 Q3308.85 304.181 3308.01 304.415 Q3307.19 304.649 3305.98 305.322 Q3304.78 305.996 3303.85 307.665 Q3302.94 309.334 3302.5 311.851 Q3302.03 315.101 3302.03 322.889 Z" fill="#000000" fill-rule="evenodd" fill-opacity="1" /><path clip-path="url(#clip890)" d="M3326.99 323.621 Q3326.99 314.809 3329.22 310.007 Q3332.32 302.863 3339.64 302.863 Q3341.19 302.863 3342.8 303.302 Q3344.44 303.712 3346.49 305.322 Q3348.57 306.933 3349.83 309.568 Q3352.23 314.662 3352.23 323.621 Q3352.23 332.375 3350 337.148 Q3346.75 344.116 3339.58 344.116 Q3336.89 344.116 3334.13 342.74 Q3331.41 341.364 3329.68 338.055 Q3326.99 333.107 3326.99 323.621 M3331.97 322.889 Q3331.97 331.936 3332.61 335.537 Q3333.34 339.431 3335.33 341.129 Q3337.35 342.798 3339.58 342.798 Q3341.98 342.798 3343.97 341.012 Q3345.99 339.197 3346.61 335.303 Q3347.28 331.468 3347.25 322.889 Q3347.25 314.545 3346.67 311.207 Q3345.87 307.313 3343.77 305.762 Q3341.69 304.181 3339.58 304.181 Q3338.79 304.181 3337.94 304.415 Q3337.12 304.649 3335.92 305.322 Q3334.72 305.996 3333.78 307.665 Q3332.88 309.334 3332.44 311.851 Q3331.97 315.101 3331.97 322.889 Z" fill="#000000" fill-rule="evenodd" fill-opacity="1" /><path clip-path="url(#clip890)" d="M3356.93 323.621 Q3356.93 314.809 3359.15 310.007 Q3362.25 302.863 3369.57 302.863 Q3371.13 302.863 3372.74 303.302 Q3374.38 303.712 3376.42 305.322 Q3378.5 306.933 3379.76 309.568 Q3382.16 314.662 3382.16 323.621 Q3382.16 332.375 3379.94 337.148 Q3376.69 344.116 3369.52 344.116 Q3366.82 344.116 3364.07 342.74 Q3361.35 341.364 3359.62 338.055 Q3356.93 333.107 3356.93 323.621 M3361.9 322.889 Q3361.9 331.936 3362.55 335.537 Q3363.28 339.431 3365.27 341.129 Q3367.29 342.798 3369.52 342.798 Q3371.92 342.798 3373.91 341.012 Q3375.93 339.197 3376.54 335.303 Q3377.22 331.468 3377.19 322.889 Q3377.19 314.545 3376.6 311.207 Q3375.81 307.313 3373.7 305.762 Q3371.62 304.181 3369.52 304.181 Q3368.72 304.181 3367.88 304.415 Q3367.06 304.649 3365.86 305.322 Q3364.66 305.996 3363.72 307.665 Q3362.81 309.334 3362.37 311.851 Q3361.9 315.101 3361.9 322.889 Z" fill="#000000" fill-rule="evenodd" fill-opacity="1" /></svg>
