<?xml version="1.0" encoding="utf-8"?>
<svg xmlns="http://www.w3.org/2000/svg" xmlns:xlink="http://www.w3.org/1999/xlink" width="900" height="300" viewBox="0 0 3600 1200">
<defs>
  <clipPath id="clip500">
    <rect x="0" y="0" width="3600" height="1200"/>
  </clipPath>
</defs>
<path clip-path="url(#clip500)" d="
M0 1200 L3600 1200 L3600 0 L0 0  Z
  " fill="#ffffff" fill-rule="evenodd" fill-opacity="1"/>
<defs>
  <clipPath id="clip501">
    <rect x="720" y="0" width="2521" height="1200"/>
  </clipPath>
</defs>
<defs>
  <clipPath id="clip502">
    <rect x="324" y="110" width="3166" height="885"/>
  </clipPath>
</defs>
<path clip-path="url(#clip500)" d="
M324.413 994.428 L3489.76 994.428 L3489.76 110.236 L324.413 110.236  Z
  " fill="#ffffff" fill-rule="evenodd" fill-opacity="1"/>
<polyline clip-path="url(#clip502)" style="stroke:#000000; stroke-linecap:butt; stroke-linejoin:round; stroke-width:2; stroke-opacity:0.1; fill:none" points="
  571.165,994.428 571.165,110.236 
  "/>
<polyline clip-path="url(#clip502)" style="stroke:#000000; stroke-linecap:butt; stroke-linejoin:round; stroke-width:2; stroke-opacity:0.1; fill:none" points="
  885.5,994.428 885.5,110.236 
  "/>
<polyline clip-path="url(#clip502)" style="stroke:#000000; stroke-linecap:butt; stroke-linejoin:round; stroke-width:2; stroke-opacity:0.1; fill:none" points="
  1199.83,994.428 1199.83,110.236 
  "/>
<polyline clip-path="url(#clip502)" style="stroke:#000000; stroke-linecap:butt; stroke-linejoin:round; stroke-width:2; stroke-opacity:0.1; fill:none" points="
  1514.17,994.428 1514.17,110.236 
  "/>
<polyline clip-path="url(#clip502)" style="stroke:#000000; stroke-linecap:butt; stroke-linejoin:round; stroke-width:2; stroke-opacity:0.1; fill:none" points="
  1828.5,994.428 1828.5,110.236 
  "/>
<polyline clip-path="url(#clip502)" style="stroke:#000000; stroke-linecap:butt; stroke-linejoin:round; stroke-width:2; stroke-opacity:0.1; fill:none" points="
  2142.84,994.428 2142.84,110.236 
  "/>
<polyline clip-path="url(#clip502)" style="stroke:#000000; stroke-linecap:butt; stroke-linejoin:round; stroke-width:2; stroke-opacity:0.1; fill:none" points="
  2457.17,994.428 2457.17,110.236 
  "/>
<polyline clip-path="url(#clip502)" style="stroke:#000000; stroke-linecap:butt; stroke-linejoin:round; stroke-width:2; stroke-opacity:0.1; fill:none" points="
  2771.51,994.428 2771.51,110.236 
  "/>
<polyline clip-path="url(#clip502)" style="stroke:#000000; stroke-linecap:butt; stroke-linejoin:round; stroke-width:2; stroke-opacity:0.1; fill:none" points="
  3085.84,994.428 3085.84,110.236 
  "/>
<polyline clip-path="url(#clip502)" style="stroke:#000000; stroke-linecap:butt; stroke-linejoin:round; stroke-width:2; stroke-opacity:0.1; fill:none" points="
  3400.18,994.428 3400.18,110.236 
  "/>
<polyline clip-path="url(#clip500)" style="stroke:#000000; stroke-linecap:butt; stroke-linejoin:round; stroke-width:4; stroke-opacity:1; fill:none" points="
  324.413,994.428 3489.76,994.428 
  "/>
<polyline clip-path="url(#clip500)" style="stroke:#000000; stroke-linecap:butt; stroke-linejoin:round; stroke-width:4; stroke-opacity:1; fill:none" points="
  324.413,110.236 3489.76,110.236 
  "/>
<polyline clip-path="url(#clip500)" style="stroke:#000000; stroke-linecap:butt; stroke-linejoin:round; stroke-width:4; stroke-opacity:1; fill:none" points="
  571.165,994.428 571.165,975.53 
  "/>
<polyline clip-path="url(#clip500)" style="stroke:#000000; stroke-linecap:butt; stroke-linejoin:round; stroke-width:4; stroke-opacity:1; fill:none" points="
  885.5,994.428 885.5,975.53 
  "/>
<polyline clip-path="url(#clip500)" style="stroke:#000000; stroke-linecap:butt; stroke-linejoin:round; stroke-width:4; stroke-opacity:1; fill:none" points="
  1199.83,994.428 1199.83,975.53 
  "/>
<polyline clip-path="url(#clip500)" style="stroke:#000000; stroke-linecap:butt; stroke-linejoin:round; stroke-width:4; stroke-opacity:1; fill:none" points="
  1514.17,994.428 1514.17,975.53 
  "/>
<polyline clip-path="url(#clip500)" style="stroke:#000000; stroke-linecap:butt; stroke-linejoin:round; stroke-width:4; stroke-opacity:1; fill:none" points="
  1828.5,994.428 1828.5,975.53 
  "/>
<polyline clip-path="url(#clip500)" style="stroke:#000000; stroke-linecap:butt; stroke-linejoin:round; stroke-width:4; stroke-opacity:1; fill:none" points="
  2142.84,994.428 2142.84,975.53 
  "/>
<polyline clip-path="url(#clip500)" style="stroke:#000000; stroke-linecap:butt; stroke-linejoin:round; stroke-width:4; stroke-opacity:1; fill:none" points="
  2457.17,994.428 2457.17,975.53 
  "/>
<polyline clip-path="url(#clip500)" style="stroke:#000000; stroke-linecap:butt; stroke-linejoin:round; stroke-width:4; stroke-opacity:1; fill:none" points="
  2771.51,994.428 2771.51,975.53 
  "/>
<polyline clip-path="url(#clip500)" style="stroke:#000000; stroke-linecap:butt; stroke-linejoin:round; stroke-width:4; stroke-opacity:1; fill:none" points="
  3085.84,994.428 3085.84,975.53 
  "/>
<polyline clip-path="url(#clip500)" style="stroke:#000000; stroke-linecap:butt; stroke-linejoin:round; stroke-width:4; stroke-opacity:1; fill:none" points="
  3400.18,994.428 3400.18,975.53 
  "/>
<path clip-path="url(#clip500)" d="M560.728 1041.13 L560.728 1039.15 Q568.324 1039.15 572.246 1035.11 Q573.327 1035.11 573.512 1035.36 Q573.697 1035.6 573.697 1036.75 L573.697 1072.23 Q573.697 1074.11 574.624 1074.7 Q575.55 1075.28 579.595 1075.28 L581.603 1075.28 L581.603 1077.23 Q579.379 1077.04 571.351 1077.04 Q563.322 1077.04 561.13 1077.23 L561.13 1075.28 L563.137 1075.28 Q567.12 1075.28 568.077 1074.73 Q569.035 1074.14 569.035 1072.23 L569.035 1039.46 Q565.731 1041.13 560.728 1041.13 Z" fill="#000000" fill-rule="evenodd" fill-opacity="1" /><path clip-path="url(#clip500)" d="M872.871 1077.23 Q872.871 1076.09 872.963 1075.75 Q873.087 1075.41 873.581 1074.88 L885.716 1061.36 Q892.355 1053.88 892.355 1047.37 Q892.355 1043.14 890.132 1040.11 Q887.94 1037.08 883.894 1037.08 Q881.115 1037.08 878.768 1038.78 Q876.422 1040.48 875.341 1043.51 Q875.526 1043.45 876.175 1043.45 Q877.749 1043.45 878.614 1044.43 Q879.51 1045.42 879.51 1046.75 Q879.51 1048.45 878.398 1049.28 Q877.317 1050.08 876.236 1050.08 Q875.804 1050.08 875.217 1049.99 Q874.662 1049.9 873.766 1049.04 Q872.871 1048.14 872.871 1046.56 Q872.871 1042.15 876.205 1038.63 Q879.571 1035.11 884.697 1035.11 Q890.503 1035.11 894.301 1038.57 Q898.13 1041.99 898.13 1047.37 Q898.13 1049.25 897.543 1050.98 Q896.987 1052.68 896.215 1054.01 Q895.474 1055.33 893.436 1057.47 Q891.398 1059.6 889.761 1061.11 Q888.125 1062.62 884.45 1065.83 L877.749 1072.35 L889.144 1072.35 Q894.702 1072.35 895.134 1071.85 Q895.752 1070.96 896.524 1066.23 L898.13 1066.23 L896.339 1077.23 L872.871 1077.23 Z" fill="#000000" fill-rule="evenodd" fill-opacity="1" /><path clip-path="url(#clip500)" d="M1186.71 1068.71 Q1186.71 1066.82 1187.79 1065.93 Q1188.87 1065.03 1190.26 1065.03 Q1191.71 1065.03 1192.73 1065.99 Q1193.78 1066.91 1193.78 1068.55 Q1193.78 1070.31 1192.55 1071.3 Q1191.34 1072.29 1189.61 1072.04 Q1191.13 1074.57 1193.91 1075.71 Q1196.72 1076.86 1199.31 1076.86 Q1202.03 1076.86 1204.22 1074.51 Q1206.44 1072.16 1206.44 1066.42 Q1206.44 1061.54 1204.53 1058.73 Q1202.64 1055.92 1198.91 1055.92 L1196.13 1055.92 Q1195.17 1055.92 1194.89 1055.83 Q1194.62 1055.74 1194.62 1055.21 Q1194.62 1054.59 1195.57 1054.47 Q1196.53 1054.47 1198.04 1054.28 Q1201.72 1054.16 1203.66 1050.98 Q1205.42 1048.02 1205.42 1043.79 Q1205.42 1039.93 1203.57 1038.32 Q1201.75 1036.68 1199.37 1036.68 Q1197.15 1036.68 1194.71 1037.61 Q1192.27 1038.54 1190.94 1040.6 Q1194.86 1040.6 1194.86 1043.79 Q1194.86 1045.18 1193.97 1046.1 Q1193.1 1047 1191.65 1047 Q1190.26 1047 1189.34 1046.13 Q1188.41 1045.24 1188.41 1043.72 Q1188.41 1040.11 1191.62 1037.61 Q1194.86 1035.11 1199.62 1035.11 Q1204.31 1035.11 1207.77 1037.58 Q1211.26 1040.05 1211.26 1043.85 Q1211.26 1047.58 1208.79 1050.64 Q1206.32 1053.7 1202.4 1054.96 Q1207.22 1055.92 1210.09 1059.19 Q1212.96 1062.44 1212.96 1066.42 Q1212.96 1071.36 1209.07 1075 Q1205.18 1078.62 1199.5 1078.62 Q1194.25 1078.62 1190.48 1075.78 Q1186.71 1072.94 1186.71 1068.71 Z" fill="#000000" fill-rule="evenodd" fill-opacity="1" /><path clip-path="url(#clip500)" d="M1500.15 1066.79 L1500.15 1064.85 L1519.57 1035.17 Q1520.07 1034.4 1520.84 1034.43 Q1521.55 1034.43 1521.7 1034.71 Q1521.86 1034.98 1521.86 1036.07 L1521.86 1064.85 L1528.19 1064.85 L1528.19 1066.79 L1521.86 1066.79 L1521.86 1072.29 Q1521.86 1074.11 1522.6 1074.7 Q1523.37 1075.28 1526.64 1075.28 L1527.97 1075.28 L1527.97 1077.23 Q1525.38 1077.04 1519.39 1077.04 Q1513.43 1077.04 1510.83 1077.23 L1510.83 1075.28 L1512.16 1075.28 Q1515.44 1075.28 1516.21 1074.73 Q1516.98 1074.14 1516.98 1072.29 L1516.98 1066.79 L1500.15 1066.79 M1501.94 1064.85 L1517.35 1064.85 L1517.35 1041.25 L1501.94 1064.85 Z" fill="#000000" fill-rule="evenodd" fill-opacity="1" /><path clip-path="url(#clip500)" d="M1815.87 1067.04 Q1815.87 1065.15 1816.89 1064.44 Q1817.91 1063.7 1818.99 1063.7 Q1820.44 1063.7 1821.28 1064.63 Q1822.14 1065.52 1822.14 1066.79 Q1822.14 1068.06 1821.28 1068.98 Q1820.44 1069.88 1818.99 1069.88 Q1818.28 1069.88 1817.91 1069.75 Q1818.75 1072.66 1821.28 1074.76 Q1823.84 1076.86 1827.21 1076.86 Q1831.44 1076.86 1833.97 1072.75 Q1835.48 1070.09 1835.48 1064.07 Q1835.48 1058.76 1834.34 1056.11 Q1832.58 1052.06 1828.97 1052.06 Q1823.84 1052.06 1820.82 1056.48 Q1820.44 1057.03 1820.01 1057.06 Q1819.4 1057.06 1819.24 1056.72 Q1819.12 1056.35 1819.12 1055.4 L1819.12 1036.68 Q1819.12 1035.17 1819.73 1035.17 Q1819.98 1035.17 1820.51 1035.36 Q1824.49 1037.12 1828.91 1037.15 Q1833.45 1037.15 1837.52 1035.29 Q1837.83 1035.11 1838.02 1035.11 Q1838.63 1035.11 1838.66 1035.82 Q1838.66 1036.07 1838.14 1036.81 Q1837.64 1037.52 1836.56 1038.47 Q1835.48 1039.4 1834.09 1040.3 Q1832.7 1041.19 1830.67 1041.81 Q1828.66 1042.4 1826.44 1042.4 Q1823.78 1042.4 1821.06 1041.56 L1821.06 1053.88 Q1824.34 1050.67 1829.09 1050.67 Q1834.16 1050.67 1837.64 1054.75 Q1841.13 1058.82 1841.13 1064.51 Q1841.13 1070.47 1837 1074.54 Q1832.89 1078.62 1827.33 1078.62 Q1822.27 1078.62 1819.06 1075 Q1815.87 1071.39 1815.87 1067.04 Z" fill="#000000" fill-rule="evenodd" fill-opacity="1" /><path clip-path="url(#clip500)" d="M2129.72 1057.25 Q2129.72 1047.31 2134.78 1041.22 Q2139.84 1035.11 2146.36 1035.11 Q2150.16 1035.11 2152.26 1037.05 Q2154.39 1038.97 2154.39 1041.93 Q2154.39 1043.57 2153.43 1044.28 Q2152.47 1044.99 2151.49 1044.99 Q2150.34 1044.99 2149.45 1044.22 Q2148.55 1043.45 2148.55 1042.06 Q2148.55 1039.22 2152.04 1039.22 Q2150.4 1036.68 2146.48 1036.68 Q2145.28 1036.68 2144.04 1037.05 Q2142.81 1037.39 2141.2 1038.57 Q2139.6 1039.74 2138.36 1041.59 Q2137.13 1043.45 2136.26 1046.94 Q2135.4 1050.42 2135.4 1054.96 L2135.4 1056.48 Q2137.99 1050.21 2143.3 1050.24 Q2148.61 1050.24 2152.29 1054.28 Q2155.96 1058.33 2155.96 1064.32 Q2155.96 1070.47 2152.13 1074.54 Q2148.3 1078.62 2142.93 1078.62 Q2140.52 1078.62 2138.33 1077.6 Q2136.17 1076.61 2134.13 1074.33 Q2132.12 1072.04 2130.92 1067.66 Q2129.72 1063.27 2129.72 1057.25 M2135.52 1062.93 Q2135.52 1069.14 2136.66 1072.1 Q2136.85 1072.6 2137.25 1073.28 Q2137.68 1073.95 2138.39 1074.85 Q2139.13 1075.71 2140.34 1076.3 Q2141.54 1076.86 2142.93 1076.86 Q2147.16 1076.86 2149.2 1072.75 Q2150.28 1070.47 2150.28 1064.26 Q2150.28 1057.93 2149.14 1055.61 Q2147.19 1051.69 2143.24 1051.69 Q2140.59 1051.69 2138.73 1053.51 Q2136.91 1055.33 2136.2 1057.77 Q2135.52 1060.21 2135.52 1062.93 Z" fill="#000000" fill-rule="evenodd" fill-opacity="1" /><path clip-path="url(#clip500)" d="M2443.62 1047.49 L2445.69 1034.49 L2447.26 1034.49 Q2447.45 1035.26 2447.76 1035.6 Q2448.1 1035.94 2449.89 1036.22 Q2451.71 1036.5 2455.38 1036.5 L2470.73 1036.5 Q2470.73 1037.95 2470.17 1038.72 L2461.62 1050.73 Q2458.9 1054.53 2457.7 1061.54 Q2456.99 1066.23 2457.02 1071.92 L2457.02 1075.13 Q2457.02 1078.62 2454.09 1078.62 Q2451.18 1078.62 2451.18 1075.13 Q2451.18 1063.05 2458.97 1051.35 Q2459.8 1050.15 2462.86 1045.85 Q2465.94 1041.56 2466.07 1041.38 L2452.97 1041.38 Q2447.23 1041.38 2446.77 1041.75 Q2446.15 1042.3 2445.19 1047.49 L2443.62 1047.49 Z" fill="#000000" fill-rule="evenodd" fill-opacity="1" /><path clip-path="url(#clip500)" d="M2758.39 1067.69 Q2758.39 1060.61 2767.49 1056.04 Q2763.57 1053.39 2762.86 1052.62 Q2760.08 1049.53 2760.08 1045.67 Q2760.08 1041.25 2763.42 1038.2 Q2766.78 1035.11 2771.54 1035.11 Q2776.08 1035.11 2779.51 1037.73 Q2782.93 1040.36 2782.93 1044.53 Q2782.93 1050.39 2775.28 1054.35 Q2780.34 1057.5 2781.54 1058.82 Q2784.63 1062.25 2784.63 1066.61 Q2784.63 1071.67 2780.74 1075.16 Q2776.85 1078.62 2771.48 1078.62 Q2766.23 1078.62 2762.31 1075.56 Q2758.39 1072.5 2758.39 1067.69 M2761.53 1067.69 Q2761.53 1071.61 2764.47 1074.23 Q2767.43 1076.86 2771.54 1076.86 Q2775.52 1076.86 2778.49 1074.57 Q2781.48 1072.29 2781.48 1068.89 Q2781.48 1067.56 2781.02 1066.42 Q2780.59 1065.28 2779.69 1064.38 Q2778.83 1063.46 2778.27 1063.05 Q2777.75 1062.62 2776.73 1061.91 L2768.95 1057 Q2761.53 1061.11 2761.53 1067.69 M2762.86 1043.2 Q2762.86 1046.23 2766.04 1048.32 L2773.89 1053.39 Q2780.15 1049.71 2780.15 1044.53 Q2780.15 1041.16 2777.59 1038.94 Q2775.03 1036.68 2771.48 1036.68 Q2767.99 1036.68 2765.43 1038.54 Q2762.86 1040.36 2762.86 1043.2 Z" fill="#000000" fill-rule="evenodd" fill-opacity="1" /><path clip-path="url(#clip500)" d="M3072.72 1049.34 Q3072.72 1045.98 3073.71 1043.69 Q3074.7 1041.38 3076.77 1039.09 Q3080.56 1035.11 3086.06 1035.11 Q3088.41 1035.11 3090.48 1036.1 Q3092.58 1037.08 3094.55 1039.34 Q3096.56 1041.56 3097.76 1045.98 Q3098.97 1050.36 3098.97 1056.42 Q3098.97 1066.2 3094.21 1072.41 Q3089.49 1078.62 3083.1 1078.62 Q3079.05 1078.62 3076.67 1076.8 Q3074.29 1074.94 3074.29 1071.79 Q3074.29 1070.16 3075.22 1069.48 Q3076.15 1068.77 3077.2 1068.77 Q3078.34 1068.77 3079.24 1069.54 Q3080.13 1070.28 3080.13 1071.67 Q3080.13 1072.81 3079.39 1073.71 Q3078.68 1074.57 3076.83 1074.57 Q3078.65 1076.86 3083.03 1076.86 Q3084.61 1076.86 3086.18 1076.15 Q3087.76 1075.41 3089.46 1073.65 Q3091.19 1071.85 3092.24 1068.12 Q3093.29 1064.38 3093.29 1059.13 L3093.29 1057.13 Q3090.75 1063.46 3085.38 1063.46 Q3080.07 1063.46 3076.39 1059.38 Q3072.72 1055.3 3072.72 1049.34 M3078.4 1049.41 Q3078.4 1055.67 3079.54 1057.99 Q3081.49 1061.97 3085.44 1061.97 Q3089.3 1061.97 3091.22 1058.55 Q3093.16 1055.09 3093.16 1050.61 Q3093.16 1044.4 3092.14 1041.69 Q3090.26 1036.68 3086.06 1036.68 Q3081.89 1036.68 3079.73 1040.67 Q3078.4 1043.01 3078.4 1049.41 Z" fill="#000000" fill-rule="evenodd" fill-opacity="1" /><path clip-path="url(#clip500)" d="M3372.63 1041.13 L3372.63 1039.15 Q3380.23 1039.15 3384.15 1035.11 Q3385.23 1035.11 3385.42 1035.36 Q3385.6 1035.6 3385.6 1036.75 L3385.6 1072.23 Q3385.6 1074.11 3386.53 1074.7 Q3387.46 1075.28 3391.5 1075.28 L3393.51 1075.28 L3393.51 1077.23 Q3391.29 1077.04 3383.26 1077.04 Q3375.23 1077.04 3373.04 1077.23 L3373.04 1075.28 L3375.04 1075.28 Q3379.03 1075.28 3379.98 1074.73 Q3380.94 1074.14 3380.94 1072.23 L3380.94 1039.46 Q3377.64 1041.13 3372.63 1041.13 Z" fill="#000000" fill-rule="evenodd" fill-opacity="1" /><path clip-path="url(#clip500)" d="M3401.1 1057 Q3401.1 1047.71 3403.45 1042.64 Q3406.72 1035.11 3414.44 1035.11 Q3416.08 1035.11 3417.78 1035.57 Q3419.51 1036 3421.67 1037.7 Q3423.86 1039.4 3425.19 1042.18 Q3427.72 1047.55 3427.72 1057 Q3427.72 1066.23 3425.38 1071.27 Q3421.95 1078.62 3414.38 1078.62 Q3411.54 1078.62 3408.64 1077.17 Q3405.77 1075.71 3403.95 1072.23 Q3401.1 1067.01 3401.1 1057 M3406.35 1056.23 Q3406.35 1065.77 3407.03 1069.57 Q3407.81 1073.68 3409.91 1075.47 Q3412.04 1077.23 3414.38 1077.23 Q3416.91 1077.23 3419.01 1075.34 Q3421.15 1073.43 3421.79 1069.32 Q3422.5 1065.28 3422.47 1056.23 Q3422.47 1047.43 3421.86 1043.91 Q3421.02 1039.8 3418.8 1038.17 Q3416.61 1036.5 3414.38 1036.5 Q3413.55 1036.5 3412.65 1036.75 Q3411.79 1036.99 3410.52 1037.7 Q3409.26 1038.41 3408.27 1040.17 Q3407.31 1041.93 3406.85 1044.59 Q3406.35 1048.02 3406.35 1056.23 Z" fill="#000000" fill-rule="evenodd" fill-opacity="1" /><path clip-path="url(#clip500)" d="M1943.26 1121.51 Q1943.26 1122.04 1943.13 1122.41 Q1943.01 1122.74 1942.72 1122.9 Q1942.44 1123.07 1942.27 1123.11 Q1942.11 1123.15 1941.74 1123.19 Q1939.98 1123.35 1938.75 1123.64 Q1937.56 1123.93 1934.61 1125.4 Q1931.7 1126.88 1928.05 1129.54 L1913.38 1140.9 L1910.92 1142.82 Q1910.92 1142.95 1911 1143.19 Q1911.08 1143.4 1911.16 1143.68 Q1911.29 1143.93 1911.33 1144.01 L1923.26 1171.52 Q1924.2 1173.73 1925.35 1174.51 Q1926.49 1175.29 1929.08 1175.33 Q1929.49 1175.33 1929.65 1175.37 Q1929.85 1175.37 1930.14 1175.45 Q1930.47 1175.49 1930.59 1175.7 Q1930.76 1175.9 1930.76 1176.23 Q1930.76 1177.91 1929.24 1177.91 Q1928.3 1177.91 1925.1 1177.79 Q1921.9 1177.66 1921 1177.66 Q1919.32 1177.66 1915.88 1177.79 Q1912.43 1177.91 1910.75 1177.91 Q1909.56 1177.91 1909.56 1176.97 Q1909.56 1176.19 1909.85 1175.82 Q1910.18 1175.41 1910.47 1175.37 Q1910.75 1175.33 1911.41 1175.33 Q1911.9 1175.33 1912.43 1175.29 Q1913.01 1175.2 1913.83 1175 Q1914.69 1174.75 1915.22 1174.18 Q1915.8 1173.57 1915.8 1172.7 Q1915.8 1172.01 1914.77 1169.75 L1905.06 1147.17 L1892.55 1156.92 L1889.19 1170.12 Q1889.11 1170.61 1888.91 1171.47 Q1888.7 1172.34 1888.54 1172.95 Q1888.41 1173.57 1888.41 1173.81 Q1888.41 1174.34 1888.74 1174.67 Q1889.11 1175 1890.01 1175.16 Q1890.91 1175.29 1891.61 1175.33 Q1892.35 1175.33 1893.87 1175.33 Q1895.75 1175.33 1896.08 1175.66 Q1896.24 1175.86 1896.24 1176.23 Q1896.24 1176.8 1896.08 1177.21 Q1895.92 1177.58 1895.59 1177.71 Q1895.3 1177.83 1895.1 1177.87 Q1894.89 1177.91 1894.56 1177.91 Q1893.7 1177.91 1891.86 1177.83 Q1890.05 1177.75 1889.11 1177.75 L1883.74 1177.66 L1873.08 1177.91 Q1871.81 1177.91 1871.81 1176.89 Q1871.81 1176.11 1872.14 1175.78 Q1872.47 1175.41 1872.84 1175.37 Q1873.21 1175.33 1874.15 1175.33 Q1876.2 1175.33 1877.43 1175.2 Q1878.66 1175.08 1879.44 1174.92 Q1880.26 1174.71 1880.67 1174.14 Q1881.12 1173.57 1881.32 1173.07 Q1881.53 1172.54 1881.81 1171.35 L1893.05 1126.26 Q1893.37 1124.91 1893.37 1124.71 Q1893.37 1124.01 1892.96 1123.76 Q1892.6 1123.48 1891.53 1123.35 Q1889.48 1123.19 1887.92 1123.19 Q1886.9 1123.19 1886.49 1123.15 Q1886.12 1123.11 1885.79 1122.9 Q1885.5 1122.66 1885.5 1122.16 Q1885.5 1120.57 1887.18 1120.57 L1898.01 1120.81 L1908.74 1120.57 Q1909.93 1120.57 1909.93 1121.51 Q1909.93 1122.7 1909.36 1122.94 Q1908.83 1123.19 1907.06 1123.19 Q1903.99 1123.19 1902.6 1123.6 Q1901.24 1123.97 1900.83 1124.62 Q1900.47 1125.24 1900.01 1127.04 L1893.29 1153.97 L1926.04 1128.81 Q1929.08 1126.26 1929.08 1124.95 Q1929.08 1124.09 1928.46 1123.72 Q1927.89 1123.31 1926.45 1123.19 Q1925.43 1123.03 1925.43 1122.25 Q1925.43 1121.47 1925.71 1121.1 Q1926.04 1120.69 1926.29 1120.65 Q1926.58 1120.57 1927.03 1120.57 Q1928.54 1120.57 1931.7 1120.69 Q1934.86 1120.81 1936.37 1120.81 Q1937.4 1120.81 1939.4 1120.69 Q1941.41 1120.57 1942.32 1120.57 Q1942.77 1120.57 1943.01 1120.89 Q1943.26 1121.18 1943.26 1121.51 Z" fill="#000000" fill-rule="evenodd" fill-opacity="1" /><polyline clip-path="url(#clip502)" style="stroke:#000000; stroke-linecap:butt; stroke-linejoin:round; stroke-width:2; stroke-opacity:0.1; fill:none" points="
  324.413,994.428 3489.76,994.428 
  "/>
<polyline clip-path="url(#clip502)" style="stroke:#000000; stroke-linecap:butt; stroke-linejoin:round; stroke-width:2; stroke-opacity:0.1; fill:none" points="
  324.413,654.623 3489.76,654.623 
  "/>
<polyline clip-path="url(#clip502)" style="stroke:#000000; stroke-linecap:butt; stroke-linejoin:round; stroke-width:2; stroke-opacity:0.1; fill:none" points="
  324.413,314.819 3489.76,314.819 
  "/>
<polyline clip-path="url(#clip500)" style="stroke:#000000; stroke-linecap:butt; stroke-linejoin:round; stroke-width:4; stroke-opacity:1; fill:none" points="
  324.413,994.428 324.413,110.236 
  "/>
<polyline clip-path="url(#clip500)" style="stroke:#000000; stroke-linecap:butt; stroke-linejoin:round; stroke-width:4; stroke-opacity:1; fill:none" points="
  3489.76,994.428 3489.76,110.236 
  "/>
<polyline clip-path="url(#clip500)" style="stroke:#000000; stroke-linecap:butt; stroke-linejoin:round; stroke-width:4; stroke-opacity:1; fill:none" points="
  324.413,994.428 343.31,994.428 
  "/>
<polyline clip-path="url(#clip500)" style="stroke:#000000; stroke-linecap:butt; stroke-linejoin:round; stroke-width:4; stroke-opacity:1; fill:none" points="
  324.413,654.623 343.31,654.623 
  "/>
<polyline clip-path="url(#clip500)" style="stroke:#000000; stroke-linecap:butt; stroke-linejoin:round; stroke-width:4; stroke-opacity:1; fill:none" points="
  324.413,314.819 343.31,314.819 
  "/>
<path clip-path="url(#clip500)" d="M156.715 987.989 L156.715 986.013 Q164.312 986.013 168.233 981.968 Q169.314 981.968 169.499 982.215 Q169.685 982.462 169.685 983.605 L169.685 1019.08 Q169.685 1020.97 170.611 1021.56 Q171.537 1022.14 175.583 1022.14 L177.59 1022.14 L177.59 1024.09 Q175.366 1023.9 167.338 1023.9 Q159.309 1023.9 157.117 1024.09 L157.117 1022.14 L159.124 1022.14 Q163.107 1022.14 164.065 1021.59 Q165.022 1021 165.022 1019.08 L165.022 986.322 Q161.718 987.989 156.715 987.989 Z" fill="#000000" fill-rule="evenodd" fill-opacity="1" /><path clip-path="url(#clip500)" d="M185.186 1003.86 Q185.186 994.567 187.533 989.503 Q190.806 981.968 198.526 981.968 Q200.162 981.968 201.861 982.431 Q203.59 982.863 205.751 984.562 Q207.944 986.26 209.272 989.039 Q211.804 994.412 211.804 1003.86 Q211.804 1013.09 209.457 1018.13 Q206.029 1025.48 198.464 1025.48 Q195.623 1025.48 192.72 1024.03 Q189.849 1022.57 188.027 1019.08 Q185.186 1013.87 185.186 1003.86 M190.435 1003.09 Q190.435 1012.63 191.115 1016.43 Q191.887 1020.54 193.987 1022.33 Q196.117 1024.09 198.464 1024.09 Q200.996 1024.09 203.096 1022.2 Q205.227 1020.29 205.875 1016.18 Q206.585 1012.14 206.554 1003.09 Q206.554 994.289 205.937 990.769 Q205.103 986.662 202.88 985.025 Q200.687 983.358 198.464 983.358 Q197.63 983.358 196.735 983.605 Q195.87 983.852 194.604 984.562 Q193.338 985.272 192.35 987.032 Q191.393 988.792 190.929 991.448 Q190.435 994.875 190.435 1003.09 Z" fill="#000000" fill-rule="evenodd" fill-opacity="1" /><path clip-path="url(#clip500)" d="M245.725 976.251 Q246.026 976.552 246.026 976.978 Q246.026 977.405 245.725 977.706 Q245.424 978.007 244.997 978.007 L212.832 978.007 Q212.406 978.007 212.105 977.706 Q211.804 977.405 211.804 976.978 Q211.804 976.552 212.105 976.251 Q212.406 975.95 212.832 975.95 L244.997 975.95 Q245.424 975.95 245.725 976.251 Z" fill="#000000" fill-rule="evenodd" fill-opacity="1" /><path clip-path="url(#clip500)" d="M253.452 960.495 L253.452 958.889 Q259.624 958.889 262.81 955.602 Q263.689 955.602 263.839 955.803 Q263.99 956.004 263.99 956.932 L263.99 985.76 Q263.99 987.29 264.742 987.767 Q265.495 988.244 268.782 988.244 L270.413 988.244 L270.413 989.824 Q268.606 989.674 262.083 989.674 Q255.56 989.674 253.778 989.824 L253.778 988.244 L255.409 988.244 Q258.646 988.244 259.423 987.792 Q260.201 987.315 260.201 985.76 L260.201 959.14 Q257.517 960.495 253.452 960.495 Z" fill="#000000" fill-rule="evenodd" fill-opacity="1" /><path clip-path="url(#clip500)" d="M193.697 648.185 L193.697 646.209 Q201.293 646.209 205.215 642.164 Q206.296 642.164 206.481 642.411 Q206.666 642.658 206.666 643.8 L206.666 679.28 Q206.666 681.164 207.593 681.751 Q208.519 682.337 212.564 682.337 L214.571 682.337 L214.571 684.283 Q212.348 684.098 204.319 684.098 Q196.291 684.098 194.098 684.283 L194.098 682.337 L196.106 682.337 Q200.089 682.337 201.046 681.782 Q202.004 681.195 202.004 679.28 L202.004 646.518 Q198.699 648.185 193.697 648.185 Z" fill="#000000" fill-rule="evenodd" fill-opacity="1" /><path clip-path="url(#clip500)" d="M222.168 664.057 Q222.168 654.762 224.514 649.698 Q227.788 642.164 235.507 642.164 Q237.144 642.164 238.842 642.627 Q240.572 643.059 242.733 644.757 Q244.926 646.456 246.253 649.235 Q248.786 654.608 248.786 664.057 Q248.786 673.29 246.439 678.323 Q243.011 685.672 235.446 685.672 Q232.605 685.672 229.702 684.221 Q226.83 682.77 225.009 679.28 Q222.168 674.062 222.168 664.057 M227.417 663.285 Q227.417 672.827 228.096 676.625 Q228.868 680.732 230.968 682.523 Q233.099 684.283 235.446 684.283 Q237.978 684.283 240.078 682.399 Q242.208 680.485 242.857 676.378 Q243.567 672.333 243.536 663.285 Q243.536 654.484 242.918 650.964 Q242.085 646.857 239.861 645.221 Q237.669 643.553 235.446 643.553 Q234.612 643.553 233.716 643.8 Q232.852 644.047 231.586 644.757 Q230.32 645.468 229.332 647.228 Q228.374 648.988 227.911 651.643 Q227.417 655.071 227.417 663.285 Z" fill="#000000" fill-rule="evenodd" fill-opacity="1" /><path clip-path="url(#clip500)" d="M248.786 633.586 Q248.786 626.034 250.692 621.92 Q253.352 615.798 259.624 615.798 Q260.954 615.798 262.334 616.174 Q263.739 616.526 265.495 617.905 Q267.276 619.285 268.355 621.543 Q270.413 625.909 270.413 633.586 Q270.413 641.088 268.506 645.178 Q265.721 651.149 259.574 651.149 Q257.266 651.149 254.907 649.97 Q252.574 648.79 251.094 645.955 Q248.786 641.715 248.786 633.586 M253.051 632.959 Q253.051 640.712 253.603 643.798 Q254.23 647.135 255.936 648.59 Q257.667 650.02 259.574 650.02 Q261.631 650.02 263.337 648.489 Q265.069 646.934 265.595 643.597 Q266.172 640.31 266.147 632.959 Q266.147 625.809 265.646 622.948 Q264.968 619.612 263.162 618.282 Q261.38 616.927 259.574 616.927 Q258.897 616.927 258.169 617.128 Q257.466 617.328 256.438 617.905 Q255.409 618.482 254.606 619.913 Q253.828 621.343 253.452 623.5 Q253.051 626.285 253.051 632.959 Z" fill="#000000" fill-rule="evenodd" fill-opacity="1" /><path clip-path="url(#clip500)" d="M198.364 308.381 L198.364 306.404 Q205.96 306.404 209.882 302.359 Q210.962 302.359 211.148 302.606 Q211.333 302.853 211.333 303.996 L211.333 339.476 Q211.333 341.36 212.259 341.946 Q213.186 342.533 217.231 342.533 L219.238 342.533 L219.238 344.478 Q217.015 344.293 208.986 344.293 Q200.958 344.293 198.765 344.478 L198.765 342.533 L200.772 342.533 Q204.756 342.533 205.713 341.977 Q206.67 341.39 206.67 339.476 L206.67 306.713 Q203.366 308.381 198.364 308.381 Z" fill="#000000" fill-rule="evenodd" fill-opacity="1" /><path clip-path="url(#clip500)" d="M226.834 324.252 Q226.834 314.958 229.181 309.894 Q232.454 302.359 240.174 302.359 Q241.811 302.359 243.509 302.822 Q245.238 303.255 247.4 304.953 Q249.592 306.651 250.92 309.43 Q253.452 314.803 253.452 324.252 Q253.452 333.485 251.105 338.519 Q247.678 345.868 240.112 345.868 Q237.271 345.868 234.369 344.417 Q231.497 342.965 229.675 339.476 Q226.834 334.257 226.834 324.252 M232.084 323.481 Q232.084 333.022 232.763 336.82 Q233.535 340.927 235.635 342.718 Q237.766 344.478 240.112 344.478 Q242.644 344.478 244.744 342.595 Q246.875 340.68 247.523 336.573 Q248.234 332.528 248.203 323.481 Q248.203 314.68 247.585 311.16 Q246.751 307.053 244.528 305.416 Q242.336 303.749 240.112 303.749 Q239.279 303.749 238.383 303.996 Q237.518 304.243 236.252 304.953 Q234.986 305.663 233.998 307.423 Q233.041 309.183 232.578 311.839 Q232.084 315.267 232.084 323.481 Z" fill="#000000" fill-rule="evenodd" fill-opacity="1" /><path clip-path="url(#clip500)" d="M253.452 280.886 L253.452 279.28 Q259.624 279.28 262.81 275.993 Q263.689 275.993 263.839 276.194 Q263.99 276.395 263.99 277.323 L263.99 306.151 Q263.99 307.681 264.742 308.158 Q265.495 308.635 268.782 308.635 L270.413 308.635 L270.413 310.215 Q268.606 310.065 262.083 310.065 Q255.56 310.065 253.778 310.215 L253.778 308.635 L255.409 308.635 Q258.646 308.635 259.423 308.183 Q260.201 307.706 260.201 306.151 L260.201 279.531 Q257.517 280.886 253.452 280.886 Z" fill="#000000" fill-rule="evenodd" fill-opacity="1" /><path clip-path="url(#clip500)" d="M91.0014 836.281 Q90.6735 836.281 88.542 835.175 Q86.3696 834.068 78.6226 830.174 Q70.8347 826.28 62.6778 822.263 L33.5754 807.794 Q31.7309 806.769 31.7309 805.457 Q31.7309 804.269 32.4687 803.736 Q33.2065 803.203 38.1662 800.744 Q40.5846 799.473 42.1422 798.735 L89.6488 775.002 Q90.6735 774.593 91.0014 774.552 Q91.8212 774.552 91.8212 775.986 L91.8212 834.068 Q91.8212 836.281 91.0014 836.281 M85.4269 830.748 L85.4269 785.578 L40.0927 808.163 L85.4269 830.748 Z" fill="#000000" fill-rule="evenodd" fill-opacity="1" /><path clip-path="url(#clip500)" d="M90.1406 709.482 Q90.9194 709.482 91.3293 709.81 Q91.6982 710.097 91.7802 710.384 Q91.8212 710.63 91.8212 710.998 Q91.8212 712.064 91.6982 715.753 Q91.5752 719.442 91.5752 720.508 Q91.5752 722.229 91.6982 725.755 Q91.8212 729.28 91.8212 731.001 Q91.8212 732.149 90.8784 732.149 Q90.2636 732.149 89.9357 732.026 Q89.5668 731.903 89.4438 731.575 Q89.2798 731.206 89.2798 731.001 Q89.2389 730.755 89.2389 730.14 Q89.2389 729.321 89.1569 728.46 Q89.0339 727.599 88.788 726.533 Q88.542 725.468 87.9272 724.812 Q87.3124 724.115 86.4516 724.115 Q86.0827 724.115 83.0495 724.402 Q80.0163 724.689 76.4912 725.058 Q72.9251 725.427 72.4333 725.468 L72.4333 746.536 Q75.7534 748.463 78.0488 749.815 Q80.3442 751.168 81.123 751.66 Q81.9018 752.152 82.3936 752.439 Q82.8855 752.725 83.1724 752.889 Q85.3449 754.078 86.2876 754.078 Q88.9109 754.078 89.2389 750.143 Q89.2389 748.791 90.2226 748.791 Q90.9604 748.791 91.3703 749.118 Q91.7392 749.446 91.7802 749.733 Q91.8212 749.979 91.8212 750.389 Q91.8212 751.742 91.6982 754.57 Q91.5752 757.398 91.5752 758.792 Q91.5752 759.981 91.6982 762.44 Q91.8212 764.899 91.8212 766.006 Q91.8212 766.498 91.5343 766.785 Q91.2473 767.072 90.8784 767.072 Q90.3046 767.072 89.9767 766.99 Q89.6488 766.867 89.4848 766.539 Q89.3208 766.211 89.3208 766.047 Q89.2798 765.883 89.2389 765.309 Q89.0339 762.194 87.5583 759.776 Q86.0417 757.316 82.1477 754.98 L33.1245 725.796 Q32.6327 725.509 32.3867 725.304 Q32.1408 725.099 31.9358 724.689 Q31.7309 724.238 31.7309 723.582 Q31.7309 722.557 32.0588 722.352 Q32.3457 722.147 33.7394 722.025 L86.2057 716.901 Q87.3124 716.778 87.7632 716.696 Q88.1731 716.573 88.624 716.04 Q89.0339 715.466 89.1569 714.442 Q89.2389 713.376 89.2389 711.408 Q89.2389 710.671 89.2798 710.384 Q89.2798 710.097 89.4848 709.81 Q89.6897 709.482 90.1406 709.482 M69.8099 725.714 L42.1422 728.378 L69.8099 744.938 L69.8099 725.714 Z" fill="#000000" fill-rule="evenodd" fill-opacity="1" /><path clip-path="url(#clip500)" d="M85.3827 675.294 Q86.1287 675.294 87.592 675.495 Q89.0553 675.695 91.1785 676.183 Q93.3018 676.671 95.5398 677.388 Q97.7778 678.077 100.016 679.167 Q102.225 680.258 103.975 681.549 Q105.726 682.84 106.816 684.648 Q107.906 686.455 107.906 688.492 Q107.906 689.439 107.763 690.357 Q107.619 691.275 107.16 692.423 Q106.701 693.571 105.955 694.403 Q105.18 695.235 103.803 695.809 Q102.426 696.383 100.618 696.383 Q98.7534 696.383 96.2571 695.694 Q93.7322 694.977 88.5675 693.026 Q85.8991 692.021 84.4358 692.021 Q83.7759 692.021 83.3742 692.165 Q82.9438 692.308 82.8003 692.595 Q82.6282 692.882 82.5995 693.054 Q82.5708 693.198 82.5708 693.485 Q82.5708 695.063 84.2063 696.67 Q85.8417 698.276 89.8587 699.424 Q90.576 699.654 90.7482 699.797 Q90.9203 699.941 90.9203 700.371 Q90.8916 701.088 90.3178 701.088 Q90.1456 701.088 89.4857 700.887 Q88.7971 700.687 87.7641 700.314 Q86.7025 699.941 85.6122 699.281 Q84.4932 698.621 83.5176 697.817 Q82.5421 696.985 81.9109 695.809 Q81.2796 694.632 81.2796 693.313 Q81.2796 691.161 82.6856 689.841 Q84.0628 688.492 86.1 688.492 Q87.219 688.492 89.0266 689.21 Q92.2975 690.415 93.8756 690.96 Q95.4537 691.505 97.6917 692.079 Q99.9298 692.624 101.479 692.624 Q103.832 692.624 105.209 691.534 Q106.586 690.443 106.586 688.263 Q106.586 686.312 105.18 684.561 Q103.746 682.782 101.709 681.606 Q99.6428 680.43 97.3474 679.54 Q95.0233 678.651 93.2731 678.249 Q91.4942 677.819 90.6621 677.819 Q87.7641 677.819 85.8704 679.798 Q85.3253 680.344 84.981 680.544 Q84.6367 680.745 84.0915 680.745 Q83.0873 680.745 82.1978 679.856 Q81.2796 678.938 81.2796 677.876 Q81.2796 676.901 82.2552 676.097 Q83.2307 675.294 85.3827 675.294 Z" fill="#000000" fill-rule="evenodd" fill-opacity="1" /><path clip-path="url(#clip500)" d="M85.0957 646.591 Q86.6164 646.591 87.592 647.595 Q88.5675 648.571 88.5675 649.833 Q88.5675 650.924 87.9363 651.498 Q87.3051 652.071 86.5017 652.071 Q85.354 652.071 84.4071 651.182 Q83.4603 650.292 83.2594 649.001 Q82.5708 649.948 82.5708 651.469 Q82.5708 653.965 84.4932 656.174 Q85.3827 657.15 87.0181 658.212 Q88.6249 659.273 89.3135 659.474 L96.9744 661.339 Q97.8352 661.511 101.967 662.573 Q106.07 663.606 106.242 663.692 Q107.045 663.979 107.476 664.61 Q107.906 665.241 107.906 665.872 Q107.906 666.59 107.476 667.078 Q107.045 667.565 106.299 667.565 Q106.185 667.565 105.754 667.479 Q105.324 667.393 104.721 667.25 Q104.119 667.106 103.775 667.049 L90.203 663.634 Q87.7354 663.003 86.9607 662.86 Q86.1574 662.688 85.2679 662.688 Q83.7185 662.688 83.1446 663.175 Q82.5708 663.663 82.5708 664.524 Q82.5708 666.016 84.3497 666.992 Q86.1287 667.967 89.5718 668.799 Q90.5186 669.057 90.7195 669.23 Q90.9203 669.373 90.9203 669.803 Q90.8916 670.521 90.3178 670.521 Q90.1743 670.521 89.2561 670.291 Q88.3093 670.062 86.9321 669.631 Q85.5261 669.172 84.6367 668.684 Q84.0341 668.397 83.6324 668.139 Q83.2307 667.881 82.5995 667.365 Q81.9683 666.848 81.6239 666.073 Q81.2796 665.299 81.2796 664.352 Q81.2796 662.286 82.5421 660.823 Q83.8046 659.331 85.7844 658.986 Q84.7514 658.269 83.862 657.38 Q82.9438 656.49 82.1117 654.855 Q81.2796 653.219 81.2796 651.469 Q81.2796 649.288 82.3986 647.94 Q83.489 646.591 85.0957 646.591 Z" fill="#000000" fill-rule="evenodd" fill-opacity="1" /><path clip-path="url(#clip500)" d="M30.9628 652.942 Q31.1923 652.942 32.0818 653.201 Q32.9713 653.459 34.3485 654.09 Q35.7258 654.693 36.9882 655.553 Q38.222 656.385 39.1402 657.763 Q40.0296 659.111 40.0296 660.661 Q40.0296 662.726 38.6524 664.104 Q37.2751 665.481 35.2093 665.481 Q34.0903 665.481 31.967 664.706 Q22.269 661.062 18.7972 661.062 Q14.6942 661.062 14.6942 664.247 Q14.6942 666.055 15.4402 667.69 Q16.1862 669.326 17.2191 670.387 Q18.252 671.449 19.4284 672.281 Q20.6048 673.113 21.3795 673.486 Q22.1542 673.83 22.4985 673.917 L36.6726 677.446 Q37.8777 677.733 38.4515 677.933 Q39.0254 678.134 39.5132 678.679 Q40.0296 679.225 40.0296 680.085 Q40.0296 680.803 39.5992 681.319 Q39.1689 681.807 38.4228 681.807 Q38.3081 681.807 37.7055 681.663 Q37.103 681.52 36.2709 681.319 Q35.4388 681.118 34.9511 681.032 Q31.0489 679.999 30.5037 679.856 L23.6749 678.22 Q20.2892 677.331 18.7972 677.331 Q14.6942 677.331 14.6942 680.516 Q14.6942 682.094 15.2967 683.586 Q15.8705 685.049 16.6739 686.053 Q17.4773 687.058 18.5963 687.976 Q19.6866 688.865 20.4327 689.324 Q21.15 689.755 21.8673 690.099 L24.7939 690.845 Q25.5973 691.017 28.7248 691.849 L34.0329 693.14 Q37.9925 694.059 38.3655 694.259 Q39.1689 694.546 39.5992 695.178 Q40.0296 695.809 40.0296 696.44 Q40.0296 697.157 39.5992 697.645 Q39.1689 698.133 38.4228 698.133 Q38.3081 698.133 37.8777 698.047 Q37.4473 697.961 36.8448 697.817 Q36.2422 697.674 35.8979 697.617 L22.3264 694.202 Q19.8588 693.571 19.0841 693.427 Q18.2807 693.255 17.3912 693.255 Q14.6942 693.255 14.6942 695.092 Q14.6942 696.584 16.4731 697.559 Q18.252 698.535 21.6951 699.367 Q22.642 699.625 22.8428 699.797 Q23.0437 699.941 23.0437 700.371 Q23.015 701.088 22.4411 701.088 Q22.2977 701.088 21.3795 700.859 Q20.4613 700.629 19.0841 700.199 Q17.6782 699.74 16.76 699.252 Q16.1575 698.965 15.7558 698.707 Q15.3541 698.449 14.7228 697.932 Q14.0916 697.416 13.7473 696.641 Q13.403 695.866 13.403 694.919 Q13.403 692.825 14.7515 691.275 Q16.1001 689.697 18.5103 689.497 Q13.403 685.68 13.403 680.344 Q13.403 677.331 14.9237 675.523 Q16.387 673.83 19.0841 673.63 Q13.403 669.67 13.403 664.046 Q13.403 660.804 15.0958 659.054 Q16.76 657.304 19.6866 657.304 Q21.2073 657.304 24.1053 658.078 Q26.9745 658.853 28.4092 659.369 Q29.8438 659.886 32.5983 660.89 Q35.238 661.952 36.7874 661.952 Q37.7916 661.952 38.2507 661.607 Q38.7098 661.263 38.7098 660.517 Q38.7098 659.369 38.0498 658.365 Q37.3612 657.361 36.2422 656.644 Q35.0945 655.898 33.9468 655.41 Q32.7704 654.922 31.4506 654.549 Q30.7333 654.32 30.5611 654.205 Q30.3889 654.061 30.3889 653.66 Q30.3889 652.942 30.9628 652.942 Z" fill="#000000" fill-rule="evenodd" fill-opacity="1" /><path clip-path="url(#clip500)" d="M32.5696 626.42 Q32.8278 626.19 33.086 626.19 Q33.3443 626.19 34.0903 626.764 Q34.8363 627.309 35.8405 628.486 Q36.8448 629.662 37.7916 631.183 Q38.7385 632.703 39.3697 634.941 Q40.0296 637.179 40.0296 639.532 Q40.0296 643.922 37.1317 646.505 Q34.2337 649.058 30.0733 649.058 Q26.0277 649.058 22.1542 646.791 Q18.252 644.525 15.8419 640.852 Q13.403 637.179 13.403 633.306 Q13.403 630.236 14.8376 628.314 Q16.2722 626.391 18.4529 626.391 Q20.1457 626.391 21.1787 627.367 Q22.2116 628.342 22.2116 629.662 Q22.2116 630.58 21.6951 631.211 Q21.15 631.843 20.1457 631.843 Q18.8546 631.843 17.8503 630.781 Q17.4486 630.379 17.2765 629.92 Q17.0756 629.433 17.0756 629.146 Q17.0469 628.859 17.0469 628.199 Q15.9279 628.801 15.3254 630.236 Q14.6942 631.642 14.6942 633.249 Q14.6942 635.63 16.3583 637.897 Q17.9938 640.164 20.5761 641.541 Q23.1011 642.918 26.6876 643.807 Q30.2455 644.697 32.3113 644.697 Q35.1519 644.697 36.9308 643.377 Q38.7098 642.057 38.7098 639.417 Q38.7098 638.901 38.6811 638.356 Q38.6524 637.782 38.3368 636.347 Q38.0212 634.884 37.476 633.593 Q36.9308 632.302 35.7544 630.666 Q34.5494 629.002 32.9139 627.682 Q32.3113 627.223 32.3113 626.908 Q32.3113 626.649 32.5696 626.42 Z" fill="#000000" fill-rule="evenodd" fill-opacity="1" /><path clip-path="url(#clip500)" d="M111.619 614.923 Q111.209 614.923 110.307 614.595 L31.1161 584.96 Q31.0341 584.96 30.5832 584.755 Q30.1323 584.55 29.8454 584.427 Q29.5175 584.304 29.2715 584.058 Q29.0256 583.771 29.0256 583.443 Q29.0256 582.623 30.0503 582.623 Q30.1323 582.623 31.1161 582.869 L110.389 612.587 Q111.824 613.078 112.234 613.406 Q112.644 613.693 112.644 614.185 Q112.644 614.923 111.619 614.923 Z" fill="#000000" fill-rule="evenodd" fill-opacity="1" /><path clip-path="url(#clip500)" d="M90.1406 515.767 Q90.9194 515.767 91.3293 516.094 Q91.6982 516.381 91.7802 516.668 Q91.8212 516.914 91.8212 517.283 Q91.8212 518.349 91.6982 522.038 Q91.5752 525.727 91.5752 526.793 Q91.5752 528.514 91.6982 532.039 Q91.8212 535.564 91.8212 537.286 Q91.8212 538.434 90.8784 538.434 Q90.2636 538.434 89.9357 538.311 Q89.5668 538.188 89.4438 537.86 Q89.2798 537.491 89.2798 537.286 Q89.2389 537.04 89.2389 536.425 Q89.2389 535.605 89.1569 534.745 Q89.0339 533.884 88.788 532.818 Q88.542 531.752 87.9272 531.097 Q87.3124 530.4 86.4516 530.4 Q86.0827 530.4 83.0495 530.687 Q80.0163 530.974 76.4912 531.342 Q72.9251 531.711 72.4333 531.752 L72.4333 552.821 Q75.7534 554.747 78.0488 556.1 Q80.3442 557.453 81.123 557.945 Q81.9018 558.436 82.3936 558.723 Q82.8855 559.01 83.1724 559.174 Q85.3449 560.363 86.2876 560.363 Q88.9109 560.363 89.2389 556.428 Q89.2389 555.075 90.2226 555.075 Q90.9604 555.075 91.3703 555.403 Q91.7392 555.731 91.7802 556.018 Q91.8212 556.264 91.8212 556.674 Q91.8212 558.026 91.6982 560.855 Q91.5752 563.683 91.5752 565.077 Q91.5752 566.265 91.6982 568.725 Q91.8212 571.184 91.8212 572.291 Q91.8212 572.783 91.5343 573.07 Q91.2473 573.356 90.8784 573.356 Q90.3046 573.356 89.9767 573.275 Q89.6488 573.152 89.4848 572.824 Q89.3208 572.496 89.3208 572.332 Q89.2798 572.168 89.2389 571.594 Q89.0339 568.479 87.5583 566.06 Q86.0417 563.601 82.1477 561.265 L33.1245 532.08 Q32.6327 531.793 32.3867 531.588 Q32.1408 531.383 31.9358 530.974 Q31.7309 530.523 31.7309 529.867 Q31.7309 528.842 32.0588 528.637 Q32.3457 528.432 33.7394 528.309 L86.2057 523.186 Q87.3124 523.063 87.7632 522.981 Q88.1731 522.858 88.624 522.325 Q89.0339 521.751 89.1569 520.726 Q89.2389 519.661 89.2389 517.693 Q89.2389 516.955 89.2798 516.668 Q89.2798 516.381 89.4848 516.094 Q89.6897 515.767 90.1406 515.767 M69.8099 531.998 L42.1422 534.663 L69.8099 551.222 L69.8099 531.998 Z" fill="#000000" fill-rule="evenodd" fill-opacity="1" /><path clip-path="url(#clip500)" d="M85.3827 481.578 Q86.1287 481.578 87.592 481.779 Q89.0553 481.98 91.1785 482.468 Q93.3018 482.956 95.5398 483.673 Q97.7778 484.362 100.016 485.452 Q102.225 486.542 103.975 487.833 Q105.726 489.125 106.816 490.932 Q107.906 492.74 107.906 494.777 Q107.906 495.724 107.763 496.642 Q107.619 497.56 107.16 498.708 Q106.701 499.856 105.955 500.688 Q105.18 501.52 103.803 502.094 Q102.426 502.667 100.618 502.667 Q98.7534 502.667 96.2571 501.979 Q93.7322 501.262 88.5675 499.31 Q85.8991 498.306 84.4358 498.306 Q83.7759 498.306 83.3742 498.45 Q82.9438 498.593 82.8003 498.88 Q82.6282 499.167 82.5995 499.339 Q82.5708 499.483 82.5708 499.77 Q82.5708 501.348 84.2063 502.954 Q85.8417 504.561 89.8587 505.709 Q90.576 505.938 90.7482 506.082 Q90.9203 506.225 90.9203 506.656 Q90.8916 507.373 90.3178 507.373 Q90.1456 507.373 89.4857 507.172 Q88.7971 506.971 87.7641 506.598 Q86.7025 506.225 85.6122 505.565 Q84.4932 504.905 83.5176 504.102 Q82.5421 503.27 81.9109 502.094 Q81.2796 500.917 81.2796 499.597 Q81.2796 497.445 82.6856 496.126 Q84.0628 494.777 86.1 494.777 Q87.219 494.777 89.0266 495.494 Q92.2975 496.699 93.8756 497.245 Q95.4537 497.79 97.6917 498.364 Q99.9298 498.909 101.479 498.909 Q103.832 498.909 105.209 497.818 Q106.586 496.728 106.586 494.548 Q106.586 492.596 105.18 490.846 Q103.746 489.067 101.709 487.891 Q99.6428 486.714 97.3474 485.825 Q95.0233 484.936 93.2731 484.534 Q91.4942 484.103 90.6621 484.103 Q87.7641 484.103 85.8704 486.083 Q85.3253 486.628 84.981 486.829 Q84.6367 487.03 84.0915 487.03 Q83.0873 487.03 82.1978 486.141 Q81.2796 485.222 81.2796 484.161 Q81.2796 483.185 82.2552 482.382 Q83.2307 481.578 85.3827 481.578 Z" fill="#000000" fill-rule="evenodd" fill-opacity="1" /><path clip-path="url(#clip500)" d="M85.0957 452.876 Q86.6164 452.876 87.592 453.88 Q88.5675 454.856 88.5675 456.118 Q88.5675 457.208 87.9363 457.782 Q87.3051 458.356 86.5017 458.356 Q85.354 458.356 84.4071 457.467 Q83.4603 456.577 83.2594 455.286 Q82.5708 456.233 82.5708 457.754 Q82.5708 460.25 84.4932 462.459 Q85.3827 463.435 87.0181 464.496 Q88.6249 465.558 89.3135 465.759 L96.9744 467.624 Q97.8352 467.796 101.967 468.858 Q106.07 469.891 106.242 469.977 Q107.045 470.264 107.476 470.895 Q107.906 471.526 107.906 472.157 Q107.906 472.875 107.476 473.362 Q107.045 473.85 106.299 473.85 Q106.185 473.85 105.754 473.764 Q105.324 473.678 104.721 473.534 Q104.119 473.391 103.775 473.334 L90.203 469.919 Q87.7354 469.288 86.9607 469.145 Q86.1574 468.972 85.2679 468.972 Q83.7185 468.972 83.1446 469.46 Q82.5708 469.948 82.5708 470.809 Q82.5708 472.301 84.3497 473.276 Q86.1287 474.252 89.5718 475.084 Q90.5186 475.342 90.7195 475.514 Q90.9203 475.658 90.9203 476.088 Q90.8916 476.805 90.3178 476.805 Q90.1743 476.805 89.2561 476.576 Q88.3093 476.346 86.9321 475.916 Q85.5261 475.457 84.6367 474.969 Q84.0341 474.682 83.6324 474.424 Q83.2307 474.166 82.5995 473.649 Q81.9683 473.133 81.6239 472.358 Q81.2796 471.583 81.2796 470.637 Q81.2796 468.571 82.5421 467.107 Q83.8046 465.615 85.7844 465.271 Q84.7514 464.554 83.862 463.664 Q82.9438 462.775 82.1117 461.139 Q81.2796 459.504 81.2796 457.754 Q81.2796 455.573 82.3986 454.224 Q83.489 452.876 85.0957 452.876 Z" fill="#000000" fill-rule="evenodd" fill-opacity="1" /><path clip-path="url(#clip500)" d="M30.9628 459.227 Q31.1923 459.227 32.0818 459.485 Q32.9713 459.744 34.3485 460.375 Q35.7258 460.977 36.9882 461.838 Q38.222 462.67 39.1402 464.047 Q40.0296 465.396 40.0296 466.945 Q40.0296 469.011 38.6524 470.388 Q37.2751 471.766 35.2093 471.766 Q34.0903 471.766 31.967 470.991 Q22.269 467.347 18.7972 467.347 Q14.6942 467.347 14.6942 470.532 Q14.6942 472.34 15.4402 473.975 Q16.1862 475.61 17.2191 476.672 Q18.252 477.734 19.4284 478.566 Q20.6048 479.398 21.3795 479.771 Q22.1542 480.115 22.4985 480.201 L36.6726 483.73 Q37.8777 484.017 38.4515 484.218 Q39.0254 484.419 39.5132 484.964 Q40.0296 485.509 40.0296 486.37 Q40.0296 487.087 39.5992 487.604 Q39.1689 488.092 38.4228 488.092 Q38.3081 488.092 37.7055 487.948 Q37.103 487.805 36.2709 487.604 Q35.4388 487.403 34.9511 487.317 Q31.0489 486.284 30.5037 486.141 L23.6749 484.505 Q20.2892 483.616 18.7972 483.616 Q14.6942 483.616 14.6942 486.801 Q14.6942 488.379 15.2967 489.871 Q15.8705 491.334 16.6739 492.338 Q17.4773 493.342 18.5963 494.261 Q19.6866 495.15 20.4327 495.609 Q21.15 496.04 21.8673 496.384 L24.7939 497.13 Q25.5973 497.302 28.7248 498.134 L34.0329 499.425 Q37.9925 500.343 38.3655 500.544 Q39.1689 500.831 39.5992 501.462 Q40.0296 502.094 40.0296 502.725 Q40.0296 503.442 39.5992 503.93 Q39.1689 504.418 38.4228 504.418 Q38.3081 504.418 37.8777 504.332 Q37.4473 504.246 36.8448 504.102 Q36.2422 503.959 35.8979 503.901 L22.3264 500.487 Q19.8588 499.856 19.0841 499.712 Q18.2807 499.54 17.3912 499.54 Q14.6942 499.54 14.6942 501.376 Q14.6942 502.868 16.4731 503.844 Q18.252 504.819 21.6951 505.652 Q22.642 505.91 22.8428 506.082 Q23.0437 506.225 23.0437 506.656 Q23.015 507.373 22.4411 507.373 Q22.2977 507.373 21.3795 507.144 Q20.4613 506.914 19.0841 506.484 Q17.6782 506.025 16.76 505.537 Q16.1575 505.25 15.7558 504.992 Q15.3541 504.733 14.7228 504.217 Q14.0916 503.7 13.7473 502.926 Q13.403 502.151 13.403 501.204 Q13.403 499.11 14.7515 497.56 Q16.1001 495.982 18.5103 495.781 Q13.403 491.965 13.403 486.628 Q13.403 483.616 14.9237 481.808 Q16.387 480.115 19.0841 479.914 Q13.403 475.955 13.403 470.331 Q13.403 467.089 15.0958 465.339 Q16.76 463.588 19.6866 463.588 Q21.2073 463.588 24.1053 464.363 Q26.9745 465.138 28.4092 465.654 Q29.8438 466.171 32.5983 467.175 Q35.238 468.236 36.7874 468.236 Q37.7916 468.236 38.2507 467.892 Q38.7098 467.548 38.7098 466.802 Q38.7098 465.654 38.0498 464.65 Q37.3612 463.646 36.2422 462.928 Q35.0945 462.182 33.9468 461.695 Q32.7704 461.207 31.4506 460.834 Q30.7333 460.604 30.5611 460.49 Q30.3889 460.346 30.3889 459.944 Q30.3889 459.227 30.9628 459.227 Z" fill="#000000" fill-rule="evenodd" fill-opacity="1" /><path clip-path="url(#clip500)" d="M32.5696 432.705 Q32.8278 432.475 33.086 432.475 Q33.3443 432.475 34.0903 433.049 Q34.8363 433.594 35.8405 434.77 Q36.8448 435.947 37.7916 437.467 Q38.7385 438.988 39.3697 441.226 Q40.0296 443.464 40.0296 445.817 Q40.0296 450.207 37.1317 452.789 Q34.2337 455.343 30.0733 455.343 Q26.0277 455.343 22.1542 453.076 Q18.252 450.81 15.8419 447.137 Q13.403 443.464 13.403 439.591 Q13.403 436.521 14.8376 434.598 Q16.2722 432.676 18.4529 432.676 Q20.1457 432.676 21.1787 433.651 Q22.2116 434.627 22.2116 435.947 Q22.2116 436.865 21.6951 437.496 Q21.15 438.127 20.1457 438.127 Q18.8546 438.127 17.8503 437.066 Q17.4486 436.664 17.2765 436.205 Q17.0756 435.717 17.0756 435.43 Q17.0469 435.143 17.0469 434.483 Q15.9279 435.086 15.3254 436.521 Q14.6942 437.927 14.6942 439.533 Q14.6942 441.915 16.3583 444.182 Q17.9938 446.448 20.5761 447.825 Q23.1011 449.203 26.6876 450.092 Q30.2455 450.982 32.3113 450.982 Q35.1519 450.982 36.9308 449.662 Q38.7098 448.342 38.7098 445.702 Q38.7098 445.186 38.6811 444.641 Q38.6524 444.067 38.3368 442.632 Q38.0212 441.169 37.476 439.878 Q36.9308 438.587 35.7544 436.951 Q34.5494 435.287 32.9139 433.967 Q32.3113 433.508 32.3113 433.192 Q32.3113 432.934 32.5696 432.705 Z" fill="#000000" fill-rule="evenodd" fill-opacity="1" /><path clip-path="url(#clip500)" d="M70.8347 399.029 Q56.6524 399.029 45.2164 393.741 Q40.4206 391.487 36.4037 388.33 Q32.3867 385.174 30.6242 383.084 Q28.8617 380.993 28.8617 380.419 Q28.8617 379.6 29.6814 379.559 Q30.0913 379.559 31.1161 380.665 Q44.8885 394.192 70.8347 394.151 Q96.8629 394.151 110.102 380.993 Q111.537 379.559 111.988 379.559 Q112.808 379.559 112.808 380.419 Q112.808 380.993 111.127 383.002 Q109.447 385.01 105.594 388.125 Q101.741 391.241 97.0268 393.495 Q85.5908 399.029 70.8347 399.029 Z" fill="#000000" fill-rule="evenodd" fill-opacity="1" /><path clip-path="url(#clip500)" d="M45.7492 371.838 Q38.5351 371.838 33.6984 368.149 Q28.8617 364.46 28.8617 359.501 Q28.8617 356.467 31.5669 353.475 Q38.0432 346.671 38.0023 337.776 Q38.0023 327.693 30.0503 321.831 Q28.8617 320.807 28.8617 320.069 Q28.8617 319.413 29.3945 318.921 Q29.8864 318.388 30.5422 318.388 Q31.0341 318.388 32.0588 319.044 L95.2643 361.509 Q96.5349 362.452 96.5349 363.19 Q96.5349 363.845 96.0021 364.378 Q95.5102 364.87 94.8544 364.87 Q94.2805 364.87 93.1738 364.132 L37.0185 326.422 L36.9365 326.504 Q39.8878 330.849 39.8468 337.694 Q39.8468 344.171 36.3217 350.36 Q40.6666 348.597 45.8312 348.597 Q52.8814 348.597 57.8001 351.754 Q62.6778 354.91 62.6778 359.501 Q62.6778 364.46 57.923 368.149 Q53.1273 371.838 45.7492 371.838 M38.904 366.059 Q41.8553 366.633 45.8312 366.633 Q49.7662 366.633 52.7174 366.059 Q55.6276 365.485 57.1443 364.665 Q58.6609 363.804 59.5626 362.657 Q60.4234 361.509 60.6283 360.812 Q60.8333 360.115 60.8333 359.419 Q60.8333 355.976 56.5704 353.352 Q52.2665 350.688 45.7492 350.688 Q39.3549 350.688 35.051 353.352 Q30.7062 355.976 30.7062 359.419 Q30.7062 360.156 30.9111 360.894 Q31.1161 361.591 32.0178 362.698 Q32.8786 363.804 34.3952 364.665 Q35.9118 365.485 38.904 366.059 M79.5654 334.661 Q72.3513 334.661 67.5145 330.972 Q62.6778 327.283 62.6778 322.323 Q62.6778 317.774 67.5965 314.617 Q72.5152 311.42 79.6474 311.42 Q86.6975 311.42 91.6162 314.576 Q96.5349 317.692 96.5349 322.323 Q96.5349 327.283 91.7392 330.972 Q86.9435 334.661 79.5654 334.661 M72.7202 328.882 Q75.7124 329.455 79.6474 329.455 Q83.5823 329.455 86.5336 328.882 Q89.4848 328.267 91.0014 327.447 Q92.477 326.586 93.3378 325.48 Q94.2395 324.332 94.4445 323.635 Q94.6904 322.897 94.6904 322.241 Q94.6904 318.798 90.4275 316.175 Q86.1237 313.511 79.5654 313.511 Q73.1711 313.511 68.8672 316.175 Q64.5223 318.798 64.5223 322.241 Q64.5223 322.979 64.7683 323.717 Q64.9732 324.414 65.875 325.521 Q66.7357 326.586 68.2523 327.447 Q69.728 328.267 72.7202 328.882 Z" fill="#000000" fill-rule="evenodd" fill-opacity="1" /><path clip-path="url(#clip500)" d="M111.988 300.613 Q111.578 300.613 110.553 299.547 Q96.7809 286.021 70.8347 286.021 Q44.8065 286.021 31.6489 299.014 Q30.1323 300.613 29.6814 300.613 Q28.8617 300.613 28.8617 299.793 Q28.8617 299.219 30.5422 297.211 Q32.2228 295.161 36.0758 292.087 Q39.9288 288.972 44.6425 286.676 Q56.0785 281.143 70.8347 281.143 Q85.017 281.143 96.453 286.43 Q101.249 288.685 105.266 291.841 Q109.283 294.997 111.045 297.088 Q112.808 299.178 112.808 299.793 Q112.808 300.613 111.988 300.613 Z" fill="#000000" fill-rule="evenodd" fill-opacity="1" /><polyline clip-path="url(#clip502)" style="stroke:#009af9; stroke-linecap:butt; stroke-linejoin:round; stroke-width:8; stroke-opacity:1; fill:none" points="
  413.998,344.714 571.165,336.328 728.333,347.64 885.5,451.389 1042.67,472.905 1199.83,438.055 1357,452.783 1514.17,460.174 1671.34,462.278 1828.5,474.354 
  1985.67,483.996 2142.84,453.817 2300.01,500.63 2457.17,449.881 2614.34,488.06 2771.51,476.376 2928.68,492.957 3085.84,486.773 3243.01,501.378 3400.18,507.822 
  
  "/>
<circle clip-path="url(#clip502)" cx="413.998" cy="344.714" r="18" fill="#009af9" fill-rule="evenodd" fill-opacity="1" stroke="#000000" stroke-opacity="1" stroke-width="3.6"/>
<circle clip-path="url(#clip502)" cx="571.165" cy="336.328" r="18" fill="#009af9" fill-rule="evenodd" fill-opacity="1" stroke="#000000" stroke-opacity="1" stroke-width="3.6"/>
<circle clip-path="url(#clip502)" cx="728.333" cy="347.64" r="18" fill="#009af9" fill-rule="evenodd" fill-opacity="1" stroke="#000000" stroke-opacity="1" stroke-width="3.6"/>
<circle clip-path="url(#clip502)" cx="885.5" cy="451.389" r="18" fill="#009af9" fill-rule="evenodd" fill-opacity="1" stroke="#000000" stroke-opacity="1" stroke-width="3.6"/>
<circle clip-path="url(#clip502)" cx="1042.67" cy="472.905" r="18" fill="#009af9" fill-rule="evenodd" fill-opacity="1" stroke="#000000" stroke-opacity="1" stroke-width="3.6"/>
<circle clip-path="url(#clip502)" cx="1199.83" cy="438.055" r="18" fill="#009af9" fill-rule="evenodd" fill-opacity="1" stroke="#000000" stroke-opacity="1" stroke-width="3.6"/>
<circle clip-path="url(#clip502)" cx="1357" cy="452.783" r="18" fill="#009af9" fill-rule="evenodd" fill-opacity="1" stroke="#000000" stroke-opacity="1" stroke-width="3.6"/>
<circle clip-path="url(#clip502)" cx="1514.17" cy="460.174" r="18" fill="#009af9" fill-rule="evenodd" fill-opacity="1" stroke="#000000" stroke-opacity="1" stroke-width="3.6"/>
<circle clip-path="url(#clip502)" cx="1671.34" cy="462.278" r="18" fill="#009af9" fill-rule="evenodd" fill-opacity="1" stroke="#000000" stroke-opacity="1" stroke-width="3.6"/>
<circle clip-path="url(#clip502)" cx="1828.5" cy="474.354" r="18" fill="#009af9" fill-rule="evenodd" fill-opacity="1" stroke="#000000" stroke-opacity="1" stroke-width="3.6"/>
<circle clip-path="url(#clip502)" cx="1985.67" cy="483.996" r="18" fill="#009af9" fill-rule="evenodd" fill-opacity="1" stroke="#000000" stroke-opacity="1" stroke-width="3.6"/>
<circle clip-path="url(#clip502)" cx="2142.84" cy="453.817" r="18" fill="#009af9" fill-rule="evenodd" fill-opacity="1" stroke="#000000" stroke-opacity="1" stroke-width="3.6"/>
<circle clip-path="url(#clip502)" cx="2300.01" cy="500.63" r="18" fill="#009af9" fill-rule="evenodd" fill-opacity="1" stroke="#000000" stroke-opacity="1" stroke-width="3.6"/>
<circle clip-path="url(#clip502)" cx="2457.17" cy="449.881" r="18" fill="#009af9" fill-rule="evenodd" fill-opacity="1" stroke="#000000" stroke-opacity="1" stroke-width="3.6"/>
<circle clip-path="url(#clip502)" cx="2614.34" cy="488.06" r="18" fill="#009af9" fill-rule="evenodd" fill-opacity="1" stroke="#000000" stroke-opacity="1" stroke-width="3.6"/>
<circle clip-path="url(#clip502)" cx="2771.51" cy="476.376" r="18" fill="#009af9" fill-rule="evenodd" fill-opacity="1" stroke="#000000" stroke-opacity="1" stroke-width="3.6"/>
<circle clip-path="url(#clip502)" cx="2928.68" cy="492.957" r="18" fill="#009af9" fill-rule="evenodd" fill-opacity="1" stroke="#000000" stroke-opacity="1" stroke-width="3.6"/>
<circle clip-path="url(#clip502)" cx="3085.84" cy="486.773" r="18" fill="#009af9" fill-rule="evenodd" fill-opacity="1" stroke="#000000" stroke-opacity="1" stroke-width="3.6"/>
<circle clip-path="url(#clip502)" cx="3243.01" cy="501.378" r="18" fill="#009af9" fill-rule="evenodd" fill-opacity="1" stroke="#000000" stroke-opacity="1" stroke-width="3.6"/>
<circle clip-path="url(#clip502)" cx="3400.18" cy="507.822" r="18" fill="#009af9" fill-rule="evenodd" fill-opacity="1" stroke="#000000" stroke-opacity="1" stroke-width="3.6"/>
<polyline clip-path="url(#clip502)" style="stroke:#e26f46; stroke-linecap:butt; stroke-linejoin:round; stroke-width:8; stroke-opacity:1; fill:none" points="
  413.998,506.497 571.165,547.203 728.333,540.239 885.5,558.135 1042.67,609.378 1199.83,605.378 1357,598.987 1514.17,624.865 1671.34,626.813 1828.5,587.967 
  1985.67,610.392 2142.84,644.896 2300.01,639.738 2457.17,668.593 2614.34,665.08 2771.51,654.613 2928.68,645.486 3085.84,624.982 3243.01,662.133 3400.18,660.539 
  
  "/>
<circle clip-path="url(#clip502)" cx="413.998" cy="506.497" r="18" fill="#e26f46" fill-rule="evenodd" fill-opacity="1" stroke="#000000" stroke-opacity="1" stroke-width="3.6"/>
<circle clip-path="url(#clip502)" cx="571.165" cy="547.203" r="18" fill="#e26f46" fill-rule="evenodd" fill-opacity="1" stroke="#000000" stroke-opacity="1" stroke-width="3.6"/>
<circle clip-path="url(#clip502)" cx="728.333" cy="540.239" r="18" fill="#e26f46" fill-rule="evenodd" fill-opacity="1" stroke="#000000" stroke-opacity="1" stroke-width="3.6"/>
<circle clip-path="url(#clip502)" cx="885.5" cy="558.135" r="18" fill="#e26f46" fill-rule="evenodd" fill-opacity="1" stroke="#000000" stroke-opacity="1" stroke-width="3.6"/>
<circle clip-path="url(#clip502)" cx="1042.67" cy="609.378" r="18" fill="#e26f46" fill-rule="evenodd" fill-opacity="1" stroke="#000000" stroke-opacity="1" stroke-width="3.6"/>
<circle clip-path="url(#clip502)" cx="1199.83" cy="605.378" r="18" fill="#e26f46" fill-rule="evenodd" fill-opacity="1" stroke="#000000" stroke-opacity="1" stroke-width="3.6"/>
<circle clip-path="url(#clip502)" cx="1357" cy="598.987" r="18" fill="#e26f46" fill-rule="evenodd" fill-opacity="1" stroke="#000000" stroke-opacity="1" stroke-width="3.6"/>
<circle clip-path="url(#clip502)" cx="1514.17" cy="624.865" r="18" fill="#e26f46" fill-rule="evenodd" fill-opacity="1" stroke="#000000" stroke-opacity="1" stroke-width="3.6"/>
<circle clip-path="url(#clip502)" cx="1671.34" cy="626.813" r="18" fill="#e26f46" fill-rule="evenodd" fill-opacity="1" stroke="#000000" stroke-opacity="1" stroke-width="3.6"/>
<circle clip-path="url(#clip502)" cx="1828.5" cy="587.967" r="18" fill="#e26f46" fill-rule="evenodd" fill-opacity="1" stroke="#000000" stroke-opacity="1" stroke-width="3.6"/>
<circle clip-path="url(#clip502)" cx="1985.67" cy="610.392" r="18" fill="#e26f46" fill-rule="evenodd" fill-opacity="1" stroke="#000000" stroke-opacity="1" stroke-width="3.6"/>
<circle clip-path="url(#clip502)" cx="2142.84" cy="644.896" r="18" fill="#e26f46" fill-rule="evenodd" fill-opacity="1" stroke="#000000" stroke-opacity="1" stroke-width="3.6"/>
<circle clip-path="url(#clip502)" cx="2300.01" cy="639.738" r="18" fill="#e26f46" fill-rule="evenodd" fill-opacity="1" stroke="#000000" stroke-opacity="1" stroke-width="3.6"/>
<circle clip-path="url(#clip502)" cx="2457.17" cy="668.593" r="18" fill="#e26f46" fill-rule="evenodd" fill-opacity="1" stroke="#000000" stroke-opacity="1" stroke-width="3.6"/>
<circle clip-path="url(#clip502)" cx="2614.34" cy="665.08" r="18" fill="#e26f46" fill-rule="evenodd" fill-opacity="1" stroke="#000000" stroke-opacity="1" stroke-width="3.6"/>
<circle clip-path="url(#clip502)" cx="2771.51" cy="654.613" r="18" fill="#e26f46" fill-rule="evenodd" fill-opacity="1" stroke="#000000" stroke-opacity="1" stroke-width="3.6"/>
<circle clip-path="url(#clip502)" cx="2928.68" cy="645.486" r="18" fill="#e26f46" fill-rule="evenodd" fill-opacity="1" stroke="#000000" stroke-opacity="1" stroke-width="3.6"/>
<circle clip-path="url(#clip502)" cx="3085.84" cy="624.982" r="18" fill="#e26f46" fill-rule="evenodd" fill-opacity="1" stroke="#000000" stroke-opacity="1" stroke-width="3.6"/>
<circle clip-path="url(#clip502)" cx="3243.01" cy="662.133" r="18" fill="#e26f46" fill-rule="evenodd" fill-opacity="1" stroke="#000000" stroke-opacity="1" stroke-width="3.6"/>
<circle clip-path="url(#clip502)" cx="3400.18" cy="660.539" r="18" fill="#e26f46" fill-rule="evenodd" fill-opacity="1" stroke="#000000" stroke-opacity="1" stroke-width="3.6"/>
<polyline clip-path="url(#clip502)" style="stroke:#3da44d; stroke-linecap:butt; stroke-linejoin:round; stroke-width:8; stroke-opacity:1; fill:none" points="
  413.998,688.573 571.165,689.134 728.333,697.54 885.5,743.047 1042.67,764.338 1199.83,747.319 1357,799.741 1514.17,790.62 1671.34,806.117 1828.5,790.524 
  1985.67,812.084 2142.84,835.448 2300.01,826.51 2457.17,823.009 2614.34,831.091 2771.51,781.917 2928.68,800.739 3085.84,810.036 3243.01,825.736 3400.18,808.661 
  
  "/>
<circle clip-path="url(#clip502)" cx="413.998" cy="688.573" r="18" fill="#3da44d" fill-rule="evenodd" fill-opacity="1" stroke="#000000" stroke-opacity="1" stroke-width="3.6"/>
<circle clip-path="url(#clip502)" cx="571.165" cy="689.134" r="18" fill="#3da44d" fill-rule="evenodd" fill-opacity="1" stroke="#000000" stroke-opacity="1" stroke-width="3.6"/>
<circle clip-path="url(#clip502)" cx="728.333" cy="697.54" r="18" fill="#3da44d" fill-rule="evenodd" fill-opacity="1" stroke="#000000" stroke-opacity="1" stroke-width="3.6"/>
<circle clip-path="url(#clip502)" cx="885.5" cy="743.047" r="18" fill="#3da44d" fill-rule="evenodd" fill-opacity="1" stroke="#000000" stroke-opacity="1" stroke-width="3.6"/>
<circle clip-path="url(#clip502)" cx="1042.67" cy="764.338" r="18" fill="#3da44d" fill-rule="evenodd" fill-opacity="1" stroke="#000000" stroke-opacity="1" stroke-width="3.6"/>
<circle clip-path="url(#clip502)" cx="1199.83" cy="747.319" r="18" fill="#3da44d" fill-rule="evenodd" fill-opacity="1" stroke="#000000" stroke-opacity="1" stroke-width="3.6"/>
<circle clip-path="url(#clip502)" cx="1357" cy="799.741" r="18" fill="#3da44d" fill-rule="evenodd" fill-opacity="1" stroke="#000000" stroke-opacity="1" stroke-width="3.6"/>
<circle clip-path="url(#clip502)" cx="1514.17" cy="790.62" r="18" fill="#3da44d" fill-rule="evenodd" fill-opacity="1" stroke="#000000" stroke-opacity="1" stroke-width="3.6"/>
<circle clip-path="url(#clip502)" cx="1671.34" cy="806.117" r="18" fill="#3da44d" fill-rule="evenodd" fill-opacity="1" stroke="#000000" stroke-opacity="1" stroke-width="3.6"/>
<circle clip-path="url(#clip502)" cx="1828.5" cy="790.524" r="18" fill="#3da44d" fill-rule="evenodd" fill-opacity="1" stroke="#000000" stroke-opacity="1" stroke-width="3.6"/>
<circle clip-path="url(#clip502)" cx="1985.67" cy="812.084" r="18" fill="#3da44d" fill-rule="evenodd" fill-opacity="1" stroke="#000000" stroke-opacity="1" stroke-width="3.6"/>
<circle clip-path="url(#clip502)" cx="2142.84" cy="835.448" r="18" fill="#3da44d" fill-rule="evenodd" fill-opacity="1" stroke="#000000" stroke-opacity="1" stroke-width="3.6"/>
<circle clip-path="url(#clip502)" cx="2300.01" cy="826.51" r="18" fill="#3da44d" fill-rule="evenodd" fill-opacity="1" stroke="#000000" stroke-opacity="1" stroke-width="3.6"/>
<circle clip-path="url(#clip502)" cx="2457.17" cy="823.009" r="18" fill="#3da44d" fill-rule="evenodd" fill-opacity="1" stroke="#000000" stroke-opacity="1" stroke-width="3.6"/>
<circle clip-path="url(#clip502)" cx="2614.34" cy="831.091" r="18" fill="#3da44d" fill-rule="evenodd" fill-opacity="1" stroke="#000000" stroke-opacity="1" stroke-width="3.6"/>
<circle clip-path="url(#clip502)" cx="2771.51" cy="781.917" r="18" fill="#3da44d" fill-rule="evenodd" fill-opacity="1" stroke="#000000" stroke-opacity="1" stroke-width="3.6"/>
<circle clip-path="url(#clip502)" cx="2928.68" cy="800.739" r="18" fill="#3da44d" fill-rule="evenodd" fill-opacity="1" stroke="#000000" stroke-opacity="1" stroke-width="3.6"/>
<circle clip-path="url(#clip502)" cx="3085.84" cy="810.036" r="18" fill="#3da44d" fill-rule="evenodd" fill-opacity="1" stroke="#000000" stroke-opacity="1" stroke-width="3.6"/>
<circle clip-path="url(#clip502)" cx="3243.01" cy="825.736" r="18" fill="#3da44d" fill-rule="evenodd" fill-opacity="1" stroke="#000000" stroke-opacity="1" stroke-width="3.6"/>
<circle clip-path="url(#clip502)" cx="3400.18" cy="808.661" r="18" fill="#3da44d" fill-rule="evenodd" fill-opacity="1" stroke="#000000" stroke-opacity="1" stroke-width="3.6"/>
<path clip-path="url(#clip500)" d="
M2733.6 393.055 L3462.51 393.055 L3462.51 133.855 L2733.6 133.855  Z
  " fill="#ffffff" fill-rule="evenodd" fill-opacity="1"/>
<polyline clip-path="url(#clip500)" style="stroke:#000000; stroke-linecap:butt; stroke-linejoin:round; stroke-width:4; stroke-opacity:1; fill:none" points="
  2733.6,393.055 3462.51,393.055 3462.51,133.855 2733.6,133.855 2733.6,393.055 
  "/>
<polyline clip-path="url(#clip500)" style="stroke:#009af9; stroke-linecap:butt; stroke-linejoin:round; stroke-width:5; stroke-opacity:1; fill:none" points="
  2768.77,198.655 2979.79,198.655 
  "/>
<circle clip-path="url(#clip500)" cx="2874.28" cy="198.655" r="28.8" fill="#009af9" fill-rule="evenodd" fill-opacity="1" stroke="#000000" stroke-opacity="1" stroke-width="5.76"/>
<path clip-path="url(#clip500)" d="M3065.44 172.912 Q3065.44 174.112 3064.41 174.112 Q3061.1 174.229 3059.76 175.342 Q3058.44 176.425 3057.94 178.533 L3049.57 211.939 Q3049.27 212.993 3049.1 213.111 Q3048.92 213.198 3048.6 213.198 Q3048.19 213.198 3047.96 212.993 Q3047.75 212.788 3047.46 212.056 L3032.53 176.747 Q3032.41 176.513 3032.26 176.191 Q3032.12 175.869 3032 175.664 L3024.07 207.313 Q3023.83 208.221 3023.83 208.69 Q3023.83 209.831 3024.62 210.563 Q3025.44 211.266 3027.78 211.354 Q3028.99 211.354 3028.99 211.998 Q3028.99 213.198 3027.9 213.198 Q3026.91 213.198 3024.83 213.111 Q3022.75 213.023 3021.72 213.023 Q3020.73 213.023 3018.71 213.111 Q3016.69 213.198 3015.72 213.198 Q3014.96 213.198 3014.96 212.525 Q3014.96 211.998 3015.17 211.734 Q3015.37 211.442 3015.55 211.412 Q3015.72 211.354 3015.99 211.354 Q3017.74 211.295 3018.94 210.944 Q3020.14 210.593 3020.82 209.919 Q3021.52 209.246 3021.84 208.572 Q3022.19 207.87 3022.46 206.845 L3030.48 174.639 Q3030.48 174.112 3026.41 174.112 Q3025.71 174.112 3025.41 174.083 Q3025.15 174.054 3024.94 173.907 Q3024.74 173.761 3024.74 173.439 Q3024.74 172.619 3025.09 172.443 Q3025.44 172.238 3026.47 172.238 L3034.52 172.238 Q3035.54 172.238 3035.81 172.414 Q3036.07 172.56 3036.42 173.38 L3049.68 204.678 L3056.39 178.006 Q3056.57 177.479 3056.57 176.747 Q3056.57 175.576 3055.69 174.873 Q3054.84 174.141 3052.5 174.112 Q3051.41 174.112 3051.41 173.439 Q3051.41 172.882 3051.62 172.619 Q3051.85 172.326 3052.03 172.297 Q3052.23 172.238 3052.5 172.238 Q3053.49 172.238 3055.54 172.326 Q3057.59 172.414 3058.61 172.414 Q3059.61 172.414 3061.63 172.326 Q3063.68 172.238 3064.68 172.238 Q3065.03 172.238 3065.2 172.414 Q3065.41 172.56 3065.44 172.736 L3065.44 172.912 Z" fill="#000000" fill-rule="evenodd" fill-opacity="1" /><path clip-path="url(#clip500)" d="M3105.74 218.218 Q3105.74 218.382 3105.56 219.018 Q3105.37 219.653 3104.92 220.637 Q3104.49 221.621 3103.88 222.522 Q3103.28 223.404 3102.3 224.059 Q3101.34 224.695 3100.23 224.695 Q3098.75 224.695 3097.77 223.711 Q3096.79 222.727 3096.79 221.252 Q3096.79 220.452 3097.34 218.936 Q3099.94 212.009 3099.94 209.529 Q3099.94 206.598 3097.67 206.598 Q3096.38 206.598 3095.21 207.131 Q3094.04 207.664 3093.28 208.401 Q3092.52 209.139 3091.93 209.98 Q3091.34 210.82 3091.07 211.373 Q3090.82 211.927 3090.76 212.172 L3088.24 222.297 Q3088.04 223.158 3087.89 223.568 Q3087.75 223.977 3087.36 224.326 Q3086.97 224.695 3086.36 224.695 Q3085.84 224.695 3085.47 224.387 Q3085.13 224.08 3085.13 223.547 Q3085.13 223.465 3085.23 223.035 Q3085.33 222.604 3085.47 222.01 Q3085.62 221.416 3085.68 221.067 Q3086.42 218.28 3086.52 217.89 L3087.69 213.013 Q3088.32 210.594 3088.32 209.529 Q3088.32 206.598 3086.05 206.598 Q3084.92 206.598 3083.86 207.028 Q3082.81 207.438 3082.09 208.012 Q3081.38 208.586 3080.72 209.385 Q3080.08 210.164 3079.76 210.697 Q3079.45 211.209 3079.2 211.722 L3078.67 213.812 Q3078.55 214.386 3077.95 216.62 L3077.03 220.411 Q3076.37 223.24 3076.23 223.506 Q3076.03 224.08 3075.58 224.387 Q3075.12 224.695 3074.67 224.695 Q3074.16 224.695 3073.81 224.387 Q3073.46 224.08 3073.46 223.547 Q3073.46 223.465 3073.53 223.158 Q3073.59 222.85 3073.69 222.42 Q3073.79 221.989 3073.83 221.743 L3076.27 212.05 Q3076.72 210.287 3076.83 209.734 Q3076.95 209.16 3076.95 208.524 Q3076.95 206.598 3075.64 206.598 Q3074.57 206.598 3073.87 207.869 Q3073.18 209.139 3072.58 211.599 Q3072.4 212.275 3072.28 212.418 Q3072.17 212.562 3071.87 212.562 Q3071.35 212.541 3071.35 212.132 Q3071.35 212.029 3071.52 211.373 Q3071.68 210.717 3071.99 209.734 Q3072.32 208.729 3072.66 208.074 Q3072.87 207.643 3073.05 207.356 Q3073.24 207.069 3073.61 206.618 Q3073.98 206.168 3074.53 205.922 Q3075.08 205.676 3075.76 205.676 Q3077.26 205.676 3078.36 206.639 Q3079.49 207.602 3079.63 209.324 Q3082.36 205.676 3086.17 205.676 Q3088.32 205.676 3089.61 206.762 Q3090.82 207.807 3090.97 209.734 Q3093.79 205.676 3097.81 205.676 Q3100.13 205.676 3101.38 206.885 Q3102.63 208.074 3102.63 210.164 Q3102.63 211.25 3102.07 213.32 Q3101.52 215.37 3101.15 216.394 Q3100.78 217.419 3100.07 219.387 Q3099.31 221.272 3099.31 222.379 Q3099.31 223.096 3099.55 223.424 Q3099.8 223.752 3100.33 223.752 Q3101.15 223.752 3101.87 223.281 Q3102.59 222.789 3103.1 221.989 Q3103.63 221.17 3103.98 220.35 Q3104.33 219.51 3104.6 218.567 Q3104.76 218.054 3104.84 217.931 Q3104.94 217.809 3105.23 217.809 Q3105.74 217.809 3105.74 218.218 Z" fill="#000000" fill-rule="evenodd" fill-opacity="1" /><path clip-path="url(#clip500)" d="M3124.69 219.366 Q3124.86 219.551 3124.86 219.735 Q3124.86 219.919 3124.45 220.452 Q3124.06 220.985 3123.22 221.702 Q3122.38 222.42 3121.29 223.096 Q3120.21 223.772 3118.61 224.223 Q3117.01 224.695 3115.33 224.695 Q3112.19 224.695 3110.35 222.625 Q3108.52 220.555 3108.52 217.583 Q3108.52 214.693 3110.14 211.927 Q3111.76 209.139 3114.39 207.418 Q3117.01 205.676 3119.78 205.676 Q3121.97 205.676 3123.34 206.7 Q3124.71 207.725 3124.71 209.283 Q3124.71 210.492 3124.02 211.23 Q3123.32 211.968 3122.38 211.968 Q3121.72 211.968 3121.27 211.599 Q3120.82 211.209 3120.82 210.492 Q3120.82 209.57 3121.58 208.852 Q3121.87 208.565 3122.19 208.442 Q3122.54 208.299 3122.75 208.299 Q3122.95 208.279 3123.42 208.279 Q3122.99 207.479 3121.97 207.049 Q3120.96 206.598 3119.82 206.598 Q3118.12 206.598 3116.5 207.787 Q3114.88 208.955 3113.89 210.799 Q3112.91 212.603 3112.27 215.165 Q3111.64 217.706 3111.64 219.182 Q3111.64 221.211 3112.58 222.481 Q3113.52 223.752 3115.41 223.752 Q3115.78 223.752 3116.17 223.731 Q3116.58 223.711 3117.6 223.486 Q3118.65 223.26 3119.57 222.871 Q3120.49 222.481 3121.66 221.641 Q3122.85 220.78 3123.79 219.612 Q3124.12 219.182 3124.35 219.182 Q3124.53 219.182 3124.69 219.366 Z" fill="#000000" fill-rule="evenodd" fill-opacity="1" /><path clip-path="url(#clip500)" d="M3149.55 204.093 Q3149.61 203.361 3150.75 203.361 L3187.49 203.361 Q3189.22 203.361 3189.25 204.034 Q3189.25 204.766 3187.61 204.737 L3151.16 204.737 Q3149.55 204.766 3149.55 204.093 M3149.55 192.382 Q3149.55 191.65 3150.81 191.679 L3187.44 191.679 Q3189.22 191.679 3189.25 192.382 Q3189.25 193.055 3187.73 193.055 L3150.75 193.055 Q3149.55 193.055 3149.55 192.382 Z" fill="#000000" fill-rule="evenodd" fill-opacity="1" /><path clip-path="url(#clip500)" d="M3212.39 178.972 L3212.39 177.098 Q3219.59 177.098 3223.31 173.263 Q3224.33 173.263 3224.51 173.497 Q3224.68 173.732 3224.68 174.815 L3224.68 208.455 Q3224.68 210.241 3225.56 210.798 Q3226.44 211.354 3230.28 211.354 L3232.18 211.354 L3232.18 213.198 Q3230.07 213.023 3222.46 213.023 Q3214.85 213.023 3212.77 213.198 L3212.77 211.354 L3214.67 211.354 Q3218.45 211.354 3219.36 210.827 Q3220.26 210.271 3220.26 208.455 L3220.26 177.391 Q3217.13 178.972 3212.39 178.972 Z" fill="#000000" fill-rule="evenodd" fill-opacity="1" /><path clip-path="url(#clip500)" d="M3250.01 194.021 Q3250.01 185.209 3252.23 180.407 Q3255.34 173.263 3262.65 173.263 Q3264.21 173.263 3265.82 173.702 Q3267.46 174.112 3269.51 175.722 Q3271.58 177.333 3272.84 179.968 Q3275.24 185.062 3275.24 194.021 Q3275.24 202.775 3273.02 207.548 Q3269.77 214.516 3262.6 214.516 Q3259.9 214.516 3257.15 213.14 Q3254.43 211.764 3252.7 208.455 Q3250.01 203.507 3250.01 194.021 M3254.98 193.289 Q3254.98 202.336 3255.63 205.937 Q3256.36 209.831 3258.35 211.529 Q3260.37 213.198 3262.6 213.198 Q3265 213.198 3266.99 211.412 Q3269.01 209.597 3269.62 205.703 Q3270.3 201.868 3270.27 193.289 Q3270.27 184.945 3269.68 181.607 Q3268.89 177.713 3266.78 176.162 Q3264.7 174.581 3262.6 174.581 Q3261.81 174.581 3260.96 174.815 Q3260.14 175.049 3258.94 175.722 Q3257.74 176.396 3256.8 178.065 Q3255.89 179.734 3255.45 182.251 Q3254.98 185.501 3254.98 193.289 Z" fill="#000000" fill-rule="evenodd" fill-opacity="1" /><path clip-path="url(#clip500)" d="M3279.94 194.021 Q3279.94 185.209 3282.17 180.407 Q3285.27 173.263 3292.59 173.263 Q3294.14 173.263 3295.75 173.702 Q3297.39 174.112 3299.44 175.722 Q3301.52 177.333 3302.78 179.968 Q3305.18 185.062 3305.18 194.021 Q3305.18 202.775 3302.95 207.548 Q3299.7 214.516 3292.53 214.516 Q3289.84 214.516 3287.09 213.14 Q3284.36 211.764 3282.64 208.455 Q3279.94 203.507 3279.94 194.021 M3284.92 193.289 Q3284.92 202.336 3285.56 205.937 Q3286.3 209.831 3288.29 211.529 Q3290.31 213.198 3292.53 213.198 Q3294.93 213.198 3296.92 211.412 Q3298.94 209.597 3299.56 205.703 Q3300.23 201.868 3300.2 193.289 Q3300.2 184.945 3299.62 181.607 Q3298.83 177.713 3296.72 176.162 Q3294.64 174.581 3292.53 174.581 Q3291.74 174.581 3290.89 174.815 Q3290.07 175.049 3288.87 175.722 Q3287.67 176.396 3286.73 178.065 Q3285.83 179.734 3285.39 182.251 Q3284.92 185.501 3284.92 193.289 Z" fill="#000000" fill-rule="evenodd" fill-opacity="1" /><path clip-path="url(#clip500)" d="M3309.88 194.021 Q3309.88 185.209 3312.1 180.407 Q3315.21 173.263 3322.53 173.263 Q3324.08 173.263 3325.69 173.702 Q3327.33 174.112 3329.38 175.722 Q3331.46 177.333 3332.71 179.968 Q3335.11 185.062 3335.11 194.021 Q3335.11 202.775 3332.89 207.548 Q3329.64 214.516 3322.47 214.516 Q3319.77 214.516 3317.02 213.14 Q3314.3 211.764 3312.57 208.455 Q3309.88 203.507 3309.88 194.021 M3314.85 193.289 Q3314.85 202.336 3315.5 205.937 Q3316.23 209.831 3318.22 211.529 Q3320.24 213.198 3322.47 213.198 Q3324.87 213.198 3326.86 211.412 Q3328.88 209.597 3329.49 205.703 Q3330.17 201.868 3330.14 193.289 Q3330.14 184.945 3329.55 181.607 Q3328.76 177.713 3326.65 176.162 Q3324.57 174.581 3322.47 174.581 Q3321.68 174.581 3320.83 174.815 Q3320.01 175.049 3318.81 175.722 Q3317.61 176.396 3316.67 178.065 Q3315.76 179.734 3315.32 182.251 Q3314.85 185.501 3314.85 193.289 Z" fill="#000000" fill-rule="evenodd" fill-opacity="1" /><polyline clip-path="url(#clip500)" style="stroke:#e26f46; stroke-linecap:butt; stroke-linejoin:round; stroke-width:5; stroke-opacity:1; fill:none" points="
  2768.77,263.455 2979.79,263.455 
  "/>
<circle clip-path="url(#clip500)" cx="2874.28" cy="263.455" r="28.8" fill="#e26f46" fill-rule="evenodd" fill-opacity="1" stroke="#000000" stroke-opacity="1" stroke-width="5.76"/>
<path clip-path="url(#clip500)" d="M3065.44 237.712 Q3065.44 238.912 3064.41 238.912 Q3061.1 239.029 3059.76 240.142 Q3058.44 241.225 3057.94 243.333 L3049.57 276.739 Q3049.27 277.793 3049.1 277.911 Q3048.92 277.998 3048.6 277.998 Q3048.19 277.998 3047.96 277.793 Q3047.75 277.588 3047.46 276.856 L3032.53 241.547 Q3032.41 241.313 3032.26 240.991 Q3032.12 240.669 3032 240.464 L3024.07 272.113 Q3023.83 273.021 3023.83 273.49 Q3023.83 274.631 3024.62 275.363 Q3025.44 276.066 3027.78 276.154 Q3028.99 276.154 3028.99 276.798 Q3028.99 277.998 3027.9 277.998 Q3026.91 277.998 3024.83 277.911 Q3022.75 277.823 3021.72 277.823 Q3020.73 277.823 3018.71 277.911 Q3016.69 277.998 3015.72 277.998 Q3014.96 277.998 3014.96 277.325 Q3014.96 276.798 3015.17 276.534 Q3015.37 276.242 3015.55 276.212 Q3015.72 276.154 3015.99 276.154 Q3017.74 276.095 3018.94 275.744 Q3020.14 275.393 3020.82 274.719 Q3021.52 274.046 3021.84 273.372 Q3022.19 272.67 3022.46 271.645 L3030.48 239.439 Q3030.48 238.912 3026.41 238.912 Q3025.71 238.912 3025.41 238.883 Q3025.15 238.854 3024.94 238.707 Q3024.74 238.561 3024.74 238.239 Q3024.74 237.419 3025.09 237.243 Q3025.44 237.038 3026.47 237.038 L3034.52 237.038 Q3035.54 237.038 3035.81 237.214 Q3036.07 237.36 3036.42 238.18 L3049.68 269.478 L3056.39 242.806 Q3056.57 242.279 3056.57 241.547 Q3056.57 240.376 3055.69 239.673 Q3054.84 238.941 3052.5 238.912 Q3051.41 238.912 3051.41 238.239 Q3051.41 237.682 3051.62 237.419 Q3051.85 237.126 3052.03 237.097 Q3052.23 237.038 3052.5 237.038 Q3053.49 237.038 3055.54 237.126 Q3057.59 237.214 3058.61 237.214 Q3059.61 237.214 3061.63 237.126 Q3063.68 237.038 3064.68 237.038 Q3065.03 237.038 3065.2 237.214 Q3065.41 237.36 3065.44 237.536 L3065.44 237.712 Z" fill="#000000" fill-rule="evenodd" fill-opacity="1" /><path clip-path="url(#clip500)" d="M3105.74 283.018 Q3105.74 283.182 3105.56 283.818 Q3105.37 284.453 3104.92 285.437 Q3104.49 286.421 3103.88 287.322 Q3103.28 288.204 3102.3 288.859 Q3101.34 289.495 3100.23 289.495 Q3098.75 289.495 3097.77 288.511 Q3096.79 287.527 3096.79 286.052 Q3096.79 285.252 3097.34 283.736 Q3099.94 276.809 3099.94 274.329 Q3099.94 271.398 3097.67 271.398 Q3096.38 271.398 3095.21 271.931 Q3094.04 272.464 3093.28 273.201 Q3092.52 273.939 3091.93 274.78 Q3091.34 275.62 3091.07 276.173 Q3090.82 276.727 3090.76 276.972 L3088.24 287.097 Q3088.04 287.958 3087.89 288.368 Q3087.75 288.777 3087.36 289.126 Q3086.97 289.495 3086.36 289.495 Q3085.84 289.495 3085.47 289.187 Q3085.13 288.88 3085.13 288.347 Q3085.13 288.265 3085.23 287.835 Q3085.33 287.404 3085.47 286.81 Q3085.62 286.216 3085.68 285.867 Q3086.42 283.08 3086.52 282.69 L3087.69 277.813 Q3088.32 275.394 3088.32 274.329 Q3088.32 271.398 3086.05 271.398 Q3084.92 271.398 3083.86 271.828 Q3082.81 272.238 3082.09 272.812 Q3081.38 273.386 3080.72 274.185 Q3080.08 274.964 3079.76 275.497 Q3079.45 276.009 3079.2 276.522 L3078.67 278.612 Q3078.55 279.186 3077.95 281.42 L3077.03 285.211 Q3076.37 288.04 3076.23 288.306 Q3076.03 288.88 3075.58 289.187 Q3075.12 289.495 3074.67 289.495 Q3074.16 289.495 3073.81 289.187 Q3073.46 288.88 3073.46 288.347 Q3073.46 288.265 3073.53 287.958 Q3073.59 287.65 3073.69 287.22 Q3073.79 286.789 3073.83 286.543 L3076.27 276.85 Q3076.72 275.087 3076.83 274.534 Q3076.95 273.96 3076.95 273.324 Q3076.95 271.398 3075.64 271.398 Q3074.57 271.398 3073.87 272.669 Q3073.18 273.939 3072.58 276.399 Q3072.4 277.075 3072.28 277.218 Q3072.17 277.362 3071.87 277.362 Q3071.35 277.341 3071.35 276.932 Q3071.35 276.829 3071.52 276.173 Q3071.68 275.517 3071.99 274.534 Q3072.32 273.529 3072.66 272.874 Q3072.87 272.443 3073.05 272.156 Q3073.24 271.869 3073.61 271.418 Q3073.98 270.968 3074.53 270.722 Q3075.08 270.476 3075.76 270.476 Q3077.26 270.476 3078.36 271.439 Q3079.49 272.402 3079.63 274.124 Q3082.36 270.476 3086.17 270.476 Q3088.32 270.476 3089.61 271.562 Q3090.82 272.607 3090.97 274.534 Q3093.79 270.476 3097.81 270.476 Q3100.13 270.476 3101.38 271.685 Q3102.63 272.874 3102.63 274.964 Q3102.63 276.05 3102.07 278.12 Q3101.52 280.17 3101.15 281.194 Q3100.78 282.219 3100.07 284.187 Q3099.31 286.072 3099.31 287.179 Q3099.31 287.896 3099.55 288.224 Q3099.8 288.552 3100.33 288.552 Q3101.15 288.552 3101.87 288.081 Q3102.59 287.589 3103.1 286.789 Q3103.63 285.97 3103.98 285.15 Q3104.33 284.31 3104.6 283.367 Q3104.76 282.854 3104.84 282.731 Q3104.94 282.609 3105.23 282.609 Q3105.74 282.609 3105.74 283.018 Z" fill="#000000" fill-rule="evenodd" fill-opacity="1" /><path clip-path="url(#clip500)" d="M3124.69 284.166 Q3124.86 284.351 3124.86 284.535 Q3124.86 284.719 3124.45 285.252 Q3124.06 285.785 3123.22 286.502 Q3122.38 287.22 3121.29 287.896 Q3120.21 288.572 3118.61 289.023 Q3117.01 289.495 3115.33 289.495 Q3112.19 289.495 3110.35 287.425 Q3108.52 285.355 3108.52 282.383 Q3108.52 279.493 3110.14 276.727 Q3111.76 273.939 3114.39 272.218 Q3117.01 270.476 3119.78 270.476 Q3121.97 270.476 3123.34 271.5 Q3124.71 272.525 3124.71 274.083 Q3124.71 275.292 3124.02 276.03 Q3123.32 276.768 3122.38 276.768 Q3121.72 276.768 3121.27 276.399 Q3120.82 276.009 3120.82 275.292 Q3120.82 274.37 3121.58 273.652 Q3121.87 273.365 3122.19 273.242 Q3122.54 273.099 3122.75 273.099 Q3122.95 273.079 3123.42 273.079 Q3122.99 272.279 3121.97 271.849 Q3120.96 271.398 3119.82 271.398 Q3118.12 271.398 3116.5 272.587 Q3114.88 273.755 3113.89 275.599 Q3112.91 277.403 3112.27 279.965 Q3111.64 282.506 3111.64 283.982 Q3111.64 286.011 3112.58 287.281 Q3113.52 288.552 3115.41 288.552 Q3115.78 288.552 3116.17 288.531 Q3116.58 288.511 3117.6 288.286 Q3118.65 288.06 3119.57 287.671 Q3120.49 287.281 3121.66 286.441 Q3122.85 285.58 3123.79 284.412 Q3124.12 283.982 3124.35 283.982 Q3124.53 283.982 3124.69 284.166 Z" fill="#000000" fill-rule="evenodd" fill-opacity="1" /><path clip-path="url(#clip500)" d="M3149.55 268.893 Q3149.61 268.161 3150.75 268.161 L3187.49 268.161 Q3189.22 268.161 3189.25 268.834 Q3189.25 269.566 3187.61 269.537 L3151.16 269.537 Q3149.55 269.566 3149.55 268.893 M3149.55 257.182 Q3149.55 256.45 3150.81 256.479 L3187.44 256.479 Q3189.22 256.479 3189.25 257.182 Q3189.25 257.855 3187.73 257.855 L3150.75 257.855 Q3149.55 257.855 3149.55 257.182 Z" fill="#000000" fill-rule="evenodd" fill-opacity="1" /><path clip-path="url(#clip500)" d="M3212.39 243.772 L3212.39 241.898 Q3219.59 241.898 3223.31 238.063 Q3224.33 238.063 3224.51 238.297 Q3224.68 238.532 3224.68 239.615 L3224.68 273.255 Q3224.68 275.041 3225.56 275.598 Q3226.44 276.154 3230.28 276.154 L3232.18 276.154 L3232.18 277.998 Q3230.07 277.823 3222.46 277.823 Q3214.85 277.823 3212.77 277.998 L3212.77 276.154 L3214.67 276.154 Q3218.45 276.154 3219.36 275.627 Q3220.26 275.071 3220.26 273.255 L3220.26 242.191 Q3217.13 243.772 3212.39 243.772 Z" fill="#000000" fill-rule="evenodd" fill-opacity="1" /><path clip-path="url(#clip500)" d="M3235.05 258.821 Q3235.05 250.009 3237.27 245.207 Q3240.38 238.063 3247.7 238.063 Q3249.25 238.063 3250.86 238.502 Q3252.5 238.912 3254.55 240.522 Q3256.63 242.133 3257.88 244.768 Q3260.28 249.862 3260.28 258.821 Q3260.28 267.575 3258.06 272.348 Q3254.81 279.316 3247.64 279.316 Q3244.94 279.316 3242.19 277.94 Q3239.47 276.564 3237.74 273.255 Q3235.05 268.307 3235.05 258.821 M3240.02 258.089 Q3240.02 267.136 3240.67 270.737 Q3241.4 274.631 3243.39 276.329 Q3245.41 277.998 3247.64 277.998 Q3250.04 277.998 3252.03 276.212 Q3254.05 274.397 3254.66 270.503 Q3255.34 266.668 3255.31 258.089 Q3255.31 249.745 3254.72 246.407 Q3253.93 242.513 3251.82 240.962 Q3249.74 239.381 3247.64 239.381 Q3246.85 239.381 3246 239.615 Q3245.18 239.849 3243.98 240.522 Q3242.78 241.196 3241.84 242.865 Q3240.93 244.534 3240.49 247.051 Q3240.02 250.301 3240.02 258.089 Z" fill="#000000" fill-rule="evenodd" fill-opacity="1" /><path clip-path="url(#clip500)" d="M3272.67 258.821 Q3272.67 250.009 3274.89 245.207 Q3278 238.063 3285.32 238.063 Q3286.87 238.063 3288.48 238.502 Q3290.12 238.912 3292.17 240.522 Q3294.24 242.133 3295.5 244.768 Q3297.9 249.862 3297.9 258.821 Q3297.9 267.575 3295.68 272.348 Q3292.43 279.316 3285.26 279.316 Q3282.56 279.316 3279.81 277.94 Q3277.09 276.564 3275.36 273.255 Q3272.67 268.307 3272.67 258.821 M3277.64 258.089 Q3277.64 267.136 3278.29 270.737 Q3279.02 274.631 3281.01 276.329 Q3283.03 277.998 3285.26 277.998 Q3287.66 277.998 3289.65 276.212 Q3291.67 274.397 3292.28 270.503 Q3292.96 266.668 3292.93 258.089 Q3292.93 249.745 3292.34 246.407 Q3291.55 242.513 3289.44 240.962 Q3287.36 239.381 3285.26 239.381 Q3284.47 239.381 3283.62 239.615 Q3282.8 239.849 3281.6 240.522 Q3280.4 241.196 3279.46 242.865 Q3278.55 244.534 3278.11 247.051 Q3277.64 250.301 3277.64 258.089 Z" fill="#000000" fill-rule="evenodd" fill-opacity="1" /><path clip-path="url(#clip500)" d="M3302.6 258.821 Q3302.6 250.009 3304.83 245.207 Q3307.93 238.063 3315.25 238.063 Q3316.8 238.063 3318.41 238.502 Q3320.05 238.912 3322.1 240.522 Q3324.18 242.133 3325.44 244.768 Q3327.84 249.862 3327.84 258.821 Q3327.84 267.575 3325.61 272.348 Q3322.36 279.316 3315.19 279.316 Q3312.5 279.316 3309.75 277.94 Q3307.02 276.564 3305.3 273.255 Q3302.6 268.307 3302.6 258.821 M3307.58 258.089 Q3307.58 267.136 3308.22 270.737 Q3308.96 274.631 3310.95 276.329 Q3312.97 277.998 3315.19 277.998 Q3317.59 277.998 3319.58 276.212 Q3321.6 274.397 3322.22 270.503 Q3322.89 266.668 3322.86 258.089 Q3322.86 249.745 3322.28 246.407 Q3321.49 242.513 3319.38 240.962 Q3317.3 239.381 3315.19 239.381 Q3314.4 239.381 3313.55 239.615 Q3312.73 239.849 3311.53 240.522 Q3310.33 241.196 3309.39 242.865 Q3308.49 244.534 3308.05 247.051 Q3307.58 250.301 3307.58 258.089 Z" fill="#000000" fill-rule="evenodd" fill-opacity="1" /><path clip-path="url(#clip500)" d="M3332.54 258.821 Q3332.54 250.009 3334.76 245.207 Q3337.87 238.063 3345.19 238.063 Q3346.74 238.063 3348.35 238.502 Q3349.99 238.912 3352.04 240.522 Q3354.12 242.133 3355.37 244.768 Q3357.78 249.862 3357.78 258.821 Q3357.78 267.575 3355.55 272.348 Q3352.3 279.316 3345.13 279.316 Q3342.43 279.316 3339.68 277.94 Q3336.96 276.564 3335.23 273.255 Q3332.54 268.307 3332.54 258.821 M3337.51 258.089 Q3337.51 267.136 3338.16 270.737 Q3338.89 274.631 3340.88 276.329 Q3342.9 277.998 3345.13 277.998 Q3347.53 277.998 3349.52 276.212 Q3351.54 274.397 3352.15 270.503 Q3352.83 266.668 3352.8 258.089 Q3352.8 249.745 3352.21 246.407 Q3351.42 242.513 3349.31 240.962 Q3347.24 239.381 3345.13 239.381 Q3344.34 239.381 3343.49 239.615 Q3342.67 239.849 3341.47 240.522 Q3340.27 241.196 3339.33 242.865 Q3338.42 244.534 3337.98 247.051 Q3337.51 250.301 3337.51 258.089 Z" fill="#000000" fill-rule="evenodd" fill-opacity="1" /><polyline clip-path="url(#clip500)" style="stroke:#3da44d; stroke-linecap:butt; stroke-linejoin:round; stroke-width:5; stroke-opacity:1; fill:none" points="
  2768.77,328.255 2979.79,328.255 
  "/>
<circle clip-path="url(#clip500)" cx="2874.28" cy="328.255" r="28.8" fill="#3da44d" fill-rule="evenodd" fill-opacity="1" stroke="#000000" stroke-opacity="1" stroke-width="5.76"/>
<path clip-path="url(#clip500)" d="M3065.44 302.512 Q3065.44 303.712 3064.41 303.712 Q3061.1 303.829 3059.76 304.942 Q3058.44 306.025 3057.94 308.133 L3049.57 341.539 Q3049.27 342.593 3049.1 342.711 Q3048.92 342.798 3048.6 342.798 Q3048.19 342.798 3047.96 342.593 Q3047.75 342.388 3047.46 341.656 L3032.53 306.347 Q3032.41 306.113 3032.26 305.791 Q3032.12 305.469 3032 305.264 L3024.07 336.913 Q3023.83 337.821 3023.83 338.29 Q3023.83 339.431 3024.62 340.163 Q3025.44 340.866 3027.78 340.954 Q3028.99 340.954 3028.99 341.598 Q3028.99 342.798 3027.9 342.798 Q3026.91 342.798 3024.83 342.711 Q3022.75 342.623 3021.72 342.623 Q3020.73 342.623 3018.71 342.711 Q3016.69 342.798 3015.72 342.798 Q3014.96 342.798 3014.96 342.125 Q3014.96 341.598 3015.17 341.334 Q3015.37 341.042 3015.55 341.012 Q3015.72 340.954 3015.99 340.954 Q3017.74 340.895 3018.94 340.544 Q3020.14 340.193 3020.82 339.519 Q3021.52 338.846 3021.84 338.172 Q3022.19 337.47 3022.46 336.445 L3030.48 304.239 Q3030.48 303.712 3026.41 303.712 Q3025.71 303.712 3025.41 303.683 Q3025.15 303.654 3024.94 303.507 Q3024.74 303.361 3024.74 303.039 Q3024.74 302.219 3025.09 302.043 Q3025.44 301.838 3026.47 301.838 L3034.52 301.838 Q3035.54 301.838 3035.81 302.014 Q3036.07 302.16 3036.42 302.98 L3049.68 334.278 L3056.39 307.606 Q3056.57 307.079 3056.57 306.347 Q3056.57 305.176 3055.69 304.473 Q3054.84 303.741 3052.5 303.712 Q3051.41 303.712 3051.41 303.039 Q3051.41 302.482 3051.62 302.219 Q3051.85 301.926 3052.03 301.897 Q3052.23 301.838 3052.5 301.838 Q3053.49 301.838 3055.54 301.926 Q3057.59 302.014 3058.61 302.014 Q3059.61 302.014 3061.63 301.926 Q3063.68 301.838 3064.68 301.838 Q3065.03 301.838 3065.2 302.014 Q3065.41 302.16 3065.44 302.336 L3065.44 302.512 Z" fill="#000000" fill-rule="evenodd" fill-opacity="1" /><path clip-path="url(#clip500)" d="M3105.74 347.818 Q3105.74 347.982 3105.56 348.618 Q3105.37 349.253 3104.92 350.237 Q3104.49 351.221 3103.88 352.122 Q3103.28 353.004 3102.3 353.659 Q3101.34 354.295 3100.23 354.295 Q3098.75 354.295 3097.77 353.311 Q3096.79 352.327 3096.79 350.852 Q3096.79 350.052 3097.34 348.536 Q3099.94 341.609 3099.94 339.129 Q3099.94 336.198 3097.67 336.198 Q3096.38 336.198 3095.21 336.731 Q3094.04 337.264 3093.28 338.001 Q3092.52 338.739 3091.93 339.58 Q3091.34 340.42 3091.07 340.973 Q3090.82 341.527 3090.76 341.772 L3088.24 351.897 Q3088.04 352.758 3087.89 353.168 Q3087.75 353.577 3087.36 353.926 Q3086.97 354.295 3086.36 354.295 Q3085.84 354.295 3085.47 353.987 Q3085.13 353.68 3085.13 353.147 Q3085.13 353.065 3085.23 352.635 Q3085.33 352.204 3085.47 351.61 Q3085.62 351.016 3085.68 350.667 Q3086.42 347.88 3086.52 347.49 L3087.69 342.613 Q3088.32 340.194 3088.32 339.129 Q3088.32 336.198 3086.05 336.198 Q3084.92 336.198 3083.86 336.628 Q3082.81 337.038 3082.09 337.612 Q3081.38 338.186 3080.72 338.985 Q3080.08 339.764 3079.76 340.297 Q3079.45 340.809 3079.2 341.322 L3078.67 343.412 Q3078.55 343.986 3077.95 346.22 L3077.03 350.011 Q3076.37 352.84 3076.23 353.106 Q3076.03 353.68 3075.58 353.987 Q3075.12 354.295 3074.67 354.295 Q3074.16 354.295 3073.81 353.987 Q3073.46 353.68 3073.46 353.147 Q3073.46 353.065 3073.53 352.758 Q3073.59 352.45 3073.69 352.02 Q3073.79 351.589 3073.83 351.343 L3076.27 341.65 Q3076.72 339.887 3076.83 339.334 Q3076.95 338.76 3076.95 338.124 Q3076.95 336.198 3075.64 336.198 Q3074.57 336.198 3073.87 337.469 Q3073.18 338.739 3072.58 341.199 Q3072.4 341.875 3072.28 342.018 Q3072.17 342.162 3071.87 342.162 Q3071.35 342.141 3071.35 341.732 Q3071.35 341.629 3071.52 340.973 Q3071.68 340.317 3071.99 339.334 Q3072.32 338.329 3072.66 337.674 Q3072.87 337.243 3073.05 336.956 Q3073.24 336.669 3073.61 336.218 Q3073.98 335.768 3074.53 335.522 Q3075.08 335.276 3075.76 335.276 Q3077.26 335.276 3078.36 336.239 Q3079.49 337.202 3079.63 338.924 Q3082.36 335.276 3086.17 335.276 Q3088.32 335.276 3089.61 336.362 Q3090.82 337.407 3090.97 339.334 Q3093.79 335.276 3097.81 335.276 Q3100.13 335.276 3101.38 336.485 Q3102.63 337.674 3102.63 339.764 Q3102.63 340.85 3102.07 342.92 Q3101.52 344.97 3101.15 345.994 Q3100.78 347.019 3100.07 348.987 Q3099.31 350.872 3099.31 351.979 Q3099.31 352.696 3099.55 353.024 Q3099.8 353.352 3100.33 353.352 Q3101.15 353.352 3101.87 352.881 Q3102.59 352.389 3103.1 351.589 Q3103.63 350.77 3103.98 349.95 Q3104.33 349.11 3104.6 348.167 Q3104.76 347.654 3104.84 347.531 Q3104.94 347.409 3105.23 347.409 Q3105.74 347.409 3105.74 347.818 Z" fill="#000000" fill-rule="evenodd" fill-opacity="1" /><path clip-path="url(#clip500)" d="M3124.69 348.966 Q3124.86 349.151 3124.86 349.335 Q3124.86 349.519 3124.45 350.052 Q3124.06 350.585 3123.22 351.302 Q3122.38 352.02 3121.29 352.696 Q3120.21 353.372 3118.61 353.823 Q3117.01 354.295 3115.33 354.295 Q3112.19 354.295 3110.35 352.225 Q3108.52 350.155 3108.52 347.183 Q3108.52 344.293 3110.14 341.527 Q3111.76 338.739 3114.39 337.018 Q3117.01 335.276 3119.78 335.276 Q3121.97 335.276 3123.34 336.3 Q3124.71 337.325 3124.71 338.883 Q3124.71 340.092 3124.02 340.83 Q3123.32 341.568 3122.38 341.568 Q3121.72 341.568 3121.27 341.199 Q3120.82 340.809 3120.82 340.092 Q3120.82 339.17 3121.58 338.452 Q3121.87 338.165 3122.19 338.042 Q3122.54 337.899 3122.75 337.899 Q3122.95 337.879 3123.42 337.879 Q3122.99 337.079 3121.97 336.649 Q3120.96 336.198 3119.82 336.198 Q3118.12 336.198 3116.5 337.387 Q3114.88 338.555 3113.89 340.399 Q3112.91 342.203 3112.27 344.765 Q3111.64 347.306 3111.64 348.782 Q3111.64 350.811 3112.58 352.081 Q3113.52 353.352 3115.41 353.352 Q3115.78 353.352 3116.17 353.331 Q3116.58 353.311 3117.6 353.086 Q3118.65 352.86 3119.57 352.471 Q3120.49 352.081 3121.66 351.241 Q3122.85 350.38 3123.79 349.212 Q3124.12 348.782 3124.35 348.782 Q3124.53 348.782 3124.69 348.966 Z" fill="#000000" fill-rule="evenodd" fill-opacity="1" /><path clip-path="url(#clip500)" d="M3149.55 333.693 Q3149.61 332.961 3150.75 332.961 L3187.49 332.961 Q3189.22 332.961 3189.25 333.634 Q3189.25 334.366 3187.61 334.337 L3151.16 334.337 Q3149.55 334.366 3149.55 333.693 M3149.55 321.982 Q3149.55 321.25 3150.81 321.279 L3187.44 321.279 Q3189.22 321.279 3189.25 321.982 Q3189.25 322.655 3187.73 322.655 L3150.75 322.655 Q3149.55 322.655 3149.55 321.982 Z" fill="#000000" fill-rule="evenodd" fill-opacity="1" /><path clip-path="url(#clip500)" d="M3212.39 308.572 L3212.39 306.698 Q3219.59 306.698 3223.31 302.863 Q3224.33 302.863 3224.51 303.097 Q3224.68 303.332 3224.68 304.415 L3224.68 338.055 Q3224.68 339.841 3225.56 340.398 Q3226.44 340.954 3230.28 340.954 L3232.18 340.954 L3232.18 342.798 Q3230.07 342.623 3222.46 342.623 Q3214.85 342.623 3212.77 342.798 L3212.77 340.954 L3214.67 340.954 Q3218.45 340.954 3219.36 340.427 Q3220.26 339.871 3220.26 338.055 L3220.26 306.991 Q3217.13 308.572 3212.39 308.572 Z" fill="#000000" fill-rule="evenodd" fill-opacity="1" /><path clip-path="url(#clip500)" d="M3235.05 323.621 Q3235.05 314.809 3237.27 310.007 Q3240.38 302.863 3247.7 302.863 Q3249.25 302.863 3250.86 303.302 Q3252.5 303.712 3254.55 305.322 Q3256.63 306.933 3257.88 309.568 Q3260.28 314.662 3260.28 323.621 Q3260.28 332.375 3258.06 337.148 Q3254.81 344.116 3247.64 344.116 Q3244.94 344.116 3242.19 342.74 Q3239.47 341.364 3237.74 338.055 Q3235.05 333.107 3235.05 323.621 M3240.02 322.889 Q3240.02 331.936 3240.67 335.537 Q3241.4 339.431 3243.39 341.129 Q3245.41 342.798 3247.64 342.798 Q3250.04 342.798 3252.03 341.012 Q3254.05 339.197 3254.66 335.303 Q3255.34 331.468 3255.31 322.889 Q3255.31 314.545 3254.72 311.207 Q3253.93 307.313 3251.82 305.762 Q3249.74 304.181 3247.64 304.181 Q3246.85 304.181 3246 304.415 Q3245.18 304.649 3243.98 305.322 Q3242.78 305.996 3241.84 307.665 Q3240.93 309.334 3240.49 311.851 Q3240.02 315.101 3240.02 322.889 Z" fill="#000000" fill-rule="evenodd" fill-opacity="1" /><path clip-path="url(#clip500)" d="M3264.98 323.621 Q3264.98 314.809 3267.21 310.007 Q3270.31 302.863 3277.63 302.863 Q3279.18 302.863 3280.79 303.302 Q3282.43 303.712 3284.48 305.322 Q3286.56 306.933 3287.82 309.568 Q3290.22 314.662 3290.22 323.621 Q3290.22 332.375 3288 337.148 Q3284.75 344.116 3277.57 344.116 Q3274.88 344.116 3272.13 342.74 Q3269.4 341.364 3267.68 338.055 Q3264.98 333.107 3264.98 323.621 M3269.96 322.889 Q3269.96 331.936 3270.6 335.537 Q3271.34 339.431 3273.33 341.129 Q3275.35 342.798 3277.57 342.798 Q3279.97 342.798 3281.96 341.012 Q3283.98 339.197 3284.6 335.303 Q3285.27 331.468 3285.24 322.889 Q3285.24 314.545 3284.66 311.207 Q3283.87 307.313 3281.76 305.762 Q3279.68 304.181 3277.57 304.181 Q3276.78 304.181 3275.93 304.415 Q3275.11 304.649 3273.91 305.322 Q3272.71 305.996 3271.78 307.665 Q3270.87 309.334 3270.43 311.851 Q3269.96 315.101 3269.96 322.889 Z" fill="#000000" fill-rule="evenodd" fill-opacity="1" /><path clip-path="url(#clip500)" d="M3302.6 323.621 Q3302.6 314.809 3304.83 310.007 Q3307.93 302.863 3315.25 302.863 Q3316.8 302.863 3318.41 303.302 Q3320.05 303.712 3322.1 305.322 Q3324.18 306.933 3325.44 309.568 Q3327.84 314.662 3327.84 323.621 Q3327.84 332.375 3325.61 337.148 Q3322.36 344.116 3315.19 344.116 Q3312.5 344.116 3309.75 342.74 Q3307.02 341.364 3305.3 338.055 Q3302.6 333.107 3302.6 323.621 M3307.58 322.889 Q3307.58 331.936 3308.22 335.537 Q3308.96 339.431 3310.95 341.129 Q3312.97 342.798 3315.19 342.798 Q3317.59 342.798 3319.58 341.012 Q3321.6 339.197 3322.22 335.303 Q3322.89 331.468 3322.86 322.889 Q3322.86 314.545 3322.28 311.207 Q3321.49 307.313 3319.38 305.762 Q3317.3 304.181 3315.19 304.181 Q3314.4 304.181 3313.55 304.415 Q3312.73 304.649 3311.53 305.322 Q3310.33 305.996 3309.39 307.665 Q3308.49 309.334 3308.05 311.851 Q3307.58 315.101 3307.58 322.889 Z" fill="#000000" fill-rule="evenodd" fill-opacity="1" /><path clip-path="url(#clip500)" d="M3332.54 323.621 Q3332.54 314.809 3334.76 310.007 Q3337.87 302.863 3345.19 302.863 Q3346.74 302.863 3348.35 303.302 Q3349.99 303.712 3352.04 305.322 Q3354.12 306.933 3355.37 309.568 Q3357.78 314.662 3357.78 323.621 Q3357.78 332.375 3355.55 337.148 Q3352.3 344.116 3345.13 344.116 Q3342.43 344.116 3339.68 342.74 Q3336.96 341.364 3335.23 338.055 Q3332.54 333.107 3332.54 323.621 M3337.51 322.889 Q3337.51 331.936 3338.16 335.537 Q3338.89 339.431 3340.88 341.129 Q3342.9 342.798 3345.13 342.798 Q3347.53 342.798 3349.52 341.012 Q3351.54 339.197 3352.15 335.303 Q3352.83 331.468 3352.8 322.889 Q3352.8 314.545 3352.21 311.207 Q3351.42 307.313 3349.31 305.762 Q3347.24 304.181 3345.13 304.181 Q3344.34 304.181 3343.49 304.415 Q3342.67 304.649 3341.47 305.322 Q3340.27 305.996 3339.33 307.665 Q3338.42 309.334 3337.98 311.851 Q3337.51 315.101 3337.51 322.889 Z" fill="#000000" fill-rule="evenodd" fill-opacity="1" /><path clip-path="url(#clip500)" d="M3362.47 323.621 Q3362.47 314.809 3364.7 310.007 Q3367.8 302.863 3375.12 302.863 Q3376.67 302.863 3378.28 303.302 Q3379.92 303.712 3381.97 305.322 Q3384.05 306.933 3385.31 309.568 Q3387.71 314.662 3387.71 323.621 Q3387.71 332.375 3385.49 337.148 Q3382.24 344.116 3375.06 344.116 Q3372.37 344.116 3369.62 342.74 Q3366.89 341.364 3365.17 338.055 Q3362.47 333.107 3362.47 323.621 M3367.45 322.889 Q3367.45 331.936 3368.09 335.537 Q3368.83 339.431 3370.82 341.129 Q3372.84 342.798 3375.06 342.798 Q3377.46 342.798 3379.45 341.012 Q3381.47 339.197 3382.09 335.303 Q3382.76 331.468 3382.73 322.889 Q3382.73 314.545 3382.15 311.207 Q3381.36 307.313 3379.25 305.762 Q3377.17 304.181 3375.06 304.181 Q3374.27 304.181 3373.42 304.415 Q3372.6 304.649 3371.4 305.322 Q3370.2 305.996 3369.27 307.665 Q3368.36 309.334 3367.92 311.851 Q3367.45 315.101 3367.45 322.889 Z" fill="#000000" fill-rule="evenodd" fill-opacity="1" /></svg>
